<?xml version="1.0" encoding="utf-8" ?>
<svg baseProfile="full" height="100%" version="1.1" width="100%" xmlns="http://www.w3.org/2000/svg" xmlns:ev="http://www.w3.org/2001/xml-events" xmlns:xlink="http://www.w3.org/1999/xlink"><defs /><polygon points="771,707 769,707 771,707" stroke="rgb(0,0,0)" /><polygon points="771,593 769,593 771,593" stroke="rgb(0,0,0)" /><polygon points="770,368 768,368 770,368" stroke="rgb(0,0,0)" /><polygon points="767,419 765,419 767,419" stroke="rgb(0,0,0)" /><polygon points="763,627 761,627 763,627" stroke="rgb(0,0,0)" /><polygon points="751,537 749,537 751,537" stroke="rgb(0,0,0)" /><polygon points="749,502 747,502 749,502" stroke="rgb(0,0,0)" /><polygon points="745,674 743,674 745,674" stroke="rgb(0,0,0)" /><polygon points="735,591 733,591 735,591" stroke="rgb(0,0,0)" /><polygon points="734,310 732,310 734,310" stroke="rgb(0,0,0)" /><polygon points="733,208 731,208 733,208" stroke="rgb(0,0,0)" /><polygon points="730,426 728,426 730,426" stroke="rgb(0,0,0)" /><polygon points="685,591 683,591 685,591" stroke="rgb(0,0,0)" /><polygon points="685,512 683,512 684,513 685,512" stroke="rgb(0,0,0)" /><polygon points="685,471 683,471 685,471" stroke="rgb(0,0,0)" /><polygon points="685,360 683,360 685,360" stroke="rgb(0,0,0)" /><polygon points="685,318 683,318 685,318" stroke="rgb(0,0,0)" /><polygon points="684,631 682,631 684,631" stroke="rgb(0,0,0)" /><polygon points="684,551 682,551 684,551" stroke="rgb(0,0,0)" /><polygon points="683,244 681,244 683,244" stroke="rgb(0,0,0)" /><polygon points="682,204 680,204 682,204" stroke="rgb(0,0,0)" /><polygon points="682,164 680,164 682,164" stroke="rgb(0,0,0)" /><polygon points="681,278 679,278 681,278" stroke="rgb(0,0,0)" /><polygon points="680,688 678,688 680,688" stroke="rgb(0,0,0)" /><polygon points="679,427 677,427 679,427" stroke="rgb(0,0,0)" /><polygon points="652,669 650,669 652,669" stroke="rgb(0,0,0)" /><polygon points="626,591 624,591 626,591" stroke="rgb(0,0,0)" /><polygon points="625,631 623,631 625,631" stroke="rgb(0,0,0)" /><polygon points="625,550 623,550 625,550" stroke="rgb(0,0,0)" /><polygon points="625,511 623,511 625,511" stroke="rgb(0,0,0)" /><polygon points="625,394 623,394 625,394" stroke="rgb(0,0,0)" /><polygon points="625,280 623,280 625,280" stroke="rgb(0,0,0)" /><polygon points="624,471 622,471 624,471" stroke="rgb(0,0,0)" /><polygon points="624,434 622,434 624,434" stroke="rgb(0,0,0)" /><polygon points="624,356 622,356 624,356" stroke="rgb(0,0,0)" /><polygon points="624,243 622,243 624,243" stroke="rgb(0,0,0)" /><polygon points="623,204 621,204 623,204" stroke="rgb(0,0,0)" /><polygon points="626,700 618,700 621,702 626,700" stroke="rgb(0,0,0)" /><polygon points="622,318 620,318 622,318" stroke="rgb(0,0,0)" /><polygon points="622,166 620,166 622,166" stroke="rgb(0,0,0)" /><polygon points="598,101 596,101 598,101" stroke="rgb(0,0,0)" /><polygon points="578,687 576,687 578,687" stroke="rgb(0,0,0)" /><polygon points="572,630 570,630 572,630" stroke="rgb(0,0,0)" /><polygon points="572,590 570,590 572,590" stroke="rgb(0,0,0)" /><polygon points="571,550 569,550 571,550" stroke="rgb(0,0,0)" /><polygon points="571,511 569,511 571,511" stroke="rgb(0,0,0)" /><polygon points="571,434 569,434 571,434" stroke="rgb(0,0,0)" /><polygon points="570,471 568,471 570,471" stroke="rgb(0,0,0)" /><polygon points="569,394 567,394 569,394" stroke="rgb(0,0,0)" /><polygon points="569,356 567,356 569,356" stroke="rgb(0,0,0)" /><polygon points="568,319 566,319 568,319" stroke="rgb(0,0,0)" /><polygon points="567,279 565,279 567,279" stroke="rgb(0,0,0)" /><polygon points="567,243 565,243 567,243" stroke="rgb(0,0,0)" /><polygon points="566,205 564,205 566,205" stroke="rgb(0,0,0)" /><polygon points="566,167 564,167 566,167" stroke="rgb(0,0,0)" /><polygon points="562,129 560,129 562,129" stroke="rgb(0,0,0)" /><polygon points="561,104 560,102 559,104 561,104" stroke="rgb(0,0,0)" /><polygon points="518,701 516,701 518,701" stroke="rgb(0,0,0)" /><polygon points="518,629 516,629 518,629" stroke="rgb(0,0,0)" /><polygon points="517,590 515,590 517,590" stroke="rgb(0,0,0)" /><polygon points="516,511 514,511 516,511" stroke="rgb(0,0,0)" /><polygon points="515,550 513,550 515,550" stroke="rgb(0,0,0)" /><polygon points="515,471 513,471 515,471" stroke="rgb(0,0,0)" /><polygon points="513,434 511,434 513,434" stroke="rgb(0,0,0)" /><polygon points="513,394 511,394 513,394" stroke="rgb(0,0,0)" /><polygon points="512,356 510,356 512,356" stroke="rgb(0,0,0)" /><polygon points="512,318 510,318 512,318" stroke="rgb(0,0,0)" /><polygon points="511,280 509,280 511,280" stroke="rgb(0,0,0)" /><polygon points="511,243 509,243 511,243" stroke="rgb(0,0,0)" /><polygon points="510,206 508,206 510,206" stroke="rgb(0,0,0)" /><polygon points="510,168 508,168 510,168" stroke="rgb(0,0,0)" /><polygon points="509,674 507,674 509,674" stroke="rgb(0,0,0)" /><polygon points="501,115 499,115 501,115" stroke="rgb(0,0,0)" /><polygon points="489,702 487,701 486,703 487,704 489,702" stroke="rgb(0,0,0)" /><polygon points="477,132 475,132 477,132" stroke="rgb(0,0,0)" /><polygon points="463,629 461,629 463,629" stroke="rgb(0,0,0)" /><polygon points="462,590 460,590 462,590" stroke="rgb(0,0,0)" /><polygon points="462,550 460,550 462,550" stroke="rgb(0,0,0)" /><polygon points="461,687 459,687 461,687" stroke="rgb(0,0,0)" /><polygon points="461,512 459,512 461,512" stroke="rgb(0,0,0)" /><polygon points="461,471 459,471 461,471" stroke="rgb(0,0,0)" /><polygon points="461,434 459,434 461,434" stroke="rgb(0,0,0)" /><polygon points="460,394 458,394 460,394" stroke="rgb(0,0,0)" /><polygon points="460,356 458,356 460,356" stroke="rgb(0,0,0)" /><polygon points="459,318 457,318 459,318" stroke="rgb(0,0,0)" /><polygon points="459,280 457,280 459,280" stroke="rgb(0,0,0)" /><polygon points="458,244 456,244 458,244" stroke="rgb(0,0,0)" /><polygon points="457,206 455,206 457,206" stroke="rgb(0,0,0)" /><polygon points="455,168 453,168 455,168" stroke="rgb(0,0,0)" /><polygon points="440,665 438,665 440,665" stroke="rgb(0,0,0)" /><polygon points="430,116 428,116 430,116" stroke="rgb(0,0,0)" /><polygon points="411,629 409,629 411,629" stroke="rgb(0,0,0)" /><polygon points="410,590 408,590 410,590" stroke="rgb(0,0,0)" /><polygon points="410,549 408,549 410,549" stroke="rgb(0,0,0)" /><polygon points="409,471 407,471 409,471" stroke="rgb(0,0,0)" /><polygon points="408,511 406,511 408,511" stroke="rgb(0,0,0)" /><polygon points="408,434 406,434 408,434" stroke="rgb(0,0,0)" /><polygon points="407,394 405,394 407,394" stroke="rgb(0,0,0)" /><polygon points="406,703 404,703 406,703" stroke="rgb(0,0,0)" /><polygon points="406,356 404,356 406,356" stroke="rgb(0,0,0)" /><polygon points="406,280 404,280 406,280" stroke="rgb(0,0,0)" /><polygon points="404,318 402,318 404,318" stroke="rgb(0,0,0)" /><polygon points="403,244 401,244 403,244" stroke="rgb(0,0,0)" /><polygon points="401,207 399,207 401,207" stroke="rgb(0,0,0)" /><polygon points="400,169 398,169 400,169" stroke="rgb(0,0,0)" /><polygon points="378,679 376,679 378,679" stroke="rgb(0,0,0)" /><polygon points="358,629 356,629 358,629" stroke="rgb(0,0,0)" /><polygon points="357,590 355,590 357,590" stroke="rgb(0,0,0)" /><polygon points="355,549 353,549 355,549" stroke="rgb(0,0,0)" /><polygon points="355,511 353,511 355,511" stroke="rgb(0,0,0)" /><polygon points="353,471 351,471 353,471" stroke="rgb(0,0,0)" /><polygon points="353,433 351,433 353,433" stroke="rgb(0,0,0)" /><polygon points="351,393 349,393 351,393" stroke="rgb(0,0,0)" /><polygon points="351,279 349,279 351,279" stroke="rgb(0,0,0)" /><polygon points="351,243 349,243 351,243" stroke="rgb(0,0,0)" /><polygon points="350,356 348,356 350,356" stroke="rgb(0,0,0)" /><polygon points="350,319 348,319 350,319" stroke="rgb(0,0,0)" /><polygon points="349,207 347,207 349,207" stroke="rgb(0,0,0)" /><polygon points="349,170 347,170 349,170" stroke="rgb(0,0,0)" /><polygon points="318,700 316,700 318,700" stroke="rgb(0,0,0)" /><polygon points="305,630 303,630 305,630" stroke="rgb(0,0,0)" /><polygon points="304,589 302,589 304,589" stroke="rgb(0,0,0)" /><polygon points="303,549 301,549 303,549" stroke="rgb(0,0,0)" /><polygon points="301,512 299,512 301,512" stroke="rgb(0,0,0)" /><polygon points="301,471 299,471 301,471" stroke="rgb(0,0,0)" /><polygon points="301,395 299,393 298,394 299,396 301,395" stroke="rgb(0,0,0)" /><polygon points="301,355 299,355 301,355" stroke="rgb(0,0,0)" /><polygon points="301,321 299,321 301,321" stroke="rgb(0,0,0)" /><polygon points="301,167 299,167 301,167" stroke="rgb(0,0,0)" /><polygon points="300,434 298,434 300,434" stroke="rgb(0,0,0)" /><polygon points="300,281 298,281 300,281" stroke="rgb(0,0,0)" /><polygon points="300,244 297,244 300,244" stroke="rgb(0,0,0)" /><polygon points="299,208 297,208 299,208" stroke="rgb(0,0,0)" /><polygon points="274,115 272,115 274,115" stroke="rgb(0,0,0)" /><polygon points="259,353 257,353 259,353" stroke="rgb(0,0,0)" /><polygon points="257,431 255,431 257,431" stroke="rgb(0,0,0)" /><polygon points="253,317 251,317 253,317" stroke="rgb(0,0,0)" /><polygon points="252,590 250,590 252,590" stroke="rgb(0,0,0)" /><polygon points="252,512 250,512 252,512" stroke="rgb(0,0,0)" /><polygon points="251,549 249,549 251,549" stroke="rgb(0,0,0)" /><polygon points="251,280 249,280 251,280" stroke="rgb(0,0,0)" /><polygon points="248,472 246,472 248,472" stroke="rgb(0,0,0)" /><polygon points="247,244 245,244 247,244" stroke="rgb(0,0,0)" /><polygon points="225,351 223,351 225,351" stroke="rgb(0,0,0)" /><polygon points="224,698 222,698 224,698" stroke="rgb(0,0,0)" /><polygon points="221,120 219,120 221,120" stroke="rgb(0,0,0)" /><polygon points="205,394 203,394 205,394" stroke="rgb(0,0,0)" /><polygon points="204,549 202,549 204,549" stroke="rgb(0,0,0)" /><polygon points="203,470 201,470 203,470" stroke="rgb(0,0,0)" /><polygon points="203,207 201,207 203,207" stroke="rgb(0,0,0)" /><polygon points="202,321 200,321 202,321" stroke="rgb(0,0,0)" /><polygon points="202,281 200,281 202,281" stroke="rgb(0,0,0)" /><polygon points="201,588 199,588 201,588" stroke="rgb(0,0,0)" /><polygon points="200,511 198,511 200,511" stroke="rgb(0,0,0)" /><polygon points="200,245 199,243 198,245 200,245" stroke="rgb(0,0,0)" /><polygon points="185,165 183,165 185,165" stroke="rgb(0,0,0)" /><polygon points="180,699 178,699 180,699" stroke="rgb(0,0,0)" /><polygon points="179,110 176,110 179,110" stroke="rgb(0,0,0)" /></svg>