<?xml version="1.0" encoding="utf-8" ?>
<svg baseProfile="full" height="100%" version="1.1" width="100%" xmlns="http://www.w3.org/2000/svg" xmlns:ev="http://www.w3.org/2001/xml-events" xmlns:xlink="http://www.w3.org/1999/xlink"><defs /><polygon points="770,707 770,707 770,706 770,706 769,706 769,706 769,707 769,707 770,707" stroke="rgb(0,0,0)" /><polygon points="770,593 770,593 770,592 770,592 769,592 769,592 769,593 769,593 770,593" stroke="rgb(0,0,0)" /><polygon points="769,368 769,368 769,367 769,367 768,367 768,367 768,368 768,368 769,368" stroke="rgb(0,0,0)" /><polygon points="766,419 766,419 766,418 766,418 765,418 765,418 765,419 765,419 766,419" stroke="rgb(0,0,0)" /><polygon points="762,627 762,627 762,626 762,626 761,626 761,626 761,627 761,627 762,627" stroke="rgb(0,0,0)" /><polygon points="750,537 750,537 750,536 750,536 749,536 749,536 749,537 749,537 750,537" stroke="rgb(0,0,0)" /><polygon points="748,502 748,502 748,501 748,501 747,501 747,501 747,502 747,502 748,502" stroke="rgb(0,0,0)" /><polygon points="744,674 744,674 744,673 744,673 743,673 743,673 743,674 743,674 744,674" stroke="rgb(0,0,0)" /><polygon points="734,591 734,591 734,590 734,590 733,590 733,590 733,591 733,591 734,591" stroke="rgb(0,0,0)" /><polygon points="733,310 733,310 733,309 733,309 732,309 732,309 732,310 732,310 733,310" stroke="rgb(0,0,0)" /><polygon points="732,208 732,208 732,207 732,207 731,207 731,207 731,208 731,208 732,208" stroke="rgb(0,0,0)" /><polygon points="729,426 729,426 729,425 729,425 728,425 728,425 728,426 728,426 729,426" stroke="rgb(0,0,0)" /><polygon points="684,591 684,591 684,590 684,590 683,590 683,590 683,591 683,591 684,591" stroke="rgb(0,0,0)" /><polygon points="684,512 684,512 684,511 684,511 683,511 683,511 683,512 683,512 684,512" stroke="rgb(0,0,0)" /><polygon points="684,471 684,471 684,470 684,470 683,470 683,470 683,471 683,471 684,471" stroke="rgb(0,0,0)" /><polygon points="684,360 684,360 684,359 684,359 683,359 683,359 683,360 683,360 684,360" stroke="rgb(0,0,0)" /><polygon points="684,318 684,318 684,317 684,317 683,317 683,317 683,318 683,318 684,318" stroke="rgb(0,0,0)" /><polygon points="683,631 683,631 683,630 683,630 682,630 682,630 682,631 682,631 683,631" stroke="rgb(0,0,0)" /><polygon points="683,551 683,551 683,550 683,550 682,550 682,550 682,551 682,551 683,551" stroke="rgb(0,0,0)" /><polygon points="682,244 682,244 682,243 682,243 681,243 681,243 681,244 681,244 682,244" stroke="rgb(0,0,0)" /><polygon points="681,204 681,204 681,203 681,203 680,203 680,203 680,204 680,204 681,204" stroke="rgb(0,0,0)" /><polygon points="681,164 681,164 681,163 681,163 680,163 680,163 680,164 680,164 681,164" stroke="rgb(0,0,0)" /><polygon points="680,278 680,278 680,277 680,277 679,277 679,277 679,278 679,278 680,278" stroke="rgb(0,0,0)" /><polygon points="679,688 679,688 679,687 679,687 678,687 678,687 678,688 678,688 679,688" stroke="rgb(0,0,0)" /><polygon points="678,427 678,427 678,426 678,426 677,426 677,426 677,427 677,427 678,427" stroke="rgb(0,0,0)" /><polygon points="651,669 651,669 651,668 651,668 650,668 650,668 650,669 650,669 651,669" stroke="rgb(0,0,0)" /><polygon points="625,591 625,591 625,590 625,590 624,590 624,590 624,591 624,591 625,591" stroke="rgb(0,0,0)" /><polygon points="624,631 624,631 624,630 624,630 623,630 623,630 623,631 623,631 624,631" stroke="rgb(0,0,0)" /><polygon points="624,550 624,550 624,549 624,549 623,549 623,549 623,550 623,550 624,550" stroke="rgb(0,0,0)" /><polygon points="624,511 624,511 624,510 624,510 623,510 623,510 623,511 623,511 624,511" stroke="rgb(0,0,0)" /><polygon points="624,394 624,394 624,393 624,393 623,393 623,393 623,394 623,394 624,394" stroke="rgb(0,0,0)" /><polygon points="624,280 624,280 624,279 624,279 623,279 623,279 623,280 623,280 624,280" stroke="rgb(0,0,0)" /><polygon points="623,471 623,471 623,470 623,470 622,470 622,470 622,471 622,471 623,471" stroke="rgb(0,0,0)" /><polygon points="623,434 623,434 623,433 623,433 622,433 622,433 622,434 622,434 623,434" stroke="rgb(0,0,0)" /><polygon points="623,356 623,356 623,355 623,355 622,355 622,355 622,356 622,356 623,356" stroke="rgb(0,0,0)" /><polygon points="623,243 623,243 623,242 623,242 622,242 622,242 622,243 622,243 623,243" stroke="rgb(0,0,0)" /><polygon points="622,204 622,204 622,203 622,203 621,203 621,203 621,204 621,204 622,204" stroke="rgb(0,0,0)" /><polygon points="625,700 625,700 625,699 625,699 624,699 624,699 623,699 623,699 622,699 622,699 621,699 621,699 620,699 620,699 619,699 619,699 618,699 618,699 618,700 618,700 619,701 619,701 620,701 620,701 621,701 621,701 622,701 622,701 623,701 623,701 624,701 624,701 625,700" stroke="rgb(0,0,0)" /><polygon points="621,318 621,318 621,317 621,317 620,317 620,317 620,318 620,318 621,318" stroke="rgb(0,0,0)" /><polygon points="621,166 621,166 621,165 621,165 620,165 620,165 620,166 620,166 621,166" stroke="rgb(0,0,0)" /><polygon points="597,101 597,101 597,100 597,100 596,100 596,100 596,101 596,101 597,101" stroke="rgb(0,0,0)" /><polygon points="577,687 577,687 577,686 577,686 576,686 576,686 576,687 576,687 577,687" stroke="rgb(0,0,0)" /><polygon points="571,630 571,630 571,629 571,629 570,629 570,629 570,630 570,630 571,630" stroke="rgb(0,0,0)" /><polygon points="571,590 571,590 571,589 571,589 570,589 570,589 570,590 570,590 571,590" stroke="rgb(0,0,0)" /><polygon points="570,550 570,550 570,549 570,549 569,549 569,549 569,550 569,550 570,550" stroke="rgb(0,0,0)" /><polygon points="570,511 570,511 570,510 570,510 569,510 569,510 569,511 569,511 570,511" stroke="rgb(0,0,0)" /><polygon points="570,434 570,434 570,433 570,433 569,433 569,433 569,434 569,434 570,434" stroke="rgb(0,0,0)" /><polygon points="569,471 569,471 569,470 569,470 568,470 568,470 568,471 568,471 569,471" stroke="rgb(0,0,0)" /><polygon points="568,394 568,394 568,393 568,393 567,393 567,393 567,394 567,394 568,394" stroke="rgb(0,0,0)" /><polygon points="568,356 568,356 568,355 568,355 567,355 567,355 567,356 567,356 568,356" stroke="rgb(0,0,0)" /><polygon points="567,319 567,319 567,318 567,318 566,318 566,318 566,319 566,319 567,319" stroke="rgb(0,0,0)" /><polygon points="566,279 566,279 566,278 566,278 565,278 565,278 565,279 565,279 566,279" stroke="rgb(0,0,0)" /><polygon points="566,243 566,243 566,242 566,242 565,242 565,242 565,243 565,243 566,243" stroke="rgb(0,0,0)" /><polygon points="565,205 565,205 565,204 565,204 564,204 564,204 564,205 564,205 565,205" stroke="rgb(0,0,0)" /><polygon points="565,167 565,167 565,166 565,166 564,166 564,166 564,167 564,167 565,167" stroke="rgb(0,0,0)" /><polygon points="561,129 561,129 561,128 561,128 560,128 560,128 560,129 560,129 561,129" stroke="rgb(0,0,0)" /><polygon points="560,104 560,104 561,103 561,103 560,102 560,102 559,102 559,102 559,103 559,103 559,104 559,104 560,104" stroke="rgb(0,0,0)" /><polygon points="517,701 517,701 517,700 517,700 516,700 516,700 516,701 516,701 517,701" stroke="rgb(0,0,0)" /><polygon points="517,629 517,629 517,628 517,628 516,628 516,628 516,629 516,629 517,629" stroke="rgb(0,0,0)" /><polygon points="516,590 516,590 516,589 516,589 515,589 515,589 515,590 515,590 516,590" stroke="rgb(0,0,0)" /><polygon points="515,511 515,511 515,510 515,510 514,510 514,510 514,511 514,511 515,511" stroke="rgb(0,0,0)" /><polygon points="514,550 514,550 514,549 514,549 513,549 513,549 513,550 513,550 514,550" stroke="rgb(0,0,0)" /><polygon points="514,471 514,471 514,470 514,470 513,470 513,470 513,471 513,471 514,471" stroke="rgb(0,0,0)" /><polygon points="512,434 512,434 512,433 512,433 511,433 511,433 511,434 511,434 512,434" stroke="rgb(0,0,0)" /><polygon points="512,394 512,394 512,393 512,393 511,393 511,393 511,394 511,394 512,394" stroke="rgb(0,0,0)" /><polygon points="511,356 511,356 511,355 511,355 510,355 510,355 510,356 510,356 511,356" stroke="rgb(0,0,0)" /><polygon points="511,318 511,318 511,317 511,317 510,317 510,317 510,318 510,318 511,318" stroke="rgb(0,0,0)" /><polygon points="510,280 510,280 510,279 510,279 509,279 509,279 509,280 509,280 510,280" stroke="rgb(0,0,0)" /><polygon points="510,243 510,243 510,242 510,242 509,242 509,242 509,243 509,243 510,243" stroke="rgb(0,0,0)" /><polygon points="509,206 509,206 509,205 509,205 508,205 508,205 508,206 508,206 509,206" stroke="rgb(0,0,0)" /><polygon points="509,168 509,168 509,167 509,167 508,167 508,167 508,168 508,168 509,168" stroke="rgb(0,0,0)" /><polygon points="508,674 508,674 508,673 508,673 507,673 507,673 507,674 507,674 508,674" stroke="rgb(0,0,0)" /><polygon points="500,115 500,115 500,114 500,114 499,114 499,114 499,115 499,115 500,115" stroke="rgb(0,0,0)" /><polygon points="488,702 488,702 488,701 488,701 487,701 487,701 486,701 486,701 486,702 486,702 486,703 486,703 487,703 487,703 488,702" stroke="rgb(0,0,0)" /><polygon points="476,132 476,132 476,131 476,131 475,131 475,131 475,132 475,132 476,132" stroke="rgb(0,0,0)" /><polygon points="462,629 462,629 462,628 462,628 461,628 461,628 461,629 461,629 462,629" stroke="rgb(0,0,0)" /><polygon points="461,590 461,590 461,589 461,589 460,589 460,589 460,590 460,590 461,590" stroke="rgb(0,0,0)" /><polygon points="461,550 461,550 461,549 461,549 460,549 460,549 460,550 460,550 461,550" stroke="rgb(0,0,0)" /><polygon points="460,687 460,687 460,686 460,686 459,686 459,686 459,687 459,687 460,687" stroke="rgb(0,0,0)" /><polygon points="460,512 460,512 460,511 460,511 459,511 459,511 459,512 459,512 460,512" stroke="rgb(0,0,0)" /><polygon points="460,471 460,471 460,470 460,470 459,470 459,470 459,471 459,471 460,471" stroke="rgb(0,0,0)" /><polygon points="460,434 460,434 460,433 460,433 459,433 459,433 459,434 459,434 460,434" stroke="rgb(0,0,0)" /><polygon points="459,394 459,394 459,393 459,393 458,393 458,393 458,394 458,394 459,394" stroke="rgb(0,0,0)" /><polygon points="459,356 459,356 459,355 459,355 458,355 458,355 458,356 458,356 459,356" stroke="rgb(0,0,0)" /><polygon points="458,318 458,318 458,317 458,317 457,317 457,317 457,318 457,318 458,318" stroke="rgb(0,0,0)" /><polygon points="458,280 458,280 458,279 458,279 457,279 457,279 457,280 457,280 458,280" stroke="rgb(0,0,0)" /><polygon points="457,244 457,244 457,243 457,243 456,243 456,243 456,244 456,244 457,244" stroke="rgb(0,0,0)" /><polygon points="456,206 456,206 456,205 456,205 455,205 455,205 455,206 455,206 456,206" stroke="rgb(0,0,0)" /><polygon points="454,168 454,168 454,167 454,167 453,167 453,167 453,168 453,168 454,168" stroke="rgb(0,0,0)" /><polygon points="439,665 439,665 439,664 439,664 438,664 438,664 438,665 438,665 439,665" stroke="rgb(0,0,0)" /><polygon points="429,116 429,116 429,115 429,115 428,115 428,115 428,116 428,116 429,116" stroke="rgb(0,0,0)" /><polygon points="410,629 410,629 410,628 410,628 409,628 409,628 409,629 409,629 410,629" stroke="rgb(0,0,0)" /><polygon points="409,590 409,590 409,589 409,589 408,589 408,589 408,590 408,590 409,590" stroke="rgb(0,0,0)" /><polygon points="409,549 409,549 409,548 409,548 408,548 408,548 408,549 408,549 409,549" stroke="rgb(0,0,0)" /><polygon points="408,471 408,471 408,470 408,470 407,470 407,470 407,471 407,471 408,471" stroke="rgb(0,0,0)" /><polygon points="407,511 407,511 407,510 407,510 406,510 406,510 406,511 406,511 407,511" stroke="rgb(0,0,0)" /><polygon points="407,434 407,434 407,433 407,433 406,433 406,433 406,434 406,434 407,434" stroke="rgb(0,0,0)" /><polygon points="406,394 406,394 406,393 406,393 405,393 405,393 405,394 405,394 406,394" stroke="rgb(0,0,0)" /><polygon points="405,703 405,703 405,702 405,702 404,702 404,702 404,703 404,703 405,703" stroke="rgb(0,0,0)" /><polygon points="405,356 405,356 405,355 405,355 404,355 404,355 404,356 404,356 405,356" stroke="rgb(0,0,0)" /><polygon points="405,280 405,280 405,279 405,279 404,279 404,279 404,280 404,280 405,280" stroke="rgb(0,0,0)" /><polygon points="403,318 403,318 403,317 403,317 402,317 402,317 402,318 402,318 403,318" stroke="rgb(0,0,0)" /><polygon points="402,244 402,244 402,243 402,243 401,243 401,243 401,244 401,244 402,244" stroke="rgb(0,0,0)" /><polygon points="400,207 400,207 400,206 400,206 399,206 399,206 399,207 399,207 400,207" stroke="rgb(0,0,0)" /><polygon points="399,169 399,169 399,168 399,168 398,168 398,168 398,169 398,169 399,169" stroke="rgb(0,0,0)" /><polygon points="377,679 377,679 377,678 377,678 376,678 376,678 376,679 376,679 377,679" stroke="rgb(0,0,0)" /><polygon points="357,629 357,629 357,628 357,628 356,628 356,628 356,629 356,629 357,629" stroke="rgb(0,0,0)" /><polygon points="356,590 356,590 356,589 356,589 355,589 355,589 355,590 355,590 356,590" stroke="rgb(0,0,0)" /><polygon points="354,549 354,549 354,548 354,548 353,548 353,548 353,549 353,549 354,549" stroke="rgb(0,0,0)" /><polygon points="354,511 354,511 354,510 354,510 353,510 353,510 353,511 353,511 354,511" stroke="rgb(0,0,0)" /><polygon points="352,471 352,471 352,470 352,470 351,470 351,470 351,471 351,471 352,471" stroke="rgb(0,0,0)" /><polygon points="352,433 352,433 352,432 352,432 351,432 351,432 351,433 351,433 352,433" stroke="rgb(0,0,0)" /><polygon points="350,393 350,393 350,392 350,392 349,392 349,392 349,393 349,393 350,393" stroke="rgb(0,0,0)" /><polygon points="350,279 350,279 350,278 350,278 349,278 349,278 349,279 349,279 350,279" stroke="rgb(0,0,0)" /><polygon points="350,243 350,243 350,242 350,242 349,242 349,242 349,243 349,243 350,243" stroke="rgb(0,0,0)" /><polygon points="349,356 349,356 349,355 349,355 348,355 348,355 348,356 348,356 349,356" stroke="rgb(0,0,0)" /><polygon points="349,319 349,319 349,318 349,318 348,318 348,318 348,319 348,319 349,319" stroke="rgb(0,0,0)" /><polygon points="348,207 348,207 348,206 348,206 347,206 347,206 347,207 347,207 348,207" stroke="rgb(0,0,0)" /><polygon points="348,170 348,170 348,169 348,169 347,169 347,169 347,170 347,170 348,170" stroke="rgb(0,0,0)" /><polygon points="317,700 317,700 317,699 317,699 316,699 316,699 316,700 316,700 317,700" stroke="rgb(0,0,0)" /><polygon points="304,630 304,630 304,629 304,629 303,629 303,629 303,630 303,630 304,630" stroke="rgb(0,0,0)" /><polygon points="303,589 303,589 303,588 303,588 302,588 302,588 302,589 302,589 303,589" stroke="rgb(0,0,0)" /><polygon points="302,549 302,549 302,548 302,548 301,548 301,548 301,549 301,549 302,549" stroke="rgb(0,0,0)" /><polygon points="300,512 300,512 300,511 300,511 299,511 299,511 299,512 299,512 300,512" stroke="rgb(0,0,0)" /><polygon points="300,471 300,471 300,470 300,470 299,470 299,470 299,471 299,471 300,471" stroke="rgb(0,0,0)" /><polygon points="300,395 300,395 300,394 300,394 299,393 299,393 298,393 298,393 298,394 298,394 298,395 298,395 299,396 299,396 300,395" stroke="rgb(0,0,0)" /><polygon points="300,355 300,355 300,354 300,354 299,354 299,354 299,355 299,355 300,355" stroke="rgb(0,0,0)" /><polygon points="300,321 300,321 300,320 300,320 299,320 299,320 299,321 299,321 300,321" stroke="rgb(0,0,0)" /><polygon points="300,167 300,167 300,166 300,166 299,166 299,166 299,167 299,167 300,167" stroke="rgb(0,0,0)" /><polygon points="299,434 299,434 299,433 299,433 298,433 298,433 298,434 298,434 299,434" stroke="rgb(0,0,0)" /><polygon points="299,281 299,281 299,280 299,280 298,280 298,280 298,281 298,281 299,281" stroke="rgb(0,0,0)" /><polygon points="299,244 299,244 299,243 299,243 298,243 298,243 297,243 297,243 297,244 297,244 298,245 298,245 299,244" stroke="rgb(0,0,0)" /><polygon points="298,208 298,208 298,207 298,207 297,207 297,207 297,208 297,208 298,208" stroke="rgb(0,0,0)" /><polygon points="273,115 273,115 273,114 273,114 272,114 272,114 272,115 272,115 273,115" stroke="rgb(0,0,0)" /><polygon points="258,353 258,353 258,352 258,352 257,352 257,352 257,353 257,353 258,353" stroke="rgb(0,0,0)" /><polygon points="256,431 256,431 256,430 256,430 255,430 255,430 255,431 255,431 256,431" stroke="rgb(0,0,0)" /><polygon points="252,317 252,317 252,316 252,316 251,316 251,316 251,317 251,317 252,317" stroke="rgb(0,0,0)" /><polygon points="251,590 251,590 251,589 251,589 250,589 250,589 250,590 250,590 251,590" stroke="rgb(0,0,0)" /><polygon points="251,512 251,512 251,511 251,511 250,511 250,511 250,512 250,512 251,512" stroke="rgb(0,0,0)" /><polygon points="250,549 250,549 250,548 250,548 249,548 249,548 249,549 249,549 250,549" stroke="rgb(0,0,0)" /><polygon points="250,280 250,280 250,279 250,279 249,279 249,279 249,280 249,280 250,280" stroke="rgb(0,0,0)" /><polygon points="247,472 247,472 247,471 247,471 246,471 246,471 246,472 246,472 247,472" stroke="rgb(0,0,0)" /><polygon points="246,244 246,244 246,243 246,243 245,243 245,243 245,244 245,244 246,244" stroke="rgb(0,0,0)" /><polygon points="224,351 224,351 224,350 224,350 223,350 223,350 223,351 223,351 224,351" stroke="rgb(0,0,0)" /><polygon points="223,698 223,698 223,697 223,697 222,697 222,697 222,698 222,698 223,698" stroke="rgb(0,0,0)" /><polygon points="220,120 220,120 220,119 220,119 219,119 219,119 219,120 219,120 220,120" stroke="rgb(0,0,0)" /><polygon points="204,394 204,394 204,393 204,393 203,393 203,393 203,394 203,394 204,394" stroke="rgb(0,0,0)" /><polygon points="203,549 203,549 203,548 203,548 202,548 202,548 202,549 202,549 203,549" stroke="rgb(0,0,0)" /><polygon points="202,470 202,470 202,469 202,469 201,469 201,469 201,470 201,470 202,470" stroke="rgb(0,0,0)" /><polygon points="202,207 202,207 202,206 202,206 201,206 201,206 201,207 201,207 202,207" stroke="rgb(0,0,0)" /><polygon points="201,321 201,321 201,320 201,320 200,320 200,320 200,321 200,321 201,321" stroke="rgb(0,0,0)" /><polygon points="201,281 201,281 201,280 201,280 200,280 200,280 200,281 200,281 201,281" stroke="rgb(0,0,0)" /><polygon points="200,588 200,588 200,587 200,587 199,587 199,587 199,588 199,588 200,588" stroke="rgb(0,0,0)" /><polygon points="199,511 199,511 199,510 199,510 198,510 198,510 198,511 198,511 199,511" stroke="rgb(0,0,0)" /><polygon points="199,245 199,245 200,244 200,244 199,243 199,243 198,243 198,243 198,244 198,244 198,245 198,245 199,245" stroke="rgb(0,0,0)" /><polygon points="184,165 184,165 184,164 184,164 183,164 183,164 183,165 183,165 184,165" stroke="rgb(0,0,0)" /><polygon points="179,699 179,699 179,698 179,698 178,698 178,698 178,699 178,699 179,699" stroke="rgb(0,0,0)" /><polygon points="178,110 178,110 178,109 178,109 177,109 177,109 176,109 176,109 176,110 176,110 177,111 177,111 178,110" stroke="rgb(0,0,0)" /></svg>