<?xml version="1.0" encoding="utf-8" ?>
<svg baseProfile="full" height="100%" version="1.1" width="100%" xmlns="http://www.w3.org/2000/svg" xmlns:ev="http://www.w3.org/2001/xml-events" xmlns:xlink="http://www.w3.org/1999/xlink"><defs /><polygon points="780,708 779,704 776,701 740,702 747,708 780,708" stroke="rgb(0,0,0)" /><polygon points="785,331 772,264 764,263 759,259 749,259 751,256 753,257 761,255 764,259 769,259 771,262 772,261 765,229 760,229 760,225 755,225 748,217 762,216 761,208 759,208 760,204 758,201 754,200 753,194 751,195 752,202 743,203 741,209 738,208 738,205 736,203 723,204 723,216 736,217 736,221 738,221 737,223 743,224 745,226 749,225 750,231 725,231 722,236 713,232 712,234 718,242 714,244 716,247 713,249 708,247 706,244 705,245 706,243 704,241 697,243 698,241 696,240 694,241 693,236 675,236 667,238 667,249 671,251 673,255 674,252 676,255 679,251 676,250 679,249 679,254 694,252 694,250 696,250 695,251 699,255 703,257 705,256 707,259 709,258 708,255 716,257 718,261 713,261 715,263 712,264 714,266 710,270 708,276 708,270 705,270 700,273 704,275 706,272 704,275 706,278 708,279 714,276 717,279 722,280 724,284 723,286 719,286 715,290 714,288 710,289 710,293 713,295 712,307 714,310 711,307 710,308 712,312 711,333 653,334 654,457 680,459 710,458 712,460 712,721 733,722 737,720 736,710 721,709 722,699 737,699 736,688 721,687 721,674 723,669 721,668 722,659 737,657 736,647 722,647 721,645 721,619 737,617 736,607 724,607 720,605 721,579 730,578 729,580 731,584 741,584 744,587 744,589 748,591 745,592 740,586 730,586 728,584 728,581 725,579 723,581 722,590 723,605 736,605 740,603 742,605 780,605 781,604 777,592 773,583 770,580 766,581 770,590 768,592 761,592 755,586 752,587 752,590 751,586 758,584 761,591 767,591 768,590 766,588 764,579 770,578 774,581 778,590 779,588 780,592 779,590 778,594 780,598 782,596 783,576 770,575 769,569 765,567 743,567 742,578 738,579 737,567 721,566 721,461 723,459 729,459 731,461 730,521 735,523 759,522 760,525 763,525 766,522 768,496 768,467 764,465 760,465 760,467 753,466 751,465 751,462 753,461 752,460 742,460 741,449 739,453 740,458 737,460 738,450 736,448 664,448 664,393 662,370 663,345 665,343 688,343 693,344 694,346 697,343 721,343 722,345 723,343 738,343 738,333 722,332 722,304 717,300 718,298 725,304 725,331 781,331 783,336 785,331" stroke="rgb(0,0,0)" /><polygon points="780,366 776,362 749,363 751,368 769,369 777,368 780,366" stroke="rgb(0,0,0)" /><polygon points="780,416 779,414 769,413 753,415 752,418 766,420 778,419 780,416" stroke="rgb(0,0,0)" /><polygon points="782,617 781,607 743,606 741,609 741,617 755,618 757,620 757,623 754,620 746,619 724,619 722,635 723,644 762,644 779,646 780,643 772,621 766,621 770,628 769,632 761,632 759,630 759,626 762,631 768,631 769,630 764,619 772,618 775,625 776,626 777,624 778,626 778,635 780,638 782,617" stroke="rgb(0,0,0)" /><polygon points="786,481 785,466 784,465 782,468 779,468 777,463 773,463 771,468 773,474 771,472 769,476 769,518 768,523 766,525 769,530 769,534 768,529 766,527 759,527 753,525 729,525 728,462 723,462 724,565 737,565 740,563 743,565 769,565 765,553 757,552 759,544 758,542 731,541 729,552 728,545 730,540 765,541 770,549 770,554 774,553 772,546 775,546 777,554 780,555 781,554 778,549 774,537 775,536 782,555 784,555 785,502 783,502 783,504 783,496 785,495 786,481" stroke="rgb(0,0,0)" /><polygon points="785,331 772,264 764,263 759,259 749,259 751,256 753,257 761,255 764,259 769,259 771,262 772,261 765,229 760,229 760,225 755,225 748,217 762,216 761,208 759,208 760,204 758,201 754,200 753,194 751,195 752,202 743,203 741,209 738,208 738,205 736,203 723,204 723,216 736,217 736,221 738,221 737,223 743,224 745,226 749,225 750,231 725,231 722,236 713,232 712,234 718,242 714,244 716,247 713,249 708,247 706,244 705,245 706,243 704,241 697,243 698,241 696,240 694,241 693,236 675,236 667,238 667,249 671,251 673,255 674,252 676,255 679,251 676,250 679,249 679,254 694,252 694,250 696,250 695,251 699,255 703,257 705,256 707,259 709,258 708,255 716,257 718,261 713,261 715,263 712,264 714,266 710,270 708,276 708,270 705,270 700,273 704,275 706,272 704,275 706,278 708,279 714,276 717,279 722,280 724,284 723,286 719,286 715,290 714,288 710,289 710,293 713,295 712,307 714,310 711,307 710,308 712,312 711,333 653,334 654,457 680,459 710,458 712,460 712,721 733,722 737,720 736,710 721,709 722,699 737,699 736,688 721,687 721,674 723,669 721,668 722,659 737,657 736,647 722,647 721,645 721,619 737,617 736,607 724,607 720,605 721,579 730,578 729,580 731,584 741,584 744,587 744,589 748,591 745,592 740,586 730,586 728,584 728,581 725,579 723,581 722,590 723,605 736,605 740,603 742,605 780,605 781,604 777,592 773,583 770,580 766,581 770,590 768,592 761,592 755,586 752,587 752,590 751,586 758,584 761,591 767,591 768,590 766,588 764,579 770,578 774,581 778,590 779,588 780,592 779,590 778,594 780,598 782,596 783,576 770,575 769,569 765,567 743,567 742,578 738,579 737,567 721,566 721,461 723,459 729,459 731,461 730,521 735,523 759,522 760,525 763,525 766,522 768,496 768,467 764,465 760,465 760,467 753,466 751,465 751,462 753,461 752,460 742,460 741,449 739,453 740,458 737,460 738,450 736,448 664,448 664,393 662,370 663,345 665,343 688,343 693,344 694,346 697,343 721,343 722,345 723,343 738,343 738,333 722,332 722,304 717,300 718,298 725,304 725,331 781,331 783,336 785,331" stroke="rgb(0,0,0)" /><polygon points="780,686 773,663 770,660 723,661 724,667 726,665 729,665 731,667 770,668 770,672 735,671 732,672 730,676 723,674 722,680 724,686 727,686 728,684 730,686 780,686" stroke="rgb(0,0,0)" /><polygon points="785,331 772,264 764,263 759,259 749,259 751,256 753,257 761,255 764,259 769,259 771,262 772,261 765,229 760,229 760,225 755,225 748,217 762,216 761,208 759,208 760,204 758,201 754,200 753,194 751,195 752,202 743,203 741,209 738,208 738,205 736,203 723,204 723,216 736,217 736,221 738,221 737,223 743,224 745,226 749,225 750,231 725,231 722,236 713,232 712,234 718,242 714,244 716,247 713,249 708,247 706,244 705,245 706,243 704,241 697,243 698,241 696,240 694,241 693,236 675,236 667,238 667,249 671,251 673,255 674,252 676,255 679,251 676,250 679,249 679,254 694,252 694,250 696,250 695,251 699,255 703,257 705,256 707,259 709,258 708,255 716,257 718,261 713,261 715,263 712,264 714,266 710,270 708,276 708,270 705,270 700,273 704,275 706,272 704,275 706,278 708,279 714,276 717,279 722,280 724,284 723,286 719,286 715,290 714,288 710,289 710,293 713,295 712,307 714,310 711,307 710,308 712,312 711,333 653,334 654,457 680,459 710,458 712,460 712,721 733,722 737,720 736,710 721,709 722,699 737,699 736,688 721,687 721,674 723,669 721,668 722,659 737,657 736,647 722,647 721,645 721,619 737,617 736,607 724,607 720,605 721,579 730,578 729,580 731,584 741,584 744,587 744,589 748,591 745,592 740,586 730,586 728,584 728,581 725,579 723,581 722,590 723,605 736,605 740,603 742,605 780,605 781,604 777,592 773,583 770,580 766,581 770,590 768,592 761,592 755,586 752,587 752,590 751,586 758,584 761,591 767,591 768,590 766,588 764,579 770,578 774,581 778,590 779,588 780,592 779,590 778,594 780,598 782,596 783,576 770,575 769,569 765,567 743,567 742,578 738,579 737,567 721,566 721,461 723,459 729,459 731,461 730,521 735,523 759,522 760,525 763,525 766,522 768,496 768,467 764,465 760,465 760,467 753,466 751,465 751,462 753,461 752,460 742,460 741,449 739,453 740,458 737,460 738,450 736,448 664,448 664,393 662,370 663,345 665,343 688,343 693,344 694,346 697,343 721,343 722,345 723,343 738,343 738,333 722,332 722,304 717,300 718,298 725,304 725,331 781,331 783,336 785,331" stroke="rgb(0,0,0)" /><polygon points="785,331 772,264 764,263 759,259 749,259 751,256 753,257 761,255 764,259 769,259 771,262 772,261 765,229 760,229 760,225 755,225 748,217 762,216 761,208 759,208 760,204 758,201 754,200 753,194 751,195 752,202 743,203 741,209 738,208 738,205 736,203 723,204 723,216 736,217 736,221 738,221 737,223 743,224 745,226 749,225 750,231 725,231 722,236 713,232 712,234 718,242 714,244 716,247 713,249 708,247 706,244 705,245 706,243 704,241 697,243 698,241 696,240 694,241 693,236 675,236 667,238 667,249 671,251 673,255 674,252 676,255 679,251 676,250 679,249 679,254 694,252 694,250 696,250 695,251 699,255 703,257 705,256 707,259 709,258 708,255 716,257 718,261 713,261 715,263 712,264 714,266 710,270 708,276 708,270 705,270 700,273 704,275 706,272 704,275 706,278 708,279 714,276 717,279 722,280 724,284 723,286 719,286 715,290 714,288 710,289 710,293 713,295 712,307 714,310 711,307 710,308 712,312 711,333 653,334 654,457 680,459 710,458 712,460 712,721 733,722 737,720 736,710 721,709 722,699 737,699 736,688 721,687 721,674 723,669 721,668 722,659 737,657 736,647 722,647 721,645 721,619 737,617 736,607 724,607 720,605 721,579 730,578 729,580 731,584 741,584 744,587 744,589 748,591 745,592 740,586 730,586 728,584 728,581 725,579 723,581 722,590 723,605 736,605 740,603 742,605 780,605 781,604 777,592 773,583 770,580 766,581 770,590 768,592 761,592 755,586 752,587 752,590 751,586 758,584 761,591 767,591 768,590 766,588 764,579 770,578 774,581 778,590 779,588 780,592 779,590 778,594 780,598 782,596 783,576 770,575 769,569 765,567 743,567 742,578 738,579 737,567 721,566 721,461 723,459 729,459 731,461 730,521 735,523 759,522 760,525 763,525 766,522 768,496 768,467 764,465 760,465 760,467 753,466 751,465 751,462 753,461 752,460 742,460 741,449 739,453 740,458 737,460 738,450 736,448 664,448 664,393 662,370 663,345 665,343 688,343 693,344 694,346 697,343 721,343 722,345 723,343 738,343 738,333 722,332 722,304 717,300 718,298 725,304 725,331 781,331 783,336 785,331" stroke="rgb(0,0,0)" /><polygon points="785,331 772,264 764,263 759,259 749,259 751,256 753,257 761,255 764,259 769,259 771,262 772,261 765,229 760,229 760,225 755,225 748,217 762,216 761,208 759,208 760,204 758,201 754,200 753,194 751,195 752,202 743,203 741,209 738,208 738,205 736,203 723,204 723,216 736,217 736,221 738,221 737,223 743,224 745,226 749,225 750,231 725,231 722,236 713,232 712,234 718,242 714,244 716,247 713,249 708,247 706,244 705,245 706,243 704,241 697,243 698,241 696,240 694,241 693,236 675,236 667,238 667,249 671,251 673,255 674,252 676,255 679,251 676,250 679,249 679,254 694,252 694,250 696,250 695,251 699,255 703,257 705,256 707,259 709,258 708,255 716,257 718,261 713,261 715,263 712,264 714,266 710,270 708,276 708,270 705,270 700,273 704,275 706,272 704,275 706,278 708,279 714,276 717,279 722,280 724,284 723,286 719,286 715,290 714,288 710,289 710,293 713,295 712,307 714,310 711,307 710,308 712,312 711,333 653,334 654,457 680,459 710,458 712,460 712,721 733,722 737,720 736,710 721,709 722,699 737,699 736,688 721,687 721,674 723,669 721,668 722,659 737,657 736,647 722,647 721,645 721,619 737,617 736,607 724,607 720,605 721,579 730,578 729,580 731,584 741,584 744,587 744,589 748,591 745,592 740,586 730,586 728,584 728,581 725,579 723,581 722,590 723,605 736,605 740,603 742,605 780,605 781,604 777,592 773,583 770,580 766,581 770,590 768,592 761,592 755,586 752,587 752,590 751,586 758,584 761,591 767,591 768,590 766,588 764,579 770,578 774,581 778,590 779,588 780,592 779,590 778,594 780,598 782,596 783,576 770,575 769,569 765,567 743,567 742,578 738,579 737,567 721,566 721,461 723,459 729,459 731,461 730,521 735,523 759,522 760,525 763,525 766,522 768,496 768,467 764,465 760,465 760,467 753,466 751,465 751,462 753,461 752,460 742,460 741,449 739,453 740,458 737,460 738,450 736,448 664,448 664,393 662,370 663,345 665,343 688,343 693,344 694,346 697,343 721,343 722,345 723,343 738,343 738,333 722,332 722,304 717,300 718,298 725,304 725,331 781,331 783,336 785,331" stroke="rgb(0,0,0)" /><polygon points="740,427 737,426 740,424 740,422 737,420 733,419 730,421 731,422 728,423 728,426 731,429 736,429 740,427" stroke="rgb(0,0,0)" /><polygon points="695,597 694,585 668,586 670,597 695,597" stroke="rgb(0,0,0)" /><polygon points="695,517 695,507 692,505 686,506 686,510 683,505 682,509 680,506 668,507 669,518 693,519 695,517" stroke="rgb(0,0,0)" /><polygon points="696,480 696,470 694,466 668,467 669,479 692,481 696,480" stroke="rgb(0,0,0)" /><polygon points="702,362 701,358 698,355 699,353 695,348 683,359 685,366 696,356 693,361 684,368 684,375 682,378 683,381 681,386 679,387 679,384 677,384 678,391 679,389 681,392 682,391 683,385 687,377 697,367 695,366 696,363 697,365 698,362 702,362" stroke="rgb(0,0,0)" /><polygon points="694,324 693,312 667,313 668,325 694,324" stroke="rgb(0,0,0)" /><polygon points="696,637 696,627 694,625 669,626 668,636 670,638 676,638 676,641 679,641 683,638 696,637" stroke="rgb(0,0,0)" /><polygon points="698,560 695,558 695,547 693,545 668,546 669,557 691,558 695,561 698,560" stroke="rgb(0,0,0)" /><polygon points="785,331 772,264 764,263 759,259 749,259 751,256 753,257 761,255 764,259 769,259 771,262 772,261 765,229 760,229 760,225 755,225 748,217 762,216 761,208 759,208 760,204 758,201 754,200 753,194 751,195 752,202 743,203 741,209 738,208 738,205 736,203 723,204 723,216 736,217 736,221 738,221 737,223 743,224 745,226 749,225 750,231 725,231 722,236 713,232 712,234 718,242 714,244 716,247 713,249 708,247 706,244 705,245 706,243 704,241 697,243 698,241 696,240 694,241 693,236 675,236 667,238 667,249 671,251 673,255 674,252 676,255 679,251 676,250 679,249 679,254 694,252 694,250 696,250 695,251 699,255 703,257 705,256 707,259 709,258 708,255 716,257 718,261 713,261 715,263 712,264 714,266 710,270 708,276 708,270 705,270 700,273 704,275 706,272 704,275 706,278 708,279 714,276 717,279 722,280 724,284 723,286 719,286 715,290 714,288 710,289 710,293 713,295 712,307 714,310 711,307 710,308 712,312 711,333 653,334 654,457 680,459 710,458 712,460 712,721 733,722 737,720 736,710 721,709 722,699 737,699 736,688 721,687 721,674 723,669 721,668 722,659 737,657 736,647 722,647 721,645 721,619 737,617 736,607 724,607 720,605 721,579 730,578 729,580 731,584 741,584 744,587 744,589 748,591 745,592 740,586 730,586 728,584 728,581 725,579 723,581 722,590 723,605 736,605 740,603 742,605 780,605 781,604 777,592 773,583 770,580 766,581 770,590 768,592 761,592 755,586 752,587 752,590 751,586 758,584 761,591 767,591 768,590 766,588 764,579 770,578 774,581 778,590 779,588 780,592 779,590 778,594 780,598 782,596 783,576 770,575 769,569 765,567 743,567 742,578 738,579 737,567 721,566 721,461 723,459 729,459 731,461 730,521 735,523 759,522 760,525 763,525 766,522 768,496 768,467 764,465 760,465 760,467 753,466 751,465 751,462 753,461 752,460 742,460 741,449 739,453 740,458 737,460 738,450 736,448 664,448 664,393 662,370 663,345 665,343 688,343 693,344 694,346 697,343 721,343 722,345 723,343 738,343 738,333 722,332 722,304 717,300 718,298 725,304 725,331 781,331 783,336 785,331" stroke="rgb(0,0,0)" /><polygon points="694,210 692,199 665,200 665,208 666,211 669,212 669,214 678,211 689,213 690,211 694,210" stroke="rgb(0,0,0)" /><polygon points="693,172 692,161 666,161 664,163 666,174 691,174 693,172" stroke="rgb(0,0,0)" /><polygon points="701,279 698,276 700,273 696,271 689,271 688,274 668,274 667,286 691,288 694,287 695,283 698,283 698,281 701,279" stroke="rgb(0,0,0)" /><polygon points="711,693 711,464 709,460 653,459 653,406 651,372 639,384 642,386 642,405 617,406 586,437 585,445 578,445 574,449 570,445 553,445 551,426 515,462 531,464 530,484 500,484 498,483 497,479 475,501 477,502 478,509 477,522 453,523 425,551 423,554 424,561 414,562 397,579 399,581 424,580 424,602 393,601 392,584 357,619 373,620 373,641 342,641 340,636 330,646 392,648 547,648 547,691 549,719 709,721 711,693" stroke="rgb(0,0,0)" /><polygon points="693,429 690,427 681,412 677,412 671,416 667,416 666,413 665,414 667,436 687,436 693,429" stroke="rgb(0,0,0)" /><polygon points="666,675 666,669 664,665 643,665 642,666 645,669 644,675 644,669 641,669 643,678 664,678 666,675" stroke="rgb(0,0,0)" /><polygon points="639,587 637,584 613,584 612,596 633,598 637,597 639,587" stroke="rgb(0,0,0)" /><polygon points="640,639 637,635 634,635 634,632 638,630 637,624 612,625 613,639 616,637 630,638 630,640 640,639" stroke="rgb(0,0,0)" /><polygon points="638,556 637,544 627,544 625,548 628,552 626,552 624,545 612,546 612,558 638,556" stroke="rgb(0,0,0)" /><polygon points="638,517 638,507 636,505 612,506 612,520 615,518 638,517" stroke="rgb(0,0,0)" /><polygon points="637,400 636,389 616,388 610,390 610,397 612,401 637,400" stroke="rgb(0,0,0)" /><polygon points="636,286 635,275 611,275 609,277 610,287 636,286" stroke="rgb(0,0,0)" /><polygon points="637,478 637,474 632,466 611,467 612,479 637,478" stroke="rgb(0,0,0)" /><polygon points="634,440 630,439 631,437 629,431 628,436 627,435 626,428 611,428 612,440 623,440 624,434 626,437 626,442 632,442 634,440" stroke="rgb(0,0,0)" /><polygon points="637,361 635,350 610,351 611,363 635,363 637,361" stroke="rgb(0,0,0)" /><polygon points="636,248 636,241 634,237 609,238 610,250 636,248" stroke="rgb(0,0,0)" /><polygon points="635,211 634,199 608,200 609,212 635,211" stroke="rgb(0,0,0)" /><polygon points="639,705 639,695 637,693 614,694 615,705 639,705" stroke="rgb(0,0,0)" /><polygon points="636,324 635,312 609,313 610,325 636,324" stroke="rgb(0,0,0)" /><polygon points="634,173 633,162 606,163 608,174 634,173" stroke="rgb(0,0,0)" /><polygon points="603,110 603,104 601,99 586,99 578,101 579,111 590,112 603,110" stroke="rgb(0,0,0)" /><polygon points="711,693 711,509 702,500 700,502 699,523 666,523 665,509 640,484 610,484 608,482 608,464 618,462 589,433 586,436 585,445 552,444 552,425 571,425 573,423 556,406 552,406 550,402 529,423 531,428 531,444 507,445 477,475 476,483 468,484 451,501 477,502 477,522 447,523 445,522 445,513 443,509 411,540 424,541 425,552 423,554 423,562 393,562 391,560 371,580 373,586 372,601 350,601 321,630 321,640 310,641 305,646 392,648 547,648 547,691 549,719 709,721 711,693" stroke="rgb(0,0,0)" /><polygon points="586,639 583,637 577,638 583,636 584,626 582,624 559,624 557,626 559,637 572,637 572,640 586,639" stroke="rgb(0,0,0)" /><polygon points="583,596 582,584 557,585 558,596 583,596" stroke="rgb(0,0,0)" /><polygon points="583,556 583,549 581,544 557,545 558,557 580,558 583,556" stroke="rgb(0,0,0)" /><polygon points="585,520 582,518 581,505 556,506 557,518 564,518 564,520 577,521 585,520" stroke="rgb(0,0,0)" /><polygon points="581,439 580,428 555,428 556,439 581,439" stroke="rgb(0,0,0)" /><polygon points="581,478 580,466 555,467 555,475 557,479 581,478" stroke="rgb(0,0,0)" /><polygon points="581,400 580,389 555,390 556,401 569,401 570,399 574,399 575,401 581,400" stroke="rgb(0,0,0)" /><polygon points="580,362 579,350 554,352 555,363 580,362" stroke="rgb(0,0,0)" /><polygon points="580,323 580,314 578,312 555,312 553,314 554,325 578,325 580,323" stroke="rgb(0,0,0)" /><polygon points="579,286 578,275 553,276 554,287 568,288 579,286" stroke="rgb(0,0,0)" /><polygon points="579,249 579,241 577,237 552,238 552,245 554,245 554,250 579,249" stroke="rgb(0,0,0)" /><polygon points="578,211 577,200 552,201 553,212 578,211" stroke="rgb(0,0,0)" /><polygon points="577,174 576,162 551,164 552,175 577,174" stroke="rgb(0,0,0)" /><polygon points="576,136 576,129 574,125 556,126 555,130 553,125 552,129 552,127 550,127 551,138 561,138 562,135 563,138 574,138 576,136" stroke="rgb(0,0,0)" /><polygon points="575,111 574,100 549,101 550,112 575,111" stroke="rgb(0,0,0)" /><polygon points="530,706 530,695 528,693 510,693 505,695 506,707 530,706" stroke="rgb(0,0,0)" /><polygon points="529,636 528,624 504,625 505,637 529,636" stroke="rgb(0,0,0)" /><polygon points="528,596 527,584 503,585 504,596 528,596" stroke="rgb(0,0,0)" /><polygon points="527,516 526,505 503,505 501,507 503,517 515,518 527,516" stroke="rgb(0,0,0)" /><polygon points="528,556 527,544 502,545 503,557 528,556" stroke="rgb(0,0,0)" /><polygon points="527,478 526,466 501,467 502,479 527,478" stroke="rgb(0,0,0)" /><polygon points="526,438 526,429 524,427 502,427 500,429 502,440 524,440 526,438" stroke="rgb(0,0,0)" /><polygon points="526,400 524,389 500,390 501,401 526,400" stroke="rgb(0,0,0)" /><polygon points="525,362 524,351 499,352 500,363 525,362" stroke="rgb(0,0,0)" /><polygon points="524,324 523,312 499,313 500,325 524,324" stroke="rgb(0,0,0)" /><polygon points="524,286 523,275 498,276 499,288 520,288 524,286" stroke="rgb(0,0,0)" /><polygon points="523,249 522,237 499,237 497,239 499,249 523,249" stroke="rgb(0,0,0)" /><polygon points="522,212 518,200 497,201 498,212 522,212" stroke="rgb(0,0,0)" /><polygon points="518,174 515,163 513,164 513,166 511,163 496,164 497,175 518,174" stroke="rgb(0,0,0)" /><polygon points="530,687 529,673 505,674 506,689 530,687" stroke="rgb(0,0,0)" /><polygon points="501,115 499,115 501,115" stroke="rgb(0,0,0)" /><polygon points="502,706 501,694 479,694 480,707 502,706" stroke="rgb(0,0,0)" /><polygon points="486,133 476,131 470,133 486,133" stroke="rgb(0,0,0)" /><polygon points="477,639 472,637 475,635 474,624 449,625 451,639 458,640 461,638 452,637 453,636 466,636 467,637 462,638 465,640 477,639" stroke="rgb(0,0,0)" /><polygon points="475,595 475,585 473,583 449,585 450,596 475,595" stroke="rgb(0,0,0)" /><polygon points="474,556 474,546 472,544 448,545 449,557 474,556" stroke="rgb(0,0,0)" /><polygon points="475,687 474,673 451,674 451,687 453,689 469,689 475,687" stroke="rgb(0,0,0)" /><polygon points="473,516 472,505 448,506 449,517 473,516" stroke="rgb(0,0,0)" /><polygon points="472,478 471,466 447,467 448,479 472,478" stroke="rgb(0,0,0)" /><polygon points="472,438 472,429 470,427 447,428 446,431 448,439 472,438" stroke="rgb(0,0,0)" /><polygon points="472,400 470,389 446,390 447,401 472,400" stroke="rgb(0,0,0)" /><polygon points="471,362 469,351 445,352 446,363 471,362" stroke="rgb(0,0,0)" /><polygon points="470,324 469,313 444,314 446,325 470,324" stroke="rgb(0,0,0)" /><polygon points="469,287 468,275 444,276 445,288 450,286 455,288 469,287" stroke="rgb(0,0,0)" /><polygon points="469,248 468,237 445,237 443,239 444,250 459,250 461,248 462,250 466,250 466,248 469,248" stroke="rgb(0,0,0)" /><polygon points="468,212 467,201 443,201 444,213 468,212" stroke="rgb(0,0,0)" /><polygon points="468,174 468,169 466,167 468,165 467,164 442,165 443,176 466,176 468,174" stroke="rgb(0,0,0)" /><polygon points="448,668 447,653 425,654 426,668 448,668" stroke="rgb(0,0,0)" /><polygon points="435,115 425,115 429,117 435,115" stroke="rgb(0,0,0)" /><polygon points="422,635 422,625 420,623 396,624 396,631 398,636 422,635" stroke="rgb(0,0,0)" /><polygon points="421,595 420,584 395,585 397,596 421,595" stroke="rgb(0,0,0)" /><polygon points="420,556 419,544 395,545 398,546 395,549 394,553 396,557 420,556" stroke="rgb(0,0,0)" /><polygon points="419,477 418,466 394,467 395,479 419,477" stroke="rgb(0,0,0)" /><polygon points="420,516 419,505 395,506 396,517 420,516" stroke="rgb(0,0,0)" /><polygon points="419,438 418,427 393,428 394,440 410,440 419,438" stroke="rgb(0,0,0)" /><polygon points="418,400 417,389 396,389 395,393 394,391 392,393 394,402 396,400 418,400" stroke="rgb(0,0,0)" /><polygon points="422,706 421,693 398,694 398,702 400,707 417,707 419,703 419,706 422,706" stroke="rgb(0,0,0)" /><polygon points="420,365 395,364 395,361 398,359 396,362 397,363 417,363 418,362 416,351 397,350 397,353 396,352 394,356 391,358 392,366 420,365" stroke="rgb(0,0,0)" /><polygon points="416,286 415,275 399,276 399,288 411,288 413,285 414,287 416,286" stroke="rgb(0,0,0)" /><polygon points="417,324 415,313 405,314 395,312 395,315 391,317 392,319 394,319 394,322 391,325 395,327 398,326 397,324 395,324 396,323 398,323 399,325 417,324" stroke="rgb(0,0,0)" /><polygon points="416,249 416,239 414,237 405,238 403,244 402,243 398,248 390,249 409,251 416,249" stroke="rgb(0,0,0)" /><polygon points="402,212 402,202 397,201 395,204 396,200 392,198 391,211 393,213 402,212" stroke="rgb(0,0,0)" /><polygon points="405,175 403,170 404,165 401,164 403,162 396,161 395,162 397,163 396,168 398,175 405,175" stroke="rgb(0,0,0)" /><polygon points="395,688 387,687 395,685 395,674 393,672 373,673 374,689 395,688" stroke="rgb(0,0,0)" /><polygon points="358,629 356,629 358,629" stroke="rgb(0,0,0)" /><polygon points="370,598 369,594 367,593 369,584 368,583 349,583 346,586 345,584 343,585 344,598 370,598" stroke="rgb(0,0,0)" /><polygon points="368,556 367,544 361,545 356,543 348,544 346,546 345,543 342,544 344,549 342,550 343,558 351,556 354,558 358,556 368,556" stroke="rgb(0,0,0)" /><polygon points="367,516 366,505 348,506 351,517 367,516" stroke="rgb(0,0,0)" /><polygon points="367,477 367,471 365,466 348,467 348,473 351,474 351,478 367,477" stroke="rgb(0,0,0)" /><polygon points="356,430 355,427 350,427 348,429 346,438 354,439 356,430" stroke="rgb(0,0,0)" /><polygon points="362,403 359,402 358,396 361,389 360,387 342,389 343,404 362,403" stroke="rgb(0,0,0)" /><polygon points="367,290 366,273 359,275 350,275 346,273 340,274 342,275 340,280 345,280 347,282 347,287 342,288 342,290 367,290" stroke="rgb(0,0,0)" /><polygon points="351,243 349,243 351,243" stroke="rgb(0,0,0)" /><polygon points="368,365 362,364 361,362 366,354 366,352 363,351 363,349 353,349 353,354 351,354 350,357 348,349 341,350 341,353 343,353 343,351 343,363 340,365 341,366 368,365" stroke="rgb(0,0,0)" /><polygon points="547,308 529,291 496,292 495,272 509,271 474,236 473,254 441,254 440,235 465,235 471,233 455,217 441,217 439,214 440,202 418,180 387,180 387,161 398,160 393,155 347,155 342,160 343,161 365,161 367,165 367,170 365,162 363,163 364,167 362,164 341,164 339,167 340,175 361,176 362,177 358,178 365,179 366,177 366,179 363,181 337,181 335,178 336,173 334,168 305,197 315,198 316,216 313,218 285,217 265,237 265,255 247,255 231,271 233,273 264,272 266,274 265,292 210,292 193,309 266,311 266,328 264,330 228,329 195,331 205,341 276,341 279,343 287,343 279,345 280,416 288,424 319,425 318,444 310,446 336,472 339,471 340,463 370,463 370,483 352,484 372,504 393,484 391,482 392,463 414,463 443,434 443,425 452,425 470,407 444,406 443,386 474,385 476,387 477,400 508,369 496,367 496,348 529,348 546,331 535,319 547,308" stroke="rgb(0,0,0)" /><polygon points="366,215 366,204 364,204 364,207 363,201 361,207 361,199 352,200 352,203 355,206 356,210 350,201 340,202 341,213 348,213 350,210 350,212 352,213 340,214 340,216 366,215" stroke="rgb(0,0,0)" /><polygon points="610,181 608,179 605,179 604,175 593,164 599,158 583,142 547,141 546,124 552,122 560,123 562,121 557,116 546,116 546,105 541,100 538,103 540,151 537,154 278,155 277,192 154,192 153,210 183,240 184,236 194,235 264,235 266,252 265,255 199,256 217,273 264,272 266,274 265,292 237,293 254,310 265,310 266,322 292,348 317,348 318,366 317,368 313,369 334,390 339,386 345,385 368,385 370,387 370,405 358,407 371,420 390,401 390,386 405,386 422,369 390,368 389,348 421,348 421,360 423,368 460,331 458,329 443,330 441,328 441,311 444,309 472,309 474,310 475,316 498,293 495,291 495,272 519,272 549,242 549,235 557,234 574,217 548,215 548,198 580,196 582,197 583,208 610,181" stroke="rgb(0,0,0)" /><polygon points="318,700 316,700 318,700" stroke="rgb(0,0,0)" /><polygon points="305,630 303,630 305,630" stroke="rgb(0,0,0)" /><polygon points="318,598 316,595 315,588 317,587 315,583 310,583 307,585 298,585 296,595 297,596 307,596 313,599 318,598" stroke="rgb(0,0,0)" /><polygon points="303,549 301,549 303,549" stroke="rgb(0,0,0)" /><polygon points="318,516 317,502 300,502 292,504 293,516 297,512 299,513 296,514 296,516 318,516" stroke="rgb(0,0,0)" /><polygon points="318,478 317,465 311,466 309,468 313,468 311,470 309,470 309,464 291,465 292,477 306,478 312,475 313,477 315,477 316,474 316,478 318,478" stroke="rgb(0,0,0)" /><polygon points="317,402 316,386 303,386 291,388 290,399 292,401 301,401 304,398 305,400 314,400 315,389 315,402 317,402" stroke="rgb(0,0,0)" /><polygon points="305,361 303,351 301,353 303,359 300,356 301,355 299,351 290,352 290,361 292,363 305,361" stroke="rgb(0,0,0)" /><polygon points="316,325 315,311 313,312 314,315 313,313 304,313 304,322 302,320 301,313 290,314 291,324 310,324 314,326 316,325" stroke="rgb(0,0,0)" /><polygon points="313,176 313,166 311,164 289,165 289,175 292,177 293,174 294,177 313,176" stroke="rgb(0,0,0)" /><polygon points="318,437 318,427 316,425 310,426 312,427 312,431 310,427 308,431 308,427 310,426 309,425 291,426 292,439 308,439 309,435 312,435 313,438 316,440 318,437" stroke="rgb(0,0,0)" /><polygon points="305,283 305,277 303,275 290,276 289,285 292,288 302,287 305,283" stroke="rgb(0,0,0)" /><polygon points="313,249 312,238 292,238 289,240 289,245 294,250 308,250 310,248 310,250 313,249" stroke="rgb(0,0,0)" /><polygon points="305,212 305,204 303,201 298,201 298,199 288,200 290,205 290,214 305,212" stroke="rgb(0,0,0)" /><polygon points="282,0 191,90 195,93 173,93 164,95 164,114 182,115 165,117 166,118 164,119 164,132 170,134 165,134 164,140 164,135 162,134 162,118 164,117 162,116 162,102 162,114 164,114 164,95 162,95 162,99 162,94 159,94 160,95 158,96 157,101 157,187 161,187 162,189 163,188 163,170 165,170 165,172 185,173 164,173 164,188 185,186 186,189 188,187 199,188 199,190 209,190 213,188 214,173 214,190 215,188 222,187 224,187 225,190 238,189 240,190 240,192 249,192 251,189 258,188 273,189 275,179 274,154 277,152 286,152 287,146 288,152 401,151 406,100 409,97 409,94 413,91 519,89 533,90 535,88 538,88 539,106 546,99 545,98 548,97 558,87 471,0" stroke="rgb(0,0,0)" /><polygon points="265,349 245,348 243,352 258,354 262,353 265,349" stroke="rgb(0,0,0)" /><polygon points="262,432 261,427 241,427 239,429 241,432 262,432" stroke="rgb(0,0,0)" /><polygon points="265,321 265,314 263,311 246,311 246,313 249,314 247,326 236,327 263,328 265,321" stroke="rgb(0,0,0)" /><polygon points="267,592 266,582 245,582 233,580 201,580 189,582 190,594 194,593 193,588 196,583 206,582 214,583 214,593 238,593 239,596 243,593 265,594 267,592" stroke="rgb(0,0,0)" /><polygon points="267,513 265,507 264,511 263,504 266,503 265,502 205,502 189,505 190,517 198,517 203,506 201,514 202,516 215,516 216,504 217,515 253,515 265,517 267,513" stroke="rgb(0,0,0)" /><polygon points="267,550 265,542 194,541 194,543 196,543 194,545 193,554 204,555 190,555 189,557 191,559 215,559 216,558 214,557 214,550 215,555 216,552 217,554 221,554 223,552 223,554 265,555 267,550" stroke="rgb(0,0,0)" /><polygon points="265,289 265,276 263,274 254,274 251,283 246,289 238,288 246,287 252,278 251,275 246,276 241,282 238,282 237,273 223,273 222,274 225,275 222,280 220,279 218,274 212,273 202,276 202,279 200,277 200,274 189,275 189,287 191,288 189,290 190,291 226,291 226,289 215,288 216,286 217,288 221,288 227,281 230,287 232,285 232,287 229,289 231,291 263,291 265,289" stroke="rgb(0,0,0)" /><polygon points="266,472 265,463 245,464 245,466 243,466 243,464 237,463 237,471 235,473 233,473 236,471 234,465 220,466 233,470 221,470 222,469 218,466 217,463 189,465 189,476 196,478 208,478 209,476 212,477 213,475 215,477 217,475 217,477 237,476 238,478 240,478 240,474 242,477 263,477 263,465 264,472 266,472" stroke="rgb(0,0,0)" /><polygon points="262,249 261,238 237,239 238,251 262,249" stroke="rgb(0,0,0)" /><polygon points="243,352 242,347 221,348 219,350 220,353 236,353 238,350 238,353 243,352" stroke="rgb(0,0,0)" /><polygon points="237,706 236,692 215,693 216,706 237,706" stroke="rgb(0,0,0)" /><polygon points="282,0 191,90 195,93 173,93 164,95 164,114 182,115 165,117 166,118 164,119 164,132 170,134 165,134 164,140 164,135 162,134 162,118 164,117 162,116 162,102 162,114 164,114 164,95 162,95 162,99 162,94 159,94 160,95 158,96 157,101 157,187 161,187 162,189 163,188 163,170 165,170 165,172 185,173 164,173 164,188 185,186 186,189 188,187 199,188 199,190 209,190 213,188 214,173 214,190 215,188 222,187 224,187 225,190 238,189 240,190 240,192 249,192 251,189 258,188 273,189 275,179 274,154 277,152 286,152 287,146 288,152 401,151 406,100 409,97 409,94 413,91 519,89 533,90 535,88 538,88 539,106 546,99 545,98 548,97 558,87 471,0" stroke="rgb(0,0,0)" /><polygon points="276,368 276,359 274,356 171,355 168,357 193,358 195,363 193,363 192,359 164,359 164,365 188,364 194,366 156,366 156,368 161,368 162,374 163,368 189,368 189,373 199,373 199,375 203,376 200,376 200,378 208,378 201,379 201,381 198,382 160,382 160,384 162,384 155,387 152,390 150,398 153,401 152,403 157,407 162,407 163,405 164,407 188,406 189,416 208,416 212,413 213,416 214,413 215,416 235,415 235,410 211,410 214,406 213,387 215,407 236,406 236,394 239,390 238,385 236,387 235,385 214,385 217,383 236,383 229,382 235,381 235,376 230,376 230,374 222,374 235,373 235,368 224,368 227,366 226,365 238,365 238,360 236,360 235,363 235,359 215,359 214,362 212,359 273,358 266,359 265,364 274,365 274,368 276,368" stroke="rgb(0,0,0)" /><polygon points="267,550 265,542 194,541 194,543 196,543 194,545 193,554 204,555 190,555 189,557 191,559 215,559 216,558 214,557 214,550 215,555 216,552 217,554 221,554 223,552 223,554 265,555 267,550" stroke="rgb(0,0,0)" /><polygon points="266,472 265,463 245,464 245,466 243,466 243,464 237,463 237,471 235,473 233,473 236,471 234,465 220,466 233,470 221,470 222,469 218,466 217,463 189,465 189,476 196,478 208,478 209,476 212,477 213,475 215,477 217,475 217,477 237,476 238,478 240,478 240,474 242,477 263,477 263,465 264,472 266,472" stroke="rgb(0,0,0)" /><polygon points="213,214 212,201 189,202 190,215 213,214" stroke="rgb(0,0,0)" /><polygon points="248,318 247,313 242,313 240,316 240,313 242,312 241,311 227,312 206,310 205,311 207,313 201,314 199,324 202,324 202,321 207,315 203,324 209,325 202,326 202,328 226,328 236,326 227,325 228,324 245,325 248,318" stroke="rgb(0,0,0)" /><polygon points="265,289 265,276 263,274 254,274 251,283 246,289 238,288 246,287 252,278 251,275 246,276 241,282 238,282 237,273 223,273 222,274 225,275 222,280 220,279 218,274 212,273 202,276 202,279 200,277 200,274 189,275 189,287 191,288 189,290 190,291 226,291 226,289 215,288 216,286 217,288 221,288 227,281 230,287 232,285 232,287 229,289 231,291 263,291 265,289" stroke="rgb(0,0,0)" /><polygon points="213,593 212,583 198,583 194,590 195,594 213,593" stroke="rgb(0,0,0)" /><polygon points="267,513 265,507 264,511 263,504 266,503 265,502 205,502 189,505 190,517 198,517 203,506 201,514 202,516 215,516 216,504 217,515 253,515 265,517 267,513" stroke="rgb(0,0,0)" /><polygon points="214,253 202,251 203,245 201,237 192,237 189,240 190,254 214,253" stroke="rgb(0,0,0)" /><polygon points="282,0 191,90 195,93 173,93 164,95 164,114 182,115 165,117 166,118 164,119 164,132 170,134 165,134 164,140 164,135 162,134 162,118 164,117 162,116 162,102 162,114 164,114 164,95 162,95 162,99 162,94 159,94 160,95 158,96 157,101 157,187 161,187 162,189 163,188 163,170 165,170 165,172 185,173 164,173 164,188 185,186 186,189 188,187 199,188 199,190 209,190 213,188 214,173 214,190 215,188 222,187 224,187 225,190 238,189 240,190 240,192 249,192 251,189 258,188 273,189 275,179 274,154 277,152 286,152 287,146 288,152 401,151 406,100 409,97 409,94 413,91 519,89 533,90 535,88 538,88 539,106 546,99 545,98 548,97 558,87 471,0" stroke="rgb(0,0,0)" /><polygon points="185,705 184,692 163,693 164,706 185,705" stroke="rgb(0,0,0)" /><polygon points="282,0 191,90 195,93 173,93 164,95 164,114 182,115 165,117 166,118 164,119 164,132 170,134 165,134 164,140 164,135 162,134 162,118 164,117 162,116 162,102 162,114 164,114 164,95 162,95 162,99 162,94 159,94 160,95 158,96 157,101 157,187 161,187 162,189 163,188 163,170 165,170 165,172 185,173 164,173 164,188 185,186 186,189 188,187 199,188 199,190 209,190 213,188 214,173 214,190 215,188 222,187 224,187 225,190 238,189 240,190 240,192 249,192 251,189 258,188 273,189 275,179 274,154 277,152 286,152 287,146 288,152 401,151 406,100 409,97 409,94 413,91 519,89 533,90 535,88 538,88 539,106 546,99 545,98 548,97 558,87 471,0" stroke="rgb(0,0,0)" /></svg>