<?xml version="1.0" encoding="utf-8" ?>
<svg baseProfile="full" height="100%" version="1.1" width="100%" xmlns="http://www.w3.org/2000/svg" xmlns:ev="http://www.w3.org/2001/xml-events" xmlns:xlink="http://www.w3.org/1999/xlink"><defs /><polygon points="780,708 777,702 741,702 747,708 780,708" stroke="rgb(0,0,0)" /><polygon points="780,604 775,588 770,580 766,581 770,591 765,593 760,592 756,587 752,588 753,591 751,589 751,583 741,584 745,590 746,588 747,591 750,591 745,592 740,586 729,586 728,581 724,581 723,588 732,590 731,593 723,593 722,598 724,605 735,605 737,603 743,605 780,604" stroke="rgb(0,0,0)" /><polygon points="770,368 768,368 770,368" stroke="rgb(0,0,0)" /><polygon points="779,418 778,414 759,414 754,415 752,417 753,419 766,420 779,418" stroke="rgb(0,0,0)" /><polygon points="782,615 781,607 744,606 741,610 743,618 755,618 757,620 759,619 758,624 762,630 768,629 764,619 772,618 774,622 776,622 778,625 778,635 780,638 780,621 782,615" stroke="rgb(0,0,0)" /><polygon points="785,534 785,528 782,528 782,525 782,527 784,527 785,506 779,495 782,499 782,494 785,494 785,467 784,466 780,469 777,463 773,463 771,468 773,474 771,472 769,477 769,481 770,482 771,480 772,486 771,485 769,488 769,519 767,524 769,531 771,533 769,534 766,527 731,526 728,524 728,462 724,461 723,462 725,546 723,554 723,564 766,564 768,566 769,564 764,552 761,554 747,552 757,552 757,542 731,541 729,552 729,540 766,541 770,549 770,553 773,554 774,553 772,550 772,545 774,545 776,548 777,547 774,538 775,535 783,555 785,534" stroke="rgb(0,0,0)" /><polygon points="768,486 767,469 751,465 750,464 752,461 751,460 732,460 730,485 731,521 765,522 767,517 766,513 768,486" stroke="rgb(0,0,0)" /><polygon points="780,685 774,666 771,661 724,661 725,666 727,664 730,666 769,667 771,670 770,672 738,672 737,673 739,680 737,673 735,672 734,673 737,681 733,672 730,676 724,676 723,674 722,678 724,686 726,684 727,685 728,682 731,686 736,686 737,684 740,684 742,686 780,685" stroke="rgb(0,0,0)" /><polygon points="780,604 775,588 770,580 766,581 770,591 765,593 760,592 756,587 752,588 753,591 751,589 751,583 741,584 745,590 746,588 747,591 750,591 745,592 740,586 729,586 728,581 724,581 723,588 732,590 731,593 723,593 722,598 724,605 735,605 737,603 743,605 780,604" stroke="rgb(0,0,0)" /><polygon points="785,331 783,328 782,316 780,315 781,306 779,303 779,296 775,284 775,278 773,276 774,271 772,269 772,264 771,263 768,264 768,266 763,266 768,264 760,261 759,259 749,259 747,262 746,261 748,260 747,257 750,256 749,253 752,256 763,256 764,254 763,257 765,259 771,258 770,251 768,248 766,232 763,228 759,230 759,226 755,225 753,222 749,225 751,228 750,231 725,231 724,235 722,236 713,232 713,235 719,242 716,242 714,244 717,246 717,249 713,249 714,251 707,245 703,249 704,245 706,244 705,242 703,241 700,243 695,243 693,236 676,236 667,238 667,248 670,251 679,249 685,253 693,252 693,250 690,249 693,249 696,250 699,255 705,255 707,259 708,255 712,255 719,259 721,263 719,264 720,265 716,263 712,264 717,266 712,267 710,270 713,273 710,272 707,278 708,279 712,275 715,276 718,270 717,269 719,272 723,273 723,275 719,278 722,280 724,285 722,288 721,286 718,287 720,288 719,290 722,290 723,292 723,298 721,300 725,303 727,302 725,305 725,331 737,331 737,329 739,331 741,329 744,331 782,331 783,334 785,331" stroke="rgb(0,0,0)" /><polygon points="762,216 760,214 761,208 759,208 760,204 758,201 753,200 751,203 743,203 742,209 738,209 736,203 724,204 723,215 725,217 737,217 736,220 740,220 739,223 746,226 748,226 751,223 751,219 748,218 748,222 744,222 744,220 746,219 742,217 762,216" stroke="rgb(0,0,0)" /><polygon points="730,426 729,423 728,426 730,426" stroke="rgb(0,0,0)" /><polygon points="695,596 694,585 669,586 670,597 695,596" stroke="rgb(0,0,0)" /><polygon points="687,515 685,507 683,506 682,508 684,515 687,515" stroke="rgb(0,0,0)" /><polygon points="695,480 694,466 670,466 668,468 668,477 670,479 689,479 694,481 695,480" stroke="rgb(0,0,0)" /><polygon points="698,354 695,348 684,358 683,361 685,363 689,358 691,360 698,354" stroke="rgb(0,0,0)" /><polygon points="694,324 693,312 667,313 668,324 694,324" stroke="rgb(0,0,0)" /><polygon points="696,634 694,625 669,626 670,637 679,639 694,638 696,634" stroke="rgb(0,0,0)" /><polygon points="695,557 695,547 693,545 668,546 669,557 695,557" stroke="rgb(0,0,0)" /><polygon points="785,331 783,328 782,316 780,315 781,306 779,303 779,296 775,284 775,278 773,276 774,271 772,269 772,264 771,263 768,264 768,266 763,266 768,264 760,261 759,259 749,259 747,262 746,261 748,260 747,257 750,256 749,253 752,256 763,256 764,254 763,257 765,259 771,258 770,251 768,248 766,232 763,228 759,230 759,226 755,225 753,222 749,225 751,228 750,231 725,231 724,235 722,236 713,232 713,235 719,242 716,242 714,244 717,246 717,249 713,249 714,251 707,245 703,249 704,245 706,244 705,242 703,241 700,243 695,243 693,236 676,236 667,238 667,248 670,251 679,249 685,253 693,252 693,250 690,249 693,249 696,250 699,255 705,255 707,259 708,255 712,255 719,259 721,263 719,264 720,265 716,263 712,264 717,266 712,267 710,270 713,273 710,272 707,278 708,279 712,275 715,276 718,270 717,269 719,272 723,273 723,275 719,278 722,280 724,285 722,288 721,286 718,287 720,288 719,290 722,290 723,292 723,298 721,300 725,303 727,302 725,305 725,331 737,331 737,329 739,331 741,329 744,331 782,331 783,334 785,331" stroke="rgb(0,0,0)" /><polygon points="693,210 692,199 667,199 665,202 667,212 669,211 671,213 673,211 693,210" stroke="rgb(0,0,0)" /><polygon points="693,172 693,163 691,161 675,162 674,167 674,163 672,161 666,162 664,164 666,174 686,174 693,172" stroke="rgb(0,0,0)" /><polygon points="700,280 698,279 699,277 697,276 700,273 695,271 693,275 670,274 667,276 667,283 669,287 678,286 691,288 695,286 695,282 697,283 697,281 700,280" stroke="rgb(0,0,0)" /><polygon points="711,519 710,461 654,460 652,458 652,369 650,367 633,384 635,386 642,386 641,406 611,406 586,431 585,445 553,445 551,442 552,423 550,421 531,440 531,444 526,445 509,462 530,463 532,469 532,482 530,484 499,484 497,474 471,500 473,502 475,501 478,503 478,521 476,523 448,523 425,546 424,562 409,562 392,579 397,581 424,580 426,596 424,602 394,602 392,599 393,585 391,580 373,597 372,601 369,601 352,618 354,620 373,620 373,641 341,641 341,632 339,631 324,646 412,648 544,647 548,650 549,719 709,721 711,519" stroke="rgb(0,0,0)" /><polygon points="692,430 681,412 666,417 667,436 687,436 692,430" stroke="rgb(0,0,0)" /><polygon points="665,676 664,665 643,666 645,669 645,675 642,677 643,678 665,676" stroke="rgb(0,0,0)" /><polygon points="638,596 637,585 617,584 615,586 614,584 612,586 613,596 631,597 632,594 633,597 634,595 635,597 638,596" stroke="rgb(0,0,0)" /><polygon points="636,636 633,634 633,632 635,631 633,625 614,624 612,627 613,638 617,636 624,638 636,636" stroke="rgb(0,0,0)" /><polygon points="638,556 637,552 626,552 625,547 623,545 612,546 613,558 638,556" stroke="rgb(0,0,0)" /><polygon points="638,516 637,506 633,506 633,509 631,510 631,508 627,508 628,507 625,505 618,505 617,512 617,506 612,506 612,518 636,518 638,516" stroke="rgb(0,0,0)" /><polygon points="637,400 636,389 618,389 618,393 615,389 611,390 612,401 637,400" stroke="rgb(0,0,0)" /><polygon points="636,286 635,275 611,275 609,279 609,284 611,287 636,286" stroke="rgb(0,0,0)" /><polygon points="637,478 637,475 632,466 611,467 611,477 613,479 637,478" stroke="rgb(0,0,0)" /><polygon points="627,435 626,428 611,428 612,439 623,439 624,433 626,436 627,435" stroke="rgb(0,0,0)" /><polygon points="636,362 635,351 621,350 610,352 611,363 636,362" stroke="rgb(0,0,0)" /><polygon points="636,248 634,237 609,238 610,249 636,248" stroke="rgb(0,0,0)" /><polygon points="635,210 633,199 612,199 608,201 609,212 632,212 635,210" stroke="rgb(0,0,0)" /><polygon points="639,705 638,694 614,694 615,705 639,705" stroke="rgb(0,0,0)" /><polygon points="636,324 636,314 634,312 611,312 609,314 610,325 636,324" stroke="rgb(0,0,0)" /><polygon points="634,173 633,162 607,163 608,174 634,173" stroke="rgb(0,0,0)" /><polygon points="602,110 601,99 578,101 580,111 602,110" stroke="rgb(0,0,0)" /><polygon points="711,519 711,504 702,495 696,501 700,503 700,523 665,523 664,505 642,483 609,484 607,464 621,462 589,430 586,433 585,445 553,445 551,442 552,424 574,425 576,423 559,406 552,406 550,397 524,423 530,424 531,426 530,445 502,445 477,470 477,483 463,484 446,500 448,502 474,501 477,502 478,521 476,523 446,523 444,521 443,503 407,539 423,540 425,542 424,562 393,562 391,555 367,579 371,580 373,583 373,600 344,602 321,625 322,640 305,641 300,646 412,648 544,647 548,650 549,719 709,721 711,519" stroke="rgb(0,0,0)" /><polygon points="583,636 582,624 572,624 572,630 571,627 570,632 569,624 558,625 559,636 575,638 583,636" stroke="rgb(0,0,0)" /><polygon points="583,596 582,584 557,585 558,596 583,596" stroke="rgb(0,0,0)" /><polygon points="583,556 581,545 580,548 579,545 557,546 558,557 561,556 579,558 583,556" stroke="rgb(0,0,0)" /><polygon points="582,517 581,514 576,514 574,512 574,508 572,505 564,505 563,510 563,507 561,505 556,506 557,517 563,517 564,513 565,518 582,517" stroke="rgb(0,0,0)" /><polygon points="581,438 580,428 555,429 556,439 581,438" stroke="rgb(0,0,0)" /><polygon points="581,477 580,466 555,467 557,478 575,479 581,477" stroke="rgb(0,0,0)" /><polygon points="581,399 580,389 555,390 556,401 569,401 571,398 576,401 579,401 581,399" stroke="rgb(0,0,0)" /><polygon points="580,362 579,351 554,352 555,363 580,362" stroke="rgb(0,0,0)" /><polygon points="580,323 578,313 570,312 554,314 555,325 577,325 580,323" stroke="rgb(0,0,0)" /><polygon points="579,286 579,277 577,275 553,276 554,287 579,286" stroke="rgb(0,0,0)" /><polygon points="579,248 579,242 577,237 554,237 552,239 554,250 562,250 567,248 572,249 573,247 576,250 579,248" stroke="rgb(0,0,0)" /><polygon points="578,210 577,200 552,201 553,212 576,212 578,210" stroke="rgb(0,0,0)" /><polygon points="577,173 576,163 551,164 552,175 566,175 577,173" stroke="rgb(0,0,0)" /><polygon points="576,136 574,126 555,127 555,131 557,132 559,138 562,137 562,134 565,134 566,138 576,136" stroke="rgb(0,0,0)" /><polygon points="575,110 574,100 549,101 550,112 568,112 575,110" stroke="rgb(0,0,0)" /><polygon points="530,705 529,694 505,695 506,707 528,707 530,705" stroke="rgb(0,0,0)" /><polygon points="529,635 528,624 504,625 505,636 529,635" stroke="rgb(0,0,0)" /><polygon points="528,595 527,584 503,585 504,596 528,595" stroke="rgb(0,0,0)" /><polygon points="527,516 526,505 502,506 503,517 527,516" stroke="rgb(0,0,0)" /><polygon points="528,555 527,545 504,544 502,546 503,556 522,557 528,555" stroke="rgb(0,0,0)" /><polygon points="527,477 527,469 525,466 501,467 502,478 525,479 527,477" stroke="rgb(0,0,0)" /><polygon points="526,438 525,428 501,428 502,439 526,438" stroke="rgb(0,0,0)" /><polygon points="525,400 524,389 500,390 501,401 525,400" stroke="rgb(0,0,0)" /><polygon points="525,362 524,351 499,352 500,363 525,362" stroke="rgb(0,0,0)" /><polygon points="524,324 523,312 499,314 500,325 524,324" stroke="rgb(0,0,0)" /><polygon points="524,278 523,275 499,275 498,286 522,287 524,278" stroke="rgb(0,0,0)" /><polygon points="523,248 522,237 505,237 498,239 499,249 521,250 523,248" stroke="rgb(0,0,0)" /><polygon points="521,212 518,200 497,201 498,212 521,212" stroke="rgb(0,0,0)" /><polygon points="518,174 515,163 513,164 513,167 509,163 508,165 507,163 496,164 497,175 518,174" stroke="rgb(0,0,0)" /><polygon points="530,687 529,673 505,674 506,689 530,687" stroke="rgb(0,0,0)" /><polygon points="501,115 499,115 501,115" stroke="rgb(0,0,0)" /><polygon points="502,706 502,696 500,694 479,694 479,697 481,698 479,700 480,707 502,706" stroke="rgb(0,0,0)" /><polygon points="482,133 476,131 470,133 482,133" stroke="rgb(0,0,0)" /><polygon points="475,635 474,624 450,625 451,637 468,637 475,635" stroke="rgb(0,0,0)" /><polygon points="474,595 473,584 449,585 450,596 474,595" stroke="rgb(0,0,0)" /><polygon points="474,555 474,549 472,544 450,544 448,546 448,553 450,557 467,557 474,555" stroke="rgb(0,0,0)" /><polygon points="475,687 474,673 451,674 451,686 454,689 465,689 475,687" stroke="rgb(0,0,0)" /><polygon points="473,516 472,505 448,506 449,517 473,516" stroke="rgb(0,0,0)" /><polygon points="472,477 471,466 447,467 448,479 472,477" stroke="rgb(0,0,0)" /><polygon points="472,438 471,428 458,427 447,428 448,439 472,438" stroke="rgb(0,0,0)" /><polygon points="472,399 470,389 446,390 447,401 470,401 472,399" stroke="rgb(0,0,0)" /><polygon points="471,362 469,351 445,352 445,360 447,363 471,362" stroke="rgb(0,0,0)" /><polygon points="470,324 469,313 445,314 446,325 470,324" stroke="rgb(0,0,0)" /><polygon points="469,286 468,275 444,276 444,282 449,286 469,286" stroke="rgb(0,0,0)" /><polygon points="469,247 468,238 443,239 444,250 458,250 461,247 469,247" stroke="rgb(0,0,0)" /><polygon points="468,211 467,201 443,202 444,213 466,213 468,211" stroke="rgb(0,0,0)" /><polygon points="468,174 466,164 442,165 443,176 456,176 468,174" stroke="rgb(0,0,0)" /><polygon points="448,667 447,653 425,654 426,668 448,667" stroke="rgb(0,0,0)" /><polygon points="432,115 429,114 428,116 429,117 432,115" stroke="rgb(0,0,0)" /><polygon points="422,634 421,625 419,623 400,623 396,625 398,635 420,636 422,634" stroke="rgb(0,0,0)" /><polygon points="421,595 421,586 419,584 397,584 395,587 397,596 400,596 402,592 403,596 421,595" stroke="rgb(0,0,0)" /><polygon points="420,555 419,544 402,544 401,546 399,544 399,547 395,549 396,557 418,557 420,555" stroke="rgb(0,0,0)" /><polygon points="419,477 418,466 394,467 395,478 419,477" stroke="rgb(0,0,0)" /><polygon points="420,516 420,508 418,505 395,506 396,517 420,516" stroke="rgb(0,0,0)" /><polygon points="419,438 418,427 393,428 394,439 404,438 405,440 409,440 419,438" stroke="rgb(0,0,0)" /><polygon points="418,400 417,389 395,390 395,397 397,401 418,400" stroke="rgb(0,0,0)" /><polygon points="422,706 421,693 400,693 398,695 400,707 402,706 403,695 404,706 417,706 419,704 419,701 419,706 422,706" stroke="rgb(0,0,0)" /><polygon points="417,362 416,351 402,351 400,353 400,358 396,362 417,362" stroke="rgb(0,0,0)" /><polygon points="416,281 415,275 402,275 401,278 401,276 399,276 399,286 402,288 411,288 414,282 416,281" stroke="rgb(0,0,0)" /><polygon points="416,324 415,313 404,314 404,317 402,318 403,319 397,320 397,322 400,325 416,324" stroke="rgb(0,0,0)" /><polygon points="416,249 416,240 414,238 409,238 408,240 406,238 404,240 405,243 402,243 398,248 390,249 416,249" stroke="rgb(0,0,0)" /><polygon points="402,211 402,202 398,201 395,206 395,202 392,200 392,211 402,211" stroke="rgb(0,0,0)" /><polygon points="405,175 404,172 400,170 403,169 401,166 403,167 404,165 397,164 396,167 398,175 405,175" stroke="rgb(0,0,0)" /><polygon points="395,688 386,687 394,685 394,673 373,673 374,689 395,688" stroke="rgb(0,0,0)" /><polygon points="358,629 356,629 358,629" stroke="rgb(0,0,0)" /><polygon points="369,596 369,594 367,593 368,589 365,589 368,586 367,583 363,585 354,584 352,586 353,587 349,588 346,588 346,586 343,587 344,598 348,595 345,594 346,590 350,590 349,591 353,592 355,596 369,596" stroke="rgb(0,0,0)" /><polygon points="367,556 366,551 365,552 360,547 358,548 361,545 360,544 347,545 345,547 350,547 348,549 350,550 343,553 344,557 352,556 354,553 356,553 358,556 360,555 360,557 367,556" stroke="rgb(0,0,0)" /><polygon points="367,516 366,505 349,506 350,515 352,517 367,516" stroke="rgb(0,0,0)" /><polygon points="367,477 366,471 357,472 356,466 354,466 352,470 351,466 348,467 348,471 351,474 352,478 367,477" stroke="rgb(0,0,0)" /><polygon points="356,429 351,427 348,430 346,438 354,439 356,429" stroke="rgb(0,0,0)" /><polygon points="360,403 358,402 358,400 351,401 353,399 351,388 342,389 343,404 360,403" stroke="rgb(0,0,0)" /><polygon points="364,288 363,274 340,274 342,275 341,277 343,278 343,280 347,280 348,287 342,288 342,290 364,288" stroke="rgb(0,0,0)" /><polygon points="351,243 349,243 351,243" stroke="rgb(0,0,0)" /><polygon points="367,365 357,362 360,362 363,359 366,354 365,351 361,351 361,349 353,349 352,350 354,353 351,355 349,359 349,350 341,350 342,353 343,351 343,366 367,365" stroke="rgb(0,0,0)" /><polygon points="367,312 361,311 353,313 342,311 341,324 345,325 346,321 348,327 365,328 365,326 359,324 360,323 356,321 356,318 359,317 361,314 363,315 367,312" stroke="rgb(0,0,0)" /><polygon points="354,211 354,207 349,201 346,207 346,201 340,202 341,213 347,213 349,210 351,210 352,212 354,211" stroke="rgb(0,0,0)" /><polygon points="354,166 353,164 341,164 340,175 349,176 354,166" stroke="rgb(0,0,0)" /><polygon points="318,700 316,700 318,700" stroke="rgb(0,0,0)" /><polygon points="305,630 303,630 305,630" stroke="rgb(0,0,0)" /><polygon points="316,592 313,589 305,593 305,589 308,587 310,589 316,587 311,586 311,584 298,585 298,595 311,597 312,596 310,593 314,594 316,592" stroke="rgb(0,0,0)" /><polygon points="303,549 301,549 303,549" stroke="rgb(0,0,0)" /><polygon points="318,516 317,503 307,502 307,506 305,503 303,505 304,510 306,508 305,511 303,510 302,505 300,507 300,503 292,504 293,516 299,510 300,511 296,515 297,516 318,516" stroke="rgb(0,0,0)" /><polygon points="318,477 317,466 309,470 309,464 291,465 291,474 293,477 309,477 313,474 315,475 316,473 316,477 318,477" stroke="rgb(0,0,0)" /><polygon points="317,398 317,388 314,386 291,388 291,399 293,401 302,400 304,397 306,398 304,399 305,400 314,400 315,389 315,398 317,398" stroke="rgb(0,0,0)" /><polygon points="303,361 299,351 290,352 292,362 303,361" stroke="rgb(0,0,0)" /><polygon points="305,323 301,319 301,313 290,314 290,318 296,324 303,325 305,323" stroke="rgb(0,0,0)" /><polygon points="313,176 313,167 311,164 299,164 297,166 298,168 303,169 304,175 306,177 313,176" stroke="rgb(0,0,0)" /><polygon points="310,426 292,425 291,438 307,439 309,436 308,427 310,426" stroke="rgb(0,0,0)" /><polygon points="305,282 304,276 294,275 290,277 290,283 292,287 302,287 302,284 303,285 305,282" stroke="rgb(0,0,0)" /><polygon points="313,246 313,240 311,238 293,238 289,240 289,245 294,250 308,250 311,246 313,246" stroke="rgb(0,0,0)" /><polygon points="305,212 304,202 295,201 293,212 305,212" stroke="rgb(0,0,0)" /><polygon points="412,91 403,91 394,97 395,100 391,102 390,108 395,115 393,116 394,117 389,118 389,122 389,116 394,115 389,108 389,103 394,95 399,92 398,91 314,91 310,92 309,94 307,94 307,92 294,93 294,101 287,101 285,104 285,114 287,114 287,112 288,115 290,114 289,108 291,115 287,117 288,118 285,120 286,123 285,122 282,124 283,126 283,123 275,118 281,116 278,115 279,110 279,113 281,115 284,114 284,103 281,103 276,108 276,113 275,107 282,101 275,97 272,97 269,94 269,92 165,94 165,101 185,101 165,102 165,115 186,116 187,106 188,115 210,115 206,116 206,118 164,119 165,133 185,132 185,134 165,134 165,136 189,136 187,139 188,152 186,152 185,154 165,154 163,169 186,170 187,168 189,170 212,170 213,162 214,172 235,172 236,174 235,177 234,173 215,173 213,176 214,188 228,187 229,188 226,188 226,190 256,189 257,188 255,187 257,185 257,181 259,178 261,180 259,181 259,186 257,187 263,189 274,187 275,176 273,155 276,152 285,152 287,150 286,147 288,145 288,152 387,152 389,149 389,151 401,151 402,150 400,144 402,143 401,137 403,132 402,122 401,131 401,117 403,121 405,115 406,99 409,97 409,94 412,91" stroke="rgb(0,0,0)" /><polygon points="265,349 244,349 243,352 258,354 262,353 265,349" stroke="rgb(0,0,0)" /><polygon points="262,430 261,427 240,428 241,432 260,432 262,430" stroke="rgb(0,0,0)" /><polygon points="265,316 263,311 250,312 247,326 236,327 262,328 264,326 265,316" stroke="rgb(0,0,0)" /><polygon points="267,587 265,582 255,582 254,585 253,581 230,581 230,583 220,583 218,588 216,589 216,592 241,594 243,592 243,584 243,592 245,594 265,594 267,587" stroke="rgb(0,0,0)" /><polygon points="266,515 266,511 264,511 263,504 266,503 265,502 204,503 204,509 201,515 213,516 215,514 213,512 212,504 217,504 217,515 228,515 229,513 231,513 231,515 266,515" stroke="rgb(0,0,0)" /><polygon points="266,554 265,542 256,542 256,544 252,544 251,542 242,541 195,541 195,543 200,543 194,545 194,554 203,553 211,555 190,555 189,557 195,559 215,559 216,558 214,557 214,549 215,555 216,550 217,554 220,554 221,552 226,552 227,554 239,554 240,552 237,550 239,550 241,547 240,552 242,554 247,554 248,552 250,554 258,555 266,554" stroke="rgb(0,0,0)" /><polygon points="252,278 251,276 247,276 241,283 239,282 237,284 237,287 246,287 252,278" stroke="rgb(0,0,0)" /><polygon points="264,470 263,467 259,465 253,466 253,464 246,464 246,470 244,466 239,467 238,465 237,472 233,474 236,476 238,475 237,476 239,478 241,470 242,477 244,476 244,472 246,477 262,477 264,470" stroke="rgb(0,0,0)" /><polygon points="262,249 261,239 245,238 242,240 242,243 240,240 242,240 242,238 237,239 238,250 262,249" stroke="rgb(0,0,0)" /><polygon points="237,351 236,349 221,348 219,352 235,353 237,351" stroke="rgb(0,0,0)" /><polygon points="237,705 236,693 216,693 215,704 217,706 233,706 234,702 234,705 237,705" stroke="rgb(0,0,0)" /><polygon points="412,91 403,91 394,97 395,100 391,102 390,108 395,115 393,116 394,117 389,118 389,122 389,116 394,115 389,108 389,103 394,95 399,92 398,91 314,91 310,92 309,94 307,94 307,92 294,93 294,101 287,101 285,104 285,114 287,114 287,112 288,115 290,114 289,108 291,115 287,117 288,118 285,120 286,123 285,122 282,124 283,126 283,123 275,118 281,116 278,115 279,110 279,113 281,115 284,114 284,103 281,103 276,108 276,113 275,107 282,101 275,97 272,97 269,94 269,92 165,94 165,101 185,101 165,102 165,115 186,116 187,106 188,115 210,115 206,116 206,118 164,119 165,133 185,132 185,134 165,134 165,136 189,136 187,139 188,152 186,152 185,154 165,154 163,169 186,170 187,168 189,170 212,170 213,162 214,172 235,172 236,174 235,177 234,173 215,173 213,176 214,188 228,187 229,188 226,188 226,190 256,189 257,188 255,187 257,185 257,181 259,178 261,180 259,181 259,186 257,187 263,189 274,187 275,176 273,155 276,152 285,152 287,150 286,147 288,145 288,152 387,152 389,149 389,151 401,151 402,150 400,144 402,143 401,137 403,132 402,122 401,131 401,117 403,121 405,115 406,99 409,97 409,94 412,91" stroke="rgb(0,0,0)" /><polygon points="214,406 212,404 212,390 209,394 208,391 206,395 205,385 188,386 189,407 209,408 214,406" stroke="rgb(0,0,0)" /><polygon points="266,554 265,542 256,542 256,544 252,544 251,542 242,541 195,541 195,543 200,543 194,545 194,554 203,553 211,555 190,555 189,557 195,559 215,559 216,558 214,557 214,549 215,555 216,550 217,554 220,554 221,552 226,552 227,554 239,554 240,552 237,550 239,550 241,547 240,552 242,554 247,554 248,552 250,554 258,555 266,554" stroke="rgb(0,0,0)" /><polygon points="234,472 232,470 225,469 220,471 220,468 218,466 216,468 215,464 191,464 189,466 190,477 208,477 209,475 212,475 214,473 214,466 215,477 219,474 225,474 232,477 234,472" stroke="rgb(0,0,0)" /><polygon points="213,214 212,203 210,201 195,201 189,203 190,215 213,214" stroke="rgb(0,0,0)" /><polygon points="207,314 205,313 201,317 199,321 200,325 207,314" stroke="rgb(0,0,0)" /><polygon points="202,287 202,280 200,278 200,275 190,274 189,286 192,288 202,287" stroke="rgb(0,0,0)" /><polygon points="213,593 212,583 199,583 195,587 196,590 198,589 198,591 196,592 198,594 203,594 203,590 207,594 213,593" stroke="rgb(0,0,0)" /><polygon points="203,507 202,504 190,504 189,515 199,516 201,509 203,507" stroke="rgb(0,0,0)" /><polygon points="209,253 202,251 203,247 201,238 189,240 189,250 191,252 189,253 190,254 209,253" stroke="rgb(0,0,0)" /><polygon points="412,91 403,91 394,97 395,100 391,102 390,108 395,115 393,116 394,117 389,118 389,122 389,116 394,115 389,108 389,103 394,95 399,92 398,91 314,91 310,92 309,94 307,94 307,92 294,93 294,101 287,101 285,104 285,114 287,114 287,112 288,115 290,114 289,108 291,115 287,117 288,118 285,120 286,123 285,122 282,124 283,126 283,123 275,118 281,116 278,115 279,110 279,113 281,115 284,114 284,103 281,103 276,108 276,113 275,107 282,101 275,97 272,97 269,94 269,92 165,94 165,101 185,101 165,102 165,115 186,116 187,106 188,115 210,115 206,116 206,118 164,119 165,133 185,132 185,134 165,134 165,136 189,136 187,139 188,152 186,152 185,154 165,154 163,169 186,170 187,168 189,170 212,170 213,162 214,172 235,172 236,174 235,177 234,173 215,173 213,176 214,188 228,187 229,188 226,188 226,190 256,189 257,188 255,187 257,185 257,181 259,178 261,180 259,181 259,186 257,187 263,189 274,187 275,176 273,155 276,152 285,152 287,150 286,147 288,145 288,152 387,152 389,149 389,151 401,151 402,150 400,144 402,143 401,137 403,132 402,122 401,131 401,117 403,121 405,115 406,99 409,97 409,94 412,91" stroke="rgb(0,0,0)" /><polygon points="185,705 184,692 167,692 165,700 166,693 163,693 164,706 180,706 182,701 181,705 185,705" stroke="rgb(0,0,0)" /><polygon points="412,91 403,91 394,97 395,100 391,102 390,108 395,115 393,116 394,117 389,118 389,122 389,116 394,115 389,108 389,103 394,95 399,92 398,91 314,91 310,92 309,94 307,94 307,92 294,93 294,101 287,101 285,104 285,114 287,114 287,112 288,115 290,114 289,108 291,115 287,117 288,118 285,120 286,123 285,122 282,124 283,126 283,123 275,118 281,116 278,115 279,110 279,113 281,115 284,114 284,103 281,103 276,108 276,113 275,107 282,101 275,97 272,97 269,94 269,92 165,94 165,101 185,101 165,102 165,115 186,116 187,106 188,115 210,115 206,116 206,118 164,119 165,133 185,132 185,134 165,134 165,136 189,136 187,139 188,152 186,152 185,154 165,154 163,169 186,170 187,168 189,170 212,170 213,162 214,172 235,172 236,174 235,177 234,173 215,173 213,176 214,188 228,187 229,188 226,188 226,190 256,189 257,188 255,187 257,185 257,181 259,178 261,180 259,181 259,186 257,187 263,189 274,187 275,176 273,155 276,152 285,152 287,150 286,147 288,145 288,152 387,152 389,149 389,151 401,151 402,150 400,144 402,143 401,137 403,132 402,122 401,131 401,117 403,121 405,115 406,99 409,97 409,94 412,91" stroke="rgb(0,0,0)" /></svg>