<?xml version="1.0" encoding="utf-8" ?>
<svg baseProfile="full" height="100%" version="1.1" width="100%" xmlns="http://www.w3.org/2000/svg" xmlns:ev="http://www.w3.org/2001/xml-events" xmlns:xlink="http://www.w3.org/1999/xlink"><defs /><polygon points="779,707 777,702 743,703 747,708 779,707" stroke="rgb(0,0,0)" /><polygon points="780,604 777,593 769,580 766,581 770,589 770,592 766,593 770,594 769,595 761,595 759,593 755,594 752,591 740,593 738,595 740,602 742,604 780,604" stroke="rgb(0,0,0)" /><polygon points="770,368 768,368 770,368" stroke="rgb(0,0,0)" /><polygon points="779,418 778,414 760,414 759,417 756,418 766,420 779,418" stroke="rgb(0,0,0)" /><polygon points="768,629 765,624 764,627 763,626 762,620 758,621 760,623 759,624 762,630 768,629" stroke="rgb(0,0,0)" /><polygon points="771,548 771,539 767,533 766,528 760,528 757,526 729,526 726,522 724,524 725,554 728,552 729,540 764,540 767,542 769,548 771,548" stroke="rgb(0,0,0)" /><polygon points="768,485 767,469 752,466 750,465 749,461 743,461 740,459 737,461 732,460 731,521 745,522 746,521 744,520 748,518 750,520 748,520 748,522 765,522 768,485" stroke="rgb(0,0,0)" /><polygon points="780,685 777,676 775,676 776,673 774,671 775,670 771,661 724,661 725,665 729,664 731,666 740,665 770,667 771,671 769,673 738,672 737,673 739,674 740,683 743,686 780,685" stroke="rgb(0,0,0)" /><polygon points="743,591 741,587 728,586 728,581 724,581 725,589 732,589 734,592 743,591" stroke="rgb(0,0,0)" /><polygon points="746,307 746,304 741,299 737,299 735,302 729,301 725,305 725,330 733,331 735,329 732,326 734,325 732,323 733,322 731,320 728,320 727,318 729,316 742,316 743,315 740,312 740,310 746,307" stroke="rgb(0,0,0)" /><polygon points="738,209 736,204 724,204 725,211 734,211 738,209" stroke="rgb(0,0,0)" /><polygon points="730,426 729,423 728,426 730,426" stroke="rgb(0,0,0)" /><polygon points="695,596 694,586 669,586 672,587 669,589 670,597 695,596" stroke="rgb(0,0,0)" /><polygon points="686,514 685,510 683,512 685,515 686,514" stroke="rgb(0,0,0)" /><polygon points="695,479 693,475 693,473 695,472 694,467 679,467 678,472 677,467 668,468 670,478 675,479 677,476 678,479 695,479" stroke="rgb(0,0,0)" /><polygon points="688,360 686,358 683,360 685,362 688,360" stroke="rgb(0,0,0)" /><polygon points="694,323 693,312 692,319 691,314 689,312 668,313 669,324 694,323" stroke="rgb(0,0,0)" /><polygon points="695,636 694,626 682,626 681,628 679,625 674,626 677,638 692,638 695,636" stroke="rgb(0,0,0)" /><polygon points="695,556 695,549 693,546 670,545 668,547 668,555 670,557 693,558 695,556" stroke="rgb(0,0,0)" /><polygon points="706,244 704,242 699,244 694,242 692,243 694,240 693,237 677,237 676,240 674,237 667,238 667,245 669,247 667,248 670,251 673,249 684,249 683,252 685,253 688,251 689,248 696,250 697,248 701,248 701,250 698,250 697,252 702,253 704,251 703,245 706,244" stroke="rgb(0,0,0)" /><polygon points="693,210 692,199 666,200 672,204 674,211 689,211 690,209 688,207 691,207 691,211 693,210" stroke="rgb(0,0,0)" /><polygon points="693,172 691,162 675,162 674,169 672,171 667,167 667,165 669,167 671,165 672,169 673,163 665,163 666,174 679,174 681,172 680,170 682,173 693,172" stroke="rgb(0,0,0)" /><polygon points="697,281 695,280 695,277 693,275 685,275 685,277 683,274 667,276 667,281 670,284 668,286 669,287 674,287 678,285 679,287 687,286 689,288 693,287 694,283 697,281" stroke="rgb(0,0,0)" /><polygon points="710,719 710,712 708,710 710,702 710,461 667,461 652,459 652,377 650,360 626,384 642,386 642,406 609,407 606,404 586,424 586,445 552,445 551,426 552,424 558,423 549,415 531,433 531,445 518,445 501,462 531,463 531,484 499,484 497,482 496,467 463,500 476,501 478,503 478,522 445,523 443,520 424,539 425,561 401,562 373,590 373,601 361,602 345,618 347,620 372,619 374,621 374,641 343,642 340,640 341,635 339,624 328,635 330,637 325,638 330,640 323,640 317,646 462,648 546,647 548,648 549,692 554,692 555,689 653,689 700,690 701,692 699,713 555,711 555,694 549,693 548,717 550,719 710,719" stroke="rgb(0,0,0)" /><polygon points="692,430 691,428 688,428 689,425 684,417 682,418 683,424 681,422 680,425 677,426 679,424 679,420 676,413 666,418 666,433 668,435 688,435 692,430" stroke="rgb(0,0,0)" /><polygon points="665,676 664,665 643,666 646,672 644,676 645,677 665,676" stroke="rgb(0,0,0)" /><polygon points="638,595 636,592 638,589 637,585 617,585 615,588 614,585 613,586 614,596 615,590 616,595 618,597 629,597 629,589 631,596 632,594 633,597 634,594 635,596 638,595" stroke="rgb(0,0,0)" /><polygon points="635,636 630,625 613,625 614,628 618,627 621,629 622,637 635,636" stroke="rgb(0,0,0)" /><polygon points="638,556 636,552 627,553 625,551 624,546 622,546 624,555 626,557 638,556" stroke="rgb(0,0,0)" /><polygon points="627,510 623,508 621,509 622,512 627,510" stroke="rgb(0,0,0)" /><polygon points="637,400 636,389 621,389 618,393 615,394 615,396 616,390 611,390 612,401 622,401 622,391 624,392 621,393 624,401 626,399 627,401 637,400" stroke="rgb(0,0,0)" /><polygon points="636,282 635,275 630,275 629,277 627,275 610,276 611,287 634,287 636,282" stroke="rgb(0,0,0)" /><polygon points="637,476 632,467 628,467 627,470 622,474 619,474 622,473 624,471 623,470 625,470 625,468 628,467 627,466 619,466 616,472 616,467 611,468 611,476 613,478 635,478 637,476" stroke="rgb(0,0,0)" /><polygon points="626,429 613,428 611,430 611,438 623,439 624,432 626,429" stroke="rgb(0,0,0)" /><polygon points="636,361 635,351 610,352 611,362 636,361" stroke="rgb(0,0,0)" /><polygon points="636,246 634,244 634,237 624,237 623,240 622,237 621,242 620,237 609,238 609,244 611,249 634,249 636,246" stroke="rgb(0,0,0)" /><polygon points="635,210 635,207 632,207 629,201 633,205 633,199 627,199 624,201 618,200 617,203 616,200 608,201 609,211 628,211 629,208 631,212 633,209 634,211 635,210" stroke="rgb(0,0,0)" /><polygon points="628,702 627,695 622,693 614,694 615,704 626,704 628,702" stroke="rgb(0,0,0)" /><polygon points="636,323 635,314 633,312 631,312 628,315 632,320 631,322 628,322 626,320 624,313 612,312 610,314 609,318 611,325 633,324 634,322 635,324 636,323" stroke="rgb(0,0,0)" /><polygon points="634,173 634,164 631,162 607,163 607,172 609,174 620,174 621,172 629,174 632,171 632,173 634,173" stroke="rgb(0,0,0)" /><polygon points="602,110 601,100 578,101 580,111 602,110" stroke="rgb(0,0,0)" /><polygon points="710,719 710,712 708,710 710,702 710,497 702,489 691,500 693,502 698,501 701,503 701,522 699,524 665,523 664,503 666,501 658,493 656,493 657,492 644,479 642,484 608,484 607,464 627,462 610,445 608,445 607,442 590,425 586,429 586,445 551,444 552,424 581,423 565,407 551,406 550,392 518,423 531,424 531,445 497,444 489,453 488,452 477,463 476,484 456,484 425,515 425,521 423,523 417,523 401,539 424,540 424,562 392,562 390,550 361,579 373,581 373,601 339,601 321,619 321,638 330,640 322,640 318,642 298,642 294,646 462,648 546,647 548,648 549,692 554,692 555,689 653,689 700,690 701,692 699,713 555,711 555,694 552,693 548,697 548,717 550,719 710,719" stroke="rgb(0,0,0)" /><polygon points="572,631 571,629 570,631 572,631" stroke="rgb(0,0,0)" /><polygon points="583,595 582,584 574,584 571,586 571,588 570,585 557,585 559,596 580,597 583,595" stroke="rgb(0,0,0)" /><polygon points="582,551 581,549 580,550 578,545 557,546 558,556 580,557 580,553 582,551" stroke="rgb(0,0,0)" /><polygon points="582,517 581,515 574,513 574,509 572,506 563,506 565,518 582,517" stroke="rgb(0,0,0)" /><polygon points="581,438 580,428 556,429 556,439 581,438" stroke="rgb(0,0,0)" /><polygon points="581,477 580,466 556,467 557,478 581,477" stroke="rgb(0,0,0)" /><polygon points="581,395 579,389 555,390 556,400 569,400 571,398 579,400 581,395" stroke="rgb(0,0,0)" /><polygon points="580,362 579,351 568,351 567,356 566,351 554,352 555,363 580,362" stroke="rgb(0,0,0)" /><polygon points="579,323 578,313 572,312 554,314 555,325 571,325 579,323" stroke="rgb(0,0,0)" /><polygon points="575,283 573,281 573,275 571,276 571,278 570,275 567,275 566,278 565,275 563,276 569,284 575,283" stroke="rgb(0,0,0)" /><polygon points="578,247 577,238 566,237 565,239 568,240 567,241 563,238 553,238 553,241 556,243 556,245 553,246 554,249 565,249 569,247 572,249 572,240 576,240 573,243 573,247 578,247" stroke="rgb(0,0,0)" /><polygon points="578,206 576,200 552,201 553,212 569,212 570,210 571,212 576,212 578,206" stroke="rgb(0,0,0)" /><polygon points="577,173 576,163 551,164 551,171 553,174 577,173" stroke="rgb(0,0,0)" /><polygon points="576,136 574,126 555,127 555,130 558,132 559,137 561,137 564,133 566,137 576,136" stroke="rgb(0,0,0)" /><polygon points="575,110 573,100 549,101 551,112 565,112 575,110" stroke="rgb(0,0,0)" /><polygon points="530,702 530,697 528,694 505,695 506,706 507,700 509,699 511,700 512,707 526,707 527,704 528,705 530,702" stroke="rgb(0,0,0)" /><polygon points="529,635 528,624 504,625 505,636 529,635" stroke="rgb(0,0,0)" /><polygon points="528,595 526,593 528,590 527,584 503,585 503,594 505,596 528,595" stroke="rgb(0,0,0)" /><polygon points="527,516 526,506 504,505 502,507 503,517 527,516" stroke="rgb(0,0,0)" /><polygon points="528,555 527,545 502,546 504,556 528,555" stroke="rgb(0,0,0)" /><polygon points="527,477 525,466 503,466 501,468 501,476 503,478 527,477" stroke="rgb(0,0,0)" /><polygon points="526,438 524,428 501,429 502,439 526,438" stroke="rgb(0,0,0)" /><polygon points="525,400 524,389 500,390 500,397 502,401 525,400" stroke="rgb(0,0,0)" /><polygon points="525,362 523,351 499,352 500,363 525,362" stroke="rgb(0,0,0)" /><polygon points="524,323 524,315 522,313 514,313 512,317 511,313 499,314 500,325 521,325 524,323" stroke="rgb(0,0,0)" /><polygon points="515,285 511,276 499,276 498,282 500,287 506,285 515,285" stroke="rgb(0,0,0)" /><polygon points="523,239 511,237 506,238 509,239 508,243 510,249 521,249 523,239" stroke="rgb(0,0,0)" /><polygon points="516,211 515,202 513,200 507,201 506,210 508,212 516,211" stroke="rgb(0,0,0)" /><polygon points="515,174 515,171 511,164 508,165 510,167 507,164 505,164 504,166 496,167 497,175 515,174" stroke="rgb(0,0,0)" /><polygon points="530,687 530,675 528,673 506,674 506,689 513,687 530,687" stroke="rgb(0,0,0)" /><polygon points="501,115 499,115 501,115" stroke="rgb(0,0,0)" /><polygon points="501,706 500,694 488,694 481,698 479,701 480,707 481,705 482,707 484,704 486,707 501,706" stroke="rgb(0,0,0)" /><polygon points="479,133 476,131 470,133 479,133" stroke="rgb(0,0,0)" /><polygon points="475,634 474,624 450,625 451,636 471,636 475,634" stroke="rgb(0,0,0)" /><polygon points="474,594 473,584 449,585 450,596 470,596 474,594" stroke="rgb(0,0,0)" /><polygon points="473,555 472,545 454,544 449,546 450,557 473,555" stroke="rgb(0,0,0)" /><polygon points="467,687 454,687 467,687" stroke="rgb(0,0,0)" /><polygon points="473,516 472,506 448,507 449,517 473,516" stroke="rgb(0,0,0)" /><polygon points="472,477 471,466 448,467 447,475 449,478 472,477" stroke="rgb(0,0,0)" /><polygon points="472,438 471,428 447,429 448,439 472,438" stroke="rgb(0,0,0)" /><polygon points="471,399 470,389 446,390 446,396 448,401 467,401 471,399" stroke="rgb(0,0,0)" /><polygon points="470,362 469,351 446,352 447,363 470,362" stroke="rgb(0,0,0)" /><polygon points="470,314 446,313 445,324 468,325 470,314" stroke="rgb(0,0,0)" /><polygon points="469,283 469,279 465,275 444,276 444,281 450,286 464,285 469,283" stroke="rgb(0,0,0)" /><polygon points="469,247 467,238 443,239 443,245 445,250 469,247" stroke="rgb(0,0,0)" /><polygon points="468,211 467,201 443,202 444,212 468,211" stroke="rgb(0,0,0)" /><polygon points="467,165 444,164 442,169 448,171 459,170 461,166 467,165" stroke="rgb(0,0,0)" /><polygon points="448,667 447,653 425,654 426,668 444,668 445,662 445,667 448,667" stroke="rgb(0,0,0)" /><polygon points="430,116 428,116 430,116" stroke="rgb(0,0,0)" /><polygon points="421,634 420,624 397,625 398,635 421,634" stroke="rgb(0,0,0)" /><polygon points="421,594 419,584 396,585 397,596 399,593 399,595 401,595 404,586 402,592 403,595 421,594" stroke="rgb(0,0,0)" /><polygon points="420,555 419,544 412,544 411,547 410,545 402,544 401,548 399,547 395,549 395,552 397,553 397,555 395,556 396,557 415,557 420,555" stroke="rgb(0,0,0)" /><polygon points="419,477 419,468 417,468 416,466 402,466 401,468 399,466 395,467 394,474 396,478 419,477" stroke="rgb(0,0,0)" /><polygon points="420,516 418,505 395,506 396,517 420,516" stroke="rgb(0,0,0)" /><polygon points="419,437 418,428 403,428 399,431 399,428 394,429 395,439 402,439 403,434 405,440 407,438 417,439 419,437" stroke="rgb(0,0,0)" /><polygon points="418,400 417,389 395,390 397,401 418,400" stroke="rgb(0,0,0)" /><polygon points="422,699 419,693 405,693 403,705 417,706 419,699 422,699" stroke="rgb(0,0,0)" /><polygon points="417,362 416,351 401,352 404,353 405,363 417,362" stroke="rgb(0,0,0)" /><polygon points="416,281 415,276 402,276 399,286 400,287 401,285 402,287 411,287 413,282 416,281" stroke="rgb(0,0,0)" /><polygon points="404,318 402,318 404,318" stroke="rgb(0,0,0)" /><polygon points="409,244 408,242 406,244 402,243 398,249 407,250 409,244" stroke="rgb(0,0,0)" /><polygon points="402,211 402,202 398,201 396,203 395,208 394,206 392,208 392,211 402,211" stroke="rgb(0,0,0)" /><polygon points="400,169 398,168 397,170 398,171 400,169" stroke="rgb(0,0,0)" /><polygon points="394,682 393,673 373,673 374,685 394,682" stroke="rgb(0,0,0)" /><polygon points="358,629 356,629 358,629" stroke="rgb(0,0,0)" /><polygon points="360,590 355,584 353,586 354,590 350,591 356,593 360,590" stroke="rgb(0,0,0)" /><polygon points="359,550 354,547 355,546 353,544 350,545 352,549 356,551 359,550" stroke="rgb(0,0,0)" /><polygon points="367,516 366,505 349,506 349,510 352,517 367,516" stroke="rgb(0,0,0)" /><polygon points="366,477 365,471 356,472 355,466 352,470 351,466 348,467 349,473 350,474 352,472 352,478 366,477" stroke="rgb(0,0,0)" /><polygon points="355,438 355,429 350,428 347,434 348,437 346,438 355,438" stroke="rgb(0,0,0)" /><polygon points="356,403 350,400 352,397 351,389 343,389 342,403 356,403" stroke="rgb(0,0,0)" /><polygon points="364,288 363,275 346,275 348,281 348,289 364,288" stroke="rgb(0,0,0)" /><polygon points="351,243 349,243 351,243" stroke="rgb(0,0,0)" /><polygon points="350,356 348,356 350,356" stroke="rgb(0,0,0)" /><polygon points="365,327 360,325 356,321 356,318 360,314 359,313 349,313 349,318 347,311 345,312 345,314 344,312 341,312 342,324 346,323 345,319 348,325 349,320 351,325 349,326 350,327 365,327" stroke="rgb(0,0,0)" /><polygon points="350,206 349,201 346,208 347,202 341,201 340,205 344,208 343,209 341,207 340,212 342,213 344,211 345,213 347,210 348,212 348,208 350,206" stroke="rgb(0,0,0)" /><polygon points="353,166 352,164 341,164 341,175 343,175 343,171 345,176 349,176 352,172 353,166" stroke="rgb(0,0,0)" /><polygon points="318,700 316,700 318,700" stroke="rgb(0,0,0)" /><polygon points="305,630 303,630 305,630" stroke="rgb(0,0,0)" /><polygon points="308,587 305,584 300,584 297,590 297,594 303,595 305,589 308,587" stroke="rgb(0,0,0)" /><polygon points="303,549 301,549 303,549" stroke="rgb(0,0,0)" /><polygon points="313,515 311,514 312,510 309,505 307,506 305,511 302,511 301,507 298,514 301,516 313,515" stroke="rgb(0,0,0)" /><polygon points="318,477 317,466 312,470 308,470 307,466 309,466 309,464 292,465 293,477 304,477 307,475 309,476 313,473 315,474 316,471 316,477 318,477" stroke="rgb(0,0,0)" /><polygon points="307,393 306,387 292,387 291,399 301,400 307,393" stroke="rgb(0,0,0)" /><polygon points="303,361 299,351 294,351 293,355 292,351 290,352 292,362 293,358 294,362 303,361" stroke="rgb(0,0,0)" /><polygon points="304,323 301,320 301,313 290,314 290,317 296,322 296,324 304,323" stroke="rgb(0,0,0)" /><polygon points="312,175 311,165 300,164 297,166 300,168 301,167 304,170 305,176 312,175" stroke="rgb(0,0,0)" /><polygon points="309,435 307,426 294,425 294,427 291,427 292,439 307,439 309,435" stroke="rgb(0,0,0)" /><polygon points="305,282 304,276 293,276 291,280 291,286 299,287 300,284 301,287 302,283 303,285 305,282" stroke="rgb(0,0,0)" /><polygon points="313,245 311,238 309,238 308,241 306,238 289,240 290,242 292,241 289,244 292,246 294,250 308,250 313,245" stroke="rgb(0,0,0)" /><polygon points="305,208 302,201 298,201 296,203 298,207 297,210 294,210 293,212 303,213 305,208" stroke="rgb(0,0,0)" /><polygon points="398,92 324,92 324,94 321,94 321,96 317,99 321,102 321,106 324,111 321,113 323,111 322,108 317,111 317,114 312,114 313,118 315,116 319,117 319,124 315,129 305,125 307,121 306,123 308,125 312,125 312,117 307,117 305,111 305,109 308,107 312,100 313,105 315,102 312,94 311,98 311,95 307,94 300,99 296,100 295,107 294,102 288,101 286,103 285,114 287,114 288,106 292,117 288,117 289,123 287,119 285,120 286,125 284,127 282,126 283,123 281,121 276,119 274,120 275,117 279,116 275,115 275,106 280,101 277,98 271,97 268,94 263,100 260,100 261,101 259,104 254,107 252,115 250,117 251,124 245,131 245,133 247,134 246,140 248,146 245,144 244,146 248,151 245,152 244,155 241,154 237,158 238,169 244,170 246,168 243,162 245,157 248,155 246,158 246,160 248,161 252,153 258,152 255,150 254,147 254,136 257,135 253,133 254,119 256,118 257,124 255,132 260,132 260,126 260,135 264,136 264,146 263,149 263,139 261,138 261,151 259,152 264,155 263,170 262,155 261,169 257,170 255,166 254,169 252,164 248,164 247,170 262,172 262,175 265,175 268,178 268,180 265,176 264,177 264,183 262,179 261,181 259,181 259,185 263,188 264,185 265,188 268,188 270,186 270,181 270,187 274,187 274,159 271,158 270,162 270,157 272,154 268,154 268,152 266,152 276,150 273,147 273,144 280,152 283,152 286,150 286,145 288,145 290,141 294,139 292,143 287,147 288,152 317,152 320,147 319,150 323,151 324,149 322,145 334,133 333,137 328,140 324,145 325,151 361,152 365,150 366,151 367,149 369,151 376,151 377,150 373,142 371,149 370,135 372,135 371,136 373,140 375,135 382,134 376,133 375,131 371,133 375,128 374,125 370,128 376,121 380,121 382,123 384,117 376,116 375,118 375,116 371,114 378,109 379,112 381,113 381,107 382,111 385,113 385,117 388,117 390,115 388,103 391,98 398,92" stroke="rgb(0,0,0)" /><polygon points="259,353 257,353 259,353" stroke="rgb(0,0,0)" /><polygon points="262,429 261,427 253,427 241,428 240,430 242,432 256,432 262,429" stroke="rgb(0,0,0)" /><polygon points="264,325 263,313 261,314 261,316 260,312 250,312 248,326 240,327 262,328 264,325" stroke="rgb(0,0,0)" /><polygon points="253,589 252,583 243,583 243,590 245,593 251,593 253,589" stroke="rgb(0,0,0)" /><polygon points="256,514 254,511 254,507 252,505 241,506 242,515 256,514" stroke="rgb(0,0,0)" /><polygon points="266,553 265,542 256,542 256,544 251,544 250,542 241,543 246,544 243,546 243,548 242,545 241,546 242,554 247,553 248,546 250,554 266,553" stroke="rgb(0,0,0)" /><polygon points="252,277 247,276 241,285 239,283 237,284 237,287 245,287 252,277" stroke="rgb(0,0,0)" /><polygon points="249,473 249,471 247,470 247,477 249,473" stroke="rgb(0,0,0)" /><polygon points="262,249 261,239 249,238 242,240 245,250 262,249" stroke="rgb(0,0,0)" /><polygon points="237,351 236,349 220,350 221,353 234,353 237,351" stroke="rgb(0,0,0)" /><polygon points="237,700 236,693 216,693 216,698 221,698 221,706 232,706 234,701 237,700" stroke="rgb(0,0,0)" /><polygon points="237,132 236,118 187,119 187,130 189,133 209,133 211,130 211,134 208,134 208,136 218,136 218,134 213,134 213,125 213,131 215,133 234,133 235,128 235,132 237,132" stroke="rgb(0,0,0)" /><polygon points="211,406 211,399 205,397 205,385 188,386 189,407 205,407 209,404 208,406 211,406" stroke="rgb(0,0,0)" /><polygon points="214,556 214,553 211,550 211,547 212,550 213,549 213,541 195,542 201,543 201,547 198,551 200,545 195,545 195,554 201,554 203,548 202,549 205,554 212,554 212,556 214,556" stroke="rgb(0,0,0)" /><polygon points="214,473 213,469 212,472 211,471 211,468 214,465 213,464 209,464 208,466 189,466 190,477 207,477 208,473 210,475 214,473" stroke="rgb(0,0,0)" /><polygon points="212,206 210,202 190,202 189,214 210,215 212,206" stroke="rgb(0,0,0)" /><polygon points="202,321 201,319 200,321 202,321" stroke="rgb(0,0,0)" /><polygon points="202,287 202,280 199,276 200,275 190,274 189,286 194,288 202,287" stroke="rgb(0,0,0)" /><polygon points="213,593 212,583 202,583 196,586 198,589 204,589 206,593 213,593" stroke="rgb(0,0,0)" /><polygon points="203,505 190,504 189,505 191,506 191,509 189,509 189,514 191,516 199,516 203,505" stroke="rgb(0,0,0)" /><polygon points="202,250 201,239 189,240 190,251 197,252 202,250" stroke="rgb(0,0,0)" /><polygon points="187,168 186,154 164,155 164,169 183,170 185,166 186,169 187,168" stroke="rgb(0,0,0)" /><polygon points="185,700 184,692 167,692 163,705 179,706 181,701 185,700" stroke="rgb(0,0,0)" /><polygon points="187,114 186,102 185,104 184,102 164,103 165,115 187,114" stroke="rgb(0,0,0)" /></svg>