<?xml version="1.0" encoding="utf-8" ?>
<svg baseProfile="full" height="100%" version="1.1" width="100%" xmlns="http://www.w3.org/2000/svg" xmlns:ev="http://www.w3.org/2001/xml-events" xmlns:xlink="http://www.w3.org/1999/xlink"><defs /><polygon points="779,707 776,702 744,703 747,707 779,707" stroke="rgb(0,0,0)" /><polygon points="771,593 769,593 771,593" stroke="rgb(0,0,0)" /><polygon points="770,368 768,368 770,368" stroke="rgb(0,0,0)" /><polygon points="779,418 762,418 766,420 779,418" stroke="rgb(0,0,0)" /><polygon points="763,627 761,627 763,627" stroke="rgb(0,0,0)" /><polygon points="753,536 751,534 732,535 733,537 750,538 753,536" stroke="rgb(0,0,0)" /><polygon points="767,506 767,496 765,495 767,486 764,486 766,480 766,476 764,475 765,470 761,468 759,470 760,483 758,503 758,491 756,490 756,488 758,488 759,482 759,468 751,466 749,464 749,461 732,461 731,502 733,506 738,507 731,508 741,509 732,510 731,518 733,520 749,518 763,521 766,519 762,517 756,517 757,515 755,511 750,511 748,514 748,511 746,510 745,515 745,500 747,506 767,506" stroke="rgb(0,0,0)" /><polygon points="745,674 743,674 745,674" stroke="rgb(0,0,0)" /><polygon points="735,591 733,591 735,591" stroke="rgb(0,0,0)" /><polygon points="745,306 743,302 739,304 740,302 737,300 735,302 729,302 726,305 728,306 732,304 730,306 732,307 725,311 726,316 741,316 742,315 740,313 740,310 745,306" stroke="rgb(0,0,0)" /><polygon points="738,209 736,204 725,205 726,211 738,209" stroke="rgb(0,0,0)" /><polygon points="730,426 729,423 728,426 730,426" stroke="rgb(0,0,0)" /><polygon points="695,587 678,586 676,588 670,588 669,589 671,591 675,590 670,595 693,597 694,591 692,589 695,587" stroke="rgb(0,0,0)" /><polygon points="686,513 685,511 683,512 685,514 686,513" stroke="rgb(0,0,0)" /><polygon points="688,475 688,468 682,467 681,477 685,479 688,475" stroke="rgb(0,0,0)" /><polygon points="687,360 683,360 685,362 687,360" stroke="rgb(0,0,0)" /><polygon points="694,323 693,313 692,321 690,317 689,319 688,318 686,313 680,314 684,324 694,323" stroke="rgb(0,0,0)" /><polygon points="695,636 694,626 682,627 682,633 684,637 695,636" stroke="rgb(0,0,0)" /><polygon points="694,556 691,546 681,546 677,550 675,546 669,547 670,556 673,555 671,550 674,557 689,557 691,553 691,556 694,556" stroke="rgb(0,0,0)" /><polygon points="683,244 681,244 683,244" stroke="rgb(0,0,0)" /><polygon points="689,203 688,199 685,200 686,202 684,202 682,199 679,200 681,205 687,205 689,203" stroke="rgb(0,0,0)" /><polygon points="692,172 692,168 688,168 682,162 677,162 675,165 675,169 672,172 679,173 680,171 677,170 677,168 679,168 683,173 692,172" stroke="rgb(0,0,0)" /><polygon points="684,285 680,281 680,276 677,275 676,280 678,283 683,286 684,285" stroke="rgb(0,0,0)" /><polygon points="709,688 708,682 702,682 699,685 613,683 557,684 554,681 555,660 596,660 597,658 594,656 587,657 586,653 548,654 548,687 549,688 550,686 551,689 576,689 578,686 579,689 642,688 656,690 705,690 709,688" stroke="rgb(0,0,0)" /><polygon points="679,427 677,427 679,427" stroke="rgb(0,0,0)" /><polygon points="665,675 664,666 650,665 645,667 646,676 663,677 665,675" stroke="rgb(0,0,0)" /><polygon points="627,595 626,589 624,591 625,595 627,595" stroke="rgb(0,0,0)" /><polygon points="630,636 628,635 629,629 627,625 615,625 621,628 623,637 630,636" stroke="rgb(0,0,0)" /><polygon points="625,550 624,548 623,550 625,550" stroke="rgb(0,0,0)" /><polygon points="625,511 623,511 625,511" stroke="rgb(0,0,0)" /><polygon points="625,394 623,393 622,395 623,396 625,394" stroke="rgb(0,0,0)" /><polygon points="635,285 629,280 626,275 625,279 623,275 622,277 621,275 619,275 618,280 618,278 615,276 613,276 610,280 611,286 635,285" stroke="rgb(0,0,0)" /><polygon points="624,471 622,471 624,471" stroke="rgb(0,0,0)" /><polygon points="626,429 617,428 614,432 611,433 612,438 623,439 623,431 626,429" stroke="rgb(0,0,0)" /><polygon points="636,361 634,351 611,352 612,362 636,361" stroke="rgb(0,0,0)" /><polygon points="624,243 622,237 621,243 624,243" stroke="rgb(0,0,0)" /><polygon points="627,207 622,200 620,203 618,203 617,206 617,202 615,200 608,201 610,211 615,211 617,208 619,211 620,209 621,211 622,209 625,210 625,207 627,207" stroke="rgb(0,0,0)" /><polygon points="627,701 626,696 614,699 615,704 621,704 627,701" stroke="rgb(0,0,0)" /><polygon points="628,322 626,321 623,313 618,314 619,319 621,321 618,320 616,314 610,314 611,324 626,324 628,322" stroke="rgb(0,0,0)" /><polygon points="625,172 622,163 614,164 616,173 619,170 623,173 625,172" stroke="rgb(0,0,0)" /><polygon points="602,110 601,100 579,101 580,111 602,110" stroke="rgb(0,0,0)" /><polygon points="709,688 708,682 702,682 699,685 613,683 557,684 554,681 555,660 596,660 597,658 594,656 587,657 586,653 548,654 548,687 549,688 550,686 551,689 576,689 578,686 579,689 642,688 656,690 705,690 709,688" stroke="rgb(0,0,0)" /><polygon points="572,630 570,630 572,630" stroke="rgb(0,0,0)" /><polygon points="583,595 579,592 579,590 583,588 582,585 575,586 575,593 575,586 571,586 570,590 572,596 583,595" stroke="rgb(0,0,0)" /><polygon points="580,556 579,546 570,545 569,552 570,553 571,549 573,549 572,556 580,556" stroke="rgb(0,0,0)" /><polygon points="577,515 574,514 572,506 565,507 567,517 568,512 569,517 574,517 577,515" stroke="rgb(0,0,0)" /><polygon points="581,438 580,428 556,429 557,439 581,438" stroke="rgb(0,0,0)" /><polygon points="581,477 580,467 556,468 557,478 581,477" stroke="rgb(0,0,0)" /><polygon points="580,399 579,389 555,390 556,400 569,400 570,398 574,398 577,400 580,399" stroke="rgb(0,0,0)" /><polygon points="580,362 574,360 580,358 579,351 569,351 567,359 566,351 565,360 563,351 554,352 556,362 580,362" stroke="rgb(0,0,0)" /><polygon points="579,323 578,313 575,314 575,317 569,316 568,313 554,314 555,321 563,321 568,324 579,323" stroke="rgb(0,0,0)" /><polygon points="567,279 565,277 564,278 565,280 567,279" stroke="rgb(0,0,0)" /><polygon points="572,246 570,242 567,244 569,242 565,241 563,238 555,238 553,240 554,242 556,240 556,245 553,247 554,249 565,249 565,247 572,246" stroke="rgb(0,0,0)" /><polygon points="577,207 576,200 552,201 552,210 554,212 567,211 568,206 568,208 571,210 572,209 570,205 574,208 577,207" stroke="rgb(0,0,0)" /><polygon points="577,172 577,165 575,163 551,164 553,174 575,174 577,172" stroke="rgb(0,0,0)" /><polygon points="563,129 557,129 563,129" stroke="rgb(0,0,0)" /><polygon points="575,110 573,103 572,105 568,104 568,102 572,101 571,100 552,100 550,102 551,111 554,111 555,109 556,111 575,110" stroke="rgb(0,0,0)" /><polygon points="529,695 507,694 506,698 511,699 513,707 524,707 527,704 527,696 529,695" stroke="rgb(0,0,0)" /><polygon points="529,634 528,625 505,626 506,635 529,634" stroke="rgb(0,0,0)" /><polygon points="528,589 527,585 511,585 510,588 509,585 508,587 505,585 504,594 525,595 528,589" stroke="rgb(0,0,0)" /><polygon points="527,516 525,506 502,507 503,517 527,516" stroke="rgb(0,0,0)" /><polygon points="527,555 526,545 503,546 504,556 527,555" stroke="rgb(0,0,0)" /><polygon points="526,477 525,467 502,468 503,478 526,477" stroke="rgb(0,0,0)" /><polygon points="526,438 524,437 524,428 501,429 502,439 526,438" stroke="rgb(0,0,0)" /><polygon points="513,399 512,389 501,390 502,400 513,399" stroke="rgb(0,0,0)" /><polygon points="524,362 523,351 500,352 501,363 524,362" stroke="rgb(0,0,0)" /><polygon points="512,323 511,313 499,314 500,324 512,323" stroke="rgb(0,0,0)" /><polygon points="514,284 512,280 511,281 512,279 510,276 499,277 502,280 499,281 500,283 508,285 514,284" stroke="rgb(0,0,0)" /><polygon points="515,248 513,244 513,239 511,238 509,246 511,249 515,248" stroke="rgb(0,0,0)" /><polygon points="511,208 510,202 507,201 507,211 509,212 511,208" stroke="rgb(0,0,0)" /><polygon points="514,173 513,168 507,167 506,164 504,167 496,167 496,171 498,171 500,175 511,175 514,173" stroke="rgb(0,0,0)" /><polygon points="529,686 528,674 508,673 506,675 507,688 514,686 529,686" stroke="rgb(0,0,0)" /><polygon points="501,115 499,115 501,115" stroke="rgb(0,0,0)" /><polygon points="501,705 500,695 487,695 480,700 482,703 484,702 486,706 501,705" stroke="rgb(0,0,0)" /><polygon points="477,132 475,132 477,132" stroke="rgb(0,0,0)" /><polygon points="474,634 473,624 450,625 451,635 465,635 466,628 468,636 470,634 470,631 472,635 474,634" stroke="rgb(0,0,0)" /><polygon points="474,594 473,584 470,585 471,589 469,584 460,585 458,589 457,586 456,587 451,584 449,586 451,595 474,594" stroke="rgb(0,0,0)" /><polygon points="463,547 462,545 450,545 449,553 461,556 463,547" stroke="rgb(0,0,0)" /><polygon points="461,687 459,687 461,687" stroke="rgb(0,0,0)" /><polygon points="473,515 471,506 448,507 449,515 453,517 471,517 473,515" stroke="rgb(0,0,0)" /><polygon points="472,477 471,467 448,468 449,478 460,478 461,472 464,473 465,478 472,477" stroke="rgb(0,0,0)" /><polygon points="472,435 470,428 447,429 448,439 470,439 472,435" stroke="rgb(0,0,0)" /><polygon points="471,399 470,389 447,390 447,394 451,396 450,398 447,399 448,400 471,399" stroke="rgb(0,0,0)" /><polygon points="470,360 469,351 446,352 447,362 449,359 454,358 458,360 459,359 459,362 463,361 464,363 467,363 470,360" stroke="rgb(0,0,0)" /><polygon points="469,323 468,313 466,313 465,316 464,313 463,315 461,315 461,313 450,313 448,317 445,318 446,324 469,323" stroke="rgb(0,0,0)" /><polygon points="469,283 469,279 465,276 457,276 457,279 455,276 445,277 445,282 449,285 469,283" stroke="rgb(0,0,0)" /><polygon points="468,246 467,238 443,239 445,249 458,249 461,246 468,246" stroke="rgb(0,0,0)" /><polygon points="468,205 468,203 465,201 461,201 460,206 460,203 458,201 444,201 443,211 463,212 465,207 468,205" stroke="rgb(0,0,0)" /><polygon points="467,165 444,164 443,167 445,170 455,170 457,168 456,167 467,165" stroke="rgb(0,0,0)" /><polygon points="447,659 446,654 442,656 441,660 441,657 443,655 442,654 427,656 427,667 429,668 434,660 431,666 432,668 444,668 444,660 447,659" stroke="rgb(0,0,0)" /><polygon points="430,116 428,116 430,116" stroke="rgb(0,0,0)" /><polygon points="421,634 420,624 407,624 405,626 406,631 403,634 407,635 408,631 409,635 421,634" stroke="rgb(0,0,0)" /><polygon points="420,594 419,584 411,585 411,590 407,586 410,586 410,584 405,585 403,590 404,595 420,594" stroke="rgb(0,0,0)" /><polygon points="412,553 411,549 409,547 407,549 406,545 401,555 404,556 406,554 412,553" stroke="rgb(0,0,0)" /><polygon points="417,477 416,471 405,471 400,469 399,467 396,468 395,474 398,476 395,477 396,478 412,478 413,476 414,478 417,477" stroke="rgb(0,0,0)" /><polygon points="419,515 418,507 409,507 409,505 395,506 396,516 406,517 419,515" stroke="rgb(0,0,0)" /><polygon points="408,434 406,434 408,434" stroke="rgb(0,0,0)" /><polygon points="418,399 416,389 400,389 396,391 397,400 418,399" stroke="rgb(0,0,0)" /><polygon points="419,699 418,693 405,694 404,705 417,706 419,699" stroke="rgb(0,0,0)" /><polygon points="417,360 415,351 405,352 404,360 406,362 414,362 417,360" stroke="rgb(0,0,0)" /><polygon points="416,280 415,276 414,278 411,276 403,276 400,281 401,286 411,287 412,286 410,284 408,285 409,282 414,282 416,280" stroke="rgb(0,0,0)" /><polygon points="404,318 402,318 404,318" stroke="rgb(0,0,0)" /><polygon points="408,245 402,243 399,248 401,250 406,250 408,245" stroke="rgb(0,0,0)" /><polygon points="402,211 401,202 398,201 396,205 396,211 402,211" stroke="rgb(0,0,0)" /><polygon points="400,169 398,169 400,169" stroke="rgb(0,0,0)" /><polygon points="394,682 393,673 373,674 373,683 375,685 385,682 394,682" stroke="rgb(0,0,0)" /><polygon points="358,629 356,629 358,629" stroke="rgb(0,0,0)" /><polygon points="358,591 355,588 354,589 356,592 358,591" stroke="rgb(0,0,0)" /><polygon points="355,549 353,549 355,549" stroke="rgb(0,0,0)" /><polygon points="367,515 366,505 349,506 352,516 367,515" stroke="rgb(0,0,0)" /><polygon points="353,471 351,471 353,471" stroke="rgb(0,0,0)" /><polygon points="353,435 352,432 351,435 353,435" stroke="rgb(0,0,0)" /><polygon points="351,399 351,390 348,389 348,399 351,399" stroke="rgb(0,0,0)" /><polygon points="354,279 353,276 349,278 350,286 353,285 354,279" stroke="rgb(0,0,0)" /><polygon points="351,243 349,243 351,243" stroke="rgb(0,0,0)" /><polygon points="350,356 348,356 350,356" stroke="rgb(0,0,0)" /><polygon points="350,319 348,319 350,319" stroke="rgb(0,0,0)" /><polygon points="349,207 348,205 347,207 349,207" stroke="rgb(0,0,0)" /><polygon points="352,171 351,165 340,166 341,168 343,168 345,176 348,176 352,171" stroke="rgb(0,0,0)" /><polygon points="318,700 316,700 318,700" stroke="rgb(0,0,0)" /><polygon points="305,630 303,630 305,630" stroke="rgb(0,0,0)" /><polygon points="307,587 305,585 304,586 304,584 300,584 297,594 302,595 304,593 304,589 307,587" stroke="rgb(0,0,0)" /><polygon points="303,549 301,549 303,549" stroke="rgb(0,0,0)" /><polygon points="311,511 309,505 307,508 308,511 306,513 306,511 300,511 299,514 309,515 311,511" stroke="rgb(0,0,0)" /><polygon points="315,471 307,470 306,466 298,466 292,469 293,474 299,475 299,477 309,475 310,473 311,475 315,471" stroke="rgb(0,0,0)" /><polygon points="307,388 303,387 303,389 292,389 292,399 301,400 306,394 305,389 307,388" stroke="rgb(0,0,0)" /><polygon points="301,355 299,355 301,355" stroke="rgb(0,0,0)" /><polygon points="304,323 301,320 302,315 298,313 296,316 296,323 304,323" stroke="rgb(0,0,0)" /><polygon points="312,175 311,165 299,166 300,168 302,167 304,169 306,176 312,175" stroke="rgb(0,0,0)" /><polygon points="309,434 305,427 294,427 291,429 292,438 307,438 309,434" stroke="rgb(0,0,0)" /><polygon points="305,281 303,276 301,276 299,279 297,278 297,276 294,276 292,280 292,286 298,287 302,279 302,282 305,281" stroke="rgb(0,0,0)" /><polygon points="311,245 308,243 306,239 299,239 295,242 294,239 291,243 293,247 294,246 296,249 297,247 299,250 307,250 311,245" stroke="rgb(0,0,0)" /><polygon points="299,208 297,208 299,208" stroke="rgb(0,0,0)" /><polygon points="275,114 274,112 271,113 273,116 275,114" stroke="rgb(0,0,0)" /><polygon points="259,353 257,353 259,353" stroke="rgb(0,0,0)" /><polygon points="261,429 241,428 240,430 253,430 256,432 257,430 261,429" stroke="rgb(0,0,0)" /><polygon points="263,326 260,313 251,312 248,324 251,325 251,327 263,326" stroke="rgb(0,0,0)" /><polygon points="253,587 252,584 250,586 251,592 253,587" stroke="rgb(0,0,0)" /><polygon points="254,514 249,505 248,510 246,510 246,512 250,515 254,514" stroke="rgb(0,0,0)" /><polygon points="251,549 250,546 249,549 251,549" stroke="rgb(0,0,0)" /><polygon points="251,280 250,277 249,280 251,280" stroke="rgb(0,0,0)" /><polygon points="248,472 246,472 248,472" stroke="rgb(0,0,0)" /><polygon points="262,248 262,245 260,243 262,242 261,239 243,240 246,250 253,250 255,246 257,247 255,248 258,250 262,248" stroke="rgb(0,0,0)" /><polygon points="236,351 220,351 236,351" stroke="rgb(0,0,0)" /><polygon points="237,698 236,693 229,695 224,693 216,694 217,697 223,696 223,699 230,697 233,702 237,698" stroke="rgb(0,0,0)" /><polygon points="235,128 233,118 216,118 213,120 213,130 215,133 233,133 235,128" stroke="rgb(0,0,0)" /><polygon points="211,403 209,398 204,397 206,391 204,385 190,386 190,402 190,392 188,392 189,405 205,405 207,403 211,403" stroke="rgb(0,0,0)" /><polygon points="204,549 202,549 204,549" stroke="rgb(0,0,0)" /><polygon points="211,471 211,469 206,465 190,466 190,472 193,475 193,477 202,477 203,475 207,475 208,471 211,471" stroke="rgb(0,0,0)" /><polygon points="211,213 209,212 211,210 211,204 209,202 192,202 191,206 191,203 189,203 190,214 191,208 191,212 199,212 197,214 198,215 209,215 211,213" stroke="rgb(0,0,0)" /><polygon points="202,321 200,321 202,321" stroke="rgb(0,0,0)" /><polygon points="202,281 199,276 189,276 190,287 191,285 192,287 200,287 200,283 202,281" stroke="rgb(0,0,0)" /><polygon points="206,585 201,584 197,587 200,589 202,587 204,589 206,585" stroke="rgb(0,0,0)" /><polygon points="202,505 193,505 191,507 192,511 190,515 198,516 198,514 201,511 202,505" stroke="rgb(0,0,0)" /><polygon points="202,250 202,241 200,239 189,240 190,251 202,250" stroke="rgb(0,0,0)" /><polygon points="187,164 187,158 185,158 184,154 167,154 165,156 166,169 184,169 185,165 187,164" stroke="rgb(0,0,0)" /><polygon points="185,699 184,693 183,695 178,696 178,700 168,698 167,693 166,699 169,701 166,700 163,705 178,706 181,700 185,699" stroke="rgb(0,0,0)" /><polygon points="185,114 184,102 164,103 165,115 185,114" stroke="rgb(0,0,0)" /></svg>