<?xml version="1.0" encoding="utf-8" ?>
<svg baseProfile="full" height="100%" version="1.1" width="100%" xmlns="http://www.w3.org/2000/svg" xmlns:ev="http://www.w3.org/2001/xml-events" xmlns:xlink="http://www.w3.org/1999/xlink"><defs /><polygon points="176,638 175,632 164,632 163,648 170,649 176,638" stroke="rgb(0,0,0)" /><polygon points="175,171 173,171 175,171" stroke="rgb(0,0,0)" /><polygon points="187,114 186,112 185,113 184,102 164,103 165,115 187,114" stroke="rgb(0,0,0)" /><polygon points="185,699 184,692 178,692 176,694 174,694 174,692 170,692 170,698 168,698 168,694 166,694 166,699 169,701 166,700 164,704 177,706 180,704 182,699 185,699" stroke="rgb(0,0,0)" /><polygon points="185,406 185,386 165,385 163,388 163,406 185,406" stroke="rgb(0,0,0)" /><polygon points="203,252 202,238 190,237 189,253 199,254 203,252" stroke="rgb(0,0,0)" /><polygon points="214,290 209,288 203,289 201,285 202,280 200,278 200,274 189,276 189,287 191,291 214,290" stroke="rgb(0,0,0)" /><polygon points="234,472 232,470 225,469 221,471 216,468 215,464 210,464 208,466 190,465 189,476 193,477 189,479 196,481 210,480 210,478 208,478 209,474 212,474 212,468 212,474 214,474 214,466 215,477 219,474 228,474 232,477 234,472" stroke="rgb(0,0,0)" /><polygon points="214,558 213,541 194,542 200,543 201,545 198,551 200,545 195,545 194,553 205,554 201,556 190,555 189,556 191,558 214,558" stroke="rgb(0,0,0)" /><polygon points="213,214 212,201 211,203 210,200 196,200 189,202 190,215 210,215 211,206 211,214 213,214" stroke="rgb(0,0,0)" /><polygon points="200,319 198,319 200,319" stroke="rgb(0,0,0)" /><polygon points="203,506 202,504 191,504 189,509 189,518 200,519 200,513 203,506" stroke="rgb(0,0,0)" /><polygon points="213,593 212,583 199,583 196,586 198,589 205,589 206,593 213,593" stroke="rgb(0,0,0)" /><polygon points="278,612 277,609 202,608 200,610 200,616 198,620 200,610 198,608 188,608 188,610 196,610 196,613 193,615 192,621 192,628 194,629 179,630 178,640 174,646 178,648 186,648 187,634 187,645 191,647 188,649 188,668 211,669 213,665 211,652 212,651 202,650 212,648 212,621 213,646 216,647 216,649 222,650 215,651 215,662 215,660 213,660 214,669 215,667 216,669 222,669 222,667 238,667 239,669 240,667 248,667 248,669 263,669 263,650 264,647 266,649 267,648 265,641 264,645 263,614 264,612 265,628 266,612 278,612" stroke="rgb(0,0,0)" /><polygon points="237,699 236,693 229,695 219,692 216,693 217,697 223,696 223,699 226,697 231,697 233,702 237,699" stroke="rgb(0,0,0)" /><polygon points="247,317 246,313 245,316 244,314 242,314 242,321 240,317 238,322 237,318 236,320 235,312 215,312 213,320 215,324 218,324 214,326 235,327 235,325 229,324 245,325 247,317" stroke="rgb(0,0,0)" /><polygon points="255,103 239,102 237,104 237,114 249,115 255,103" stroke="rgb(0,0,0)" /><polygon points="262,177 260,173 239,173 238,187 252,188 257,185 258,178 262,177" stroke="rgb(0,0,0)" /><polygon points="262,249 261,239 253,239 250,241 248,239 243,240 245,250 253,250 255,246 256,250 262,249" stroke="rgb(0,0,0)" /><polygon points="266,553 265,542 237,542 238,548 239,549 241,547 240,550 242,554 247,554 248,548 250,554 264,555 266,553" stroke="rgb(0,0,0)" /><polygon points="266,593 265,582 252,581 231,581 231,583 222,583 221,586 216,590 217,593 266,593" stroke="rgb(0,0,0)" /><polygon points="263,200 256,199 252,200 251,204 250,201 244,203 245,207 246,205 247,211 248,207 249,210 251,210 252,206 252,215 250,216 251,217 260,215 260,204 258,201 263,200" stroke="rgb(0,0,0)" /><polygon points="265,464 258,463 257,466 255,466 255,464 249,464 247,466 245,475 247,477 257,477 257,475 259,474 259,470 261,468 260,465 265,464" stroke="rgb(0,0,0)" /><polygon points="262,417 249,415 239,417 262,417" stroke="rgb(0,0,0)" /><polygon points="252,277 247,276 241,284 240,282 237,284 237,287 245,287 245,284 247,282 247,285 251,281 252,277" stroke="rgb(0,0,0)" /><polygon points="266,515 266,508 263,506 257,507 257,504 253,504 253,502 215,503 217,504 217,515 228,515 228,513 233,511 233,507 237,505 240,509 241,506 242,508 242,510 238,512 239,515 266,515" stroke="rgb(0,0,0)" /><polygon points="262,364 262,361 259,359 239,361 240,365 253,363 253,365 262,364" stroke="rgb(0,0,0)" /><polygon points="278,612 277,609 202,608 200,610 200,616 198,620 200,610 198,608 188,608 188,610 196,610 196,613 193,615 192,621 192,628 194,629 179,630 178,640 174,646 178,648 186,648 187,634 187,645 191,647 188,649 188,668 211,669 213,665 211,652 212,651 202,650 212,648 212,621 213,646 216,647 216,649 222,650 215,651 215,662 215,660 213,660 214,669 215,667 216,669 222,669 222,667 238,667 239,669 240,667 248,667 248,669 263,669 263,650 264,647 266,649 267,648 265,641 264,645 263,614 264,612 265,628 266,612 278,612" stroke="rgb(0,0,0)" /><polygon points="268,694 266,694 268,694" stroke="rgb(0,0,0)" /><polygon points="285,122 283,122 285,122" stroke="rgb(0,0,0)" /><polygon points="295,172 293,166 290,165 289,167 293,170 294,173 295,172" stroke="rgb(0,0,0)" /><polygon points="305,282 304,276 298,276 297,274 294,274 290,277 292,287 299,287 300,284 301,286 305,282" stroke="rgb(0,0,0)" /><polygon points="303,361 299,351 290,352 292,362 293,359 294,362 303,361" stroke="rgb(0,0,0)" /><polygon points="309,436 307,426 291,427 291,437 293,439 307,439 309,436" stroke="rgb(0,0,0)" /><polygon points="313,245 313,240 311,238 309,238 308,241 307,238 293,238 291,240 291,243 289,244 292,246 294,250 308,250 313,245" stroke="rgb(0,0,0)" /><polygon points="305,324 301,320 301,311 294,311 294,313 290,314 290,317 295,321 297,325 305,324" stroke="rgb(0,0,0)" /><polygon points="301,206 301,202 297,201 297,206 301,206" stroke="rgb(0,0,0)" /><polygon points="318,477 318,467 316,464 312,470 308,469 310,465 309,464 292,465 291,473 293,477 308,477 314,473 313,476 315,477 316,474 316,477 318,477" stroke="rgb(0,0,0)" /><polygon points="318,515 317,503 307,502 292,504 293,516 296,512 300,510 300,505 304,506 304,510 308,504 305,511 302,510 301,506 300,507 300,512 298,514 301,516 312,516 312,508 312,511 314,513 313,514 316,516 318,515" stroke="rgb(0,0,0)" /><polygon points="317,401 316,387 291,388 292,400 302,400 304,397 307,396 307,389 307,397 310,400 314,400 315,397 315,401 317,401" stroke="rgb(0,0,0)" /><polygon points="301,549 299,549 301,549" stroke="rgb(0,0,0)" /><polygon points="302,628 300,628 302,628" stroke="rgb(0,0,0)" /><polygon points="308,587 306,585 300,586 298,588 297,594 302,595 304,593 305,588 308,587" stroke="rgb(0,0,0)" /><polygon points="316,705 315,693 293,694 294,706 316,705" stroke="rgb(0,0,0)" /><polygon points="323,665 323,656 321,653 321,669 323,665" stroke="rgb(0,0,0)" /><polygon points="397,92 323,92 323,94 329,94 329,97 319,97 317,99 321,102 321,106 324,109 324,111 321,113 321,111 319,110 317,114 312,114 313,118 315,116 319,117 319,124 317,127 315,129 313,129 312,127 311,128 311,132 314,134 314,136 311,139 312,151 317,152 320,148 321,149 319,150 322,152 324,149 322,145 325,141 330,138 334,132 338,131 341,132 336,133 333,138 326,142 324,146 326,151 361,152 362,146 363,150 365,150 365,147 366,151 368,143 366,136 371,134 369,133 372,132 374,128 373,127 365,131 372,126 375,121 379,120 378,118 375,119 375,116 371,115 371,113 378,108 378,100 380,100 379,106 380,107 382,105 382,109 385,103 385,109 383,112 385,112 384,115 388,117 390,115 390,110 388,107 387,108 387,103 393,97 391,93 397,92" stroke="rgb(0,0,0)" /><polygon points="353,167 352,164 341,164 341,175 343,175 343,171 345,176 349,176 353,167" stroke="rgb(0,0,0)" /><polygon points="349,206 348,204 346,205 348,207 349,206" stroke="rgb(0,0,0)" /><polygon points="349,243 347,243 349,243" stroke="rgb(0,0,0)" /><polygon points="364,288 363,275 347,275 343,273 341,274 341,277 342,278 345,276 343,279 347,280 345,288 346,289 364,288" stroke="rgb(0,0,0)" /><polygon points="365,327 356,321 356,318 361,315 360,313 341,313 342,327 365,327" stroke="rgb(0,0,0)" /><polygon points="368,355 367,349 365,350 366,353 364,349 353,349 352,350 354,353 349,358 349,352 347,350 344,350 344,362 342,365 362,366 363,365 360,362 365,355 368,355" stroke="rgb(0,0,0)" /><polygon points="359,401 353,400 354,396 352,396 352,398 351,388 342,390 343,404 354,404 355,402 357,403 359,401" stroke="rgb(0,0,0)" /><polygon points="355,436 355,429 351,427 348,431 347,436 355,436" stroke="rgb(0,0,0)" /><polygon points="352,471 351,466 349,473 350,474 352,471" stroke="rgb(0,0,0)" /><polygon points="358,546 357,544 351,544 350,545 352,546 348,549 352,553 354,553 355,552 352,549 358,546" stroke="rgb(0,0,0)" /><polygon points="369,704 369,697 367,695 350,696 352,698 350,699 350,704 358,704 358,706 363,706 365,702 367,706 369,704" stroke="rgb(0,0,0)" /><polygon points="367,515 366,505 349,506 352,516 367,515" stroke="rgb(0,0,0)" /><polygon points="365,591 364,589 361,591 356,586 353,590 350,591 355,593 357,592 357,596 361,596 361,593 365,591" stroke="rgb(0,0,0)" /><polygon points="369,631 368,624 356,624 353,626 354,628 359,628 361,630 361,633 364,635 369,631" stroke="rgb(0,0,0)" /><polygon points="394,682 393,673 373,674 374,684 394,682" stroke="rgb(0,0,0)" /><polygon points="402,169 400,166 401,163 399,162 398,166 397,163 396,170 398,171 399,168 401,170 402,169" stroke="rgb(0,0,0)" /><polygon points="402,211 402,202 398,201 395,208 396,200 392,199 392,211 402,211" stroke="rgb(0,0,0)" /><polygon points="401,243 399,243 401,243" stroke="rgb(0,0,0)" /><polygon points="416,281 415,276 403,275 401,277 399,285 401,285 402,288 411,288 413,282 416,281" stroke="rgb(0,0,0)" /><polygon points="403,318 402,316 400,317 402,319 403,318" stroke="rgb(0,0,0)" /><polygon points="404,360 404,354 401,353 401,358 396,362 402,363 404,360" stroke="rgb(0,0,0)" /><polygon points="418,399 418,395 416,393 418,392 417,389 395,390 397,400 418,399" stroke="rgb(0,0,0)" /><polygon points="419,433 417,428 403,428 400,431 398,431 400,429 399,428 394,429 394,435 396,439 402,439 402,433 405,440 408,440 408,438 417,439 419,433" stroke="rgb(0,0,0)" /><polygon points="419,477 419,472 416,471 416,466 402,466 401,469 399,466 395,467 396,469 394,473 396,475 396,478 419,477" stroke="rgb(0,0,0)" /><polygon points="419,515 418,505 395,506 396,516 415,517 419,515" stroke="rgb(0,0,0)" /><polygon points="420,555 419,544 409,544 408,546 406,544 403,546 402,544 400,548 399,547 395,549 395,553 398,553 396,554 398,555 398,557 415,557 420,555" stroke="rgb(0,0,0)" /><polygon points="420,594 419,584 406,584 402,593 403,595 420,594" stroke="rgb(0,0,0)" /><polygon points="421,634 420,624 407,624 405,627 405,633 403,634 406,635 408,631 409,635 421,634" stroke="rgb(0,0,0)" /><polygon points="438,125 438,119 436,117 433,117 430,123 428,122 428,120 431,119 430,118 420,118 421,127 433,127 438,125" stroke="rgb(0,0,0)" /><polygon points="459,168 445,167 444,169 451,171 457,170 459,168" stroke="rgb(0,0,0)" /><polygon points="468,209 464,207 468,205 465,201 461,201 460,206 458,201 443,202 444,212 463,212 464,210 468,209" stroke="rgb(0,0,0)" /><polygon points="468,246 467,238 443,239 445,249 458,249 461,246 468,246" stroke="rgb(0,0,0)" /><polygon points="469,283 469,279 465,276 461,276 460,279 458,275 457,279 455,276 445,277 445,282 449,285 461,285 469,283" stroke="rgb(0,0,0)" /><polygon points="469,323 468,313 464,313 463,315 461,315 461,313 450,313 445,316 445,323 449,325 469,323" stroke="rgb(0,0,0)" /><polygon points="470,360 469,351 446,352 447,363 448,360 453,358 457,360 459,363 461,361 462,363 468,363 470,360" stroke="rgb(0,0,0)" /><polygon points="471,399 470,389 447,390 447,394 451,396 450,398 447,399 448,400 471,399" stroke="rgb(0,0,0)" /><polygon points="472,477 471,467 452,468 453,467 451,466 448,468 449,478 460,478 461,472 464,473 462,474 463,478 472,477" stroke="rgb(0,0,0)" /><polygon points="472,435 470,433 470,428 447,429 448,439 470,439 472,435" stroke="rgb(0,0,0)" /><polygon points="473,515 473,508 471,506 448,507 450,516 471,517 473,515" stroke="rgb(0,0,0)" /><polygon points="473,555 472,545 449,546 450,556 473,555" stroke="rgb(0,0,0)" /><polygon points="474,594 473,584 470,585 471,591 469,584 461,584 459,588 458,584 451,584 449,586 451,595 474,594" stroke="rgb(0,0,0)" /><polygon points="475,631 474,624 450,625 451,635 465,635 466,629 467,635 469,636 470,631 471,635 473,635 475,631" stroke="rgb(0,0,0)" /><polygon points="501,705 500,694 486,695 480,700 482,703 484,702 486,706 501,705" stroke="rgb(0,0,0)" /><polygon points="520,130 519,116 496,117 496,127 499,131 520,130" stroke="rgb(0,0,0)" /><polygon points="518,174 515,163 513,164 515,173 511,165 510,167 508,167 506,164 504,166 496,167 497,175 518,174" stroke="rgb(0,0,0)" /><polygon points="516,211 515,202 512,200 507,201 507,211 516,211" stroke="rgb(0,0,0)" /><polygon points="509,243 507,243 509,243" stroke="rgb(0,0,0)" /><polygon points="514,285 513,281 510,280 512,279 510,278 510,276 499,277 502,280 499,281 500,284 504,283 507,285 514,285" stroke="rgb(0,0,0)" /><polygon points="529,686 528,674 506,674 507,688 513,686 529,686" stroke="rgb(0,0,0)" /><polygon points="512,323 511,313 499,314 500,324 512,323" stroke="rgb(0,0,0)" /><polygon points="524,362 523,351 499,352 501,363 513,363 513,358 515,363 524,362" stroke="rgb(0,0,0)" /><polygon points="513,399 512,389 501,390 502,400 513,399" stroke="rgb(0,0,0)" /><polygon points="526,438 524,428 501,429 502,439 526,438" stroke="rgb(0,0,0)" /><polygon points="526,477 525,466 502,468 503,478 526,477" stroke="rgb(0,0,0)" /><polygon points="527,516 525,506 502,507 503,517 527,516" stroke="rgb(0,0,0)" /><polygon points="527,555 526,545 503,546 504,556 527,555" stroke="rgb(0,0,0)" /><polygon points="528,589 527,584 511,585 510,588 509,585 507,587 505,585 504,594 524,595 526,590 528,589" stroke="rgb(0,0,0)" /><polygon points="529,634 529,626 527,624 506,624 504,627 506,635 529,634" stroke="rgb(0,0,0)" /><polygon points="575,110 573,105 568,105 567,100 553,102 556,111 575,110" stroke="rgb(0,0,0)" /><polygon points="577,168 577,165 575,163 551,164 553,174 575,174 577,168" stroke="rgb(0,0,0)" /><polygon points="577,211 576,200 552,201 553,212 569,212 569,210 571,212 577,211" stroke="rgb(0,0,0)" /><polygon points="578,239 566,237 565,239 569,240 568,243 568,241 565,241 563,238 559,239 556,237 553,239 553,241 556,243 556,245 553,248 565,249 565,247 570,247 572,249 572,240 578,239" stroke="rgb(0,0,0)" /><polygon points="575,283 574,279 572,277 571,278 570,275 567,275 566,278 564,278 566,281 564,281 562,275 554,276 555,287 564,287 565,283 567,287 570,287 571,283 575,283" stroke="rgb(0,0,0)" /><polygon points="580,362 577,360 573,360 580,358 579,351 569,351 568,358 566,351 565,360 563,351 554,352 554,360 556,363 580,362" stroke="rgb(0,0,0)" /><polygon points="579,323 578,313 575,317 571,317 567,313 554,314 554,320 562,322 555,322 555,325 579,323" stroke="rgb(0,0,0)" /><polygon points="575,136 574,126 562,127 564,128 566,137 575,136" stroke="rgb(0,0,0)" /><polygon points="580,399 579,389 555,390 556,400 570,398 574,398 577,400 580,399" stroke="rgb(0,0,0)" /><polygon points="581,477 580,467 556,468 557,478 581,477" stroke="rgb(0,0,0)" /><polygon points="581,437 580,428 556,429 557,439 579,439 581,437" stroke="rgb(0,0,0)" /><polygon points="582,517 581,515 574,513 573,507 571,505 565,507 564,513 566,513 567,518 582,517" stroke="rgb(0,0,0)" /><polygon points="569,555 569,547 567,545 557,546 558,556 563,556 563,553 565,556 569,555" stroke="rgb(0,0,0)" /><polygon points="583,595 581,593 583,592 582,584 572,584 571,589 568,585 564,586 564,596 567,596 570,591 572,597 580,597 583,595" stroke="rgb(0,0,0)" /><polygon points="571,629 569,629 571,629" stroke="rgb(0,0,0)" /></svg>