<?xml version="1.0" encoding="utf-8" ?>
<svg baseProfile="full" height="100%" version="1.1" width="100%" xmlns="http://www.w3.org/2000/svg" xmlns:ev="http://www.w3.org/2001/xml-events" xmlns:xlink="http://www.w3.org/1999/xlink"><defs /><polygon points="772,589 770,589 772,589" stroke="rgb(0,0,0)" /><polygon points="771,707 769,707 771,707" stroke="rgb(0,0,0)" /><polygon points="770,367 768,367 770,367" stroke="rgb(0,0,0)" /><polygon points="769,423 767,423 769,423" stroke="rgb(0,0,0)" /><polygon points="764,628 762,628 764,628" stroke="rgb(0,0,0)" /><polygon points="749,537 747,537 749,537" stroke="rgb(0,0,0)" /><polygon points="742,673 740,673 742,673" stroke="rgb(0,0,0)" /><polygon points="741,484 739,484 741,484" stroke="rgb(0,0,0)" /><polygon points="740,628 738,628 740,628" stroke="rgb(0,0,0)" /><polygon points="734,590 732,590 734,590" stroke="rgb(0,0,0)" /><polygon points="734,205 732,205 734,205" stroke="rgb(0,0,0)" /><polygon points="733,310 731,310 733,310" stroke="rgb(0,0,0)" /><polygon points="732,166 730,166 732,166" stroke="rgb(0,0,0)" /><polygon points="724,418 722,418 724,418" stroke="rgb(0,0,0)" /><polygon points="685,512 683,512 684,513 685,512" stroke="rgb(0,0,0)" /><polygon points="684,631 682,631 684,631" stroke="rgb(0,0,0)" /><polygon points="684,591 682,591 684,591" stroke="rgb(0,0,0)" /><polygon points="684,317 682,317 684,317" stroke="rgb(0,0,0)" /><polygon points="683,550 681,550 683,550" stroke="rgb(0,0,0)" /><polygon points="683,471 681,471 683,471" stroke="rgb(0,0,0)" /><polygon points="682,359 680,359 682,359" stroke="rgb(0,0,0)" /><polygon points="682,244 680,244 682,244" stroke="rgb(0,0,0)" /><polygon points="681,204 679,204 681,204" stroke="rgb(0,0,0)" /><polygon points="680,693 678,693 680,693" stroke="rgb(0,0,0)" /><polygon points="680,427 678,427 680,427" stroke="rgb(0,0,0)" /><polygon points="680,163 678,163 680,163" stroke="rgb(0,0,0)" /><polygon points="679,278 677,278 679,278" stroke="rgb(0,0,0)" /><polygon points="654,669 652,669 654,669" stroke="rgb(0,0,0)" /><polygon points="626,700 624,700 626,700" stroke="rgb(0,0,0)" /><polygon points="626,591 624,591 626,591" stroke="rgb(0,0,0)" /><polygon points="625,631 623,631 625,631" stroke="rgb(0,0,0)" /><polygon points="625,511 623,511 625,511" stroke="rgb(0,0,0)" /><polygon points="625,434 623,434 625,434" stroke="rgb(0,0,0)" /><polygon points="625,394 623,394 625,394" stroke="rgb(0,0,0)" /><polygon points="624,550 622,550 624,550" stroke="rgb(0,0,0)" /><polygon points="624,471 622,471 624,471" stroke="rgb(0,0,0)" /><polygon points="624,356 622,356 624,356" stroke="rgb(0,0,0)" /><polygon points="624,279 622,279 624,279" stroke="rgb(0,0,0)" /><polygon points="624,243 622,243 624,243" stroke="rgb(0,0,0)" /><polygon points="622,318 620,318 622,318" stroke="rgb(0,0,0)" /><polygon points="622,205 620,205 622,205" stroke="rgb(0,0,0)" /><polygon points="622,166 620,166 622,166" stroke="rgb(0,0,0)" /><polygon points="600,131 598,131 600,131" stroke="rgb(0,0,0)" /><polygon points="579,688 577,688 579,688" stroke="rgb(0,0,0)" /><polygon points="572,629 570,629 572,629" stroke="rgb(0,0,0)" /><polygon points="571,590 569,590 571,590" stroke="rgb(0,0,0)" /><polygon points="571,550 569,550 571,550" stroke="rgb(0,0,0)" /><polygon points="571,511 569,511 571,511" stroke="rgb(0,0,0)" /><polygon points="570,471 568,471 570,471" stroke="rgb(0,0,0)" /><polygon points="570,434 568,434 570,434" stroke="rgb(0,0,0)" /><polygon points="569,394 567,394 569,394" stroke="rgb(0,0,0)" /><polygon points="568,318 566,318 568,318" stroke="rgb(0,0,0)" /><polygon points="567,356 565,356 567,356" stroke="rgb(0,0,0)" /><polygon points="567,279 565,279 567,279" stroke="rgb(0,0,0)" /><polygon points="567,243 565,243 567,243" stroke="rgb(0,0,0)" /><polygon points="566,205 564,205 566,205" stroke="rgb(0,0,0)" /><polygon points="566,167 564,167 566,167" stroke="rgb(0,0,0)" /><polygon points="564,130 562,130 564,130" stroke="rgb(0,0,0)" /><polygon points="563,102 561,102 563,102" stroke="rgb(0,0,0)" /><polygon points="523,699 521,699 523,699" stroke="rgb(0,0,0)" /><polygon points="518,628 516,628 518,628" stroke="rgb(0,0,0)" /><polygon points="516,590 514,590 516,590" stroke="rgb(0,0,0)" /><polygon points="515,550 513,550 515,550" stroke="rgb(0,0,0)" /><polygon points="515,511 513,511 515,511" stroke="rgb(0,0,0)" /><polygon points="514,471 512,471 514,471" stroke="rgb(0,0,0)" /><polygon points="513,673 511,673 513,673" stroke="rgb(0,0,0)" /><polygon points="513,434 511,434 513,434" stroke="rgb(0,0,0)" /><polygon points="513,394 511,394 513,394" stroke="rgb(0,0,0)" /><polygon points="512,356 510,356 512,356" stroke="rgb(0,0,0)" /><polygon points="511,318 509,318 511,318" stroke="rgb(0,0,0)" /><polygon points="511,279 509,279 511,279" stroke="rgb(0,0,0)" /><polygon points="511,243 509,243 511,243" stroke="rgb(0,0,0)" /><polygon points="509,205 507,205 509,205" stroke="rgb(0,0,0)" /><polygon points="509,169 507,169 509,169" stroke="rgb(0,0,0)" /><polygon points="501,117 499,117 501,117" stroke="rgb(0,0,0)" /><polygon points="489,701 488,699 486,700 488,702 489,701" stroke="rgb(0,0,0)" /><polygon points="485,664 483,664 485,664" stroke="rgb(0,0,0)" /><polygon points="477,133 475,133 477,133" stroke="rgb(0,0,0)" /><polygon points="463,629 461,629 463,629" stroke="rgb(0,0,0)" /><polygon points="462,590 460,590 462,590" stroke="rgb(0,0,0)" /><polygon points="461,550 459,550 461,550" stroke="rgb(0,0,0)" /><polygon points="461,512 459,512 461,512" stroke="rgb(0,0,0)" /><polygon points="461,471 459,471 461,471" stroke="rgb(0,0,0)" /><polygon points="461,434 459,434 461,434" stroke="rgb(0,0,0)" /><polygon points="460,394 458,394 460,394" stroke="rgb(0,0,0)" /><polygon points="459,356 457,356 459,356" stroke="rgb(0,0,0)" /><polygon points="459,318 457,318 459,318" stroke="rgb(0,0,0)" /><polygon points="459,279 457,279 459,279" stroke="rgb(0,0,0)" /><polygon points="457,244 455,244 457,244" stroke="rgb(0,0,0)" /><polygon points="457,205 455,205 457,205" stroke="rgb(0,0,0)" /><polygon points="455,701 453,701 455,701" stroke="rgb(0,0,0)" /><polygon points="455,168 453,168 455,168" stroke="rgb(0,0,0)" /><polygon points="452,108 450,108 452,108" stroke="rgb(0,0,0)" /><polygon points="438,663 436,663 438,663" stroke="rgb(0,0,0)" /><polygon points="425,106 423,106 425,106" stroke="rgb(0,0,0)" /><polygon points="420,135 418,135 420,135" stroke="rgb(0,0,0)" /><polygon points="411,628 409,628 411,628" stroke="rgb(0,0,0)" /><polygon points="410,589 408,589 410,589" stroke="rgb(0,0,0)" /><polygon points="409,549 407,549 409,549" stroke="rgb(0,0,0)" /><polygon points="408,700 406,700 408,700" stroke="rgb(0,0,0)" /><polygon points="408,511 406,511 408,511" stroke="rgb(0,0,0)" /><polygon points="408,470 406,470 408,470" stroke="rgb(0,0,0)" /><polygon points="408,434 406,434 408,434" stroke="rgb(0,0,0)" /><polygon points="407,394 405,394 407,394" stroke="rgb(0,0,0)" /><polygon points="406,356 404,356 406,356" stroke="rgb(0,0,0)" /><polygon points="404,318 402,318 404,318" stroke="rgb(0,0,0)" /><polygon points="404,280 402,280 404,280" stroke="rgb(0,0,0)" /><polygon points="402,244 400,244 402,244" stroke="rgb(0,0,0)" /><polygon points="400,206 398,206 400,206" stroke="rgb(0,0,0)" /><polygon points="399,170 397,170 399,170" stroke="rgb(0,0,0)" /><polygon points="382,664 380,664 382,664" stroke="rgb(0,0,0)" /><polygon points="357,628 355,628 357,628" stroke="rgb(0,0,0)" /><polygon points="356,589 354,589 356,589" stroke="rgb(0,0,0)" /><polygon points="354,549 352,549 354,549" stroke="rgb(0,0,0)" /><polygon points="353,511 351,511 353,511" stroke="rgb(0,0,0)" /><polygon points="353,471 351,471 353,471" stroke="rgb(0,0,0)" /><polygon points="353,433 351,433 353,433" stroke="rgb(0,0,0)" /><polygon points="351,394 349,394 351,394" stroke="rgb(0,0,0)" /><polygon points="350,356 348,356 350,356" stroke="rgb(0,0,0)" /><polygon points="350,318 348,318 350,318" stroke="rgb(0,0,0)" /><polygon points="350,279 348,279 350,279" stroke="rgb(0,0,0)" /><polygon points="349,244 347,244 349,244" stroke="rgb(0,0,0)" /><polygon points="349,206 347,206 349,206" stroke="rgb(0,0,0)" /><polygon points="347,169 345,169 347,169" stroke="rgb(0,0,0)" /><polygon points="335,118 333,118 335,118" stroke="rgb(0,0,0)" /><polygon points="329,661 327,661 329,661" stroke="rgb(0,0,0)" /><polygon points="306,700 304,700 306,700" stroke="rgb(0,0,0)" /><polygon points="304,629 302,629 304,629" stroke="rgb(0,0,0)" /><polygon points="303,589 301,589 303,589" stroke="rgb(0,0,0)" /><polygon points="302,549 300,549 302,549" stroke="rgb(0,0,0)" /><polygon points="301,511 299,511 301,511" stroke="rgb(0,0,0)" /><polygon points="301,471 299,471 301,471" stroke="rgb(0,0,0)" /><polygon points="301,395 298,395 301,395" stroke="rgb(0,0,0)" /><polygon points="300,433 299,431 298,433 300,433" stroke="rgb(0,0,0)" /><polygon points="300,356 298,356 300,356" stroke="rgb(0,0,0)" /><polygon points="300,319 298,319 300,319" stroke="rgb(0,0,0)" /><polygon points="300,280 298,280 300,280" stroke="rgb(0,0,0)" /><polygon points="300,244 298,244 300,244" stroke="rgb(0,0,0)" /><polygon points="299,206 297,206 299,206" stroke="rgb(0,0,0)" /><polygon points="298,168 296,168 298,168" stroke="rgb(0,0,0)" /><polygon points="280,700 278,700 280,700" stroke="rgb(0,0,0)" /><polygon points="277,117 275,117 277,117" stroke="rgb(0,0,0)" /><polygon points="258,425 256,425 258,425" stroke="rgb(0,0,0)" /><polygon points="257,358 255,358 257,358" stroke="rgb(0,0,0)" /><polygon points="254,625 252,625 254,625" stroke="rgb(0,0,0)" /><polygon points="253,176 251,176 253,176" stroke="rgb(0,0,0)" /><polygon points="251,512 249,512 251,512" stroke="rgb(0,0,0)" /><polygon points="251,206 249,206 251,206" stroke="rgb(0,0,0)" /><polygon points="250,699 248,699 250,699" stroke="rgb(0,0,0)" /><polygon points="250,588 248,588 250,588" stroke="rgb(0,0,0)" /><polygon points="250,318 248,318 250,318" stroke="rgb(0,0,0)" /><polygon points="250,281 248,281 250,281" stroke="rgb(0,0,0)" /><polygon points="249,549 247,549 249,549" stroke="rgb(0,0,0)" /><polygon points="249,470 247,470 249,470" stroke="rgb(0,0,0)" /><polygon points="249,393 247,393 249,393" stroke="rgb(0,0,0)" /><polygon points="249,244 247,244 249,244" stroke="rgb(0,0,0)" /><polygon points="223,697 221,697 223,697" stroke="rgb(0,0,0)" /><polygon points="208,392 206,392 208,392" stroke="rgb(0,0,0)" /><polygon points="204,589 202,589 204,589" stroke="rgb(0,0,0)" /><polygon points="204,511 202,511 204,511" stroke="rgb(0,0,0)" /><polygon points="204,470 202,470 204,470" stroke="rgb(0,0,0)" /><polygon points="204,320 202,320 204,320" stroke="rgb(0,0,0)" /><polygon points="203,207 201,207 203,207" stroke="rgb(0,0,0)" /><polygon points="201,280 199,280 201,280" stroke="rgb(0,0,0)" /><polygon points="200,549 198,549 200,549" stroke="rgb(0,0,0)" /><polygon points="199,244 197,244 199,244" stroke="rgb(0,0,0)" /><polygon points="184,697 182,697 184,697" stroke="rgb(0,0,0)" /><polygon points="180,635 178,635 180,635" stroke="rgb(0,0,0)" /><polygon points="176,109 173,109 176,109" stroke="rgb(0,0,0)" /></svg>