<?xml version="1.0" encoding="utf-8" ?>
<svg baseProfile="full" height="100%" version="1.1" width="100%" xmlns="http://www.w3.org/2000/svg" xmlns:ev="http://www.w3.org/2001/xml-events" xmlns:xlink="http://www.w3.org/1999/xlink"><defs /><polygon points="771,589 771,589 771,588 771,588 770,588 770,588 770,589 770,589 771,589" stroke="rgb(0,0,0)" /><polygon points="770,707 770,707 770,706 770,706 769,706 769,706 769,707 769,707 770,707" stroke="rgb(0,0,0)" /><polygon points="769,367 769,367 769,366 769,366 768,366 768,366 768,367 768,367 769,367" stroke="rgb(0,0,0)" /><polygon points="768,423 768,423 768,422 768,422 767,422 767,422 767,423 767,423 768,423" stroke="rgb(0,0,0)" /><polygon points="763,628 763,628 763,627 763,627 762,627 762,627 762,628 762,628 763,628" stroke="rgb(0,0,0)" /><polygon points="748,537 748,537 748,536 748,536 747,536 747,536 747,537 747,537 748,537" stroke="rgb(0,0,0)" /><polygon points="741,673 741,673 741,672 741,672 740,672 740,672 740,673 740,673 741,673" stroke="rgb(0,0,0)" /><polygon points="740,484 740,484 740,483 740,483 739,483 739,483 739,484 739,484 740,484" stroke="rgb(0,0,0)" /><polygon points="739,628 739,628 739,627 739,627 738,627 738,627 738,628 738,628 739,628" stroke="rgb(0,0,0)" /><polygon points="733,590 733,590 733,589 733,589 732,589 732,589 732,590 732,590 733,590" stroke="rgb(0,0,0)" /><polygon points="733,205 733,205 733,204 733,204 732,204 732,204 732,205 732,205 733,205" stroke="rgb(0,0,0)" /><polygon points="732,310 732,310 732,309 732,309 731,309 731,309 731,310 731,310 732,310" stroke="rgb(0,0,0)" /><polygon points="731,166 731,166 731,165 731,165 730,165 730,165 730,166 730,166 731,166" stroke="rgb(0,0,0)" /><polygon points="723,418 723,418 723,417 723,417 722,417 722,417 722,418 722,418 723,418" stroke="rgb(0,0,0)" /><polygon points="684,512 684,512 684,511 684,511 683,511 683,511 683,512 683,512 684,512" stroke="rgb(0,0,0)" /><polygon points="683,631 683,631 683,630 683,630 682,630 682,630 682,631 682,631 683,631" stroke="rgb(0,0,0)" /><polygon points="683,591 683,591 683,590 683,590 682,590 682,590 682,591 682,591 683,591" stroke="rgb(0,0,0)" /><polygon points="683,317 683,317 683,316 683,316 682,316 682,316 682,317 682,317 683,317" stroke="rgb(0,0,0)" /><polygon points="682,550 682,550 682,549 682,549 681,549 681,549 681,550 681,550 682,550" stroke="rgb(0,0,0)" /><polygon points="682,471 682,471 682,470 682,470 681,470 681,470 681,471 681,471 682,471" stroke="rgb(0,0,0)" /><polygon points="681,359 681,359 681,358 681,358 680,358 680,358 680,359 680,359 681,359" stroke="rgb(0,0,0)" /><polygon points="681,244 681,244 681,243 681,243 680,243 680,243 680,244 680,244 681,244" stroke="rgb(0,0,0)" /><polygon points="680,204 680,204 680,203 680,203 679,203 679,203 679,204 679,204 680,204" stroke="rgb(0,0,0)" /><polygon points="679,693 679,693 679,692 679,692 678,692 678,692 678,693 678,693 679,693" stroke="rgb(0,0,0)" /><polygon points="679,427 679,427 679,426 679,426 678,426 678,426 678,427 678,427 679,427" stroke="rgb(0,0,0)" /><polygon points="679,163 679,163 679,162 679,162 678,162 678,162 678,163 678,163 679,163" stroke="rgb(0,0,0)" /><polygon points="678,278 678,278 678,277 678,277 677,277 677,277 677,278 677,278 678,278" stroke="rgb(0,0,0)" /><polygon points="653,669 653,669 653,668 653,668 652,668 652,668 652,669 652,669 653,669" stroke="rgb(0,0,0)" /><polygon points="625,700 625,700 625,699 625,699 624,699 624,699 624,700 624,700 625,700" stroke="rgb(0,0,0)" /><polygon points="625,591 625,591 625,590 625,590 624,590 624,590 624,591 624,591 625,591" stroke="rgb(0,0,0)" /><polygon points="624,631 624,631 624,630 624,630 623,630 623,630 623,631 623,631 624,631" stroke="rgb(0,0,0)" /><polygon points="624,511 624,511 624,510 624,510 623,510 623,510 623,511 623,511 624,511" stroke="rgb(0,0,0)" /><polygon points="624,434 624,434 624,433 624,433 623,433 623,433 623,434 623,434 624,434" stroke="rgb(0,0,0)" /><polygon points="624,394 624,394 624,393 624,393 623,393 623,393 623,394 623,394 624,394" stroke="rgb(0,0,0)" /><polygon points="623,550 623,550 623,549 623,549 622,549 622,549 622,550 622,550 623,550" stroke="rgb(0,0,0)" /><polygon points="623,471 623,471 623,470 623,470 622,470 622,470 622,471 622,471 623,471" stroke="rgb(0,0,0)" /><polygon points="623,356 623,356 623,355 623,355 622,355 622,355 622,356 622,356 623,356" stroke="rgb(0,0,0)" /><polygon points="623,279 623,279 623,278 623,278 622,278 622,278 622,279 622,279 623,279" stroke="rgb(0,0,0)" /><polygon points="623,243 623,243 623,242 623,242 622,242 622,242 622,243 622,243 623,243" stroke="rgb(0,0,0)" /><polygon points="621,318 621,318 621,317 621,317 620,317 620,317 620,318 620,318 621,318" stroke="rgb(0,0,0)" /><polygon points="621,205 621,205 621,204 621,204 620,204 620,204 620,205 620,205 621,205" stroke="rgb(0,0,0)" /><polygon points="621,166 621,166 621,165 621,165 620,165 620,165 620,166 620,166 621,166" stroke="rgb(0,0,0)" /><polygon points="599,131 599,131 599,130 599,130 598,130 598,130 598,131 598,131 599,131" stroke="rgb(0,0,0)" /><polygon points="578,688 578,688 578,687 578,687 577,687 577,687 577,688 577,688 578,688" stroke="rgb(0,0,0)" /><polygon points="571,629 571,629 571,628 571,628 570,628 570,628 570,629 570,629 571,629" stroke="rgb(0,0,0)" /><polygon points="570,590 570,590 570,589 570,589 569,589 569,589 569,590 569,590 570,590" stroke="rgb(0,0,0)" /><polygon points="570,550 570,550 570,549 570,549 569,549 569,549 569,550 569,550 570,550" stroke="rgb(0,0,0)" /><polygon points="570,511 570,511 570,510 570,510 569,510 569,510 569,511 569,511 570,511" stroke="rgb(0,0,0)" /><polygon points="569,471 569,471 569,470 569,470 568,470 568,470 568,471 568,471 569,471" stroke="rgb(0,0,0)" /><polygon points="569,434 569,434 569,433 569,433 568,433 568,433 568,434 568,434 569,434" stroke="rgb(0,0,0)" /><polygon points="568,394 568,394 568,393 568,393 567,393 567,393 567,394 567,394 568,394" stroke="rgb(0,0,0)" /><polygon points="567,318 567,318 567,317 567,317 566,317 566,317 566,318 566,318 567,318" stroke="rgb(0,0,0)" /><polygon points="566,356 566,356 566,355 566,355 565,355 565,355 565,356 565,356 566,356" stroke="rgb(0,0,0)" /><polygon points="566,279 566,279 566,278 566,278 565,278 565,278 565,279 565,279 566,279" stroke="rgb(0,0,0)" /><polygon points="566,243 566,243 566,242 566,242 565,242 565,242 565,243 565,243 566,243" stroke="rgb(0,0,0)" /><polygon points="565,205 565,205 565,204 565,204 564,204 564,204 564,205 564,205 565,205" stroke="rgb(0,0,0)" /><polygon points="565,167 565,167 565,166 565,166 564,166 564,166 564,167 564,167 565,167" stroke="rgb(0,0,0)" /><polygon points="563,130 563,130 563,129 563,129 562,129 562,129 562,130 562,130 563,130" stroke="rgb(0,0,0)" /><polygon points="562,102 562,102 562,101 562,101 561,101 561,101 561,102 561,102 562,102" stroke="rgb(0,0,0)" /><polygon points="522,699 522,699 522,698 522,698 521,698 521,698 521,699 521,699 522,699" stroke="rgb(0,0,0)" /><polygon points="517,628 517,628 517,627 517,627 516,627 516,627 516,628 516,628 517,628" stroke="rgb(0,0,0)" /><polygon points="515,590 515,590 515,589 515,589 514,589 514,589 514,590 514,590 515,590" stroke="rgb(0,0,0)" /><polygon points="514,550 514,550 514,549 514,549 513,549 513,549 513,550 513,550 514,550" stroke="rgb(0,0,0)" /><polygon points="514,511 514,511 514,510 514,510 513,510 513,510 513,511 513,511 514,511" stroke="rgb(0,0,0)" /><polygon points="513,471 513,471 513,470 513,470 512,470 512,470 512,471 512,471 513,471" stroke="rgb(0,0,0)" /><polygon points="512,673 512,673 512,672 512,672 511,672 511,672 511,673 511,673 512,673" stroke="rgb(0,0,0)" /><polygon points="512,434 512,434 512,433 512,433 511,433 511,433 511,434 511,434 512,434" stroke="rgb(0,0,0)" /><polygon points="512,394 512,394 512,393 512,393 511,393 511,393 511,394 511,394 512,394" stroke="rgb(0,0,0)" /><polygon points="511,356 511,356 511,355 511,355 510,355 510,355 510,356 510,356 511,356" stroke="rgb(0,0,0)" /><polygon points="510,318 510,318 510,317 510,317 509,317 509,317 509,318 509,318 510,318" stroke="rgb(0,0,0)" /><polygon points="510,279 510,279 510,278 510,278 509,278 509,278 509,279 509,279 510,279" stroke="rgb(0,0,0)" /><polygon points="510,243 510,243 510,242 510,242 509,242 509,242 509,243 509,243 510,243" stroke="rgb(0,0,0)" /><polygon points="508,205 508,205 508,204 508,204 507,204 507,204 507,205 507,205 508,205" stroke="rgb(0,0,0)" /><polygon points="508,169 508,169 508,168 508,168 507,168 507,168 507,169 507,169 508,169" stroke="rgb(0,0,0)" /><polygon points="500,117 500,117 500,116 500,116 499,116 499,116 499,117 499,117 500,117" stroke="rgb(0,0,0)" /><polygon points="488,701 488,701 489,700 489,700 488,699 488,699 487,699 487,699 486,699 486,699 486,700 486,700 487,701 487,701 488,701" stroke="rgb(0,0,0)" /><polygon points="484,664 484,664 484,663 484,663 483,663 483,663 483,664 483,664 484,664" stroke="rgb(0,0,0)" /><polygon points="476,133 476,133 476,132 476,132 475,132 475,132 475,133 475,133 476,133" stroke="rgb(0,0,0)" /><polygon points="462,629 462,629 462,628 462,628 461,628 461,628 461,629 461,629 462,629" stroke="rgb(0,0,0)" /><polygon points="461,590 461,590 461,589 461,589 460,589 460,589 460,590 460,590 461,590" stroke="rgb(0,0,0)" /><polygon points="460,550 460,550 460,549 460,549 459,549 459,549 459,550 459,550 460,550" stroke="rgb(0,0,0)" /><polygon points="460,512 460,512 460,511 460,511 459,511 459,511 459,512 459,512 460,512" stroke="rgb(0,0,0)" /><polygon points="460,471 460,471 460,470 460,470 459,470 459,470 459,471 459,471 460,471" stroke="rgb(0,0,0)" /><polygon points="460,434 460,434 460,433 460,433 459,433 459,433 459,434 459,434 460,434" stroke="rgb(0,0,0)" /><polygon points="459,394 459,394 459,393 459,393 458,393 458,393 458,394 458,394 459,394" stroke="rgb(0,0,0)" /><polygon points="458,356 458,356 458,355 458,355 457,355 457,355 457,356 457,356 458,356" stroke="rgb(0,0,0)" /><polygon points="458,318 458,318 458,317 458,317 457,317 457,317 457,318 457,318 458,318" stroke="rgb(0,0,0)" /><polygon points="458,279 458,279 458,278 458,278 457,278 457,278 457,279 457,279 458,279" stroke="rgb(0,0,0)" /><polygon points="456,244 456,244 456,243 456,243 455,243 455,243 455,244 455,244 456,244" stroke="rgb(0,0,0)" /><polygon points="456,205 456,205 456,204 456,204 455,204 455,204 455,205 455,205 456,205" stroke="rgb(0,0,0)" /><polygon points="454,701 454,701 454,700 454,700 453,700 453,700 453,701 453,701 454,701" stroke="rgb(0,0,0)" /><polygon points="454,168 454,168 454,167 454,167 453,167 453,167 453,168 453,168 454,168" stroke="rgb(0,0,0)" /><polygon points="451,108 451,108 451,107 451,107 450,107 450,107 450,108 450,108 451,108" stroke="rgb(0,0,0)" /><polygon points="437,663 437,663 437,662 437,662 436,662 436,662 436,663 436,663 437,663" stroke="rgb(0,0,0)" /><polygon points="424,106 424,106 424,105 424,105 423,105 423,105 423,106 423,106 424,106" stroke="rgb(0,0,0)" /><polygon points="419,135 419,135 419,134 419,134 418,134 418,134 418,135 418,135 419,135" stroke="rgb(0,0,0)" /><polygon points="410,628 410,628 410,627 410,627 409,627 409,627 409,628 409,628 410,628" stroke="rgb(0,0,0)" /><polygon points="409,589 409,589 409,588 409,588 408,588 408,588 408,589 408,589 409,589" stroke="rgb(0,0,0)" /><polygon points="408,549 408,549 408,548 408,548 407,548 407,548 407,549 407,549 408,549" stroke="rgb(0,0,0)" /><polygon points="407,700 407,700 407,699 407,699 406,699 406,699 406,700 406,700 407,700" stroke="rgb(0,0,0)" /><polygon points="407,511 407,511 407,510 407,510 406,510 406,510 406,511 406,511 407,511" stroke="rgb(0,0,0)" /><polygon points="407,470 407,470 407,469 407,469 406,469 406,469 406,470 406,470 407,470" stroke="rgb(0,0,0)" /><polygon points="407,434 407,434 407,433 407,433 406,433 406,433 406,434 406,434 407,434" stroke="rgb(0,0,0)" /><polygon points="406,394 406,394 406,393 406,393 405,393 405,393 405,394 405,394 406,394" stroke="rgb(0,0,0)" /><polygon points="405,356 405,356 405,355 405,355 404,355 404,355 404,356 404,356 405,356" stroke="rgb(0,0,0)" /><polygon points="403,318 403,318 403,317 403,317 402,317 402,317 402,318 402,318 403,318" stroke="rgb(0,0,0)" /><polygon points="403,280 403,280 403,279 403,279 402,279 402,279 402,280 402,280 403,280" stroke="rgb(0,0,0)" /><polygon points="401,244 401,244 401,243 401,243 400,243 400,243 400,244 400,244 401,244" stroke="rgb(0,0,0)" /><polygon points="399,206 399,206 399,205 399,205 398,205 398,205 398,206 398,206 399,206" stroke="rgb(0,0,0)" /><polygon points="398,170 398,170 398,169 398,169 397,169 397,169 397,170 397,170 398,170" stroke="rgb(0,0,0)" /><polygon points="381,664 381,664 381,663 381,663 380,663 380,663 380,664 380,664 381,664" stroke="rgb(0,0,0)" /><polygon points="356,628 356,628 356,627 356,627 355,627 355,627 355,628 355,628 356,628" stroke="rgb(0,0,0)" /><polygon points="355,589 355,589 355,588 355,588 354,588 354,588 354,589 354,589 355,589" stroke="rgb(0,0,0)" /><polygon points="353,549 353,549 353,548 353,548 352,548 352,548 352,549 352,549 353,549" stroke="rgb(0,0,0)" /><polygon points="352,511 352,511 352,510 352,510 351,510 351,510 351,511 351,511 352,511" stroke="rgb(0,0,0)" /><polygon points="352,471 352,471 352,470 352,470 351,470 351,470 351,471 351,471 352,471" stroke="rgb(0,0,0)" /><polygon points="352,433 352,433 352,432 352,432 351,432 351,432 351,433 351,433 352,433" stroke="rgb(0,0,0)" /><polygon points="350,394 350,394 350,393 350,393 349,393 349,393 349,394 349,394 350,394" stroke="rgb(0,0,0)" /><polygon points="349,356 349,356 349,355 349,355 348,355 348,355 348,356 348,356 349,356" stroke="rgb(0,0,0)" /><polygon points="349,318 349,318 349,317 349,317 348,317 348,317 348,318 348,318 349,318" stroke="rgb(0,0,0)" /><polygon points="349,279 349,279 349,278 349,278 348,278 348,278 348,279 348,279 349,279" stroke="rgb(0,0,0)" /><polygon points="348,244 348,244 348,243 348,243 347,243 347,243 347,244 347,244 348,244" stroke="rgb(0,0,0)" /><polygon points="348,206 348,206 348,205 348,205 347,205 347,205 347,206 347,206 348,206" stroke="rgb(0,0,0)" /><polygon points="346,169 346,169 346,168 346,168 345,168 345,168 345,169 345,169 346,169" stroke="rgb(0,0,0)" /><polygon points="334,118 334,118 334,117 334,117 333,117 333,117 333,118 333,118 334,118" stroke="rgb(0,0,0)" /><polygon points="328,661 328,661 328,660 328,660 327,660 327,660 327,661 327,661 328,661" stroke="rgb(0,0,0)" /><polygon points="305,700 305,700 305,699 305,699 304,699 304,699 304,700 304,700 305,700" stroke="rgb(0,0,0)" /><polygon points="303,629 303,629 303,628 303,628 302,628 302,628 302,629 302,629 303,629" stroke="rgb(0,0,0)" /><polygon points="302,589 302,589 302,588 302,588 301,588 301,588 301,589 301,589 302,589" stroke="rgb(0,0,0)" /><polygon points="301,549 301,549 301,548 301,548 300,548 300,548 300,549 300,549 301,549" stroke="rgb(0,0,0)" /><polygon points="300,511 300,511 300,510 300,510 299,510 299,510 299,511 299,511 300,511" stroke="rgb(0,0,0)" /><polygon points="300,471 300,471 300,470 300,470 299,470 299,470 299,471 299,471 300,471" stroke="rgb(0,0,0)" /><polygon points="300,395 300,395 300,394 300,394 299,394 299,394 298,394 298,394 298,395 298,395 299,396 299,396 300,395" stroke="rgb(0,0,0)" /><polygon points="299,433 299,433 300,432 300,432 299,431 299,431 298,431 298,431 298,432 298,432 298,433 298,433 299,433" stroke="rgb(0,0,0)" /><polygon points="299,356 299,356 299,355 299,355 298,355 298,355 298,356 298,356 299,356" stroke="rgb(0,0,0)" /><polygon points="299,319 299,319 299,318 299,318 298,318 298,318 298,319 298,319 299,319" stroke="rgb(0,0,0)" /><polygon points="299,280 299,280 299,279 299,279 298,279 298,279 298,280 298,280 299,280" stroke="rgb(0,0,0)" /><polygon points="299,244 299,244 299,243 299,243 298,243 298,243 298,244 298,244 299,244" stroke="rgb(0,0,0)" /><polygon points="298,206 298,206 298,205 298,205 297,205 297,205 297,206 297,206 298,206" stroke="rgb(0,0,0)" /><polygon points="297,168 297,168 297,167 297,167 296,167 296,167 296,168 296,168 297,168" stroke="rgb(0,0,0)" /><polygon points="279,700 279,700 279,699 279,699 278,699 278,699 278,700 278,700 279,700" stroke="rgb(0,0,0)" /><polygon points="276,117 276,117 276,116 276,116 275,116 275,116 275,117 275,117 276,117" stroke="rgb(0,0,0)" /><polygon points="257,425 257,425 257,424 257,424 256,424 256,424 256,425 256,425 257,425" stroke="rgb(0,0,0)" /><polygon points="256,358 256,358 256,357 256,357 255,357 255,357 255,358 255,358 256,358" stroke="rgb(0,0,0)" /><polygon points="253,625 253,625 253,624 253,624 252,624 252,624 252,625 252,625 253,625" stroke="rgb(0,0,0)" /><polygon points="252,176 252,176 252,175 252,175 251,175 251,175 251,176 251,176 252,176" stroke="rgb(0,0,0)" /><polygon points="250,512 250,512 250,511 250,511 249,511 249,511 249,512 249,512 250,512" stroke="rgb(0,0,0)" /><polygon points="250,206 250,206 250,205 250,205 249,205 249,205 249,206 249,206 250,206" stroke="rgb(0,0,0)" /><polygon points="249,699 249,699 249,698 249,698 248,698 248,698 248,699 248,699 249,699" stroke="rgb(0,0,0)" /><polygon points="249,588 249,588 249,587 249,587 248,587 248,587 248,588 248,588 249,588" stroke="rgb(0,0,0)" /><polygon points="249,318 249,318 249,317 249,317 248,317 248,317 248,318 248,318 249,318" stroke="rgb(0,0,0)" /><polygon points="249,281 249,281 249,280 249,280 248,280 248,280 248,281 248,281 249,281" stroke="rgb(0,0,0)" /><polygon points="248,549 248,549 248,548 248,548 247,548 247,548 247,549 247,549 248,549" stroke="rgb(0,0,0)" /><polygon points="248,470 248,470 248,469 248,469 247,469 247,469 247,470 247,470 248,470" stroke="rgb(0,0,0)" /><polygon points="248,393 248,393 248,392 248,392 247,392 247,392 247,393 247,393 248,393" stroke="rgb(0,0,0)" /><polygon points="248,244 248,244 248,243 248,243 247,243 247,243 247,244 247,244 248,244" stroke="rgb(0,0,0)" /><polygon points="222,697 222,697 222,696 222,696 221,696 221,696 221,697 221,697 222,697" stroke="rgb(0,0,0)" /><polygon points="207,392 207,392 207,391 207,391 206,391 206,391 206,392 206,392 207,392" stroke="rgb(0,0,0)" /><polygon points="203,589 203,589 203,588 203,588 202,588 202,588 202,589 202,589 203,589" stroke="rgb(0,0,0)" /><polygon points="203,511 203,511 203,510 203,510 202,510 202,510 202,511 202,511 203,511" stroke="rgb(0,0,0)" /><polygon points="203,470 203,470 203,469 203,469 202,469 202,469 202,470 202,470 203,470" stroke="rgb(0,0,0)" /><polygon points="203,320 203,320 203,319 203,319 202,319 202,319 202,320 202,320 203,320" stroke="rgb(0,0,0)" /><polygon points="202,207 202,207 202,206 202,206 201,206 201,206 201,207 201,207 202,207" stroke="rgb(0,0,0)" /><polygon points="200,280 200,280 200,279 200,279 199,279 199,279 199,280 199,280 200,280" stroke="rgb(0,0,0)" /><polygon points="199,549 199,549 199,548 199,548 198,548 198,548 198,549 198,549 199,549" stroke="rgb(0,0,0)" /><polygon points="198,244 198,244 198,243 198,243 197,243 197,243 197,244 197,244 198,244" stroke="rgb(0,0,0)" /><polygon points="183,697 183,697 183,696 183,696 182,696 182,696 182,697 182,697 183,697" stroke="rgb(0,0,0)" /><polygon points="179,635 179,635 179,634 179,634 178,634 178,634 178,635 178,635 179,635" stroke="rgb(0,0,0)" /><polygon points="175,109 175,109 175,108 175,108 174,108 174,108 173,108 173,108 173,109 173,109 174,110 174,110 175,109" stroke="rgb(0,0,0)" /></svg>