<?xml version="1.0" encoding="utf-8" ?>
<svg baseProfile="full" height="100%" version="1.1" width="100%" xmlns="http://www.w3.org/2000/svg" xmlns:ev="http://www.w3.org/2001/xml-events" xmlns:xlink="http://www.w3.org/1999/xlink"><defs /><polygon points="176,637 175,632 166,632 163,636 163,645 165,645 165,647 163,648 169,649 176,637" stroke="rgb(0,0,0)" /><polygon points="175,171 173,171 175,171" stroke="rgb(0,0,0)" /><polygon points="185,114 185,105 183,102 166,102 164,104 165,115 185,114" stroke="rgb(0,0,0)" /><polygon points="178,694 176,694 178,694" stroke="rgb(0,0,0)" /><polygon points="185,404 184,387 164,388 164,405 165,403 166,405 185,404" stroke="rgb(0,0,0)" /><polygon points="203,252 202,238 191,237 191,239 189,240 189,251 192,254 203,252" stroke="rgb(0,0,0)" /><polygon points="202,288 202,280 200,276 190,275 189,286 200,289 202,288" stroke="rgb(0,0,0)" /><polygon points="211,471 211,468 206,465 191,465 189,474 191,475 191,477 207,477 208,471 211,471" stroke="rgb(0,0,0)" /><polygon points="199,548 196,544 196,549 197,550 199,548" stroke="rgb(0,0,0)" /><polygon points="211,213 210,202 192,202 191,204 190,202 189,203 190,213 191,210 192,213 211,213" stroke="rgb(0,0,0)" /><polygon points="200,319 198,319 200,319" stroke="rgb(0,0,0)" /><polygon points="202,507 199,504 192,505 190,515 199,516 202,507" stroke="rgb(0,0,0)" /><polygon points="205,588 203,583 197,585 198,588 205,588" stroke="rgb(0,0,0)" /><polygon points="225,635 224,633 223,635 225,635" stroke="rgb(0,0,0)" /><polygon points="237,695 236,693 224,696 232,698 233,696 237,695" stroke="rgb(0,0,0)" /><polygon points="243,317 241,317 243,317" stroke="rgb(0,0,0)" /><polygon points="253,107 252,102 239,102 237,105 238,114 249,115 253,107" stroke="rgb(0,0,0)" /><polygon points="261,177 260,173 254,173 252,180 249,181 248,173 240,173 238,177 238,186 252,187 253,186 250,184 253,182 254,187 256,185 257,178 261,177" stroke="rgb(0,0,0)" /><polygon points="248,244 246,243 245,246 246,247 248,244" stroke="rgb(0,0,0)" /><polygon points="248,549 246,549 248,549" stroke="rgb(0,0,0)" /><polygon points="253,588 252,582 251,584 250,582 244,583 243,590 245,593 247,593 249,590 248,585 250,588 248,592 249,593 252,592 253,588" stroke="rgb(0,0,0)" /><polygon points="251,209 251,203 249,202 247,206 250,210 251,209" stroke="rgb(0,0,0)" /><polygon points="249,473 248,469 246,473 247,477 249,473" stroke="rgb(0,0,0)" /><polygon points="250,416 248,416 250,416" stroke="rgb(0,0,0)" /><polygon points="251,281 248,281 251,281" stroke="rgb(0,0,0)" /><polygon points="254,514 249,505 249,510 246,510 248,513 246,514 254,514" stroke="rgb(0,0,0)" /><polygon points="261,362 258,360 244,360 239,362 253,362 255,364 261,362" stroke="rgb(0,0,0)" /><polygon points="264,627 262,612 244,612 240,614 245,618 246,617 249,627 254,626 256,629 264,627" stroke="rgb(0,0,0)" /><polygon points="268,694 266,694 268,694" stroke="rgb(0,0,0)" /><polygon points="285,122 283,122 285,122" stroke="rgb(0,0,0)" /><polygon points="295,169 292,169 295,169" stroke="rgb(0,0,0)" /><polygon points="301,280 298,279 297,276 294,276 292,278 292,286 298,287 301,280" stroke="rgb(0,0,0)" /><polygon points="302,361 299,355 300,352 294,351 293,361 295,361 295,357 296,362 302,361" stroke="rgb(0,0,0)" /><polygon points="309,435 307,426 291,427 292,438 307,438 309,435" stroke="rgb(0,0,0)" /><polygon points="311,245 306,238 299,238 298,240 293,239 292,242 289,244 297,250 306,250 311,245" stroke="rgb(0,0,0)" /><polygon points="304,323 301,320 301,313 293,313 290,315 292,318 294,317 295,320 296,317 297,324 304,323" stroke="rgb(0,0,0)" /><polygon points="300,206 299,204 298,206 300,206" stroke="rgb(0,0,0)" /><polygon points="314,472 313,470 310,471 307,469 310,465 309,464 292,466 293,477 303,477 306,475 311,475 314,472" stroke="rgb(0,0,0)" /><polygon points="300,510 298,510 300,510" stroke="rgb(0,0,0)" /><polygon points="307,389 301,387 292,387 292,399 301,400 306,394 307,389" stroke="rgb(0,0,0)" /><polygon points="301,549 299,549 301,549" stroke="rgb(0,0,0)" /><polygon points="302,628 300,628 302,628" stroke="rgb(0,0,0)" /><polygon points="305,587 300,586 298,592 303,593 305,587" stroke="rgb(0,0,0)" /><polygon points="316,701 315,693 298,693 293,695 295,697 293,702 294,704 313,704 313,702 316,701" stroke="rgb(0,0,0)" /><polygon points="322,667 321,653 320,667 322,667" stroke="rgb(0,0,0)" /><polygon points="340,116 338,116 340,116" stroke="rgb(0,0,0)" /><polygon points="353,166 341,165 340,170 342,170 342,167 344,170 344,175 348,176 352,171 353,166" stroke="rgb(0,0,0)" /><polygon points="348,205 346,205 348,205" stroke="rgb(0,0,0)" /><polygon points="349,243 347,243 349,243" stroke="rgb(0,0,0)" /><polygon points="364,287 363,275 346,277 349,281 347,285 350,288 364,287" stroke="rgb(0,0,0)" /><polygon points="360,325 356,321 356,318 358,316 357,315 359,314 349,313 348,318 350,319 351,325 360,325" stroke="rgb(0,0,0)" /><polygon points="350,356 346,350 343,351 346,355 344,359 345,362 348,361 348,357 350,356" stroke="rgb(0,0,0)" /><polygon points="354,402 350,400 352,397 351,390 345,389 343,391 342,397 342,399 344,400 343,403 352,404 354,402" stroke="rgb(0,0,0)" /><polygon points="353,435 353,432 350,431 349,435 353,435" stroke="rgb(0,0,0)" /><polygon points="352,471 351,466 350,471 352,471" stroke="rgb(0,0,0)" /><polygon points="352,549 350,549 352,549" stroke="rgb(0,0,0)" /><polygon points="361,701 360,699 351,699 350,703 357,704 361,701" stroke="rgb(0,0,0)" /><polygon points="366,515 365,507 350,508 352,516 353,514 355,516 366,515" stroke="rgb(0,0,0)" /><polygon points="356,590 355,588 353,589 355,591 356,590" stroke="rgb(0,0,0)" /><polygon points="355,627 353,627 355,627" stroke="rgb(0,0,0)" /><polygon points="389,681 386,679 387,674 385,673 383,681 386,683 389,681" stroke="rgb(0,0,0)" /><polygon points="398,170 396,170 398,170" stroke="rgb(0,0,0)" /><polygon points="402,211 401,202 398,201 396,205 396,211 402,211" stroke="rgb(0,0,0)" /><polygon points="401,243 399,243 401,243" stroke="rgb(0,0,0)" /><polygon points="416,280 415,276 403,276 400,280 402,283 401,286 411,287 412,286 410,284 408,285 410,281 414,282 416,280" stroke="rgb(0,0,0)" /><polygon points="403,318 401,318 403,318" stroke="rgb(0,0,0)" /><polygon points="404,356 401,353 400,354 401,358 404,356" stroke="rgb(0,0,0)" /><polygon points="415,397 414,393 410,393 409,396 406,391 396,392 397,399 401,398 401,400 408,400 409,398 415,397" stroke="rgb(0,0,0)" /><polygon points="405,435 404,430 403,435 405,435" stroke="rgb(0,0,0)" /><polygon points="406,471 403,470 401,473 402,474 406,471" stroke="rgb(0,0,0)" /><polygon points="419,515 418,507 399,508 400,516 419,515" stroke="rgb(0,0,0)" /><polygon points="420,553 419,546 412,546 411,549 410,546 408,547 408,549 406,546 401,555 405,556 407,554 407,556 415,556 416,554 420,553" stroke="rgb(0,0,0)" /><polygon points="420,593 419,590 414,589 414,585 410,586 412,587 410,592 406,586 403,591 404,595 416,595 420,593" stroke="rgb(0,0,0)" /><polygon points="410,628 408,627 407,629 408,630 410,628" stroke="rgb(0,0,0)" /><polygon points="438,125 438,120 435,117 433,117 431,123 428,124 428,119 426,117 421,118 422,127 438,125" stroke="rgb(0,0,0)" /><polygon points="453,168 451,167 450,169 451,170 453,168" stroke="rgb(0,0,0)" /><polygon points="459,204 458,201 454,201 450,205 454,206 455,203 457,203 458,205 459,204" stroke="rgb(0,0,0)" /><polygon points="456,243 454,243 456,243" stroke="rgb(0,0,0)" /><polygon points="457,280 455,280 457,280" stroke="rgb(0,0,0)" /><polygon points="465,323 464,315 463,317 454,317 453,315 450,315 448,317 449,318 445,320 446,324 462,324 463,319 463,323 465,323" stroke="rgb(0,0,0)" /><polygon points="470,359 469,353 446,354 447,361 449,358 456,358 462,361 467,361 470,359" stroke="rgb(0,0,0)" /><polygon points="471,395 469,389 447,392 448,395 451,395 452,393 456,393 458,395 460,393 461,397 463,397 465,400 467,399 467,397 471,395" stroke="rgb(0,0,0)" /><polygon points="471,471 470,467 455,467 452,471 454,473 450,473 448,476 459,477 459,473 461,472 460,470 465,473 471,471" stroke="rgb(0,0,0)" /><polygon points="461,432 459,431 458,433 459,434 461,432" stroke="rgb(0,0,0)" /><polygon points="461,511 460,508 456,509 457,512 461,511" stroke="rgb(0,0,0)" /><polygon points="462,551 462,547 460,545 449,547 449,550 451,552 462,551" stroke="rgb(0,0,0)" /><polygon points="470,594 469,586 468,589 464,585 459,588 460,594 470,594" stroke="rgb(0,0,0)" /><polygon points="463,628 460,628 463,628" stroke="rgb(0,0,0)" /><polygon points="501,698 500,695 488,695 485,697 485,705 499,706 501,698" stroke="rgb(0,0,0)" /><polygon points="520,126 519,118 502,117 496,119 497,127 517,128 520,126" stroke="rgb(0,0,0)" /><polygon points="514,174 513,168 508,167 506,164 504,167 496,167 496,172 497,173 498,170 499,175 514,174" stroke="rgb(0,0,0)" /><polygon points="510,211 510,204 508,203 507,210 509,212 510,211" stroke="rgb(0,0,0)" /><polygon points="509,243 507,243 509,243" stroke="rgb(0,0,0)" /><polygon points="509,283 509,280 505,276 500,277 503,279 502,281 504,283 509,283" stroke="rgb(0,0,0)" /><polygon points="529,686 528,674 506,675 507,688 515,685 528,687 529,686" stroke="rgb(0,0,0)" /><polygon points="512,323 510,316 499,316 500,324 512,323" stroke="rgb(0,0,0)" /><polygon points="513,361 512,353 500,354 500,359 502,361 513,361" stroke="rgb(0,0,0)" /><polygon points="512,399 512,392 510,391 510,389 501,390 502,400 512,399" stroke="rgb(0,0,0)" /><polygon points="525,433 524,428 501,429 503,438 508,438 509,435 512,434 510,432 509,433 509,430 512,430 513,434 515,433 515,431 516,434 525,433" stroke="rgb(0,0,0)" /><polygon points="512,471 508,467 506,467 502,471 502,473 503,474 512,471" stroke="rgb(0,0,0)" /><polygon points="526,515 525,513 519,511 515,512 512,510 503,510 504,516 513,517 526,515" stroke="rgb(0,0,0)" /><polygon points="527,552 527,548 523,547 523,545 518,545 518,547 514,545 503,546 503,554 506,556 518,556 518,554 527,552" stroke="rgb(0,0,0)" /><polygon points="527,589 526,585 521,585 519,587 517,585 516,587 511,587 509,591 509,589 508,588 507,590 505,586 504,594 523,595 527,589" stroke="rgb(0,0,0)" /><polygon points="528,634 527,625 513,625 510,627 512,628 511,630 505,630 506,635 528,634" stroke="rgb(0,0,0)" /><polygon points="574,110 574,107 571,105 568,106 566,101 554,102 556,111 574,110" stroke="rgb(0,0,0)" /><polygon points="576,173 575,163 567,163 566,167 564,168 562,163 552,165 552,172 553,173 555,171 555,174 576,173" stroke="rgb(0,0,0)" /><polygon points="564,205 563,201 559,202 561,207 564,205" stroke="rgb(0,0,0)" /><polygon points="568,242 564,241 563,239 562,240 564,244 568,242" stroke="rgb(0,0,0)" /><polygon points="565,282 562,276 559,276 557,278 557,283 559,286 563,285 565,282" stroke="rgb(0,0,0)" /><polygon points="565,356 563,353 560,354 561,359 563,359 565,356" stroke="rgb(0,0,0)" /><polygon points="579,323 578,321 566,319 567,317 569,319 578,320 579,318 577,313 576,317 570,317 567,313 554,314 556,320 561,321 563,315 562,317 564,318 565,322 572,324 579,323" stroke="rgb(0,0,0)" /><polygon points="575,134 574,126 564,127 567,137 573,136 575,134" stroke="rgb(0,0,0)" /><polygon points="580,397 580,390 578,389 568,390 565,393 560,392 558,398 575,398 577,396 577,393 577,397 580,397" stroke="rgb(0,0,0)" /><polygon points="581,476 581,470 577,469 576,467 559,467 556,469 557,478 575,478 581,476" stroke="rgb(0,0,0)" /><polygon points="580,437 580,430 578,428 556,429 557,439 576,439 580,437" stroke="rgb(0,0,0)" /><polygon points="577,515 574,514 573,508 571,506 567,507 566,514 568,514 568,512 569,517 577,515" stroke="rgb(0,0,0)" /><polygon points="569,555 568,547 564,545 563,546 565,555 569,555" stroke="rgb(0,0,0)" /><polygon points="571,590 569,590 571,590" stroke="rgb(0,0,0)" /><polygon points="571,629 569,629 571,629" stroke="rgb(0,0,0)" /><polygon points="710,680 710,666 708,664 710,663 710,643 707,643 709,642 710,638 707,636 710,633 708,628 708,543 710,540 709,464 710,462 708,460 699,462 701,464 702,473 702,482 700,484 667,485 664,484 663,468 664,462 666,461 655,460 654,491 660,493 654,493 653,460 652,455 650,453 652,448 651,386 647,382 642,388 643,406 641,407 606,406 606,378 612,376 624,377 624,375 627,375 628,377 631,374 624,368 608,369 607,374 604,377 604,385 603,376 598,376 597,378 596,376 595,377 595,385 594,378 563,378 563,376 559,372 555,376 556,377 554,377 537,395 531,399 530,407 519,407 505,421 508,422 508,424 512,424 514,422 516,424 527,424 527,422 530,423 532,431 531,445 497,445 495,442 497,441 497,435 495,433 493,435 492,434 474,452 476,454 472,454 467,459 470,462 474,462 474,460 476,460 478,465 478,482 476,484 443,483 424,502 425,522 403,523 375,551 382,553 381,568 384,572 380,571 381,556 379,555 373,558 372,562 364,562 356,570 357,572 354,572 350,576 353,579 356,579 358,577 360,579 373,580 372,602 343,602 342,604 339,600 338,588 320,606 324,609 332,609 332,624 339,631 341,619 374,619 374,635 376,635 376,633 377,636 381,636 383,632 383,636 385,637 385,644 383,645 386,646 390,644 391,645 389,645 389,647 488,647 489,644 491,647 540,647 542,640 543,647 545,641 545,632 545,646 549,648 549,651 587,651 590,655 594,656 588,655 586,657 586,653 571,653 570,655 568,653 549,653 548,687 549,688 550,686 551,689 642,688 694,690 708,689 710,680" stroke="rgb(0,0,0)" /><polygon points="602,110 602,103 600,100 598,102 597,100 588,100 585,102 588,105 589,102 590,104 591,102 594,105 595,107 590,107 589,109 591,111 595,109 595,111 602,110" stroke="rgb(0,0,0)" /><polygon points="605,131 603,131 605,131" stroke="rgb(0,0,0)" /><polygon points="627,698 616,698 614,702 622,703 625,702 627,698" stroke="rgb(0,0,0)" /><polygon points="625,319 623,315 620,315 618,318 621,320 625,319" stroke="rgb(0,0,0)" /><polygon points="624,171 622,165 621,164 619,166 620,168 618,163 617,168 622,172 624,171" stroke="rgb(0,0,0)" /><polygon points="627,207 623,202 619,202 619,205 617,206 619,211 620,209 626,209 623,205 626,208 627,207" stroke="rgb(0,0,0)" /><polygon points="623,243 622,237 620,242 622,244 623,243" stroke="rgb(0,0,0)" /><polygon points="624,281 624,276 622,276 622,279 620,275 618,277 619,281 621,283 624,281" stroke="rgb(0,0,0)" /><polygon points="625,429 619,429 620,436 622,439 623,430 625,429" stroke="rgb(0,0,0)" /><polygon points="625,469 621,467 618,469 617,472 621,473 625,469" stroke="rgb(0,0,0)" /><polygon points="636,361 634,351 625,351 624,354 621,354 620,351 611,352 612,362 636,361" stroke="rgb(0,0,0)" /><polygon points="624,511 624,509 622,508 621,511 624,511" stroke="rgb(0,0,0)" /><polygon points="623,550 621,550 623,550" stroke="rgb(0,0,0)" /><polygon points="625,595 623,586 617,585 617,595 625,595" stroke="rgb(0,0,0)" /><polygon points="624,395 623,393 622,395 624,395" stroke="rgb(0,0,0)" /><polygon points="629,634 627,625 615,625 621,628 622,627 621,632 623,635 629,634" stroke="rgb(0,0,0)" /><polygon points="664,675 663,666 658,666 657,670 655,671 651,671 649,669 651,668 649,666 645,667 647,676 664,675" stroke="rgb(0,0,0)" /><polygon points="692,172 691,167 688,168 682,162 676,163 676,166 683,173 692,172" stroke="rgb(0,0,0)" /><polygon points="680,204 677,199 672,199 670,201 673,205 674,211 678,210 677,205 680,204" stroke="rgb(0,0,0)" /><polygon points="681,280 680,276 677,275 677,281 679,282 681,280" stroke="rgb(0,0,0)" /><polygon points="681,243 678,243 681,243" stroke="rgb(0,0,0)" /><polygon points="680,428 678,428 680,428" stroke="rgb(0,0,0)" /><polygon points="691,553 689,551 688,546 685,547 685,552 683,546 681,546 677,550 678,553 675,548 671,549 675,557 684,557 684,554 687,557 689,557 691,553" stroke="rgb(0,0,0)" /><polygon points="681,317 679,317 681,317" stroke="rgb(0,0,0)" /><polygon points="682,362 680,362 682,362" stroke="rgb(0,0,0)" /><polygon points="682,514 682,511 679,508 678,514 680,518 682,514" stroke="rgb(0,0,0)" /><polygon points="694,595 694,591 688,589 693,588 693,586 679,586 676,591 676,593 680,596 689,597 694,595" stroke="rgb(0,0,0)" /><polygon points="684,704 683,698 680,697 676,703 678,705 684,704" stroke="rgb(0,0,0)" /><polygon points="689,470 687,469 687,467 682,467 681,477 685,478 685,472 689,470" stroke="rgb(0,0,0)" /><polygon points="695,636 694,626 682,627 683,629 681,630 683,632 684,637 695,636" stroke="rgb(0,0,0)" /><polygon points="683,669 681,669 683,669" stroke="rgb(0,0,0)" /><polygon points="724,426 720,426 724,426" stroke="rgb(0,0,0)" /><polygon points="728,306 727,304 726,306 728,306" stroke="rgb(0,0,0)" /><polygon points="737,209 736,204 730,203 725,205 726,210 737,209" stroke="rgb(0,0,0)" /><polygon points="731,589 729,589 731,589" stroke="rgb(0,0,0)" /><polygon points="752,629 752,625 748,620 724,621 724,628 726,630 752,629" stroke="rgb(0,0,0)" /><polygon points="737,674 735,674 737,674" stroke="rgb(0,0,0)" /><polygon points="752,536 737,534 733,536 738,538 752,536" stroke="rgb(0,0,0)" /><polygon points="767,505 767,484 765,484 767,478 767,471 765,471 765,475 764,469 761,468 759,470 760,481 758,476 758,467 750,465 749,461 732,461 731,505 733,506 731,508 731,521 744,522 744,520 738,520 745,518 763,521 766,519 765,509 764,513 763,510 758,511 758,517 757,513 754,510 746,510 745,514 744,509 746,504 747,507 767,505" stroke="rgb(0,0,0)" /><polygon points="763,627 763,625 761,624 760,627 763,627" stroke="rgb(0,0,0)" /><polygon points="767,370 765,368 763,370 767,370" stroke="rgb(0,0,0)" /><polygon points="779,418 777,417 778,416 776,414 764,416 765,419 779,418" stroke="rgb(0,0,0)" /><polygon points="768,706 765,704 767,704 767,702 744,703 747,707 760,706 766,708 768,706" stroke="rgb(0,0,0)" /><polygon points="771,587 769,587 771,587" stroke="rgb(0,0,0)" /></svg>