<?xml version="1.0" encoding="utf-8" ?>
<svg baseProfile="full" height="100%" version="1.1" width="100%" xmlns="http://www.w3.org/2000/svg" xmlns:ev="http://www.w3.org/2001/xml-events" xmlns:xlink="http://www.w3.org/1999/xlink"><defs /><polygon points="776,592 772,583 768,580 767,583 769,587 770,585 770,590 772,592 776,592" stroke="rgb(0,0,0)" /><polygon points="779,707 777,702 743,703 747,707 779,707" stroke="rgb(0,0,0)" /><polygon points="779,366 776,363 751,363 756,364 755,365 757,367 769,368 779,366" stroke="rgb(0,0,0)" /><polygon points="769,423 767,423 769,423" stroke="rgb(0,0,0)" /><polygon points="782,615 781,607 744,606 741,610 741,615 743,617 755,618 759,620 758,624 762,630 768,629 764,621 764,626 763,625 764,618 772,618 774,622 778,625 778,635 780,638 780,621 782,615" stroke="rgb(0,0,0)" /><polygon points="759,528 756,526 729,527 726,523 725,544 727,544 728,540 731,538 729,534 731,535 731,537 757,537 759,528" stroke="rgb(0,0,0)" /><polygon points="765,673 738,673 765,673" stroke="rgb(0,0,0)" /><polygon points="768,484 767,469 751,465 750,464 750,462 752,461 751,460 743,461 740,458 739,460 732,460 730,483 730,521 765,522 768,484" stroke="rgb(0,0,0)" /><polygon points="754,621 752,620 750,622 748,620 725,620 724,630 752,631 752,623 754,621" stroke="rgb(0,0,0)" /><polygon points="734,590 732,590 734,590" stroke="rgb(0,0,0)" /><polygon points="738,209 736,204 725,205 726,211 738,209" stroke="rgb(0,0,0)" /><polygon points="745,306 743,302 739,304 740,302 737,300 735,302 729,302 727,304 732,304 730,306 732,307 725,311 725,321 727,321 728,316 739,316 741,314 740,310 745,306" stroke="rgb(0,0,0)" /><polygon points="743,164 741,162 739,163 739,161 734,161 729,164 731,167 732,165 735,166 738,170 741,169 741,165 743,164" stroke="rgb(0,0,0)" /><polygon points="725,415 721,413 719,414 719,416 723,419 725,415" stroke="rgb(0,0,0)" /><polygon points="687,515 684,507 683,512 686,516 687,515" stroke="rgb(0,0,0)" /><polygon points="695,636 694,626 682,627 681,631 683,637 695,636" stroke="rgb(0,0,0)" /><polygon points="695,592 693,589 695,587 694,586 669,586 673,587 669,589 671,592 673,591 673,593 670,594 671,596 672,595 681,597 693,597 695,592" stroke="rgb(0,0,0)" /><polygon points="694,323 693,313 692,319 690,312 680,312 679,314 673,314 675,324 694,323" stroke="rgb(0,0,0)" /><polygon points="695,555 695,550 693,546 681,546 677,549 675,546 669,547 670,556 673,555 674,557 693,558 695,555" stroke="rgb(0,0,0)" /><polygon points="695,473 694,467 679,467 677,478 693,479 695,473" stroke="rgb(0,0,0)" /><polygon points="682,359 680,359 682,359" stroke="rgb(0,0,0)" /><polygon points="694,251 688,249 688,247 686,248 687,247 682,243 680,244 680,246 675,246 673,243 672,245 671,242 669,242 666,245 669,247 667,248 670,251 674,249 683,250 684,253 694,251" stroke="rgb(0,0,0)" /><polygon points="693,210 692,199 667,199 667,201 665,202 666,208 669,209 669,211 693,210" stroke="rgb(0,0,0)" /><polygon points="680,693 678,693 680,693" stroke="rgb(0,0,0)" /><polygon points="689,426 684,418 683,423 681,422 680,425 676,427 687,428 689,426" stroke="rgb(0,0,0)" /><polygon points="693,172 691,162 675,162 674,168 674,164 672,162 665,163 666,174 693,172" stroke="rgb(0,0,0)" /><polygon points="695,282 695,277 693,275 690,276 682,274 676,276 667,276 668,281 669,278 669,280 673,282 675,281 674,280 676,280 674,282 677,283 679,287 693,287 695,282" stroke="rgb(0,0,0)" /><polygon points="665,675 664,666 644,666 646,669 646,676 665,675" stroke="rgb(0,0,0)" /><polygon points="627,701 626,696 614,699 615,704 625,703 627,701" stroke="rgb(0,0,0)" /><polygon points="629,596 629,588 627,585 626,587 625,585 616,586 615,589 618,597 629,596" stroke="rgb(0,0,0)" /><polygon points="635,636 633,635 630,625 615,625 616,627 621,628 621,633 623,637 635,636" stroke="rgb(0,0,0)" /><polygon points="626,510 624,508 620,509 622,512 626,510" stroke="rgb(0,0,0)" /><polygon points="625,434 623,434 625,434" stroke="rgb(0,0,0)" /><polygon points="625,398 625,394 622,392 622,396 624,399 625,398" stroke="rgb(0,0,0)" /><polygon points="625,551 624,548 622,550 624,552 625,551" stroke="rgb(0,0,0)" /><polygon points="626,469 625,466 619,466 616,472 617,468 614,467 613,470 612,467 611,474 616,475 622,473 624,471 623,470 626,469" stroke="rgb(0,0,0)" /><polygon points="636,361 634,351 611,352 612,362 636,361" stroke="rgb(0,0,0)" /><polygon points="636,282 636,278 635,277 634,279 631,275 629,277 633,281 633,283 626,275 624,281 624,276 619,275 618,280 618,278 615,276 611,278 610,285 634,286 636,282" stroke="rgb(0,0,0)" /><polygon points="635,248 634,237 632,237 632,239 630,237 625,237 623,242 622,237 621,244 619,237 609,238 609,244 611,249 635,248" stroke="rgb(0,0,0)" /><polygon points="636,323 634,313 628,316 632,320 630,321 631,322 626,321 623,313 619,313 618,317 616,314 611,313 609,317 611,325 633,324 634,322 635,324 636,323" stroke="rgb(0,0,0)" /><polygon points="633,210 631,203 627,200 625,200 624,202 622,200 620,202 618,200 618,204 615,200 608,201 609,211 628,211 629,209 627,206 631,211 633,210" stroke="rgb(0,0,0)" /><polygon points="633,169 632,163 615,163 614,166 614,164 612,163 607,167 609,174 618,173 619,171 625,174 630,174 632,172 631,169 633,169" stroke="rgb(0,0,0)" /><polygon points="602,135 601,126 579,127 581,130 584,131 583,134 579,134 581,137 598,137 602,135" stroke="rgb(0,0,0)" /><polygon points="710,719 710,496 702,488 690,500 692,502 697,501 701,504 700,523 665,523 665,501 644,480 641,484 608,483 607,464 610,462 623,463 625,461 589,425 586,428 587,437 585,445 552,445 552,424 581,423 564,406 551,406 550,392 519,423 531,424 531,445 497,445 477,465 477,483 458,484 425,517 424,522 419,523 403,539 425,541 424,562 392,562 392,554 390,552 388,553 363,578 365,580 371,579 373,581 373,600 371,602 340,601 321,620 321,638 323,640 312,642 299,642 296,645 298,647 545,647 548,649 548,691 551,693 548,694 549,718 663,720 710,719" stroke="rgb(0,0,0)" /><polygon points="572,629 571,627 570,629 572,629" stroke="rgb(0,0,0)" /><polygon points="583,595 581,593 583,592 582,584 572,584 571,589 568,585 564,586 564,596 567,596 570,591 572,597 580,597 583,595" stroke="rgb(0,0,0)" /><polygon points="581,556 580,548 578,545 569,546 569,554 571,554 571,550 571,557 581,556" stroke="rgb(0,0,0)" /><polygon points="582,517 581,515 574,513 573,507 571,505 565,507 564,513 566,513 567,518 582,517" stroke="rgb(0,0,0)" /><polygon points="581,477 580,467 556,468 557,478 581,477" stroke="rgb(0,0,0)" /><polygon points="581,437 580,428 556,429 557,439 579,439 581,437" stroke="rgb(0,0,0)" /><polygon points="580,399 579,389 555,390 556,400 570,398 574,398 577,400 580,399" stroke="rgb(0,0,0)" /><polygon points="579,323 578,313 575,317 571,317 567,313 554,314 554,320 562,322 555,322 555,325 579,323" stroke="rgb(0,0,0)" /><polygon points="580,362 577,360 573,360 580,358 579,351 569,351 568,358 566,351 565,360 563,351 554,352 554,360 556,363 580,362" stroke="rgb(0,0,0)" /><polygon points="575,283 574,279 572,277 571,278 570,275 567,275 566,278 564,278 566,281 564,281 562,275 554,276 555,287 564,287 565,283 567,287 570,287 571,283 575,283" stroke="rgb(0,0,0)" /><polygon points="578,239 566,237 565,239 569,240 568,243 568,241 565,241 563,238 559,239 556,237 553,239 553,241 556,243 556,245 553,248 565,249 565,247 570,247 572,249 572,240 578,239" stroke="rgb(0,0,0)" /><polygon points="577,211 576,200 552,201 553,212 569,212 569,210 571,212 577,211" stroke="rgb(0,0,0)" /><polygon points="577,168 577,165 575,163 551,164 553,174 575,174 577,168" stroke="rgb(0,0,0)" /><polygon points="564,133 563,129 557,131 561,136 562,132 563,134 564,133" stroke="rgb(0,0,0)" /><polygon points="575,110 573,105 568,105 567,100 553,102 556,111 575,110" stroke="rgb(0,0,0)" /><polygon points="529,695 511,694 510,695 512,705 519,707 525,706 527,704 527,696 529,695" stroke="rgb(0,0,0)" /><polygon points="529,634 529,626 527,624 506,624 504,627 506,635 529,634" stroke="rgb(0,0,0)" /><polygon points="528,589 527,584 511,585 510,588 509,585 507,587 505,585 504,594 524,595 526,590 528,589" stroke="rgb(0,0,0)" /><polygon points="527,555 526,545 503,546 504,556 527,555" stroke="rgb(0,0,0)" /><polygon points="527,516 525,506 502,507 503,517 527,516" stroke="rgb(0,0,0)" /><polygon points="526,477 525,466 502,468 503,478 526,477" stroke="rgb(0,0,0)" /><polygon points="529,686 528,674 513,674 512,672 506,674 507,688 513,686 529,686" stroke="rgb(0,0,0)" /><polygon points="526,438 524,428 501,429 502,439 526,438" stroke="rgb(0,0,0)" /><polygon points="513,399 512,389 501,390 502,400 513,399" stroke="rgb(0,0,0)" /><polygon points="524,362 523,351 499,352 501,363 513,363 513,358 515,363 524,362" stroke="rgb(0,0,0)" /><polygon points="512,323 511,313 499,314 500,324 512,323" stroke="rgb(0,0,0)" /><polygon points="514,285 513,281 510,280 512,279 510,278 510,276 499,277 502,280 499,281 500,284 504,283 507,285 514,285" stroke="rgb(0,0,0)" /><polygon points="523,240 522,238 518,239 519,246 518,239 515,238 514,246 513,239 510,237 507,238 509,239 508,242 509,247 511,249 521,249 521,241 523,240" stroke="rgb(0,0,0)" /><polygon points="516,211 515,202 512,200 507,201 507,211 516,211" stroke="rgb(0,0,0)" /><polygon points="518,174 515,163 513,164 515,173 511,165 510,167 508,167 506,164 504,166 496,167 497,175 518,174" stroke="rgb(0,0,0)" /><polygon points="520,130 519,116 496,117 496,127 499,131 520,130" stroke="rgb(0,0,0)" /><polygon points="501,705 500,694 486,695 480,700 482,703 484,702 486,706 501,705" stroke="rgb(0,0,0)" /><polygon points="501,667 500,654 486,653 479,655 480,668 482,667 482,660 485,668 501,667" stroke="rgb(0,0,0)" /><polygon points="481,133 470,133 481,133" stroke="rgb(0,0,0)" /><polygon points="475,631 474,624 450,625 451,635 465,635 466,629 467,635 469,636 470,631 471,635 473,635 475,631" stroke="rgb(0,0,0)" /><polygon points="474,594 473,584 470,585 471,591 469,584 461,584 459,588 458,584 451,584 449,586 451,595 474,594" stroke="rgb(0,0,0)" /><polygon points="473,555 472,545 449,546 450,556 473,555" stroke="rgb(0,0,0)" /><polygon points="473,515 473,508 471,506 448,507 450,516 471,517 473,515" stroke="rgb(0,0,0)" /><polygon points="472,477 471,467 452,468 453,467 451,466 448,468 449,478 460,478 461,472 464,473 462,474 463,478 472,477" stroke="rgb(0,0,0)" /><polygon points="472,435 470,433 470,428 447,429 448,439 470,439 472,435" stroke="rgb(0,0,0)" /><polygon points="471,399 470,389 447,390 447,394 451,396 450,398 447,399 448,400 471,399" stroke="rgb(0,0,0)" /><polygon points="470,360 469,351 446,352 447,363 448,360 453,358 457,360 459,363 461,361 462,363 468,363 470,360" stroke="rgb(0,0,0)" /><polygon points="469,323 468,313 464,313 463,315 461,315 461,313 450,313 445,316 445,323 449,325 469,323" stroke="rgb(0,0,0)" /><polygon points="469,283 469,279 465,276 461,276 460,279 458,275 457,279 455,276 445,277 445,282 449,285 461,285 469,283" stroke="rgb(0,0,0)" /><polygon points="468,246 467,238 443,239 445,249 458,249 461,246 468,246" stroke="rgb(0,0,0)" /><polygon points="468,209 464,207 468,205 465,201 461,201 460,206 458,201 443,202 444,212 463,212 464,210 468,209" stroke="rgb(0,0,0)" /><polygon points="457,700 454,699 453,701 454,702 457,700" stroke="rgb(0,0,0)" /><polygon points="459,168 445,167 444,169 451,171 457,170 459,168" stroke="rgb(0,0,0)" /><polygon points="466,112 465,101 442,102 443,113 466,112" stroke="rgb(0,0,0)" /><polygon points="448,659 446,654 443,655 441,660 441,653 427,653 427,655 434,655 426,657 425,667 429,668 433,662 431,666 432,668 443,668 444,660 448,659" stroke="rgb(0,0,0)" /><polygon points="434,112 433,101 425,101 424,105 424,102 422,102 422,110 420,112 421,114 434,112" stroke="rgb(0,0,0)" /><polygon points="420,135 418,135 420,135" stroke="rgb(0,0,0)" /><polygon points="421,634 420,624 407,624 405,627 405,633 403,634 406,635 408,631 409,635 421,634" stroke="rgb(0,0,0)" /><polygon points="420,594 419,584 406,584 402,593 403,595 420,594" stroke="rgb(0,0,0)" /><polygon points="420,555 419,544 409,544 408,546 406,544 403,546 402,544 400,548 399,547 395,549 395,553 398,553 396,554 398,555 398,557 415,557 420,555" stroke="rgb(0,0,0)" /><polygon points="419,699 418,693 406,693 404,695 404,705 417,706 419,699" stroke="rgb(0,0,0)" /><polygon points="419,515 418,505 395,506 396,516 415,517 419,515" stroke="rgb(0,0,0)" /><polygon points="419,477 419,472 416,471 416,466 402,466 401,469 399,466 395,467 396,469 394,473 396,475 396,478 419,477" stroke="rgb(0,0,0)" /><polygon points="419,433 417,428 403,428 400,431 398,431 400,429 399,428 394,429 394,435 396,439 402,439 402,433 405,440 408,440 408,438 417,439 419,433" stroke="rgb(0,0,0)" /><polygon points="418,399 418,395 416,393 418,392 417,389 395,390 397,400 418,399" stroke="rgb(0,0,0)" /><polygon points="417,362 416,351 404,352 405,362 417,362" stroke="rgb(0,0,0)" /><polygon points="404,318 402,318 404,318" stroke="rgb(0,0,0)" /><polygon points="416,281 415,276 403,275 401,277 399,285 401,285 402,288 411,288 413,282 416,281" stroke="rgb(0,0,0)" /><polygon points="402,244 400,244 402,244" stroke="rgb(0,0,0)" /><polygon points="402,211 402,202 398,201 395,208 396,200 392,199 392,211 402,211" stroke="rgb(0,0,0)" /><polygon points="402,169 400,166 401,163 399,162 398,166 397,163 397,170 398,171 399,168 401,170 402,169" stroke="rgb(0,0,0)" /><polygon points="395,665 393,653 385,655 381,653 373,654 374,667 380,666 381,668 393,668 395,665" stroke="rgb(0,0,0)" /><polygon points="357,628 355,628 357,628" stroke="rgb(0,0,0)" /><polygon points="365,591 364,589 361,591 356,586 353,590 350,591 355,593 357,592 357,596 361,596 361,593 365,591" stroke="rgb(0,0,0)" /><polygon points="358,546 357,544 351,544 350,545 352,546 348,549 352,553 354,553 354,547 358,546" stroke="rgb(0,0,0)" /><polygon points="367,515 366,505 349,506 352,516 367,515" stroke="rgb(0,0,0)" /><polygon points="353,471 351,471 353,471" stroke="rgb(0,0,0)" /><polygon points="355,436 355,429 351,427 348,431 347,436 355,436" stroke="rgb(0,0,0)" /><polygon points="359,401 353,400 354,396 352,396 352,398 351,388 342,390 343,404 354,404 355,402 357,403 359,401" stroke="rgb(0,0,0)" /><polygon points="368,355 367,349 365,350 366,353 364,349 353,349 352,350 354,353 349,358 349,352 347,350 344,350 344,362 342,365 362,366 363,365 360,362 365,355 368,355" stroke="rgb(0,0,0)" /><polygon points="365,327 356,321 356,318 361,315 360,313 341,313 342,327 365,327" stroke="rgb(0,0,0)" /><polygon points="364,288 363,275 347,275 343,273 341,274 341,277 342,278 345,276 343,279 347,280 345,288 346,289 364,288" stroke="rgb(0,0,0)" /><polygon points="349,244 347,244 349,244" stroke="rgb(0,0,0)" /><polygon points="349,206 348,204 347,206 349,206" stroke="rgb(0,0,0)" /><polygon points="353,167 352,164 341,164 341,175 343,175 343,171 345,176 349,176 353,167" stroke="rgb(0,0,0)" /><polygon points="397,92 323,92 323,94 329,94 329,97 319,97 317,99 321,102 321,106 324,109 324,111 321,113 321,111 319,110 317,114 312,114 313,118 315,116 319,117 319,124 317,127 315,129 313,129 312,127 311,128 311,132 314,134 314,136 311,139 312,151 317,152 320,148 321,149 319,150 322,152 324,149 322,145 325,141 330,138 334,132 338,131 341,132 336,133 333,138 326,142 324,146 326,151 361,152 362,146 363,150 365,150 365,147 366,151 368,143 366,136 371,134 369,133 372,132 374,128 373,127 365,131 372,126 375,121 379,120 378,118 375,119 375,116 371,115 371,113 378,108 378,100 380,100 379,106 380,107 382,105 382,109 385,103 385,109 383,112 385,112 384,115 388,117 390,115 390,110 388,107 387,108 387,103 393,97 391,93 397,92" stroke="rgb(0,0,0)" /><polygon points="361,650 338,648 280,650 278,649 277,657 282,667 283,653 289,651 291,669 292,651 297,651 299,652 297,656 297,652 294,652 292,654 293,668 311,669 316,667 315,652 317,652 317,670 310,670 310,672 302,672 300,677 300,674 298,672 297,676 294,673 293,682 306,682 316,686 317,681 318,686 328,686 338,683 344,684 348,681 357,679 356,670 359,653 361,650" stroke="rgb(0,0,0)" /><polygon points="316,705 315,693 293,694 294,706 316,705" stroke="rgb(0,0,0)" /><polygon points="304,629 302,629 304,629" stroke="rgb(0,0,0)" /><polygon points="308,587 306,585 300,586 298,588 297,594 302,595 304,593 305,588 308,587" stroke="rgb(0,0,0)" /><polygon points="302,549 300,549 302,549" stroke="rgb(0,0,0)" /><polygon points="318,515 317,503 307,502 292,504 293,516 299,510 300,505 304,506 304,510 308,504 305,511 302,510 301,506 300,507 300,512 298,514 301,516 312,516 312,508 312,511 314,513 313,514 316,516 318,515" stroke="rgb(0,0,0)" /><polygon points="318,477 318,467 316,464 312,470 308,469 310,465 309,464 292,465 291,473 293,477 308,477 314,473 313,476 315,477 316,474 316,477 318,477" stroke="rgb(0,0,0)" /><polygon points="317,401 316,387 291,388 292,400 302,400 304,397 307,396 307,389 307,397 310,400 314,400 315,397 315,401 317,401" stroke="rgb(0,0,0)" /><polygon points="309,436 307,426 291,427 291,437 293,439 307,439 309,436" stroke="rgb(0,0,0)" /><polygon points="303,361 299,351 290,352 292,362 293,359 294,362 303,361" stroke="rgb(0,0,0)" /><polygon points="305,324 301,320 301,311 294,311 294,313 290,314 290,317 295,321 297,325 305,324" stroke="rgb(0,0,0)" /><polygon points="305,282 304,276 298,276 297,274 294,274 290,277 292,287 299,287 300,284 301,286 305,282" stroke="rgb(0,0,0)" /><polygon points="313,245 313,240 311,238 309,238 308,241 307,238 293,238 291,240 291,243 289,244 292,246 294,250 308,250 313,245" stroke="rgb(0,0,0)" /><polygon points="301,206 301,202 297,201 297,206 301,206" stroke="rgb(0,0,0)" /><polygon points="298,168 296,168 298,168" stroke="rgb(0,0,0)" /><polygon points="289,704 288,697 284,697 282,699 282,703 282,701 279,699 274,698 272,701 272,703 275,706 285,706 286,704 289,704" stroke="rgb(0,0,0)" /><polygon points="277,117 275,117 277,117" stroke="rgb(0,0,0)" /><polygon points="261,425 256,425 261,425" stroke="rgb(0,0,0)" /><polygon points="275,357 214,357 256,359 275,357" stroke="rgb(0,0,0)" /><polygon points="278,612 277,609 202,608 200,610 200,616 198,620 200,610 198,608 188,608 188,610 196,610 196,613 193,615 192,621 192,628 194,629 179,630 178,640 174,646 178,648 186,648 187,634 187,645 191,647 188,649 188,668 211,669 213,665 211,652 212,651 202,650 212,648 212,621 213,646 216,647 216,649 222,650 215,651 215,662 215,660 213,660 214,669 215,667 216,669 222,669 222,667 238,667 239,669 240,667 248,667 248,669 263,669 263,650 264,647 266,649 267,648 265,641 264,645 263,614 264,612 265,628 266,612 278,612" stroke="rgb(0,0,0)" /><polygon points="262,177 260,173 239,173 238,187 252,188 257,185 258,178 262,177" stroke="rgb(0,0,0)" /><polygon points="266,515 266,508 263,506 257,507 257,504 253,504 253,502 215,503 217,504 217,515 228,515 228,513 233,511 233,507 237,505 240,509 241,506 242,508 242,510 238,512 239,515 266,515" stroke="rgb(0,0,0)" /><polygon points="263,200 256,199 252,200 251,204 250,201 244,203 245,207 246,205 247,211 248,204 249,210 252,209 252,206 252,215 250,216 251,217 260,215 260,204 258,201 263,200" stroke="rgb(0,0,0)" /><polygon points="261,698 260,693 250,692 248,695 247,693 245,696 244,704 257,705 261,698" stroke="rgb(0,0,0)" /><polygon points="266,593 265,582 252,581 231,581 231,583 222,583 221,586 216,590 217,593 266,593" stroke="rgb(0,0,0)" /><polygon points="264,326 263,311 250,312 247,325 239,326 241,328 262,328 264,326" stroke="rgb(0,0,0)" /><polygon points="252,277 247,276 241,284 240,282 237,284 237,287 245,287 245,284 247,282 247,285 252,277" stroke="rgb(0,0,0)" /><polygon points="266,553 265,542 237,542 238,548 239,549 241,547 240,550 242,554 247,554 249,549 248,548 250,554 264,555 266,553" stroke="rgb(0,0,0)" /><polygon points="265,464 258,463 257,466 255,466 255,464 249,464 247,466 245,475 247,477 257,477 257,475 259,474 259,470 261,468 260,465 265,464" stroke="rgb(0,0,0)" /><polygon points="262,406 261,385 239,386 239,403 241,407 262,406" stroke="rgb(0,0,0)" /><polygon points="262,249 261,239 253,239 250,241 248,239 243,240 245,250 253,250 255,246 256,250 262,249" stroke="rgb(0,0,0)" /><polygon points="237,699 236,693 229,695 219,692 216,693 217,697 221,697 223,699 226,697 231,697 233,702 237,699" stroke="rgb(0,0,0)" /><polygon points="208,392 206,392 208,392" stroke="rgb(0,0,0)" /><polygon points="213,593 212,583 199,583 196,586 198,589 205,589 206,593 213,593" stroke="rgb(0,0,0)" /><polygon points="214,515 213,505 211,505 210,503 205,503 205,511 202,511 202,515 214,515" stroke="rgb(0,0,0)" /><polygon points="234,472 232,470 225,469 221,471 216,468 215,464 210,464 208,466 190,465 189,476 193,477 189,479 196,481 210,480 210,478 208,478 209,474 212,474 212,468 212,474 214,474 214,466 215,477 219,474 228,474 232,477 234,472" stroke="rgb(0,0,0)" /><polygon points="204,320 202,320 204,320" stroke="rgb(0,0,0)" /><polygon points="213,214 212,201 211,203 210,200 196,200 189,202 190,215 210,215 211,206 211,214 213,214" stroke="rgb(0,0,0)" /><polygon points="214,290 209,288 203,289 201,285 202,280 200,278 200,274 189,276 189,287 191,291 214,290" stroke="rgb(0,0,0)" /><polygon points="214,558 213,541 194,542 200,543 201,545 200,548 199,544 195,545 194,553 205,554 201,556 190,555 189,556 191,558 214,558" stroke="rgb(0,0,0)" /><polygon points="203,252 202,238 190,237 189,253 199,254 203,252" stroke="rgb(0,0,0)" /><polygon points="185,699 184,692 178,692 178,695 174,694 174,692 170,692 170,698 168,698 168,694 166,694 166,699 169,701 166,700 164,704 177,706 180,704 182,699 185,699" stroke="rgb(0,0,0)" /><polygon points="278,612 277,609 202,608 200,610 200,616 198,620 200,610 198,608 188,608 188,610 196,610 196,613 193,615 192,621 192,628 194,629 179,630 178,640 174,646 178,648 186,648 187,634 187,645 191,647 188,649 188,668 211,669 213,665 211,652 212,651 202,650 212,648 212,621 213,646 216,647 216,649 222,650 215,651 215,662 215,660 213,660 214,669 215,667 216,669 222,669 222,667 238,667 239,669 240,667 248,667 248,669 263,669 263,650 264,647 266,649 267,648 265,641 264,645 263,614 264,612 265,628 266,612 278,612" stroke="rgb(0,0,0)" /><polygon points="187,114 186,112 185,113 184,102 164,103 165,115 187,114" stroke="rgb(0,0,0)" /></svg>