<?xml version="1.0" encoding="utf-8" ?>
<svg baseProfile="full" height="100%" version="1.1" width="100%" xmlns="http://www.w3.org/2000/svg" xmlns:ev="http://www.w3.org/2001/xml-events" xmlns:xlink="http://www.w3.org/1999/xlink"><defs /><polygon points="788,459 786,449 788,357 782,344 781,338 777,342 780,350 785,356 784,359 777,360 781,364 781,385 772,386 772,384 759,383 759,386 753,387 783,388 778,390 778,394 784,407 784,410 751,411 780,412 781,420 766,420 766,422 761,422 761,424 755,424 755,422 752,422 751,428 753,430 755,429 778,431 779,425 775,422 780,422 781,436 780,438 747,439 781,440 783,449 744,448 742,451 742,459 742,450 739,450 739,459 739,450 737,448 664,447 663,345 666,343 683,342 674,333 652,334 654,407 653,457 688,459 653,459 653,386 650,333 637,346 641,348 641,367 615,368 585,398 585,406 577,406 560,423 562,425 584,424 586,427 586,437 584,426 582,441 555,441 555,443 584,443 585,441 585,444 554,445 552,443 553,437 551,432 521,462 531,464 531,468 530,467 528,470 529,478 526,480 527,482 530,481 531,472 531,483 500,483 482,501 487,506 477,515 477,522 470,522 468,524 498,553 500,541 531,541 531,562 508,563 525,580 532,581 532,587 566,621 587,621 587,642 606,661 661,661 700,663 699,683 654,682 629,684 635,690 699,691 700,706 698,712 658,713 665,720 693,721 710,719 711,520 711,720 734,722 737,720 737,711 722,709 721,701 722,699 737,700 737,688 721,686 721,674 723,671 721,667 723,658 737,657 737,648 735,646 722,646 721,619 736,618 737,607 721,605 721,579 729,578 729,583 731,585 734,583 740,584 747,592 743,591 740,586 729,586 728,581 725,580 725,589 732,589 734,591 741,592 736,593 733,591 730,592 730,590 723,589 723,605 738,605 740,603 742,605 780,605 781,604 778,595 770,580 766,581 770,591 761,591 769,590 766,587 764,579 770,578 773,580 777,588 780,599 782,597 783,575 779,574 781,573 780,571 772,572 770,568 765,566 743,566 741,571 741,568 739,568 739,571 737,566 721,565 721,462 723,459 730,460 730,522 748,522 764,525 767,519 768,468 771,466 772,462 779,462 780,467 781,462 785,461 771,460 767,463 766,461 760,460 767,460 768,462 770,460 769,456 782,456 783,451 785,458 787,460 788,459" stroke="rgb(0,0,0)" /><polygon points="780,708 778,703 775,701 740,702 747,708 780,708" stroke="rgb(0,0,0)" /><polygon points="779,366 775,362 749,363 751,368 769,368 779,366" stroke="rgb(0,0,0)" /><polygon points="788,459 786,449 788,357 782,344 782,339 785,335 785,331 783,328 784,325 782,315 780,315 781,306 779,302 777,285 775,284 775,278 773,276 766,278 775,273 773,272 774,270 768,266 764,266 762,270 762,266 766,265 766,263 763,263 758,259 750,260 746,254 743,255 746,252 742,248 740,248 740,246 736,245 735,238 739,236 735,231 725,231 724,235 722,236 713,232 712,234 718,242 714,244 716,247 712,249 704,241 697,243 698,240 699,242 700,241 700,236 705,236 703,235 702,231 701,234 700,233 700,230 703,230 704,234 708,233 708,231 705,231 710,228 709,177 699,167 697,177 688,178 672,194 674,196 696,195 698,197 698,215 664,216 662,214 663,201 661,199 628,232 630,234 637,233 640,235 640,253 607,253 583,277 584,290 582,292 572,291 569,293 605,329 606,310 640,309 640,329 606,330 623,347 640,347 641,365 650,374 652,372 651,334 653,332 709,332 710,315 706,314 711,313 712,317 710,333 652,334 654,407 653,457 688,459 653,459 653,404 651,402 630,423 632,425 640,424 642,426 642,442 640,445 609,444 586,467 586,480 586,470 583,470 583,479 581,481 585,482 584,484 568,484 551,501 585,502 587,511 586,522 555,523 553,521 552,510 538,524 555,541 585,541 587,543 587,561 577,563 608,594 610,581 643,582 643,599 642,600 643,585 641,582 639,591 640,597 633,599 634,601 640,602 617,603 635,621 641,621 643,623 643,626 641,627 676,662 700,663 700,682 698,684 709,694 711,692 711,520 711,696 719,704 722,699 724,699 735,688 721,686 721,674 723,671 723,669 721,668 722,659 737,657 737,648 735,646 722,646 721,619 736,618 737,607 721,605 721,579 729,578 729,583 731,585 734,583 740,584 747,592 743,591 740,586 729,586 728,581 725,580 725,589 732,589 734,591 741,592 736,593 733,591 730,592 730,590 723,589 723,605 738,605 740,603 742,605 780,605 781,604 778,595 770,580 766,581 770,591 761,591 769,590 766,587 764,579 770,578 773,580 777,588 780,599 782,597 783,580 783,575 779,574 781,573 780,571 772,572 770,568 765,566 743,566 741,571 741,568 739,568 739,571 737,566 721,565 721,462 723,459 730,460 730,522 748,522 764,525 767,519 768,468 771,466 772,462 779,462 780,467 781,462 785,461 771,460 767,463 766,461 760,460 767,460 768,462 770,460 769,456 782,456 783,451 785,458 787,460 788,459" stroke="rgb(0,0,0)" /><polygon points="782,640 781,606 742,606 741,617 754,618 757,621 757,623 754,620 723,621 724,630 722,636 724,645 736,645 739,643 741,645 762,644 779,646 780,643 777,634 770,620 768,620 767,622 772,631 761,632 759,630 758,626 762,631 769,630 765,622 766,618 773,619 778,636 781,641 782,640" stroke="rgb(0,0,0)" /><polygon points="786,481 784,464 783,463 782,467 779,468 777,462 773,462 772,466 769,469 770,471 772,471 772,473 771,471 769,474 769,508 768,523 766,525 770,533 769,535 767,529 764,527 750,525 730,526 727,523 728,462 723,462 723,521 725,544 723,553 724,565 739,565 740,563 743,565 765,564 769,566 771,564 769,560 768,563 766,558 766,556 768,560 770,556 767,554 768,548 766,547 767,546 765,543 753,541 731,541 729,552 729,540 763,540 767,542 770,549 771,545 773,547 774,545 776,548 777,547 774,538 775,537 782,554 781,556 777,557 782,559 784,558 785,502 783,502 785,497 786,481" stroke="rgb(0,0,0)" /><polygon points="780,685 773,664 769,660 724,661 725,665 727,664 730,666 766,666 769,667 771,670 770,672 735,671 732,672 729,676 723,674 722,679 724,686 727,686 728,683 734,686 738,686 740,684 742,686 780,685" stroke="rgb(0,0,0)" /><polygon points="788,459 786,449 788,357 782,344 782,339 785,335 785,331 783,328 784,325 782,315 780,315 781,306 779,302 777,285 775,284 775,278 773,276 766,278 775,273 773,272 774,270 768,266 764,266 762,270 762,266 767,264 763,263 758,259 750,260 746,254 742,257 741,256 743,254 734,245 726,253 728,257 726,258 723,256 717,262 720,265 716,263 714,265 715,266 713,266 710,270 711,272 705,276 708,279 710,278 709,281 712,282 710,290 708,291 711,284 702,281 698,291 687,292 703,308 707,309 711,301 711,297 708,293 712,295 711,307 710,309 705,311 706,314 711,313 712,315 711,332 652,334 654,407 653,457 688,459 653,459 653,386 652,363 650,355 641,364 641,367 638,367 621,384 624,386 641,386 642,401 640,406 608,406 606,399 582,423 586,427 586,437 584,426 582,441 567,442 584,443 585,441 586,442 584,445 560,445 531,473 531,483 521,483 503,501 531,502 532,521 530,523 499,522 497,517 490,524 507,541 531,541 532,561 529,563 553,587 554,581 586,581 584,590 585,597 565,599 569,601 585,601 587,599 587,592 586,602 569,603 608,642 610,621 641,621 643,623 643,626 641,622 639,624 641,637 643,633 642,642 612,642 610,644 627,661 700,663 699,683 654,682 650,684 656,690 699,691 699,711 679,713 686,720 693,721 710,719 711,520 711,720 734,722 737,720 737,711 722,709 721,701 722,699 737,700 737,688 721,686 721,674 723,671 721,667 723,658 737,657 737,648 735,646 722,646 721,619 736,618 737,607 721,605 721,579 729,578 729,583 731,585 734,583 740,584 747,592 743,591 740,586 729,586 728,581 725,580 725,589 732,589 734,591 741,592 736,593 733,591 730,592 730,590 723,589 723,605 738,605 740,603 742,605 780,605 781,604 778,595 770,580 766,581 770,591 761,591 769,590 766,587 764,579 770,578 773,580 777,588 780,599 782,597 783,575 779,574 781,573 780,571 772,572 770,568 765,566 743,566 741,571 741,568 739,568 739,571 737,566 721,565 721,462 723,459 730,460 730,522 748,522 764,525 767,519 768,468 771,466 772,462 779,462 780,467 781,462 785,461 771,460 767,463 766,461 760,460 767,460 768,462 770,460 769,456 782,456 783,451 785,458 787,460 788,459" stroke="rgb(0,0,0)" /><polygon points="782,640 781,606 742,606 741,617 754,618 757,621 757,623 754,620 723,621 724,630 722,636 724,645 736,645 739,643 741,645 762,644 779,646 780,643 777,634 770,620 768,620 767,622 772,631 761,632 759,630 758,626 762,631 769,630 765,622 766,618 773,619 778,636 781,641 782,640" stroke="rgb(0,0,0)" /><polygon points="788,459 786,449 788,357 782,344 781,338 777,342 780,350 785,356 784,359 777,360 781,364 781,385 772,386 772,384 759,383 759,386 753,387 783,388 778,390 778,394 784,407 784,410 751,411 780,412 781,420 766,420 766,422 761,422 761,424 755,424 755,422 752,422 751,428 753,430 755,429 778,431 779,425 775,422 780,422 781,436 780,438 747,439 781,440 783,449 744,448 742,451 742,459 742,450 739,450 739,459 739,450 737,448 664,447 663,345 666,343 683,342 674,333 652,334 654,407 653,457 688,459 653,459 653,386 650,333 637,346 641,348 641,367 615,368 585,398 585,406 577,406 560,423 562,425 584,424 586,427 586,437 584,426 582,441 555,441 555,443 584,443 585,441 585,444 554,445 552,443 553,437 551,432 521,462 531,464 531,468 530,467 528,470 529,478 526,480 527,482 530,481 531,472 531,483 500,483 482,501 487,506 477,515 477,522 470,522 468,524 498,553 500,541 531,541 531,562 508,563 525,580 532,581 532,587 566,621 587,621 587,642 606,661 661,661 700,663 699,683 654,682 629,684 635,690 699,691 700,706 698,712 658,713 665,720 693,721 710,719 711,520 711,720 734,722 737,720 737,711 722,709 721,701 722,699 737,700 737,688 721,686 721,674 723,671 721,667 723,658 737,657 737,648 735,646 722,646 721,619 736,618 737,607 721,605 721,579 729,578 729,583 731,585 734,583 740,584 747,592 743,591 740,586 729,586 728,581 725,580 724,588 732,589 733,591 730,592 730,590 722,590 723,605 738,605 740,603 742,605 780,605 781,604 778,595 770,580 766,581 770,591 761,591 769,590 766,587 764,579 770,578 773,580 777,588 780,599 782,597 783,575 779,574 781,573 780,571 772,572 770,568 765,566 743,566 741,571 741,568 739,568 739,571 737,566 721,565 721,462 723,459 730,460 730,522 748,522 764,525 767,519 768,468 771,466 772,462 779,462 780,467 781,462 785,461 771,460 767,463 766,461 760,460 767,460 768,462 770,460 769,456 782,456 783,451 785,458 787,460 788,459" stroke="rgb(0,0,0)" /><polygon points="738,209 736,204 724,204 725,211 734,211 738,209" stroke="rgb(0,0,0)" /><polygon points="788,459 786,449 788,357 782,344 782,339 785,335 785,331 783,328 784,325 782,315 780,315 781,306 779,302 777,285 775,284 775,278 773,276 766,278 775,273 773,272 774,270 768,266 764,266 762,270 762,266 766,265 766,263 763,263 758,259 750,260 746,254 743,255 746,252 742,248 740,248 740,246 736,245 735,238 739,236 735,231 725,231 724,235 722,236 713,232 712,234 718,242 714,244 716,247 712,249 704,241 697,243 698,240 699,242 700,241 700,236 705,236 703,235 702,231 701,234 700,233 700,230 703,230 704,234 708,233 708,231 705,231 710,228 708,163 699,162 698,158 693,159 693,177 697,176 697,163 698,164 698,175 696,178 663,178 663,159 693,158 686,155 675,157 660,151 639,151 635,148 610,145 605,143 581,167 581,178 569,179 553,195 555,197 582,197 582,216 550,216 548,214 547,201 514,233 527,235 528,252 526,254 494,253 477,270 478,271 473,276 473,291 456,293 494,331 495,330 494,331 511,348 529,348 529,366 550,387 553,385 584,386 585,406 571,407 606,442 608,440 607,428 609,424 640,424 642,426 642,442 640,445 615,444 610,446 627,463 639,463 642,467 642,478 650,486 664,472 665,463 673,463 675,461 653,459 653,386 651,362 651,334 653,332 709,332 710,315 706,314 711,313 712,317 710,333 652,334 654,407 653,457 671,459 711,459 711,507 712,513 720,521 722,519 721,462 723,459 730,460 730,522 758,523 760,525 764,525 767,519 768,468 771,466 772,462 779,462 780,467 781,462 785,461 771,460 767,463 766,461 760,460 767,460 768,462 770,460 769,456 782,456 783,451 785,458 787,460 788,459" stroke="rgb(0,0,0)" /><polygon points="754,177 754,174 751,171 753,170 751,160 749,155 747,154 748,150 746,148 746,139 743,135 744,132 737,131 743,129 740,116 737,114 739,113 738,104 736,103 735,105 731,105 727,100 722,100 724,98 723,97 715,99 713,102 710,102 713,96 708,93 710,91 714,92 714,97 717,98 720,95 732,96 735,94 734,92 718,90 716,87 713,89 708,89 705,86 697,87 694,88 694,90 692,90 692,87 690,89 687,87 679,94 680,96 683,96 682,100 678,96 680,93 679,92 673,95 666,95 664,91 663,95 654,95 653,99 650,99 653,97 651,95 648,96 646,99 631,98 606,100 606,102 609,103 605,106 609,107 609,113 615,113 616,117 629,118 631,120 635,120 635,123 633,124 627,123 625,125 608,125 606,127 607,136 616,137 617,142 619,144 631,145 640,148 646,147 651,150 666,150 666,152 675,155 683,155 685,153 695,157 700,157 701,161 716,161 722,164 729,164 731,162 729,164 731,167 725,164 723,166 722,177 724,179 743,179 754,177" stroke="rgb(0,0,0)" /><polygon points="725,418 724,413 720,413 717,417 723,419 725,418" stroke="rgb(0,0,0)" /><polygon points="695,517 694,506 686,506 686,509 684,505 682,506 682,509 680,506 670,506 668,509 670,518 688,519 695,517" stroke="rgb(0,0,0)" /><polygon points="696,634 694,625 670,625 669,636 674,637 676,639 667,640 679,641 682,638 694,638 696,634" stroke="rgb(0,0,0)" /><polygon points="695,596 694,585 670,585 670,588 668,589 670,597 695,596" stroke="rgb(0,0,0)" /><polygon points="694,324 693,312 667,313 668,324 694,324" stroke="rgb(0,0,0)" /><polygon points="788,459 786,449 786,393 780,397 784,410 765,411 780,412 781,420 766,420 766,422 760,423 772,424 774,428 778,424 775,422 780,422 780,438 747,439 781,440 783,449 744,448 742,451 742,459 742,450 739,450 739,459 739,450 737,448 665,448 663,435 664,381 662,368 653,377 653,457 688,459 653,459 653,386 652,363 650,354 641,363 641,367 637,367 620,384 624,386 641,386 641,405 608,406 606,398 581,423 584,424 586,427 586,437 584,426 582,441 566,442 584,443 585,441 585,444 559,445 531,473 531,483 521,483 503,501 531,502 532,521 530,523 499,522 497,507 464,540 477,541 478,543 478,561 472,562 470,564 499,593 500,581 502,580 532,581 533,600 531,602 509,603 526,620 532,620 534,623 534,628 567,661 661,661 700,663 699,683 594,682 592,684 599,690 617,689 700,692 700,706 698,712 623,711 621,713 627,719 693,721 709,720 711,694 711,520 711,719 713,721 724,710 721,708 722,699 735,699 737,697 736,687 721,686 721,674 723,671 723,669 721,668 722,659 737,657 737,648 735,646 722,646 721,619 736,618 737,607 721,605 721,579 729,578 729,583 731,585 734,583 740,584 747,592 743,591 740,586 729,586 728,581 725,580 725,589 732,589 734,591 741,592 736,593 733,591 730,592 730,590 723,589 723,605 738,605 740,603 742,605 780,605 781,604 778,595 770,580 766,581 770,591 761,591 769,590 766,587 764,579 770,578 773,580 777,588 780,599 782,597 783,580 783,575 779,574 781,573 780,571 772,572 770,568 765,566 743,566 741,571 741,568 739,568 739,571 737,566 721,565 721,462 723,459 730,460 730,522 748,522 764,525 767,519 768,468 771,466 772,462 779,462 780,467 781,462 785,461 771,460 767,463 766,461 760,460 767,460 768,462 770,460 769,456 782,456 783,451 785,458 787,460 788,459" stroke="rgb(0,0,0)" /><polygon points="700,479 698,464 696,466 696,479 696,470 694,466 678,466 668,468 668,477 670,479 693,480 695,482 698,482 700,479" stroke="rgb(0,0,0)" /><polygon points="704,363 702,362 701,357 698,354 702,352 697,351 695,347 687,355 680,359 682,361 681,362 684,364 681,367 676,387 678,392 679,390 678,394 682,405 685,390 685,387 684,386 683,388 683,386 685,381 687,378 687,383 692,376 690,374 696,368 704,363" stroke="rgb(0,0,0)" /><polygon points="788,391 788,357 782,344 782,339 785,335 785,331 783,328 784,325 782,315 780,315 781,306 779,302 779,295 777,285 775,284 775,278 773,276 766,278 775,273 773,272 774,270 768,266 764,266 762,270 762,266 766,265 766,263 763,263 758,259 750,260 746,254 743,255 746,252 742,248 740,248 740,246 736,245 735,238 739,236 735,231 725,231 724,235 722,236 713,232 712,234 718,242 714,244 716,247 712,249 704,241 697,243 698,240 699,242 700,241 700,236 705,236 703,235 702,231 701,234 700,233 700,230 703,230 704,234 708,233 708,231 705,231 710,228 709,164 699,162 698,158 693,159 693,177 697,176 697,163 698,164 698,175 696,178 663,178 663,159 693,158 686,155 675,157 660,151 639,151 635,148 626,146 610,145 604,141 548,142 546,135 547,123 561,122 555,116 546,116 545,106 538,113 539,153 497,154 492,159 494,161 525,160 525,179 494,180 492,172 493,162 491,160 454,196 457,198 472,198 472,216 441,217 439,211 418,232 439,253 440,235 472,235 472,254 444,254 442,256 458,272 473,272 473,287 496,309 528,310 529,327 527,330 518,331 550,363 552,353 551,348 553,347 584,348 584,352 582,352 582,363 579,365 583,366 584,364 584,367 556,369 573,386 582,385 585,387 585,398 611,424 640,424 642,426 642,442 640,445 633,446 650,463 653,460 653,386 651,362 651,334 653,332 709,332 710,315 706,314 711,313 712,315 710,333 652,334 654,407 653,437 654,446 662,454 667,449 664,447 663,435 663,345 666,343 682,343 693,344 694,347 697,343 719,343 722,346 723,343 738,343 738,332 722,332 723,303 721,301 725,303 729,300 734,301 736,298 742,298 743,300 751,302 751,304 754,305 749,306 751,304 750,303 744,302 741,299 737,299 734,302 729,301 725,305 725,331 782,331 782,333 744,332 743,342 771,344 777,343 779,345 780,350 785,356 784,359 777,360 781,364 782,372 782,383 780,386 772,386 772,384 759,383 759,386 753,387 783,388 778,390 778,394 784,407 784,410 751,411 781,413 781,420 766,420 766,422 761,423 773,425 775,423 774,422 780,422 781,436 777,439 781,440 782,444 785,447 787,441 786,438 788,391" stroke="rgb(0,0,0)" /><polygon points="693,210 692,199 665,200 665,209 667,212 669,212 669,214 677,214 678,211 684,211 689,213 693,210" stroke="rgb(0,0,0)" /><polygon points="680,693 678,693 680,693" stroke="rgb(0,0,0)" /><polygon points="692,430 680,411 669,417 666,417 667,436 688,435 692,430" stroke="rgb(0,0,0)" /><polygon points="693,172 693,163 691,161 664,162 666,174 691,174 693,172" stroke="rgb(0,0,0)" /><polygon points="788,459 786,449 788,357 782,344 782,339 785,335 785,331 783,328 784,325 782,315 780,315 781,306 779,302 777,285 775,284 775,278 773,276 766,278 775,273 773,272 774,270 768,266 764,266 762,270 762,266 766,265 766,263 763,263 758,259 750,260 746,254 743,255 746,252 742,248 740,248 740,246 736,245 735,238 739,236 735,231 725,231 724,235 722,236 713,232 712,234 718,242 714,244 716,247 712,249 704,241 697,243 698,240 699,242 700,241 700,236 705,236 703,235 702,231 701,234 700,233 700,230 703,230 704,234 708,233 708,231 705,231 710,228 709,164 699,162 698,158 694,158 694,174 692,176 697,176 697,163 698,175 696,178 663,178 663,159 693,158 686,155 675,157 660,151 639,151 635,148 626,146 610,145 604,141 578,142 562,158 564,160 581,160 581,178 549,179 547,173 524,196 527,201 527,215 524,217 503,217 488,232 493,237 497,234 525,234 527,235 528,252 526,254 495,254 495,249 493,246 469,270 473,272 473,291 448,293 465,310 474,310 474,319 503,348 529,348 529,367 524,369 550,395 551,387 553,385 584,386 585,406 562,407 579,424 584,424 586,427 586,431 619,463 639,463 642,467 642,481 640,484 650,494 665,479 665,463 681,463 683,461 653,459 653,386 651,362 651,334 653,332 709,332 710,315 706,314 711,313 712,315 710,333 652,334 654,407 653,457 671,459 709,459 719,449 718,448 664,447 663,345 666,343 682,343 693,344 694,347 697,343 719,343 722,346 723,343 738,343 738,332 722,332 723,303 721,301 725,303 729,300 734,301 736,298 742,298 743,300 751,302 751,304 754,305 753,306 749,306 751,304 748,302 744,302 741,299 737,299 734,302 729,301 725,305 724,330 782,331 782,333 744,332 743,342 771,344 777,343 779,345 780,350 785,356 784,359 777,360 781,364 781,385 772,386 772,384 759,383 759,386 753,387 783,388 778,390 778,394 784,407 784,410 752,410 752,412 780,412 781,420 766,420 766,422 761,422 761,424 755,424 755,422 752,422 751,428 753,430 755,429 778,431 779,425 775,422 780,422 781,436 780,438 747,439 781,440 783,449 749,448 747,450 759,462 760,460 767,460 768,462 770,460 769,456 782,456 783,451 785,458 787,460 788,459" stroke="rgb(0,0,0)" /><polygon points="665,676 664,665 644,665 644,675 644,669 642,667 641,668 641,664 639,663 639,678 632,679 635,681 641,681 643,679 641,678 641,670 643,678 665,676" stroke="rgb(0,0,0)" /><polygon points="639,705 638,693 614,694 615,705 639,705" stroke="rgb(0,0,0)" /><polygon points="638,596 637,584 616,584 615,587 615,585 613,585 612,589 614,596 616,595 615,592 617,597 638,596" stroke="rgb(0,0,0)" /><polygon points="638,636 634,635 633,633 635,631 633,624 612,625 613,632 617,636 621,635 620,629 621,637 628,638 638,636" stroke="rgb(0,0,0)" /><polygon points="638,516 636,506 633,506 633,509 631,511 627,511 632,509 627,508 632,507 632,505 618,505 617,508 616,505 612,506 612,519 616,518 618,520 619,518 634,518 638,516" stroke="rgb(0,0,0)" /><polygon points="637,439 636,428 630,429 633,438 631,437 629,431 628,435 627,434 626,428 611,428 612,439 623,440 624,435 625,442 633,442 637,439" stroke="rgb(0,0,0)" /><polygon points="637,400 636,389 616,388 611,390 612,401 637,400" stroke="rgb(0,0,0)" /><polygon points="638,556 637,552 626,552 625,547 623,545 612,546 612,558 638,556" stroke="rgb(0,0,0)" /><polygon points="637,478 637,475 632,466 611,467 612,478 637,478" stroke="rgb(0,0,0)" /><polygon points="636,361 635,351 610,352 611,362 636,361" stroke="rgb(0,0,0)" /><polygon points="636,286 635,275 611,275 609,277 611,287 636,286" stroke="rgb(0,0,0)" /><polygon points="636,248 634,237 609,238 610,249 636,248" stroke="rgb(0,0,0)" /><polygon points="636,324 636,315 634,312 609,313 610,325 636,324" stroke="rgb(0,0,0)" /><polygon points="635,210 633,199 618,199 608,201 609,212 632,212 635,210" stroke="rgb(0,0,0)" /><polygon points="634,173 634,164 632,162 607,163 608,174 634,173" stroke="rgb(0,0,0)" /><polygon points="603,136 603,127 601,125 579,127 580,137 603,136" stroke="rgb(0,0,0)" /><polygon points="717,519 712,514 711,518 711,513 701,503 699,505 700,521 698,523 681,523 678,526 674,523 667,523 665,521 665,514 633,483 612,484 608,482 608,464 612,462 589,439 586,441 584,445 554,445 552,443 553,424 566,425 568,423 551,406 530,427 531,443 529,445 512,445 477,480 476,483 474,483 456,501 476,502 477,522 448,523 445,521 444,513 418,539 424,541 424,550 423,548 422,558 420,557 414,559 424,559 423,562 395,562 372,585 372,600 356,601 320,637 321,640 316,641 311,646 380,647 377,648 377,650 390,650 391,649 387,648 388,647 420,649 431,648 431,650 436,651 439,650 439,648 446,650 448,649 447,648 488,648 487,649 489,651 501,651 503,662 505,651 530,651 531,653 533,651 541,651 544,654 545,652 545,672 543,691 544,717 542,718 543,719 547,718 547,651 543,648 546,648 548,669 547,692 549,719 635,719 693,721 709,720 711,694 710,538 711,520 713,523 717,519" stroke="rgb(0,0,0)" /><polygon points="584,629 583,624 572,624 570,627 570,632 569,624 559,624 558,635 565,637 570,636 574,638 582,637 584,629" stroke="rgb(0,0,0)" /><polygon points="583,596 582,584 557,585 559,596 583,596" stroke="rgb(0,0,0)" /><polygon points="586,560 585,542 583,558 580,558 583,555 581,545 580,548 578,544 567,544 557,546 558,556 575,558 576,560 586,560" stroke="rgb(0,0,0)" /><polygon points="585,520 584,513 582,518 582,507 580,505 575,505 574,508 572,505 563,505 563,510 561,505 556,506 558,517 563,517 564,513 564,518 561,519 561,521 585,520" stroke="rgb(0,0,0)" /><polygon points="581,477 580,466 556,467 557,478 581,477" stroke="rgb(0,0,0)" /><polygon points="581,438 580,428 555,429 556,439 581,438" stroke="rgb(0,0,0)" /><polygon points="581,397 579,389 555,390 556,401 567,401 571,398 573,398 576,401 579,401 581,397" stroke="rgb(0,0,0)" /><polygon points="580,322 579,314 575,314 575,312 570,312 569,315 568,313 554,314 554,325 577,325 580,322" stroke="rgb(0,0,0)" /><polygon points="580,362 579,351 554,352 555,363 580,362" stroke="rgb(0,0,0)" /><polygon points="579,286 579,277 577,275 553,276 554,287 567,288 579,286" stroke="rgb(0,0,0)" /><polygon points="579,249 579,242 577,237 565,237 564,238 568,240 567,241 563,238 557,237 554,237 552,239 552,244 554,245 553,248 555,250 566,248 568,250 570,248 573,248 574,250 579,249" stroke="rgb(0,0,0)" /><polygon points="578,211 577,200 552,201 553,212 578,211" stroke="rgb(0,0,0)" /><polygon points="577,173 576,163 551,164 551,173 553,175 577,173" stroke="rgb(0,0,0)" /><polygon points="576,136 574,126 555,127 555,131 558,132 557,133 559,137 562,136 562,134 565,134 566,137 576,136" stroke="rgb(0,0,0)" /><polygon points="575,110 575,103 573,100 549,101 550,112 567,112 575,110" stroke="rgb(0,0,0)" /><polygon points="530,706 529,694 505,695 506,707 511,706 510,700 512,707 526,707 527,705 529,707 530,706" stroke="rgb(0,0,0)" /><polygon points="529,635 528,624 504,625 505,636 529,635" stroke="rgb(0,0,0)" /><polygon points="528,595 527,584 503,585 504,596 528,595" stroke="rgb(0,0,0)" /><polygon points="528,555 528,546 526,544 502,545 503,556 517,557 528,555" stroke="rgb(0,0,0)" /><polygon points="527,516 526,505 502,506 503,517 527,516" stroke="rgb(0,0,0)" /><polygon points="527,477 527,471 525,466 501,467 502,478 525,479 527,477" stroke="rgb(0,0,0)" /><polygon points="530,687 530,675 528,673 512,672 505,674 506,689 515,687 530,687" stroke="rgb(0,0,0)" /><polygon points="526,438 526,430 524,428 501,428 502,439 526,438" stroke="rgb(0,0,0)" /><polygon points="525,400 524,389 500,390 501,401 525,400" stroke="rgb(0,0,0)" /><polygon points="525,362 524,351 499,352 500,363 525,362" stroke="rgb(0,0,0)" /><polygon points="528,327 527,311 525,312 525,326 523,325 523,312 514,312 512,315 511,313 499,314 500,325 515,325 512,327 513,328 528,327" stroke="rgb(0,0,0)" /><polygon points="515,286 513,279 510,275 499,276 499,288 515,286" stroke="rgb(0,0,0)" /><polygon points="523,249 522,237 507,237 507,242 504,238 498,239 499,249 508,249 508,244 510,250 523,249" stroke="rgb(0,0,0)" /><polygon points="522,212 519,200 507,200 506,210 506,202 504,200 497,201 498,212 522,212" stroke="rgb(0,0,0)" /><polygon points="525,177 524,175 518,175 517,166 515,163 513,164 513,167 513,165 509,163 505,163 502,166 496,166 497,175 516,175 499,176 499,178 525,177" stroke="rgb(0,0,0)" /><polygon points="520,130 519,116 496,117 497,131 520,130" stroke="rgb(0,0,0)" /><polygon points="502,705 500,694 479,694 479,697 481,698 479,700 480,707 483,707 484,705 489,707 500,707 502,705" stroke="rgb(0,0,0)" /><polygon points="501,667 500,653 479,654 480,668 501,667" stroke="rgb(0,0,0)" /><polygon points="491,133 470,133 491,133" stroke="rgb(0,0,0)" /><polygon points="475,634 474,624 450,625 451,637 455,635 464,635 469,637 475,634" stroke="rgb(0,0,0)" /><polygon points="474,594 473,584 449,585 450,596 470,596 474,594" stroke="rgb(0,0,0)" /><polygon points="474,555 474,547 472,544 448,545 448,553 450,557 470,557 474,555" stroke="rgb(0,0,0)" /><polygon points="473,516 472,505 448,506 449,517 473,516" stroke="rgb(0,0,0)" /><polygon points="472,477 471,466 449,466 447,468 448,478 463,479 472,477" stroke="rgb(0,0,0)" /><polygon points="472,438 471,428 464,427 447,428 448,439 472,438" stroke="rgb(0,0,0)" /><polygon points="471,399 470,389 446,390 446,397 448,401 468,401 471,399" stroke="rgb(0,0,0)" /><polygon points="471,362 469,351 445,352 446,363 471,362" stroke="rgb(0,0,0)" /><polygon points="470,324 469,313 445,314 446,325 470,324" stroke="rgb(0,0,0)" /><polygon points="469,287 469,279 466,275 444,276 444,282 449,286 456,285 454,287 455,288 469,287" stroke="rgb(0,0,0)" /><polygon points="469,247 468,238 443,239 444,250 458,250 461,247 469,247" stroke="rgb(0,0,0)" /><polygon points="468,212 467,201 443,202 444,213 468,212" stroke="rgb(0,0,0)" /><polygon points="476,697 474,693 452,693 451,696 453,697 451,706 455,707 456,702 457,706 474,707 474,700 476,697" stroke="rgb(0,0,0)" /><polygon points="468,174 468,169 466,167 460,168 461,166 466,166 466,164 442,165 443,176 466,176 468,174" stroke="rgb(0,0,0)" /><polygon points="466,112 465,100 452,100 442,102 443,113 466,112" stroke="rgb(0,0,0)" /><polygon points="448,667 447,653 425,654 426,668 448,667" stroke="rgb(0,0,0)" /><polygon points="439,111 437,101 417,102 417,106 421,106 419,110 417,107 416,108 418,114 433,114 439,111" stroke="rgb(0,0,0)" /><polygon points="439,148 438,135 428,136 419,134 417,136 418,149 423,150 439,148" stroke="rgb(0,0,0)" /><polygon points="422,634 420,624 396,624 398,635 418,636 422,634" stroke="rgb(0,0,0)" /><polygon points="424,599 423,597 401,597 405,595 420,596 421,585 419,583 397,583 395,585 396,595 399,596 395,598 396,600 424,599" stroke="rgb(0,0,0)" /><polygon points="420,556 419,544 396,544 394,547 396,548 396,557 420,556" stroke="rgb(0,0,0)" /><polygon points="422,706 421,693 404,694 404,706 417,706 419,700 419,706 422,706" stroke="rgb(0,0,0)" /><polygon points="420,516 420,508 418,505 395,506 396,517 420,516" stroke="rgb(0,0,0)" /><polygon points="419,477 419,467 416,465 402,465 394,467 394,475 396,478 416,479 419,477" stroke="rgb(0,0,0)" /><polygon points="422,442 421,438 419,440 410,440 419,438 418,427 393,428 393,439 404,440 396,440 395,441 397,443 422,442" stroke="rgb(0,0,0)" /><polygon points="422,402 421,389 419,402 395,402 395,397 397,401 417,401 417,389 396,389 395,393 394,390 392,390 392,403 395,405 420,405 422,402" stroke="rgb(0,0,0)" /><polygon points="420,366 419,363 402,363 404,361 405,363 416,363 416,351 397,350 394,356 391,357 392,366 420,366" stroke="rgb(0,0,0)" /><polygon points="417,316 415,313 405,314 391,311 391,318 394,319 394,322 391,325 395,327 399,325 396,323 400,325 415,325 417,316" stroke="rgb(0,0,0)" /><polygon points="416,286 415,275 402,275 401,278 401,276 399,276 399,288 412,288 414,283 413,286 416,286" stroke="rgb(0,0,0)" /><polygon points="402,244 400,244 402,244" stroke="rgb(0,0,0)" /><polygon points="404,199 392,198 390,200 391,211 393,213 402,212 402,202 397,201 396,203 396,201 404,199" stroke="rgb(0,0,0)" /><polygon points="407,178 397,177 396,164 398,175 405,175 404,171 402,171 404,167 404,165 402,164 404,162 403,161 396,161 388,164 389,178 390,165 391,179 407,178" stroke="rgb(0,0,0)" /><polygon points="395,667 394,653 373,654 374,668 395,667" stroke="rgb(0,0,0)" /><polygon points="369,632 368,623 344,624 345,627 351,626 355,627 356,629 358,628 361,631 362,635 367,635 369,632" stroke="rgb(0,0,0)" /><polygon points="371,599 369,594 367,593 369,588 368,583 356,584 349,582 346,586 343,587 343,597 345,597 346,599 371,599" stroke="rgb(0,0,0)" /><polygon points="370,559 368,557 367,544 361,545 355,543 346,546 346,543 342,544 344,549 342,550 343,558 352,556 354,554 352,556 354,558 358,556 365,557 358,558 358,560 370,559" stroke="rgb(0,0,0)" /><polygon points="367,516 366,505 349,506 350,514 352,517 367,516" stroke="rgb(0,0,0)" /><polygon points="367,477 366,471 357,472 355,466 352,470 352,466 348,467 348,473 351,474 352,478 367,477" stroke="rgb(0,0,0)" /><polygon points="356,429 355,427 350,427 348,429 346,438 354,439 356,429" stroke="rgb(0,0,0)" /><polygon points="369,404 368,400 367,402 359,402 359,396 361,392 360,387 343,388 342,391 341,389 340,390 341,404 369,404" stroke="rgb(0,0,0)" /><polygon points="368,365 367,363 362,363 363,359 368,356 367,349 350,348 339,350 340,364 341,351 341,366 344,367 368,365" stroke="rgb(0,0,0)" /><polygon points="545,308 528,291 497,292 495,290 495,273 508,271 474,237 472,254 459,255 440,253 440,235 468,235 470,233 454,217 441,217 440,203 417,180 388,180 386,167 387,162 397,160 392,155 346,155 341,160 342,161 354,161 341,162 341,164 339,165 340,175 357,175 357,177 339,177 338,163 337,178 364,180 337,181 336,171 334,167 304,197 314,198 316,200 316,216 301,218 284,217 265,236 265,255 246,255 230,271 232,273 265,273 266,290 264,292 209,292 192,309 266,311 266,328 264,330 228,329 198,331 208,341 278,342 280,346 280,413 291,424 317,424 318,426 295,426 306,439 308,439 309,436 311,439 313,436 313,440 309,440 309,442 316,443 318,437 318,444 313,446 337,470 339,468 340,463 370,463 371,481 369,483 355,484 372,501 391,482 391,464 410,463 444,429 444,424 449,424 466,407 444,406 443,386 474,385 476,387 477,396 505,369 496,367 496,348 527,347 543,331 533,320 545,308" stroke="rgb(0,0,0)" /><polygon points="368,288 368,277 366,273 352,275 346,273 340,274 340,281 346,281 345,287 340,288 340,290 356,289 366,291 368,288" stroke="rgb(0,0,0)" /><polygon points="367,252 366,236 349,236 349,238 345,238 344,240 343,238 340,239 341,253 356,252 365,254 367,252" stroke="rgb(0,0,0)" /><polygon points="366,215 365,199 352,199 351,202 355,208 349,201 346,206 347,201 351,200 351,198 339,199 341,207 340,212 348,213 350,210 349,214 340,214 340,216 366,215" stroke="rgb(0,0,0)" /><polygon points="607,181 591,165 598,158 582,142 547,141 547,123 562,122 556,116 546,116 546,106 540,100 538,102 539,153 537,154 532,153 459,155 278,155 277,192 154,192 153,209 183,239 185,236 194,235 264,235 266,253 265,255 200,256 218,273 265,273 266,290 264,292 238,293 255,310 265,310 266,321 293,348 317,348 317,367 314,369 334,389 340,385 368,385 370,387 370,405 361,407 371,417 390,398 390,387 402,386 419,369 390,368 389,349 419,347 421,348 421,361 423,365 457,331 443,330 441,328 441,311 444,309 472,309 474,310 475,313 496,292 495,273 516,272 549,239 549,235 554,234 571,217 550,216 548,214 549,197 580,196 582,197 583,205 607,181" stroke="rgb(0,0,0)" /><polygon points="539,151 538,143 536,151 441,150 388,152 402,150 401,145 406,100 409,97 409,94 412,92 411,91 400,92 393,98 394,100 391,101 389,108 389,103 391,99 393,98 394,95 399,92 398,91 322,92 320,96 319,94 315,94 315,92 292,93 291,94 294,99 289,94 286,94 284,97 284,100 287,101 284,103 285,114 286,115 287,113 288,115 291,115 285,119 285,122 275,118 282,117 282,115 285,114 285,106 283,102 284,100 271,97 269,92 257,92 257,94 261,94 263,98 266,95 267,96 263,100 261,99 260,101 254,101 254,97 256,95 255,93 199,93 164,95 161,94 158,96 157,101 156,186 154,186 153,188 150,188 150,186 146,188 146,205 149,205 149,190 150,192 152,190 161,191 162,190 160,188 163,188 164,171 162,164 162,154 164,170 178,170 178,172 186,173 164,173 164,188 162,189 162,192 255,192 258,190 256,189 256,186 258,185 259,179 261,179 259,181 260,184 258,185 259,188 275,188 275,161 273,155 278,152 277,149 279,152 285,152 286,146 288,146 288,152 307,153 332,151 366,152 366,154 482,154 537,153 539,151" stroke="rgb(0,0,0)" /><polygon points="362,650 360,648 281,648 280,646 279,649 278,646 280,645 280,636 279,635 278,637 278,633 280,635 281,634 281,626 280,610 278,608 175,607 158,609 158,620 160,620 160,612 161,622 163,611 162,670 166,670 165,672 167,677 165,680 176,680 185,682 187,691 188,684 191,686 188,687 192,690 213,690 214,685 217,684 231,685 236,682 245,682 250,684 253,683 256,685 264,685 266,691 275,692 275,690 272,689 288,688 290,683 290,676 290,685 291,686 293,683 294,688 312,688 312,686 314,686 312,688 316,689 317,687 318,691 319,686 326,687 335,684 344,685 349,681 357,680 358,660 360,652 362,650" stroke="rgb(0,0,0)" /><polygon points="317,705 315,692 298,692 293,694 294,706 301,707 317,705" stroke="rgb(0,0,0)" /><polygon points="320,635 319,631 314,632 310,630 304,630 303,628 294,628 293,635 291,635 291,638 318,639 320,635" stroke="rgb(0,0,0)" /><polygon points="318,598 315,588 317,586 315,585 315,583 309,583 307,585 300,584 298,586 297,594 307,596 297,597 297,599 318,598" stroke="rgb(0,0,0)" /><polygon points="310,544 309,541 292,541 292,554 299,555 292,556 291,553 290,557 293,559 300,559 302,557 302,549 299,549 299,547 303,544 310,544" stroke="rgb(0,0,0)" /><polygon points="319,516 317,502 299,502 291,504 291,513 293,517 298,512 295,515 296,516 315,516 317,518 319,516" stroke="rgb(0,0,0)" /><polygon points="318,479 318,465 316,463 292,464 291,476 293,478 291,478 291,466 289,466 290,480 316,481 318,479" stroke="rgb(0,0,0)" /><polygon points="317,404 316,386 290,388 290,399 292,404 317,404" stroke="rgb(0,0,0)" /><polygon points="508,423 477,392 476,404 474,406 444,406 443,386 465,386 469,384 452,368 443,368 442,358 414,330 389,329 388,311 392,308 369,285 367,292 337,292 337,273 351,273 355,271 319,235 316,238 316,254 299,255 266,288 266,290 262,292 245,309 265,310 266,328 264,330 228,329 224,330 214,340 276,341 279,343 279,450 154,450 152,463 153,466 163,476 165,469 171,469 172,475 164,477 188,501 191,502 266,501 268,504 266,522 222,521 210,523 227,540 266,540 268,542 267,561 249,562 286,599 288,597 288,581 318,580 320,583 319,601 293,602 311,620 319,619 321,630 349,602 341,601 340,599 340,582 342,580 371,580 392,559 392,541 410,541 445,506 445,503 449,502 466,485 464,483 446,484 444,482 444,464 475,463 476,467 475,465 474,470 477,474 505,446 498,444 498,439 495,436 497,434 497,425 508,423" stroke="rgb(0,0,0)" /><polygon points="317,365 317,351 315,349 305,350 306,359 303,351 301,354 302,358 300,355 300,349 294,348 288,350 290,351 290,364 290,356 288,356 289,366 297,367 317,365" stroke="rgb(0,0,0)" /><polygon points="316,326 315,311 303,310 289,312 290,318 292,319 290,323 296,325 291,326 291,328 314,328 316,326" stroke="rgb(0,0,0)" /><polygon points="316,290 315,273 289,274 289,286 291,288 291,291 302,290 303,289 300,287 310,287 311,284 311,288 309,289 312,291 316,290" stroke="rgb(0,0,0)" /><polygon points="316,250 314,236 288,237 290,238 289,245 293,248 294,251 292,251 292,253 307,254 310,252 308,251 311,247 310,249 313,249 313,246 314,250 316,250" stroke="rgb(0,0,0)" /><polygon points="315,216 314,199 312,200 313,207 312,201 305,202 306,212 312,214 304,214 304,199 288,200 289,216 315,216" stroke="rgb(0,0,0)" /><polygon points="303,175 303,171 301,169 296,167 295,165 289,165 290,176 293,175 292,171 294,177 296,176 296,174 297,177 301,177 303,175" stroke="rgb(0,0,0)" /><polygon points="290,704 289,697 277,697 271,693 267,693 268,706 270,706 271,703 272,706 288,706 290,704" stroke="rgb(0,0,0)" /><polygon points="539,151 538,143 536,151 441,150 388,152 402,150 401,145 406,100 409,97 409,94 412,92 411,91 400,92 393,98 394,100 391,101 389,108 389,103 391,99 393,98 394,95 399,92 398,91 322,92 320,96 319,94 315,94 315,92 292,93 291,94 294,99 289,94 286,94 284,97 284,100 287,101 284,103 285,114 286,115 287,113 288,115 291,115 285,119 285,122 278,120 276,118 282,117 282,115 285,114 285,106 283,102 284,100 271,97 269,92 257,92 257,94 261,94 263,98 266,95 267,96 263,100 261,99 260,101 254,101 254,97 256,95 255,93 199,93 164,95 161,94 158,96 157,101 156,186 154,186 153,188 150,188 150,186 146,188 146,205 149,205 149,190 150,192 152,190 161,191 162,190 160,188 163,188 164,171 162,164 162,154 164,170 178,170 178,172 186,173 164,173 164,188 162,189 162,192 255,192 258,190 256,189 256,186 258,185 259,179 261,179 259,181 260,184 258,185 259,188 275,188 275,161 273,155 278,152 277,149 279,152 285,152 286,146 288,146 288,152 307,153 332,151 366,152 366,154 482,154 537,153 539,151" stroke="rgb(0,0,0)" /><polygon points="263,425 239,425 263,425" stroke="rgb(0,0,0)" /><polygon points="276,383 234,382 236,380 235,374 222,374 235,373 235,368 224,368 235,367 235,365 270,365 270,367 275,368 276,358 274,356 168,356 168,358 193,358 196,362 199,360 198,363 194,363 192,359 164,359 164,365 188,364 194,366 175,367 189,368 189,374 163,374 162,368 161,374 157,375 161,376 161,382 159,383 161,384 161,387 159,385 152,390 150,396 151,400 153,404 157,407 188,407 189,416 153,415 153,417 150,419 146,426 147,428 145,429 154,433 160,433 161,430 162,433 163,427 165,426 163,424 163,418 189,418 189,433 213,433 214,430 215,433 236,432 237,431 235,427 218,427 235,426 235,424 214,424 214,418 237,417 221,416 235,415 235,410 228,410 228,408 214,408 213,389 214,388 215,407 236,407 237,404 238,407 239,386 238,385 236,387 235,385 218,384 276,383" stroke="rgb(0,0,0)" /><polygon points="362,650 360,648 281,648 280,646 279,649 278,646 280,645 280,636 279,635 278,637 278,633 280,635 281,634 281,626 280,610 278,608 175,607 158,609 158,620 160,620 160,612 161,622 163,611 162,670 166,670 165,672 167,677 165,680 176,680 185,682 187,691 188,684 191,686 188,687 192,690 213,690 214,685 217,684 231,685 236,682 245,682 250,684 253,683 256,685 264,685 266,691 275,692 275,690 272,689 288,688 290,683 290,676 290,685 291,686 293,683 294,688 312,688 312,686 314,686 312,688 316,689 317,687 318,691 319,686 326,687 335,684 344,685 349,681 357,680 358,660 360,652 362,650" stroke="rgb(0,0,0)" /><polygon points="539,151 538,143 536,151 441,150 388,152 402,150 401,145 406,100 409,97 409,94 412,92 411,91 400,92 393,98 394,100 391,101 389,108 389,103 391,99 393,98 394,95 399,92 398,91 322,92 320,96 319,94 315,94 315,92 292,93 291,94 294,99 289,94 286,94 284,97 284,100 287,101 284,103 285,114 286,115 287,113 288,115 291,115 285,119 285,122 275,118 282,117 282,115 285,114 285,106 283,102 284,100 271,97 269,92 257,92 257,94 261,94 263,98 266,95 267,96 263,100 261,99 260,101 254,101 254,97 256,95 255,93 199,93 164,95 161,94 158,96 157,101 156,186 154,186 153,188 150,188 150,186 146,188 146,205 149,205 149,190 150,192 152,190 161,191 162,190 160,188 163,188 164,171 162,164 162,154 164,170 178,170 178,172 186,173 164,173 164,188 162,189 162,192 255,192 258,190 256,189 256,186 258,185 259,179 261,179 259,181 260,184 258,185 259,188 275,188 275,161 273,155 278,152 277,149 279,152 285,152 286,146 288,146 288,152 307,153 332,151 366,152 366,154 482,154 537,153 539,151" stroke="rgb(0,0,0)" /><polygon points="267,514 266,502 205,502 189,505 190,520 206,519 206,517 201,517 201,510 203,507 201,514 202,516 256,516 221,516 213,518 208,517 206,519 207,520 265,520 267,514" stroke="rgb(0,0,0)" /><polygon points="264,216 263,213 261,214 261,201 263,202 263,199 214,200 213,214 213,199 199,199 189,201 189,217 264,216" stroke="rgb(0,0,0)" /><polygon points="264,706 263,692 246,693 244,698 245,706 257,706 261,699 262,700 260,706 264,706" stroke="rgb(0,0,0)" /><polygon points="267,593 266,581 256,582 237,580 200,580 189,582 189,595 188,592 187,596 191,598 213,599 265,599 265,595 267,593" stroke="rgb(0,0,0)" /><polygon points="265,327 264,311 228,312 206,310 190,312 189,326 187,326 188,328 191,329 265,327" stroke="rgb(0,0,0)" /><polygon points="265,290 264,274 201,273 189,275 190,291 265,290" stroke="rgb(0,0,0)" /><polygon points="267,551 265,541 194,541 189,543 189,557 191,559 265,560 267,551" stroke="rgb(0,0,0)" /><polygon points="266,480 265,463 237,463 236,472 237,468 234,465 220,465 220,467 218,463 189,465 190,481 266,480" stroke="rgb(0,0,0)" /><polygon points="263,406 262,385 239,386 240,407 263,406" stroke="rgb(0,0,0)" /><polygon points="264,253 263,251 242,251 261,250 261,239 237,238 236,250 235,237 203,236 188,238 189,254 264,253" stroke="rgb(0,0,0)" /><polygon points="238,705 236,692 229,694 221,692 216,693 216,706 220,704 221,698 221,706 233,706 234,701 234,706 236,707 238,705" stroke="rgb(0,0,0)" /><polygon points="276,383 234,382 236,380 235,374 222,374 235,373 235,368 224,368 235,367 235,365 270,365 270,367 275,368 276,358 274,356 168,356 168,358 193,358 196,362 199,360 198,363 194,363 192,359 164,359 164,365 188,364 194,366 175,367 189,368 189,374 163,374 162,368 161,374 157,375 161,376 161,382 159,383 161,384 161,387 159,385 152,390 150,396 151,400 153,404 157,407 188,407 189,416 153,415 153,417 150,419 146,426 147,428 145,429 154,433 160,433 161,430 162,433 163,427 165,426 163,424 163,418 189,418 189,433 213,433 214,430 215,433 236,432 237,431 235,427 218,427 235,426 235,424 214,424 214,418 237,417 221,416 235,415 235,410 228,410 228,408 214,408 213,389 214,388 215,407 236,407 237,404 238,407 239,386 238,385 236,387 235,385 218,384 276,383" stroke="rgb(0,0,0)" /><polygon points="267,593 266,581 256,582 237,580 200,580 189,582 189,595 188,592 187,596 191,598 213,599 265,599 265,595 267,593" stroke="rgb(0,0,0)" /><polygon points="267,514 266,502 205,502 189,505 190,520 206,519 206,517 201,517 201,510 203,507 201,514 202,516 256,516 221,516 213,518 208,517 206,519 207,520 265,520 267,514" stroke="rgb(0,0,0)" /><polygon points="266,480 265,463 237,463 236,472 237,468 234,465 220,465 220,467 218,463 189,465 190,481 266,480" stroke="rgb(0,0,0)" /><polygon points="265,327 264,311 228,312 206,310 190,312 189,326 187,326 188,328 191,329 265,327" stroke="rgb(0,0,0)" /><polygon points="264,216 263,213 261,214 261,201 263,202 263,199 214,200 213,214 213,199 199,199 189,201 189,217 264,216" stroke="rgb(0,0,0)" /><polygon points="265,290 264,274 201,273 189,275 190,291 265,290" stroke="rgb(0,0,0)" /><polygon points="267,551 265,541 194,541 189,543 189,557 191,559 265,560 267,551" stroke="rgb(0,0,0)" /><polygon points="264,253 263,251 242,251 261,250 261,239 237,238 236,250 235,237 203,236 188,238 189,254 264,253" stroke="rgb(0,0,0)" /><polygon points="186,705 184,692 167,692 165,700 166,693 163,693 164,706 179,706 182,700 181,705 186,705" stroke="rgb(0,0,0)" /><polygon points="362,650 360,648 281,648 280,646 279,649 278,646 280,645 280,636 279,635 278,637 278,633 280,635 281,634 281,626 280,610 278,608 175,607 158,609 158,620 160,620 160,612 161,622 163,611 162,670 166,670 165,672 167,677 165,680 176,680 185,682 187,691 188,684 191,686 188,687 192,690 213,690 214,685 217,684 231,685 236,682 245,682 250,684 253,683 256,685 264,685 266,691 275,692 275,690 272,689 288,688 290,683 290,676 290,685 291,686 293,683 294,688 312,688 312,686 314,686 312,688 316,689 317,687 318,691 319,686 326,687 335,684 344,685 349,681 357,680 358,660 360,652 362,650" stroke="rgb(0,0,0)" /><polygon points="539,151 538,143 536,151 441,150 388,152 402,150 401,145 406,100 409,97 409,94 412,92 411,91 400,92 393,98 394,100 391,101 389,108 389,103 391,99 393,98 394,95 399,92 398,91 322,92 320,96 319,94 315,94 315,92 292,93 291,94 294,99 289,94 286,94 284,97 284,100 287,101 284,103 285,114 286,115 287,113 288,115 291,115 285,119 285,122 275,118 282,117 282,115 285,114 285,106 283,102 284,100 271,97 269,92 257,92 257,94 261,94 263,98 266,95 267,96 263,100 261,99 260,101 254,101 254,97 256,95 255,93 199,93 164,95 161,94 158,96 157,101 156,186 154,186 153,188 150,188 150,186 146,188 146,205 149,205 149,190 150,192 152,190 161,191 162,190 160,188 163,188 164,171 162,164 162,154 164,170 178,170 178,172 186,173 164,173 164,188 162,189 162,192 255,192 258,190 256,189 256,186 258,185 259,179 261,179 259,181 260,184 258,185 259,188 275,188 275,161 273,155 278,152 277,149 279,152 285,152 286,146 288,146 288,152 307,153 332,151 366,152 366,154 482,154 537,153 539,151" stroke="rgb(0,0,0)" /></svg>