<?xml version="1.0" encoding="utf-8" ?>
<svg baseProfile="full" height="100%" version="1.1" width="100%" xmlns="http://www.w3.org/2000/svg" xmlns:ev="http://www.w3.org/2001/xml-events" xmlns:xlink="http://www.w3.org/1999/xlink"><defs /><polygon points="783,578 782,575 771,575 769,569 766,567 743,566 742,578 738,579 738,568 736,566 721,566 721,461 723,459 728,459 731,462 730,521 735,523 759,522 760,525 765,524 764,522 766,521 767,517 766,512 768,486 768,470 765,468 768,467 764,465 751,465 751,462 753,461 752,460 742,460 741,456 738,459 737,448 665,448 663,446 663,345 665,343 692,343 694,346 697,343 720,343 722,345 723,343 738,343 738,333 722,332 722,303 718,300 722,299 720,295 722,293 720,291 722,291 725,296 731,295 730,298 734,301 736,297 738,297 747,301 756,302 756,300 752,298 762,293 760,288 756,287 759,286 761,288 761,291 765,291 768,295 763,298 764,300 779,300 777,286 775,284 776,283 774,282 774,277 766,278 769,275 763,274 762,275 764,276 761,278 760,275 759,276 757,274 751,274 748,276 747,273 744,276 751,281 743,280 743,285 747,286 743,289 744,287 742,283 738,281 741,279 737,277 738,274 736,271 731,274 734,278 733,281 735,284 731,289 728,288 726,290 727,286 724,285 723,287 722,284 716,278 710,279 710,281 712,282 712,288 710,289 709,293 713,297 711,306 712,307 710,308 712,313 711,333 653,334 654,457 710,458 712,460 712,721 733,722 737,720 736,710 723,710 721,708 722,699 737,698 736,688 721,686 722,659 737,657 736,647 722,647 721,644 721,619 723,617 737,617 736,606 726,607 721,606 720,604 721,579 723,577 730,578 731,583 741,583 744,589 746,591 749,591 743,591 742,593 738,594 734,594 733,591 730,593 726,593 726,595 726,593 724,592 722,595 724,605 737,603 749,605 779,605 780,601 778,595 770,580 766,581 770,589 769,592 754,592 750,587 751,585 755,584 758,585 762,591 767,591 768,590 765,585 764,578 770,578 774,581 778,591 779,589 778,594 779,597 781,598 783,578" stroke="rgb(0,0,0)" /><polygon points="779,707 777,702 743,703 747,708 779,707" stroke="rgb(0,0,0)" /><polygon points="779,366 777,363 750,363 755,364 754,366 753,365 750,367 751,368 769,368 779,366" stroke="rgb(0,0,0)" /><polygon points="769,423 767,423 769,423" stroke="rgb(0,0,0)" /><polygon points="782,638 781,607 743,606 741,608 741,617 755,618 762,631 768,629 764,619 772,618 774,620 775,625 776,626 777,624 779,629 779,638 782,638" stroke="rgb(0,0,0)" /><polygon points="771,548 771,540 765,528 760,528 757,526 729,526 727,523 724,524 725,554 728,552 729,540 764,540 767,542 769,548 771,548" stroke="rgb(0,0,0)" /><polygon points="780,685 776,672 773,671 774,668 771,661 724,661 725,665 728,663 731,666 769,666 771,669 770,672 738,672 737,673 739,681 736,671 734,673 737,681 733,672 730,676 724,676 723,674 722,678 724,685 726,683 727,685 728,682 730,685 736,685 737,683 738,685 740,683 741,685 750,686 780,685" stroke="rgb(0,0,0)" /><polygon points="783,578 782,575 771,575 769,569 766,567 743,566 742,578 738,579 738,568 736,566 721,566 721,461 723,459 728,459 731,462 730,521 735,523 759,522 760,525 765,524 764,522 766,521 767,517 766,512 768,486 768,470 765,468 768,467 764,465 751,465 751,462 753,461 752,460 742,460 741,456 738,459 737,448 665,448 663,446 663,345 665,343 692,343 694,346 697,343 720,343 722,345 723,343 738,343 738,333 722,332 722,303 718,300 722,299 720,295 722,293 720,291 722,291 725,296 731,295 730,298 734,301 736,297 738,297 747,301 756,302 756,300 752,298 762,293 760,288 756,287 759,286 761,288 761,291 765,291 768,295 763,298 764,300 779,300 777,286 775,284 776,283 774,282 774,277 766,278 769,275 763,274 762,275 764,276 761,278 760,275 759,276 757,274 751,274 748,276 747,273 744,276 751,281 743,280 743,285 747,286 743,289 744,287 742,283 738,281 741,279 737,277 738,274 736,271 731,274 734,278 733,281 735,284 731,289 728,288 726,290 727,286 724,285 723,287 722,284 716,278 710,279 710,281 712,282 712,288 710,289 709,293 713,297 711,306 712,307 710,308 712,313 711,333 653,334 654,457 710,458 712,460 712,721 733,722 737,720 736,710 723,710 721,708 722,699 737,698 736,688 721,686 722,659 737,657 736,647 722,647 721,644 721,619 723,617 737,617 736,606 726,607 721,606 720,604 721,579 723,577 730,578 731,583 741,583 744,589 746,591 749,591 743,591 742,593 738,594 734,594 733,591 730,593 726,593 726,595 726,593 724,592 722,595 724,605 737,603 749,605 779,605 780,601 778,595 770,580 766,581 770,589 769,592 754,592 750,587 751,585 755,584 758,585 762,591 767,591 768,590 765,585 764,578 770,578 774,581 778,591 779,589 778,594 779,597 781,598 783,578" stroke="rgb(0,0,0)" /><polygon points="780,645 777,634 776,633 775,635 775,631 761,632 759,631 758,625 753,620 724,621 724,645 735,645 737,643 740,643 742,645 780,645" stroke="rgb(0,0,0)" /><polygon points="743,590 740,587 729,588 733,591 743,590" stroke="rgb(0,0,0)" /><polygon points="738,209 736,204 724,205 725,211 733,211 738,209" stroke="rgb(0,0,0)" /><polygon points="746,306 744,302 741,302 741,299 738,299 735,302 729,301 725,306 725,322 727,322 728,316 741,316 742,315 740,313 740,310 746,306" stroke="rgb(0,0,0)" /><polygon points="754,174 752,172 750,173 750,171 753,170 751,164 746,164 740,161 742,159 747,160 747,157 745,157 738,150 736,151 736,157 734,157 734,155 732,154 736,154 735,149 740,149 741,152 741,147 731,147 731,149 726,150 725,154 723,154 721,150 715,152 716,151 714,149 709,148 709,143 711,143 713,146 723,147 725,149 729,148 729,145 731,143 731,146 747,146 745,136 742,136 737,132 738,130 741,130 743,128 741,120 732,120 732,122 730,122 729,119 725,120 723,116 727,113 723,113 722,109 715,111 712,114 706,111 705,113 705,111 703,111 703,114 705,116 703,118 704,119 696,123 699,124 701,127 703,124 703,130 706,132 699,132 698,136 700,138 707,138 701,142 698,142 696,140 693,143 694,144 694,141 692,140 695,138 692,136 687,137 687,132 681,133 681,135 677,135 676,133 678,132 673,128 670,128 675,126 670,121 667,122 667,124 661,125 664,123 660,122 656,116 653,116 653,119 649,118 648,121 645,117 644,119 643,116 640,118 640,120 638,120 641,117 638,115 637,111 643,114 648,113 648,111 645,109 646,108 643,107 641,101 643,101 643,105 647,106 647,109 651,111 655,109 656,105 661,109 665,107 664,105 667,105 667,107 670,110 675,110 679,112 682,110 680,108 681,105 684,104 683,105 686,107 691,106 693,108 699,109 702,106 700,104 701,101 702,102 700,103 702,105 704,105 707,102 710,105 714,105 720,102 724,98 723,97 716,100 715,99 711,103 710,99 712,99 712,95 707,93 693,95 692,93 691,94 693,91 691,88 686,93 688,89 687,87 680,92 683,94 683,99 680,101 679,99 676,99 674,96 673,102 670,99 672,100 673,98 668,95 666,96 664,91 662,96 655,95 654,99 647,99 646,100 651,108 649,108 649,105 647,104 645,99 629,99 628,100 631,102 627,102 628,101 626,99 609,99 606,101 607,103 611,103 607,105 610,109 610,113 618,113 621,110 621,106 622,110 620,114 615,115 617,117 625,118 626,116 622,114 628,114 629,116 634,114 633,118 636,121 636,123 630,124 629,126 608,126 608,137 632,137 632,128 633,126 636,126 641,128 636,129 636,137 634,137 630,143 627,143 627,145 648,147 651,150 661,149 664,151 667,149 665,145 663,145 663,143 658,144 659,143 657,142 657,140 659,140 660,138 668,139 670,137 673,137 682,139 683,141 685,138 685,141 683,141 684,145 679,145 677,147 685,153 690,154 693,152 693,150 694,151 696,149 695,153 694,152 692,154 696,157 700,157 702,161 710,160 722,162 722,164 727,163 727,161 732,162 729,164 730,166 733,166 738,170 733,171 732,169 730,169 729,175 722,176 724,179 739,179 742,177 750,178 754,174" stroke="rgb(0,0,0)" /><polygon points="725,418 725,415 722,413 720,413 717,417 723,419 725,418" stroke="rgb(0,0,0)" /><polygon points="687,515 687,512 683,505 682,508 684,515 687,515" stroke="rgb(0,0,0)" /><polygon points="695,636 694,625 674,626 676,638 692,638 695,636" stroke="rgb(0,0,0)" /><polygon points="695,596 694,586 670,585 669,586 671,588 668,589 670,597 695,596" stroke="rgb(0,0,0)" /><polygon points="694,323 693,312 667,313 669,324 690,325 694,323" stroke="rgb(0,0,0)" /><polygon points="695,556 695,549 693,545 669,546 668,555 670,557 693,558 695,556" stroke="rgb(0,0,0)" /><polygon points="695,479 695,468 693,466 668,468 670,478 675,478 676,474 676,478 678,480 695,479" stroke="rgb(0,0,0)" /><polygon points="682,359 680,359 682,359" stroke="rgb(0,0,0)" /><polygon points="763,264 761,261 759,262 760,261 757,259 748,260 749,259 746,255 744,255 742,258 738,255 740,253 744,254 746,252 739,246 736,248 736,244 734,242 737,235 735,231 726,231 722,237 717,233 713,232 713,235 717,239 724,241 724,244 722,246 717,246 717,249 714,248 713,251 706,244 705,245 706,244 704,242 696,243 694,241 692,243 694,240 692,237 676,236 676,240 674,237 667,238 668,240 674,242 669,242 666,244 668,246 667,248 670,251 679,249 686,253 694,252 694,250 696,250 695,251 698,254 700,253 701,255 705,255 707,259 709,258 708,255 712,255 714,257 718,256 717,257 721,263 719,264 720,265 713,263 713,265 718,267 713,266 710,270 713,273 709,273 713,276 716,276 716,272 718,269 719,272 723,273 723,276 720,277 719,275 717,275 716,278 722,279 722,281 730,287 731,278 729,275 731,273 729,271 736,270 739,276 740,273 740,275 743,276 745,274 744,273 752,273 753,271 750,269 760,269 763,264" stroke="rgb(0,0,0)" /><polygon points="693,210 692,199 667,199 665,201 665,208 667,211 671,213 673,211 688,212 693,210" stroke="rgb(0,0,0)" /><polygon points="680,693 678,693 680,693" stroke="rgb(0,0,0)" /><polygon points="692,430 681,412 677,412 667,418 666,432 668,435 688,435 692,430" stroke="rgb(0,0,0)" /><polygon points="693,172 691,162 668,161 664,163 666,174 686,174 693,172" stroke="rgb(0,0,0)" /><polygon points="700,280 700,278 697,276 700,273 696,271 693,273 693,275 671,274 667,276 667,281 670,284 668,286 669,287 678,286 691,288 695,286 695,282 698,283 698,281 700,280" stroke="rgb(0,0,0)" /><polygon points="665,676 664,665 644,666 646,671 646,674 644,676 645,677 665,676" stroke="rgb(0,0,0)" /><polygon points="627,702 627,696 623,693 614,694 614,696 616,697 614,699 615,704 623,704 627,702" stroke="rgb(0,0,0)" /><polygon points="638,595 635,592 638,589 637,585 633,586 632,584 617,584 613,588 613,595 615,595 615,590 617,597 629,597 630,594 631,596 632,594 633,597 634,595 638,595" stroke="rgb(0,0,0)" /><polygon points="636,636 633,634 635,630 633,624 631,625 631,628 630,625 613,625 614,628 617,627 621,629 622,637 636,636" stroke="rgb(0,0,0)" /><polygon points="632,509 621,508 619,514 619,507 626,506 618,505 617,512 617,506 615,505 614,507 613,505 611,517 620,518 623,512 632,509" stroke="rgb(0,0,0)" /><polygon points="633,441 632,439 630,439 630,432 628,432 628,436 625,428 611,428 612,439 623,439 625,434 626,442 633,441" stroke="rgb(0,0,0)" /><polygon points="637,400 636,389 621,389 618,393 615,389 611,390 612,401 622,401 622,395 624,401 637,400" stroke="rgb(0,0,0)" /><polygon points="638,556 636,552 627,553 623,545 622,548 621,545 612,546 613,558 623,557 623,551 624,555 627,557 638,556" stroke="rgb(0,0,0)" /><polygon points="637,477 633,468 630,466 627,468 627,471 625,471 622,474 626,469 625,468 628,467 627,466 611,467 612,478 629,477 633,479 637,477" stroke="rgb(0,0,0)" /><polygon points="636,361 635,351 610,352 610,359 612,362 636,361" stroke="rgb(0,0,0)" /><polygon points="636,283 635,275 630,275 628,277 626,275 610,276 611,286 634,287 636,283" stroke="rgb(0,0,0)" /><polygon points="636,247 634,237 609,238 610,249 634,249 636,247" stroke="rgb(0,0,0)" /><polygon points="636,323 636,317 633,312 630,312 629,314 627,312 625,317 624,313 617,314 617,312 611,312 609,314 610,325 633,325 636,323" stroke="rgb(0,0,0)" /><polygon points="635,210 633,199 625,199 620,201 618,200 617,202 616,200 608,201 609,211 632,212 635,210" stroke="rgb(0,0,0)" /><polygon points="634,173 634,164 631,162 607,163 607,172 609,174 634,173" stroke="rgb(0,0,0)" /><polygon points="603,136 603,128 601,126 579,127 580,137 603,136" stroke="rgb(0,0,0)" /><polygon points="711,692 711,503 702,494 695,501 700,503 699,523 666,523 664,506 641,483 608,483 608,463 620,462 589,431 586,432 585,445 552,444 551,432 553,424 575,423 558,406 552,406 550,398 525,423 530,424 531,426 530,445 503,445 477,470 477,482 475,484 463,484 447,500 449,502 473,501 477,502 478,521 476,523 446,523 443,504 408,539 422,540 425,542 425,554 423,555 425,558 424,561 393,562 391,556 368,579 371,580 373,583 373,600 345,602 320,627 321,640 306,641 301,646 418,648 547,648 549,718 709,720 711,692" stroke="rgb(0,0,0)" /><polygon points="583,636 582,624 575,626 574,624 572,624 572,630 572,627 570,627 571,633 569,632 569,624 558,626 559,636 583,636" stroke="rgb(0,0,0)" /><polygon points="583,596 582,584 572,584 571,586 567,584 558,585 559,596 583,596" stroke="rgb(0,0,0)" /><polygon points="582,551 579,545 557,546 558,556 580,557 582,551" stroke="rgb(0,0,0)" /><polygon points="582,517 580,514 574,513 572,505 563,506 565,518 582,517" stroke="rgb(0,0,0)" /><polygon points="581,477 580,466 559,466 556,468 557,478 581,477" stroke="rgb(0,0,0)" /><polygon points="581,438 580,428 556,429 556,439 581,438" stroke="rgb(0,0,0)" /><polygon points="580,399 579,389 555,390 556,401 569,400 570,398 576,400 580,399" stroke="rgb(0,0,0)" /><polygon points="579,323 578,313 576,313 574,317 570,316 568,313 554,314 555,325 579,323" stroke="rgb(0,0,0)" /><polygon points="580,362 579,351 568,351 568,357 566,351 565,358 564,351 554,352 555,363 580,362" stroke="rgb(0,0,0)" /><polygon points="579,286 579,278 577,275 564,275 564,280 562,275 553,276 555,287 564,287 565,285 566,287 570,287 572,283 574,285 572,285 572,287 579,286" stroke="rgb(0,0,0)" /><polygon points="579,247 577,238 566,237 565,239 568,241 565,241 563,238 553,238 553,241 556,243 556,245 553,246 554,249 565,249 569,247 572,249 572,242 573,248 575,250 579,247" stroke="rgb(0,0,0)" /><polygon points="578,208 576,200 552,201 553,212 569,212 570,210 571,212 576,212 578,208" stroke="rgb(0,0,0)" /><polygon points="577,173 576,163 551,164 551,171 553,174 577,173" stroke="rgb(0,0,0)" /><polygon points="575,136 574,126 555,127 555,130 559,132 559,137 562,136 562,133 563,135 565,133 566,137 575,136" stroke="rgb(0,0,0)" /><polygon points="575,110 573,100 552,100 550,102 551,112 565,112 575,110" stroke="rgb(0,0,0)" /><polygon points="530,703 530,697 528,694 505,695 506,707 507,700 510,699 511,705 513,707 525,707 527,704 528,705 530,703" stroke="rgb(0,0,0)" /><polygon points="529,635 528,624 504,625 506,636 529,635" stroke="rgb(0,0,0)" /><polygon points="528,589 527,584 511,584 510,586 509,584 508,586 506,584 503,585 503,593 505,596 525,595 528,589" stroke="rgb(0,0,0)" /><polygon points="528,551 526,545 505,544 502,547 504,556 526,556 528,551" stroke="rgb(0,0,0)" /><polygon points="527,516 527,507 525,505 502,506 503,517 527,516" stroke="rgb(0,0,0)" /><polygon points="527,477 525,466 502,467 501,476 503,478 527,477" stroke="rgb(0,0,0)" /><polygon points="530,683 528,673 522,674 512,672 506,674 506,688 515,686 528,687 530,683" stroke="rgb(0,0,0)" /><polygon points="526,438 524,428 501,429 502,439 526,438" stroke="rgb(0,0,0)" /><polygon points="525,400 524,389 500,390 502,401 525,400" stroke="rgb(0,0,0)" /><polygon points="525,362 524,351 499,352 499,360 501,363 525,362" stroke="rgb(0,0,0)" /><polygon points="524,323 524,315 522,313 514,312 512,316 511,313 499,314 500,325 521,325 524,323" stroke="rgb(0,0,0)" /><polygon points="515,285 511,276 499,276 499,287 515,285" stroke="rgb(0,0,0)" /><polygon points="523,241 522,237 506,238 509,244 509,248 511,250 521,249 523,241" stroke="rgb(0,0,0)" /><polygon points="522,212 518,200 508,200 506,202 507,212 522,212" stroke="rgb(0,0,0)" /><polygon points="518,174 515,163 513,164 514,169 511,164 509,164 508,166 506,163 503,166 496,167 497,175 518,174" stroke="rgb(0,0,0)" /><polygon points="520,130 519,116 496,117 496,129 498,131 520,130" stroke="rgb(0,0,0)" /><polygon points="501,705 500,694 487,694 479,701 480,707 481,705 482,707 484,703 486,706 501,705" stroke="rgb(0,0,0)" /><polygon points="501,667 500,653 479,654 480,668 483,667 483,661 484,668 501,667" stroke="rgb(0,0,0)" /><polygon points="486,133 470,133 486,133" stroke="rgb(0,0,0)" /><polygon points="475,634 474,624 450,625 451,636 470,636 475,634" stroke="rgb(0,0,0)" /><polygon points="474,594 473,584 449,585 450,595 474,594" stroke="rgb(0,0,0)" /><polygon points="473,555 472,544 449,545 450,557 465,557 473,555" stroke="rgb(0,0,0)" /><polygon points="473,516 472,505 448,506 448,515 450,517 473,516" stroke="rgb(0,0,0)" /><polygon points="472,477 471,466 448,467 447,474 449,478 472,477" stroke="rgb(0,0,0)" /><polygon points="472,438 471,428 447,429 448,439 472,438" stroke="rgb(0,0,0)" /><polygon points="471,399 470,389 447,390 446,396 448,400 466,401 471,399" stroke="rgb(0,0,0)" /><polygon points="470,362 469,351 445,352 445,360 447,363 457,361 458,363 470,362" stroke="rgb(0,0,0)" /><polygon points="470,323 469,313 445,314 446,325 468,325 470,323" stroke="rgb(0,0,0)" /><polygon points="469,283 469,279 466,276 446,275 444,277 444,281 449,286 463,285 469,283" stroke="rgb(0,0,0)" /><polygon points="468,246 467,238 443,239 444,250 459,249 460,247 468,246" stroke="rgb(0,0,0)" /><polygon points="468,211 468,203 466,201 443,202 444,212 468,211" stroke="rgb(0,0,0)" /><polygon points="475,705 474,700 467,701 458,700 455,698 452,699 454,702 457,702 458,706 475,705" stroke="rgb(0,0,0)" /><polygon points="467,165 444,164 443,169 446,171 454,171 459,170 460,166 467,165" stroke="rgb(0,0,0)" /><polygon points="466,112 466,102 464,100 442,102 443,113 466,112" stroke="rgb(0,0,0)" /><polygon points="448,667 447,653 425,654 426,668 444,668 444,661 445,667 448,667" stroke="rgb(0,0,0)" /><polygon points="435,112 433,101 425,101 424,104 423,101 422,104 421,101 417,102 417,105 421,106 421,114 435,112" stroke="rgb(0,0,0)" /><polygon points="420,135 418,135 420,135" stroke="rgb(0,0,0)" /><polygon points="421,634 420,624 406,624 405,626 405,624 402,623 397,625 398,635 421,634" stroke="rgb(0,0,0)" /><polygon points="421,594 419,584 396,585 397,596 401,595 404,588 402,591 403,595 421,594" stroke="rgb(0,0,0)" /><polygon points="420,555 419,544 402,544 401,546 400,545 398,548 395,549 396,557 417,557 420,555" stroke="rgb(0,0,0)" /><polygon points="420,698 419,693 405,693 403,705 417,706 420,698" stroke="rgb(0,0,0)" /><polygon points="420,516 420,509 418,505 395,506 396,517 420,516" stroke="rgb(0,0,0)" /><polygon points="419,477 418,466 394,467 394,474 396,478 419,477" stroke="rgb(0,0,0)" /><polygon points="419,437 418,428 393,428 395,439 402,439 403,437 405,440 410,440 417,439 419,437" stroke="rgb(0,0,0)" /><polygon points="418,399 417,389 395,390 397,401 418,399" stroke="rgb(0,0,0)" /><polygon points="417,362 416,351 402,351 400,353 400,358 396,362 402,363 404,361 403,353 405,363 417,362" stroke="rgb(0,0,0)" /><polygon points="416,324 414,318 416,317 415,313 404,314 403,315 405,317 397,321 400,325 416,324" stroke="rgb(0,0,0)" /><polygon points="416,281 415,275 402,275 401,279 400,276 399,277 399,286 401,288 411,288 413,283 416,281" stroke="rgb(0,0,0)" /><polygon points="402,244 400,244 402,244" stroke="rgb(0,0,0)" /><polygon points="402,211 402,202 398,201 395,205 396,200 392,199 392,212 400,213 402,211" stroke="rgb(0,0,0)" /><polygon points="406,178 396,176 395,164 398,175 405,175 403,171 400,171 403,169 401,166 404,166 403,164 401,164 403,162 392,162 390,164 391,170 393,170 392,174 392,172 390,172 390,175 392,176 391,178 406,178" stroke="rgb(0,0,0)" /><polygon points="395,666 394,653 373,654 374,668 393,668 395,666" stroke="rgb(0,0,0)" /><polygon points="357,628 355,628 357,628" stroke="rgb(0,0,0)" /><polygon points="369,596 369,594 367,593 367,587 369,584 368,583 363,585 348,583 343,590 344,597 346,597 348,595 347,593 350,592 354,592 356,596 360,597 369,596" stroke="rgb(0,0,0)" /><polygon points="368,556 368,553 362,550 360,547 358,549 355,548 354,550 355,547 359,547 359,544 350,544 344,547 350,547 347,549 349,551 343,553 344,557 352,556 352,554 354,553 353,556 355,558 357,556 356,553 358,556 360,555 360,557 368,556" stroke="rgb(0,0,0)" /><polygon points="367,516 366,505 349,506 349,510 352,516 367,516" stroke="rgb(0,0,0)" /><polygon points="367,476 365,471 356,472 355,466 353,467 353,470 351,466 348,467 349,473 350,474 352,472 352,478 365,478 367,476" stroke="rgb(0,0,0)" /><polygon points="355,438 355,428 350,427 346,438 355,438" stroke="rgb(0,0,0)" /><polygon points="361,403 359,402 359,395 361,390 360,387 342,389 343,404 361,403" stroke="rgb(0,0,0)" /><polygon points="368,365 363,364 361,362 365,356 368,356 367,349 352,349 351,350 353,353 350,356 349,349 341,350 343,360 341,365 342,366 368,365" stroke="rgb(0,0,0)" /><polygon points="368,326 367,311 361,311 357,313 347,311 341,312 341,325 341,318 339,318 340,327 365,328 366,327 363,325 363,322 358,322 356,320 357,317 363,317 364,315 366,318 366,321 364,323 367,327 368,326" stroke="rgb(0,0,0)" /><polygon points="367,290 366,273 364,274 365,288 363,274 340,274 340,280 345,280 347,282 346,287 340,288 340,290 367,290" stroke="rgb(0,0,0)" /><polygon points="349,244 347,244 349,244" stroke="rgb(0,0,0)" /><polygon points="366,215 365,199 364,207 360,206 360,202 362,200 361,199 352,199 351,200 355,206 355,210 349,201 347,207 351,207 351,213 340,215 366,215" stroke="rgb(0,0,0)" /><polygon points="353,170 352,164 340,165 341,176 349,176 353,170" stroke="rgb(0,0,0)" /><polygon points="537,152 532,150 495,150 469,152 441,150 416,152 387,152 390,148 390,145 390,151 401,150 401,148 399,147 400,143 402,143 403,133 402,123 400,132 401,117 403,123 404,116 394,115 394,117 389,118 389,122 389,116 393,115 389,109 389,102 393,96 398,92 397,91 322,92 321,96 316,99 321,103 320,106 322,108 317,111 317,114 314,114 313,112 312,116 310,117 306,115 305,108 302,108 302,104 300,101 303,101 306,96 305,94 309,93 304,92 291,94 295,99 297,99 295,101 296,102 288,101 285,104 285,114 287,114 287,111 287,114 290,114 289,108 292,117 289,116 289,118 287,118 285,122 282,124 283,126 283,123 280,120 277,120 275,117 280,116 278,115 279,112 280,115 284,114 284,103 282,102 276,108 276,113 275,107 279,104 279,99 274,97 266,97 264,100 260,100 263,103 264,108 266,105 271,104 274,101 272,105 273,111 271,106 268,107 266,110 263,110 258,114 261,115 260,117 255,115 255,113 261,109 261,105 259,104 254,108 251,116 251,124 245,132 246,134 251,134 246,136 248,146 247,147 245,144 244,146 245,149 248,151 244,154 238,156 238,154 214,154 213,158 212,154 211,158 210,154 164,154 163,169 184,170 188,168 189,170 210,170 211,168 212,170 213,167 215,170 234,170 236,168 236,165 235,169 237,170 238,164 239,170 245,170 246,165 244,163 244,160 246,158 246,161 249,161 250,164 252,163 251,165 247,165 247,170 262,172 262,175 266,176 271,182 270,188 273,189 275,180 273,168 275,168 275,162 273,155 270,161 270,157 273,154 272,151 274,151 274,155 277,152 276,147 280,152 282,152 286,150 286,143 288,145 291,142 291,144 287,147 288,152 323,152 323,144 327,139 332,137 334,133 334,136 330,140 328,140 324,145 326,151 376,152 369,152 369,154 482,154 537,152" stroke="rgb(0,0,0)" /><polygon points="362,650 358,648 296,649 280,647 279,650 278,648 273,649 273,637 276,632 276,612 276,624 278,624 278,619 278,625 280,625 280,610 277,608 158,609 160,611 161,622 162,610 164,611 164,649 162,665 163,668 167,670 165,671 167,674 167,678 165,680 179,680 185,682 187,688 188,682 192,686 202,686 204,689 211,689 212,687 213,690 214,684 231,685 236,682 246,682 261,685 263,685 264,683 265,690 271,691 272,690 269,687 271,684 275,682 284,684 274,684 271,687 272,688 280,689 288,687 290,683 290,671 291,686 292,672 294,672 292,674 294,683 309,683 313,686 317,686 318,689 319,686 326,687 335,684 345,684 349,681 357,679 358,659 359,654 362,650" stroke="rgb(0,0,0)" /><polygon points="316,705 315,693 293,694 294,706 316,705" stroke="rgb(0,0,0)" /><polygon points="304,629 302,629 304,629" stroke="rgb(0,0,0)" /><polygon points="318,598 315,594 311,596 308,592 304,593 305,589 308,587 307,585 299,585 297,590 298,595 307,595 308,599 318,598" stroke="rgb(0,0,0)" /><polygon points="302,549 300,549 302,549" stroke="rgb(0,0,0)" /><polygon points="318,516 317,502 302,502 292,504 291,510 293,516 295,515 295,513 299,511 299,513 296,515 297,516 318,516" stroke="rgb(0,0,0)" /><polygon points="318,478 318,466 316,464 312,465 309,468 311,469 314,467 311,470 309,470 309,467 311,465 310,464 291,465 291,476 294,478 307,478 312,475 313,477 315,477 316,475 316,478 318,478" stroke="rgb(0,0,0)" /><polygon points="317,403 317,388 315,386 291,388 290,399 292,404 317,403" stroke="rgb(0,0,0)" /><polygon points="318,436 318,427 316,425 291,426 292,439 307,439 309,435 312,435 313,438 316,440 318,436" stroke="rgb(0,0,0)" /><polygon points="317,363 315,349 305,350 307,356 305,364 302,363 305,362 305,356 303,356 303,359 300,356 299,349 290,350 291,366 315,366 315,364 311,363 311,358 313,362 314,357 315,363 317,363" stroke="rgb(0,0,0)" /><polygon points="305,324 301,319 303,312 302,311 292,311 290,313 290,318 294,321 296,325 305,324" stroke="rgb(0,0,0)" /><polygon points="316,279 316,275 314,273 293,274 290,276 289,285 291,285 292,288 302,287 305,283 304,275 309,275 312,286 310,289 314,291 316,279" stroke="rgb(0,0,0)" /><polygon points="315,245 314,236 289,237 292,238 289,240 289,245 295,251 308,250 311,246 312,247 312,238 313,245 315,245" stroke="rgb(0,0,0)" /><polygon points="305,212 304,202 295,201 294,202 297,204 297,209 296,210 296,204 294,206 293,212 300,214 303,214 305,212" stroke="rgb(0,0,0)" /><polygon points="303,175 302,170 298,169 295,165 294,168 296,175 303,175" stroke="rgb(0,0,0)" /><polygon points="289,705 288,697 274,696 272,699 272,706 289,705" stroke="rgb(0,0,0)" /><polygon points="537,152 532,150 495,150 469,152 441,150 416,152 387,152 390,148 390,145 390,151 401,150 401,148 399,147 400,143 402,143 403,133 402,123 400,132 401,117 403,123 404,116 394,115 394,117 389,118 389,122 389,116 393,115 389,109 389,102 393,96 398,92 397,91 322,92 321,96 316,99 321,103 320,106 322,108 317,111 317,114 314,114 313,112 312,116 310,117 306,115 305,108 302,108 302,104 300,101 303,101 306,96 305,94 309,93 304,92 291,94 295,99 297,99 295,101 296,102 288,101 285,104 285,114 287,114 287,111 287,114 290,114 289,108 292,117 289,116 289,118 287,118 285,122 282,124 283,126 283,123 280,120 277,120 275,117 276,118 280,116 278,115 279,112 280,115 284,114 284,103 282,102 276,108 276,113 275,107 279,104 279,99 274,97 266,97 264,100 260,100 263,103 264,108 266,105 271,104 274,101 272,105 273,111 271,106 268,107 266,110 263,110 258,114 261,115 260,117 255,115 255,113 261,109 261,105 259,104 254,108 251,116 251,124 245,132 246,134 251,134 246,136 248,146 247,147 245,144 244,146 245,149 248,151 244,154 238,156 238,154 214,154 213,158 212,154 211,158 210,154 164,154 163,169 184,170 188,168 189,170 210,170 211,168 212,170 213,167 215,170 234,170 236,168 236,165 235,169 237,170 238,164 239,170 245,170 246,165 244,163 244,160 246,158 246,161 249,161 250,164 252,163 251,165 247,165 247,170 262,172 262,175 266,176 271,182 270,188 273,189 275,180 273,168 275,168 275,162 273,155 270,161 270,157 273,154 272,151 274,151 274,155 277,152 276,147 280,152 282,152 286,150 286,143 288,145 291,142 291,144 287,147 288,152 323,152 323,144 327,139 332,137 334,133 334,136 330,140 328,140 324,145 326,151 376,152 369,152 369,154 482,154 537,152" stroke="rgb(0,0,0)" /><polygon points="262,425 251,425 262,425" stroke="rgb(0,0,0)" /><polygon points="275,358 274,356 179,355 171,355 168,357 194,358 196,362 197,360 204,358 275,358" stroke="rgb(0,0,0)" /><polygon points="362,650 358,648 296,649 280,647 279,650 278,648 273,649 273,637 276,632 276,612 276,624 278,624 278,619 278,625 280,625 280,610 277,608 158,609 160,611 161,622 162,610 164,611 164,649 162,665 163,668 167,670 165,671 167,674 167,678 165,680 179,680 185,682 187,688 188,682 192,686 202,686 204,689 211,689 212,687 213,690 214,684 231,685 236,682 246,682 261,685 263,685 264,683 265,690 271,691 272,690 269,687 271,684 275,682 284,684 274,684 271,687 272,688 280,689 288,687 290,683 290,671 291,686 292,672 294,672 292,674 294,683 309,683 313,686 317,686 318,689 319,686 326,687 335,684 345,684 349,681 357,679 358,659 359,654 362,650" stroke="rgb(0,0,0)" /><polygon points="262,178 260,172 239,173 238,178 238,172 247,171 214,170 214,172 236,172 236,177 234,173 215,173 213,177 214,186 230,188 213,189 236,190 238,188 238,182 237,189 239,191 255,191 258,179 262,178" stroke="rgb(0,0,0)" /><polygon points="266,516 266,507 263,506 263,504 266,503 265,502 210,502 189,505 189,518 191,520 203,518 200,517 203,506 204,509 201,515 202,516 215,516 216,508 217,515 254,515 265,517 266,516" stroke="rgb(0,0,0)" /><polygon points="264,216 263,214 261,215 259,213 259,201 263,202 263,199 235,200 247,202 241,202 238,206 238,212 245,215 241,215 241,217 264,216" stroke="rgb(0,0,0)" /><polygon points="264,693 247,692 244,699 244,704 257,706 261,699 261,695 264,693" stroke="rgb(0,0,0)" /><polygon points="267,588 265,582 222,580 214,582 214,590 216,590 216,587 218,585 216,589 217,593 238,593 238,596 234,594 206,596 199,594 204,594 205,592 206,594 212,594 212,583 198,583 195,587 196,590 197,589 196,591 194,591 194,593 197,594 195,595 193,594 194,586 196,583 190,582 189,596 200,598 264,598 265,596 263,594 266,593 267,588" stroke="rgb(0,0,0)" /><polygon points="265,318 265,313 263,311 207,311 206,312 208,315 204,321 204,325 200,327 263,328 265,318" stroke="rgb(0,0,0)" /><polygon points="252,278 252,276 250,276 249,274 241,274 239,276 237,288 238,289 246,287 252,278" stroke="rgb(0,0,0)" /><polygon points="266,558 264,555 266,554 265,542 194,541 189,543 190,558 266,558" stroke="rgb(0,0,0)" /><polygon points="266,478 265,463 237,464 237,472 235,473 237,469 234,465 220,466 227,469 233,469 232,470 221,470 222,469 218,466 219,465 217,463 208,465 189,466 189,479 191,481 240,481 240,479 233,475 240,478 241,477 239,474 241,473 241,470 242,477 245,474 244,472 246,477 263,477 263,465 264,478 266,478" stroke="rgb(0,0,0)" /><polygon points="263,399 261,385 239,386 240,407 261,407 263,399" stroke="rgb(0,0,0)" /><polygon points="262,249 261,239 243,239 243,244 239,238 236,241 238,251 244,249 262,249" stroke="rgb(0,0,0)" /><polygon points="237,700 236,693 226,694 217,692 216,697 219,698 217,702 217,699 215,699 215,704 218,706 221,698 221,706 232,705 234,701 237,700" stroke="rgb(0,0,0)" /><polygon points="208,392 206,392 208,392" stroke="rgb(0,0,0)" /><polygon points="267,588 265,582 222,580 214,582 214,590 216,590 216,587 218,585 216,589 217,593 238,593 238,596 234,594 206,596 199,594 204,594 205,592 206,594 212,594 212,583 198,583 195,587 196,590 197,589 196,591 194,591 194,593 197,594 195,595 193,594 194,586 196,583 190,582 189,596 200,598 264,598 265,596 263,594 266,593 267,588" stroke="rgb(0,0,0)" /><polygon points="266,516 266,507 263,506 263,504 266,503 265,502 210,502 189,505 189,518 191,520 203,518 200,517 203,506 204,509 202,511 202,516 215,516 216,508 217,515 254,515 265,517 266,516" stroke="rgb(0,0,0)" /><polygon points="266,478 265,463 237,464 237,472 235,473 237,469 234,465 220,466 227,469 233,469 232,470 221,470 222,469 218,466 219,465 217,463 208,465 189,466 189,479 191,481 240,481 240,479 233,475 240,478 241,477 239,474 241,473 241,470 242,477 245,474 244,472 246,477 263,477 263,465 264,478 266,478" stroke="rgb(0,0,0)" /><polygon points="204,320 202,320 204,320" stroke="rgb(0,0,0)" /><polygon points="240,216 235,215 236,213 232,212 232,210 236,208 233,204 237,207 240,203 239,201 233,202 233,200 214,200 213,215 212,201 189,201 190,217 240,216" stroke="rgb(0,0,0)" /><polygon points="226,290 221,288 222,281 219,277 219,274 205,274 204,277 202,277 202,279 200,277 200,274 189,275 190,291 215,291 217,289 216,288 219,288 216,290 217,291 226,290" stroke="rgb(0,0,0)" /><polygon points="266,558 264,555 266,554 265,542 194,541 189,543 190,558 266,558" stroke="rgb(0,0,0)" /><polygon points="214,253 209,251 213,250 211,239 210,242 208,238 206,239 206,243 204,245 206,251 204,252 202,250 202,237 188,238 190,254 214,253" stroke="rgb(0,0,0)" /><polygon points="185,705 184,692 166,693 166,699 165,701 163,701 164,706 178,706 182,700 181,705 185,705" stroke="rgb(0,0,0)" /><polygon points="362,650 358,648 296,649 280,647 279,650 278,648 273,649 273,637 276,632 276,612 276,624 278,624 278,619 278,625 280,625 280,610 277,608 158,609 160,611 161,622 162,610 164,611 164,649 162,665 163,668 167,670 165,671 167,674 167,678 165,680 179,680 185,682 187,688 188,682 192,686 202,686 204,689 211,689 212,687 213,690 214,684 231,685 236,682 246,682 261,685 263,685 264,683 265,690 271,691 272,690 269,687 271,684 275,682 284,684 274,684 271,687 272,688 280,689 288,687 290,683 290,671 291,686 292,672 294,672 292,674 294,683 309,683 313,686 317,686 318,689 319,686 326,687 335,684 345,684 349,681 357,679 358,659 359,654 362,650" stroke="rgb(0,0,0)" /><polygon points="260,102 249,101 238,102 237,104 236,102 235,104 234,102 214,102 215,101 212,99 193,99 193,101 211,102 189,102 187,105 187,113 186,102 185,104 184,102 165,102 164,107 163,102 162,115 211,115 208,117 209,118 217,117 213,116 213,114 236,116 250,115 253,106 260,102" stroke="rgb(0,0,0)" /></svg>