<?xml version="1.0" encoding="utf-8" ?>
<svg baseProfile="full" height="100%" version="1.1" width="100%" xmlns="http://www.w3.org/2000/svg" xmlns:ev="http://www.w3.org/2001/xml-events" xmlns:xlink="http://www.w3.org/1999/xlink"><defs /><polygon points="172,636 172,636 172,635 172,635 171,635 171,635 171,636 171,636 172,636" stroke="rgb(0,0,0)" /><polygon points="174,171 174,171 174,170 174,170 173,170 173,170 173,171 173,171 174,171" stroke="rgb(0,0,0)" /><polygon points="177,112 177,112 177,111 177,111 176,110 176,110 175,110 175,110 174,110 174,110 174,111 174,111 175,112 175,112 176,113 176,113 177,112" stroke="rgb(0,0,0)" /><polygon points="177,694 177,694 177,693 177,693 176,693 176,693 176,694 176,694 177,694" stroke="rgb(0,0,0)" /><polygon points="179,400 179,400 179,399 179,399 178,399 178,399 178,400 178,400 179,400" stroke="rgb(0,0,0)" /><polygon points="196,244 196,244 196,243 196,243 195,243 195,243 195,244 195,244 196,244" stroke="rgb(0,0,0)" /><polygon points="196,280 196,280 196,279 196,279 195,279 195,279 195,280 195,280 196,280" stroke="rgb(0,0,0)" /><polygon points="198,470 198,470 198,469 198,469 197,469 197,469 196,469 196,469 196,470 196,470 197,471 197,471 198,470" stroke="rgb(0,0,0)" /><polygon points="197,549 197,549 197,548 197,548 196,548 196,548 196,549 196,549 197,549" stroke="rgb(0,0,0)" /><polygon points="198,207 198,207 199,206 199,206 198,205 198,205 197,205 197,205 197,206 197,206 197,207 197,207 198,207" stroke="rgb(0,0,0)" /><polygon points="199,319 199,319 199,318 199,318 198,318 198,318 198,319 198,319 199,319" stroke="rgb(0,0,0)" /><polygon points="200,510 200,510 200,509 200,509 199,509 199,509 199,510 199,510 200,510" stroke="rgb(0,0,0)" /><polygon points="203,588 203,588 203,587 203,587 202,587 202,587 202,588 202,588 203,588" stroke="rgb(0,0,0)" /><polygon points="224,634 224,634 224,633 224,633 223,633 223,633 223,634 223,634 224,634" stroke="rgb(0,0,0)" /><polygon points="232,697 232,697 232,696 232,696 231,696 231,696 231,697 231,697 232,697" stroke="rgb(0,0,0)" /><polygon points="242,317 242,317 242,316 242,316 241,316 241,316 241,317 241,317 242,317" stroke="rgb(0,0,0)" /><polygon points="243,113 243,113 243,112 243,112 242,112 242,112 242,113 242,113 243,113" stroke="rgb(0,0,0)" /><polygon points="243,174 243,174 243,173 243,173 242,173 242,173 242,174 242,174 243,174" stroke="rgb(0,0,0)" /><polygon points="247,244 247,244 247,243 247,243 246,243 246,243 246,244 246,244 247,244" stroke="rgb(0,0,0)" /><polygon points="247,549 247,549 247,548 247,548 246,548 246,548 246,549 246,549 247,549" stroke="rgb(0,0,0)" /><polygon points="247,588 247,588 247,587 247,587 246,587 246,587 246,588 246,588 247,588" stroke="rgb(0,0,0)" /><polygon points="248,206 248,206 248,205 248,205 247,205 247,205 247,206 247,206 248,206" stroke="rgb(0,0,0)" /><polygon points="248,470 248,470 248,469 248,469 247,469 247,469 247,470 247,470 248,470" stroke="rgb(0,0,0)" /><polygon points="249,416 249,416 249,415 249,415 248,415 248,415 248,416 248,416 249,416" stroke="rgb(0,0,0)" /><polygon points="250,281 250,281 250,280 250,280 249,280 249,280 249,281 249,281 250,281" stroke="rgb(0,0,0)" /><polygon points="251,511 251,511 251,510 251,510 250,510 250,510 250,511 250,511 251,511" stroke="rgb(0,0,0)" /><polygon points="255,363 255,363 255,362 255,362 254,362 254,362 254,363 254,363 255,363" stroke="rgb(0,0,0)" /><polygon points="255,625 255,625 255,624 255,624 254,624 254,624 254,625 254,625 255,625" stroke="rgb(0,0,0)" /><polygon points="267,694 267,694 267,693 267,693 266,693 266,693 266,694 266,694 267,694" stroke="rgb(0,0,0)" /><polygon points="284,122 284,122 284,121 284,121 283,121 283,121 283,122 283,122 284,122" stroke="rgb(0,0,0)" /><polygon points="294,169 294,169 294,168 294,168 293,168 293,168 293,169 293,169 294,169" stroke="rgb(0,0,0)" /><polygon points="297,280 297,280 297,279 297,279 296,279 296,279 296,280 296,280 297,280" stroke="rgb(0,0,0)" /><polygon points="297,355 297,355 297,354 297,354 296,354 296,354 296,355 296,355 297,355" stroke="rgb(0,0,0)" /><polygon points="297,433 297,433 298,432 298,432 297,431 297,431 296,431 296,431 296,432 296,432 296,433 296,433 297,433" stroke="rgb(0,0,0)" /><polygon points="298,243 298,243 298,242 298,242 297,242 297,242 297,243 297,243 298,243" stroke="rgb(0,0,0)" /><polygon points="298,318 298,318 298,317 298,317 297,317 297,317 297,318 297,318 298,318" stroke="rgb(0,0,0)" /><polygon points="299,206 299,206 299,205 299,205 298,205 298,205 298,206 298,206 299,206" stroke="rgb(0,0,0)" /><polygon points="299,471 299,471 299,470 299,470 298,470 298,470 298,471 298,471 299,471" stroke="rgb(0,0,0)" /><polygon points="299,510 299,510 299,509 299,509 298,509 298,509 298,510 298,510 299,510" stroke="rgb(0,0,0)" /><polygon points="300,394 300,394 300,393 300,393 299,393 299,393 299,394 299,394 300,394" stroke="rgb(0,0,0)" /><polygon points="300,549 300,549 300,548 300,548 299,548 299,548 299,549 299,549 300,549" stroke="rgb(0,0,0)" /><polygon points="301,628 301,628 301,627 301,627 300,627 300,627 300,628 300,628 301,628" stroke="rgb(0,0,0)" /><polygon points="302,589 302,589 302,588 302,588 301,588 301,588 301,589 301,589 302,589" stroke="rgb(0,0,0)" /><polygon points="308,694 308,694 308,693 308,693 307,693 307,693 307,694 307,694 308,694" stroke="rgb(0,0,0)" /><polygon points="321,664 321,664 321,663 321,663 320,663 320,663 320,664 320,664 321,664" stroke="rgb(0,0,0)" /><polygon points="339,116 339,116 339,115 339,115 338,115 338,115 338,116 338,116 339,116" stroke="rgb(0,0,0)" /><polygon points="344,169 344,169 344,168 344,168 343,168 343,168 343,169 343,169 344,169" stroke="rgb(0,0,0)" /><polygon points="347,205 347,205 347,204 347,204 346,204 346,204 346,205 346,205 347,205" stroke="rgb(0,0,0)" /><polygon points="348,243 348,243 348,242 348,242 347,242 347,242 347,243 347,243 348,243" stroke="rgb(0,0,0)" /><polygon points="348,280 348,280 348,279 348,279 347,279 347,279 347,280 347,280 348,280" stroke="rgb(0,0,0)" /><polygon points="349,318 349,318 349,317 349,317 348,317 348,317 348,318 348,318 349,318" stroke="rgb(0,0,0)" /><polygon points="349,356 349,356 349,355 349,355 348,355 348,355 348,356 348,356 349,356" stroke="rgb(0,0,0)" /><polygon points="350,394 350,394 350,393 350,393 349,393 349,393 349,394 349,394 350,394" stroke="rgb(0,0,0)" /><polygon points="350,433 350,433 350,432 350,432 349,432 349,432 349,433 349,433 350,433" stroke="rgb(0,0,0)" /><polygon points="351,471 351,471 351,470 351,470 350,470 350,470 350,471 350,471 351,471" stroke="rgb(0,0,0)" /><polygon points="351,549 351,549 351,548 351,548 350,548 350,548 350,549 350,549 351,549" stroke="rgb(0,0,0)" /><polygon points="351,700 351,700 351,699 351,699 350,699 350,699 350,700 350,700 351,700" stroke="rgb(0,0,0)" /><polygon points="352,511 352,511 352,510 352,510 351,510 351,510 351,511 351,511 352,511" stroke="rgb(0,0,0)" /><polygon points="354,589 354,589 354,588 354,588 353,588 353,588 353,589 353,589 354,589" stroke="rgb(0,0,0)" /><polygon points="354,627 354,627 354,626 354,626 353,626 353,626 353,627 353,627 354,627" stroke="rgb(0,0,0)" /><polygon points="386,682 386,682 386,681 386,681 385,681 385,681 385,682 385,682 386,682" stroke="rgb(0,0,0)" /><polygon points="397,170 397,170 397,169 397,169 396,169 396,169 396,170 396,170 397,170" stroke="rgb(0,0,0)" /><polygon points="397,205 397,205 397,204 397,204 396,204 396,204 396,205 396,205 397,205" stroke="rgb(0,0,0)" /><polygon points="400,243 400,243 400,242 400,242 399,242 399,242 399,243 399,243 400,243" stroke="rgb(0,0,0)" /><polygon points="401,280 401,280 401,279 401,279 400,279 400,279 400,280 400,280 401,280" stroke="rgb(0,0,0)" /><polygon points="402,318 402,318 402,317 402,317 401,317 401,317 401,318 401,318 402,318" stroke="rgb(0,0,0)" /><polygon points="403,356 403,356 403,355 403,355 402,355 402,355 402,356 402,356 403,356" stroke="rgb(0,0,0)" /><polygon points="404,394 404,394 404,393 404,393 403,393 403,393 403,394 403,394 404,394" stroke="rgb(0,0,0)" /><polygon points="404,433 404,433 404,432 404,432 403,432 403,432 403,433 403,433 404,433" stroke="rgb(0,0,0)" /><polygon points="405,471 405,471 405,470 405,470 404,470 404,470 404,471 404,471 405,471" stroke="rgb(0,0,0)" /><polygon points="405,511 405,511 405,510 405,510 404,510 404,510 404,511 404,511 405,511" stroke="rgb(0,0,0)" /><polygon points="406,550 406,550 406,549 406,549 405,549 405,549 405,550 405,550 406,550" stroke="rgb(0,0,0)" /><polygon points="407,589 407,589 407,588 407,588 406,588 406,588 406,589 406,589 407,589" stroke="rgb(0,0,0)" /><polygon points="409,628 409,628 409,627 409,627 408,627 408,627 408,628 408,628 409,628" stroke="rgb(0,0,0)" /><polygon points="433,118 433,118 433,117 433,117 432,117 432,117 432,118 432,118 433,118" stroke="rgb(0,0,0)" /><polygon points="452,168 452,168 452,167 452,167 451,167 451,167 451,168 451,168 452,168" stroke="rgb(0,0,0)" /><polygon points="454,205 454,205 454,204 454,204 453,204 453,204 453,205 453,205 454,205" stroke="rgb(0,0,0)" /><polygon points="455,243 455,243 455,242 455,242 454,242 454,242 454,243 454,243 455,243" stroke="rgb(0,0,0)" /><polygon points="456,280 456,280 456,279 456,279 455,279 455,279 455,280 455,280 456,280" stroke="rgb(0,0,0)" /><polygon points="456,318 456,318 456,317 456,317 455,317 455,317 455,318 455,318 456,318" stroke="rgb(0,0,0)" /><polygon points="457,356 457,356 457,355 457,355 456,355 456,355 456,356 456,356 457,356" stroke="rgb(0,0,0)" /><polygon points="458,394 458,394 458,393 458,393 457,393 457,393 457,394 457,394 458,394" stroke="rgb(0,0,0)" /><polygon points="458,471 458,471 458,470 458,470 457,470 457,470 457,471 457,471 458,471" stroke="rgb(0,0,0)" /><polygon points="459,433 459,433 459,432 459,432 458,432 458,432 458,433 458,433 459,433" stroke="rgb(0,0,0)" /><polygon points="459,511 459,511 459,510 459,510 458,510 458,510 458,511 458,511 459,511" stroke="rgb(0,0,0)" /><polygon points="459,549 459,549 459,548 459,548 458,548 458,548 458,549 458,549 459,549" stroke="rgb(0,0,0)" /><polygon points="460,589 460,589 460,588 460,588 459,588 459,588 459,589 459,589 460,589" stroke="rgb(0,0,0)" /><polygon points="461,628 461,628 461,627 461,627 460,627 460,627 460,628 460,628 461,628" stroke="rgb(0,0,0)" /><polygon points="486,697 486,697 486,696 486,696 485,696 485,696 485,697 485,697 486,697" stroke="rgb(0,0,0)" /><polygon points="502,118 502,118 502,117 502,117 501,117 501,117 501,118 501,118 502,118" stroke="rgb(0,0,0)" /><polygon points="506,169 506,169 506,168 506,168 505,168 505,168 505,169 505,169 506,169" stroke="rgb(0,0,0)" /><polygon points="508,204 508,204 508,203 508,203 507,203 507,203 507,204 507,204 508,204" stroke="rgb(0,0,0)" /><polygon points="508,243 508,243 508,242 508,242 507,242 507,242 507,243 507,243 508,243" stroke="rgb(0,0,0)" /><polygon points="508,280 508,280 508,279 508,279 507,279 507,279 507,280 507,280 508,280" stroke="rgb(0,0,0)" /><polygon points="508,679 508,679 508,678 508,678 507,678 507,678 507,679 507,679 508,679" stroke="rgb(0,0,0)" /><polygon points="509,317 509,317 509,316 509,316 508,316 508,316 508,317 508,317 509,317" stroke="rgb(0,0,0)" /><polygon points="510,356 510,356 510,355 510,355 509,355 509,355 509,356 509,356 510,356" stroke="rgb(0,0,0)" /><polygon points="510,394 510,394 510,393 510,393 509,393 509,393 509,394 509,394 510,394" stroke="rgb(0,0,0)" /><polygon points="510,433 510,433 510,432 510,432 509,432 509,432 509,433 509,433 510,433" stroke="rgb(0,0,0)" /><polygon points="511,471 511,471 511,470 511,470 510,470 510,470 510,471 510,471 511,471" stroke="rgb(0,0,0)" /><polygon points="512,511 512,511 512,510 512,510 511,510 511,510 511,511 511,511 512,511" stroke="rgb(0,0,0)" /><polygon points="512,550 512,550 512,549 512,549 511,549 511,549 511,550 511,550 512,550" stroke="rgb(0,0,0)" /><polygon points="514,590 514,590 514,589 514,589 513,589 513,589 513,590 513,590 514,590" stroke="rgb(0,0,0)" /><polygon points="516,628 516,628 516,627 516,627 515,627 515,627 515,628 515,628 516,628" stroke="rgb(0,0,0)" /><polygon points="559,102 559,102 559,101 559,101 558,101 558,101 557,101 557,101 557,102 557,102 558,103 558,103 559,102" stroke="rgb(0,0,0)" /><polygon points="563,167 563,167 563,166 563,166 562,166 562,166 562,167 562,167 563,167" stroke="rgb(0,0,0)" /><polygon points="563,204 563,204 563,203 563,203 562,203 562,203 562,204 562,204 563,204" stroke="rgb(0,0,0)" /><polygon points="563,242 563,242 563,241 563,241 562,241 562,241 562,242 562,242 563,242" stroke="rgb(0,0,0)" /><polygon points="563,279 563,279 563,278 563,278 562,278 562,278 562,279 562,279 563,279" stroke="rgb(0,0,0)" /><polygon points="564,356 564,356 564,355 564,355 563,355 563,355 563,356 563,356 564,356" stroke="rgb(0,0,0)" /><polygon points="565,318 565,318 565,317 565,317 564,317 564,317 564,318 564,318 565,318" stroke="rgb(0,0,0)" /><polygon points="566,131 566,131 566,130 566,130 565,130 565,130 565,131 565,131 566,131" stroke="rgb(0,0,0)" /><polygon points="566,393 566,393 566,392 566,392 565,392 565,392 565,393 565,393 566,393" stroke="rgb(0,0,0)" /><polygon points="566,471 566,471 566,470 566,470 565,470 565,470 565,471 565,471 566,471" stroke="rgb(0,0,0)" /><polygon points="567,433 567,433 567,432 567,432 566,432 566,432 566,433 566,433 567,433" stroke="rgb(0,0,0)" /><polygon points="568,511 568,511 568,510 568,510 567,510 567,510 567,511 567,511 568,511" stroke="rgb(0,0,0)" /><polygon points="568,550 568,550 568,549 568,549 567,549 567,549 567,550 567,550 568,550" stroke="rgb(0,0,0)" /><polygon points="570,590 570,590 570,589 570,589 569,589 569,589 569,590 569,590 570,590" stroke="rgb(0,0,0)" /><polygon points="570,629 570,629 570,628 570,628 569,628 569,628 569,629 569,629 570,629" stroke="rgb(0,0,0)" /><polygon points="581,686 581,686 581,685 581,685 580,685 580,685 580,686 580,686 581,686" stroke="rgb(0,0,0)" /><polygon points="592,101 592,101 592,100 592,100 591,100 591,100 591,101 591,101 592,101" stroke="rgb(0,0,0)" /><polygon points="604,131 604,131 604,130 604,130 603,130 603,130 603,131 603,131 604,131" stroke="rgb(0,0,0)" /><polygon points="618,701 618,701 618,700 618,700 617,700 617,700 617,701 617,701 618,701" stroke="rgb(0,0,0)" /><polygon points="619,318 619,318 619,317 619,317 618,317 618,317 618,318 618,318 619,318" stroke="rgb(0,0,0)" /><polygon points="620,166 620,166 620,165 620,165 619,165 619,165 619,166 619,166 620,166" stroke="rgb(0,0,0)" /><polygon points="620,204 620,204 620,203 620,203 619,203 619,203 619,204 619,204 620,204" stroke="rgb(0,0,0)" /><polygon points="621,242 621,242 621,241 621,241 620,241 620,241 620,242 620,242 621,242" stroke="rgb(0,0,0)" /><polygon points="621,279 621,279 621,278 621,278 620,278 620,278 620,279 620,279 621,279" stroke="rgb(0,0,0)" /><polygon points="621,433 621,433 621,432 621,432 620,432 620,432 620,433 620,433 621,433" stroke="rgb(0,0,0)" /><polygon points="621,471 621,471 621,470 621,470 620,470 620,470 620,471 620,471 621,471" stroke="rgb(0,0,0)" /><polygon points="622,355 622,355 622,354 622,354 621,354 621,354 621,355 621,355 622,355" stroke="rgb(0,0,0)" /><polygon points="622,511 622,511 622,510 622,510 621,510 621,510 621,511 621,511 622,511" stroke="rgb(0,0,0)" /><polygon points="622,550 622,550 622,549 622,549 621,549 621,549 621,550 621,550 622,550" stroke="rgb(0,0,0)" /><polygon points="622,590 622,590 622,589 622,589 621,589 621,589 621,590 621,590 622,590" stroke="rgb(0,0,0)" /><polygon points="623,394 623,394 623,393 623,393 622,393 622,393 622,394 622,394 623,394" stroke="rgb(0,0,0)" /><polygon points="623,630 623,630 623,629 623,629 622,629 622,629 622,630 622,630 623,630" stroke="rgb(0,0,0)" /><polygon points="650,668 650,668 650,667 650,667 649,667 649,667 649,668 649,668 650,668" stroke="rgb(0,0,0)" /><polygon points="678,164 678,164 678,163 678,163 677,163 677,163 677,164 677,164 678,164" stroke="rgb(0,0,0)" /><polygon points="678,203 678,203 678,202 678,202 677,202 677,202 677,203 677,203 678,203" stroke="rgb(0,0,0)" /><polygon points="678,278 678,278 678,277 678,277 677,277 677,277 677,278 677,278 678,278" stroke="rgb(0,0,0)" /><polygon points="679,243 679,243 679,242 679,242 678,242 678,242 678,243 678,243 679,243" stroke="rgb(0,0,0)" /><polygon points="679,428 679,428 679,427 679,427 678,427 678,427 678,428 678,428 679,428" stroke="rgb(0,0,0)" /><polygon points="679,550 679,550 679,549 679,549 678,549 678,549 678,550 678,550 679,550" stroke="rgb(0,0,0)" /><polygon points="680,317 680,317 680,316 680,316 679,316 679,316 679,317 679,317 680,317" stroke="rgb(0,0,0)" /><polygon points="681,362 681,362 681,361 681,361 680,361 680,361 680,362 680,362 681,362" stroke="rgb(0,0,0)" /><polygon points="681,511 681,511 681,510 681,510 680,510 680,510 680,511 680,511 681,511" stroke="rgb(0,0,0)" /><polygon points="681,591 681,591 681,590 681,590 680,590 680,590 680,591 680,591 681,591" stroke="rgb(0,0,0)" /><polygon points="681,701 681,701 681,700 681,700 680,700 680,700 680,701 680,701 681,701" stroke="rgb(0,0,0)" /><polygon points="682,471 682,471 682,470 682,470 681,470 681,470 681,471 681,471 682,471" stroke="rgb(0,0,0)" /><polygon points="682,630 682,630 682,629 682,629 681,629 681,629 681,630 681,630 682,630" stroke="rgb(0,0,0)" /><polygon points="682,669 682,669 682,668 682,668 681,668 681,668 681,669 681,669 682,669" stroke="rgb(0,0,0)" /><polygon points="721,426 721,426 721,425 721,425 720,425 720,425 720,426 720,426 721,426" stroke="rgb(0,0,0)" /><polygon points="727,306 727,306 727,305 727,305 726,305 726,305 726,306 726,306 727,306" stroke="rgb(0,0,0)" /><polygon points="730,204 730,204 730,203 730,203 729,203 729,203 729,204 729,204 730,204" stroke="rgb(0,0,0)" /><polygon points="730,589 730,589 730,588 730,588 729,588 729,588 729,589 729,589 730,589" stroke="rgb(0,0,0)" /><polygon points="734,628 734,628 734,627 734,627 733,627 733,627 733,628 733,628 734,628" stroke="rgb(0,0,0)" /><polygon points="736,674 736,674 736,673 736,673 735,673 735,673 735,674 735,674 736,674" stroke="rgb(0,0,0)" /><polygon points="738,537 738,537 738,536 738,536 737,536 737,536 737,537 737,537 738,537" stroke="rgb(0,0,0)" /><polygon points="741,493 741,493 741,492 741,492 740,492 740,492 740,493 740,493 741,493" stroke="rgb(0,0,0)" /><polygon points="761,627 761,627 761,626 761,626 760,626 760,626 760,627 760,627 761,627" stroke="rgb(0,0,0)" /><polygon points="765,369 765,369 765,368 765,368 764,368 764,368 764,369 764,369 765,369" stroke="rgb(0,0,0)" /><polygon points="765,417 765,417 765,416 765,416 764,416 764,416 764,417 764,417 765,417" stroke="rgb(0,0,0)" /><polygon points="766,707 766,707 766,706 766,706 765,706 765,706 765,707 765,707 766,707" stroke="rgb(0,0,0)" /><polygon points="770,587 770,587 770,586 770,586 769,586 769,586 769,587 769,587 770,587" stroke="rgb(0,0,0)" /></svg>