<?xml version="1.0" encoding="utf-8" ?>
<svg baseProfile="full" height="100%" version="1.1" width="100%" xmlns="http://www.w3.org/2000/svg" xmlns:ev="http://www.w3.org/2001/xml-events" xmlns:xlink="http://www.w3.org/1999/xlink"><defs /><polygon points="173,636 171,636 173,636" stroke="rgb(0,0,0)" /><polygon points="175,171 173,171 175,171" stroke="rgb(0,0,0)" /><polygon points="178,112 176,110 174,111 176,113 178,112" stroke="rgb(0,0,0)" /><polygon points="178,694 176,694 178,694" stroke="rgb(0,0,0)" /><polygon points="180,400 178,400 180,400" stroke="rgb(0,0,0)" /><polygon points="197,244 195,244 197,244" stroke="rgb(0,0,0)" /><polygon points="197,280 195,280 197,280" stroke="rgb(0,0,0)" /><polygon points="199,470 196,470 199,470" stroke="rgb(0,0,0)" /><polygon points="198,549 196,549 198,549" stroke="rgb(0,0,0)" /><polygon points="199,207 198,205 197,207 199,207" stroke="rgb(0,0,0)" /><polygon points="200,319 198,319 200,319" stroke="rgb(0,0,0)" /><polygon points="201,510 199,510 201,510" stroke="rgb(0,0,0)" /><polygon points="204,588 202,588 204,588" stroke="rgb(0,0,0)" /><polygon points="225,634 223,634 225,634" stroke="rgb(0,0,0)" /><polygon points="233,697 231,697 233,697" stroke="rgb(0,0,0)" /><polygon points="243,317 241,317 243,317" stroke="rgb(0,0,0)" /><polygon points="244,113 242,113 244,113" stroke="rgb(0,0,0)" /><polygon points="244,174 242,174 244,174" stroke="rgb(0,0,0)" /><polygon points="248,244 246,244 248,244" stroke="rgb(0,0,0)" /><polygon points="248,549 246,549 248,549" stroke="rgb(0,0,0)" /><polygon points="248,588 246,588 248,588" stroke="rgb(0,0,0)" /><polygon points="249,206 247,206 249,206" stroke="rgb(0,0,0)" /><polygon points="249,470 247,470 249,470" stroke="rgb(0,0,0)" /><polygon points="250,416 248,416 250,416" stroke="rgb(0,0,0)" /><polygon points="251,281 249,281 251,281" stroke="rgb(0,0,0)" /><polygon points="252,511 250,511 252,511" stroke="rgb(0,0,0)" /><polygon points="256,363 254,363 256,363" stroke="rgb(0,0,0)" /><polygon points="256,625 254,625 256,625" stroke="rgb(0,0,0)" /><polygon points="268,694 266,694 268,694" stroke="rgb(0,0,0)" /><polygon points="285,122 283,122 285,122" stroke="rgb(0,0,0)" /><polygon points="295,169 293,169 295,169" stroke="rgb(0,0,0)" /><polygon points="298,280 296,280 298,280" stroke="rgb(0,0,0)" /><polygon points="298,355 296,355 298,355" stroke="rgb(0,0,0)" /><polygon points="298,433 297,431 296,433 298,433" stroke="rgb(0,0,0)" /><polygon points="299,243 297,243 299,243" stroke="rgb(0,0,0)" /><polygon points="299,318 297,318 299,318" stroke="rgb(0,0,0)" /><polygon points="300,206 298,206 300,206" stroke="rgb(0,0,0)" /><polygon points="300,471 298,471 300,471" stroke="rgb(0,0,0)" /><polygon points="300,510 298,510 300,510" stroke="rgb(0,0,0)" /><polygon points="301,394 299,394 301,394" stroke="rgb(0,0,0)" /><polygon points="301,549 299,549 301,549" stroke="rgb(0,0,0)" /><polygon points="302,628 300,628 302,628" stroke="rgb(0,0,0)" /><polygon points="303,589 301,589 303,589" stroke="rgb(0,0,0)" /><polygon points="309,694 307,694 309,694" stroke="rgb(0,0,0)" /><polygon points="322,664 320,664 322,664" stroke="rgb(0,0,0)" /><polygon points="340,116 338,116 340,116" stroke="rgb(0,0,0)" /><polygon points="345,169 343,169 345,169" stroke="rgb(0,0,0)" /><polygon points="348,205 346,205 348,205" stroke="rgb(0,0,0)" /><polygon points="349,243 347,243 349,243" stroke="rgb(0,0,0)" /><polygon points="349,280 347,280 349,280" stroke="rgb(0,0,0)" /><polygon points="350,318 348,318 350,318" stroke="rgb(0,0,0)" /><polygon points="350,356 348,356 350,356" stroke="rgb(0,0,0)" /><polygon points="351,394 349,394 351,394" stroke="rgb(0,0,0)" /><polygon points="351,433 349,433 351,433" stroke="rgb(0,0,0)" /><polygon points="352,471 350,471 352,471" stroke="rgb(0,0,0)" /><polygon points="352,549 350,549 352,549" stroke="rgb(0,0,0)" /><polygon points="352,700 350,700 352,700" stroke="rgb(0,0,0)" /><polygon points="353,511 351,511 353,511" stroke="rgb(0,0,0)" /><polygon points="355,589 353,589 355,589" stroke="rgb(0,0,0)" /><polygon points="355,627 353,627 355,627" stroke="rgb(0,0,0)" /><polygon points="387,682 385,682 387,682" stroke="rgb(0,0,0)" /><polygon points="398,170 396,170 398,170" stroke="rgb(0,0,0)" /><polygon points="398,205 396,205 398,205" stroke="rgb(0,0,0)" /><polygon points="401,243 399,243 401,243" stroke="rgb(0,0,0)" /><polygon points="402,280 400,280 402,280" stroke="rgb(0,0,0)" /><polygon points="403,318 401,318 403,318" stroke="rgb(0,0,0)" /><polygon points="404,356 402,356 404,356" stroke="rgb(0,0,0)" /><polygon points="405,394 403,394 405,394" stroke="rgb(0,0,0)" /><polygon points="405,433 403,433 405,433" stroke="rgb(0,0,0)" /><polygon points="406,471 404,471 406,471" stroke="rgb(0,0,0)" /><polygon points="406,511 404,511 406,511" stroke="rgb(0,0,0)" /><polygon points="407,550 405,550 407,550" stroke="rgb(0,0,0)" /><polygon points="408,589 406,589 408,589" stroke="rgb(0,0,0)" /><polygon points="410,628 408,628 410,628" stroke="rgb(0,0,0)" /><polygon points="434,118 432,118 434,118" stroke="rgb(0,0,0)" /><polygon points="453,168 451,168 453,168" stroke="rgb(0,0,0)" /><polygon points="455,205 453,205 455,205" stroke="rgb(0,0,0)" /><polygon points="456,243 454,243 456,243" stroke="rgb(0,0,0)" /><polygon points="457,280 455,280 457,280" stroke="rgb(0,0,0)" /><polygon points="457,318 455,318 457,318" stroke="rgb(0,0,0)" /><polygon points="458,356 456,356 458,356" stroke="rgb(0,0,0)" /><polygon points="459,394 457,394 459,394" stroke="rgb(0,0,0)" /><polygon points="459,471 457,471 459,471" stroke="rgb(0,0,0)" /><polygon points="460,433 458,433 460,433" stroke="rgb(0,0,0)" /><polygon points="460,511 458,511 460,511" stroke="rgb(0,0,0)" /><polygon points="460,549 458,549 460,549" stroke="rgb(0,0,0)" /><polygon points="461,589 459,589 461,589" stroke="rgb(0,0,0)" /><polygon points="462,628 460,628 462,628" stroke="rgb(0,0,0)" /><polygon points="487,697 485,697 487,697" stroke="rgb(0,0,0)" /><polygon points="503,118 501,118 503,118" stroke="rgb(0,0,0)" /><polygon points="507,169 505,169 507,169" stroke="rgb(0,0,0)" /><polygon points="509,204 507,204 509,204" stroke="rgb(0,0,0)" /><polygon points="509,243 507,243 509,243" stroke="rgb(0,0,0)" /><polygon points="509,280 507,280 509,280" stroke="rgb(0,0,0)" /><polygon points="509,679 507,679 509,679" stroke="rgb(0,0,0)" /><polygon points="510,317 508,317 510,317" stroke="rgb(0,0,0)" /><polygon points="511,356 509,356 511,356" stroke="rgb(0,0,0)" /><polygon points="511,394 509,394 511,394" stroke="rgb(0,0,0)" /><polygon points="511,433 509,433 511,433" stroke="rgb(0,0,0)" /><polygon points="512,471 510,471 512,471" stroke="rgb(0,0,0)" /><polygon points="513,511 511,511 513,511" stroke="rgb(0,0,0)" /><polygon points="513,550 511,550 513,550" stroke="rgb(0,0,0)" /><polygon points="515,590 513,590 515,590" stroke="rgb(0,0,0)" /><polygon points="517,628 515,628 517,628" stroke="rgb(0,0,0)" /><polygon points="560,102 557,102 560,102" stroke="rgb(0,0,0)" /><polygon points="564,167 562,167 564,167" stroke="rgb(0,0,0)" /><polygon points="564,204 562,204 564,204" stroke="rgb(0,0,0)" /><polygon points="564,242 562,242 564,242" stroke="rgb(0,0,0)" /><polygon points="564,279 562,279 564,279" stroke="rgb(0,0,0)" /><polygon points="565,356 563,356 565,356" stroke="rgb(0,0,0)" /><polygon points="566,318 564,318 566,318" stroke="rgb(0,0,0)" /><polygon points="567,131 565,131 567,131" stroke="rgb(0,0,0)" /><polygon points="567,393 565,393 567,393" stroke="rgb(0,0,0)" /><polygon points="567,471 565,471 567,471" stroke="rgb(0,0,0)" /><polygon points="568,433 566,433 568,433" stroke="rgb(0,0,0)" /><polygon points="569,511 567,511 569,511" stroke="rgb(0,0,0)" /><polygon points="569,550 567,550 569,550" stroke="rgb(0,0,0)" /><polygon points="571,590 569,590 571,590" stroke="rgb(0,0,0)" /><polygon points="571,629 569,629 571,629" stroke="rgb(0,0,0)" /><polygon points="582,686 580,686 582,686" stroke="rgb(0,0,0)" /><polygon points="593,101 591,101 593,101" stroke="rgb(0,0,0)" /><polygon points="605,131 603,131 605,131" stroke="rgb(0,0,0)" /><polygon points="619,701 617,701 619,701" stroke="rgb(0,0,0)" /><polygon points="620,318 618,318 620,318" stroke="rgb(0,0,0)" /><polygon points="621,166 619,166 621,166" stroke="rgb(0,0,0)" /><polygon points="621,204 619,204 621,204" stroke="rgb(0,0,0)" /><polygon points="622,242 620,242 622,242" stroke="rgb(0,0,0)" /><polygon points="622,279 620,279 622,279" stroke="rgb(0,0,0)" /><polygon points="622,433 620,433 622,433" stroke="rgb(0,0,0)" /><polygon points="622,471 620,471 622,471" stroke="rgb(0,0,0)" /><polygon points="623,355 621,355 623,355" stroke="rgb(0,0,0)" /><polygon points="623,511 621,511 623,511" stroke="rgb(0,0,0)" /><polygon points="623,550 621,550 623,550" stroke="rgb(0,0,0)" /><polygon points="623,590 621,590 623,590" stroke="rgb(0,0,0)" /><polygon points="624,394 622,394 624,394" stroke="rgb(0,0,0)" /><polygon points="624,630 622,630 624,630" stroke="rgb(0,0,0)" /><polygon points="651,668 649,668 651,668" stroke="rgb(0,0,0)" /><polygon points="679,164 677,164 679,164" stroke="rgb(0,0,0)" /><polygon points="679,203 677,203 679,203" stroke="rgb(0,0,0)" /><polygon points="679,278 677,278 679,278" stroke="rgb(0,0,0)" /><polygon points="680,243 678,243 680,243" stroke="rgb(0,0,0)" /><polygon points="680,428 678,428 680,428" stroke="rgb(0,0,0)" /><polygon points="680,550 678,550 680,550" stroke="rgb(0,0,0)" /><polygon points="681,317 679,317 681,317" stroke="rgb(0,0,0)" /><polygon points="682,362 680,362 682,362" stroke="rgb(0,0,0)" /><polygon points="682,511 680,511 682,511" stroke="rgb(0,0,0)" /><polygon points="682,591 680,591 682,591" stroke="rgb(0,0,0)" /><polygon points="682,701 680,701 682,701" stroke="rgb(0,0,0)" /><polygon points="683,471 681,471 683,471" stroke="rgb(0,0,0)" /><polygon points="683,630 681,630 683,630" stroke="rgb(0,0,0)" /><polygon points="683,669 681,669 683,669" stroke="rgb(0,0,0)" /><polygon points="722,426 720,426 722,426" stroke="rgb(0,0,0)" /><polygon points="728,306 726,306 728,306" stroke="rgb(0,0,0)" /><polygon points="731,204 729,204 731,204" stroke="rgb(0,0,0)" /><polygon points="731,589 729,589 731,589" stroke="rgb(0,0,0)" /><polygon points="735,628 733,628 735,628" stroke="rgb(0,0,0)" /><polygon points="737,674 735,674 737,674" stroke="rgb(0,0,0)" /><polygon points="739,537 737,537 739,537" stroke="rgb(0,0,0)" /><polygon points="742,493 740,493 742,493" stroke="rgb(0,0,0)" /><polygon points="762,627 760,627 762,627" stroke="rgb(0,0,0)" /><polygon points="766,369 764,369 766,369" stroke="rgb(0,0,0)" /><polygon points="766,417 764,417 766,417" stroke="rgb(0,0,0)" /><polygon points="767,707 765,707 767,707" stroke="rgb(0,0,0)" /><polygon points="771,587 769,587 771,587" stroke="rgb(0,0,0)" /></svg>