<?xml version="1.0" encoding="utf-8" ?>
<svg baseProfile="full" height="100%" version="1.1" width="100%" xmlns="http://www.w3.org/2000/svg" xmlns:ev="http://www.w3.org/2001/xml-events" xmlns:xlink="http://www.w3.org/1999/xlink"><defs /><polygon points="775,590 772,585 770,590 775,590" stroke="rgb(0,0,0)" /><polygon points="771,707 769,707 771,707" stroke="rgb(0,0,0)" /><polygon points="779,366 777,364 776,365 771,363 765,365 763,365 762,363 761,364 762,367 769,368 779,366" stroke="rgb(0,0,0)" /><polygon points="769,423 767,423 769,423" stroke="rgb(0,0,0)" /><polygon points="767,628 766,626 761,629 764,630 767,628" stroke="rgb(0,0,0)" /><polygon points="752,536 737,534 733,536 748,538 752,536" stroke="rgb(0,0,0)" /><polygon points="748,673 738,673 748,673" stroke="rgb(0,0,0)" /><polygon points="767,505 767,484 765,484 767,478 767,471 765,471 765,475 764,469 761,468 759,470 760,481 758,476 758,467 750,465 749,461 732,461 731,505 733,506 731,508 731,521 744,522 744,520 738,520 745,518 763,521 766,519 765,509 764,513 763,510 758,511 758,517 757,513 754,510 746,510 745,514 744,509 746,504 747,507 767,505" stroke="rgb(0,0,0)" /><polygon points="752,629 752,625 748,620 724,621 724,628 726,630 752,629" stroke="rgb(0,0,0)" /><polygon points="734,590 732,590 734,590" stroke="rgb(0,0,0)" /><polygon points="737,209 736,204 725,205 726,210 737,209" stroke="rgb(0,0,0)" /><polygon points="745,306 743,303 741,303 737,309 734,309 733,307 731,310 728,309 726,311 726,315 740,315 741,314 739,310 745,306" stroke="rgb(0,0,0)" /><polygon points="732,166 731,164 730,166 732,166" stroke="rgb(0,0,0)" /><polygon points="724,418 722,418 724,418" stroke="rgb(0,0,0)" /><polygon points="686,513 685,511 683,512 685,514 686,513" stroke="rgb(0,0,0)" /><polygon points="695,636 694,626 682,627 684,637 695,636" stroke="rgb(0,0,0)" /><polygon points="694,595 694,591 688,589 693,588 693,586 679,586 676,591 676,593 680,596 689,597 694,595" stroke="rgb(0,0,0)" /><polygon points="692,323 691,318 690,317 689,319 686,314 680,314 684,324 686,323 685,320 687,324 692,323" stroke="rgb(0,0,0)" /><polygon points="691,553 689,551 688,546 685,547 685,552 683,546 681,546 677,550 678,553 675,548 671,549 675,557 684,557 684,554 687,557 689,557 691,553" stroke="rgb(0,0,0)" /><polygon points="689,470 687,469 687,467 682,467 681,477 685,478 685,472 689,470" stroke="rgb(0,0,0)" /><polygon points="682,359 680,359 682,359" stroke="rgb(0,0,0)" /><polygon points="682,244 680,244 682,244" stroke="rgb(0,0,0)" /><polygon points="681,204 677,199 672,199 670,201 673,205 674,211 677,211 677,205 681,204" stroke="rgb(0,0,0)" /><polygon points="680,693 678,693 680,693" stroke="rgb(0,0,0)" /><polygon points="680,427 677,427 680,427" stroke="rgb(0,0,0)" /><polygon points="692,172 691,167 688,168 682,162 676,163 676,166 683,173 692,172" stroke="rgb(0,0,0)" /><polygon points="681,280 680,276 677,275 677,281 679,282 681,280" stroke="rgb(0,0,0)" /><polygon points="654,669 652,669 654,669" stroke="rgb(0,0,0)" /><polygon points="627,698 616,698 614,702 622,703 625,702 627,698" stroke="rgb(0,0,0)" /><polygon points="627,595 626,589 624,591 625,595 627,595" stroke="rgb(0,0,0)" /><polygon points="629,634 627,625 615,625 621,628 622,627 621,632 623,635 629,634" stroke="rgb(0,0,0)" /><polygon points="625,511 623,508 621,509 622,512 625,511" stroke="rgb(0,0,0)" /><polygon points="625,434 623,434 625,434" stroke="rgb(0,0,0)" /><polygon points="625,394 623,393 622,395 623,396 625,394" stroke="rgb(0,0,0)" /><polygon points="625,550 622,550 625,550" stroke="rgb(0,0,0)" /><polygon points="624,471 622,471 624,471" stroke="rgb(0,0,0)" /><polygon points="636,361 634,351 625,351 624,354 621,354 620,351 611,352 612,362 636,361" stroke="rgb(0,0,0)" /><polygon points="624,281 624,276 622,276 622,279 620,275 618,277 619,281 621,283 624,281" stroke="rgb(0,0,0)" /><polygon points="624,243 622,237 621,243 624,243" stroke="rgb(0,0,0)" /><polygon points="625,319 623,315 619,316 621,320 625,319" stroke="rgb(0,0,0)" /><polygon points="627,207 623,202 619,202 619,205 617,206 619,211 620,209 626,209 623,205 626,208 627,207" stroke="rgb(0,0,0)" /><polygon points="624,171 622,165 620,165 620,168 618,163 617,168 622,172 624,171" stroke="rgb(0,0,0)" /><polygon points="601,135 600,128 596,126 585,127 586,129 588,128 591,129 591,131 594,133 591,134 593,135 593,137 601,135" stroke="rgb(0,0,0)" /><polygon points="710,680 710,666 708,664 710,663 710,643 707,643 709,642 710,638 707,636 710,633 708,628 708,543 710,540 709,464 710,462 708,460 699,462 701,464 702,473 702,482 700,484 667,485 664,484 663,468 664,462 666,461 655,460 654,491 660,493 654,493 653,460 652,455 650,453 652,448 651,386 647,382 642,388 643,406 641,407 606,406 606,378 612,376 624,377 624,375 627,375 628,377 631,374 624,368 608,369 607,374 604,377 604,385 603,376 598,376 597,378 596,376 595,377 595,385 594,378 563,378 563,376 559,372 555,376 556,377 554,377 537,395 531,399 530,407 519,407 505,421 508,422 508,424 512,424 514,422 516,424 527,424 527,422 530,423 532,431 531,445 497,445 495,442 497,441 497,435 495,433 493,435 492,434 474,452 476,454 472,454 467,459 470,462 474,462 474,460 476,460 478,465 478,482 476,484 443,483 424,502 425,522 403,523 375,551 382,553 381,568 384,572 380,571 381,556 379,555 373,558 372,562 364,562 356,570 357,572 354,572 350,576 353,579 356,579 358,577 360,579 373,580 372,602 343,602 342,604 339,600 338,588 320,606 324,609 332,609 332,624 339,631 341,619 374,619 374,635 376,635 376,633 377,636 381,636 383,632 383,636 385,637 385,644 383,645 386,646 390,644 391,645 389,645 389,647 488,647 489,644 491,647 540,647 542,640 543,647 545,641 545,632 545,646 549,648 549,651 587,651 590,655 594,656 588,655 586,657 586,653 571,653 570,655 568,653 549,653 548,687 549,688 550,686 551,689 642,688 694,690 708,689 710,680" stroke="rgb(0,0,0)" /><polygon points="572,629 570,629 572,629" stroke="rgb(0,0,0)" /><polygon points="571,590 569,590 571,590" stroke="rgb(0,0,0)" /><polygon points="580,556 579,546 570,545 569,553 571,553 572,547 572,555 575,557 580,556" stroke="rgb(0,0,0)" /><polygon points="577,515 574,514 573,508 571,506 567,507 569,517 577,515" stroke="rgb(0,0,0)" /><polygon points="581,476 581,470 577,469 576,467 559,467 556,469 557,478 575,478 581,476" stroke="rgb(0,0,0)" /><polygon points="580,437 580,430 578,428 556,429 557,439 576,439 580,437" stroke="rgb(0,0,0)" /><polygon points="580,397 580,390 578,389 568,390 565,393 560,392 558,398 575,398 577,396 577,393 577,397 580,397" stroke="rgb(0,0,0)" /><polygon points="568,318 566,318 568,318" stroke="rgb(0,0,0)" /><polygon points="567,356 565,356 567,356" stroke="rgb(0,0,0)" /><polygon points="567,279 564,279 567,279" stroke="rgb(0,0,0)" /><polygon points="568,242 564,241 563,243 566,244 568,242" stroke="rgb(0,0,0)" /><polygon points="570,203 566,202 563,207 561,208 560,206 558,208 558,203 556,203 556,207 556,204 553,202 553,210 566,211 570,203" stroke="rgb(0,0,0)" /><polygon points="576,173 575,163 567,163 566,167 565,166 564,168 562,163 552,165 552,172 553,173 555,171 555,174 576,173" stroke="rgb(0,0,0)" /><polygon points="564,130 562,130 564,130" stroke="rgb(0,0,0)" /><polygon points="574,110 574,107 571,105 568,106 566,101 554,102 556,111 574,110" stroke="rgb(0,0,0)" /><polygon points="527,695 524,694 523,697 522,694 512,694 512,705 517,706 518,704 525,704 527,695" stroke="rgb(0,0,0)" /><polygon points="528,634 527,625 513,625 510,627 512,628 511,630 505,630 506,635 528,634" stroke="rgb(0,0,0)" /><polygon points="527,589 526,585 521,585 519,587 517,585 516,587 511,587 509,591 509,589 508,588 507,590 505,586 504,594 523,595 527,589" stroke="rgb(0,0,0)" /><polygon points="527,552 527,548 523,547 523,545 518,545 518,547 514,545 503,546 503,554 506,556 518,556 518,554 527,552" stroke="rgb(0,0,0)" /><polygon points="526,515 525,513 519,511 515,512 514,510 503,510 504,516 513,517 526,515" stroke="rgb(0,0,0)" /><polygon points="523,477 521,473 521,467 511,467 510,469 513,470 512,471 514,473 507,473 502,476 504,478 523,477" stroke="rgb(0,0,0)" /><polygon points="513,673 511,673 513,673" stroke="rgb(0,0,0)" /><polygon points="525,433 524,428 501,429 503,438 508,438 509,435 514,434 515,431 516,434 525,433" stroke="rgb(0,0,0)" /><polygon points="513,394 510,391 510,389 502,389 501,399 511,400 513,394" stroke="rgb(0,0,0)" /><polygon points="513,361 512,353 500,354 500,359 502,361 513,361" stroke="rgb(0,0,0)" /><polygon points="512,323 510,316 499,316 500,324 512,323" stroke="rgb(0,0,0)" /><polygon points="512,279 509,279 512,279" stroke="rgb(0,0,0)" /><polygon points="514,248 513,240 511,238 509,246 511,249 514,248" stroke="rgb(0,0,0)" /><polygon points="510,211 510,204 508,203 507,210 509,212 510,211" stroke="rgb(0,0,0)" /><polygon points="514,174 513,168 508,167 506,164 504,167 496,167 496,172 497,173 498,170 499,175 514,174" stroke="rgb(0,0,0)" /><polygon points="501,117 499,117 501,117" stroke="rgb(0,0,0)" /><polygon points="501,698 500,695 488,695 485,698 485,705 499,706 501,698" stroke="rgb(0,0,0)" /><polygon points="501,667 500,657 498,659 483,659 483,664 487,668 494,668 494,661 498,663 499,668 501,667" stroke="rgb(0,0,0)" /><polygon points="477,133 471,133 477,133" stroke="rgb(0,0,0)" /><polygon points="463,629 462,627 461,629 463,629" stroke="rgb(0,0,0)" /><polygon points="470,594 469,586 468,589 464,585 459,588 460,594 470,594" stroke="rgb(0,0,0)" /><polygon points="462,551 462,547 460,545 449,547 449,550 451,552 462,551" stroke="rgb(0,0,0)" /><polygon points="461,512 460,508 456,509 457,512 461,512" stroke="rgb(0,0,0)" /><polygon points="471,471 470,467 455,467 452,471 454,473 450,473 448,476 459,477 459,473 461,472 460,470 465,473 471,471" stroke="rgb(0,0,0)" /><polygon points="471,434 468,433 467,428 463,428 459,436 462,437 464,435 467,435 466,436 468,438 471,434" stroke="rgb(0,0,0)" /><polygon points="471,395 469,389 447,392 448,395 456,393 459,396 460,393 461,397 463,397 465,400 467,399 467,397 471,395" stroke="rgb(0,0,0)" /><polygon points="470,359 469,353 446,354 447,361 449,358 456,358 462,361 467,361 470,359" stroke="rgb(0,0,0)" /><polygon points="465,323 464,315 463,317 454,317 453,315 450,315 448,317 449,318 445,320 446,324 462,324 463,319 463,323 465,323" stroke="rgb(0,0,0)" /><polygon points="459,279 458,277 457,279 459,279" stroke="rgb(0,0,0)" /><polygon points="460,246 456,243 451,245 453,249 458,248 460,246" stroke="rgb(0,0,0)" /><polygon points="457,206 456,204 455,206 457,206" stroke="rgb(0,0,0)" /><polygon points="455,701 453,701 455,701" stroke="rgb(0,0,0)" /><polygon points="455,168 453,168 455,168" stroke="rgb(0,0,0)" /><polygon points="463,112 462,101 442,102 442,109 445,110 447,113 463,112" stroke="rgb(0,0,0)" /><polygon points="441,667 441,661 438,659 432,664 432,666 435,668 441,667" stroke="rgb(0,0,0)" /><polygon points="431,104 430,101 426,101 421,112 427,113 429,106 431,104" stroke="rgb(0,0,0)" /><polygon points="420,135 418,135 420,135" stroke="rgb(0,0,0)" /><polygon points="411,628 409,628 411,628" stroke="rgb(0,0,0)" /><polygon points="411,588 409,587 408,589 409,590 411,588" stroke="rgb(0,0,0)" /><polygon points="420,553 419,546 412,546 411,549 410,546 407,549 406,546 401,555 405,556 407,554 407,556 415,556 416,554 420,553" stroke="rgb(0,0,0)" /><polygon points="419,697 417,694 406,694 404,697 404,705 416,706 419,697" stroke="rgb(0,0,0)" /><polygon points="419,515 418,507 399,508 400,516 419,515" stroke="rgb(0,0,0)" /><polygon points="408,470 406,470 408,470" stroke="rgb(0,0,0)" /><polygon points="408,434 406,434 408,434" stroke="rgb(0,0,0)" /><polygon points="415,397 414,393 410,393 409,396 406,391 396,392 397,399 401,398 401,400 408,400 409,398 415,397" stroke="rgb(0,0,0)" /><polygon points="417,360 415,353 406,353 404,356 407,362 413,362 417,360" stroke="rgb(0,0,0)" /><polygon points="404,318 402,318 404,318" stroke="rgb(0,0,0)" /><polygon points="416,280 415,276 403,276 401,280 401,286 411,287 412,286 410,284 408,285 410,281 414,282 416,280" stroke="rgb(0,0,0)" /><polygon points="402,244 400,244 402,244" stroke="rgb(0,0,0)" /><polygon points="402,211 401,202 398,201 396,205 396,211 402,211" stroke="rgb(0,0,0)" /><polygon points="399,170 397,170 399,170" stroke="rgb(0,0,0)" /><polygon points="382,665 381,663 380,665 382,665" stroke="rgb(0,0,0)" /><polygon points="357,628 355,628 357,628" stroke="rgb(0,0,0)" /><polygon points="356,590 355,588 354,590 356,590" stroke="rgb(0,0,0)" /><polygon points="354,549 352,549 354,549" stroke="rgb(0,0,0)" /><polygon points="366,515 365,507 350,508 352,516 353,514 355,516 366,515" stroke="rgb(0,0,0)" /><polygon points="353,471 351,471 353,471" stroke="rgb(0,0,0)" /><polygon points="353,435 353,432 350,431 349,435 353,435" stroke="rgb(0,0,0)" /><polygon points="354,402 350,400 352,397 351,390 345,389 343,391 342,397 342,399 344,400 343,403 352,404 354,402" stroke="rgb(0,0,0)" /><polygon points="350,356 346,350 343,351 346,355 344,359 345,362 348,361 348,357 350,356" stroke="rgb(0,0,0)" /><polygon points="360,325 356,321 356,318 358,316 357,315 359,314 349,313 348,318 350,319 351,325 360,325" stroke="rgb(0,0,0)" /><polygon points="364,287 363,275 346,277 349,281 347,285 350,288 364,287" stroke="rgb(0,0,0)" /><polygon points="349,244 347,244 349,244" stroke="rgb(0,0,0)" /><polygon points="349,206 347,206 349,206" stroke="rgb(0,0,0)" /><polygon points="353,166 341,165 340,170 342,170 342,167 344,170 344,175 348,176 352,171 353,166" stroke="rgb(0,0,0)" /><polygon points="361,131 360,117 339,118 338,124 338,122 336,120 335,121 334,117 326,117 323,118 322,123 318,125 319,128 316,132 332,133 338,128 341,131 342,128 345,128 346,132 351,133 361,131" stroke="rgb(0,0,0)" /><polygon points="342,666 342,651 340,649 308,650 325,652 323,654 325,667 342,666" stroke="rgb(0,0,0)" /><polygon points="316,701 315,693 298,693 293,695 295,697 293,702 294,704 313,704 313,702 316,701" stroke="rgb(0,0,0)" /><polygon points="304,629 302,629 304,629" stroke="rgb(0,0,0)" /><polygon points="305,587 300,586 298,592 303,593 305,587" stroke="rgb(0,0,0)" /><polygon points="302,549 300,549 302,549" stroke="rgb(0,0,0)" /><polygon points="301,511 299,511 301,511" stroke="rgb(0,0,0)" /><polygon points="314,472 313,470 310,471 307,469 310,465 309,464 292,466 293,477 303,477 306,475 311,475 314,472" stroke="rgb(0,0,0)" /><polygon points="307,389 301,387 292,387 292,399 301,400 306,394 307,389" stroke="rgb(0,0,0)" /><polygon points="309,435 307,426 291,427 292,438 307,438 309,435" stroke="rgb(0,0,0)" /><polygon points="302,361 299,355 300,352 294,351 293,361 295,361 295,357 296,362 302,361" stroke="rgb(0,0,0)" /><polygon points="304,323 301,320 301,313 293,313 290,315 292,318 294,317 295,320 296,317 297,324 304,323" stroke="rgb(0,0,0)" /><polygon points="301,280 298,279 297,276 294,276 292,278 292,286 298,287 301,280" stroke="rgb(0,0,0)" /><polygon points="311,245 306,238 299,238 298,240 293,239 292,242 289,244 297,250 306,250 311,245" stroke="rgb(0,0,0)" /><polygon points="300,206 299,204 297,206 300,206" stroke="rgb(0,0,0)" /><polygon points="298,168 296,168 298,168" stroke="rgb(0,0,0)" /><polygon points="281,701 279,699 276,699 274,704 277,706 280,704 281,701" stroke="rgb(0,0,0)" /><polygon points="277,117 275,117 277,117" stroke="rgb(0,0,0)" /><polygon points="258,425 256,425 258,425" stroke="rgb(0,0,0)" /><polygon points="257,358 256,356 245,357 256,359 257,358" stroke="rgb(0,0,0)" /><polygon points="264,627 262,612 244,612 240,614 245,618 246,617 249,627 254,626 256,629 264,627" stroke="rgb(0,0,0)" /><polygon points="253,176 251,173 251,180 253,176" stroke="rgb(0,0,0)" /><polygon points="254,514 249,505 249,510 246,510 248,513 246,514 254,514" stroke="rgb(0,0,0)" /><polygon points="251,209 251,203 249,202 248,208 250,210 251,209" stroke="rgb(0,0,0)" /><polygon points="257,695 256,693 250,694 247,697 246,701 254,702 256,700 257,695" stroke="rgb(0,0,0)" /><polygon points="253,588 252,582 251,584 250,582 244,583 243,590 245,593 247,593 250,588 248,592 251,593 253,588" stroke="rgb(0,0,0)" /><polygon points="262,324 262,318 260,314 257,312 250,313 250,317 248,318 248,325 241,327 248,328 251,326 260,326 262,324" stroke="rgb(0,0,0)" /><polygon points="250,281 248,281 250,281" stroke="rgb(0,0,0)" /><polygon points="249,549 247,549 249,549" stroke="rgb(0,0,0)" /><polygon points="249,473 248,469 246,473 247,477 249,473" stroke="rgb(0,0,0)" /><polygon points="262,405 261,387 252,387 252,385 240,386 239,391 241,405 262,405" stroke="rgb(0,0,0)" /><polygon points="249,244 247,244 249,244" stroke="rgb(0,0,0)" /><polygon points="223,697 221,697 223,697" stroke="rgb(0,0,0)" /><polygon points="208,392 206,392 208,392" stroke="rgb(0,0,0)" /><polygon points="204,589 202,589 204,589" stroke="rgb(0,0,0)" /><polygon points="204,511 202,511 204,511" stroke="rgb(0,0,0)" /><polygon points="211,471 211,468 206,465 191,465 189,474 191,475 191,477 207,477 208,471 211,471" stroke="rgb(0,0,0)" /><polygon points="204,320 202,320 204,320" stroke="rgb(0,0,0)" /><polygon points="211,213 210,202 192,202 191,204 190,202 189,203 190,213 191,210 192,213 211,213" stroke="rgb(0,0,0)" /><polygon points="202,288 202,280 200,276 190,275 189,286 200,289 202,288" stroke="rgb(0,0,0)" /><polygon points="200,549 198,549 200,549" stroke="rgb(0,0,0)" /><polygon points="203,252 202,238 191,237 191,239 189,240 189,251 192,254 203,252" stroke="rgb(0,0,0)" /><polygon points="185,698 184,695 180,696 184,699 185,698" stroke="rgb(0,0,0)" /><polygon points="187,633 186,631 180,631 178,635 185,635 187,633" stroke="rgb(0,0,0)" /><polygon points="185,114 185,105 183,102 166,102 164,104 165,115 185,114" stroke="rgb(0,0,0)" /></svg>