<?xml version="1.0" encoding="utf-8" ?>
<svg baseProfile="full" height="100%" version="1.1" width="100%" xmlns="http://www.w3.org/2000/svg" xmlns:ev="http://www.w3.org/2001/xml-events" xmlns:xlink="http://www.w3.org/1999/xlink"><defs /><polygon points="689,354 689,354 690,353 690,353 689,352 689,352 688,352 688,352 688,353 688,353 688,354 688,354 689,354" stroke="rgb(0,0,0)" /><polygon points="685,661 685,661 685,660 685,660 684,660 684,660 683,660 683,660 682,660 682,660 681,660 681,660 680,660 680,660 679,660 679,660 678,660 678,660 677,660 677,660 676,660 676,660 675,660 675,660 674,660 674,660 673,660 673,660 672,660 672,660 671,659 671,659 670,659 670,659 669,660 669,660 668,660 668,660 667,660 667,660 666,659 666,659 665,659 665,659 664,659 664,659 663,659 663,659 662,659 662,659 661,659 661,659 660,659 660,659 659,659 659,659 658,659 658,659 657,659 657,659 656,659 656,659 655,659 655,659 654,659 654,659 653,659 653,659 652,659 652,659 651,659 651,659 650,659 650,659 649,659 649,659 648,659 648,659 647,659 647,659 646,659 646,659 645,659 645,659 644,659 644,659 643,660 643,660 642,660 642,660 641,660 641,660 640,660 640,660 639,661 639,661 638,661 638,661 637,661 637,661 636,661 636,661 635,661 635,661 634,661 634,661 633,661 633,661 632,661 632,661 631,661 631,661 630,660 630,660 629,660 629,660 628,660 628,660 627,660 627,660 626,660 626,660 625,660 625,660 624,660 624,660 623,660 623,660 622,660 622,660 621,660 621,660 620,660 620,660 619,660 619,660 618,659 618,659 617,659 617,659 616,659 616,659 615,659 615,659 614,659 614,659 613,659 613,659 612,659 612,659 611,659 611,659 610,659 610,659 609,659 609,659 608,658 608,658 607,658 607,658 606,658 606,658 605,658 605,658 604,658 604,658 603,658 603,658 602,658 602,658 601,658 601,658 600,658 600,658 599,658 599,658 598,659 598,659 597,659 597,659 596,659 596,659 595,659 595,659 594,658 594,658 593,658 593,658 592,658 592,658 591,658 591,658 590,658 590,658 589,658 589,658 588,658 588,658 587,658 587,658 586,658 586,658 585,658 585,658 584,658 584,658 583,658 583,658 582,658 582,658 581,658 581,658 580,658 580,658 579,658 579,658 578,658 578,658 577,658 577,658 576,658 576,658 575,657 575,657 574,657 574,657 573,657 573,657 572,657 572,657 571,657 571,657 571,658 571,658 571,659 571,659 571,660 571,660 571,661 571,661 571,662 571,662 571,663 571,663 571,664 571,664 571,665 571,665 571,666 571,666 571,667 571,667 571,668 571,668 571,669 571,669 571,670 571,670 571,671 571,671 571,672 571,672 571,673 571,673 572,673 572,673 573,672 573,672 573,671 573,671 574,671 574,671 575,671 575,671 576,671 576,671 577,670 577,670 578,670 578,670 579,671 579,671 580,670 580,670 581,669 581,669 581,669 581,669 581,670 581,670 582,671 582,671 583,671 583,671 584,671 584,671 585,671 585,671 586,671 586,671 587,671 587,671 588,671 588,671 589,671 589,671 590,671 590,671 591,671 591,671 592,671 592,671 593,671 593,671 594,671 594,671 595,671 595,671 596,671 596,671 597,671 597,671 598,671 598,671 599,671 599,671 600,671 600,671 601,671 601,671 602,671 602,671 603,671 603,671 604,671 604,671 605,671 605,671 606,671 606,671 607,671 607,671 608,671 608,671 609,671 609,671 610,671 610,671 611,671 611,671 612,671 612,671 613,671 613,671 614,671 614,671 615,671 615,671 616,671 616,671 617,671 617,671 618,671 618,671 619,671 619,671 620,671 620,671 621,671 621,671 622,671 622,671 623,671 623,671 624,671 624,671 625,671 625,671 626,671 626,671 627,671 627,671 628,671 628,671 629,671 629,671 630,672 630,672 631,672 631,672 632,672 632,672 633,672 633,672 634,672 634,672 635,672 635,672 636,672 636,672 637,672 637,672 638,672 638,672 639,672 639,672 640,672 640,672 641,672 641,672 642,672 642,672 643,672 643,672 644,672 644,672 645,672 645,672 646,672 646,672 647,672 647,672 648,672 648,672 649,672 649,672 650,672 650,672 651,671 651,671 652,671 652,671 653,671 653,671 654,671 654,671 655,671 655,671 656,671 656,671 657,671 657,671 658,671 658,671 659,670 659,670 659,669 659,669 658,669 658,669 658,668 658,668 659,668 659,668 660,668 660,668 661,668 661,668 662,668 662,668 663,668 663,668 664,668 664,668 665,668 665,668 666,667 666,667 666,666 666,666 666,665 666,665 667,664 667,664 668,664 668,664 669,665 669,665 670,666 670,666 671,666 671,666 671,667 671,667 672,667 672,667 673,666 673,666 673,665 673,665 673,665 673,665 674,666 674,666 674,667 674,667 674,668 674,668 675,668 675,668 676,667 676,667 676,666 676,666 676,666 676,666 677,666 677,666 676,667 676,667 676,668 676,668 677,669 677,669 678,668 678,668 679,667 679,667 679,666 679,666 679,665 679,665 679,664 679,664 679,663 679,663 678,662 678,662 678,662 678,662 679,662 679,662 680,662 680,662 681,662 681,662 682,662 682,662 683,662 683,662 684,662 684,662 685,661" stroke="rgb(0,0,0)" /><polygon points="651,586 651,586 651,585 651,585 650,585 650,585 649,585 649,585 648,585 648,585 647,585 647,585 646,585 646,585 645,585 645,585 644,585 644,585 644,586 644,586 643,587 643,587 643,588 643,588 643,589 643,589 643,590 643,590 643,591 643,591 644,592 644,592 645,593 645,593 646,592 646,592 647,591 647,591 647,590 647,590 647,590 647,590 648,589 648,589 649,588 649,588 650,587 650,587 651,586" stroke="rgb(0,0,0)" /><polygon points="644,275 644,275 645,274 645,274 644,273 644,273 643,273 643,273 642,273 642,273 641,273 641,273 640,273 640,273 639,273 639,273 639,274 639,274 639,275 639,275 638,275 638,275 637,275 637,275 636,276 636,276 635,276 635,276 634,277 634,277 633,278 633,278 633,279 633,279 634,280 634,280 634,281 634,281 634,282 634,282 635,282 635,282 636,281 636,281 636,281 636,281 637,281 637,281 638,280 638,280 638,279 638,279 638,278 638,278 638,277 638,277 639,277 639,277 640,277 640,277 641,277 641,277 642,276 642,276 643,276 643,276 644,275" stroke="rgb(0,0,0)" /><polygon points="630,361 630,361 630,360 630,360 629,360 629,360 629,361 629,361 630,361" stroke="rgb(0,0,0)" /><polygon points="628,429 628,429 628,428 628,428 627,428 627,428 627,429 627,429 628,429" stroke="rgb(0,0,0)" /><polygon points="685,661 685,661 685,660 685,660 684,660 684,660 683,660 683,660 682,660 682,660 681,660 681,660 680,660 680,660 679,660 679,660 678,660 678,660 677,660 677,660 676,660 676,660 675,660 675,660 674,660 674,660 673,660 673,660 672,660 672,660 671,660 671,660 670,660 670,660 669,660 669,660 668,660 668,660 667,660 667,660 666,659 666,659 665,659 665,659 664,659 664,659 663,659 663,659 662,659 662,659 661,659 661,659 660,659 660,659 659,659 659,659 658,659 658,659 657,659 657,659 656,659 656,659 655,659 655,659 654,659 654,659 653,659 653,659 652,659 652,659 651,659 651,659 650,659 650,659 649,659 649,659 648,659 648,659 647,659 647,659 646,659 646,659 645,659 645,659 644,659 644,659 643,660 643,660 642,660 642,660 641,660 641,660 640,660 640,660 639,661 639,661 638,661 638,661 637,661 637,661 636,661 636,661 635,661 635,661 634,661 634,661 633,661 633,661 632,661 632,661 631,661 631,661 630,660 630,660 629,660 629,660 628,660 628,660 627,660 627,660 626,660 626,660 625,660 625,660 624,660 624,660 623,660 623,660 622,660 622,660 621,660 621,660 620,660 620,660 619,660 619,660 618,659 618,659 617,659 617,659 616,659 616,659 615,659 615,659 614,659 614,659 613,659 613,659 612,659 612,659 611,659 611,659 610,659 610,659 609,659 609,659 608,658 608,658 607,658 607,658 606,658 606,658 605,658 605,658 604,658 604,658 603,658 603,658 602,658 602,658 601,658 601,658 600,658 600,658 599,658 599,658 598,659 598,659 597,659 597,659 596,659 596,659 595,659 595,659 594,658 594,658 593,658 593,658 592,658 592,658 591,658 591,658 590,658 590,658 589,658 589,658 588,658 588,658 587,658 587,658 586,658 586,658 585,658 585,658 584,658 584,658 583,658 583,658 582,658 582,658 581,658 581,658 580,658 580,658 579,658 579,658 578,658 578,658 577,658 577,658 576,658 576,658 575,657 575,657 574,657 574,657 573,657 573,657 572,657 572,657 571,657 571,657 571,658 571,658 571,659 571,659 571,660 571,660 571,661 571,661 571,662 571,662 571,663 571,663 571,664 571,664 571,665 571,665 571,666 571,666 571,667 571,667 571,668 571,668 571,669 571,669 571,670 571,670 571,671 571,671 571,672 571,672 571,673 571,673 572,673 572,673 573,672 573,672 573,671 573,671 574,671 574,671 575,671 575,671 576,671 576,671 577,670 577,670 578,670 578,670 579,671 579,671 580,670 580,670 581,669 581,669 581,669 581,669 581,670 581,670 582,671 582,671 583,671 583,671 584,671 584,671 585,671 585,671 586,671 586,671 587,671 587,671 588,671 588,671 589,671 589,671 590,671 590,671 591,671 591,671 592,671 592,671 593,671 593,671 594,671 594,671 595,671 595,671 596,671 596,671 597,671 597,671 598,671 598,671 599,671 599,671 600,671 600,671 601,671 601,671 602,671 602,671 603,671 603,671 604,671 604,671 605,671 605,671 606,671 606,671 607,671 607,671 608,671 608,671 609,671 609,671 610,671 610,671 611,671 611,671 612,671 612,671 613,671 613,671 614,671 614,671 615,671 615,671 616,671 616,671 617,671 617,671 618,671 618,671 619,671 619,671 620,671 620,671 621,671 621,671 622,671 622,671 623,671 623,671 624,671 624,671 625,671 625,671 626,671 626,671 627,671 627,671 628,671 628,671 629,671 629,671 630,672 630,672 631,672 631,672 632,672 632,672 633,672 633,672 634,672 634,672 635,672 635,672 636,672 636,672 637,672 637,672 638,672 638,672 639,672 639,672 640,672 640,672 641,672 641,672 642,672 642,672 643,672 643,672 644,672 644,672 645,672 645,672 646,672 646,672 647,672 647,672 648,672 648,672 649,672 649,672 650,672 650,672 651,671 651,671 652,671 652,671 653,671 653,671 654,671 654,671 655,671 655,671 656,671 656,671 657,671 657,671 658,671 658,671 659,670 659,670 659,669 659,669 658,669 658,669 658,668 658,668 659,668 659,668 660,668 660,668 661,668 661,668 662,668 662,668 663,668 663,668 664,668 664,668 665,668 665,668 666,667 666,667 666,666 666,666 666,665 666,665 667,664 667,664 668,664 668,664 669,665 669,665 670,666 670,666 671,666 671,666 671,667 671,667 672,667 672,667 673,666 673,666 673,665 673,665 673,665 673,665 674,666 674,666 674,667 674,667 674,668 674,668 675,668 675,668 676,667 676,667 676,666 676,666 676,666 676,666 677,666 677,666 676,667 676,667 676,668 676,668 677,669 677,669 678,668 678,668 679,667 679,667 679,666 679,666 679,665 679,665 679,664 679,664 679,663 679,663 678,662 678,662 678,662 678,662 679,662 679,662 680,662 680,662 681,662 681,662 682,662 682,662 683,662 683,662 684,662 684,662 685,661" stroke="rgb(0,0,0)" /><polygon points="578,398 578,398 578,397 578,397 578,396 578,396 577,395 577,395 576,395 576,395 576,396 576,396 575,397 575,397 575,398 575,398 576,399 576,399 577,399 577,399 578,398" stroke="rgb(0,0,0)" /><polygon points="658,120 658,120 658,119 658,119 657,119 657,119 656,119 656,119 655,119 655,119 654,119 654,119 653,119 653,119 652,120 652,120 651,120 651,120 650,120 650,120 649,120 649,120 648,120 648,120 647,120 647,120 646,120 646,120 645,120 645,120 644,120 644,120 643,120 643,120 642,120 642,120 641,120 641,120 640,119 640,119 639,119 639,119 638,119 638,119 637,120 637,120 636,120 636,120 635,120 635,120 634,120 634,120 633,120 633,120 632,120 632,120 631,120 631,120 630,120 630,120 629,120 629,120 628,120 628,120 627,120 627,120 626,120 626,120 625,120 625,120 624,120 624,120 623,120 623,120 622,120 622,120 621,120 621,120 620,120 620,120 619,120 619,120 618,120 618,120 617,120 617,120 616,120 616,120 615,120 615,120 614,120 614,120 613,120 613,120 612,120 612,120 611,120 611,120 610,120 610,120 609,120 609,120 608,120 608,120 607,120 607,120 606,120 606,120 605,120 605,120 604,119 604,119 603,119 603,119 602,119 602,119 601,119 601,119 600,119 600,119 599,119 599,119 598,119 598,119 597,119 597,119 596,119 596,119 595,119 595,119 594,119 594,119 593,119 593,119 592,119 592,119 591,119 591,119 590,119 590,119 589,119 589,119 588,119 588,119 587,119 587,119 586,119 586,119 585,119 585,119 584,119 584,119 583,119 583,119 582,119 582,119 581,119 581,119 580,119 580,119 579,119 579,119 578,119 578,119 578,120 578,120 578,121 578,121 578,121 578,121 577,120 577,120 577,120 577,120 578,119 578,119 578,118 578,118 577,118 577,118 576,118 576,118 575,118 575,118 574,118 574,118 573,118 573,118 572,118 572,118 572,119 572,119 572,120 572,120 572,121 572,121 572,122 572,122 572,123 572,123 572,124 572,124 572,125 572,125 572,126 572,126 572,127 572,127 573,128 573,128 573,129 573,129 573,130 573,130 573,131 573,131 573,132 573,132 573,133 573,133 574,134 574,134 575,133 575,133 576,132 576,132 577,132 577,132 578,132 578,132 579,131 579,131 579,131 579,131 580,132 580,132 581,133 581,133 582,133 582,133 583,133 583,133 584,133 584,133 585,133 585,133 586,132 586,132 587,132 587,132 588,132 588,132 589,132 589,132 590,132 590,132 591,132 591,132 592,132 592,132 593,132 593,132 594,132 594,132 595,132 595,132 596,131 596,131 597,131 597,131 598,131 598,131 599,131 599,131 600,131 600,131 601,131 601,131 602,131 602,131 603,131 603,131 604,131 604,131 605,131 605,131 606,131 606,131 607,131 607,131 608,131 608,131 609,131 609,131 610,131 610,131 611,130 611,130 612,130 612,130 613,130 613,130 614,130 614,130 615,130 615,130 616,130 616,130 617,130 617,130 618,130 618,130 619,129 619,129 620,129 620,129 621,128 621,128 622,128 622,128 623,127 623,127 624,127 624,127 625,127 625,127 626,126 626,126 627,126 627,126 628,126 628,126 629,126 629,126 630,126 630,126 631,126 631,126 632,125 632,125 633,125 633,125 634,125 634,125 635,125 635,125 636,124 636,124 637,124 637,124 638,124 638,124 639,124 639,124 640,123 640,123 641,123 641,123 642,123 642,123 643,123 643,123 644,123 644,123 645,122 645,122 646,122 646,122 647,122 647,122 648,122 648,122 649,122 649,122 650,122 650,122 651,122 651,122 652,122 652,122 653,122 653,122 654,122 654,122 655,122 655,122 656,121 656,121 657,121 657,121 658,120" stroke="rgb(0,0,0)" /><polygon points="621,583 621,583 622,582 622,582 621,581 621,581 620,581 620,581 619,580 619,580 618,579 618,579 618,578 618,578 617,577 617,577 616,577 616,577 615,577 615,577 614,577 614,577 613,577 613,577 612,577 612,577 611,577 611,577 610,577 610,577 609,577 609,577 608,577 608,577 607,577 607,577 606,577 606,577 606,578 606,578 606,579 606,579 605,580 605,580 604,580 604,580 603,581 603,581 602,581 602,581 601,582 601,582 600,582 600,582 599,581 599,581 598,581 598,581 597,581 597,581 596,581 596,581 595,582 595,582 594,583 594,583 593,583 593,583 592,583 592,583 591,583 591,583 590,583 590,583 589,583 589,583 588,583 588,583 587,583 587,583 586,584 586,584 585,584 585,584 584,584 584,584 583,585 583,585 582,585 582,585 581,586 581,586 580,586 580,586 579,586 579,586 579,587 579,587 579,588 579,588 579,587 579,587 578,586 578,586 577,586 577,586 576,587 576,587 575,587 575,587 574,587 574,587 573,588 573,588 572,588 572,588 571,589 571,589 570,589 570,589 570,590 570,590 570,591 570,591 571,592 571,592 572,592 572,592 573,592 573,592 574,592 574,592 575,592 575,592 576,592 576,592 577,592 577,592 578,592 578,592 578,593 578,593 579,594 579,594 580,594 580,594 581,594 581,594 582,594 582,594 583,595 583,595 584,595 584,595 585,595 585,595 586,594 586,594 586,593 586,593 586,593 586,593 587,593 587,593 588,593 588,593 589,592 589,592 589,591 589,591 589,591 589,591 590,591 590,591 590,592 590,592 591,593 591,593 592,593 592,593 593,593 593,593 594,593 594,593 595,593 595,593 596,593 596,593 597,593 597,593 598,593 598,593 599,593 599,593 600,592 600,592 601,592 601,592 602,592 602,592 603,592 603,592 604,593 604,593 605,593 605,593 605,594 605,594 606,595 606,595 607,595 607,595 608,595 608,595 609,595 609,595 610,595 610,595 611,595 611,595 612,594 612,594 613,593 613,593 612,592 612,592 611,592 611,592 610,593 610,593 609,593 609,593 609,592 609,592 610,591 610,591 610,590 610,590 610,590 610,590 611,590 611,590 612,589 612,589 612,588 612,588 611,588 611,588 611,587 611,587 611,587 611,587 612,587 612,587 613,588 613,588 613,589 613,589 613,590 613,590 614,591 614,591 615,591 615,591 616,591 616,591 617,592 617,592 618,591 618,591 619,590 619,590 618,589 618,589 617,588 617,588 616,588 616,588 615,587 615,587 615,586 615,586 615,586 615,586 616,585 616,585 617,585 617,585 618,585 618,585 619,586 619,586 619,587 619,587 620,587 620,587 621,586 621,586 621,585 621,585 621,584 621,584 621,583" stroke="rgb(0,0,0)" /><polygon points="575,238 575,238 575,237 575,237 574,237 574,237 574,238 574,238 575,238" stroke="rgb(0,0,0)" /><polygon points="575,201 575,201 575,200 575,200 574,200 574,200 574,201 574,201 575,201" stroke="rgb(0,0,0)" /><polygon points="571,281 571,281 571,280 571,280 570,279 570,279 569,279 569,279 568,278 568,278 567,278 567,278 566,278 566,278 565,279 565,279 564,279 564,279 563,279 563,279 562,279 562,279 562,280 562,280 562,281 562,281 562,282 562,282 563,282 563,282 564,281 564,281 564,281 564,281 564,282 564,282 564,283 564,283 565,284 565,284 565,285 565,285 566,286 566,286 567,287 567,287 568,286 568,286 569,285 569,285 570,284 570,284 570,283 570,283 570,282 570,282 570,282 570,282 571,281" stroke="rgb(0,0,0)" /><polygon points="537,666 537,666 537,665 537,665 536,665 536,665 535,665 535,665 534,665 534,665 533,665 533,665 532,665 532,665 531,665 531,665 530,665 530,665 529,665 529,665 528,665 528,665 527,665 527,665 526,665 526,665 525,665 525,665 525,666 525,666 526,667 526,667 527,667 527,667 528,667 528,667 529,667 529,667 530,667 530,667 531,667 531,667 532,667 532,667 533,667 533,667 534,667 534,667 535,667 535,667 536,667 536,667 537,666" stroke="rgb(0,0,0)" /><polygon points="558,313 558,313 558,312 558,312 557,312 557,312 556,312 556,312 555,312 555,312 554,312 554,312 553,312 553,312 552,312 552,312 551,312 551,312 550,312 550,312 549,312 549,312 548,312 548,312 547,312 547,312 547,313 547,313 547,314 547,314 546,314 546,314 545,314 545,314 544,314 544,314 543,314 543,314 542,314 542,314 541,313 541,313 540,313 540,313 539,313 539,313 538,313 538,313 537,314 537,314 536,314 536,314 535,314 535,314 534,314 534,314 533,314 533,314 532,314 532,314 531,314 531,314 530,313 530,313 529,313 529,313 528,313 528,313 527,314 527,314 526,314 526,314 525,314 525,314 524,315 524,315 523,315 523,315 522,315 522,315 522,316 522,316 522,317 522,317 522,318 522,318 522,319 522,319 522,320 522,320 523,321 523,321 524,321 524,321 525,321 525,321 526,321 526,321 527,321 527,321 528,321 528,321 529,321 529,321 530,321 530,321 531,321 531,321 532,321 532,321 533,321 533,321 534,320 534,320 535,319 535,319 536,319 536,319 537,319 537,319 538,319 538,319 539,319 539,319 540,319 540,319 541,318 541,318 541,317 541,317 540,317 540,317 539,317 539,317 538,317 538,317 537,317 537,317 536,317 536,317 536,316 536,316 537,316 537,316 538,316 538,316 539,316 539,316 540,316 540,316 541,316 541,316 542,316 542,316 543,316 543,316 544,316 544,316 545,316 545,316 546,316 546,316 547,316 547,316 547,317 547,317 547,318 547,318 548,319 548,319 549,319 549,319 550,318 550,318 551,318 551,318 552,318 552,318 553,317 553,317 554,316 554,316 555,315 555,315 555,314 555,314 556,314 556,314 557,314 557,314 558,313" stroke="rgb(0,0,0)" /><polygon points="546,397 546,397 547,396 547,396 547,395 547,395 546,394 546,394 546,393 546,393 546,392 546,392 546,391 546,391 546,390 546,390 546,389 546,389 545,389 545,389 544,389 544,389 543,390 543,390 542,390 542,390 542,390 542,390 542,389 542,389 541,389 541,389 540,389 540,389 539,389 539,389 538,389 538,389 537,389 537,389 536,389 536,389 535,389 535,389 534,389 534,389 533,389 533,389 532,389 532,389 531,389 531,389 530,389 530,389 529,389 529,389 528,389 528,389 527,389 527,389 527,390 527,390 527,391 527,391 526,390 526,390 525,390 525,390 524,390 524,390 523,390 523,390 522,390 522,390 521,391 521,391 521,392 521,392 522,393 522,393 522,394 522,394 521,395 521,395 521,396 521,396 521,397 521,397 522,397 522,397 522,397 522,397 522,398 522,398 523,399 523,399 524,399 524,399 525,399 525,399 526,399 526,399 527,398 527,398 527,398 527,398 527,399 527,399 528,400 528,400 529,399 529,399 530,399 530,399 530,399 530,399 530,400 530,400 531,401 531,401 532,401 532,401 533,401 533,401 534,401 534,401 535,400 535,400 536,400 536,400 537,400 537,400 538,400 538,400 539,399 539,399 539,398 539,398 539,398 539,398 540,397 540,397 540,396 540,396 539,396 539,396 539,395 539,395 539,395 539,395 540,395 540,395 541,395 541,395 542,395 542,395 542,395 542,395 542,396 542,396 542,397 542,397 543,398 543,398 544,399 544,399 545,399 545,399 546,398 546,398 546,397" stroke="rgb(0,0,0)" /><polygon points="523,201 523,201 523,200 523,200 522,200 522,200 522,201 522,201 523,201" stroke="rgb(0,0,0)" /><polygon points="522,551 522,551 522,550 522,550 521,550 521,550 521,551 521,551 522,551" stroke="rgb(0,0,0)" /><polygon points="519,237 519,237 519,236 519,236 518,236 518,236 517,236 517,236 516,236 516,236 515,236 515,236 514,236 514,236 513,236 513,236 512,236 512,236 511,236 511,236 510,236 510,236 510,237 510,237 511,238 511,238 512,238 512,238 513,238 513,238 514,238 514,238 515,238 515,238 516,238 516,238 517,238 517,238 518,238 518,238 519,237" stroke="rgb(0,0,0)" /><polygon points="494,202 494,202 495,201 495,201 495,200 495,200 494,199 494,199 493,199 493,199 492,199 492,199 491,199 491,199 490,199 490,199 489,199 489,199 488,199 488,199 487,200 487,200 487,200 487,200 487,199 487,199 486,198 486,198 485,198 485,198 484,198 484,198 483,198 483,198 482,198 482,198 481,198 481,198 480,198 480,198 479,199 479,199 478,199 478,199 478,198 478,198 477,197 477,197 476,197 476,197 475,197 475,197 474,198 474,198 473,198 473,198 472,198 472,198 471,198 471,198 470,198 470,198 470,199 470,199 471,200 471,200 471,201 471,201 471,202 471,202 472,203 472,203 473,202 473,202 474,202 474,202 475,202 475,202 476,202 476,202 477,202 477,202 478,203 478,203 479,203 479,203 480,203 480,203 481,203 481,203 482,202 482,202 483,202 483,202 484,202 484,202 485,202 485,202 486,203 486,203 487,203 487,203 488,203 488,203 489,203 489,203 490,203 490,203 491,203 491,203 492,203 492,203 493,203 493,203 494,202" stroke="rgb(0,0,0)" /><polygon points="497,437 497,437 498,436 498,436 498,435 498,435 498,434 498,434 498,433 498,433 498,432 498,432 497,431 497,431 496,431 496,431 495,431 495,431 494,431 494,431 493,431 493,431 492,431 492,431 491,431 491,431 490,431 490,431 489,430 489,430 488,430 488,430 487,430 487,430 486,430 486,430 485,429 485,429 484,429 484,429 483,429 483,429 482,429 482,429 481,429 481,429 480,429 480,429 479,429 479,429 478,429 478,429 477,429 477,429 476,429 476,429 475,429 475,429 474,429 474,429 473,429 473,429 472,429 472,429 472,430 472,430 472,431 472,431 471,431 471,431 470,431 470,431 469,431 469,431 468,431 468,431 467,431 467,431 466,431 466,431 465,431 465,431 464,430 464,430 463,430 463,430 462,430 462,430 462,431 462,431 462,432 462,432 463,433 463,433 464,434 464,434 465,435 465,435 466,436 466,436 466,436 466,436 466,437 466,437 467,438 467,438 468,438 468,438 469,438 469,438 469,438 469,438 469,439 469,439 470,440 470,440 471,440 471,440 472,440 472,440 473,440 473,440 474,440 474,440 475,440 475,440 476,439 476,439 476,438 476,438 476,438 476,438 477,438 477,438 478,438 478,438 479,438 479,438 480,438 480,438 481,438 481,438 482,438 482,438 483,438 483,438 484,439 484,439 484,439 484,439 484,440 484,440 485,441 485,441 486,441 486,441 487,441 487,441 488,441 488,441 489,440 489,440 490,439 490,439 491,439 491,439 492,438 492,438 493,438 493,438 492,439 492,439 492,440 492,440 493,441 493,441 494,440 494,440 495,439 495,439 495,438 495,438 496,437 496,437 496,436 496,436 496,435 496,435 496,434 496,434 496,433 496,433 496,433 496,433 496,434 496,434 496,435 496,435 496,436 496,436 496,437 496,437 497,437" stroke="rgb(0,0,0)" /><polygon points="493,280 493,280 494,279 494,279 493,278 493,278 492,278 492,278 491,278 491,278 490,277 490,277 489,277 489,277 488,277 488,277 487,277 487,277 486,278 486,278 485,279 485,279 484,279 484,279 483,279 483,279 482,279 482,279 482,280 482,280 481,280 481,280 480,280 480,280 479,281 479,281 478,281 478,281 477,281 477,281 476,281 476,281 475,282 475,282 475,283 475,283 475,284 475,284 476,285 476,285 477,286 477,286 478,287 478,287 479,288 479,288 480,288 480,288 481,288 481,288 482,288 482,288 483,289 483,289 484,289 484,289 485,288 485,288 485,287 485,287 485,286 485,286 485,285 485,285 485,284 485,284 485,283 485,283 485,282 485,282 486,282 486,282 487,282 487,282 488,282 488,282 489,282 489,282 490,281 490,281 491,281 491,281 492,281 492,281 493,280" stroke="rgb(0,0,0)" /><polygon points="495,556 495,556 496,555 496,555 496,554 496,554 496,553 496,553 496,552 496,552 496,551 496,551 496,550 496,550 496,549 496,549 496,548 496,548 496,547 496,547 495,546 495,546 494,546 494,546 494,547 494,547 494,548 494,548 494,549 494,549 494,550 494,550 494,551 494,551 494,551 494,551 494,550 494,550 494,549 494,549 494,548 494,548 494,547 494,547 494,546 494,546 495,545 495,545 495,544 495,544 496,543 496,543 496,542 496,542 495,541 495,541 494,541 494,541 493,541 493,541 493,542 493,542 493,543 493,543 492,544 492,544 491,544 491,544 490,543 490,543 489,543 489,543 488,543 488,543 487,543 487,543 486,543 486,543 485,543 485,543 484,543 484,543 483,543 483,543 482,543 482,543 481,543 481,543 480,543 480,543 479,543 479,543 478,543 478,543 477,543 477,543 476,543 476,543 475,543 475,543 474,543 474,543 473,543 473,543 472,543 472,543 472,544 472,544 472,545 472,545 471,546 471,546 471,547 471,547 471,548 471,548 471,549 471,549 471,550 471,550 471,551 471,551 470,552 470,552 469,552 469,552 468,553 468,553 468,554 468,554 469,555 469,555 469,556 469,556 469,557 469,557 469,558 469,558 470,559 470,559 471,559 471,559 472,559 472,559 473,559 473,559 474,559 474,559 475,559 475,559 476,559 476,559 477,559 477,559 478,559 478,559 479,559 479,559 480,559 480,559 481,559 481,559 482,559 482,559 483,559 483,559 484,558 484,558 484,557 484,557 484,556 484,556 485,556 485,556 486,556 486,556 487,556 487,556 488,556 488,556 489,556 489,556 490,556 490,556 491,557 491,557 492,557 492,557 493,558 493,558 494,557 494,557 495,556" stroke="rgb(0,0,0)" /><polygon points="497,473 497,473 498,472 498,472 497,471 497,471 496,470 496,470 495,470 495,470 494,470 494,470 493,470 493,470 492,470 492,470 491,470 491,470 490,471 490,471 489,472 489,472 488,473 488,473 487,472 487,472 486,472 486,472 485,472 485,472 484,472 484,472 483,473 483,473 482,473 482,473 481,473 481,473 480,473 480,473 479,473 479,473 478,473 478,473 477,473 477,473 476,473 476,473 475,473 475,473 474,472 474,472 473,472 473,472 472,473 472,473 471,474 471,474 471,475 471,475 471,476 471,476 471,477 471,477 471,478 471,478 471,479 471,479 471,480 471,480 472,481 472,481 473,481 473,481 474,481 474,481 475,481 475,481 476,481 476,481 477,480 477,480 478,479 478,479 478,478 478,478 478,477 478,477 478,476 478,476 478,476 478,476 478,477 478,477 478,478 478,478 478,479 478,479 478,480 478,480 478,481 478,481 479,482 479,482 480,482 480,482 481,482 481,482 482,482 482,482 483,482 483,482 484,482 484,482 485,482 485,482 486,481 486,481 487,480 487,480 487,480 487,480 488,480 488,480 489,479 489,479 489,479 489,479 490,479 490,479 491,478 491,478 491,477 491,477 491,476 491,476 492,476 492,476 493,476 493,476 494,477 494,477 494,478 494,478 495,478 495,478 496,477 496,477 496,476 496,476 496,475 496,475 497,474 497,474 497,473" stroke="rgb(0,0,0)" /><polygon points="495,402 495,402 495,401 495,401 495,400 495,400 495,399 495,399 495,398 495,398 495,397 495,397 494,397 494,397 494,396 494,396 495,395 495,395 495,394 495,394 496,393 496,393 495,392 495,392 494,391 494,391 494,390 494,390 495,389 495,389 494,388 494,388 493,388 493,388 492,388 492,388 491,389 491,389 490,389 490,389 490,390 490,390 490,391 490,391 489,392 489,392 488,392 488,392 487,392 487,392 486,393 486,393 486,394 486,394 486,395 486,395 485,396 485,396 484,396 484,396 483,397 483,397 482,397 482,397 481,396 481,396 480,396 480,396 479,395 479,395 479,394 479,394 479,393 479,393 478,392 478,392 477,392 477,392 476,392 476,392 476,393 476,393 475,394 475,394 475,395 475,395 474,395 474,395 473,394 473,394 472,394 472,394 471,395 471,395 470,395 470,395 469,396 469,396 468,396 468,396 468,397 468,397 468,398 468,398 468,399 468,399 469,400 469,400 470,400 470,400 471,400 471,400 472,401 472,401 473,402 473,402 474,402 474,402 475,402 475,402 476,402 476,402 477,402 477,402 478,402 478,402 479,403 479,403 480,402 480,402 481,402 481,402 482,402 482,402 483,402 483,402 484,401 484,401 485,400 485,400 486,399 486,399 486,399 486,399 486,400 486,400 487,401 487,401 488,401 488,401 489,401 489,401 490,400 490,400 491,400 491,400 491,401 491,401 490,401 490,401 490,402 490,402 491,403 491,403 492,403 492,403 493,403 493,403 494,403 494,403 495,402" stroke="rgb(0,0,0)" /><polygon points="495,243 495,243 495,242 495,242 495,241 495,241 495,240 495,240 495,239 495,239 495,238 495,238 495,237 495,237 494,236 494,236 493,236 493,236 492,235 492,235 491,235 491,235 490,235 490,235 489,235 489,235 488,235 488,235 487,235 487,235 486,235 486,235 485,235 485,235 484,236 484,236 483,237 483,237 482,238 482,238 481,238 481,238 480,238 480,238 479,237 479,237 478,237 478,237 478,237 478,237 478,236 478,236 477,236 477,236 476,236 476,236 475,237 475,237 474,237 474,237 473,238 473,238 472,239 472,239 471,239 471,239 470,240 470,240 470,241 470,241 470,242 470,242 471,243 471,243 472,244 472,244 473,245 473,245 474,245 474,245 473,246 473,246 472,246 472,246 472,247 472,247 472,248 472,248 472,249 472,249 472,250 472,250 473,251 473,251 474,251 474,251 475,251 475,251 476,251 476,251 477,251 477,251 478,251 478,251 479,251 479,251 480,250 480,250 481,249 481,249 480,248 480,248 479,248 479,248 478,248 478,248 478,247 478,247 479,247 479,247 480,246 480,246 481,245 481,245 482,244 482,244 483,244 483,244 484,245 484,245 485,245 485,245 486,245 486,245 487,245 487,245 488,245 488,245 489,244 489,244 490,244 490,244 491,244 491,244 492,244 492,244 493,244 493,244 494,244 494,244 495,243" stroke="rgb(0,0,0)" /><polygon points="557,132 557,132 558,131 558,131 558,130 558,130 558,129 558,129 558,128 558,128 558,127 558,127 558,126 558,126 558,125 558,125 558,124 558,124 558,123 558,123 558,122 558,122 558,121 558,121 558,120 558,120 558,119 558,119 557,118 557,118 557,117 557,117 557,116 557,116 557,115 557,115 557,114 557,114 557,113 557,113 557,112 557,112 556,111 556,111 556,110 556,110 556,109 556,109 557,108 557,108 557,107 557,107 557,106 557,106 557,105 557,105 557,104 557,104 557,103 557,103 557,102 557,102 557,101 557,101 557,100 557,100 557,99 557,99 556,98 556,98 556,97 556,97 555,96 555,96 554,96 554,96 553,95 553,95 553,94 553,94 552,93 552,93 551,93 551,93 550,93 550,93 549,93 549,93 548,93 548,93 547,93 547,93 546,93 546,93 545,93 545,93 544,93 544,93 543,93 543,93 542,93 542,93 541,93 541,93 540,93 540,93 539,93 539,93 538,93 538,93 537,93 537,93 536,93 536,93 535,94 535,94 534,94 534,94 533,94 533,94 532,94 532,94 531,94 531,94 530,94 530,94 529,94 529,94 528,94 528,94 527,94 527,94 526,94 526,94 525,94 525,94 525,95 525,95 524,96 524,96 523,96 523,96 522,97 522,97 521,97 521,97 520,97 520,97 519,97 519,97 518,97 518,97 517,97 517,97 516,97 516,97 515,97 515,97 514,97 514,97 513,97 513,97 512,97 512,97 511,96 511,96 510,96 510,96 509,96 509,96 508,96 508,96 507,96 507,96 506,96 506,96 505,95 505,95 504,95 504,95 503,95 503,95 502,95 502,95 501,95 501,95 500,95 500,95 499,95 499,95 498,95 498,95 497,94 497,94 496,94 496,94 495,94 495,94 494,94 494,94 493,94 493,94 492,94 492,94 491,94 491,94 490,94 490,94 489,94 489,94 488,94 488,94 487,94 487,94 486,94 486,94 485,94 485,94 484,94 484,94 483,93 483,93 482,93 482,93 481,93 481,93 480,94 480,94 479,94 479,94 478,94 478,94 477,93 477,93 476,93 476,93 475,93 475,93 474,93 474,93 473,93 473,93 472,93 472,93 471,93 471,93 470,93 470,93 469,93 469,93 468,93 468,93 467,93 467,93 466,93 466,93 465,93 465,93 464,93 464,93 463,93 463,93 462,93 462,93 461,93 461,93 460,93 460,93 459,93 459,93 458,93 458,93 458,94 458,94 457,94 457,94 456,94 456,94 455,94 455,94 454,94 454,94 453,94 453,94 452,94 452,94 451,94 451,94 450,94 450,94 449,94 449,94 448,94 448,94 447,94 447,94 447,95 447,95 448,96 448,96 448,97 448,97 449,98 449,98 450,99 450,99 449,100 449,100 449,101 449,101 450,102 450,102 451,102 451,102 452,102 452,102 453,103 453,103 453,104 453,104 452,104 452,104 452,105 452,105 452,106 452,106 452,107 452,107 453,108 453,108 454,108 454,108 455,108 455,108 456,108 456,108 457,108 457,108 458,108 458,108 459,108 459,108 460,108 460,108 461,108 461,108 462,108 462,108 463,108 463,108 464,108 464,108 465,108 465,108 466,108 466,108 467,108 467,108 468,108 468,108 469,108 469,108 470,108 470,108 471,108 471,108 472,107 472,107 473,107 473,107 474,108 474,108 475,109 475,109 476,109 476,109 477,110 477,110 478,110 478,110 479,110 479,110 480,110 480,110 481,110 481,110 482,110 482,110 483,110 483,110 484,110 484,110 484,111 484,111 485,112 485,112 486,112 486,112 487,113 487,113 488,113 488,113 489,113 489,113 490,114 490,114 491,114 491,114 492,113 492,113 493,112 493,112 492,111 492,111 491,111 491,111 491,110 491,110 491,109 491,109 490,108 490,108 489,108 489,108 488,108 488,108 487,108 487,108 487,107 487,107 487,107 487,107 488,107 488,107 489,107 489,107 490,107 490,107 491,107 491,107 492,107 492,107 493,107 493,107 494,106 494,106 494,105 494,105 493,105 493,105 493,104 493,104 493,103 493,103 493,102 493,102 493,101 493,101 493,100 493,100 493,99 493,99 493,99 493,99 493,100 493,100 493,101 493,101 493,102 493,102 493,103 493,103 494,103 494,103 495,102 495,102 495,101 495,101 495,101 495,101 496,101 496,101 496,102 496,102 496,103 496,103 496,104 496,104 496,105 496,105 497,106 497,106 498,106 498,106 499,106 499,106 500,106 500,106 501,106 501,106 502,106 502,106 503,106 503,106 504,106 504,106 505,107 505,107 506,107 506,107 507,107 507,107 508,107 508,107 509,106 509,106 510,106 510,106 511,106 511,106 512,106 512,106 513,106 513,106 514,106 514,106 514,107 514,107 514,108 514,108 514,109 514,109 513,110 513,110 512,111 512,111 512,111 512,111 512,110 512,110 513,109 513,109 514,108 514,108 513,107 513,107 512,107 512,107 511,107 511,107 510,108 510,108 509,108 509,108 508,108 508,108 507,108 507,108 506,108 506,108 505,108 505,108 504,108 504,108 503,108 503,108 502,108 502,108 501,108 501,108 500,108 500,108 499,108 499,108 498,108 498,108 497,108 497,108 497,109 497,109 498,110 498,110 499,110 499,110 499,111 499,111 499,112 499,112 499,113 499,113 500,114 500,114 500,115 500,115 501,115 501,115 502,115 502,115 503,115 503,115 504,114 504,114 505,114 505,114 506,113 506,113 507,113 507,113 508,113 508,113 509,113 509,113 508,114 508,114 507,114 507,114 506,115 506,115 505,116 505,116 504,116 504,116 503,117 503,117 502,117 502,117 501,118 501,118 500,117 500,117 499,117 499,117 498,117 498,117 497,118 497,118 496,119 496,119 495,119 495,119 494,119 494,119 493,119 493,119 492,119 492,119 491,119 491,119 490,119 490,119 489,119 489,119 488,119 488,119 487,119 487,119 486,119 486,119 485,119 485,119 484,119 484,119 483,119 483,119 482,119 482,119 481,119 481,119 480,119 480,119 479,119 479,119 478,119 478,119 477,119 477,119 476,120 476,120 475,120 475,120 474,120 474,120 473,120 473,120 472,121 472,121 471,121 471,121 470,121 470,121 469,121 469,121 468,120 468,120 467,120 467,120 466,120 466,120 465,120 465,120 464,121 464,121 463,120 463,120 462,120 462,120 461,120 461,120 460,120 460,120 459,120 459,120 458,120 458,120 457,120 457,120 456,120 456,120 455,119 455,119 454,119 454,119 453,118 453,118 452,117 452,117 451,116 451,116 450,115 450,115 449,114 449,114 448,114 448,114 447,115 447,115 447,115 447,115 446,114 446,114 445,114 445,114 445,115 445,115 445,116 445,116 444,117 444,117 443,118 443,118 442,119 442,119 441,119 441,119 440,118 440,118 440,117 440,117 439,116 439,116 438,116 438,116 438,115 438,115 438,114 438,114 439,113 439,113 438,112 438,112 437,112 437,112 436,111 436,111 435,111 435,111 435,112 435,112 435,113 435,113 435,114 435,114 435,115 435,115 435,116 435,116 435,117 435,117 436,118 436,118 437,119 437,119 438,120 438,120 438,121 438,121 438,122 438,122 437,123 437,123 436,123 436,123 436,124 436,124 437,125 437,125 438,125 438,125 439,125 439,125 440,125 440,125 441,125 441,125 441,125 441,125 440,126 440,126 440,127 440,127 440,128 440,128 440,129 440,129 440,130 440,130 440,131 440,131 440,132 440,132 440,133 440,133 441,134 441,134 440,134 440,134 440,133 440,133 440,132 440,132 440,131 440,131 439,130 439,130 438,129 438,129 437,129 437,129 436,129 436,129 435,129 435,129 434,129 434,129 433,130 433,130 432,130 432,130 431,131 431,131 431,132 431,132 432,133 432,133 432,133 432,133 432,134 432,134 432,135 432,135 432,136 432,136 432,137 432,137 432,138 432,138 432,139 432,139 432,140 432,140 433,141 433,141 433,142 433,142 433,143 433,143 434,144 434,144 435,144 435,144 436,144 436,144 437,144 437,144 438,144 438,144 439,144 439,144 440,143 440,143 440,142 440,142 440,142 440,142 441,142 441,142 442,142 442,142 443,142 443,142 444,142 444,142 445,142 445,142 446,142 446,142 447,142 447,142 448,143 448,143 449,143 449,143 450,143 450,143 451,144 451,144 452,144 452,144 453,144 453,144 454,144 454,144 455,144 455,144 456,144 456,144 457,144 457,144 458,144 458,144 459,144 459,144 460,144 460,144 461,144 461,144 462,144 462,144 463,144 463,144 464,144 464,144 465,144 465,144 466,144 466,144 467,144 467,144 468,144 468,144 469,144 469,144 470,144 470,144 471,144 471,144 472,144 472,144 473,144 473,144 474,144 474,144 475,144 475,144 476,144 476,144 477,144 477,144 478,144 478,144 479,144 479,144 480,144 480,144 481,144 481,144 482,144 482,144 483,144 483,144 484,144 484,144 485,144 485,144 486,144 486,144 487,144 487,144 488,144 488,144 489,144 489,144 490,144 490,144 491,144 491,144 492,144 492,144 493,144 493,144 494,144 494,144 495,144 495,144 496,144 496,144 497,144 497,144 498,144 498,144 499,144 499,144 500,144 500,144 501,144 501,144 502,144 502,144 503,143 503,143 504,143 504,143 505,143 505,143 506,143 506,143 507,143 507,143 508,143 508,143 509,143 509,143 510,143 510,143 511,143 511,143 512,143 512,143 513,143 513,143 514,143 514,143 515,143 515,143 516,143 516,143 517,143 517,143 518,143 518,143 519,143 519,143 520,143 520,143 521,143 521,143 522,143 522,143 523,143 523,143 524,143 524,143 525,143 525,143 526,143 526,143 527,143 527,143 528,142 528,142 528,141 528,141 528,141 528,141 529,141 529,141 530,140 530,140 531,140 531,140 532,140 532,140 533,140 533,140 534,140 534,140 535,140 535,140 536,140 536,140 537,140 537,140 538,141 538,141 539,140 539,140 540,139 540,139 541,138 541,138 542,137 542,137 542,136 542,136 541,135 541,135 541,134 541,134 541,133 541,133 541,132 541,132 541,131 541,131 541,130 541,130 540,129 540,129 540,128 540,128 540,127 540,127 540,126 540,126 540,126 540,126 541,125 541,125 542,125 542,125 543,125 543,125 544,125 544,125 545,125 545,125 546,125 546,125 547,125 547,125 548,125 548,125 549,125 549,125 549,126 549,126 549,127 549,127 549,128 549,128 550,128 550,128 551,127 551,127 551,127 551,127 550,128 550,128 550,129 550,129 550,130 550,130 550,131 550,131 551,132 551,132 552,132 552,132 553,131 553,131 553,131 553,131 554,131 554,131 555,131 555,131 556,132 556,132 557,132" stroke="rgb(0,0,0)" /><polygon points="442,437 442,437 443,436 443,436 443,435 443,435 443,434 443,434 443,433 443,433 443,432 443,432 443,431 443,431 442,430 442,430 441,430 441,430 441,431 441,431 441,432 441,432 440,433 440,433 440,432 440,432 440,431 440,431 439,431 439,431 438,431 438,431 437,431 437,431 436,431 436,431 435,431 435,431 434,431 434,431 433,431 433,431 432,431 432,431 431,431 431,431 430,431 430,431 429,431 429,431 428,431 428,431 427,431 427,431 426,431 426,431 425,431 425,431 424,431 424,431 423,431 423,431 422,431 422,431 421,431 421,431 420,432 420,432 419,431 419,431 418,431 418,431 417,431 417,431 416,432 416,432 415,431 415,431 414,431 414,431 413,431 413,431 412,431 412,431 411,431 411,431 410,430 410,430 409,430 409,430 408,430 408,430 407,430 407,430 406,430 406,430 405,430 405,430 404,430 404,430 403,430 403,430 402,431 402,431 401,431 401,431 401,430 401,430 401,429 401,429 400,429 400,429 399,429 399,429 398,429 398,429 397,429 397,429 396,429 396,429 395,430 395,430 394,430 394,430 393,430 393,430 392,431 392,431 391,431 391,431 390,431 390,431 389,431 389,431 388,431 388,431 387,431 387,431 386,431 386,431 385,431 385,431 384,431 384,431 383,431 383,431 382,431 382,431 381,431 381,431 380,431 380,431 379,431 379,431 378,431 378,431 377,431 377,431 376,431 376,431 376,432 376,432 377,433 377,433 377,433 377,433 376,434 376,434 376,435 376,435 376,436 376,436 377,436 377,436 378,436 378,436 379,437 379,437 379,438 379,438 380,439 380,439 381,439 381,439 382,439 382,439 383,439 383,439 382,440 382,440 381,440 381,440 380,440 380,440 380,441 380,441 381,442 381,442 382,442 382,442 383,442 383,442 384,443 384,443 385,443 385,443 386,443 386,443 387,443 387,443 388,443 388,443 389,443 389,443 390,443 390,443 391,443 391,443 392,443 392,443 393,443 393,443 394,443 394,443 395,443 395,443 396,443 396,443 397,443 397,443 398,443 398,443 399,443 399,443 400,443 400,443 401,443 401,443 402,443 402,443 403,443 403,443 404,443 404,443 405,442 405,442 405,441 405,441 404,441 404,441 403,441 403,441 403,440 403,440 404,440 404,440 405,440 405,440 406,441 406,441 407,441 407,441 408,441 408,441 409,441 409,441 410,441 410,441 411,441 411,441 412,441 412,441 413,441 413,441 414,441 414,441 415,440 415,440 416,440 416,440 417,440 417,440 418,441 418,441 419,441 419,441 420,440 420,440 421,440 421,440 422,440 422,440 423,440 423,440 424,439 424,439 425,439 425,439 426,439 426,439 427,440 427,440 428,440 428,440 429,440 429,440 430,440 430,440 430,441 430,441 431,442 431,442 432,442 432,442 433,442 433,442 434,442 434,442 435,442 435,442 436,442 436,442 437,442 437,442 438,442 438,442 439,441 439,441 439,440 439,440 439,440 439,440 440,440 440,440 441,439 441,439 442,438 442,438 442,437" stroke="rgb(0,0,0)" /><polygon points="430,398 430,398 430,397 430,397 429,397 429,397 429,398 429,398 430,398" stroke="rgb(0,0,0)" /><polygon points="447,364 447,364 447,363 447,363 446,363 446,363 446,362 446,362 447,361 447,361 447,360 447,360 447,359 447,359 447,358 447,358 447,357 447,357 447,356 447,356 447,355 447,355 447,354 447,354 447,353 447,353 447,352 447,352 446,351 446,351 445,351 445,351 444,351 444,351 443,352 443,352 442,352 442,352 441,352 441,352 440,352 440,352 439,352 439,352 438,352 438,352 437,352 437,352 436,352 436,352 435,353 435,353 434,352 434,352 433,352 433,352 433,353 433,353 432,354 432,354 432,355 432,355 431,356 431,356 430,355 430,355 430,354 430,354 429,353 429,353 428,353 428,353 427,353 427,353 426,353 426,353 425,353 425,353 424,353 424,353 423,354 423,354 422,354 422,354 422,355 422,355 423,356 423,356 422,357 422,357 421,357 421,357 421,358 421,358 421,359 421,359 421,360 421,360 421,361 421,361 420,362 420,362 419,363 419,363 419,364 419,364 419,365 419,365 420,365 420,365 421,365 421,365 422,365 422,365 423,364 423,364 423,363 423,363 423,363 423,363 424,362 424,362 424,362 424,362 424,363 424,363 424,364 424,364 424,365 424,365 425,365 425,365 426,364 426,364 426,364 426,364 427,363 427,363 427,363 427,363 427,364 427,364 428,365 428,365 429,365 429,365 430,365 430,365 431,365 431,365 432,365 432,365 433,365 433,365 434,365 434,365 435,365 435,365 436,365 436,365 437,365 437,365 438,365 438,365 439,365 439,365 440,365 440,365 441,365 441,365 442,365 442,365 443,365 443,365 444,365 444,365 445,365 445,365 446,365 446,365 447,364" stroke="rgb(0,0,0)" /><polygon points="459,594 459,594 460,593 460,593 460,592 460,592 460,591 460,591 459,590 459,590 458,590 458,590 457,590 457,590 456,590 456,590 455,590 455,590 454,590 454,590 453,590 453,590 452,590 452,590 451,589 451,589 450,588 450,588 449,588 449,588 448,587 448,587 447,587 447,587 446,587 446,587 445,586 445,586 444,586 444,586 443,585 443,585 442,585 442,585 441,585 441,585 440,585 440,585 439,585 439,585 438,584 438,584 437,584 437,584 436,584 436,584 435,584 435,584 434,584 434,584 433,584 433,584 432,584 432,584 431,584 431,584 430,584 430,584 429,583 429,583 428,583 428,583 427,583 427,583 426,583 426,583 425,583 425,583 424,583 424,583 423,582 423,582 422,582 422,582 421,582 421,582 420,582 420,582 419,582 419,582 418,582 418,582 417,582 417,582 416,582 416,582 415,583 415,583 415,584 415,584 414,585 414,585 414,586 414,586 415,587 415,587 416,587 416,587 416,587 416,587 416,588 416,588 416,589 416,589 417,590 417,590 417,591 417,591 417,592 417,592 418,593 418,593 418,594 418,594 417,595 417,595 417,596 417,596 418,597 418,597 419,596 419,596 420,595 420,595 420,594 420,594 420,593 420,593 420,592 420,592 419,591 419,591 419,590 419,590 420,590 420,590 421,590 421,590 422,591 422,591 422,592 422,592 423,593 423,593 424,593 424,593 425,593 425,593 426,593 426,593 427,593 427,593 427,594 427,594 428,595 428,595 429,596 429,596 430,596 430,596 431,596 431,596 432,596 432,596 433,596 433,596 434,596 434,596 435,596 435,596 436,596 436,596 437,596 437,596 438,596 438,596 439,596 439,596 440,596 440,596 441,596 441,596 442,596 442,596 443,595 443,595 444,594 444,594 445,593 445,593 446,593 446,593 447,593 447,593 448,593 448,593 449,593 449,593 450,593 450,593 451,593 451,593 452,593 452,593 453,594 453,594 454,595 454,595 455,595 455,595 456,595 456,595 457,595 457,595 458,595 458,595 459,594" stroke="rgb(0,0,0)" /><polygon points="441,517 441,517 442,516 442,516 442,515 442,515 441,514 441,514 441,513 441,513 440,512 440,512 439,512 439,512 438,512 438,512 437,513 437,513 436,512 436,512 435,512 435,512 434,513 434,513 433,513 433,513 432,514 432,514 431,514 431,514 431,513 431,513 432,513 432,513 433,512 433,512 434,511 434,511 435,511 435,511 436,510 436,510 436,509 436,509 436,509 436,509 437,508 437,508 437,507 437,507 436,507 436,507 435,507 435,507 434,506 434,506 433,506 433,506 432,506 432,506 431,506 431,506 430,506 430,506 429,507 429,507 428,507 428,507 427,507 427,507 426,508 426,508 425,508 425,508 424,508 424,508 423,509 423,509 423,510 423,510 422,511 422,511 422,512 422,512 423,513 423,513 423,514 423,514 423,514 423,514 422,513 422,513 421,513 421,513 421,514 421,514 420,514 420,514 419,514 419,514 418,515 418,515 418,516 418,516 418,517 418,517 418,518 418,518 418,519 418,519 419,520 419,520 420,521 420,521 421,520 421,520 422,519 422,519 422,518 422,518 423,518 423,518 424,518 424,518 425,518 425,518 426,518 426,518 427,518 427,518 428,519 428,519 428,520 428,520 428,521 428,521 429,522 429,522 430,521 430,521 431,520 431,520 432,519 432,519 433,518 433,518 434,518 434,518 435,518 435,518 436,518 436,518 437,518 437,518 438,518 438,518 439,518 439,518 440,518 440,518 441,517" stroke="rgb(0,0,0)" /><polygon points="415,469 415,469 416,468 416,468 415,467 415,467 415,466 415,466 415,465 415,465 414,465 414,465 413,465 413,465 412,465 412,465 411,465 411,465 410,465 410,465 410,466 410,466 410,467 410,467 411,468 411,468 412,468 412,468 413,469 413,469 414,469 414,469 415,469" stroke="rgb(0,0,0)" /><polygon points="387,399 387,399 388,398 388,398 387,397 387,397 386,397 386,397 385,398 385,398 384,397 384,397 383,397 383,397 382,397 382,397 381,397 381,397 380,397 380,397 379,396 379,396 378,396 378,396 377,397 377,397 376,397 376,397 375,397 375,397 374,396 374,396 373,396 373,396 372,396 372,396 371,396 371,396 370,396 370,396 369,396 369,396 368,396 368,396 367,396 367,396 367,397 367,397 367,398 367,398 367,399 367,399 367,400 367,400 367,401 367,401 367,402 367,402 368,403 368,403 369,403 369,403 370,403 370,403 371,402 371,402 372,402 372,402 372,403 372,403 373,403 373,403 374,403 374,403 375,404 375,404 376,403 376,403 377,403 377,403 378,403 378,403 379,403 379,403 380,403 380,403 381,403 381,403 382,403 382,403 383,403 383,403 384,402 384,402 385,401 385,401 386,400 386,400 387,399" stroke="rgb(0,0,0)" /><polygon points="363,621 363,621 363,620 363,620 362,620 362,620 361,620 361,620 360,620 360,620 359,620 359,620 358,619 358,619 357,619 357,619 356,619 356,619 355,619 355,619 354,619 354,619 353,619 353,619 352,619 352,619 351,619 351,619 350,619 350,619 349,620 349,620 348,620 348,620 347,620 347,620 346,620 346,620 345,620 345,620 344,620 344,620 343,620 343,620 342,620 342,620 341,620 341,620 340,620 340,620 339,620 339,620 338,620 338,620 337,620 337,620 336,620 336,620 335,620 335,620 334,620 334,620 333,620 333,620 332,620 332,620 331,620 331,620 330,620 330,620 329,620 329,620 328,620 328,620 327,620 327,620 326,620 326,620 325,620 325,620 324,620 324,620 323,621 323,621 322,621 322,621 321,621 321,621 320,622 320,622 319,622 319,622 319,623 319,623 320,624 320,624 321,624 321,624 322,624 322,624 323,625 323,625 324,625 324,625 325,625 325,625 326,626 326,626 327,626 327,626 328,626 328,626 329,626 329,626 330,626 330,626 331,626 331,626 332,625 332,625 332,625 332,625 333,626 333,626 334,626 334,626 335,626 335,626 336,626 336,626 337,626 337,626 338,627 338,627 339,627 339,627 340,627 340,627 341,627 341,627 342,627 342,627 343,627 343,627 344,627 344,627 345,627 345,627 346,627 346,627 347,627 347,627 348,627 348,627 349,627 349,627 350,627 350,627 351,627 351,627 352,626 352,626 352,625 352,625 352,625 352,625 353,625 353,625 354,625 354,625 355,626 355,626 355,627 355,627 356,628 356,628 357,628 357,628 358,628 358,628 359,627 359,627 360,626 360,626 361,625 361,625 361,624 361,624 361,623 361,623 360,622 360,622 360,622 360,622 361,622 361,622 362,622 362,622 363,621" stroke="rgb(0,0,0)" /><polygon points="331,441 331,441 332,440 332,440 332,439 332,439 332,438 332,438 331,437 331,437 330,437 330,437 329,436 329,436 329,436 329,436 330,435 330,435 330,434 330,434 329,434 329,434 328,434 328,434 327,434 327,434 326,434 326,434 325,433 325,433 324,433 324,433 323,433 323,433 322,433 322,433 321,433 321,433 320,433 320,433 319,433 319,433 319,434 319,434 320,435 320,435 321,435 321,435 321,435 321,435 321,436 321,436 321,437 321,437 321,438 321,438 322,439 322,439 323,438 323,438 324,438 324,438 325,438 325,438 325,439 325,439 325,440 325,440 326,441 326,441 327,441 327,441 328,441 328,441 329,442 329,442 330,442 330,442 331,441" stroke="rgb(0,0,0)" /><polygon points="295,397 295,397 295,396 295,396 295,395 295,395 295,394 295,394 294,393 294,393 293,393 293,393 292,393 292,393 291,393 291,393 290,394 290,394 289,393 289,393 288,393 288,393 287,393 287,393 286,393 286,393 285,392 285,392 284,392 284,392 283,392 283,392 282,392 282,392 281,392 281,392 280,392 280,392 279,392 279,392 279,393 279,393 279,394 279,394 278,394 278,394 278,395 278,395 279,396 279,396 280,396 280,396 281,396 281,396 282,396 282,396 283,396 283,396 284,396 284,396 284,397 284,397 283,397 283,397 282,397 282,397 281,397 281,397 280,397 280,397 279,397 279,397 278,397 278,397 277,397 277,397 276,397 276,397 275,397 275,397 275,396 275,396 276,396 276,396 277,395 277,395 277,394 277,394 277,393 277,393 276,392 276,392 275,392 275,392 274,392 274,392 273,392 273,392 272,393 272,393 271,393 271,393 270,393 270,393 269,393 269,393 268,393 268,393 267,393 267,393 266,392 266,392 265,392 265,392 264,392 264,392 263,392 263,392 262,392 262,392 261,392 261,392 260,392 260,392 260,393 260,393 259,394 259,394 258,395 258,395 257,394 257,394 256,394 256,394 256,393 256,393 256,392 256,392 255,392 255,392 254,392 254,392 253,392 253,392 252,392 252,392 251,392 251,392 250,392 250,392 249,392 249,392 248,392 248,392 247,391 247,391 246,391 246,391 245,391 245,391 244,391 244,391 243,391 243,391 242,391 242,391 241,392 241,392 240,392 240,392 240,392 240,392 240,391 240,391 240,390 240,390 239,389 239,389 238,389 238,389 237,390 237,390 236,390 236,390 235,391 235,391 234,392 234,392 234,393 234,393 234,394 234,394 234,395 234,395 234,396 234,396 235,397 235,397 236,398 236,398 237,398 237,398 238,398 238,398 239,398 239,398 240,399 240,399 241,400 241,400 242,400 242,400 243,400 243,400 244,400 244,400 245,400 245,400 246,401 246,401 247,401 247,401 248,400 248,400 249,400 249,400 250,400 250,400 251,400 251,400 252,400 252,400 253,401 253,401 254,401 254,401 255,401 255,401 256,401 256,401 257,401 257,401 258,401 258,401 259,401 259,401 260,401 260,401 261,400 261,400 262,400 262,400 263,400 263,400 264,400 264,400 265,400 265,400 266,400 266,400 267,400 267,400 268,400 268,400 269,400 269,400 270,400 270,400 271,400 271,400 272,399 272,399 273,399 273,399 274,399 274,399 275,399 275,399 276,399 276,399 277,399 277,399 278,399 278,399 279,399 279,399 280,399 280,399 281,399 281,399 282,399 282,399 283,399 283,399 284,399 284,399 285,399 285,399 286,399 286,399 287,399 287,399 288,399 288,399 289,399 289,399 290,398 290,398 291,398 291,398 292,398 292,398 293,398 293,398 294,398 294,398 295,397" stroke="rgb(0,0,0)" /></svg>