<?xml version="1.0" encoding="utf-8" ?>
<svg baseProfile="full" height="100%" version="1.1" width="100%" xmlns="http://www.w3.org/2000/svg" xmlns:ev="http://www.w3.org/2001/xml-events" xmlns:xlink="http://www.w3.org/1999/xlink"><defs /><polygon points="760,542 760,542 760,541 760,541 759,541 759,541 759,542 759,542 760,542" stroke="rgb(0,0,0)" /><polygon points="704,275 704,275 704,274 704,274 703,274 703,274 703,275 703,275 704,275" stroke="rgb(0,0,0)" /><polygon points="701,419 701,419 701,418 701,418 700,418 700,418 700,419 700,419 701,419" stroke="rgb(0,0,0)" /><polygon points="701,92 701,92 701,91 701,91 700,91 700,91 700,92 700,92 701,92" stroke="rgb(0,0,0)" /><polygon points="694,359 694,359 694,358 694,358 693,358 693,358 693,359 693,359 694,359" stroke="rgb(0,0,0)" /><polygon points="692,162 692,162 692,161 692,161 691,161 691,161 691,162 691,162 692,162" stroke="rgb(0,0,0)" /><polygon points="690,199 690,199 690,198 690,198 689,198 689,198 689,199 689,199 690,199" stroke="rgb(0,0,0)" /><polygon points="688,662 688,662 688,661 688,661 687,661 687,661 687,662 687,662 688,662" stroke="rgb(0,0,0)" /><polygon points="686,624 686,624 686,623 686,623 685,623 685,623 685,624 685,624 686,624" stroke="rgb(0,0,0)" /><polygon points="684,242 684,242 684,241 684,241 683,241 683,241 683,242 683,242 684,242" stroke="rgb(0,0,0)" /><polygon points="666,106 666,106 666,105 666,105 665,105 665,105 665,106 665,106 666,106" stroke="rgb(0,0,0)" /><polygon points="643,163 643,163 643,162 643,162 642,162 642,162 642,163 642,163 643,163" stroke="rgb(0,0,0)" /><polygon points="640,509 640,509 640,508 640,508 639,508 639,508 639,509 639,509 640,509" stroke="rgb(0,0,0)" /><polygon points="637,281 637,281 637,280 637,280 636,280 636,280 636,281 636,281 637,281" stroke="rgb(0,0,0)" /><polygon points="634,586 634,586 634,585 634,585 633,585 633,585 633,586 633,586 634,586" stroke="rgb(0,0,0)" /><polygon points="634,361 634,361 634,360 634,360 633,360 633,360 632,360 632,360 632,361 632,361 633,362 633,362 634,361" stroke="rgb(0,0,0)" /><polygon points="632,238 632,238 632,237 632,237 631,237 631,237 631,238 631,238 632,238" stroke="rgb(0,0,0)" /><polygon points="631,428 631,428 631,427 631,427 630,427 630,427 630,428 630,428 631,428" stroke="rgb(0,0,0)" /><polygon points="629,199 629,199 629,198 629,198 628,198 628,198 628,199 628,199 629,199" stroke="rgb(0,0,0)" /><polygon points="588,665 588,665 588,664 588,664 587,664 587,664 587,665 587,665 588,665" stroke="rgb(0,0,0)" /><polygon points="583,512 583,512 583,511 583,511 582,511 582,511 582,512 582,512 583,512" stroke="rgb(0,0,0)" /><polygon points="583,434 583,434 583,433 583,433 582,433 582,433 582,434 582,434 583,434" stroke="rgb(0,0,0)" /><polygon points="582,396 582,396 582,395 582,395 581,395 581,395 581,396 581,396 582,396" stroke="rgb(0,0,0)" /><polygon points="582,165 582,165 582,164 582,164 581,164 581,164 581,165 581,165 582,165" stroke="rgb(0,0,0)" /><polygon points="581,588 581,588 581,587 581,587 580,587 580,587 580,588 580,588 581,588" stroke="rgb(0,0,0)" /><polygon points="581,239 581,239 581,238 581,238 580,238 580,238 580,239 580,239 581,239" stroke="rgb(0,0,0)" /><polygon points="581,116 581,116 581,115 581,115 580,115 580,115 580,116 580,116 581,116" stroke="rgb(0,0,0)" /><polygon points="579,280 579,280 579,279 579,279 578,279 578,279 578,280 578,280 579,280" stroke="rgb(0,0,0)" /><polygon points="573,199 573,199 573,198 573,198 572,198 572,198 572,199 572,199 573,199" stroke="rgb(0,0,0)" /><polygon points="540,663 540,663 540,662 540,662 539,662 539,662 539,663 539,663 540,663" stroke="rgb(0,0,0)" /><polygon points="540,473 540,473 540,472 540,472 539,472 539,472 539,473 539,473 540,473" stroke="rgb(0,0,0)" /><polygon points="535,357 535,357 535,356 535,356 534,356 534,356 534,357 534,357 535,357" stroke="rgb(0,0,0)" /><polygon points="529,395 529,395 529,394 529,394 528,394 528,394 528,395 528,395 529,395" stroke="rgb(0,0,0)" /><polygon points="529,318 529,318 529,317 529,317 528,317 528,317 528,318 528,318 529,318" stroke="rgb(0,0,0)" /><polygon points="527,280 527,280 527,279 527,279 526,279 526,279 526,280 526,280 527,280" stroke="rgb(0,0,0)" /><polygon points="527,199 527,199 527,198 527,198 526,198 526,198 526,199 526,199 527,199" stroke="rgb(0,0,0)" /><polygon points="525,549 525,549 525,548 525,548 524,548 524,548 524,549 524,549 525,549" stroke="rgb(0,0,0)" /><polygon points="521,117 521,117 521,116 521,116 520,116 520,116 520,117 520,117 521,117" stroke="rgb(0,0,0)" /><polygon points="520,240 520,240 520,239 520,239 519,239 519,239 519,240 519,240 520,240" stroke="rgb(0,0,0)" /><polygon points="486,592 486,592 486,591 486,591 485,591 485,591 485,592 485,592 486,592" stroke="rgb(0,0,0)" /><polygon points="484,514 484,514 484,513 484,513 483,513 483,513 483,514 483,514 484,514" stroke="rgb(0,0,0)" /><polygon points="484,435 484,435 484,434 484,434 483,434 483,434 483,435 483,435 484,435" stroke="rgb(0,0,0)" /><polygon points="484,201 484,201 484,200 484,200 483,200 483,200 483,201 483,201 484,201" stroke="rgb(0,0,0)" /><polygon points="482,546 482,546 482,545 482,545 481,545 481,545 481,546 481,546 482,546" stroke="rgb(0,0,0)" /><polygon points="482,471 482,471 482,470 482,470 481,470 481,470 481,471 481,471 482,471" stroke="rgb(0,0,0)" /><polygon points="480,283 480,283 480,282 480,282 479,282 479,282 479,283 479,283 480,283" stroke="rgb(0,0,0)" /><polygon points="479,393 479,393 479,392 479,392 478,392 478,392 478,393 478,393 479,393" stroke="rgb(0,0,0)" /><polygon points="479,358 479,358 479,357 479,357 478,357 478,357 478,358 478,358 479,358" stroke="rgb(0,0,0)" /><polygon points="478,240 478,240 478,239 478,239 477,239 477,239 477,240 477,240 478,240" stroke="rgb(0,0,0)" /><polygon points="477,680 477,680 477,679 477,679 476,679 476,679 476,680 476,680 477,680" stroke="rgb(0,0,0)" /><polygon points="455,115 455,115 455,114 455,114 454,114 454,114 454,115 454,115 455,115" stroke="rgb(0,0,0)" /><polygon points="435,435 435,435 435,434 435,434 434,434 434,434 434,435 434,435 435,435" stroke="rgb(0,0,0)" /><polygon points="434,398 434,398 434,397 434,397 433,397 433,397 433,398 433,398 434,398" stroke="rgb(0,0,0)" /><polygon points="434,356 434,356 434,355 434,355 433,355 433,355 433,356 433,356 434,356" stroke="rgb(0,0,0)" /><polygon points="430,693 430,693 430,692 430,692 429,692 429,692 429,693 429,693 430,693" stroke="rgb(0,0,0)" /><polygon points="430,283 430,283 430,282 430,282 429,282 429,282 429,283 429,283 430,283" stroke="rgb(0,0,0)" /><polygon points="429,513 429,513 429,512 429,512 428,512 428,512 428,513 428,513 429,513" stroke="rgb(0,0,0)" /><polygon points="428,589 428,589 428,588 428,588 427,588 427,588 427,589 427,589 428,589" stroke="rgb(0,0,0)" /><polygon points="414,657 414,657 414,656 414,656 413,656 413,656 413,657 413,657 414,657" stroke="rgb(0,0,0)" /><polygon points="383,397 383,397 383,396 383,396 382,396 382,396 382,397 382,397 383,397" stroke="rgb(0,0,0)" /><polygon points="373,550 373,550 373,549 373,549 372,549 372,549 372,550 372,550 373,550" stroke="rgb(0,0,0)" /><polygon points="366,662 366,662 366,661 366,661 365,661 365,661 365,662 365,662 366,662" stroke="rgb(0,0,0)" /><polygon points="327,241 327,241 327,240 327,240 326,240 326,240 326,241 326,241 327,241" stroke="rgb(0,0,0)" /><polygon points="325,200 325,200 325,199 325,199 324,199 324,199 324,200 324,200 325,200" stroke="rgb(0,0,0)" /><polygon points="323,625 323,625 323,624 323,624 322,624 322,624 322,625 322,625 323,625" stroke="rgb(0,0,0)" /><polygon points="320,549 320,549 320,548 320,548 319,548 319,548 319,549 319,549 320,549" stroke="rgb(0,0,0)" /><polygon points="320,280 320,280 320,279 320,279 319,279 319,279 319,280 319,280 320,280" stroke="rgb(0,0,0)" /><polygon points="310,692 310,692 310,691 310,691 309,691 309,691 309,692 309,692 310,692" stroke="rgb(0,0,0)" /><polygon points="267,381 267,381 267,380 267,380 266,380 266,380 266,381 266,381 267,381" stroke="rgb(0,0,0)" /><polygon points="261,244 261,244 261,243 261,243 260,243 260,243 260,244 260,244 261,244" stroke="rgb(0,0,0)" /><polygon points="258,105 258,105 258,104 258,104 257,104 257,104 257,105 257,105 258,105" stroke="rgb(0,0,0)" /><polygon points="241,150 241,150 241,149 241,149 240,149 240,149 240,150 240,150 241,150" stroke="rgb(0,0,0)" /><polygon points="223,242 223,242 223,241 223,241 222,241 222,241 222,242 222,242 223,242" stroke="rgb(0,0,0)" /><polygon points="214,510 214,510 214,509 214,509 213,509 213,509 213,510 213,510 214,510" stroke="rgb(0,0,0)" /><polygon points="214,280 214,280 214,279 214,279 213,279 213,279 213,280 213,280 214,280" stroke="rgb(0,0,0)" /><polygon points="211,550 211,550 211,549 211,549 210,549 210,549 210,550 210,550 211,550" stroke="rgb(0,0,0)" /><polygon points="209,476 209,476 209,475 209,475 208,475 208,475 208,476 208,476 209,476" stroke="rgb(0,0,0)" /><polygon points="208,384 208,384 208,383 208,383 207,383 207,383 207,384 207,384 208,384" stroke="rgb(0,0,0)" /><polygon points="203,202 203,202 203,201 203,201 202,201 202,201 202,202 202,202 203,202" stroke="rgb(0,0,0)" /><polygon points="187,155 187,155 187,154 187,154 186,154 186,154 186,155 186,155 187,155" stroke="rgb(0,0,0)" /></svg>