<?xml version="1.0" encoding="utf-8" ?>
<svg baseProfile="full" height="100%" version="1.1" width="100%" xmlns="http://www.w3.org/2000/svg" xmlns:ev="http://www.w3.org/2001/xml-events" xmlns:xlink="http://www.w3.org/1999/xlink"><defs /><polygon points="761,542 759,542 761,542" stroke="rgb(0,0,0)" /><polygon points="705,275 703,275 705,275" stroke="rgb(0,0,0)" /><polygon points="702,419 700,419 702,419" stroke="rgb(0,0,0)" /><polygon points="702,92 700,92 702,92" stroke="rgb(0,0,0)" /><polygon points="695,359 693,359 695,359" stroke="rgb(0,0,0)" /><polygon points="693,162 691,162 693,162" stroke="rgb(0,0,0)" /><polygon points="691,199 689,199 691,199" stroke="rgb(0,0,0)" /><polygon points="689,662 687,662 689,662" stroke="rgb(0,0,0)" /><polygon points="687,624 685,624 687,624" stroke="rgb(0,0,0)" /><polygon points="685,242 683,242 685,242" stroke="rgb(0,0,0)" /><polygon points="667,106 665,106 667,106" stroke="rgb(0,0,0)" /><polygon points="644,163 642,163 644,163" stroke="rgb(0,0,0)" /><polygon points="641,509 639,509 641,509" stroke="rgb(0,0,0)" /><polygon points="638,281 636,281 638,281" stroke="rgb(0,0,0)" /><polygon points="635,586 633,586 635,586" stroke="rgb(0,0,0)" /><polygon points="635,361 632,361 635,361" stroke="rgb(0,0,0)" /><polygon points="633,238 631,238 633,238" stroke="rgb(0,0,0)" /><polygon points="632,428 630,428 632,428" stroke="rgb(0,0,0)" /><polygon points="630,199 628,199 630,199" stroke="rgb(0,0,0)" /><polygon points="589,665 587,665 589,665" stroke="rgb(0,0,0)" /><polygon points="584,512 582,512 583,513 584,512" stroke="rgb(0,0,0)" /><polygon points="584,434 582,434 584,434" stroke="rgb(0,0,0)" /><polygon points="583,396 581,396 583,396" stroke="rgb(0,0,0)" /><polygon points="583,165 581,165 583,165" stroke="rgb(0,0,0)" /><polygon points="582,588 580,588 582,588" stroke="rgb(0,0,0)" /><polygon points="582,239 580,239 582,239" stroke="rgb(0,0,0)" /><polygon points="582,116 580,116 582,116" stroke="rgb(0,0,0)" /><polygon points="580,280 578,280 580,280" stroke="rgb(0,0,0)" /><polygon points="574,199 572,199 574,199" stroke="rgb(0,0,0)" /><polygon points="541,663 539,663 541,663" stroke="rgb(0,0,0)" /><polygon points="541,473 539,473 541,473" stroke="rgb(0,0,0)" /><polygon points="536,357 534,357 536,357" stroke="rgb(0,0,0)" /><polygon points="530,395 528,395 530,395" stroke="rgb(0,0,0)" /><polygon points="530,318 528,318 530,318" stroke="rgb(0,0,0)" /><polygon points="528,280 526,280 528,280" stroke="rgb(0,0,0)" /><polygon points="528,199 526,199 528,199" stroke="rgb(0,0,0)" /><polygon points="526,549 524,549 526,549" stroke="rgb(0,0,0)" /><polygon points="522,117 520,117 522,117" stroke="rgb(0,0,0)" /><polygon points="521,240 519,240 521,240" stroke="rgb(0,0,0)" /><polygon points="487,592 485,592 487,592" stroke="rgb(0,0,0)" /><polygon points="485,514 483,514 485,514" stroke="rgb(0,0,0)" /><polygon points="485,435 483,435 485,435" stroke="rgb(0,0,0)" /><polygon points="485,201 483,201 485,201" stroke="rgb(0,0,0)" /><polygon points="483,546 481,546 483,546" stroke="rgb(0,0,0)" /><polygon points="483,471 481,471 483,471" stroke="rgb(0,0,0)" /><polygon points="481,283 479,283 481,283" stroke="rgb(0,0,0)" /><polygon points="480,393 478,393 480,393" stroke="rgb(0,0,0)" /><polygon points="480,358 478,358 480,358" stroke="rgb(0,0,0)" /><polygon points="479,240 477,240 479,240" stroke="rgb(0,0,0)" /><polygon points="478,680 476,680 478,680" stroke="rgb(0,0,0)" /><polygon points="456,115 454,115 456,115" stroke="rgb(0,0,0)" /><polygon points="436,435 434,435 436,435" stroke="rgb(0,0,0)" /><polygon points="435,398 433,398 435,398" stroke="rgb(0,0,0)" /><polygon points="435,356 433,356 435,356" stroke="rgb(0,0,0)" /><polygon points="431,693 429,693 431,693" stroke="rgb(0,0,0)" /><polygon points="431,283 429,283 431,283" stroke="rgb(0,0,0)" /><polygon points="430,513 428,513 430,513" stroke="rgb(0,0,0)" /><polygon points="429,589 427,589 429,589" stroke="rgb(0,0,0)" /><polygon points="415,657 413,657 415,657" stroke="rgb(0,0,0)" /><polygon points="384,397 382,397 384,397" stroke="rgb(0,0,0)" /><polygon points="374,550 372,550 374,550" stroke="rgb(0,0,0)" /><polygon points="367,662 365,662 367,662" stroke="rgb(0,0,0)" /><polygon points="328,241 326,241 328,241" stroke="rgb(0,0,0)" /><polygon points="326,200 324,200 326,200" stroke="rgb(0,0,0)" /><polygon points="324,625 322,625 324,625" stroke="rgb(0,0,0)" /><polygon points="321,549 319,549 321,549" stroke="rgb(0,0,0)" /><polygon points="321,280 319,280 321,280" stroke="rgb(0,0,0)" /><polygon points="311,692 309,692 311,692" stroke="rgb(0,0,0)" /><polygon points="268,381 266,381 268,381" stroke="rgb(0,0,0)" /><polygon points="262,244 260,244 262,244" stroke="rgb(0,0,0)" /><polygon points="259,105 257,105 259,105" stroke="rgb(0,0,0)" /><polygon points="242,150 240,150 242,150" stroke="rgb(0,0,0)" /><polygon points="224,242 222,242 224,242" stroke="rgb(0,0,0)" /><polygon points="215,510 213,510 215,510" stroke="rgb(0,0,0)" /><polygon points="215,280 213,280 215,280" stroke="rgb(0,0,0)" /><polygon points="212,550 210,550 212,550" stroke="rgb(0,0,0)" /><polygon points="210,476 208,476 210,476" stroke="rgb(0,0,0)" /><polygon points="209,384 207,384 209,384" stroke="rgb(0,0,0)" /><polygon points="204,202 202,202 204,202" stroke="rgb(0,0,0)" /><polygon points="188,155 186,155 188,155" stroke="rgb(0,0,0)" /></svg>