<?xml version="1.0" encoding="utf-8" ?>
<svg baseProfile="full" height="100%" version="1.1" width="100%" xmlns="http://www.w3.org/2000/svg" xmlns:ev="http://www.w3.org/2001/xml-events" xmlns:xlink="http://www.w3.org/1999/xlink"><defs /><polygon points="761,543 760,541 758,543 761,543" stroke="rgb(0,0,0)" /><polygon points="710,278 702,273 701,270 696,271 694,274 689,272 686,273 687,274 678,274 679,276 684,276 684,279 689,278 691,280 686,282 687,285 693,282 699,282 701,280 702,281 705,277 708,280 710,278" stroke="rgb(0,0,0)" /><polygon points="735,417 732,414 733,411 735,411 735,406 734,405 731,407 734,404 734,402 732,401 733,398 730,394 732,390 731,394 733,396 735,395 734,375 729,375 729,371 727,375 726,371 724,373 727,367 725,363 719,364 719,366 721,366 715,370 711,367 708,368 701,373 702,375 699,380 695,381 691,390 694,400 695,397 694,402 696,403 692,408 694,410 693,414 694,415 698,410 698,413 696,414 696,416 698,417 697,421 699,421 700,423 703,419 701,425 709,431 711,430 710,429 712,424 710,422 713,424 718,419 722,419 713,425 713,427 718,430 714,431 715,434 722,434 724,431 723,430 724,434 727,432 728,429 720,425 720,423 722,422 723,423 721,424 726,428 727,426 730,426 728,424 728,421 730,420 726,418 725,420 726,416 730,415 734,418 735,417" stroke="rgb(0,0,0)" /><polygon points="740,97 738,93 733,95 733,93 722,94 723,93 720,90 702,88 700,84 692,87 691,90 700,91 698,93 702,95 715,94 715,92 713,92 715,91 717,93 715,94 718,95 693,95 690,93 690,88 683,89 681,87 653,93 622,93 608,91 571,93 573,109 575,105 621,105 658,114 663,114 664,108 666,106 661,106 661,102 664,102 666,104 696,103 705,105 705,102 713,104 717,101 736,99 740,97" stroke="rgb(0,0,0)" /><polygon points="695,360 694,357 690,361 692,361 693,363 695,360" stroke="rgb(0,0,0)" /><polygon points="693,162 691,162 693,162" stroke="rgb(0,0,0)" /><polygon points="692,200 691,198 689,199 691,201 692,200" stroke="rgb(0,0,0)" /><polygon points="692,664 691,661 688,661 682,663 681,666 682,667 683,665 683,668 685,669 687,666 690,666 692,664" stroke="rgb(0,0,0)" /><polygon points="687,624 685,624 687,624" stroke="rgb(0,0,0)" /><polygon points="688,252 688,250 687,249 686,251 686,248 684,247 685,242 683,241 681,249 685,253 688,252" stroke="rgb(0,0,0)" /><polygon points="740,97 738,93 733,95 733,93 722,94 723,93 720,90 702,88 700,84 692,87 691,90 700,91 698,93 702,95 715,94 715,92 713,92 715,91 717,93 715,94 718,95 693,95 690,93 690,88 683,89 681,87 653,93 622,93 608,91 571,93 573,109 575,105 621,105 658,114 663,114 664,108 667,106 661,106 661,102 664,102 666,104 696,103 705,105 705,102 713,104 717,101 736,99 740,97" stroke="rgb(0,0,0)" /><polygon points="653,166 653,162 651,161 649,165 650,162 646,161 646,159 634,159 632,162 628,162 624,165 624,167 628,171 630,171 630,173 636,172 637,171 635,168 638,172 642,171 643,173 645,168 644,170 648,172 650,170 649,168 653,166" stroke="rgb(0,0,0)" /><polygon points="644,508 636,508 640,510 644,508" stroke="rgb(0,0,0)" /><polygon points="645,275 644,273 640,273 640,275 634,278 634,282 637,282 639,277 645,275" stroke="rgb(0,0,0)" /><polygon points="640,587 639,584 635,584 633,586 635,589 640,587" stroke="rgb(0,0,0)" /><polygon points="650,355 649,352 647,351 645,354 638,358 638,362 638,359 635,358 628,364 633,370 635,370 635,373 637,372 637,369 642,369 645,371 649,363 646,360 644,363 642,362 641,364 641,362 642,360 644,360 646,356 650,355" stroke="rgb(0,0,0)" /><polygon points="633,238 630,234 630,239 631,240 633,238" stroke="rgb(0,0,0)" /><polygon points="649,424 648,419 646,417 641,419 642,422 640,425 637,424 634,427 636,425 634,422 636,421 632,420 628,423 628,425 632,427 628,430 624,430 623,432 627,432 629,435 633,434 634,432 635,437 637,439 639,428 644,428 647,425 646,423 648,425 649,424" stroke="rgb(0,0,0)" /><polygon points="630,199 628,199 630,199" stroke="rgb(0,0,0)" /><polygon points="686,661 666,659 645,659 640,661 631,661 608,658 595,659 572,657 571,673 572,674 574,671 578,670 580,671 581,669 582,671 651,672 659,671 659,668 666,668 668,664 672,668 673,665 675,669 677,666 676,668 678,669 680,664 678,662 686,661" stroke="rgb(0,0,0)" /><polygon points="599,508 597,506 579,504 576,504 575,506 570,503 568,507 569,508 566,508 565,511 563,509 557,509 555,511 556,513 564,515 566,515 567,513 566,516 555,515 551,517 547,515 546,517 553,520 566,520 571,518 578,518 578,513 580,517 586,517 585,518 587,519 591,518 591,516 594,515 590,514 590,512 593,509 599,508" stroke="rgb(0,0,0)" /><polygon points="587,434 575,432 553,432 553,436 551,436 550,439 565,440 566,437 572,439 580,439 585,438 587,434" stroke="rgb(0,0,0)" /><polygon points="583,396 582,394 581,396 583,396" stroke="rgb(0,0,0)" /><polygon points="600,165 598,161 593,161 591,159 583,158 583,160 576,160 575,164 580,167 576,168 575,173 579,174 584,171 589,172 597,169 600,165" stroke="rgb(0,0,0)" /><polygon points="622,583 617,577 607,577 607,579 602,582 597,581 595,583 588,583 580,586 580,588 578,586 575,587 570,591 578,592 579,594 583,595 586,595 586,593 590,592 589,591 591,593 603,592 606,595 612,595 612,592 609,593 611,591 610,590 613,589 611,587 614,589 613,590 615,592 618,592 619,590 615,586 618,585 620,588 622,583" stroke="rgb(0,0,0)" /><polygon points="582,239 580,239 582,239" stroke="rgb(0,0,0)" /><polygon points="582,116 580,116 582,116" stroke="rgb(0,0,0)" /><polygon points="594,281 585,276 580,275 577,277 580,281 579,283 581,287 588,285 590,286 591,282 594,281" stroke="rgb(0,0,0)" /><polygon points="574,199 572,199 574,199" stroke="rgb(0,0,0)" /><polygon points="558,656 558,653 556,651 540,649 440,649 436,651 429,649 378,648 378,688 370,689 369,688 373,688 376,686 374,684 373,685 366,682 357,683 353,685 352,683 342,684 336,687 308,691 304,694 303,702 304,703 306,700 322,701 324,699 322,697 324,696 325,699 329,696 332,699 336,699 338,693 341,691 343,694 342,698 344,700 346,699 347,695 349,699 358,699 359,696 361,699 365,701 374,702 378,706 379,701 376,698 376,695 376,691 378,691 378,699 380,701 379,703 382,706 385,701 384,696 386,699 388,695 389,697 391,690 403,690 405,688 391,686 390,684 388,685 389,681 387,677 389,673 387,671 386,662 384,662 384,665 383,661 384,659 390,659 402,662 441,665 443,667 443,674 441,680 443,688 429,690 443,692 444,695 442,697 444,700 445,697 446,699 445,710 447,711 450,709 450,698 452,695 452,691 452,694 454,694 454,689 454,694 456,694 457,671 447,669 445,666 446,660 460,660 463,662 475,662 496,665 497,659 504,659 511,661 538,662 540,664 547,663 547,661 540,660 544,660 544,658 549,657 551,654 554,654 555,657 553,662 553,699 555,700 558,656" stroke="rgb(0,0,0)" /><polygon points="550,478 549,474 547,476 532,468 531,467 533,467 533,465 520,466 523,472 526,472 527,480 536,479 538,476 540,476 545,481 548,481 550,478" stroke="rgb(0,0,0)" /><polygon points="550,360 549,357 542,356 541,359 542,356 540,354 525,351 523,352 524,355 529,356 533,361 537,361 532,362 527,356 523,357 522,361 524,361 524,366 538,363 538,365 540,365 545,360 546,363 550,360" stroke="rgb(0,0,0)" /><polygon points="547,397 546,389 542,391 542,389 528,389 528,391 523,390 521,396 522,398 523,397 523,399 528,398 528,400 531,399 531,401 539,400 539,398 541,397 539,395 543,395 542,397 545,400 547,397" stroke="rgb(0,0,0)" /><polygon points="559,313 529,313 523,315 522,320 534,321 536,319 540,320 542,318 536,317 537,316 547,316 548,319 550,319 559,313" stroke="rgb(0,0,0)" /><polygon points="528,280 526,280 528,280" stroke="rgb(0,0,0)" /><polygon points="528,199 526,199 528,199" stroke="rgb(0,0,0)" /><polygon points="526,549 524,549 526,549" stroke="rgb(0,0,0)" /><polygon points="558,132 558,119 556,111 557,99 552,93 526,94 523,97 512,97 505,95 483,93 459,93 458,95 448,94 447,95 450,99 449,101 454,104 452,105 453,108 459,109 473,107 477,110 484,110 485,112 492,114 493,112 491,111 491,109 487,107 495,106 493,105 494,99 493,103 494,104 496,101 497,106 514,106 515,109 512,112 514,109 513,107 498,108 497,109 499,110 501,116 507,113 509,114 502,118 499,117 497,119 478,119 473,121 456,120 449,114 447,116 446,114 445,117 441,119 438,116 439,113 436,111 435,117 438,120 438,123 436,124 440,126 442,125 440,127 441,135 438,129 435,129 431,132 433,133 432,140 434,144 440,144 440,142 447,142 451,144 528,143 528,141 539,141 542,138 540,129 540,126 542,125 549,125 550,129 551,127 550,131 552,133 553,131 557,133 558,132" stroke="rgb(0,0,0)" /><polygon points="521,240 519,240 521,240" stroke="rgb(0,0,0)" /><polygon points="490,592 487,590 484,592 486,594 490,592" stroke="rgb(0,0,0)" /><polygon points="496,513 494,509 489,510 489,508 485,507 472,506 468,508 471,511 484,513 476,513 475,515 472,514 471,515 473,517 486,517 488,515 494,516 495,515 493,513 496,513" stroke="rgb(0,0,0)" /><polygon points="498,437 497,431 490,431 485,429 473,429 473,431 464,430 462,431 467,436 467,438 470,438 470,440 476,440 476,438 483,438 485,439 485,441 489,441 493,438 492,440 494,441 496,438 496,433 496,437 498,437" stroke="rgb(0,0,0)" /><polygon points="495,202 494,199 489,199 487,201 486,198 478,199 476,197 470,199 472,203 495,202" stroke="rgb(0,0,0)" /><polygon points="496,556 495,546 494,552 494,547 496,544 495,541 493,542 493,544 473,543 471,547 471,552 468,554 470,559 484,559 485,556 490,556 494,558 496,556" stroke="rgb(0,0,0)" /><polygon points="495,468 481,468 476,466 460,467 470,468 470,481 471,473 475,471 489,471 490,469 495,468" stroke="rgb(0,0,0)" /><polygon points="494,280 493,278 488,277 486,279 483,279 482,281 477,281 475,284 480,289 485,289 485,283 494,280" stroke="rgb(0,0,0)" /><polygon points="496,402 496,398 494,397 496,394 494,388 491,389 491,391 488,392 484,397 480,396 479,392 475,396 473,394 468,397 468,399 473,402 480,403 484,402 486,399 487,401 491,400 491,403 496,402" stroke="rgb(0,0,0)" /><polygon points="498,360 497,357 492,356 472,356 471,366 483,366 486,365 487,362 491,364 496,363 492,360 487,360 487,358 497,361 498,360" stroke="rgb(0,0,0)" /><polygon points="496,243 495,237 492,235 486,235 481,239 477,236 470,241 474,245 472,247 473,251 480,251 481,249 478,248 483,244 489,245 496,243" stroke="rgb(0,0,0)" /><polygon points="498,682 497,674 484,674 481,672 472,671 472,674 470,676 470,671 458,671 460,673 468,674 468,681 473,684 481,684 483,682 482,680 487,684 498,682" stroke="rgb(0,0,0)" /><polygon points="479,118 478,116 462,112 457,109 453,109 453,111 451,112 456,117 467,119 479,118" stroke="rgb(0,0,0)" /><polygon points="443,437 442,430 441,433 440,431 401,431 401,429 393,431 376,432 378,433 376,436 378,436 380,439 383,439 380,441 384,443 405,443 406,442 403,441 404,440 420,441 425,439 430,440 431,442 439,442 439,440 441,440 443,437" stroke="rgb(0,0,0)" /><polygon points="435,398 433,398 435,398" stroke="rgb(0,0,0)" /><polygon points="448,364 446,363 448,361 447,352 445,351 443,353 434,352 430,357 431,356 429,353 423,354 423,357 421,358 421,362 419,365 422,366 425,362 425,366 428,363 428,365 448,364" stroke="rgb(0,0,0)" /><polygon points="431,693 429,693 431,693" stroke="rgb(0,0,0)" /><polygon points="431,283 429,283 431,283" stroke="rgb(0,0,0)" /><polygon points="442,517 440,512 431,514 438,508 431,506 425,508 422,512 423,515 422,513 421,515 420,514 418,516 418,519 421,521 423,518 427,518 430,522 434,518 442,517" stroke="rgb(0,0,0)" /><polygon points="460,594 459,590 452,590 448,587 438,584 417,582 414,586 417,587 416,589 418,597 420,596 420,590 423,593 427,593 429,596 443,596 446,593 452,593 454,595 460,594" stroke="rgb(0,0,0)" /><polygon points="558,656 558,653 556,651 540,649 440,649 436,651 429,649 378,648 378,688 370,689 369,688 373,688 376,686 374,684 373,685 366,682 357,683 353,685 352,683 342,684 336,687 308,691 304,694 303,702 304,703 306,700 322,701 324,699 322,697 324,696 325,699 329,696 332,699 336,699 338,693 341,691 343,694 342,698 344,700 346,699 347,695 349,699 358,699 359,696 361,699 365,701 374,702 378,706 379,701 376,698 376,695 376,691 378,691 378,699 380,701 379,703 382,706 385,701 384,696 386,699 388,695 389,697 391,690 403,690 405,688 391,686 390,684 388,685 389,681 387,677 389,673 387,671 386,662 384,662 384,665 383,661 384,659 390,659 402,662 441,665 443,667 443,674 441,680 443,688 429,690 443,692 444,695 442,697 444,700 445,697 446,699 445,710 447,711 450,709 450,698 452,695 452,691 452,694 454,694 454,689 454,694 456,694 457,671 447,669 445,666 446,660 460,660 463,662 475,662 494,665 497,664 497,659 547,663 547,661 540,660 544,660 544,658 549,657 551,654 554,654 555,657 553,662 553,699 555,700 558,656" stroke="rgb(0,0,0)" /><polygon points="385,396 383,395 382,397 383,398 385,396" stroke="rgb(0,0,0)" /><polygon points="374,550 371,550 374,550" stroke="rgb(0,0,0)" /><polygon points="369,663 366,661 361,663 369,663" stroke="rgb(0,0,0)" /><polygon points="362,242 342,241 341,240 345,239 344,238 323,238 323,241 329,242 321,242 319,245 318,243 317,249 315,251 317,253 319,248 325,249 325,247 327,248 327,250 347,249 347,247 349,246 350,248 353,248 360,246 360,243 362,242" stroke="rgb(0,0,0)" /><polygon points="326,200 324,200 326,200" stroke="rgb(0,0,0)" /><polygon points="364,621 358,619 325,620 319,623 322,624 323,626 332,625 338,627 352,627 352,625 354,625 356,628 359,628 362,625 360,622 364,621" stroke="rgb(0,0,0)" /><polygon points="321,549 319,549 321,549" stroke="rgb(0,0,0)" /><polygon points="321,280 319,280 321,280" stroke="rgb(0,0,0)" /><polygon points="558,656 558,653 556,651 540,649 440,649 436,651 429,649 378,648 378,688 370,689 369,688 373,688 376,686 374,684 373,685 366,682 357,683 353,685 352,683 342,684 336,687 308,691 304,694 303,702 304,703 306,700 322,701 324,699 322,697 324,696 325,699 329,696 332,699 336,699 338,693 341,691 343,694 342,698 344,700 346,699 347,695 349,699 358,699 359,696 361,699 365,701 374,702 378,706 379,701 376,698 376,695 376,691 378,691 378,699 380,701 379,703 382,706 385,701 384,696 386,699 388,695 389,697 391,690 403,690 405,688 391,686 390,684 388,685 389,681 387,677 389,673 387,671 386,662 384,662 384,665 383,661 384,659 390,659 402,662 441,665 443,667 443,674 441,680 443,688 429,690 443,692 444,695 442,697 444,700 445,697 446,699 445,710 447,711 450,709 450,698 452,695 452,691 452,694 454,694 454,689 454,694 456,694 457,671 447,669 445,666 446,660 460,660 463,662 475,662 494,665 497,664 497,659 547,663 547,661 540,660 544,660 544,658 549,657 551,654 554,654 555,657 553,662 553,699 555,700 558,656" stroke="rgb(0,0,0)" /><polygon points="268,381 266,381 268,381" stroke="rgb(0,0,0)" /><polygon points="262,244 260,244 262,244" stroke="rgb(0,0,0)" /><polygon points="270,98 269,95 245,95 245,97 229,96 229,98 227,99 227,103 230,105 231,108 240,108 243,106 238,104 242,104 244,106 267,106 269,104 268,100 270,98" stroke="rgb(0,0,0)" /><polygon points="261,149 237,149 241,151 261,149" stroke="rgb(0,0,0)" /><polygon points="225,243 221,238 219,239 222,245 225,243" stroke="rgb(0,0,0)" /><polygon points="215,510 213,510 215,510" stroke="rgb(0,0,0)" /><polygon points="448,301 447,299 446,300 448,295 447,294 444,296 444,292 430,302 424,301 424,304 422,304 422,298 428,300 439,293 427,292 426,298 423,295 419,297 416,296 410,298 409,297 413,297 416,295 414,291 416,291 415,289 417,287 417,278 415,278 415,276 412,275 412,273 416,271 416,268 407,266 392,267 389,266 389,264 366,263 358,267 339,268 321,268 321,266 304,266 302,268 250,267 246,269 262,270 262,272 279,272 294,274 280,275 276,278 277,279 275,279 274,277 239,278 236,276 206,276 205,281 207,285 208,283 207,287 214,288 214,286 219,286 221,288 228,289 242,289 243,288 241,286 239,287 236,285 245,285 245,282 248,280 250,283 248,282 247,285 244,286 244,289 257,287 260,289 268,289 271,285 271,289 273,287 279,289 281,286 281,289 284,289 286,287 287,289 291,289 292,287 295,288 297,285 298,288 305,289 302,289 302,291 306,291 310,286 311,276 306,274 309,273 308,272 300,271 319,270 319,272 342,272 353,274 338,274 338,276 335,276 332,279 331,277 325,277 323,279 324,282 321,286 322,290 324,289 324,286 325,289 329,289 330,287 331,290 333,289 333,287 338,288 338,290 343,288 344,289 340,292 335,293 315,293 314,294 317,295 317,297 310,297 310,295 306,295 306,293 258,293 257,294 260,295 259,296 255,296 256,295 254,293 248,293 245,295 246,296 240,297 222,297 220,295 208,295 206,292 199,292 196,296 201,300 198,300 196,298 194,302 192,291 191,290 189,292 190,286 197,287 201,284 201,281 196,280 195,278 192,279 190,272 191,271 192,273 196,271 197,273 200,273 200,271 202,270 204,270 204,272 209,272 212,269 203,267 195,269 193,267 195,266 192,264 192,262 197,257 195,253 190,256 173,256 169,260 170,264 173,266 174,273 171,273 169,269 165,270 169,272 168,281 170,283 167,287 169,296 165,303 166,307 164,309 166,311 166,319 168,324 167,326 165,326 168,331 165,332 170,335 170,337 173,337 173,333 176,332 173,328 176,325 180,324 179,319 181,317 179,316 181,314 184,315 184,318 191,317 192,319 193,316 195,319 195,321 193,322 197,323 200,321 199,311 201,308 232,308 249,310 300,310 301,308 302,310 305,310 306,308 307,310 322,310 344,307 354,308 360,306 352,310 356,311 354,313 346,313 342,315 334,314 327,316 306,315 306,317 302,319 301,316 296,316 295,318 291,316 289,319 287,315 250,316 241,315 247,314 247,312 228,311 223,311 223,313 225,313 222,315 218,314 221,312 220,311 207,311 203,317 204,311 201,310 200,317 202,325 200,327 203,328 207,323 205,327 206,330 210,326 213,326 215,328 226,328 230,327 231,325 233,327 236,323 235,327 236,328 238,326 237,327 239,329 242,327 244,327 245,329 254,329 254,327 256,327 255,328 258,329 260,326 259,324 262,329 263,326 268,327 268,329 291,329 291,325 295,325 296,320 298,328 301,329 302,327 310,327 313,319 314,326 322,326 326,321 331,324 334,322 338,325 345,321 346,325 341,328 342,330 346,327 353,330 362,330 364,327 368,326 364,325 362,322 363,315 359,313 363,313 363,311 394,311 395,314 393,315 393,325 395,328 406,326 412,327 412,325 416,327 417,324 415,320 416,315 414,314 414,309 418,304 425,309 429,307 430,309 434,308 440,310 441,308 444,312 446,310 448,301" stroke="rgb(0,0,0)" /><polygon points="287,553 278,545 269,545 269,550 267,547 266,549 263,547 258,548 253,545 242,545 241,543 217,542 217,544 227,544 214,545 213,547 216,550 213,548 209,548 209,552 207,553 208,555 213,556 205,557 217,558 218,557 215,556 216,555 225,554 265,556 265,552 267,555 271,554 271,556 279,555 280,557 284,557 287,553" stroke="rgb(0,0,0)" /><polygon points="211,475 209,474 208,476 209,477 211,475" stroke="rgb(0,0,0)" /><polygon points="209,384 207,384 209,384" stroke="rgb(0,0,0)" /><polygon points="204,202 202,202 204,202" stroke="rgb(0,0,0)" /><polygon points="189,155 183,155 187,157 189,155" stroke="rgb(0,0,0)" /></svg>