<?xml version="1.0" encoding="utf-8" ?>
<svg baseProfile="full" height="100%" version="1.1" width="100%" xmlns="http://www.w3.org/2000/svg" xmlns:ev="http://www.w3.org/2001/xml-events" xmlns:xlink="http://www.w3.org/1999/xlink"><defs /><polygon points="690,354 689,352 688,354 690,354" stroke="rgb(0,0,0)" /><polygon points="686,661 671,659 645,659 640,661 631,661 608,658 595,659 572,657 571,673 572,674 574,671 578,670 580,671 581,669 582,671 651,672 659,671 659,668 666,668 668,664 672,668 673,665 675,669 677,666 676,668 678,669 680,664 678,662 686,661" stroke="rgb(0,0,0)" /><polygon points="652,586 645,585 643,591 646,593 647,590 652,586" stroke="rgb(0,0,0)" /><polygon points="645,275 644,273 640,273 640,275 636,276 633,279 634,282 637,282 639,277 645,275" stroke="rgb(0,0,0)" /><polygon points="631,361 629,361 631,361" stroke="rgb(0,0,0)" /><polygon points="629,429 627,429 629,429" stroke="rgb(0,0,0)" /><polygon points="686,661 666,659 645,659 640,661 631,661 608,658 595,659 572,657 571,673 572,674 574,671 578,670 580,671 581,669 582,671 651,672 659,671 659,668 666,668 668,664 672,668 673,665 675,669 677,666 676,668 678,669 680,664 678,662 686,661" stroke="rgb(0,0,0)" /><polygon points="579,398 577,395 575,398 579,398" stroke="rgb(0,0,0)" /><polygon points="659,120 579,119 578,122 578,118 573,118 572,127 573,133 575,134 579,131 581,133 586,133 619,130 627,126 632,126 646,122 656,122 659,120" stroke="rgb(0,0,0)" /><polygon points="622,583 617,577 607,577 607,579 602,582 597,581 595,583 588,583 580,586 580,588 578,586 575,587 570,591 578,592 579,594 583,595 586,595 586,593 590,592 589,591 591,593 603,592 606,595 612,595 612,592 609,593 611,591 610,590 613,589 611,587 614,589 613,590 615,592 618,592 619,590 615,586 618,585 620,588 622,583" stroke="rgb(0,0,0)" /><polygon points="576,238 574,238 576,238" stroke="rgb(0,0,0)" /><polygon points="576,201 574,201 576,201" stroke="rgb(0,0,0)" /><polygon points="572,281 568,278 562,280 562,282 563,283 564,281 567,287 570,285 570,282 572,281" stroke="rgb(0,0,0)" /><polygon points="538,666 525,666 538,666" stroke="rgb(0,0,0)" /><polygon points="559,313 529,313 523,315 522,320 534,321 536,319 540,320 542,318 536,317 537,316 547,316 548,319 550,319 559,313" stroke="rgb(0,0,0)" /><polygon points="547,397 546,389 542,391 542,389 528,389 528,391 523,390 521,392 521,397 523,397 523,399 528,398 528,400 531,399 531,401 539,400 539,398 541,397 539,395 543,395 542,397 545,400 547,397" stroke="rgb(0,0,0)" /><polygon points="524,201 522,201 524,201" stroke="rgb(0,0,0)" /><polygon points="523,551 521,551 523,551" stroke="rgb(0,0,0)" /><polygon points="520,237 510,237 517,239 520,237" stroke="rgb(0,0,0)" /><polygon points="495,202 494,199 489,199 487,201 486,198 478,199 476,197 470,199 472,203 495,202" stroke="rgb(0,0,0)" /><polygon points="498,437 497,431 490,431 485,429 473,429 473,431 464,430 462,431 467,436 467,438 470,438 470,440 476,440 476,438 483,438 485,439 485,441 489,441 493,438 492,440 494,441 496,438 496,433 496,437 498,437" stroke="rgb(0,0,0)" /><polygon points="494,280 493,278 488,277 486,279 483,279 482,281 477,281 475,284 480,289 485,289 485,283 494,280" stroke="rgb(0,0,0)" /><polygon points="496,556 495,546 494,552 494,547 496,544 495,541 493,542 493,544 473,543 471,547 471,552 468,554 470,559 484,559 485,556 490,556 494,558 496,556" stroke="rgb(0,0,0)" /><polygon points="498,473 496,470 492,470 489,473 474,472 471,475 471,480 477,481 478,476 479,482 486,482 487,480 490,480 492,476 495,479 498,473" stroke="rgb(0,0,0)" /><polygon points="496,402 496,398 494,397 496,394 494,388 491,389 491,391 488,392 484,397 480,396 478,392 475,396 473,394 468,397 468,399 473,402 480,403 484,402 486,399 487,401 491,400 491,403 496,402" stroke="rgb(0,0,0)" /><polygon points="496,243 495,237 492,235 486,235 481,239 477,236 470,241 474,245 472,247 473,251 480,251 481,249 478,248 483,244 489,245 496,243" stroke="rgb(0,0,0)" /><polygon points="558,132 558,119 556,111 557,99 552,93 526,94 523,97 512,97 505,95 483,93 459,93 458,95 448,94 447,95 450,99 449,101 454,104 452,105 453,108 459,109 473,107 477,110 484,110 485,112 492,114 493,112 491,111 491,109 487,107 495,106 493,105 494,99 493,103 494,104 496,101 497,106 514,106 515,109 512,112 514,109 513,107 498,108 497,109 499,110 501,116 507,113 509,114 502,118 499,117 497,119 478,119 473,121 456,120 449,114 447,116 446,114 445,117 441,119 438,116 439,113 436,111 435,117 438,120 438,123 436,124 440,126 442,125 440,127 441,135 438,129 435,129 431,132 433,133 432,140 434,144 440,144 440,142 447,142 451,144 528,143 528,141 539,141 542,138 540,129 540,126 542,125 549,125 550,129 551,127 550,131 552,133 553,131 557,133 558,132" stroke="rgb(0,0,0)" /><polygon points="443,437 442,430 441,433 440,431 401,431 401,429 393,431 376,432 378,433 376,436 378,436 380,439 383,439 380,441 384,443 405,443 406,442 403,441 404,440 420,441 425,439 430,440 431,442 439,442 439,440 441,440 443,437" stroke="rgb(0,0,0)" /><polygon points="431,398 429,398 431,398" stroke="rgb(0,0,0)" /><polygon points="448,364 446,363 448,361 447,352 445,351 443,353 434,352 432,356 429,353 423,354 423,357 421,358 421,362 419,365 422,366 425,362 425,366 428,363 428,365 448,364" stroke="rgb(0,0,0)" /><polygon points="460,594 459,590 452,590 448,587 438,584 417,582 414,586 417,587 416,589 418,597 420,596 420,590 423,593 427,593 429,596 443,596 446,593 452,593 454,595 460,594" stroke="rgb(0,0,0)" /><polygon points="442,517 440,512 431,514 438,508 431,506 425,508 422,512 423,515 422,513 421,515 420,514 418,516 418,519 421,521 423,518 427,518 430,522 434,518 442,517" stroke="rgb(0,0,0)" /><polygon points="416,469 415,465 410,466 411,468 415,470 416,469" stroke="rgb(0,0,0)" /><polygon points="388,399 387,397 383,398 379,396 368,396 367,402 372,402 373,404 384,403 388,399" stroke="rgb(0,0,0)" /><polygon points="364,621 358,619 325,620 319,623 331,627 332,625 338,627 352,627 352,625 354,625 356,628 359,628 362,625 360,622 364,621" stroke="rgb(0,0,0)" /><polygon points="332,441 332,438 329,436 331,435 330,434 319,434 322,435 322,439 325,438 325,440 329,442 332,441" stroke="rgb(0,0,0)" /><polygon points="296,397 294,393 290,394 285,392 280,392 280,394 278,395 285,397 275,397 278,395 276,392 261,392 259,395 256,394 256,392 247,391 243,391 240,393 239,389 234,393 234,396 236,398 246,401 290,399 296,397" stroke="rgb(0,0,0)" /></svg>