<?xml version="1.0" encoding="utf-8" ?>
<svg baseProfile="full" height="100%" version="1.1" width="100%" xmlns="http://www.w3.org/2000/svg" xmlns:ev="http://www.w3.org/2001/xml-events" xmlns:xlink="http://www.w3.org/1999/xlink"><defs /><polygon points="777,428 775,407 774,406 772,410 766,408 771,407 770,400 763,400 762,401 765,402 765,405 760,407 755,406 764,404 759,403 758,401 756,404 754,404 756,401 752,400 756,399 756,397 765,397 768,395 767,393 764,395 759,395 757,393 758,392 754,391 752,388 757,383 764,384 766,382 768,384 763,385 763,388 768,388 770,386 771,378 769,374 771,374 772,371 772,361 770,360 768,362 770,360 769,356 771,355 772,350 770,344 772,344 772,342 766,344 729,344 729,346 725,347 740,348 720,351 705,356 693,367 691,370 691,374 690,370 693,364 699,358 708,352 718,349 706,349 695,353 688,359 685,364 687,368 683,383 685,397 682,402 684,393 680,389 683,382 685,370 683,364 686,358 698,349 716,345 704,343 687,344 676,347 672,356 674,373 674,443 673,446 672,445 673,417 671,415 671,389 673,369 671,356 673,354 674,347 680,344 690,342 726,342 727,338 724,336 724,313 722,313 722,316 723,309 721,307 716,308 716,306 711,306 702,310 683,311 682,313 678,315 677,314 675,316 674,324 690,325 673,326 673,314 675,311 669,309 700,308 713,304 710,303 711,302 708,301 709,300 696,287 682,291 674,291 659,294 659,290 665,289 665,291 669,291 679,288 677,286 676,287 677,286 671,280 669,281 670,279 661,270 659,270 659,272 653,274 653,288 641,291 635,291 632,289 624,290 623,288 606,305 609,308 621,306 629,308 656,310 642,311 626,310 622,308 601,310 598,313 600,315 589,326 592,328 600,329 606,328 606,330 611,330 615,332 591,330 588,333 596,341 592,345 600,347 602,350 600,348 592,348 590,350 588,349 584,353 587,356 589,356 590,359 597,366 599,364 598,354 601,356 601,368 598,369 593,366 578,368 562,375 552,385 557,388 562,386 563,390 557,400 555,400 561,390 549,388 536,401 538,403 545,405 548,405 549,404 546,402 548,402 554,406 557,409 558,413 558,415 555,418 556,411 554,408 553,411 547,407 537,406 524,419 531,426 550,424 560,417 574,424 598,428 599,424 603,422 605,424 605,427 601,430 600,438 605,438 605,444 601,446 599,443 573,445 519,444 518,441 535,442 537,440 526,429 510,429 510,431 515,431 517,434 504,433 500,437 499,444 492,445 485,452 500,467 503,468 511,460 503,454 510,457 512,456 510,454 512,454 519,461 535,462 558,467 559,468 544,467 519,463 518,464 520,467 520,473 516,482 517,483 525,483 532,481 547,481 549,483 547,486 547,483 533,483 516,485 514,487 529,504 533,502 539,504 545,501 549,502 551,507 550,512 548,513 549,508 547,506 539,514 548,522 557,523 578,521 593,506 579,504 573,501 570,502 571,500 567,498 565,495 565,491 568,485 567,482 570,478 570,470 563,464 567,465 572,469 573,467 593,463 606,457 606,465 602,468 601,472 597,477 601,479 605,478 608,480 604,481 610,483 572,482 566,490 566,494 569,497 576,500 592,502 601,505 601,516 596,520 588,522 564,525 544,524 542,526 555,539 559,540 618,539 618,541 599,541 599,543 614,543 612,545 600,544 599,545 601,555 599,557 578,562 590,574 605,570 603,572 593,574 593,577 612,573 617,574 620,571 623,571 624,572 620,572 617,575 608,576 596,580 614,598 647,597 652,594 653,588 652,598 624,600 618,602 633,617 684,615 696,617 698,615 697,604 698,612 700,612 701,582 699,582 699,585 701,577 701,564 699,560 700,552 698,547 700,538 699,508 701,503 699,493 701,480 699,475 702,463 703,470 701,477 703,483 701,493 703,496 703,504 701,531 702,557 704,560 704,572 702,580 702,615 704,619 704,643 702,646 704,642 702,639 693,639 691,641 671,639 663,647 672,656 698,655 704,650 706,651 705,669 707,671 713,672 713,594 710,562 712,489 716,459 720,457 720,460 723,462 727,450 721,448 704,449 675,446 724,446 734,448 764,447 767,445 763,442 758,441 744,443 725,443 723,440 727,439 720,436 724,436 727,434 728,429 732,427 729,424 730,422 733,423 733,426 735,425 735,418 735,422 737,422 737,404 735,404 735,406 737,400 736,396 738,375 736,375 738,370 737,363 739,356 747,357 747,387 749,410 748,430 752,430 755,432 757,431 758,434 766,436 768,436 770,433 771,436 771,423 773,422 772,424 775,426 776,429 777,428" stroke="rgb(0,0,0)" /><polygon points="704,673 702,672 702,657 701,659 694,658 692,660 663,658 631,660 606,657 570,657 570,669 572,676 576,672 600,671 643,673 656,671 679,671 694,672 698,674 704,673" stroke="rgb(0,0,0)" /><polygon points="748,444 746,442 725,443 723,440 727,439 720,436 726,435 728,429 731,427 687,383 683,385 685,397 682,402 684,393 680,389 683,379 675,371 673,379 673,446 673,417 671,415 671,389 673,377 670,374 666,378 666,381 665,379 663,381 664,405 662,407 662,433 663,455 666,458 678,458 669,460 663,459 661,453 662,339 638,339 638,337 621,337 620,336 622,335 618,331 613,332 599,346 602,350 600,348 597,348 592,353 597,358 598,354 601,356 601,368 598,369 596,367 590,366 576,369 560,385 562,386 563,390 557,400 555,400 558,395 555,392 553,392 544,401 550,403 555,407 557,409 558,415 554,418 556,415 555,409 553,409 553,411 547,407 544,407 532,419 538,425 546,425 550,424 560,417 574,424 598,428 599,424 603,422 605,424 605,427 601,430 600,438 605,438 606,441 604,445 601,446 599,443 573,445 519,444 518,441 527,442 529,440 518,429 516,431 517,434 512,433 482,463 502,467 503,473 499,480 494,483 486,485 459,485 443,501 445,503 481,503 493,505 500,509 500,520 498,519 497,522 495,520 473,520 472,523 469,524 466,521 467,515 465,513 448,511 446,513 445,523 433,523 431,525 426,523 423,525 420,524 410,534 415,538 427,541 442,541 447,543 446,556 455,558 445,558 446,546 444,544 429,559 430,560 457,561 469,559 495,559 497,545 493,541 482,543 468,543 467,553 466,543 467,541 489,541 497,538 495,540 498,542 498,552 496,558 498,560 431,563 452,584 456,584 458,588 462,586 459,585 460,577 483,579 496,584 499,593 498,605 487,611 485,607 480,612 486,617 494,615 503,610 502,614 488,620 501,632 510,631 521,620 519,618 514,619 513,617 508,617 506,614 516,603 517,604 515,608 510,611 508,613 509,614 535,616 547,604 546,602 540,600 527,599 521,596 522,593 530,597 543,598 546,600 549,599 547,595 547,586 549,579 551,577 550,575 544,580 539,587 527,580 515,578 511,573 519,577 526,577 539,584 546,575 565,563 569,557 574,557 580,553 578,551 564,552 557,555 534,560 526,565 523,565 519,562 515,554 516,546 521,541 533,539 619,540 599,541 599,543 614,543 612,545 600,544 599,545 601,555 599,557 573,563 556,573 550,582 548,592 552,599 564,603 566,609 568,608 575,613 589,617 591,617 592,615 601,617 658,617 684,615 696,617 698,615 697,604 698,612 700,612 701,586 700,581 699,585 701,577 701,564 699,560 700,552 698,547 700,538 699,508 701,503 699,493 701,480 699,475 702,463 703,470 701,477 703,483 701,493 703,496 703,504 701,531 702,557 704,560 704,572 702,580 702,602 705,605 713,597 710,552 712,524 712,489 714,469 716,459 720,457 720,460 723,462 727,450 721,448 704,449 675,446 724,446 734,448 745,447 748,444" stroke="rgb(0,0,0)" /><polygon points="727,341 727,338 724,336 724,313 722,313 722,316 723,309 721,307 716,308 716,306 711,306 702,310 683,311 682,313 678,315 677,314 675,316 674,324 690,325 672,325 673,314 675,311 669,309 700,308 707,305 712,305 712,303 717,303 711,301 717,299 716,297 711,295 715,294 715,292 712,291 712,282 691,289 659,294 659,290 665,289 665,291 669,291 703,283 710,280 711,277 719,273 719,270 716,268 684,271 671,274 681,269 709,267 716,265 712,263 706,263 682,257 678,255 672,248 672,242 677,235 696,229 705,229 706,226 703,224 683,226 670,226 661,224 609,224 609,226 635,230 648,230 658,234 654,235 655,236 653,248 648,252 614,255 613,253 624,252 623,235 621,234 624,231 620,228 608,228 609,227 605,226 605,224 438,226 438,231 444,234 448,239 448,248 444,251 435,254 429,254 427,252 425,256 422,256 419,253 419,247 417,251 418,246 416,242 417,240 420,240 422,244 423,240 423,243 426,244 429,241 429,232 427,232 427,234 428,231 423,226 409,226 406,227 395,238 395,242 394,239 387,246 390,249 393,247 391,250 384,254 382,251 336,297 369,330 393,330 371,332 388,349 394,349 390,351 398,359 399,355 402,353 399,357 399,360 411,372 415,368 412,362 412,356 415,352 423,348 446,347 450,344 452,346 455,345 485,348 499,354 501,356 501,361 498,367 483,368 478,372 492,386 501,383 495,387 499,387 498,392 516,410 523,403 518,399 517,396 518,391 522,387 555,386 558,388 562,386 562,388 559,390 556,390 554,388 532,388 522,390 520,392 520,397 522,399 545,405 548,405 549,404 546,402 548,402 557,409 558,413 558,415 554,418 556,415 556,411 554,408 553,411 547,407 538,406 525,419 532,426 550,424 560,417 574,424 598,428 599,424 603,422 605,424 605,427 601,430 600,438 605,438 606,441 604,445 601,446 599,443 586,443 573,445 555,445 553,447 573,467 593,463 606,457 606,465 602,468 601,472 597,477 601,479 605,478 608,480 604,481 610,483 619,483 624,481 634,482 641,474 635,472 640,470 635,469 628,472 624,472 623,469 629,465 640,464 648,461 650,463 649,467 651,469 655,465 657,467 658,465 660,466 666,460 662,458 661,453 662,339 638,339 638,337 620,336 648,335 652,333 654,329 654,334 655,332 658,333 659,331 665,332 661,335 664,338 664,366 665,344 666,353 666,366 663,370 664,405 662,407 662,433 663,448 669,454 677,448 675,447 676,445 674,443 673,446 672,445 673,417 671,415 671,389 673,379 671,356 673,354 674,347 680,344 690,342 727,341" stroke="rgb(0,0,0)" /><polygon points="727,450 721,448 688,448 682,453 708,455 679,456 681,458 714,458 706,460 679,458 666,460 662,458 662,339 638,339 638,337 620,336 648,335 652,333 654,329 654,334 655,332 658,333 659,331 665,332 661,335 664,338 663,348 665,348 665,344 665,350 671,356 673,354 674,347 680,344 690,342 727,341 727,338 724,336 724,313 722,313 722,316 723,309 721,307 716,308 716,306 711,306 702,310 683,311 682,313 678,315 677,314 675,316 674,324 690,325 672,325 673,314 675,311 669,309 700,308 707,305 712,305 712,303 717,303 711,301 717,299 716,297 711,295 715,294 715,292 712,291 712,282 691,289 659,294 659,290 665,289 665,291 669,291 703,283 710,280 711,277 714,275 708,269 684,271 671,274 681,269 690,269 705,266 700,261 696,261 681,256 679,258 680,259 687,261 674,261 682,263 650,263 646,267 648,269 669,269 654,270 654,272 656,272 653,274 654,287 651,289 641,291 624,289 631,286 634,289 651,287 653,282 652,279 650,278 652,273 651,271 628,274 626,276 627,277 625,279 624,277 622,280 621,291 619,286 621,277 625,273 644,269 629,254 623,254 620,257 623,258 622,259 613,260 621,261 620,262 598,263 592,269 603,272 590,273 597,276 603,281 603,287 600,290 591,289 580,292 573,292 568,297 570,298 565,300 568,301 563,302 558,307 562,310 571,310 576,308 582,308 585,310 621,306 629,308 656,310 642,311 612,308 588,312 525,311 521,315 520,325 520,309 513,306 524,309 528,305 527,304 530,303 527,300 525,300 525,298 522,295 520,295 516,289 514,291 515,292 478,291 466,303 473,307 501,312 503,315 502,324 492,329 451,332 456,331 458,329 449,321 443,330 438,331 434,335 437,338 451,336 477,336 517,336 535,338 517,338 517,340 504,341 473,340 482,340 482,338 449,338 429,340 425,344 428,347 448,347 455,345 485,348 499,354 501,356 501,361 498,367 475,369 471,372 464,373 458,378 449,378 453,377 454,376 452,375 458,372 456,367 459,375 462,372 461,370 468,368 470,364 470,360 465,354 461,352 450,352 449,362 452,368 446,370 427,370 414,367 406,375 407,376 404,377 420,379 404,379 399,382 412,395 415,391 422,388 449,386 448,388 450,393 448,403 451,404 452,400 452,405 443,408 429,408 424,413 428,417 426,419 433,426 465,425 495,427 536,426 550,424 560,417 574,424 598,428 599,424 603,422 605,424 605,427 601,430 600,438 605,438 606,441 605,444 601,446 599,443 573,445 528,445 518,443 518,441 548,443 548,441 543,441 571,440 572,439 555,423 549,427 544,428 503,429 503,431 515,431 517,434 501,432 498,445 464,442 461,440 454,447 459,452 469,452 470,453 461,454 469,455 464,457 471,464 492,464 502,467 503,473 500,479 494,483 498,487 497,488 502,492 501,494 517,510 519,505 521,504 529,504 533,502 539,504 545,501 549,502 551,507 549,513 549,507 547,504 541,506 533,505 528,507 522,513 525,516 530,518 534,517 541,521 557,523 579,521 593,518 597,516 600,511 599,507 595,505 579,504 573,501 570,502 571,500 567,498 565,495 565,491 568,485 567,482 570,478 570,470 563,464 567,465 572,469 573,467 593,463 606,457 606,465 602,468 601,472 597,477 601,479 605,478 608,480 604,481 610,483 580,482 577,485 595,503 601,505 602,510 632,540 649,540 634,542 650,558 658,558 686,530 685,529 688,528 700,516 699,508 701,499 699,489 701,480 699,475 702,463 702,510 704,512 712,504 713,477 716,459 720,457 720,460 723,462 727,450" stroke="rgb(0,0,0)" /><polygon points="651,439 649,408 647,411 644,411 631,418 624,427 623,434 626,438 630,440 640,442 641,432 643,432 646,440 648,434 648,440 649,441 651,439" stroke="rgb(0,0,0)" /><polygon points="704,673 702,672 702,657 701,659 694,658 692,660 663,658 631,660 606,657 570,657 570,669 572,676 576,672 600,671 643,673 656,671 679,671 694,672 698,674 704,673" stroke="rgb(0,0,0)" /><polygon points="599,390 598,388 593,390 596,387 595,386 592,388 591,386 587,387 578,391 576,393 578,394 574,398 573,396 572,397 572,400 576,406 582,405 586,407 598,398 599,390" stroke="rgb(0,0,0)" /><polygon points="776,349 776,331 775,330 774,332 774,329 776,328 775,318 773,313 767,263 764,255 761,259 763,254 765,253 765,250 759,220 758,207 748,206 746,200 740,202 738,200 730,201 724,207 724,204 729,199 729,192 733,190 744,189 744,187 741,187 746,184 745,182 743,182 743,179 746,175 748,183 749,181 751,182 753,178 752,175 749,176 752,174 752,170 750,169 751,163 748,151 740,94 738,92 731,93 716,88 707,88 706,87 718,87 733,90 737,89 736,87 729,87 716,82 707,81 711,81 711,79 696,79 695,80 697,83 694,86 688,88 684,88 682,86 651,93 628,93 613,91 571,91 570,92 572,110 576,106 581,105 617,105 626,106 661,115 670,115 669,118 666,119 591,119 572,117 571,124 574,135 579,133 616,131 624,129 623,130 625,134 630,138 665,145 670,144 671,146 675,147 697,150 709,156 724,158 725,162 730,163 726,167 725,171 725,165 722,161 717,159 714,160 716,167 716,176 714,160 709,158 708,163 707,161 705,162 706,171 705,168 704,173 703,170 701,170 703,168 702,166 698,168 704,164 701,157 700,160 699,157 678,155 675,153 654,153 653,154 656,156 656,168 655,165 650,172 669,172 658,175 632,176 618,172 615,169 615,167 606,159 608,158 607,157 600,156 615,156 623,154 650,154 650,152 631,149 621,149 614,147 569,148 559,150 527,149 526,148 528,147 545,147 537,145 524,145 502,147 445,147 439,149 444,150 446,152 426,150 300,152 299,172 301,184 308,186 299,186 300,183 297,183 297,177 294,176 297,174 297,163 295,154 296,152 293,151 296,149 295,148 326,148 335,146 318,129 309,129 307,131 308,135 306,137 303,137 301,131 295,133 295,129 304,128 304,122 307,122 309,120 304,115 303,116 302,113 298,111 299,110 283,94 271,100 270,94 272,93 269,90 253,106 255,108 254,109 246,109 244,111 245,112 243,112 229,126 231,128 251,128 250,129 226,129 221,134 228,138 222,137 222,139 218,139 218,141 214,141 212,143 215,146 217,146 218,144 223,146 242,146 243,147 225,149 241,150 247,152 218,151 214,153 204,151 202,153 203,154 200,155 192,163 193,164 232,166 189,166 178,177 177,181 177,185 180,187 228,186 228,188 261,189 171,190 169,192 171,194 176,195 283,197 209,197 204,206 204,216 205,214 211,213 211,215 233,214 261,215 204,217 200,219 194,219 193,220 196,223 308,224 433,222 434,218 430,213 432,210 430,207 431,201 429,199 423,201 422,197 423,195 430,194 432,189 438,188 438,177 415,176 429,175 429,173 433,171 433,161 432,160 431,162 428,159 420,159 417,157 389,157 390,156 454,154 482,157 499,157 499,155 494,154 541,155 542,153 547,152 557,152 597,157 602,160 605,165 603,165 598,172 585,176 558,178 552,176 539,178 516,177 537,176 540,174 541,175 544,172 544,166 546,164 546,162 545,161 544,163 543,160 541,163 538,161 499,162 496,168 493,166 496,165 496,159 460,158 446,156 441,156 440,159 435,158 435,172 436,165 441,165 442,160 465,160 485,162 488,164 487,167 483,164 472,163 470,166 470,171 470,166 468,165 468,162 445,161 445,170 442,184 442,188 445,189 442,191 443,192 457,192 463,190 483,189 471,188 472,187 520,188 520,186 538,186 553,184 538,183 539,182 564,181 557,182 557,184 560,184 553,186 557,187 556,188 516,189 516,191 495,192 473,191 460,193 444,193 444,203 446,206 445,211 443,215 437,215 436,221 681,221 706,219 705,223 708,226 707,227 710,228 713,227 715,224 715,194 716,196 717,195 715,198 715,217 717,222 716,228 719,231 716,231 716,235 710,234 711,233 709,230 695,234 685,234 684,235 686,236 677,241 676,240 673,246 675,248 676,247 677,251 681,254 686,256 692,256 694,258 706,261 713,260 711,258 705,257 705,255 715,259 717,258 717,255 717,262 718,263 719,261 719,265 723,268 724,281 720,285 720,289 719,285 717,285 715,289 719,293 720,291 723,291 725,287 722,300 725,308 725,321 727,331 731,332 733,328 734,331 770,331 772,324 772,335 769,338 771,341 774,342 772,346 775,350 776,349" stroke="rgb(0,0,0)" /><polygon points="741,444 732,442 725,443 723,440 727,439 720,436 726,435 728,431 703,406 693,416 700,426 697,424 694,426 686,412 682,414 681,423 680,419 682,416 679,416 677,414 678,411 682,407 684,407 685,404 684,409 688,412 690,409 691,412 700,403 686,389 684,391 685,397 682,402 684,393 680,390 681,384 675,378 673,380 673,446 673,417 671,415 672,383 670,381 663,388 664,405 662,407 662,433 663,455 666,458 678,458 669,460 663,459 661,453 662,339 650,338 624,340 633,338 621,337 616,335 613,338 611,336 600,347 602,350 599,348 594,353 597,356 598,354 601,356 601,368 598,369 593,366 579,368 562,385 563,390 557,400 555,400 557,396 553,394 546,401 557,409 558,415 554,418 556,415 555,409 553,409 553,411 546,407 534,419 540,425 546,425 550,424 560,417 574,424 598,428 599,424 603,422 605,424 605,427 601,430 600,438 605,438 606,441 604,445 601,446 599,443 573,445 519,444 518,441 525,442 527,440 518,431 516,433 517,434 513,434 503,444 500,441 498,445 494,445 476,463 492,464 502,467 503,473 499,480 494,483 486,485 454,485 438,501 445,503 481,503 493,505 500,509 500,520 498,519 497,522 495,520 473,520 472,523 469,524 466,521 467,515 465,513 448,511 446,513 445,523 433,523 431,525 426,523 421,525 417,522 406,533 409,536 410,534 415,538 427,541 442,541 447,543 446,556 455,558 445,558 446,545 444,543 440,543 424,559 425,560 457,561 469,559 495,559 497,548 496,541 498,542 498,552 496,558 498,560 426,563 445,582 449,584 456,584 457,587 460,589 466,587 466,585 462,581 459,585 460,577 483,579 496,584 499,593 498,605 486,611 490,607 485,602 475,612 479,614 478,615 480,617 486,617 494,615 503,610 502,614 490,619 486,619 484,621 496,633 504,631 516,631 527,620 525,618 514,619 513,617 507,616 507,612 516,603 517,604 515,608 510,611 508,613 509,614 539,617 552,605 550,603 540,600 527,599 521,595 522,593 530,597 543,598 548,600 549,598 547,595 547,586 549,579 554,574 553,573 546,578 539,587 527,580 515,578 511,573 519,577 526,577 539,584 546,575 565,563 569,557 574,557 578,554 585,553 582,550 564,552 557,555 534,560 526,565 523,565 519,562 515,554 516,546 521,541 533,539 619,540 599,541 599,543 614,543 612,545 600,544 599,545 601,555 599,557 573,563 556,573 550,582 548,592 552,599 564,603 566,609 568,608 575,613 589,617 591,617 592,615 601,617 658,617 684,615 696,617 698,615 697,604 698,612 700,612 701,586 700,581 699,585 701,577 701,564 699,560 700,552 698,547 700,538 699,508 701,503 699,493 701,480 699,475 702,463 703,470 701,477 703,483 701,493 703,496 703,504 701,531 702,557 704,560 702,592 705,598 712,591 710,552 712,524 712,489 714,469 716,459 720,457 720,460 723,462 727,450 721,448 704,449 675,446 724,446 734,448 738,447 741,444" stroke="rgb(0,0,0)" /><polygon points="576,238 574,238 576,238" stroke="rgb(0,0,0)" /><polygon points="625,195 576,195 575,196 577,197 577,199 574,199 574,210 623,211 623,199 625,195" stroke="rgb(0,0,0)" /><polygon points="727,341 727,338 724,336 724,313 722,313 722,316 723,309 721,307 716,308 716,306 711,306 702,310 683,311 682,313 678,315 677,314 675,316 674,324 690,325 672,325 673,314 675,311 669,309 700,308 707,305 712,305 712,303 717,303 711,301 717,299 716,297 711,295 715,294 715,292 712,291 712,282 691,289 659,294 659,290 665,289 665,291 669,291 703,283 710,280 711,277 719,273 719,270 716,268 684,271 671,274 681,269 709,267 716,265 712,263 706,263 682,257 678,255 672,248 672,242 677,235 696,229 705,229 706,226 703,224 683,226 670,226 661,224 609,224 609,226 635,230 648,230 658,234 654,235 655,236 653,248 648,252 614,255 613,253 624,252 623,235 621,234 624,231 620,228 608,228 609,227 605,226 605,224 502,225 500,227 501,228 515,228 551,232 554,233 559,238 552,234 525,232 525,251 528,249 526,239 527,236 527,242 530,250 531,247 533,251 542,250 545,246 546,241 546,251 538,253 529,252 522,256 514,257 504,257 513,255 503,254 515,253 515,251 476,254 470,253 464,255 470,251 466,241 470,236 467,235 463,238 461,237 458,239 469,232 479,231 474,226 469,225 438,226 438,231 444,234 448,239 448,248 444,251 435,254 429,254 427,252 425,256 422,256 419,253 419,247 417,251 418,246 416,242 417,240 420,240 422,244 423,240 424,244 427,243 430,237 429,232 434,232 434,228 432,226 355,227 353,229 354,230 366,230 369,232 379,231 388,233 395,238 395,242 395,240 389,235 378,234 375,236 378,241 378,244 371,251 372,253 375,253 378,250 381,240 381,244 378,250 380,251 380,253 378,254 363,256 361,251 354,253 328,254 322,260 324,262 320,262 318,264 319,265 317,265 311,271 329,273 317,274 310,272 292,290 294,292 297,292 289,293 285,297 299,311 330,310 321,312 301,313 319,314 304,316 317,329 339,330 322,330 320,332 326,338 361,338 328,340 337,349 347,350 348,351 340,352 356,368 389,367 397,361 399,355 402,353 399,357 398,364 394,367 389,369 360,370 359,371 366,378 368,376 406,375 407,376 403,377 413,379 427,379 426,380 434,388 448,386 454,380 465,391 469,387 466,392 469,395 470,394 469,395 472,398 480,392 474,391 475,390 490,387 501,383 495,387 499,387 499,404 495,406 482,407 502,427 514,416 516,418 530,404 522,402 518,399 518,391 522,387 555,386 558,388 562,386 563,390 559,395 564,400 579,385 567,373 558,377 547,379 561,375 576,366 588,366 590,363 587,361 587,356 590,357 590,359 588,360 592,364 597,366 599,365 598,354 601,356 601,368 598,369 596,367 590,366 585,368 578,368 569,373 582,386 600,380 595,384 596,387 601,386 600,399 598,402 602,406 606,403 611,408 631,388 624,385 623,382 632,386 637,382 628,373 624,377 627,381 623,379 619,374 619,369 622,362 622,354 624,351 633,346 651,344 653,346 651,364 652,373 654,375 662,367 661,338 638,339 638,337 620,336 648,335 652,333 654,329 654,334 655,332 658,333 659,331 665,332 661,335 664,338 663,350 665,350 665,344 665,352 670,357 673,354 674,347 680,344 690,342 727,341" stroke="rgb(0,0,0)" /><polygon points="577,645 561,645 549,649 427,649 378,647 376,649 377,675 375,678 336,685 340,682 357,678 351,676 367,674 375,671 375,668 370,665 373,664 373,662 342,661 374,660 374,648 351,647 337,643 369,646 375,645 376,642 370,639 360,638 322,639 312,637 307,635 303,631 304,622 311,617 321,615 323,618 331,616 448,616 455,618 479,618 494,615 503,610 502,614 490,619 475,621 456,620 454,622 464,623 457,625 465,633 499,633 504,631 522,631 527,633 539,633 539,631 535,630 546,630 551,625 542,624 538,622 555,621 526,618 514,619 513,617 508,617 506,614 507,612 517,603 515,608 508,613 509,614 545,617 554,608 554,606 550,603 540,600 527,599 521,596 522,593 530,597 544,598 547,595 547,589 542,584 539,587 527,580 517,579 514,577 511,573 519,577 525,577 530,572 512,554 511,555 512,554 501,543 498,546 496,558 498,560 481,561 476,566 469,561 444,562 427,579 442,581 449,584 456,584 457,587 460,589 454,586 446,586 443,584 424,582 414,592 414,596 416,598 433,596 478,597 480,595 481,600 474,599 471,602 468,602 466,599 426,599 414,601 411,592 406,592 404,598 401,600 349,598 314,600 303,602 293,599 197,598 195,597 197,595 196,594 199,593 243,593 231,595 295,599 298,599 298,597 302,597 305,594 302,591 280,593 288,590 301,589 302,587 295,580 273,581 278,579 292,578 276,561 200,560 199,552 204,546 208,546 201,552 201,558 223,559 233,558 247,543 199,541 211,538 241,540 244,537 230,523 199,522 198,521 225,520 201,519 207,517 221,516 216,511 214,511 215,510 210,505 204,507 201,510 205,511 201,513 199,511 200,508 208,503 197,492 189,500 186,497 182,497 170,508 168,533 173,535 177,531 180,531 180,535 177,538 172,539 168,544 169,553 165,568 167,573 165,575 165,580 165,573 163,573 163,586 159,598 160,599 162,597 167,597 159,604 160,605 172,605 175,607 193,607 197,604 214,604 274,608 297,608 304,604 309,604 302,607 302,609 307,608 299,613 299,619 301,621 298,622 299,639 302,642 309,645 339,649 350,652 330,651 317,648 308,649 307,647 300,645 297,640 297,619 295,615 297,614 297,610 275,611 267,609 243,609 224,607 197,607 195,609 175,609 169,613 173,617 205,615 202,617 183,617 172,619 174,648 177,640 177,635 174,656 176,666 177,662 180,661 183,654 183,657 177,665 179,668 224,666 238,667 248,665 259,666 300,661 300,672 298,664 266,668 221,668 205,670 175,669 175,671 186,672 181,672 181,674 189,674 177,676 177,678 257,678 286,681 289,675 291,679 297,676 302,679 304,677 304,680 302,681 295,678 285,684 260,681 173,681 173,686 169,686 167,681 163,681 163,689 168,694 168,698 165,702 165,708 169,724 379,724 380,723 377,718 378,717 376,715 355,716 330,714 376,713 376,711 342,710 376,709 383,707 385,702 392,700 441,700 443,703 445,701 444,710 449,711 451,709 452,697 452,710 457,709 458,705 460,709 547,708 547,706 542,705 505,706 504,702 506,700 511,699 552,699 558,702 559,701 556,699 557,659 558,657 561,659 562,657 556,650 562,647 577,645" stroke="rgb(0,0,0)" /><polygon points="727,341 727,338 724,336 724,313 722,313 722,316 723,309 721,307 716,308 716,306 711,306 702,310 683,311 682,313 678,315 677,314 675,316 674,324 690,325 672,325 673,314 675,311 669,309 700,308 707,305 712,305 712,303 717,303 711,301 716,300 717,298 711,295 715,294 713,292 712,293 713,292 705,284 691,289 659,294 659,290 665,289 665,291 669,291 689,287 692,285 680,273 671,274 676,272 676,269 654,270 654,272 656,272 653,274 654,287 651,289 641,291 624,289 631,286 634,289 651,287 653,281 644,272 628,274 626,276 627,277 625,279 624,277 622,280 621,291 619,286 621,277 627,272 643,269 628,254 624,254 621,257 623,258 622,259 614,260 621,261 620,262 573,263 569,267 570,269 589,269 603,272 590,273 597,276 603,281 604,285 600,290 591,289 580,292 554,294 553,293 571,291 572,278 569,276 550,276 548,272 533,272 524,267 522,268 522,265 505,266 520,265 520,263 484,265 428,264 427,268 445,276 447,278 447,283 439,291 429,291 417,294 416,275 419,272 417,268 419,261 465,261 467,259 450,242 446,250 435,254 429,254 427,252 425,256 422,256 419,253 419,247 417,251 418,246 416,242 417,240 420,240 422,244 423,240 424,244 427,243 430,237 429,232 434,232 434,228 432,226 396,226 389,233 395,238 395,242 395,240 391,236 387,235 381,241 378,250 380,251 380,253 366,256 362,260 363,261 361,261 359,263 360,264 358,264 319,303 326,310 330,310 325,311 323,313 324,314 322,314 308,328 335,329 339,331 315,330 305,331 303,333 308,338 312,338 310,340 315,345 325,346 327,348 333,349 347,350 348,351 325,349 323,351 323,353 338,368 389,367 397,361 399,355 402,353 399,357 398,364 389,369 343,369 341,371 357,387 375,387 381,381 372,379 384,378 367,377 368,376 404,375 407,376 404,376 404,378 420,379 409,379 407,381 416,390 422,388 449,386 448,388 450,393 448,403 451,404 452,400 452,405 446,407 440,413 443,416 451,415 450,418 449,416 446,419 452,425 495,427 536,426 550,424 560,417 574,424 598,428 599,424 603,422 605,424 605,427 601,430 600,438 605,438 606,441 604,445 601,446 599,443 586,443 577,444 574,447 590,463 593,463 606,457 606,465 602,468 600,473 606,479 608,479 641,446 640,444 631,443 624,440 621,437 621,429 623,424 631,416 638,414 646,409 647,403 644,402 628,404 613,411 622,404 619,403 622,401 647,401 648,396 648,400 650,400 649,392 644,390 633,389 624,385 623,383 638,388 646,388 647,387 645,385 636,380 632,374 634,374 638,379 648,386 649,390 650,389 651,378 649,347 645,349 640,347 628,351 624,355 624,362 621,368 621,374 627,381 623,379 619,374 619,369 622,362 622,354 630,347 643,344 651,344 653,346 651,364 651,430 654,433 661,426 662,339 638,339 638,337 620,336 648,335 652,333 654,329 654,334 655,332 658,333 659,331 667,333 703,332 682,333 681,334 689,342 727,341" stroke="rgb(0,0,0)" /><polygon points="727,450 721,448 696,448 691,453 692,454 708,455 687,457 714,458 706,460 679,458 666,460 662,458 662,339 638,339 638,337 620,336 648,335 652,333 654,329 654,334 655,332 658,333 659,331 667,333 703,332 696,334 698,336 701,335 700,336 706,342 720,342 725,337 725,327 724,318 719,313 718,315 719,313 714,308 712,308 712,306 702,310 689,310 683,311 678,315 677,314 675,316 675,325 690,325 673,326 673,314 675,311 669,309 700,308 710,304 707,303 707,301 704,301 705,300 702,299 703,298 693,288 688,289 684,293 682,291 674,291 659,294 659,290 665,289 665,291 669,291 679,288 677,286 676,287 677,286 671,280 669,281 670,279 661,270 653,274 653,288 635,291 632,289 624,290 625,288 623,286 622,290 621,291 620,289 604,305 607,308 621,306 629,308 656,310 642,311 612,308 588,312 525,311 521,315 520,325 520,309 513,306 526,309 530,305 529,304 532,303 529,300 525,300 527,298 523,294 520,295 520,291 516,287 513,290 515,292 476,291 464,303 481,309 495,310 501,312 503,315 502,324 496,328 451,332 457,330 458,331 460,329 450,319 443,330 434,332 397,332 399,330 396,327 379,344 382,349 378,349 375,352 389,366 394,364 399,358 399,355 402,353 399,357 398,364 389,369 354,369 341,382 347,388 392,388 396,390 398,393 395,398 395,401 391,405 379,409 340,409 330,419 337,426 340,427 465,425 517,427 546,425 550,424 560,417 574,424 598,428 599,424 603,422 605,424 605,427 601,430 600,438 605,438 606,441 605,444 601,446 599,443 573,445 528,445 518,443 518,441 548,443 548,441 543,441 564,441 573,439 557,423 555,423 549,427 544,428 503,429 503,431 515,431 517,434 501,432 498,445 464,442 461,439 453,447 458,452 469,452 470,453 460,454 469,455 463,457 470,464 492,464 502,467 503,473 500,479 494,484 497,487 497,489 500,492 502,492 500,494 517,511 519,505 521,504 529,504 533,502 539,504 547,501 549,502 551,507 549,513 549,507 547,504 541,506 533,505 527,507 521,513 530,518 534,517 541,521 557,523 579,521 593,518 597,516 600,511 599,507 595,505 579,504 573,501 570,502 571,500 567,498 565,495 565,491 568,485 567,482 570,478 570,470 563,464 567,465 572,469 573,467 593,463 606,457 606,465 602,468 601,472 597,477 601,479 605,478 608,480 604,481 610,483 588,482 585,485 621,521 627,515 624,513 625,512 630,513 631,508 635,511 641,505 624,502 638,502 649,504 650,514 646,519 633,522 630,520 629,517 623,523 640,540 649,540 642,542 654,554 683,525 683,520 684,519 685,523 699,509 701,503 699,493 701,480 699,475 702,463 703,470 701,477 703,483 701,493 703,496 703,503 704,504 712,496 713,477 716,459 720,457 720,460 723,462 727,450" stroke="rgb(0,0,0)" /><polygon points="524,201 522,201 524,201" stroke="rgb(0,0,0)" /><polygon points="700,552 698,547 700,538 700,517 688,505 682,505 680,507 684,508 680,512 681,516 678,516 681,519 678,519 676,517 675,513 677,507 678,506 679,508 681,506 678,503 685,502 654,471 653,477 651,479 645,479 639,483 610,483 613,482 623,472 623,469 625,467 630,465 639,456 607,424 601,430 600,438 605,438 606,441 605,444 601,446 599,443 573,445 528,445 518,443 518,441 548,443 548,441 543,441 564,441 595,437 590,431 583,430 587,430 587,428 576,427 565,422 561,422 559,420 553,425 544,428 503,429 503,431 515,431 517,434 501,432 498,445 464,442 462,440 477,440 497,443 498,431 500,430 499,429 450,427 449,428 451,430 456,431 447,431 446,444 400,445 394,451 397,453 413,452 419,453 419,455 469,455 468,456 389,456 383,462 385,464 407,467 408,468 400,467 398,469 410,481 416,475 416,470 420,471 424,467 407,463 492,464 503,468 503,473 499,480 494,483 486,485 368,485 366,488 365,486 364,488 364,486 361,484 344,501 360,517 363,516 364,504 368,504 369,506 373,502 375,502 377,507 380,506 376,511 373,506 371,510 374,512 375,519 376,513 377,518 381,518 379,524 375,525 372,522 368,526 366,526 363,517 362,521 360,522 339,522 332,527 346,541 361,541 362,537 363,540 364,539 364,533 366,540 391,540 408,549 415,550 415,544 408,540 405,536 397,532 394,527 393,521 398,531 409,537 410,534 415,538 427,541 442,541 447,543 446,556 455,558 445,558 446,545 444,543 431,543 419,540 415,541 417,547 416,552 406,551 389,542 371,542 359,544 348,543 346,545 350,549 364,545 362,547 363,554 368,559 415,559 457,561 469,559 495,559 497,541 498,552 496,558 498,560 471,562 375,562 364,560 360,548 352,551 328,551 326,556 327,557 337,558 333,559 333,561 336,561 342,565 344,564 340,560 347,563 353,567 358,568 361,571 362,576 366,576 377,581 411,585 412,579 418,578 442,581 449,584 456,584 457,587 460,589 454,586 446,586 443,584 421,581 416,581 412,587 379,584 371,582 367,579 360,578 359,572 356,569 351,568 350,573 356,576 359,580 361,588 359,588 357,579 349,573 347,568 340,566 326,580 341,584 342,587 347,591 359,590 360,592 344,593 342,589 340,593 339,586 331,585 322,594 325,597 360,596 402,598 404,591 405,592 406,590 414,590 415,598 433,596 478,597 480,595 481,600 474,599 471,602 468,602 466,599 426,599 414,601 412,593 406,592 404,598 401,600 351,598 338,599 324,612 329,617 448,616 455,618 479,618 494,615 503,610 503,613 496,617 475,621 458,621 442,619 338,619 336,621 343,628 360,629 362,631 351,630 349,632 357,634 367,634 365,636 366,637 370,636 371,631 373,629 379,628 363,628 363,625 366,624 380,626 384,628 384,631 382,628 379,629 381,631 381,635 399,635 399,633 386,633 387,624 394,622 464,623 457,625 424,624 418,626 405,624 390,625 388,627 390,631 430,630 437,632 412,632 408,633 408,635 454,635 459,633 499,633 504,631 522,631 527,633 540,632 535,630 556,631 557,626 554,624 538,623 554,622 554,620 538,620 526,618 514,619 513,617 508,617 506,614 517,603 515,608 508,613 509,614 549,618 565,617 566,616 561,612 555,610 554,606 550,603 540,600 527,599 521,596 522,593 530,597 543,598 548,600 549,598 547,595 547,586 549,579 554,574 552,573 546,578 539,587 527,580 515,578 511,573 519,577 526,577 539,584 546,575 565,563 569,557 574,557 578,554 587,554 577,558 580,559 598,555 600,550 598,544 599,543 614,543 612,545 599,545 601,550 601,555 599,558 608,567 611,567 610,569 615,574 617,574 620,571 627,572 635,564 649,578 654,578 655,579 651,580 665,594 684,575 685,569 689,568 692,564 689,558 686,560 672,559 671,551 672,550 673,558 685,559 689,556 695,564 699,560 700,552" stroke="rgb(0,0,0)" /><polygon points="522,240 521,233 511,233 511,235 498,235 499,241 522,240" stroke="rgb(0,0,0)" /><polygon points="505,198 471,197 468,204 473,213 492,212 496,210 496,199 505,198" stroke="rgb(0,0,0)" /><polygon points="703,461 701,459 678,458 666,460 662,458 661,392 654,385 651,388 651,436 653,441 652,444 641,445 631,443 624,440 621,437 621,429 623,424 631,416 638,414 646,409 647,403 644,402 628,404 613,411 622,404 619,403 622,401 647,401 648,396 649,401 650,393 644,390 636,390 624,385 623,382 638,388 642,388 645,386 636,380 632,374 634,374 636,377 640,373 628,361 621,368 621,374 627,381 620,376 619,369 622,362 622,353 617,348 612,351 616,347 607,338 599,346 602,350 600,348 597,348 592,353 597,358 598,354 601,356 601,368 598,369 596,367 590,366 576,369 560,385 562,386 563,390 557,400 555,400 558,395 555,392 553,392 544,401 550,403 555,407 557,409 558,415 554,418 556,415 555,409 553,409 553,411 547,407 544,407 532,419 538,425 546,425 550,424 560,417 574,424 598,428 599,424 603,422 605,424 605,427 601,430 600,438 605,438 606,441 605,444 601,446 599,443 573,445 528,445 518,443 518,441 548,443 548,441 543,441 564,441 594,438 599,436 594,432 583,430 590,430 590,428 576,427 565,422 561,422 559,420 553,425 544,428 503,429 503,431 515,431 517,434 501,432 498,445 464,442 462,440 477,440 497,443 498,431 500,430 499,429 450,427 449,428 451,430 456,431 447,431 447,441 446,444 443,445 389,445 361,447 364,445 364,440 366,441 367,445 368,443 441,443 445,441 446,429 316,427 314,428 311,426 357,427 391,425 375,409 338,409 312,407 311,397 309,395 305,395 304,428 305,429 306,427 306,435 304,429 303,435 306,437 308,444 311,444 311,429 313,444 342,444 345,445 344,446 310,446 308,448 303,448 298,451 283,451 270,453 246,452 212,454 223,465 254,465 265,463 280,463 304,459 302,461 295,463 281,465 271,465 264,467 228,468 227,469 232,474 268,472 288,468 307,467 272,474 234,476 238,480 246,479 271,481 243,481 243,483 360,483 360,481 346,481 360,480 363,478 363,468 359,466 365,465 357,463 358,462 383,463 404,466 408,468 366,465 364,471 373,473 373,480 374,481 375,479 375,483 388,483 388,481 415,481 417,471 416,470 420,471 417,472 416,478 418,483 482,483 496,479 499,476 501,470 496,467 490,466 437,467 420,466 407,463 492,464 502,467 503,473 500,479 494,483 486,485 368,485 366,488 365,486 364,488 362,484 339,484 334,489 362,517 364,504 368,504 369,506 373,502 375,502 377,507 380,506 376,511 373,506 371,508 371,510 374,512 374,518 376,518 376,513 377,518 381,518 381,521 378,525 373,524 371,526 385,540 391,540 395,542 401,536 395,529 393,521 398,531 409,537 410,534 415,538 427,541 442,541 447,543 446,556 455,558 445,558 446,545 444,543 431,543 422,541 417,546 417,551 412,551 405,558 406,559 457,561 469,559 495,559 497,541 498,552 496,558 498,560 494,561 408,563 424,579 442,581 449,584 456,584 457,587 460,589 453,586 449,590 455,596 471,597 476,595 478,597 480,595 481,600 474,599 471,602 469,601 457,612 463,618 486,617 494,615 503,610 502,614 490,619 468,621 467,622 478,633 499,633 504,631 522,631 530,633 539,624 538,622 542,621 541,620 526,618 514,619 513,617 508,617 506,614 517,603 515,608 508,613 509,614 546,617 554,609 554,606 552,604 540,600 527,599 521,595 522,593 530,597 543,598 548,600 549,598 547,595 547,586 549,579 554,574 552,573 546,578 539,587 527,580 515,578 511,573 519,577 526,577 539,584 546,575 565,563 569,557 574,557 578,554 584,553 581,550 564,552 557,555 534,560 526,565 523,565 519,562 515,554 516,546 519,542 533,539 623,540 637,526 624,513 622,513 622,511 603,492 593,502 601,505 602,514 598,519 593,521 564,525 554,525 543,524 537,521 531,521 519,515 519,505 526,503 529,504 533,502 539,504 545,501 549,502 550,504 551,508 549,513 549,507 547,504 541,506 523,506 520,508 520,512 530,518 534,517 541,521 557,523 589,519 599,514 600,509 598,506 579,504 573,501 570,502 571,500 567,498 565,495 565,491 568,485 567,482 570,478 570,470 563,464 567,465 572,469 573,467 593,463 606,457 606,465 602,468 601,472 597,477 601,479 605,478 608,480 604,481 610,483 619,483 624,481 637,482 642,478 639,476 641,474 640,473 635,472 644,471 644,477 645,478 647,475 646,477 648,478 651,475 651,472 646,470 652,470 653,477 651,479 645,479 639,483 630,485 654,509 681,482 678,479 677,481 672,479 673,463 680,464 674,466 674,471 683,480 703,461" stroke="rgb(0,0,0)" /><polygon points="722,327 704,309 684,311 675,320 674,323 675,325 690,325 689,326 672,325 673,314 675,311 669,309 700,308 707,305 712,305 712,303 717,303 711,301 717,299 716,297 711,295 715,294 715,292 712,291 712,282 691,289 659,294 659,290 665,289 665,291 669,291 703,283 710,280 711,277 719,273 719,270 716,268 684,271 671,274 681,269 709,267 716,265 712,263 706,263 682,257 673,250 672,242 675,237 679,234 692,230 687,225 670,226 661,224 638,224 634,228 635,230 648,230 658,234 654,235 655,236 653,248 648,252 614,255 613,253 624,252 623,235 621,234 624,231 620,228 609,227 608,228 612,231 608,232 612,233 611,234 599,234 599,232 579,232 577,234 581,235 574,240 575,247 579,250 600,249 595,252 572,252 567,250 575,249 572,245 572,240 575,235 573,233 568,234 563,240 563,243 563,238 567,233 562,228 556,234 559,238 554,236 545,245 546,251 539,252 533,257 536,260 623,258 613,260 621,261 620,262 609,263 554,263 528,264 524,266 527,268 534,268 536,270 556,271 563,273 554,273 554,275 574,275 575,286 587,275 584,273 558,269 556,267 541,266 557,266 559,268 569,268 577,270 589,269 603,272 590,273 597,276 603,281 604,285 600,290 591,289 580,292 561,294 553,293 571,291 571,277 552,275 550,276 548,272 533,272 524,267 522,268 522,265 505,266 520,265 520,263 484,265 428,264 427,268 445,276 447,278 447,283 439,291 429,291 417,294 416,275 419,272 417,265 421,260 489,261 515,258 504,257 512,255 503,254 508,253 508,251 476,254 470,253 464,255 470,251 466,241 470,236 467,235 463,238 461,237 458,239 469,232 487,232 488,231 483,226 438,226 438,231 444,234 448,239 448,248 444,251 435,254 429,254 427,252 425,256 422,256 419,253 419,247 417,251 418,246 416,242 417,240 420,240 422,244 423,240 424,244 427,243 430,237 429,232 434,232 434,228 432,226 347,226 344,229 345,230 366,230 369,232 379,231 388,233 395,238 395,242 395,240 389,235 378,234 375,236 378,241 378,244 371,251 372,253 375,253 378,250 381,240 381,244 378,250 380,251 380,253 378,254 363,256 361,251 354,253 319,254 313,260 315,262 311,262 309,264 310,265 308,265 283,290 285,292 297,292 280,293 276,297 290,311 330,310 321,312 292,313 294,315 296,314 297,315 295,316 308,329 339,330 315,330 311,332 317,338 321,338 319,340 327,348 347,350 348,351 333,350 331,352 347,368 389,367 397,361 399,355 402,353 399,357 398,364 389,369 352,369 350,371 366,387 373,380 372,379 375,378 367,377 368,376 406,375 407,376 403,377 420,379 418,381 425,388 449,386 448,387 452,391 454,389 468,403 469,402 472,405 476,405 489,392 487,390 474,391 475,390 490,387 501,383 495,387 499,387 498,398 500,398 500,396 500,400 498,402 498,405 473,408 491,426 495,427 512,427 514,425 516,427 537,406 534,404 522,402 518,399 518,391 522,387 555,386 558,388 562,386 563,390 556,401 564,409 571,402 570,396 574,391 580,387 600,380 595,384 596,387 601,386 600,399 593,406 600,413 604,413 629,388 626,385 624,385 623,382 628,385 632,385 635,382 628,375 625,378 626,381 619,374 623,352 633,346 651,344 653,346 652,361 654,363 662,355 661,338 638,339 638,337 620,336 648,335 652,333 654,329 654,334 655,332 658,333 659,331 667,333 710,332 709,334 713,336 722,327" stroke="rgb(0,0,0)" /><polygon points="699,545 699,543 692,536 691,540 688,543 687,541 689,539 689,532 685,529 687,528 691,533 696,528 694,526 695,525 682,512 680,514 681,516 678,516 681,519 678,519 675,516 676,510 674,509 672,512 671,510 672,502 650,480 645,479 635,484 572,482 566,490 566,494 569,497 576,500 592,502 601,505 602,514 598,519 593,521 564,525 554,525 543,524 537,521 531,521 519,515 519,505 526,503 529,504 533,502 539,504 547,501 549,502 551,507 549,513 549,507 547,504 541,506 523,506 520,508 520,512 530,518 534,517 541,521 557,523 579,521 597,516 600,511 598,506 579,504 573,501 570,502 571,500 567,498 565,495 565,491 568,485 567,482 570,478 570,470 563,464 567,465 572,469 573,467 593,463 606,457 606,465 602,468 602,470 607,475 626,456 607,437 605,439 605,444 601,446 599,443 573,445 528,445 518,443 518,441 548,443 548,441 543,441 564,441 594,438 599,436 594,432 583,430 590,430 590,428 576,427 565,422 561,422 559,420 553,425 544,428 503,429 503,431 515,431 517,434 501,432 498,445 464,442 462,440 477,440 497,443 498,431 500,430 499,429 450,427 449,428 451,430 456,431 447,431 446,444 393,445 387,451 397,453 413,452 419,453 419,455 469,455 468,456 382,456 376,462 407,467 408,468 393,467 391,469 403,481 415,481 417,471 416,470 424,471 425,473 431,467 407,463 492,464 502,467 503,473 500,479 491,484 409,486 368,485 366,488 365,486 364,488 362,484 275,485 269,490 270,491 266,493 271,494 270,495 264,495 258,501 277,503 278,504 268,504 265,507 277,518 305,519 333,517 362,517 364,504 368,504 369,506 373,502 375,502 377,507 380,506 376,511 373,506 371,510 374,512 375,519 376,513 377,518 381,518 381,521 378,525 375,525 372,522 368,526 366,526 363,517 362,521 351,523 250,523 246,527 260,541 298,544 320,543 328,541 361,541 362,537 363,540 364,539 364,533 366,540 391,540 408,549 415,550 415,544 408,540 405,536 397,532 394,527 393,521 398,531 409,537 410,534 415,538 427,541 442,541 447,543 446,556 455,558 445,558 446,545 444,543 431,543 416,540 416,552 406,551 389,542 371,542 359,544 326,543 312,545 310,547 311,559 325,558 324,549 321,549 318,552 318,554 315,552 322,547 324,547 327,551 330,549 351,549 361,545 364,545 362,547 363,554 368,559 415,559 457,561 469,559 495,559 497,541 498,552 496,558 498,560 494,561 375,562 364,560 360,548 352,551 335,550 328,556 337,558 332,560 342,565 344,564 340,560 353,567 358,568 361,571 362,576 366,576 377,581 411,585 412,579 418,578 442,581 449,584 456,584 457,587 460,589 454,586 446,586 443,584 421,581 416,581 412,587 386,585 370,582 363,589 371,597 402,598 404,591 405,592 406,590 414,590 415,598 433,596 478,597 480,595 481,597 481,600 474,599 471,602 468,602 466,599 426,599 414,601 412,593 406,592 404,598 401,600 383,599 370,612 375,617 448,616 455,618 479,618 494,615 503,610 503,613 496,617 475,621 458,621 442,619 389,619 387,621 390,624 394,622 464,623 457,625 424,624 418,626 405,624 393,625 391,627 395,631 430,630 437,632 412,632 408,633 408,635 454,635 459,633 499,633 504,631 522,631 527,633 540,632 535,630 556,631 557,626 554,624 538,623 554,622 554,620 538,620 526,618 514,619 513,617 508,617 506,614 517,603 515,608 508,613 509,614 549,618 565,617 566,616 561,612 555,610 554,606 550,603 540,600 527,599 521,596 522,593 530,597 543,598 548,600 549,598 547,595 547,586 549,579 554,574 552,573 546,578 539,587 527,580 515,578 511,573 519,577 526,577 539,584 546,575 565,563 569,557 574,557 578,554 587,554 577,558 580,559 598,555 600,550 598,544 599,543 614,543 612,545 604,544 602,546 616,560 619,559 617,561 618,562 622,562 624,560 623,558 660,558 661,559 646,560 665,579 683,561 681,559 672,559 671,551 672,550 673,558 685,559 687,557 684,556 687,552 686,546 688,547 688,552 690,554 699,545" stroke="rgb(0,0,0)" /><polygon points="674,461 672,459 666,460 662,458 661,430 654,423 651,426 651,436 653,442 650,445 631,443 624,440 621,437 621,429 623,424 631,416 638,414 641,410 635,404 628,404 613,411 622,404 619,403 620,402 630,399 607,376 598,385 601,386 599,401 587,410 582,408 575,408 564,419 574,424 598,428 599,424 603,422 605,424 605,427 601,430 600,438 605,438 606,441 605,444 601,446 599,443 573,445 528,445 518,443 518,441 548,443 548,441 543,441 564,441 594,438 599,436 594,432 583,430 590,430 590,428 576,427 565,422 561,422 559,420 553,425 544,428 503,429 503,431 515,431 517,434 501,432 498,445 464,442 462,440 477,440 497,443 498,431 500,430 499,429 450,427 449,428 451,430 456,431 447,431 447,441 446,444 443,445 389,445 361,447 364,445 364,440 366,441 367,445 368,443 441,443 445,441 446,429 311,427 438,425 446,426 464,424 447,407 419,408 423,406 436,406 444,404 430,390 422,390 413,394 415,391 427,387 420,380 378,380 372,386 373,387 388,387 396,390 398,393 395,398 395,401 391,405 384,408 338,409 312,407 311,397 309,395 304,396 304,428 305,429 306,427 306,435 304,429 303,435 306,437 308,444 311,444 311,429 313,444 342,444 345,445 344,446 310,446 308,448 303,448 298,451 283,451 270,453 170,453 168,487 168,470 167,469 162,474 162,502 166,506 167,505 168,491 170,491 168,508 170,508 170,510 176,516 180,516 180,520 197,537 211,523 198,521 216,520 201,518 219,517 222,514 219,511 214,511 217,509 213,505 204,507 201,510 205,511 201,513 199,510 202,506 211,503 236,502 242,496 216,495 217,494 245,493 243,491 216,492 217,491 249,489 245,485 230,484 208,484 204,488 201,488 200,480 202,475 202,469 203,485 206,482 214,481 277,484 332,484 342,482 360,483 360,481 346,481 360,480 363,478 363,468 359,466 365,465 357,463 358,462 383,463 404,466 408,468 366,465 364,471 373,473 373,480 374,481 375,479 375,483 388,483 388,481 415,481 417,471 416,470 420,471 417,472 416,478 418,483 482,483 496,479 499,476 501,470 496,467 490,466 437,467 420,466 407,463 492,464 502,467 503,473 500,479 494,483 486,485 368,485 366,488 365,486 364,488 362,484 347,484 342,489 362,509 364,504 368,504 369,506 373,502 376,503 377,507 380,506 376,511 373,506 371,510 374,512 375,519 376,513 377,518 381,518 381,521 378,525 389,536 390,535 392,537 397,532 394,527 393,521 398,531 409,537 410,534 415,538 427,541 442,541 447,543 446,556 455,558 445,558 446,545 444,543 429,542 413,558 416,560 457,561 469,559 495,559 497,541 498,552 496,558 498,560 471,562 467,561 416,563 433,580 446,582 449,584 456,584 457,587 460,589 457,590 463,596 467,596 470,593 468,591 467,592 466,589 466,580 462,580 461,584 459,585 460,577 483,579 493,582 496,584 499,593 498,605 486,611 496,603 490,597 486,597 483,594 481,596 481,600 478,599 465,612 471,618 479,618 494,615 503,610 503,613 496,617 485,620 476,620 475,622 486,633 499,633 504,631 523,632 535,620 526,618 514,619 513,617 508,617 506,614 507,612 517,603 515,608 508,613 509,614 539,616 551,604 540,600 527,599 521,595 522,593 530,597 543,598 548,600 549,598 547,595 547,586 549,579 553,574 552,573 546,578 539,587 527,580 515,578 511,573 519,577 526,577 539,584 546,575 565,563 569,557 574,557 577,554 574,551 564,552 557,555 534,560 526,565 523,565 519,562 515,554 516,546 519,542 533,539 616,539 630,526 603,500 599,504 602,508 602,514 598,519 588,522 564,525 543,524 537,521 528,520 518,514 519,505 526,503 529,504 533,502 539,504 545,501 549,502 551,507 549,513 549,507 547,504 541,506 523,506 520,508 520,512 525,516 530,518 534,517 541,521 561,523 593,518 599,514 600,509 598,506 579,504 573,501 570,502 571,500 567,498 565,495 565,491 568,485 567,482 570,478 570,470 563,464 567,465 572,469 573,467 593,463 606,457 606,465 602,468 601,472 597,477 601,479 607,479 608,480 605,480 605,482 619,483 624,481 637,482 642,478 639,476 641,474 640,473 635,472 638,471 644,471 644,477 645,478 647,475 646,477 648,478 651,475 651,472 648,470 646,471 647,469 652,470 652,479 654,481 674,461" stroke="rgb(0,0,0)" /><polygon points="670,328 655,313 652,314 653,327 650,329 628,329 616,327 615,326 645,327 647,325 646,322 642,318 641,319 642,318 634,310 626,310 622,308 582,312 571,323 575,326 600,329 606,328 606,330 611,330 615,332 571,327 569,323 570,317 567,316 572,313 567,311 525,311 521,315 520,325 520,309 513,306 520,307 523,309 550,310 556,305 553,302 555,300 528,300 549,299 552,297 547,292 524,293 520,295 519,292 521,283 502,283 506,281 501,276 490,287 507,288 508,289 500,290 515,292 477,291 472,288 466,295 465,292 463,296 466,289 469,286 470,288 472,287 470,282 471,279 479,274 468,274 463,278 464,276 468,273 475,271 486,272 488,270 483,265 428,264 427,268 445,276 447,278 447,283 439,291 429,291 417,294 416,275 419,272 417,268 419,261 445,259 439,253 429,254 427,252 425,256 422,256 419,253 420,248 418,248 417,251 418,246 416,242 417,240 420,240 422,242 425,239 412,226 380,226 376,230 392,235 395,238 395,242 395,240 389,235 376,235 375,236 378,241 378,244 375,247 377,249 380,245 381,240 381,244 378,250 380,251 380,253 370,256 363,256 361,251 353,253 346,260 349,261 348,262 344,262 344,264 342,264 334,272 335,273 333,273 321,285 321,292 312,294 298,308 301,311 330,310 321,312 294,312 278,328 289,330 335,329 339,331 275,331 270,336 272,338 269,339 269,341 264,342 269,347 296,348 296,346 300,345 299,344 304,343 325,346 327,348 333,349 343,349 348,351 315,348 313,355 314,348 307,346 307,348 311,350 311,357 313,361 314,358 314,370 333,368 389,367 397,361 399,355 402,353 399,357 398,364 389,369 341,369 314,372 312,375 310,374 310,360 308,357 307,360 306,357 304,359 304,388 319,389 338,387 344,389 358,387 388,387 396,390 398,393 395,398 395,401 391,405 379,409 338,409 312,407 311,397 309,395 305,395 304,428 305,429 306,427 306,435 304,429 303,435 306,437 309,445 311,444 311,429 313,444 338,444 353,429 316,427 314,428 311,426 357,427 465,425 517,427 546,425 550,424 560,417 574,424 598,428 599,424 603,422 605,424 605,427 601,430 600,438 605,438 606,441 604,445 601,446 599,443 586,443 573,445 558,445 556,447 576,467 584,464 593,463 606,457 606,465 602,468 601,472 597,477 601,479 607,479 608,480 605,480 605,482 619,483 623,482 632,473 630,471 624,472 623,469 625,467 633,464 642,463 660,446 654,441 650,445 631,443 624,440 621,437 621,429 623,424 631,416 638,414 646,409 647,403 644,402 628,404 613,411 622,404 619,403 626,400 630,400 630,402 645,400 647,401 648,396 648,400 650,400 649,392 644,390 633,389 624,385 623,382 638,388 647,387 637,381 632,374 634,374 638,379 648,386 649,390 651,382 649,347 645,349 642,347 632,349 624,355 624,362 621,368 621,374 627,381 623,379 619,374 619,369 622,362 622,354 630,347 643,344 651,344 653,346 651,364 652,372 654,374 662,366 661,338 638,339 638,337 620,336 648,335 652,333 654,329 654,334 655,332 658,333 659,331 666,332 670,328" stroke="rgb(0,0,0)" /><polygon points="511,249 496,248 496,246 488,246 495,245 497,243 496,236 494,234 472,234 468,240 468,245 472,251 511,249" stroke="rgb(0,0,0)" /><polygon points="559,140 557,92 526,93 522,96 511,96 492,93 461,93 487,91 464,90 465,89 544,89 557,88 557,85 454,85 437,87 435,89 433,95 433,109 435,110 434,119 432,121 433,126 431,131 433,144 459,145 540,143 542,139 546,137 547,129 547,133 549,133 549,128 551,141 554,142 559,140" stroke="rgb(0,0,0)" /><polygon points="654,448 649,444 641,445 624,440 621,437 621,429 626,420 616,410 613,411 615,409 607,401 597,411 599,413 603,413 603,417 591,417 587,421 593,427 598,428 601,422 605,424 605,427 601,430 600,438 605,438 606,441 605,444 601,446 599,443 573,445 528,445 518,443 518,441 548,443 548,441 543,441 564,441 594,438 599,436 594,432 583,430 590,430 590,428 576,427 565,422 561,422 559,420 553,425 544,428 503,429 503,431 515,431 517,434 501,432 498,445 464,442 462,440 477,440 497,443 498,431 500,430 499,429 450,427 449,428 451,430 456,431 447,431 447,441 446,444 443,445 389,445 361,447 364,445 364,440 366,441 367,445 368,443 441,443 445,441 446,429 311,427 465,425 517,427 546,425 550,424 556,419 544,407 525,403 519,400 517,396 518,391 523,386 501,364 498,367 475,369 471,372 464,373 458,378 449,378 453,377 454,376 452,375 458,372 456,367 459,375 462,372 461,370 468,368 470,364 470,360 465,354 461,352 450,352 449,362 452,368 450,369 427,370 415,367 412,362 413,354 420,349 426,347 419,340 417,340 418,339 412,333 401,344 404,347 407,345 411,345 410,346 407,346 401,350 403,348 399,344 395,348 396,350 394,349 391,352 398,359 399,355 402,353 399,357 398,364 389,369 341,369 314,372 312,375 310,374 310,360 308,357 307,360 306,357 304,359 304,388 319,389 338,387 344,389 358,387 388,387 396,390 398,393 395,398 395,401 391,405 379,409 338,409 312,407 311,397 309,395 305,395 304,428 305,429 306,427 306,435 304,429 303,435 306,437 308,444 311,444 311,429 313,444 342,444 345,445 344,446 310,446 308,448 303,448 298,451 283,451 270,453 174,452 169,454 168,487 168,457 165,451 185,449 174,448 174,444 176,442 174,441 175,439 173,436 171,441 165,443 163,447 163,507 161,531 163,534 164,541 167,529 167,517 170,508 168,533 173,535 177,531 180,531 180,535 177,538 172,539 168,544 169,554 196,579 215,562 211,560 202,561 199,559 199,552 204,546 208,546 201,552 202,557 204,559 216,559 219,558 234,543 219,541 199,541 200,540 211,538 238,539 253,524 212,523 198,521 258,520 201,518 261,517 264,514 254,504 210,505 204,507 201,510 205,511 201,513 199,510 202,506 206,504 222,502 277,503 291,489 287,485 230,484 208,484 204,488 201,488 200,480 202,475 202,469 203,485 206,482 214,481 277,484 332,484 342,482 360,483 360,481 346,481 360,480 363,478 363,468 359,466 365,465 357,463 358,462 383,463 404,466 408,468 366,465 364,471 373,473 373,480 374,481 375,479 375,483 388,483 388,481 415,481 417,471 416,470 420,471 417,472 416,478 418,483 482,483 496,479 499,476 501,470 496,467 490,466 437,467 420,466 407,463 492,464 502,467 503,473 499,480 491,484 409,486 395,485 393,487 414,508 418,504 424,502 481,503 498,507 500,509 500,520 498,519 497,522 495,520 473,520 472,523 469,524 466,521 467,515 465,513 448,511 446,513 446,522 442,524 439,523 437,525 441,529 438,532 457,551 464,551 464,553 462,552 460,554 465,559 470,554 468,552 466,553 467,541 489,541 497,538 495,540 498,542 498,552 496,558 498,560 472,561 469,563 486,580 496,584 498,592 504,598 514,588 511,582 511,578 515,587 522,580 515,578 511,573 519,577 525,577 536,566 532,562 526,565 523,565 519,562 515,554 517,544 524,540 533,539 562,540 576,526 574,524 543,524 537,521 528,520 518,514 519,505 526,503 529,504 533,502 539,504 545,501 549,502 551,507 549,513 549,507 547,504 541,506 524,506 520,510 520,512 525,516 530,518 534,517 541,521 561,523 582,520 596,506 579,504 573,501 570,502 571,500 567,498 565,495 565,491 568,485 567,482 570,478 570,470 563,464 567,465 572,469 573,467 593,463 606,457 606,465 602,468 601,472 597,477 601,479 607,479 608,480 605,480 605,482 619,483 629,473 624,472 623,469 629,465 638,464 654,448" stroke="rgb(0,0,0)" /><polygon points="647,408 643,403 635,403 622,406 613,411 622,404 619,403 622,401 630,400 630,402 634,402 640,400 638,395 642,391 628,387 624,385 623,382 638,388 646,387 642,383 637,381 632,374 634,374 637,378 642,373 628,359 622,365 621,368 621,374 627,381 620,376 619,369 622,362 622,354 629,348 627,346 622,346 612,351 617,346 625,344 613,332 571,327 569,323 570,317 567,316 572,313 567,311 525,311 521,315 520,325 520,309 513,306 521,308 526,303 515,292 477,291 472,288 466,295 465,292 463,296 466,289 469,286 470,288 472,287 470,282 471,279 479,274 468,274 463,278 464,276 468,273 475,271 492,271 493,270 487,264 428,264 427,268 445,276 447,278 447,283 439,291 429,291 417,294 416,275 419,272 417,268 419,261 447,261 449,259 442,252 435,254 429,254 427,252 425,256 422,256 419,253 420,248 418,248 417,251 417,240 420,240 422,244 423,240 425,243 429,239 416,226 375,227 372,230 374,232 379,231 388,233 395,238 395,242 395,240 389,235 376,235 375,236 378,241 378,244 373,249 376,252 378,250 381,240 381,244 378,250 380,251 380,253 370,256 363,256 361,251 349,253 342,260 349,261 348,262 340,262 340,264 338,264 330,272 331,273 329,273 327,275 328,276 326,276 322,280 320,288 321,292 308,294 294,308 297,311 330,310 329,311 290,312 273,328 289,330 335,329 339,331 270,331 265,336 267,338 271,338 264,339 264,341 259,342 264,347 296,348 296,346 300,345 299,344 304,343 325,346 327,348 333,349 343,349 348,351 315,348 313,355 314,348 307,346 307,348 311,350 311,357 313,361 314,358 314,370 333,368 389,367 397,361 399,355 402,353 399,357 398,364 389,369 341,369 314,372 312,375 310,374 310,360 308,357 307,360 306,357 304,359 304,388 319,389 338,387 344,389 358,387 388,387 396,390 398,393 395,398 395,401 391,405 379,409 338,409 312,407 311,397 309,395 305,395 304,428 305,429 306,427 306,435 304,429 303,435 306,437 308,444 311,444 311,429 313,444 345,445 310,446 308,448 303,448 298,451 283,451 276,453 285,462 304,459 302,461 287,464 291,468 307,467 296,469 294,471 307,484 332,484 342,482 360,483 360,481 346,481 360,480 363,478 363,468 359,466 365,465 357,463 358,462 383,463 406,467 408,465 407,463 410,463 415,458 413,456 354,457 354,453 420,453 425,448 422,445 389,445 361,447 364,445 364,440 366,441 367,445 368,443 430,443 444,429 316,427 314,428 311,426 357,427 465,425 517,427 546,425 550,424 560,417 574,424 598,428 599,424 603,422 605,424 605,427 601,430 600,438 605,438 605,444 601,446 599,443 591,443 587,447 600,460 606,457 605,458 607,467 631,443 624,440 621,437 621,429 623,424 631,416 638,414 647,408" stroke="rgb(0,0,0)" /><polygon points="499,362 499,357 495,354 480,350 464,348 426,349 419,352 417,356 415,354 413,357 414,362 418,366 429,368 446,368 449,366 448,352 438,351 439,350 462,350 466,352 470,356 471,368 486,365 497,365 499,362" stroke="rgb(0,0,0)" /><polygon points="672,538 650,516 643,520 635,522 631,521 630,518 634,520 646,516 647,513 644,510 637,511 642,508 639,507 640,506 638,504 625,503 624,502 635,501 617,483 589,483 574,498 576,500 592,502 601,505 602,514 598,519 593,521 564,525 554,525 543,524 537,521 531,521 519,515 519,505 526,503 529,504 533,502 539,504 545,501 549,502 550,504 551,508 549,513 549,507 547,504 541,506 523,506 520,508 520,512 530,518 534,517 541,521 557,523 589,519 599,514 600,509 598,506 579,504 573,501 570,502 571,500 567,498 565,495 565,491 568,485 567,482 570,478 570,470 563,464 567,465 572,469 573,467 593,463 595,461 578,444 528,445 518,443 518,441 548,443 548,441 543,441 568,440 569,439 554,424 544,428 503,429 503,431 515,431 517,434 501,432 498,445 464,442 462,441 464,439 483,441 486,438 476,428 450,427 449,428 451,430 456,431 447,431 446,444 429,445 423,451 470,453 420,454 469,455 468,456 418,456 412,462 420,464 492,464 503,468 503,473 500,479 494,483 486,485 383,485 367,501 370,504 375,502 377,507 380,506 376,511 373,506 371,510 374,512 374,518 376,518 376,513 377,518 381,518 381,521 378,525 375,525 372,522 368,526 366,526 363,519 355,527 363,535 364,533 365,537 368,540 391,540 401,546 408,548 413,543 408,540 405,536 397,532 394,527 393,521 398,531 409,537 410,534 415,538 427,541 442,541 447,543 446,556 455,558 445,558 446,545 444,543 431,543 419,540 415,541 417,547 416,552 406,551 389,542 371,542 363,549 363,554 368,559 415,559 457,561 469,559 495,559 497,541 498,552 496,558 498,560 471,562 375,562 364,560 360,548 352,551 328,551 326,556 337,558 332,560 342,565 344,564 340,560 353,567 358,568 361,571 362,576 366,576 377,581 411,585 412,579 418,578 442,581 449,584 456,584 457,587 460,589 454,586 446,586 443,584 421,581 416,581 412,587 379,584 371,582 367,579 360,578 359,572 356,569 351,568 350,573 356,576 359,580 361,588 359,588 357,579 349,573 348,569 334,562 303,560 202,561 199,559 199,552 204,546 208,546 201,552 202,555 205,558 216,559 232,543 219,541 199,541 211,538 226,539 228,537 214,523 199,522 198,521 209,520 201,519 206,517 197,508 175,530 180,531 180,535 177,538 172,539 168,544 169,553 165,568 167,573 165,575 165,580 165,573 163,573 163,586 159,598 160,599 162,597 167,597 159,604 172,605 175,607 193,607 197,604 214,604 274,608 297,608 304,604 309,604 302,607 302,609 307,608 299,613 299,619 301,622 298,622 298,634 299,639 302,642 316,646 322,646 328,640 315,638 307,635 303,631 303,629 304,622 306,620 311,617 320,615 323,618 331,616 448,616 455,618 479,618 494,615 503,610 503,613 496,617 475,621 458,621 442,619 312,619 309,621 318,630 320,628 319,626 321,626 353,628 360,629 362,631 333,630 326,628 322,632 327,637 329,635 328,634 331,633 357,634 340,634 338,636 339,637 369,637 373,629 379,628 363,628 363,625 366,624 380,626 384,628 384,631 382,628 379,629 381,631 381,635 399,635 399,633 386,633 387,624 394,622 464,623 457,625 424,624 418,626 405,624 390,625 388,627 390,631 430,630 437,632 412,632 408,633 408,635 454,635 459,633 499,633 504,631 522,631 527,633 540,632 535,630 556,631 557,626 554,624 538,623 554,622 554,620 538,620 526,618 514,619 513,617 508,617 506,614 517,603 515,608 508,613 509,614 549,618 565,617 566,616 561,612 555,610 554,606 550,603 540,600 527,599 521,596 522,593 530,597 543,598 548,600 549,598 547,595 547,586 549,579 554,574 552,573 546,578 539,587 527,580 515,578 511,573 519,577 526,577 539,584 546,575 565,563 569,557 574,557 578,554 587,554 577,558 580,559 598,555 600,550 598,544 599,543 594,541 579,543 523,543 519,546 517,551 520,559 523,562 526,562 532,558 555,553 566,549 580,550 564,552 557,555 534,560 526,565 523,565 519,562 515,554 516,546 519,542 533,539 649,540 632,542 645,555 647,555 646,556 648,558 652,558 672,538" stroke="rgb(0,0,0)" /><polygon points="498,512 494,508 483,506 463,505 455,506 429,504 419,506 415,510 415,516 420,522 423,523 425,521 443,521 444,511 446,509 456,509 459,511 467,510 469,513 468,515 471,518 481,519 489,519 492,517 496,518 498,512" stroke="rgb(0,0,0)" /><polygon points="674,461 672,459 666,460 662,458 661,430 654,423 651,426 651,436 653,442 650,445 631,443 624,440 621,437 621,429 623,424 631,416 638,414 641,410 635,404 628,404 613,411 622,404 619,403 620,402 630,399 607,376 598,385 601,386 599,401 587,410 582,408 575,408 564,419 574,424 598,428 599,424 603,422 605,424 605,427 601,430 600,438 605,438 606,441 605,444 601,446 599,443 573,445 528,445 518,443 518,441 548,443 548,441 543,441 564,441 594,438 599,436 594,432 583,430 590,430 590,428 576,427 565,422 561,422 559,420 553,425 544,428 503,429 503,431 515,431 517,434 501,432 498,445 464,442 462,440 477,440 497,443 498,431 500,430 499,429 450,427 449,428 451,430 456,431 447,431 447,441 446,444 443,445 389,445 361,447 364,445 364,440 366,441 367,445 368,443 441,443 445,441 446,429 311,427 438,425 446,426 464,424 447,407 419,408 423,406 436,406 444,404 430,390 422,390 413,394 415,391 427,387 420,380 378,380 372,386 373,387 388,387 396,390 398,393 395,398 395,401 391,405 384,408 338,409 312,407 311,397 309,395 304,396 304,428 305,429 306,427 306,435 304,429 303,435 306,437 308,444 311,444 311,429 313,444 342,444 345,445 344,446 310,446 308,448 303,448 298,451 283,451 270,453 170,453 168,487 168,470 167,469 162,474 162,502 166,506 167,505 168,491 170,491 168,508 170,508 170,510 176,516 180,516 180,520 197,537 211,523 198,521 216,520 201,518 219,517 222,514 219,511 214,511 217,509 213,505 204,507 201,510 205,511 201,513 199,510 202,506 211,503 236,502 242,496 216,495 217,494 245,493 243,491 216,492 217,491 249,489 245,485 230,484 208,484 204,488 201,488 200,480 202,475 202,469 203,485 206,482 214,481 277,484 332,484 342,482 360,483 360,481 346,481 360,480 363,478 363,468 359,466 365,465 357,463 358,462 383,463 404,466 408,468 366,465 364,471 373,473 373,480 374,481 375,479 375,483 388,483 388,481 415,481 417,471 416,470 420,471 417,472 416,478 418,483 482,483 496,479 499,476 501,470 496,467 490,466 437,467 420,466 407,463 492,464 502,467 503,473 500,479 494,483 486,485 368,485 366,488 365,486 364,488 362,484 347,484 342,489 362,509 364,504 368,504 369,506 373,502 376,503 377,507 380,506 376,511 373,506 371,510 374,512 375,519 376,513 377,518 381,518 381,521 378,525 389,536 390,535 392,537 397,532 394,527 393,521 398,531 409,537 410,534 415,538 427,541 442,541 447,543 446,556 455,558 445,558 446,545 444,543 429,542 413,558 416,560 457,561 469,559 495,559 497,541 498,552 496,558 498,560 471,562 467,561 416,563 433,580 446,582 449,584 456,584 457,587 460,589 457,590 463,596 467,596 470,593 468,591 467,592 466,589 466,580 462,580 461,584 459,585 460,577 483,579 493,582 496,584 499,593 498,605 486,611 496,603 490,597 486,597 483,594 481,596 481,600 478,599 465,612 471,618 479,618 494,615 503,610 503,613 496,617 485,620 476,620 475,622 486,633 499,633 504,631 523,632 535,620 526,618 514,619 513,617 508,617 506,614 507,612 517,603 515,608 508,613 509,614 539,616 551,604 540,600 527,599 521,595 522,593 530,597 543,598 548,600 549,598 547,595 547,586 549,579 553,574 552,573 546,578 539,587 527,580 515,578 511,573 519,577 526,577 539,584 546,575 565,563 569,557 574,557 577,554 574,551 564,552 557,555 534,560 526,565 523,565 519,562 515,554 516,546 519,542 533,539 616,539 630,526 603,500 599,504 602,508 602,514 598,519 588,522 564,525 543,524 537,521 528,520 518,514 519,505 526,503 529,504 533,502 539,504 545,501 549,502 551,507 549,513 549,507 547,504 541,506 523,506 520,508 520,512 525,516 530,518 534,517 541,521 561,523 593,518 599,514 600,509 598,506 579,504 573,501 570,502 571,500 567,498 565,495 565,491 568,485 567,482 570,478 570,470 563,464 567,465 572,469 573,467 593,463 606,457 606,465 602,468 601,472 597,477 601,479 607,479 608,480 605,480 605,482 619,483 624,481 637,482 642,478 639,476 641,474 640,473 635,472 638,471 644,471 644,477 645,478 647,475 646,477 648,478 651,475 651,472 648,470 646,471 647,469 652,470 652,479 654,481 674,461" stroke="rgb(0,0,0)" /><polygon points="397,395 394,391 389,389 337,389 336,391 316,390 305,392 313,393 311,395 313,403 314,401 317,403 328,402 339,404 362,404 338,405 338,407 382,406 387,404 389,399 390,402 393,399 390,394 393,394 395,396 397,395" stroke="rgb(0,0,0)" /><polygon points="696,544 692,540 688,543 687,541 689,539 689,532 685,529 687,528 689,530 692,527 686,521 684,522 684,527 683,519 678,519 676,517 676,512 674,510 672,512 671,507 644,480 635,484 572,482 566,490 566,494 569,497 576,500 592,502 601,505 602,514 598,519 593,521 564,525 543,524 537,521 528,520 518,514 518,507 521,504 529,504 533,502 539,504 545,501 549,502 550,504 551,508 549,513 549,507 547,504 541,506 523,506 520,508 520,512 530,518 534,517 541,521 557,523 589,519 599,514 600,509 598,506 579,504 573,501 570,502 571,500 567,498 565,495 565,491 568,485 567,482 570,478 570,470 563,464 567,465 572,469 573,467 593,463 606,457 605,467 607,469 620,456 606,442 604,445 601,446 599,443 573,445 528,445 518,443 518,441 548,443 548,441 543,441 564,441 594,438 596,436 592,432 583,430 588,430 588,428 576,427 565,422 561,422 559,420 553,425 544,428 503,429 503,431 515,431 517,434 501,432 499,444 491,445 464,442 462,440 477,440 497,443 498,431 500,430 499,429 450,427 449,428 451,430 456,431 447,431 446,444 399,445 393,451 397,453 413,452 419,453 419,455 469,455 468,456 388,456 382,462 384,464 407,467 408,468 399,467 397,469 409,481 411,481 416,476 416,470 421,471 425,467 407,463 492,464 503,468 503,473 499,480 494,483 486,485 368,485 366,488 365,486 364,488 364,486 360,484 343,501 359,517 363,516 364,504 368,504 369,506 373,502 375,502 377,507 380,506 376,511 373,506 371,510 374,512 375,519 376,513 377,518 381,518 379,524 375,525 372,522 368,526 366,526 363,517 362,521 360,522 339,522 335,523 331,527 345,541 361,541 362,537 363,540 364,539 364,533 366,540 391,540 408,549 415,550 415,544 408,540 405,536 397,532 394,527 393,521 398,531 409,537 410,534 415,538 427,541 442,541 447,543 446,556 455,558 445,558 446,545 444,543 431,543 419,540 415,541 417,547 416,552 406,551 389,542 371,542 359,544 347,543 345,545 349,549 364,545 362,547 363,554 368,559 415,559 457,561 469,559 495,559 497,541 498,552 496,558 498,560 471,562 375,562 364,560 360,548 352,551 328,551 326,556 327,557 337,558 333,559 333,561 336,561 342,565 344,564 340,560 347,563 353,567 358,568 361,571 362,576 366,576 377,581 411,585 412,579 418,578 442,581 449,584 456,584 457,587 460,589 454,586 446,586 443,584 421,581 416,581 412,587 379,584 371,582 367,579 360,578 359,572 356,569 351,568 350,573 356,576 359,580 361,588 359,588 357,579 349,573 347,568 342,567 334,562 299,560 289,561 274,576 277,579 300,579 304,577 311,577 339,583 347,591 359,590 360,592 344,593 342,589 340,593 339,586 323,582 315,582 313,580 285,580 279,581 274,586 277,589 272,594 275,597 279,598 295,599 298,599 298,597 307,597 308,592 310,592 309,594 312,596 309,598 310,599 336,596 402,598 404,591 405,592 406,590 414,590 415,598 433,596 478,597 480,595 481,600 474,599 471,602 468,602 466,599 426,599 414,601 412,593 406,592 404,598 401,600 349,598 314,600 303,602 293,599 253,599 249,603 255,607 274,608 297,608 304,604 309,604 302,607 302,609 307,608 299,613 299,619 301,621 298,622 299,639 302,642 309,645 328,648 330,648 338,640 315,638 307,635 303,631 304,622 306,620 311,617 320,615 323,618 331,616 448,616 455,618 479,618 494,615 503,610 503,613 496,617 475,621 458,621 442,619 312,619 306,624 305,629 309,633 317,636 349,638 369,637 373,629 379,628 363,628 363,625 366,624 380,626 384,628 384,631 382,628 379,629 381,631 381,635 399,635 399,633 386,633 387,624 394,622 464,623 457,625 424,624 418,626 405,624 390,625 388,627 390,631 430,630 437,632 412,632 408,633 408,635 454,635 459,633 499,633 504,631 522,631 527,633 540,632 535,630 556,631 557,626 554,624 538,623 554,622 554,620 538,620 526,618 514,619 513,617 508,617 506,614 517,603 515,608 508,613 509,614 549,618 565,617 566,616 561,612 555,610 554,606 550,603 540,600 527,599 521,596 522,593 530,597 543,598 548,600 549,598 547,595 547,586 549,579 554,574 552,573 546,578 539,587 527,580 515,578 511,573 519,577 526,577 539,584 546,575 565,563 569,557 574,557 578,554 587,554 577,558 580,559 598,555 600,550 598,544 599,543 594,541 579,543 523,543 519,546 517,551 520,559 523,562 526,562 532,558 555,553 566,549 580,550 564,552 557,555 534,560 526,565 523,565 519,562 515,554 516,546 519,542 533,539 618,539 618,541 602,542 611,544 614,543 612,545 606,546 620,560 622,558 621,554 623,558 660,558 661,559 650,560 665,575 679,561 672,559 671,551 672,550 673,558 682,558 687,552 686,546 690,550 696,544" stroke="rgb(0,0,0)" /><polygon points="634,448 627,441 624,440 621,437 621,435 607,421 605,423 605,427 601,430 600,434 600,438 605,438 606,441 605,444 601,446 599,443 573,445 528,445 518,443 518,441 548,443 548,441 543,441 564,441 594,438 599,436 594,432 583,430 590,430 590,428 576,427 565,422 561,422 559,420 553,425 544,428 503,429 503,431 515,431 517,434 501,432 498,445 464,442 462,440 477,440 497,443 498,431 500,430 499,429 450,427 449,428 451,430 456,431 447,431 447,441 446,444 443,445 389,445 361,447 364,445 364,440 366,441 367,445 368,443 441,443 445,441 446,429 311,427 465,425 517,427 546,425 550,424 560,417 574,424 581,425 590,416 582,408 577,409 573,406 570,401 570,396 564,390 559,395 557,400 555,400 558,394 555,391 553,391 543,401 545,403 550,403 557,409 558,415 555,418 556,411 554,408 553,411 547,407 525,403 519,400 517,395 518,391 522,387 557,387 559,385 552,378 547,379 551,377 542,368 521,371 520,358 506,351 519,355 524,350 522,348 504,348 498,346 506,346 508,344 505,341 489,341 483,347 488,350 496,352 501,356 501,361 498,367 475,369 471,372 464,373 458,378 449,378 453,377 454,376 452,375 458,372 456,367 459,375 462,372 461,370 469,367 469,358 461,352 449,353 449,362 452,368 450,369 427,370 415,367 412,362 412,356 415,352 420,349 429,347 448,347 455,345 458,346 460,344 454,338 418,340 439,337 450,337 451,335 445,329 434,332 402,331 415,329 405,328 412,326 396,310 390,316 393,318 393,322 389,323 387,319 377,329 393,330 375,331 367,339 368,340 366,340 359,347 364,350 360,350 358,348 354,352 370,368 389,367 397,361 399,355 402,353 399,357 399,362 396,366 389,369 375,370 330,370 323,372 314,372 312,375 310,374 310,360 308,357 307,360 306,357 304,359 303,376 304,388 392,388 396,390 398,394 395,398 395,401 391,405 379,409 338,409 312,407 311,397 309,395 305,395 304,428 305,429 306,427 306,435 304,429 303,435 306,437 308,444 311,444 311,429 313,444 342,444 345,445 344,446 310,446 308,448 303,448 298,451 283,451 270,453 174,452 169,454 168,487 168,457 165,451 185,449 174,448 174,444 176,442 174,441 175,439 173,436 171,441 165,443 163,447 163,507 161,531 163,534 164,541 167,529 167,517 170,508 168,533 173,535 177,531 180,531 180,535 177,538 172,539 168,544 169,554 196,579 198,579 215,562 211,560 200,560 200,550 204,546 208,546 201,552 202,557 204,559 216,559 219,558 234,543 219,541 199,541 211,538 238,539 253,524 212,523 198,521 259,520 201,518 262,517 265,514 255,504 210,505 204,507 201,510 205,511 201,513 199,510 202,506 206,504 222,502 278,503 292,489 288,485 230,484 208,484 204,488 201,488 200,480 202,475 202,469 203,485 206,482 214,481 277,484 332,484 342,482 360,483 360,481 346,481 360,480 363,478 363,468 359,466 365,465 357,463 358,462 383,463 404,466 408,468 366,465 364,471 373,473 373,480 374,481 375,479 375,483 388,483 388,481 415,481 417,471 416,470 420,471 417,472 416,478 418,483 482,483 496,479 499,476 501,470 496,467 490,466 437,467 420,466 407,463 492,464 502,467 503,473 499,480 491,484 412,486 428,502 481,503 498,507 500,509 500,520 498,519 497,522 495,520 473,520 472,523 469,524 466,521 467,515 464,513 451,525 458,532 460,532 460,534 468,541 489,541 497,538 495,540 498,542 498,552 496,558 498,560 489,562 505,577 519,563 517,556 515,554 517,544 524,540 543,539 556,526 553,524 543,524 537,521 531,521 522,517 518,514 519,505 526,503 529,504 533,502 539,504 547,501 549,502 551,507 550,512 548,513 549,507 546,504 536,514 543,521 559,523 578,504 573,501 570,502 571,500 567,498 565,495 565,491 568,485 567,482 570,478 570,470 563,464 567,465 572,469 573,467 593,463 606,457 606,465 602,468 602,470 607,475 634,448" stroke="rgb(0,0,0)" /><polygon points="300,398 299,394 298,395 295,392 293,392 296,390 291,388 244,386 240,388 231,387 227,389 219,387 184,387 167,385 165,387 163,383 162,386 159,387 160,384 158,381 157,382 157,378 159,378 158,376 153,378 147,384 146,387 146,394 149,397 148,399 154,408 156,406 197,409 243,409 253,407 293,408 297,405 295,403 282,403 286,401 285,400 269,401 300,398" stroke="rgb(0,0,0)" /></svg>