<?xml version="1.0" encoding="utf-8" ?>
<svg baseProfile="full" height="100%" version="1.1" width="100%" xmlns="http://www.w3.org/2000/svg" xmlns:ev="http://www.w3.org/2001/xml-events" xmlns:xlink="http://www.w3.org/1999/xlink"><defs /><polygon points="689,354 689,354 689,353 689,353 688,353 688,353 688,354 688,354 689,354" stroke="rgb(0,0,0)" /><polygon points="671,660 671,660 671,659 671,659 670,659 670,659 670,660 670,660 671,660" stroke="rgb(0,0,0)" /><polygon points="646,590 646,590 646,589 646,589 645,589 645,589 645,590 645,590 646,590" stroke="rgb(0,0,0)" /><polygon points="634,279 634,279 634,278 634,278 633,278 633,278 633,279 633,279 634,279" stroke="rgb(0,0,0)" /><polygon points="630,361 630,361 630,360 630,360 629,360 629,360 629,361 629,361 630,361" stroke="rgb(0,0,0)" /><polygon points="628,429 628,429 628,428 628,428 627,428 627,428 627,429 627,429 628,429" stroke="rgb(0,0,0)" /><polygon points="584,664 584,664 584,663 584,663 583,663 583,663 583,664 583,664 584,664" stroke="rgb(0,0,0)" /><polygon points="577,396 577,396 577,395 577,395 576,395 576,395 576,396 576,396 577,396" stroke="rgb(0,0,0)" /><polygon points="577,125 577,125 578,124 578,124 577,123 577,123 576,123 576,123 576,124 576,124 576,125 576,125 577,125" stroke="rgb(0,0,0)" /><polygon points="576,588 576,588 576,587 576,587 575,587 575,587 575,588 575,588 576,588" stroke="rgb(0,0,0)" /><polygon points="575,238 575,238 575,237 575,237 574,237 574,237 574,238 574,238 575,238" stroke="rgb(0,0,0)" /><polygon points="575,201 575,201 575,200 575,200 574,200 574,200 574,201 574,201 575,201" stroke="rgb(0,0,0)" /><polygon points="566,280 566,280 566,279 566,279 565,279 565,279 565,280 565,280 566,280" stroke="rgb(0,0,0)" /><polygon points="537,666 537,666 537,665 537,665 536,665 536,665 536,666 536,666 537,666" stroke="rgb(0,0,0)" /><polygon points="529,316 529,316 529,315 529,315 528,315 528,315 528,316 528,316 529,316" stroke="rgb(0,0,0)" /><polygon points="523,392 523,392 523,391 523,391 522,391 522,391 522,392 522,392 523,392" stroke="rgb(0,0,0)" /><polygon points="523,201 523,201 523,200 523,200 522,200 522,200 522,201 522,201 523,201" stroke="rgb(0,0,0)" /><polygon points="522,551 522,551 522,550 522,550 521,550 521,550 521,551 521,551 522,551" stroke="rgb(0,0,0)" /><polygon points="517,238 517,238 517,237 517,237 516,237 516,237 516,238 516,238 517,238" stroke="rgb(0,0,0)" /><polygon points="488,202 488,202 488,201 488,201 487,201 487,201 487,202 487,202 488,202" stroke="rgb(0,0,0)" /><polygon points="486,435 486,435 486,434 486,434 485,434 485,434 485,435 485,435 486,435" stroke="rgb(0,0,0)" /><polygon points="481,281 481,281 481,280 481,280 480,280 480,280 480,281 480,281 481,281" stroke="rgb(0,0,0)" /><polygon points="479,548 479,548 479,547 479,547 478,547 478,547 478,548 478,548 479,548" stroke="rgb(0,0,0)" /><polygon points="478,474 478,474 478,473 478,473 477,473 477,473 477,474 477,474 478,474" stroke="rgb(0,0,0)" /><polygon points="477,393 477,393 477,392 477,392 476,392 476,392 476,393 476,393 477,393" stroke="rgb(0,0,0)" /><polygon points="475,241 475,241 475,240 475,240 474,240 474,240 474,241 474,241 475,241" stroke="rgb(0,0,0)" /><polygon points="447,132 447,132 447,131 447,131 446,131 446,131 446,132 446,132 447,132" stroke="rgb(0,0,0)" /><polygon points="436,434 436,434 436,433 436,433 435,433 435,433 435,434 435,434 436,434" stroke="rgb(0,0,0)" /><polygon points="430,398 430,398 430,397 430,397 429,397 429,397 429,398 429,398 430,398" stroke="rgb(0,0,0)" /><polygon points="430,357 430,357 430,356 430,356 429,356 429,356 429,357 429,357 430,357" stroke="rgb(0,0,0)" /><polygon points="428,587 428,587 428,586 428,586 427,586 427,586 427,587 427,587 428,587" stroke="rgb(0,0,0)" /><polygon points="425,512 425,512 425,511 425,511 424,511 424,511 424,512 424,512 425,512" stroke="rgb(0,0,0)" /><polygon points="415,469 415,469 415,468 415,468 414,468 414,468 414,469 414,469 415,469" stroke="rgb(0,0,0)" /><polygon points="371,398 371,398 371,397 371,397 370,397 370,397 370,398 370,398 371,398" stroke="rgb(0,0,0)" /><polygon points="331,626 331,626 331,625 331,625 330,625 330,625 330,626 330,626 331,626" stroke="rgb(0,0,0)" /><polygon points="327,437 327,437 327,436 327,436 326,436 326,436 326,437 326,437 327,437" stroke="rgb(0,0,0)" /><polygon points="274,397 274,397 274,396 274,396 273,396 273,396 273,397 273,397 274,397" stroke="rgb(0,0,0)" /></svg>