<?xml version="1.0" encoding="utf-8" ?>
<svg baseProfile="full" height="100%" version="1.1" width="100%" xmlns="http://www.w3.org/2000/svg" xmlns:ev="http://www.w3.org/2001/xml-events" xmlns:xlink="http://www.w3.org/1999/xlink"><defs /><polygon points="725,444 724,442 715,440 698,440 693,438 691,440 688,439 684,441 679,439 678,441 677,428 680,424 679,419 681,417 676,415 676,413 678,411 677,409 680,408 679,404 681,406 682,405 683,394 678,391 680,388 679,386 682,382 681,380 684,372 682,364 686,357 692,352 692,350 702,345 691,344 677,347 674,351 672,359 674,366 675,381 675,384 673,384 674,444 687,446 723,446 725,444" stroke="rgb(0,0,0)" /><polygon points="702,671 702,667 699,663 700,661 698,659 694,659 692,661 687,659 622,660 614,658 596,659 585,657 580,658 573,656 570,657 572,675 574,672 579,671 653,672 669,670 669,668 671,668 671,670 673,668 674,670 676,669 675,670 677,671 680,666 680,671 682,669 687,669 688,672 691,669 693,669 696,673 702,671" stroke="rgb(0,0,0)" /><polygon points="691,564 689,559 686,561 668,559 629,559 622,562 624,564 628,564 627,565 619,564 616,568 608,568 606,572 602,573 611,573 613,570 644,570 628,574 621,573 618,576 606,577 602,579 584,581 583,582 586,583 585,584 573,587 568,591 570,594 580,597 584,597 584,595 632,595 632,597 642,597 643,592 644,594 648,593 650,590 650,592 652,592 652,586 649,584 644,584 642,588 644,584 638,583 639,582 663,582 657,580 632,580 631,582 634,584 632,585 631,593 631,587 630,586 628,588 627,586 625,586 628,583 627,582 631,580 625,579 621,576 633,577 635,575 642,575 666,580 675,579 679,582 683,577 683,572 685,568 689,567 691,564" stroke="rgb(0,0,0)" /><polygon points="651,273 643,272 629,274 629,276 631,276 626,278 622,285 624,288 626,287 625,285 627,287 633,286 634,284 645,279 647,277 645,276 651,273" stroke="rgb(0,0,0)" /><polygon points="650,388 650,351 638,348 627,352 624,356 626,361 624,363 630,367 636,376 647,385 649,389 650,388" stroke="rgb(0,0,0)" /><polygon points="650,424 649,418 647,416 648,414 646,411 634,417 625,426 623,433 627,438 629,437 628,438 630,439 631,437 634,439 634,441 640,442 641,440 639,429 640,428 640,433 641,431 644,432 645,430 644,433 646,439 650,424" stroke="rgb(0,0,0)" /><polygon points="702,671 702,667 699,663 700,661 698,659 694,659 692,661 687,659 622,660 614,658 596,659 585,657 580,658 573,656 570,657 572,675 574,672 579,671 653,672 669,670 669,668 671,668 671,670 673,668 674,670 676,669 675,670 677,671 680,666 680,671 682,669 687,669 688,672 691,669 693,669 696,673 702,671" stroke="rgb(0,0,0)" /><polygon points="589,403 587,396 589,395 587,393 589,392 588,391 578,394 573,400 574,402 577,401 578,404 581,402 586,407 589,403" stroke="rgb(0,0,0)" /><polygon points="751,168 746,132 745,127 743,126 744,120 740,96 738,92 728,93 723,92 721,90 708,89 704,88 702,84 697,84 693,87 686,89 682,87 677,87 652,93 625,93 610,91 570,92 573,109 577,105 620,105 649,111 651,113 666,114 669,110 664,110 668,104 678,104 676,104 669,111 672,113 671,114 674,118 669,119 628,120 573,118 572,128 574,134 599,131 614,131 642,123 665,121 655,124 644,124 641,126 637,126 637,129 633,130 632,128 630,131 627,128 624,130 628,137 636,139 639,138 639,140 650,140 650,142 660,144 670,143 679,145 681,146 681,148 685,147 687,143 686,144 688,145 685,148 686,149 693,148 693,142 699,151 702,150 710,156 728,159 733,158 734,160 737,159 739,160 741,166 746,164 745,166 747,167 747,169 751,168" stroke="rgb(0,0,0)" /><polygon points="691,564 689,559 686,561 668,559 629,559 622,562 624,564 628,564 627,565 619,564 616,568 608,568 606,572 602,573 611,573 613,570 644,570 628,574 621,573 618,576 606,577 602,579 584,581 583,582 586,583 585,584 573,587 568,591 570,594 580,597 584,597 584,595 632,595 632,597 642,597 643,592 644,594 648,593 650,590 650,592 652,592 652,586 649,584 644,584 642,588 644,584 638,583 639,582 663,582 657,580 632,580 631,582 634,584 632,585 631,593 631,587 630,586 628,588 627,586 625,586 628,583 627,582 631,580 625,579 621,576 633,577 635,575 642,575 666,580 675,579 679,582 683,577 683,572 685,568 689,567 691,564" stroke="rgb(0,0,0)" /><polygon points="576,238 574,238 576,238" stroke="rgb(0,0,0)" /><polygon points="576,201 574,201 576,201" stroke="rgb(0,0,0)" /><polygon points="572,287 571,277 563,278 562,276 556,276 555,278 554,276 551,276 549,281 550,277 548,275 531,275 532,282 530,289 533,291 537,290 537,288 539,290 549,290 557,288 552,291 561,292 561,290 565,291 565,289 569,289 572,287" stroke="rgb(0,0,0)" /><polygon points="539,666 525,664 508,665 523,667 539,666" stroke="rgb(0,0,0)" /><polygon points="689,538 689,534 682,527 682,521 678,520 673,513 671,515 672,520 671,519 670,515 672,502 685,503 687,500 685,496 684,498 681,497 681,494 677,490 679,484 677,482 673,482 672,480 670,465 671,461 662,459 661,432 659,432 659,437 658,434 658,429 659,431 661,423 660,405 662,377 662,339 652,338 641,340 625,340 622,343 619,343 622,341 622,339 636,338 618,337 609,334 623,336 644,335 651,334 651,329 623,329 614,326 611,327 614,329 614,331 619,331 621,333 588,329 581,329 581,331 572,330 570,328 568,318 563,318 563,314 567,315 567,312 533,313 533,311 526,311 526,313 522,315 522,328 535,327 536,325 551,325 551,327 559,328 544,330 518,330 509,333 512,330 519,328 517,327 519,325 519,309 513,307 509,309 508,306 498,305 494,303 514,305 520,307 520,305 517,304 520,301 518,299 521,297 518,295 519,292 518,291 511,293 482,291 479,292 479,294 477,294 474,289 471,290 464,297 469,302 476,305 477,308 490,308 490,310 500,311 504,315 503,322 508,323 505,323 493,329 463,331 459,333 456,332 446,334 445,333 447,331 494,326 494,324 498,324 501,320 501,317 498,315 473,313 473,311 477,311 471,308 467,309 469,317 466,317 467,313 465,309 460,308 463,304 463,293 466,288 471,285 469,280 470,278 467,275 460,283 461,287 460,286 461,280 465,274 477,270 515,270 504,269 504,267 494,266 503,266 503,264 428,265 427,267 429,269 441,274 443,273 442,274 448,280 450,290 449,285 447,293 446,285 440,291 435,293 430,291 427,292 426,295 422,293 417,294 417,277 412,274 413,272 417,272 418,269 416,267 418,261 422,259 422,256 419,254 418,250 417,252 416,241 420,236 419,239 423,239 424,243 426,244 429,241 428,239 430,237 428,233 424,236 427,231 433,232 433,228 425,228 425,226 371,227 371,229 367,230 371,232 386,232 391,234 396,239 396,245 394,248 384,255 377,254 373,256 362,257 361,252 307,256 311,254 307,252 303,254 292,255 288,259 290,261 332,262 364,260 366,262 365,264 350,265 282,265 282,267 279,267 276,270 279,273 288,274 282,276 296,289 300,289 300,291 306,291 310,287 311,273 305,271 337,272 347,274 336,274 336,276 323,278 321,285 322,291 340,291 339,292 314,294 309,294 306,292 253,293 240,306 244,310 325,310 338,308 352,309 324,312 338,313 337,314 302,316 265,316 262,315 262,313 257,312 252,317 264,329 308,329 308,327 314,327 314,329 330,329 335,327 341,327 341,330 363,330 368,327 388,330 388,328 390,327 397,331 397,328 418,326 416,322 417,315 414,312 415,308 418,307 420,309 426,310 431,309 431,311 437,309 445,312 449,318 450,316 449,323 443,331 247,331 223,332 198,336 204,342 225,342 225,347 285,347 298,345 286,344 287,343 306,343 322,346 329,345 337,349 347,350 366,349 370,347 395,348 398,351 405,345 413,343 415,341 413,340 414,339 423,338 447,336 509,335 522,337 530,336 540,338 519,339 535,340 534,341 464,340 445,341 445,339 417,341 415,344 408,347 415,349 405,351 400,356 398,365 388,370 336,370 326,372 315,372 312,376 305,378 307,388 352,388 381,386 390,387 397,390 398,396 395,402 390,406 373,410 328,409 311,407 309,406 311,404 311,399 308,396 306,399 306,404 306,398 304,398 305,427 306,423 306,426 309,426 309,421 310,426 394,426 400,423 399,424 401,426 478,425 513,427 549,424 553,421 551,418 553,415 552,411 546,407 540,407 523,402 520,403 520,401 517,398 515,390 516,389 517,392 524,386 534,386 534,384 531,384 549,378 550,377 547,376 550,374 564,373 565,372 563,371 571,364 571,353 574,350 577,351 574,353 578,355 582,354 584,356 587,354 582,349 573,347 567,343 585,347 599,346 604,351 601,358 601,370 595,367 577,369 563,376 545,380 535,384 546,386 554,385 557,387 565,384 568,387 563,387 563,392 565,394 567,391 566,390 573,392 577,389 576,388 579,385 586,385 602,377 602,382 600,384 603,385 604,388 601,390 601,403 593,407 594,406 592,405 588,410 590,414 592,412 603,412 603,418 591,417 588,415 587,410 580,409 579,411 574,408 571,404 570,406 570,397 567,393 565,394 566,395 562,393 556,401 556,404 558,404 558,412 564,416 560,414 558,416 568,421 570,420 569,421 572,423 597,427 600,422 604,422 605,428 601,431 600,435 601,439 604,437 606,439 606,442 603,446 601,447 599,443 562,446 521,444 516,445 515,444 517,443 513,435 510,433 501,433 499,445 501,447 499,447 469,442 458,443 460,441 458,436 456,434 449,433 447,438 447,442 449,444 448,445 407,445 404,448 408,452 476,453 427,453 427,455 478,456 417,457 416,460 419,463 494,463 494,465 502,465 503,474 500,480 495,483 482,486 465,487 470,492 498,492 513,489 506,491 504,493 498,493 497,495 514,512 517,503 523,503 534,492 529,487 527,491 527,487 531,486 532,488 535,485 528,484 504,488 506,486 510,486 511,483 515,480 518,469 514,462 513,464 508,460 504,460 502,458 504,456 502,454 494,452 501,452 501,450 495,449 505,450 509,453 514,454 518,458 524,460 554,466 559,465 558,466 565,471 566,467 557,461 560,461 570,467 594,462 608,456 609,457 606,459 607,461 608,460 608,463 602,469 598,477 613,480 609,480 609,482 620,482 626,480 627,482 632,482 640,480 641,478 639,478 639,476 636,476 635,473 626,475 629,473 628,472 624,473 621,477 616,477 621,475 624,467 636,463 632,461 635,461 637,463 643,461 658,461 658,468 652,467 651,464 649,467 646,468 653,470 652,479 644,480 639,484 593,484 573,482 568,487 568,491 566,492 569,496 578,500 588,502 595,502 598,500 602,502 603,506 601,507 603,508 603,513 601,516 603,517 594,521 584,523 599,539 654,540 650,542 619,541 618,543 615,543 612,546 608,546 612,549 611,551 613,553 618,548 618,546 622,546 622,548 631,546 622,550 623,556 625,558 640,556 632,555 633,554 657,553 661,555 648,556 670,559 671,549 675,546 680,545 673,541 675,538 678,537 677,533 678,535 679,533 681,535 682,539 689,538" stroke="rgb(0,0,0)" /><polygon points="547,398 546,389 526,389 520,393 520,396 523,399 534,402 543,400 541,402 543,404 545,403 547,398" stroke="rgb(0,0,0)" /><polygon points="524,201 522,201 524,201" stroke="rgb(0,0,0)" /><polygon points="599,551 599,548 596,544 598,543 597,542 530,542 521,545 519,548 525,549 519,551 518,554 520,558 525,562 529,560 530,559 528,558 531,556 549,551 550,553 565,549 585,549 582,551 583,553 592,553 599,551" stroke="rgb(0,0,0)" /><polygon points="520,237 509,236 505,238 505,236 499,235 498,240 505,241 512,240 512,238 517,239 520,237" stroke="rgb(0,0,0)" /><polygon points="495,202 494,198 471,197 469,204 486,204 495,202" stroke="rgb(0,0,0)" /><polygon points="498,437 497,429 464,428 453,429 461,430 460,432 468,440 481,439 481,441 496,442 496,435 497,438 498,437" stroke="rgb(0,0,0)" /><polygon points="495,281 493,276 488,276 486,278 481,278 481,276 479,276 475,279 479,280 475,282 473,285 479,289 486,289 486,287 492,287 492,285 488,285 489,283 495,281" stroke="rgb(0,0,0)" /><polygon points="496,557 495,541 489,543 470,543 469,544 471,546 469,547 469,552 469,546 467,546 467,554 464,554 462,551 459,551 459,555 455,557 459,558 459,560 491,559 496,557" stroke="rgb(0,0,0)" /><polygon points="501,471 500,469 495,469 495,467 464,466 458,467 469,468 469,483 492,481 498,477 501,471" stroke="rgb(0,0,0)" /><polygon points="496,402 496,392 494,388 481,392 473,392 471,395 468,396 470,403 474,405 485,404 488,401 489,403 496,402" stroke="rgb(0,0,0)" /><polygon points="496,249 492,247 482,247 485,245 495,244 496,237 494,235 475,234 472,235 469,239 468,243 472,251 486,251 486,249 496,249" stroke="rgb(0,0,0)" /><polygon points="558,134 556,96 556,94 558,93 557,92 555,92 554,94 531,93 525,94 522,97 488,93 446,94 442,92 441,93 443,94 440,95 440,98 444,105 450,105 450,107 456,109 453,109 450,113 453,116 456,118 471,120 456,119 448,113 445,115 444,118 441,118 439,113 435,111 435,123 432,125 435,126 431,132 432,141 434,144 507,144 539,142 542,140 542,126 549,126 550,137 552,142 554,140 557,140 556,136 558,134" stroke="rgb(0,0,0)" /><polygon points="445,440 445,432 443,430 445,429 444,428 390,428 386,431 353,431 352,428 312,429 312,431 315,432 313,437 315,439 314,440 316,444 336,444 337,443 333,440 334,436 328,433 333,433 336,435 334,437 338,439 341,439 342,438 340,437 344,433 346,436 349,436 349,438 357,438 360,440 363,440 364,436 366,441 370,444 374,443 372,441 375,439 375,437 376,443 378,442 378,440 379,443 422,443 443,442 445,440" stroke="rgb(0,0,0)" /><polygon points="448,404 446,397 437,396 445,396 447,390 446,389 429,391 423,390 416,393 413,397 415,399 439,399 438,400 412,401 413,404 418,406 448,404" stroke="rgb(0,0,0)" /><polygon points="448,364 446,351 427,352 421,354 417,358 415,355 414,356 414,361 419,366 422,366 424,364 425,367 433,367 433,365 448,364" stroke="rgb(0,0,0)" /><polygon points="467,595 464,594 462,590 457,590 455,587 452,586 448,587 440,584 425,582 416,582 412,588 416,591 414,594 418,597 420,596 420,594 421,597 423,596 421,591 424,593 424,597 467,595" stroke="rgb(0,0,0)" /><polygon points="467,508 465,506 423,505 415,515 420,521 423,521 425,519 428,522 433,520 442,521 444,518 444,509 446,508 465,510 467,508" stroke="rgb(0,0,0)" /><polygon points="689,538 689,534 682,527 682,521 678,520 673,513 671,515 672,520 671,519 670,515 672,502 685,503 687,500 685,496 684,498 681,497 681,494 677,490 679,484 677,482 673,482 672,480 670,465 671,461 662,459 661,432 659,432 659,437 658,434 658,429 659,431 661,423 660,405 662,377 662,339 652,338 641,340 625,340 622,343 619,343 622,341 622,339 636,338 618,337 609,334 623,336 644,335 651,334 651,329 623,329 614,326 611,327 614,329 614,331 619,331 621,333 588,329 581,329 581,331 572,330 570,328 568,318 563,318 563,314 567,315 567,312 533,313 533,311 526,311 526,313 522,315 522,328 535,327 536,325 551,325 551,327 559,328 544,330 518,330 509,333 512,330 519,328 517,327 519,325 519,309 513,307 509,309 508,306 498,305 490,301 482,300 481,298 475,304 477,308 490,308 490,310 500,311 504,315 503,322 508,323 505,323 493,329 463,331 459,333 456,332 446,334 446,331 444,330 438,335 440,337 511,335 540,338 519,339 535,340 534,341 464,340 445,341 445,339 440,339 430,340 428,342 433,347 452,346 454,344 459,346 488,348 502,355 503,356 499,367 477,369 462,375 476,389 489,387 502,381 505,381 500,385 502,387 498,392 498,396 500,396 500,394 500,401 506,405 502,404 494,407 513,426 515,426 535,406 523,402 520,403 515,392 516,389 517,392 524,386 534,386 534,384 531,384 549,378 550,377 547,376 550,374 564,373 565,372 563,371 571,364 571,353 574,350 577,351 574,353 578,355 582,354 584,356 587,354 582,349 573,347 567,343 585,347 601,347 604,351 601,358 601,370 595,367 577,369 563,376 545,380 535,384 546,386 554,385 557,387 565,384 568,387 563,387 563,392 565,394 567,391 566,390 573,392 577,389 576,388 579,385 586,385 602,377 602,382 600,384 603,385 604,388 601,390 601,403 593,407 594,406 592,405 588,410 590,414 592,412 603,412 603,418 591,417 588,415 587,410 580,409 579,411 574,408 571,404 570,406 570,397 567,393 565,394 566,395 562,393 556,401 556,404 558,404 558,412 564,416 560,414 558,416 568,421 570,420 569,421 572,423 597,427 600,422 604,422 605,428 601,431 600,435 601,439 604,437 606,439 606,442 603,446 601,447 599,443 562,446 521,444 516,445 515,444 517,443 513,435 510,433 501,433 499,445 501,447 499,447 469,442 458,443 460,441 458,436 456,434 449,433 447,438 447,442 449,444 448,445 405,445 379,447 374,446 363,447 359,448 358,450 350,448 348,445 339,447 311,446 304,452 303,449 294,452 277,452 264,454 257,454 255,452 234,454 169,454 171,463 169,485 172,485 172,479 174,481 174,483 171,486 174,487 171,491 169,499 169,504 171,505 170,512 174,516 175,514 179,513 179,515 182,515 180,517 182,518 179,523 172,522 170,520 169,527 175,533 179,530 181,532 180,534 182,535 179,537 194,552 196,552 201,545 197,542 198,540 210,538 222,526 221,525 224,524 200,523 196,520 199,517 357,517 360,516 363,512 364,503 368,504 370,502 376,502 377,506 378,504 389,503 390,501 394,507 395,505 394,511 397,522 395,524 396,528 400,532 409,532 414,537 425,540 445,541 449,544 455,543 458,549 464,550 466,541 491,540 498,532 497,530 496,531 498,528 498,524 494,520 490,522 474,521 471,525 469,525 466,522 467,516 465,513 459,514 455,512 448,512 446,514 446,522 447,523 448,520 450,525 451,521 452,525 454,526 454,529 452,527 450,532 447,531 447,528 445,526 447,525 446,523 434,523 431,527 428,524 426,524 425,525 428,527 426,529 421,525 417,526 417,523 413,519 412,520 412,515 410,517 410,520 410,511 415,506 415,503 420,500 422,500 423,502 472,502 491,505 495,504 495,506 499,507 504,511 500,513 502,523 501,530 498,533 499,535 500,534 500,538 498,540 497,558 505,560 460,563 378,563 365,561 362,558 361,551 359,549 351,552 328,552 327,555 330,557 340,557 344,562 359,568 363,572 364,576 368,576 376,580 407,583 410,582 412,578 421,578 445,581 448,583 457,583 459,581 459,577 462,576 485,579 503,585 509,584 512,588 513,585 511,583 510,578 508,577 509,572 518,576 527,577 539,583 545,575 561,565 565,558 564,561 566,562 568,560 568,555 573,553 565,552 533,561 527,565 521,565 519,564 514,552 509,559 510,555 508,554 510,549 522,540 572,540 595,538 654,540 650,542 619,541 618,543 615,543 612,546 605,545 601,554 603,556 602,557 601,556 598,558 574,563 574,565 572,564 569,567 563,569 553,578 549,586 549,589 551,591 551,594 550,592 549,595 552,598 558,600 559,599 557,597 565,597 563,586 564,576 566,581 569,580 572,577 575,570 575,573 572,578 574,580 581,580 582,579 580,578 586,574 604,570 610,566 615,566 616,562 621,561 612,559 621,558 621,553 619,549 620,548 617,547 618,546 622,546 622,548 631,546 622,550 623,556 625,558 640,556 632,555 633,554 657,553 661,555 648,556 670,559 671,549 675,546 680,545 673,541 675,538 678,537 677,533 678,535 679,533 681,535 682,539 689,538" stroke="rgb(0,0,0)" /><polygon points="394,392 388,389 367,389 366,390 369,392 367,392 366,395 369,395 366,398 366,404 373,405 381,403 382,405 385,405 385,403 388,400 388,397 385,395 387,394 386,393 381,392 388,392 392,394 394,392" stroke="rgb(0,0,0)" /><polygon points="365,621 363,619 323,620 319,624 322,626 360,629 365,621" stroke="rgb(0,0,0)" /><polygon points="445,440 445,432 443,430 445,429 444,428 390,428 386,431 353,431 352,428 312,429 312,431 315,432 313,437 315,439 314,440 316,444 336,444 337,443 333,440 334,436 328,433 333,433 336,435 334,437 338,439 341,439 342,438 340,437 344,433 346,436 349,436 349,438 357,438 360,440 363,440 364,436 366,441 370,444 374,443 372,441 375,439 375,437 376,443 378,442 378,440 379,443 422,443 443,442 445,440" stroke="rgb(0,0,0)" /><polygon points="298,397 296,393 290,393 289,392 292,391 291,390 266,390 264,389 264,387 242,387 239,389 232,387 227,390 226,392 230,393 228,395 226,395 224,392 221,393 214,390 175,390 168,388 166,389 163,386 161,388 164,390 163,393 167,398 168,396 173,396 172,401 171,399 168,402 169,404 172,404 171,405 174,407 187,408 216,409 251,407 277,408 287,406 296,407 297,406 294,404 270,405 266,404 275,402 265,401 274,399 291,399 298,397" stroke="rgb(0,0,0)" /></svg>