<?xml version="1.0" encoding="utf-8" ?>
<svg baseProfile="full" height="100%" version="1.1" width="100%" xmlns="http://www.w3.org/2000/svg" xmlns:ev="http://www.w3.org/2001/xml-events" xmlns:xlink="http://www.w3.org/1999/xlink"><defs /><polygon points="728,446 722,441 710,440 725,439 723,437 709,433 696,424 695,427 691,423 687,413 684,413 682,415 682,426 679,430 679,434 682,440 678,439 677,429 681,424 679,420 682,416 678,416 677,412 682,406 685,405 682,402 683,394 679,390 683,382 682,379 685,369 683,363 687,356 692,352 708,346 703,343 697,343 677,347 674,350 672,357 674,372 674,444 685,446 728,446" stroke="rgb(0,0,0)" /><polygon points="703,673 703,666 700,664 702,663 702,661 695,658 692,660 658,658 627,660 604,657 570,657 570,667 572,675 575,672 581,671 654,672 666,670 682,670 682,672 689,672 691,670 691,672 695,672 698,674 703,673" stroke="rgb(0,0,0)" /><polygon points="702,463 700,459 665,460 662,458 660,411 662,379 662,339 652,338 638,340 623,340 638,338 614,336 613,335 646,335 651,334 652,331 650,329 624,329 620,327 610,326 613,324 618,325 620,323 608,311 594,325 612,328 612,330 615,332 573,328 565,336 565,338 563,338 556,345 557,346 553,350 569,366 572,363 572,354 575,351 573,354 577,355 576,359 573,359 573,364 571,367 572,368 575,366 584,366 587,364 588,365 589,363 585,359 587,355 590,356 589,361 594,365 598,366 599,363 597,361 599,360 599,357 596,353 600,356 602,354 600,370 593,366 589,368 576,369 562,376 547,379 541,382 537,382 538,381 530,373 518,385 521,388 526,386 551,385 559,387 564,385 562,393 555,402 554,397 555,399 559,392 554,388 524,389 520,393 520,396 525,400 545,404 546,399 548,397 547,392 549,395 547,401 555,407 557,407 558,415 555,418 556,419 561,417 575,424 595,427 599,426 599,423 604,422 605,427 601,430 600,438 605,438 605,444 601,446 599,443 575,445 523,445 517,443 519,439 517,437 515,438 513,434 501,432 498,446 471,442 461,442 461,437 464,438 466,436 461,431 459,433 459,436 456,434 439,451 473,453 436,454 475,456 434,456 427,463 493,464 503,467 503,473 501,478 492,484 479,486 462,485 403,486 389,500 393,506 396,521 392,509 389,506 387,506 378,515 381,518 383,516 382,521 379,524 388,533 394,527 392,522 393,520 396,528 401,533 409,537 410,535 408,533 415,538 446,542 448,544 446,546 446,556 456,558 442,557 445,556 446,545 444,543 429,543 419,540 415,541 418,543 416,544 417,552 408,552 392,545 381,556 381,558 420,560 494,559 496,557 497,546 495,540 488,543 469,543 467,545 467,553 465,549 466,542 483,540 488,541 498,537 496,539 498,540 497,558 499,560 456,563 379,562 377,564 396,583 409,583 410,585 413,578 419,578 444,581 450,584 458,584 460,577 473,577 488,580 497,584 500,598 499,604 495,608 483,614 469,615 482,613 492,606 483,597 482,601 480,599 475,599 474,602 473,600 471,603 468,603 466,599 446,599 430,615 451,616 457,618 477,618 493,615 500,612 504,608 507,608 501,615 486,620 440,620 440,622 467,623 461,625 443,625 442,626 452,635 458,633 497,633 503,631 523,631 530,633 538,633 538,631 533,630 555,631 557,629 557,626 551,624 543,625 543,628 537,628 536,627 540,627 542,625 536,622 554,621 536,619 511,620 507,617 507,611 511,609 516,602 513,594 513,591 514,593 515,590 511,583 511,579 508,575 512,573 517,576 527,577 539,584 546,575 558,566 566,562 571,554 577,554 578,552 564,552 558,555 532,561 527,565 522,565 519,563 514,552 510,557 512,552 514,550 515,552 516,551 515,545 520,541 530,539 651,540 628,542 600,541 600,543 615,543 612,545 604,545 604,547 600,548 602,556 598,558 573,563 567,568 562,569 558,572 553,577 548,589 550,597 563,602 573,612 590,617 592,615 603,617 686,615 696,617 698,614 697,605 693,599 681,599 678,597 673,598 669,595 671,594 671,591 678,590 678,586 680,585 675,581 679,582 684,576 683,573 685,569 691,565 691,561 689,559 685,561 680,559 671,559 671,550 676,546 679,547 683,555 687,552 687,548 682,544 685,544 689,549 686,555 690,556 694,562 692,567 694,578 688,584 690,586 690,589 687,593 683,595 689,589 687,585 689,583 683,581 679,586 680,588 678,592 673,592 671,594 680,595 682,597 689,595 698,598 699,601 700,600 700,593 698,590 698,588 699,590 700,587 698,580 700,580 699,578 701,577 701,569 700,568 698,570 701,565 698,559 698,547 700,537 699,508 701,501 699,489 701,481 699,474 702,463" stroke="rgb(0,0,0)" /><polygon points="652,285 652,279 649,278 651,276 650,272 629,274 626,276 628,277 624,280 623,279 621,283 624,289 626,286 629,287 637,285 633,287 635,289 640,289 650,287 652,285" stroke="rgb(0,0,0)" /><polygon points="702,463 700,459 665,460 662,458 661,455 660,410 662,379 662,339 652,338 638,340 623,340 638,338 620,337 613,335 646,335 651,334 653,329 624,329 620,327 610,326 614,324 624,327 650,327 650,325 646,325 646,321 648,324 649,320 640,317 647,317 647,315 644,314 653,314 653,312 655,311 654,310 638,311 625,310 622,308 613,308 596,310 595,311 597,312 593,314 589,314 589,312 580,311 573,312 572,317 574,318 571,319 571,323 573,325 584,327 606,327 612,328 612,330 615,332 609,332 571,327 569,324 570,318 566,316 569,314 567,311 525,311 525,313 521,315 522,317 519,326 520,312 518,310 520,309 512,306 498,304 513,305 524,309 570,310 574,306 569,301 537,305 521,305 525,303 540,303 551,301 523,300 524,299 570,298 571,297 567,293 552,293 562,292 564,290 555,281 548,288 550,290 553,289 549,292 525,293 520,296 518,291 486,292 472,289 464,298 463,293 471,285 471,278 469,274 462,281 462,279 467,273 473,272 474,270 469,265 454,264 444,274 448,281 447,291 446,285 437,292 426,292 416,302 419,305 417,307 420,309 425,309 426,311 432,311 437,309 446,313 449,322 444,328 444,330 435,332 396,332 395,331 400,330 397,329 398,328 394,324 389,329 393,331 387,331 376,342 382,348 394,348 397,351 399,351 406,345 413,344 411,346 405,347 402,350 406,350 400,356 399,362 395,367 381,370 364,370 352,381 358,387 389,387 395,389 398,392 395,401 391,405 381,408 376,413 389,426 469,425 515,427 550,424 555,420 553,419 554,413 549,408 522,402 517,397 517,393 522,387 550,385 556,387 564,385 562,393 555,402 554,397 555,399 559,392 554,388 524,389 520,393 520,396 525,400 545,404 546,399 548,397 547,392 549,395 547,401 555,407 557,407 558,415 555,418 556,419 561,417 575,424 595,427 599,426 599,423 604,422 605,427 601,430 600,438 605,438 606,441 605,444 601,446 599,443 575,445 523,445 517,443 519,439 517,437 515,438 513,434 502,432 500,433 500,441 498,445 499,446 471,442 461,442 461,437 467,440 496,442 498,438 498,430 452,428 452,430 459,430 458,431 460,435 459,436 456,433 448,431 447,444 445,445 407,445 405,447 410,452 473,453 423,453 423,455 475,456 428,456 416,458 421,463 426,464 493,464 501,467 502,466 503,473 498,481 487,485 462,486 461,487 464,490 459,495 467,503 490,504 498,507 501,510 499,515 501,523 498,519 498,528 497,525 493,529 497,533 501,527 498,534 512,548 513,547 514,550 516,548 515,545 520,541 531,539 545,525 536,521 530,521 520,516 518,514 518,506 520,504 532,503 535,501 538,503 550,501 550,505 553,507 551,508 549,515 549,508 547,504 539,507 534,505 530,507 525,506 520,509 520,512 525,516 530,518 534,517 542,521 560,523 578,521 597,516 600,511 598,510 598,506 575,504 573,502 568,502 570,500 566,498 565,490 568,484 566,483 570,477 568,471 570,470 560,462 566,464 569,467 575,467 578,465 601,460 604,457 607,457 606,465 603,467 602,471 597,477 608,479 609,480 606,480 606,482 636,482 642,478 639,478 639,473 632,473 647,469 651,469 653,471 653,477 650,480 643,480 637,484 598,484 588,482 571,483 566,491 568,496 586,502 598,503 599,501 600,502 598,503 601,505 602,508 602,514 598,519 576,524 591,539 651,540 628,542 600,541 600,543 615,543 612,545 604,545 604,547 600,548 615,563 617,561 616,559 620,559 617,561 618,562 625,561 621,557 620,549 622,548 621,552 624,558 650,557 671,559 671,550 676,546 679,547 683,555 687,552 687,548 682,544 685,544 689,549 686,555 692,558 694,562 692,568 695,571 701,565 698,559 698,547 700,537 699,508 701,501 699,494 701,483 699,474 702,463" stroke="rgb(0,0,0)" /><polygon points="650,430 650,414 648,413 648,411 645,411 633,417 625,425 623,434 630,440 640,442 641,432 645,434 646,439 647,434 650,430" stroke="rgb(0,0,0)" /><polygon points="703,673 703,666 700,664 702,663 702,661 695,658 692,660 658,658 627,660 604,657 570,657 570,667 572,675 575,672 581,671 654,672 666,670 682,670 682,672 689,672 691,670 691,672 695,672 698,674 703,673" stroke="rgb(0,0,0)" /><polygon points="598,398 598,390 596,389 593,391 592,389 590,389 579,393 573,399 573,401 576,403 576,405 579,404 586,407 598,398" stroke="rgb(0,0,0)" /><polygon points="752,174 751,169 747,170 751,168 751,164 739,93 724,92 713,88 709,89 704,86 719,87 733,90 735,90 737,88 736,87 729,87 715,82 702,81 702,83 698,83 693,87 685,89 682,87 676,87 651,93 627,93 612,91 571,91 570,92 572,109 579,105 618,105 644,110 651,113 670,115 670,118 667,119 587,119 572,117 572,130 574,134 601,131 615,131 626,128 624,130 625,134 631,138 665,145 673,144 676,145 676,147 680,148 698,150 709,156 738,160 740,164 738,166 735,164 731,167 727,166 725,174 725,165 721,162 721,160 715,159 714,161 716,164 715,166 717,169 716,171 718,178 715,177 714,162 712,159 709,158 708,163 707,161 705,163 705,165 707,166 706,172 706,170 704,170 704,178 704,172 702,170 697,173 671,177 672,175 670,172 651,176 631,176 618,172 613,165 604,157 600,157 599,158 606,165 604,165 598,172 594,174 586,176 559,178 518,178 518,181 516,182 495,183 490,185 490,182 474,182 478,181 479,178 480,180 481,178 482,180 485,180 486,178 486,180 488,181 488,178 495,177 495,167 487,167 483,165 480,168 482,165 481,164 472,163 470,166 470,171 470,166 467,165 469,163 468,162 446,162 446,180 444,177 442,188 445,188 446,189 444,190 447,192 461,191 464,190 464,188 470,187 518,188 518,186 536,185 520,184 521,183 535,183 540,181 552,182 565,180 566,181 564,182 557,183 561,184 560,185 554,186 558,187 558,189 569,189 568,190 571,192 591,193 650,192 660,190 699,192 701,194 705,193 707,196 705,201 705,215 704,216 702,214 668,213 545,213 532,215 469,215 471,213 470,209 466,205 466,202 463,198 458,200 461,198 446,195 444,198 446,206 445,212 442,216 438,215 436,221 678,221 702,220 708,218 706,220 708,221 708,224 712,227 715,223 714,186 717,184 718,185 715,187 716,195 719,195 725,190 718,187 726,187 730,189 730,191 740,190 741,189 739,186 744,185 742,175 744,174 743,173 746,173 747,175 752,174" stroke="rgb(0,0,0)" /><polygon points="702,463 700,459 665,460 662,458 660,411 662,379 662,339 652,338 638,340 623,340 638,338 614,336 613,335 646,335 651,334 652,331 650,329 624,329 620,327 610,326 613,324 618,325 620,323 608,311 594,325 612,328 612,330 615,332 573,328 565,336 565,338 563,338 556,345 557,346 553,350 569,366 572,363 572,354 575,351 573,354 577,355 576,359 573,359 573,364 571,367 572,368 575,366 584,366 587,364 588,365 589,363 585,359 587,355 590,356 589,361 594,365 598,366 599,363 597,361 599,360 599,357 596,353 600,356 602,354 600,370 593,366 589,368 576,369 562,376 547,379 541,382 537,382 538,381 530,373 518,385 521,388 526,386 551,385 559,387 564,385 562,393 555,402 554,397 555,399 559,392 554,388 524,389 520,393 520,396 525,400 545,404 546,399 548,397 547,392 549,395 547,401 555,407 557,407 558,415 555,418 556,419 561,417 575,424 595,427 599,426 599,423 604,422 605,427 601,430 600,438 605,438 605,444 601,446 599,443 575,445 523,445 517,443 519,439 517,437 515,438 513,434 501,432 498,446 471,442 461,442 461,437 464,438 466,436 461,431 459,433 459,436 456,434 439,451 473,453 436,454 475,456 434,456 427,463 493,464 503,467 503,473 501,478 492,484 479,486 462,485 403,486 389,500 393,506 396,521 392,509 389,506 387,506 378,515 381,518 383,516 382,521 379,524 388,533 394,527 392,522 393,520 396,528 401,533 409,537 410,535 408,533 415,538 446,542 448,544 446,546 446,556 456,558 442,557 445,556 446,545 444,543 429,543 419,540 415,541 418,543 416,544 417,552 408,552 392,545 381,556 381,558 420,560 494,559 496,557 497,546 495,540 488,543 469,543 467,545 467,553 465,549 466,542 483,540 488,541 498,537 496,539 498,540 497,558 499,560 456,563 379,562 377,564 396,583 409,583 410,585 413,578 419,578 444,581 450,584 458,584 460,577 473,577 488,580 497,584 500,598 499,604 495,608 483,614 469,615 482,613 492,606 483,597 482,601 480,599 475,599 474,602 473,600 471,603 468,603 466,599 446,599 430,615 451,616 457,618 477,618 493,615 500,612 504,608 507,608 501,615 486,620 440,620 440,622 467,623 461,625 443,625 442,626 452,635 458,633 497,633 503,631 523,631 530,633 538,633 538,631 533,630 555,631 557,629 557,626 551,624 543,625 543,628 537,628 536,627 540,627 542,625 536,622 554,621 536,619 511,620 507,617 507,611 511,609 516,602 513,594 513,591 514,593 515,590 511,583 511,579 508,575 512,573 517,576 527,577 539,584 546,575 558,566 566,562 571,554 577,554 578,552 564,552 558,555 532,561 527,565 522,565 519,563 514,552 510,557 512,552 514,550 515,552 516,551 515,545 520,541 530,539 651,540 628,542 600,541 600,543 615,543 612,545 604,545 604,547 600,548 602,556 598,558 573,563 567,568 562,569 558,572 553,577 548,589 550,597 563,602 573,612 590,617 592,615 603,617 686,615 696,617 698,614 697,605 693,599 681,599 678,597 673,598 669,595 671,594 671,591 678,590 678,586 680,585 675,581 679,582 684,576 683,573 685,569 691,565 691,561 689,559 685,561 680,559 671,559 671,550 676,546 679,547 683,555 687,552 687,548 682,544 685,544 689,549 686,555 690,556 694,562 692,567 694,578 688,584 690,586 690,589 687,593 683,595 689,589 687,585 689,583 683,581 679,586 680,588 678,592 673,592 671,594 680,595 682,597 689,595 698,598 699,601 700,600 700,593 698,590 698,588 699,590 700,587 698,580 700,580 699,578 701,577 701,569 700,568 698,570 701,565 698,559 698,547 700,537 699,508 701,501 699,489 701,481 699,474 702,463" stroke="rgb(0,0,0)" /><polygon points="576,238 574,238 576,238" stroke="rgb(0,0,0)" /><polygon points="576,210 575,199 574,210 576,210" stroke="rgb(0,0,0)" /><polygon points="719,272 718,269 704,269 670,274 675,272 677,270 676,269 688,269 716,265 682,257 678,255 672,249 671,246 672,241 677,235 695,229 705,229 705,225 701,226 701,224 694,224 687,226 668,226 660,224 610,224 610,226 619,226 628,229 649,230 657,233 662,239 657,235 655,237 653,247 655,249 645,253 619,255 617,254 603,257 628,257 624,258 621,262 559,263 548,265 578,270 590,269 603,271 604,272 602,279 604,280 604,286 599,291 596,291 594,289 582,292 553,294 553,292 562,292 566,291 566,289 571,288 572,278 568,276 545,275 544,274 547,273 546,272 531,272 530,289 532,291 553,289 549,292 525,293 520,296 518,291 486,292 472,289 464,298 464,291 471,285 471,278 469,274 462,281 463,277 467,273 474,271 520,271 521,270 518,268 506,269 517,268 517,266 504,266 521,264 428,264 428,269 442,274 447,278 448,289 447,291 446,285 437,292 429,291 417,294 416,275 418,272 417,265 419,263 419,260 424,260 425,258 426,260 445,261 487,261 518,259 518,257 503,257 512,255 503,254 504,253 514,253 514,251 463,255 461,253 467,253 469,251 466,243 467,239 465,239 465,237 463,239 460,238 457,243 458,238 468,232 494,232 494,230 498,229 494,228 495,227 506,228 508,226 438,226 438,230 445,234 448,239 449,246 445,251 435,254 427,253 425,256 422,256 419,253 419,248 417,252 418,246 416,245 416,241 419,239 421,241 423,240 425,244 427,243 430,237 429,232 434,232 434,228 431,226 320,227 319,228 325,234 350,235 345,237 350,238 349,239 351,241 354,241 361,234 361,232 358,230 345,230 346,229 366,229 370,232 385,232 391,234 395,238 395,245 389,252 385,254 377,254 372,256 363,256 361,251 355,253 310,255 311,253 309,249 297,250 296,251 298,253 305,253 293,254 287,260 288,261 365,261 365,263 340,265 288,265 288,263 285,262 276,271 277,273 283,274 273,274 257,290 306,292 254,293 245,302 253,310 263,311 306,311 339,309 332,311 324,311 324,313 328,314 322,315 288,315 292,313 263,312 259,316 272,329 335,328 340,330 393,330 362,332 278,331 276,333 280,337 298,337 300,338 300,340 306,341 286,341 285,342 290,347 293,343 305,343 326,346 328,348 344,349 349,351 347,352 316,348 314,352 315,360 313,368 317,370 342,367 380,368 391,366 391,358 394,356 397,359 402,352 397,352 393,349 386,349 394,348 397,351 399,351 404,346 413,344 411,346 405,347 402,350 406,350 400,356 398,364 390,369 333,370 320,372 319,373 333,387 389,387 395,381 368,380 367,379 382,378 365,377 366,376 409,375 410,376 404,377 418,379 437,378 425,380 407,379 397,381 411,395 414,391 421,388 443,387 448,386 451,382 451,385 449,387 450,394 448,402 450,404 452,402 452,399 453,401 455,399 455,407 459,409 468,407 470,405 467,401 465,394 467,387 470,385 466,393 467,399 472,405 479,405 482,404 490,396 485,391 472,392 470,395 470,393 478,388 490,387 502,382 497,386 500,387 498,390 498,397 500,397 500,395 500,401 498,403 502,404 495,406 473,407 463,411 478,426 515,427 545,425 550,424 554,420 554,413 549,408 525,403 518,399 517,393 522,387 550,385 559,387 564,385 562,393 555,402 554,397 555,399 558,395 558,391 554,388 546,388 543,391 546,394 547,392 549,395 547,401 555,407 557,407 558,415 555,418 557,419 561,417 575,424 578,424 581,421 587,426 595,427 599,426 599,423 604,422 605,427 601,430 600,438 605,438 607,443 622,428 623,424 632,415 637,413 629,405 620,407 613,412 615,408 619,405 618,403 621,401 631,399 636,399 636,401 643,401 648,399 647,395 649,397 650,396 650,394 644,390 641,391 625,385 623,386 622,381 635,387 640,386 640,383 634,378 629,369 638,378 648,368 631,351 627,352 624,355 624,367 622,375 629,382 625,381 619,374 619,368 622,362 621,356 623,352 629,347 642,344 652,344 653,380 651,390 654,396 661,389 662,379 661,338 623,340 638,338 620,337 613,335 646,335 651,334 653,329 624,329 620,327 610,326 614,324 624,327 650,327 650,325 646,325 646,321 648,324 649,320 640,317 647,317 647,315 644,314 653,314 653,312 655,311 638,311 625,310 622,308 613,308 596,310 595,311 597,312 593,314 589,314 589,312 580,311 573,312 572,317 574,318 571,319 571,323 573,325 584,327 606,327 612,328 612,330 615,332 609,332 571,327 569,324 570,318 566,316 569,314 567,311 525,311 525,313 521,315 522,317 519,326 520,312 518,310 520,309 512,306 498,304 513,305 524,309 563,310 570,310 582,307 584,309 606,308 613,306 629,307 629,305 635,306 630,306 630,308 648,309 698,308 706,305 701,303 713,303 713,301 709,301 716,299 711,295 715,294 710,292 712,291 712,282 691,289 663,294 658,294 659,290 665,289 665,286 665,290 669,291 673,289 680,289 680,287 682,286 689,287 689,285 693,283 700,284 709,280 712,276 716,275 719,272" stroke="rgb(0,0,0)" /><polygon points="560,656 556,650 558,648 557,647 553,648 553,650 526,648 377,648 377,676 376,678 369,680 343,683 336,686 332,685 335,685 342,681 356,678 348,675 362,675 374,671 374,667 370,665 346,666 363,668 360,669 336,668 331,666 307,663 304,664 306,672 309,677 315,676 329,679 338,679 332,681 321,679 309,680 305,674 306,671 304,666 301,663 300,672 305,678 304,681 293,679 290,682 281,685 259,681 234,683 174,681 172,687 168,685 167,681 164,681 163,688 168,693 169,690 171,693 172,707 171,708 171,698 169,692 168,698 165,703 169,724 378,724 379,722 376,715 327,715 325,718 321,718 301,714 295,716 278,716 266,719 262,716 255,718 239,717 240,715 237,714 237,709 248,707 266,709 275,707 276,703 280,701 283,703 283,705 279,703 279,706 277,707 278,708 287,707 291,709 300,710 301,704 300,707 302,709 302,712 326,715 330,713 344,713 344,711 340,710 342,709 375,709 382,707 386,701 390,700 443,699 444,701 445,700 444,710 449,711 450,700 452,696 451,708 453,710 454,707 455,709 458,708 458,704 460,709 506,708 506,706 491,706 503,705 503,703 483,703 503,702 510,699 552,699 556,701 557,658 560,656" stroke="rgb(0,0,0)" /><polygon points="695,302 693,300 649,301 689,299 674,298 688,297 689,296 683,290 658,294 659,290 663,290 666,288 665,286 665,290 669,291 673,289 680,289 680,287 684,285 673,274 670,274 671,272 669,270 661,270 660,272 654,274 654,288 652,289 642,291 634,291 631,289 627,289 621,291 619,287 619,282 621,277 625,273 634,270 654,268 666,269 668,267 664,263 657,262 640,263 653,261 641,260 642,259 659,258 651,250 645,253 619,255 617,254 604,257 628,257 624,258 621,262 559,263 548,265 578,270 590,269 603,271 604,272 602,279 604,280 604,286 599,291 596,291 594,289 582,292 553,294 553,292 562,292 566,291 566,289 571,288 572,278 568,276 545,275 544,274 547,273 546,272 531,272 530,289 532,291 553,289 549,292 525,293 520,296 518,291 486,292 472,289 464,298 464,291 471,285 471,278 469,274 462,281 463,277 467,273 474,271 520,271 521,270 518,268 506,269 517,268 517,266 504,266 521,264 428,264 428,269 442,274 447,278 448,289 447,291 446,285 437,292 429,291 417,294 416,275 418,272 417,265 419,263 419,260 424,260 425,258 426,260 445,261 487,261 493,260 496,257 491,252 467,255 463,255 461,253 467,253 469,251 466,243 467,239 465,239 465,237 463,239 460,238 457,243 457,240 460,236 470,231 465,226 438,226 438,230 445,234 448,239 449,246 445,251 435,254 427,253 425,256 422,256 419,253 419,248 417,252 418,246 416,245 416,241 419,239 421,241 423,240 426,244 429,241 429,232 434,232 433,227 368,226 363,228 370,232 380,231 391,234 395,238 394,247 385,254 377,254 372,256 363,256 361,251 355,253 337,254 331,260 333,262 365,261 365,263 326,265 320,271 321,272 336,273 323,274 327,276 323,278 321,285 320,290 323,292 309,294 310,285 308,283 301,290 306,292 298,293 289,302 298,311 339,309 332,311 324,311 324,313 328,314 322,315 290,315 279,326 282,329 335,328 340,330 380,329 393,331 274,331 271,334 274,337 298,337 300,338 300,340 306,341 280,341 279,342 285,348 295,348 295,346 298,345 292,344 293,343 305,343 326,346 328,348 344,349 349,351 347,352 316,348 314,352 315,360 313,368 317,370 342,367 380,368 391,366 391,358 394,356 397,359 402,352 397,352 393,349 386,349 394,348 397,351 399,351 404,346 413,344 411,346 405,347 402,350 406,350 400,356 398,364 390,369 333,370 324,372 314,372 313,374 327,388 389,387 394,389 396,387 410,401 412,393 418,389 448,386 451,382 451,385 449,387 450,394 448,402 450,404 452,402 452,399 453,401 455,399 455,407 459,409 468,407 470,405 467,401 465,394 467,387 470,385 466,393 467,399 472,405 479,405 495,403 496,388 494,387 484,391 472,392 470,395 470,393 478,388 490,387 502,382 497,386 500,387 498,390 498,397 500,397 500,395 500,401 498,403 502,404 495,406 473,407 470,409 461,410 457,412 453,411 452,406 445,408 429,408 424,413 427,416 434,416 430,419 437,425 515,427 550,424 555,420 553,419 554,413 549,408 522,402 518,399 517,393 522,387 526,386 551,385 559,387 564,385 562,393 555,402 554,397 555,399 559,392 554,388 524,389 520,393 520,396 525,400 545,404 546,399 548,397 547,392 549,395 547,401 555,407 557,407 558,415 555,418 556,419 561,417 575,424 595,427 599,426 599,423 604,422 605,427 601,430 600,438 605,438 605,444 601,446 599,443 575,445 542,445 540,447 559,466 561,462 569,467 575,467 578,465 601,460 604,457 607,457 607,463 603,467 602,471 597,477 598,478 608,479 609,480 606,480 606,482 636,482 641,479 638,476 640,474 632,473 637,471 643,471 644,469 641,468 631,470 628,472 623,472 623,469 626,466 645,461 649,461 651,463 653,461 659,462 662,459 660,411 662,379 662,339 652,338 638,340 623,340 638,338 620,337 613,335 646,335 651,334 653,329 624,329 620,327 610,326 614,324 624,327 650,327 650,325 646,325 646,321 648,324 649,320 640,317 647,317 647,315 644,314 653,314 653,312 655,311 638,311 625,310 622,308 613,308 596,310 595,311 597,312 593,314 589,314 589,312 580,311 573,312 572,317 574,318 571,319 571,323 573,325 584,327 606,327 612,328 612,330 615,332 609,332 571,327 569,324 570,318 566,316 569,314 567,311 525,311 525,313 521,315 522,317 519,326 520,312 518,310 520,309 512,306 498,304 513,305 524,309 570,310 582,307 584,309 606,308 613,306 629,307 629,305 635,306 630,306 630,308 681,309 689,308 695,302" stroke="rgb(0,0,0)" /><polygon points="702,463 700,459 665,460 662,458 661,455 660,410 662,379 662,339 652,338 638,340 623,340 638,338 620,337 613,335 646,335 651,334 653,329 624,329 620,327 610,326 614,324 624,327 650,327 650,325 646,325 646,321 648,324 649,320 640,317 647,317 647,315 644,314 653,314 653,312 655,311 654,310 638,311 625,310 622,308 613,308 596,310 595,311 597,312 593,314 589,314 589,312 580,311 573,312 572,317 574,318 571,319 571,323 575,326 606,327 612,328 612,330 615,332 571,327 569,324 570,318 566,316 569,314 567,311 525,311 525,313 521,315 522,317 519,326 520,312 518,310 520,309 512,306 498,304 513,305 524,309 551,309 554,306 551,303 537,305 521,305 525,303 550,302 550,300 523,300 550,298 551,297 546,292 525,293 520,296 518,291 486,292 472,289 464,298 464,291 471,285 464,278 462,281 461,277 436,302 439,305 436,308 446,313 449,319 449,322 444,328 444,330 435,332 396,332 395,331 400,330 397,329 398,328 419,327 416,320 394,298 382,310 390,312 380,312 369,323 370,325 367,325 365,327 366,330 380,329 393,331 363,331 355,337 362,339 353,339 350,342 357,349 394,348 397,351 399,351 406,345 413,344 411,346 405,347 402,350 406,350 400,356 399,362 395,367 381,370 325,371 320,372 311,381 318,388 389,387 395,389 398,392 395,401 391,405 384,408 370,410 339,409 335,413 348,426 469,425 515,427 545,425 550,424 555,420 553,419 554,413 547,407 541,407 520,401 517,397 517,393 522,387 526,386 551,385 559,387 564,385 562,393 555,402 554,397 555,399 559,392 554,388 524,389 520,393 520,396 525,400 545,404 546,399 548,397 547,392 549,395 547,401 555,407 557,407 558,415 555,418 556,419 561,417 575,424 595,427 599,426 599,423 604,422 605,427 601,430 600,434 600,438 605,438 606,440 604,445 601,446 599,443 575,445 523,445 517,443 519,439 517,437 515,438 513,434 502,432 500,433 500,441 498,445 499,446 471,442 461,442 461,437 467,440 489,441 494,436 487,429 452,428 452,430 459,430 458,431 460,435 459,436 456,433 448,431 447,444 421,446 417,445 415,447 420,452 473,453 423,453 423,455 475,456 428,456 426,458 432,464 493,464 501,467 502,466 503,473 498,481 487,485 472,486 471,487 474,490 469,495 477,503 490,504 498,507 501,510 499,515 501,523 500,522 498,524 517,543 537,523 536,521 530,521 525,519 518,514 518,506 520,504 532,503 535,501 538,503 550,501 550,505 553,507 551,508 549,515 549,508 547,504 539,507 534,505 530,507 525,506 520,509 520,512 525,516 530,518 534,517 542,521 560,523 578,521 597,516 600,511 598,510 598,506 575,504 573,502 568,502 570,500 566,498 565,490 568,484 566,483 570,477 568,471 570,470 560,462 566,464 569,467 575,467 578,465 601,460 604,457 607,457 606,465 603,467 602,471 597,477 608,479 609,480 606,480 606,482 636,482 642,478 639,478 639,473 632,473 647,469 651,469 653,471 653,477 650,480 643,480 637,484 598,484 588,482 573,482 567,488 567,495 581,501 595,503 598,503 598,501 600,502 598,503 601,505 602,514 598,519 594,520 593,522 610,539 651,540 628,542 616,541 615,544 618,547 621,546 619,548 623,548 621,550 630,558 650,557 671,559 671,550 676,546 679,547 683,555 687,552 687,548 682,544 687,545 689,549 687,554 691,556 698,549 699,546 699,508 701,501 699,494 701,483 699,474 702,463" stroke="rgb(0,0,0)" /><polygon points="524,201 522,201 524,201" stroke="rgb(0,0,0)" /><polygon points="599,553 599,546 597,542 528,542 522,544 518,548 519,550 517,552 523,562 526,562 535,557 558,552 565,549 583,549 578,553 579,554 593,553 584,555 584,557 597,555 599,553" stroke="rgb(0,0,0)" /><polygon points="522,240 521,235 498,235 499,241 522,240" stroke="rgb(0,0,0)" /><polygon points="496,209 496,205 494,204 496,198 495,197 471,197 468,203 471,205 470,206 474,213 491,212 496,209" stroke="rgb(0,0,0)" /><polygon points="702,463 700,459 665,460 662,458 660,411 662,367 654,359 652,361 653,380 651,387 651,431 653,443 651,445 640,445 622,439 621,429 623,424 632,415 645,409 647,407 647,403 645,402 629,404 620,407 613,412 615,408 619,405 618,403 621,401 631,399 636,399 636,401 643,401 648,399 647,395 649,397 650,396 650,394 644,390 641,391 625,385 623,386 622,381 629,385 639,387 640,383 634,378 629,369 641,380 650,371 650,367 649,364 633,349 624,355 624,367 622,371 623,377 629,382 625,381 620,376 619,368 622,362 621,356 623,352 629,347 637,346 639,344 635,340 623,340 632,339 632,337 614,336 613,335 627,336 629,334 623,328 620,327 618,327 614,331 615,332 590,329 574,345 583,347 598,346 603,351 601,351 599,348 593,348 587,352 578,347 574,347 571,350 573,352 575,351 573,353 574,355 577,355 575,360 581,366 589,364 585,359 587,355 590,356 589,361 594,365 598,366 599,363 597,361 599,360 599,357 596,353 600,356 602,354 600,370 593,366 589,368 576,369 562,376 547,379 541,382 537,382 535,384 537,386 551,385 556,387 564,385 562,393 555,402 554,397 555,399 559,392 554,388 530,389 528,391 539,402 540,400 542,400 539,402 543,404 546,403 546,399 548,397 547,392 549,395 547,401 555,407 557,407 558,415 555,418 556,419 561,417 575,424 595,427 599,426 599,423 604,422 605,427 601,430 600,438 605,438 606,441 605,444 601,446 599,443 575,445 523,445 517,443 519,439 517,437 515,438 513,434 502,432 500,433 500,441 498,445 499,446 471,442 461,442 461,437 467,440 496,442 499,430 452,428 452,430 459,430 458,431 460,435 459,436 456,433 448,431 447,444 445,445 372,446 355,448 354,447 362,446 364,444 363,441 365,438 367,444 368,442 370,444 444,442 446,429 384,428 370,429 368,431 359,431 366,429 313,428 312,440 314,440 315,442 312,443 313,444 348,444 346,446 310,446 306,449 299,451 273,452 261,454 256,452 249,452 231,454 187,453 185,455 193,463 219,465 253,465 264,463 278,463 300,459 305,459 302,461 304,462 304,464 326,464 302,465 302,467 309,468 302,468 263,475 235,475 232,473 251,472 247,468 216,467 207,475 210,477 230,480 243,477 245,479 290,482 283,482 283,484 340,483 344,482 344,480 359,480 363,478 363,468 359,466 365,465 356,463 357,462 394,464 405,466 411,469 401,467 382,467 366,465 365,470 368,471 370,469 368,471 372,472 374,476 377,473 384,475 377,474 375,477 376,483 386,483 386,481 415,481 415,470 421,471 417,472 418,483 480,483 489,482 496,479 501,471 496,467 464,466 434,467 419,466 406,463 493,464 501,467 502,466 503,473 498,481 492,484 479,486 368,485 366,488 365,486 364,488 362,484 339,484 316,485 311,486 308,489 322,503 337,503 324,505 326,507 336,506 327,508 336,517 362,517 363,506 365,503 371,504 375,502 377,507 380,504 390,503 393,506 396,521 392,509 389,506 381,506 376,511 376,513 378,518 381,518 382,516 383,517 382,521 377,526 372,522 368,526 365,526 363,518 362,522 357,522 355,524 358,527 355,530 362,536 364,535 364,532 366,540 391,540 404,547 409,541 404,536 398,534 394,528 392,522 393,520 396,528 401,533 409,537 410,535 408,533 415,538 446,542 448,544 446,546 446,556 456,558 442,557 445,556 446,545 444,543 429,543 416,540 415,541 418,543 416,544 417,552 408,552 394,545 383,556 384,559 494,559 496,557 497,546 495,540 488,543 469,543 467,545 467,553 465,549 466,542 483,540 488,541 498,537 496,539 498,540 498,561 456,563 385,562 383,564 403,584 409,583 410,585 413,578 437,580 444,581 450,584 458,584 460,577 473,577 484,579 497,584 500,599 498,606 495,608 483,614 469,615 482,613 489,608 480,599 475,599 474,602 473,600 471,603 468,603 466,599 452,599 436,615 451,616 457,618 477,618 493,615 500,612 504,608 507,608 504,611 504,613 491,619 480,621 451,620 449,622 450,623 467,623 453,626 460,633 497,633 503,631 523,631 530,633 538,633 538,631 533,630 552,631 554,629 550,625 543,625 543,628 537,628 536,627 540,627 542,625 536,622 553,622 553,620 511,620 507,617 507,611 511,609 516,602 513,594 513,591 514,593 515,590 511,583 511,579 508,575 512,573 517,576 527,577 539,584 546,575 558,566 566,562 571,554 577,554 578,552 564,552 558,555 532,561 527,565 522,565 519,563 514,552 510,557 512,552 514,550 515,552 516,551 515,545 520,541 530,539 649,540 675,514 674,511 671,511 672,503 685,504 687,502 685,495 686,493 684,492 688,488 687,480 688,479 689,490 693,494 699,490 701,483 699,474 702,463" stroke="rgb(0,0,0)" /><polygon points="521,277 507,275 488,276 488,274 485,274 474,279 472,281 472,284 478,289 497,287 514,289 514,291 517,292 518,288 519,291 520,290 519,284 501,283 507,281 502,278 521,277" stroke="rgb(0,0,0)" /><polygon points="701,577 701,569 700,568 698,571 699,567 701,566 698,559 698,547 700,537 700,505 695,500 687,508 689,510 689,515 684,518 685,522 686,523 687,521 686,523 690,527 693,524 691,517 694,521 694,527 691,531 690,542 688,543 674,540 680,540 680,534 683,540 689,539 689,533 683,527 683,520 679,520 676,518 675,509 673,512 671,511 672,503 685,504 687,502 685,495 686,493 684,492 688,488 687,480 689,478 687,476 686,478 685,477 687,476 679,468 674,473 674,477 676,479 678,478 678,481 673,481 671,470 672,461 663,459 660,449 657,452 648,444 640,445 623,440 621,437 621,429 626,421 616,411 613,412 614,409 607,402 598,411 600,413 603,412 603,417 592,417 588,421 595,427 599,426 599,423 604,422 605,427 601,430 600,438 605,438 606,441 605,444 601,446 599,443 575,445 523,445 517,443 519,439 517,437 515,438 513,434 502,432 500,433 500,441 498,445 499,446 471,442 461,442 461,437 467,440 496,442 499,430 452,428 452,430 459,430 458,431 460,435 459,436 456,433 448,431 447,444 445,445 372,446 357,448 351,447 337,461 354,478 363,469 359,466 365,465 356,463 357,462 394,464 405,466 411,469 401,467 382,467 366,465 365,470 368,471 370,469 368,471 372,472 374,476 377,473 384,475 377,474 375,477 376,483 386,483 386,481 415,481 415,470 421,471 417,472 418,481 430,480 424,482 453,483 467,469 466,466 434,467 419,466 406,463 493,464 501,467 502,466 503,473 501,478 492,484 479,486 368,485 366,488 365,486 364,488 362,484 315,486 232,485 228,489 229,490 264,490 278,492 250,493 277,495 222,495 217,500 219,502 272,502 286,505 309,503 337,503 297,506 284,506 276,504 226,505 225,506 228,509 240,508 245,506 255,506 240,510 230,510 227,512 232,517 238,518 328,518 361,516 362,517 363,506 365,503 371,504 375,502 377,507 380,504 390,503 393,506 396,521 392,509 389,506 381,506 376,511 376,513 378,518 381,518 382,516 383,517 382,521 377,526 372,522 368,526 365,526 363,518 362,522 352,523 212,523 210,525 212,527 209,530 218,539 240,539 300,544 326,541 359,541 362,539 362,536 363,539 364,538 364,532 366,540 391,540 404,547 414,550 415,544 409,541 404,536 398,534 394,528 392,522 393,520 396,528 401,533 409,537 410,535 408,533 415,538 446,542 448,544 446,546 446,556 456,558 442,557 445,556 446,545 444,543 429,543 416,540 415,541 418,543 416,544 417,552 405,551 388,542 377,542 377,544 381,544 370,546 373,548 371,549 372,554 369,548 367,549 366,546 363,546 363,554 364,555 365,553 364,556 369,559 494,559 496,557 497,546 495,540 488,543 469,543 467,545 467,553 465,549 466,542 483,540 488,541 498,537 496,539 498,540 498,561 456,563 372,562 363,559 360,548 352,551 328,552 328,557 338,557 342,561 360,569 363,576 367,576 378,581 402,584 409,583 410,585 413,578 419,578 444,581 450,584 458,584 460,577 473,577 488,580 498,585 497,588 500,598 498,606 483,614 469,615 482,613 493,606 498,599 498,596 496,596 496,598 494,594 496,595 497,593 490,584 477,581 469,581 467,592 467,595 469,597 478,596 479,594 482,595 484,593 492,598 488,598 483,595 481,597 482,601 480,599 475,599 474,602 473,600 471,603 468,603 466,599 427,599 415,602 413,601 412,593 407,592 402,601 386,599 359,599 343,615 345,617 451,616 457,618 477,618 493,615 500,612 504,608 507,608 504,611 504,613 499,616 480,621 456,621 439,619 358,619 356,621 362,626 363,624 381,626 384,628 385,633 387,632 386,624 392,622 467,623 461,625 420,625 418,627 412,625 394,625 389,627 389,629 393,631 412,631 416,629 433,630 443,633 437,633 437,635 452,635 458,633 478,632 497,633 503,631 523,631 530,633 539,632 533,630 555,631 557,629 557,626 553,624 543,625 543,628 536,627 540,627 542,625 536,622 553,622 553,620 511,620 507,617 507,611 511,609 516,602 513,594 513,591 514,593 515,590 511,583 511,579 508,575 512,573 517,576 527,577 539,584 546,575 558,566 566,562 571,554 577,554 578,552 564,552 558,555 532,561 527,565 522,565 519,563 514,552 510,556 514,550 515,552 516,551 515,545 523,540 651,540 628,542 600,541 600,543 615,543 612,545 604,545 604,547 600,548 602,556 584,561 595,572 606,570 605,572 600,573 600,575 609,574 617,570 632,571 627,574 633,578 639,576 654,561 652,559 625,560 621,557 620,549 623,548 621,552 624,558 650,557 671,559 671,550 676,546 679,547 683,555 687,552 687,548 682,544 685,544 689,549 686,555 690,556 694,562 692,567 694,578 690,583 695,588 699,584 698,580 700,580 699,578 701,577" stroke="rgb(0,0,0)" /><polygon points="701,461 699,459 665,460 662,458 660,411 661,395 654,388 652,390 651,428 653,443 651,445 640,445 622,439 621,429 623,424 632,415 645,409 647,407 647,403 645,402 629,404 618,408 614,412 613,411 619,405 618,403 621,401 631,399 636,399 636,401 643,401 647,400 647,395 649,397 650,394 644,390 641,391 625,385 623,386 622,381 635,387 638,387 640,383 634,378 630,371 624,377 629,382 625,381 620,376 619,368 622,362 622,357 617,352 612,354 613,353 611,352 613,348 607,342 601,348 603,351 601,351 600,349 597,352 600,356 602,354 601,369 599,370 593,366 589,368 582,368 572,377 581,386 592,383 601,378 601,382 599,384 601,386 600,399 588,410 589,413 592,415 593,413 599,414 603,412 603,417 594,418 588,414 587,410 581,408 577,409 573,407 570,402 571,394 569,392 572,389 566,383 563,386 563,391 557,400 554,402 555,400 553,398 552,400 550,399 548,401 552,405 557,407 558,415 555,418 556,419 561,417 575,424 595,427 599,426 599,423 604,422 605,427 601,430 600,434 600,438 605,438 606,440 604,445 601,446 599,443 575,445 523,445 517,443 519,439 517,437 515,438 513,434 502,432 500,433 500,441 498,445 499,446 471,442 461,442 461,437 467,440 496,442 499,430 452,428 452,430 459,430 458,431 460,435 459,436 456,433 448,431 447,444 445,445 372,446 355,448 354,447 362,446 364,444 363,441 365,438 367,444 368,442 370,444 444,442 446,429 384,428 370,429 368,431 359,431 366,429 313,428 312,440 314,440 315,442 312,443 313,444 348,444 346,446 310,446 306,449 299,451 273,452 261,454 256,452 231,454 170,453 169,489 172,489 169,497 170,515 168,532 173,535 178,530 180,531 180,536 175,539 182,546 184,544 196,556 197,553 199,553 199,551 204,546 201,545 203,542 198,540 214,538 228,524 209,522 201,523 197,520 206,521 206,519 200,518 204,517 237,517 240,514 236,510 200,513 198,511 203,505 219,502 254,502 260,496 213,495 234,493 213,492 214,491 265,491 267,489 263,485 228,484 207,485 204,488 201,488 199,484 202,474 202,468 204,471 204,475 221,479 232,480 239,477 243,477 245,479 290,482 283,482 283,484 317,484 340,483 344,482 344,480 362,479 363,468 359,466 365,465 356,463 357,462 384,463 405,466 411,469 401,467 382,467 366,465 365,470 368,471 370,469 368,471 372,472 374,476 377,473 384,475 377,474 375,477 376,483 386,483 386,481 415,481 415,470 421,471 417,472 418,483 480,483 489,482 496,479 499,476 501,470 496,467 464,466 434,467 419,466 406,463 493,464 501,467 502,466 503,473 498,481 492,484 479,486 368,485 366,488 365,486 364,488 362,484 339,484 316,485 310,486 307,489 321,503 337,503 323,505 325,507 336,506 326,508 335,517 362,517 363,506 365,503 371,504 375,502 377,507 380,504 390,503 393,506 396,521 392,509 389,506 381,506 376,511 376,513 378,518 381,518 382,516 383,517 382,521 377,526 372,522 368,526 365,526 363,518 362,522 356,522 354,524 357,527 354,530 360,536 361,534 363,537 364,532 366,540 391,540 405,547 410,542 404,536 398,534 394,528 392,522 393,520 396,528 401,533 409,537 410,535 408,533 415,538 446,542 448,544 446,546 446,556 456,558 442,557 445,556 446,545 444,543 429,543 416,540 415,541 418,543 416,544 417,552 408,552 393,545 382,556 383,559 494,559 496,557 497,546 495,540 488,543 469,543 467,545 467,553 465,549 466,542 483,540 488,541 498,537 496,539 498,540 498,561 456,563 384,562 382,564 402,584 409,583 410,585 413,578 437,580 444,581 450,584 458,584 460,577 473,577 484,579 497,584 500,599 498,606 495,608 483,614 469,615 482,613 489,607 480,599 475,599 474,602 473,600 471,603 468,603 466,599 451,599 435,615 451,616 457,618 477,618 493,615 500,612 504,608 507,608 504,611 504,613 491,619 480,621 450,620 448,622 449,623 467,623 452,626 459,633 497,633 503,631 523,631 530,633 538,633 538,631 533,630 553,631 555,629 551,625 543,625 543,628 537,628 536,627 540,627 542,625 536,622 554,621 536,619 511,620 507,617 507,611 511,609 516,602 513,594 513,591 514,593 515,590 511,583 511,579 508,575 512,573 517,576 527,577 539,584 546,575 558,566 566,562 571,554 577,554 578,552 564,552 558,555 532,561 527,565 522,565 519,563 514,552 510,557 512,552 514,550 515,552 516,551 515,545 520,541 530,539 650,540 664,526 651,513 649,517 644,520 635,522 630,521 627,523 622,521 622,518 624,521 628,521 629,514 624,514 620,512 625,512 626,510 633,508 635,510 632,512 636,516 639,513 637,512 637,510 644,508 637,507 640,506 640,504 632,504 632,506 630,506 632,504 631,503 624,503 621,500 620,503 620,499 623,501 633,501 636,498 622,484 619,483 598,484 586,482 572,496 573,498 581,501 595,503 598,503 598,501 600,502 598,503 601,505 602,508 601,516 598,519 589,522 566,525 542,524 536,521 530,521 520,516 518,514 518,506 520,504 532,503 535,501 538,503 550,501 550,505 553,507 551,508 549,515 549,508 547,504 539,507 534,505 530,507 525,506 520,509 520,512 525,516 530,518 534,517 539,520 549,522 560,523 578,521 593,518 598,515 600,511 598,510 598,506 575,504 573,502 568,502 570,500 566,498 565,490 568,484 566,483 570,477 568,471 570,470 560,462 566,464 569,467 575,467 578,465 601,460 604,457 607,457 606,465 603,467 602,471 597,477 608,479 609,480 606,480 606,482 636,482 642,478 639,478 639,473 632,473 633,472 651,469 653,471 653,477 650,480 643,480 640,484 660,502 679,483 672,480 671,462 678,464 692,464 694,468 701,461" stroke="rgb(0,0,0)" /><polygon points="672,461 665,460 662,458 661,420 654,413 652,415 651,428 653,443 651,445 640,445 631,443 623,440 621,437 621,429 623,424 632,415 645,409 647,407 646,402 629,404 620,407 613,412 615,408 619,405 618,403 621,401 631,399 636,399 636,401 643,401 648,399 647,395 649,397 650,396 650,394 644,390 641,391 625,385 623,386 622,381 635,387 640,386 640,383 634,378 629,370 630,369 640,380 648,386 648,389 650,389 651,379 649,366 649,347 645,349 641,347 627,352 624,355 624,367 622,375 629,382 625,381 620,376 619,368 622,362 621,356 623,352 629,347 642,344 653,345 653,380 651,387 652,403 654,405 661,399 662,339 652,338 638,340 623,340 638,338 620,337 613,335 646,335 651,334 653,329 624,329 620,327 610,326 614,324 624,327 650,327 650,325 646,325 646,321 648,324 649,320 640,317 647,317 647,315 644,314 653,314 653,312 655,311 654,310 638,311 625,310 622,308 613,308 596,310 595,311 597,312 593,314 589,314 589,312 580,311 573,312 572,317 574,318 571,319 571,323 573,325 584,327 606,327 612,328 612,330 615,332 609,332 571,327 569,324 570,318 566,316 569,314 567,311 525,311 525,313 521,315 522,317 519,326 520,312 518,310 520,309 512,306 498,304 513,305 524,309 560,309 563,306 559,302 537,305 521,305 525,303 540,303 551,301 523,300 524,299 559,298 560,297 557,294 552,293 554,291 553,290 549,292 525,293 520,296 518,291 486,292 472,289 464,298 464,291 471,285 471,278 469,274 462,281 463,277 467,273 474,271 518,271 518,269 506,269 515,268 515,266 504,266 512,265 512,263 486,265 428,264 428,269 442,274 447,278 448,289 447,291 446,285 437,292 429,291 417,294 416,275 418,272 417,265 419,263 419,260 424,260 425,258 426,260 447,261 461,260 464,257 450,243 445,251 439,253 427,253 425,256 422,256 419,253 419,248 417,252 418,246 416,245 416,241 419,239 421,241 423,240 425,244 427,243 430,237 429,232 434,232 434,228 431,226 358,227 358,229 366,229 370,232 380,231 391,234 395,238 394,247 385,254 377,254 372,256 363,256 361,251 355,253 327,254 321,260 323,262 365,261 365,263 316,265 311,270 312,271 336,273 323,274 327,276 323,278 321,285 320,290 323,292 309,294 311,276 308,273 293,288 294,289 291,290 293,292 306,292 288,293 273,308 275,310 286,311 339,309 338,310 324,311 324,313 328,314 322,315 288,315 292,313 269,312 267,314 268,315 266,315 255,326 258,329 335,328 340,330 380,329 393,331 250,331 245,336 248,339 298,337 300,338 300,340 306,341 259,341 246,342 241,344 244,347 295,348 295,346 299,345 292,344 293,343 305,343 326,346 328,348 344,349 349,351 347,352 316,348 314,352 315,360 313,368 317,370 342,367 380,368 391,366 391,358 394,356 397,359 402,352 397,352 393,349 386,349 394,348 397,351 399,351 404,346 413,344 411,346 405,347 402,350 406,350 400,356 398,364 390,369 333,370 324,372 314,372 312,375 310,375 310,360 308,357 307,361 307,359 305,358 304,374 306,374 306,365 306,375 308,375 308,364 308,376 303,378 304,388 305,380 306,388 389,387 395,389 398,392 395,401 391,405 380,409 370,410 312,407 310,406 311,398 309,396 305,396 304,428 306,428 306,424 306,430 309,431 309,445 311,441 310,426 469,425 515,427 550,424 555,420 553,419 554,413 549,408 522,402 518,399 517,393 522,387 526,386 551,385 559,387 564,385 562,393 555,402 554,397 555,399 559,392 554,388 524,389 520,393 520,396 525,400 545,404 546,399 548,397 547,392 549,395 547,401 555,407 557,407 558,415 555,418 556,419 561,417 575,424 595,427 599,426 599,423 604,422 605,427 601,430 600,438 605,438 606,441 605,444 601,446 599,443 575,445 530,445 528,447 545,464 559,467 561,469 557,470 562,475 565,472 564,471 566,471 568,468 560,462 566,464 569,467 575,467 578,465 601,460 604,457 607,457 607,463 603,467 602,471 597,477 598,478 608,479 609,480 606,480 606,482 636,482 642,478 639,478 639,473 632,473 633,472 643,471 647,469 653,470 655,468 651,464 645,468 623,472 623,469 626,466 645,461 649,461 651,463 653,461 657,461 659,467 655,468 660,473 672,461" stroke="rgb(0,0,0)" /><polygon points="497,249 496,246 484,247 496,243 496,236 492,234 473,234 468,241 468,245 472,251 488,251 497,249" stroke="rgb(0,0,0)" /><polygon points="559,140 557,92 527,93 523,96 509,96 491,93 459,93 487,91 462,90 463,89 543,89 553,88 553,86 456,85 438,87 435,89 433,96 434,106 438,108 442,104 444,108 451,107 452,109 450,113 447,113 444,116 444,118 441,118 438,112 435,110 434,111 435,119 432,124 434,126 431,131 432,142 434,144 452,145 540,143 543,138 543,132 543,137 546,137 545,128 543,126 545,126 546,133 547,128 547,132 549,132 549,127 552,142 559,140" stroke="rgb(0,0,0)" /><polygon points="693,461 691,459 665,460 662,458 660,411 661,403 654,396 652,398 651,428 653,443 651,445 640,445 622,439 621,429 623,424 632,415 645,409 647,407 647,403 645,402 629,404 618,408 614,412 613,411 619,405 618,403 621,401 631,399 636,399 636,401 643,401 647,400 647,395 649,397 650,394 644,390 641,391 625,385 623,386 622,381 632,386 635,383 630,378 628,382 620,376 619,368 621,363 612,354 611,356 612,354 607,349 601,357 601,369 599,370 591,366 579,377 586,384 592,383 601,378 601,382 599,384 601,386 600,399 588,410 589,413 592,415 593,413 599,414 603,412 603,417 594,418 588,414 587,410 581,408 577,409 573,407 570,402 571,394 567,390 552,404 555,407 557,407 558,415 555,418 556,419 561,417 575,424 595,427 599,426 599,423 604,422 605,427 601,430 600,438 605,438 606,441 605,444 601,446 599,443 575,445 523,445 517,443 519,439 517,437 515,438 513,434 502,432 500,433 500,441 498,445 499,446 471,442 461,442 461,437 467,440 496,442 499,430 452,428 452,430 459,430 458,431 460,435 459,436 456,433 448,431 447,444 445,445 372,446 355,448 354,447 362,446 364,444 363,441 365,438 367,444 368,442 370,444 444,442 446,429 384,428 370,429 368,431 359,431 366,429 313,428 312,440 314,440 315,442 312,443 313,444 348,444 346,446 310,446 306,449 299,451 273,452 261,454 256,452 231,454 170,453 169,489 172,489 169,497 170,515 168,532 173,535 178,530 180,531 180,536 169,543 169,555 166,566 166,571 169,573 166,575 165,581 165,573 163,573 162,589 164,589 165,591 168,585 168,589 171,586 168,592 167,591 165,594 165,592 163,592 164,597 172,596 176,588 180,588 181,595 166,598 160,604 182,607 194,606 196,604 204,604 208,600 196,598 195,596 198,593 197,592 183,594 183,590 185,588 195,587 198,588 198,590 201,590 202,587 199,586 199,584 201,582 206,581 232,580 223,581 223,583 228,583 220,586 227,593 239,593 248,584 248,582 236,581 253,579 270,562 210,560 201,561 198,558 197,560 197,553 198,556 199,551 204,546 201,545 203,542 198,540 217,538 289,543 307,525 285,523 201,523 197,520 207,520 200,518 316,518 320,514 311,505 284,506 276,504 211,505 209,507 212,510 255,506 240,510 200,513 198,511 203,505 219,502 246,501 272,502 286,505 309,503 333,503 345,492 360,507 361,504 360,507 362,509 365,503 371,504 375,502 377,507 380,504 390,503 393,506 396,521 392,509 390,507 382,515 383,517 381,522 388,529 393,524 389,522 392,522 393,520 396,528 401,533 409,537 410,535 408,533 415,538 424,540 444,541 448,544 446,546 446,556 456,558 443,558 442,557 445,556 445,550 438,543 430,543 417,556 417,558 420,560 494,559 496,557 497,546 495,540 488,543 469,543 467,545 467,553 465,549 466,542 483,540 488,541 498,537 496,539 498,540 498,561 456,563 419,562 417,564 433,580 444,581 450,584 458,584 460,577 473,577 488,580 497,584 500,598 498,606 483,614 469,616 471,618 486,617 496,614 504,608 507,608 501,615 481,621 493,632 497,633 503,631 518,631 528,621 526,619 511,620 506,615 507,611 511,609 516,602 513,594 513,591 514,593 515,590 511,583 511,579 508,575 512,573 517,576 527,577 539,584 546,575 558,566 566,562 571,554 577,553 575,551 564,552 558,555 532,561 527,565 522,565 519,563 514,552 510,557 512,552 514,550 515,552 516,551 515,545 520,541 530,539 617,539 630,526 626,522 622,521 622,518 603,499 599,503 602,508 601,516 598,519 589,522 566,525 552,525 542,524 536,521 530,521 520,516 518,514 518,506 520,504 532,503 535,501 538,503 550,501 550,505 553,507 551,508 549,515 549,508 547,504 539,507 534,505 530,507 525,506 520,509 520,512 530,518 534,517 542,521 558,523 578,521 593,518 598,515 600,511 598,510 598,506 575,504 573,502 568,502 570,500 566,498 565,490 568,484 566,483 570,477 568,471 570,470 560,462 566,464 569,467 575,467 578,465 601,460 604,457 607,457 606,465 603,467 602,471 597,477 608,479 609,480 606,480 606,482 636,482 642,478 639,478 639,473 632,473 633,472 651,469 653,471 653,477 650,480 645,481 660,494 673,481 671,462 678,464 690,464 693,461" stroke="rgb(0,0,0)" /><polygon points="662,365 661,338 623,340 638,338 620,337 613,335 637,336 652,333 652,328 624,329 620,327 610,326 614,324 624,327 636,327 640,323 625,320 624,319 633,320 635,318 627,310 622,308 596,310 596,313 587,315 585,314 575,324 577,326 584,327 599,326 612,328 612,330 615,332 609,332 571,327 569,324 570,318 566,316 569,314 567,311 525,311 525,313 521,315 522,317 519,326 520,312 518,310 520,309 512,306 498,304 513,305 524,309 563,309 566,306 562,302 537,305 521,305 525,303 540,303 551,301 523,300 524,299 562,298 563,297 560,294 552,293 555,293 557,291 555,289 549,292 525,293 520,296 518,291 486,292 472,289 464,298 464,291 471,285 471,278 469,274 462,281 463,277 467,273 474,271 520,271 521,270 518,268 506,269 517,268 517,266 504,266 520,265 520,263 486,265 428,264 428,269 442,274 447,278 448,289 447,291 446,285 437,292 429,291 417,294 416,275 418,272 417,265 419,263 419,260 424,260 425,258 426,260 480,261 484,257 481,254 463,255 461,253 467,253 469,251 466,240 464,238 460,238 457,243 457,240 461,235 452,226 448,226 442,232 445,234 449,241 448,248 445,251 435,254 427,253 425,256 422,256 419,253 419,248 417,252 418,246 416,245 416,241 419,239 421,241 423,240 425,244 427,243 430,237 429,232 434,232 434,228 431,226 339,227 338,228 343,233 345,231 344,230 346,229 366,229 370,232 380,231 389,233 395,238 395,245 389,252 385,254 377,254 372,256 363,256 361,251 355,253 324,254 309,256 307,255 302,260 305,262 365,261 365,263 340,265 297,265 272,290 287,292 306,292 269,293 254,308 256,310 263,311 306,311 339,309 338,310 324,311 324,313 328,314 322,315 288,315 292,313 291,312 250,312 236,326 240,330 335,328 340,330 380,329 393,331 229,332 225,336 227,338 224,341 224,343 221,344 224,345 224,347 295,348 295,346 299,345 292,344 293,343 305,343 326,346 328,348 344,349 349,351 347,352 316,348 314,352 315,360 313,368 317,370 342,367 380,368 391,366 391,358 394,356 397,359 402,352 397,352 393,349 386,349 394,348 397,351 399,351 404,346 413,344 411,346 405,347 402,350 406,350 400,356 398,364 390,369 333,370 324,372 314,372 312,375 310,375 310,360 308,357 307,361 307,359 305,358 304,374 306,374 306,365 306,375 308,375 308,364 308,376 303,378 304,388 305,380 306,388 389,387 395,389 398,392 395,401 391,405 380,409 370,410 312,407 310,406 311,398 309,396 305,396 304,428 306,428 306,424 306,430 309,431 309,445 311,441 310,426 469,425 515,427 550,424 555,420 553,419 554,413 549,408 522,402 518,399 517,393 522,387 526,386 551,385 559,387 564,385 562,393 555,402 554,397 555,399 559,392 554,388 524,389 520,393 520,396 525,400 545,404 546,399 548,397 547,392 549,395 547,401 555,407 557,407 558,415 555,418 556,419 561,417 575,424 595,427 599,426 599,423 604,422 605,427 601,430 600,434 600,438 605,438 606,440 604,445 601,446 599,443 588,443 562,445 560,447 578,465 587,464 607,457 606,465 603,467 602,471 597,477 608,479 609,480 606,480 606,482 619,482 628,473 623,472 623,469 626,466 637,464 655,446 653,444 640,445 631,443 623,440 621,437 621,429 623,424 632,415 645,409 647,407 646,402 629,404 620,407 613,412 615,408 619,405 618,403 621,401 631,399 636,399 636,401 643,401 648,399 647,395 649,397 650,396 650,394 644,390 641,391 625,385 623,386 622,382 635,387 640,386 640,383 634,378 629,370 630,369 640,380 648,386 648,389 650,389 650,348 648,347 643,349 641,347 633,349 624,355 624,367 622,375 629,382 625,381 619,374 619,368 622,362 621,356 623,352 629,347 642,344 652,344 652,371 654,373 662,365" stroke="rgb(0,0,0)" /><polygon points="448,366 448,356 446,351 425,352 417,357 415,355 413,358 418,366 448,366" stroke="rgb(0,0,0)" /><polygon points="571,536 566,531 570,526 568,524 542,524 536,521 530,521 525,519 518,514 518,506 520,504 532,503 535,501 538,503 550,501 550,505 553,507 556,506 558,508 555,509 559,513 568,504 566,502 570,500 566,498 565,493 552,480 550,489 547,492 540,494 538,494 545,491 550,485 549,484 546,487 546,483 534,483 507,487 515,484 512,483 515,481 518,469 516,464 511,459 501,453 504,454 505,452 501,450 504,448 500,444 498,446 471,442 461,442 461,437 467,440 485,441 490,436 483,429 452,428 452,430 459,430 458,431 460,435 459,436 456,433 448,431 447,444 445,445 372,446 355,448 354,447 362,446 364,444 363,441 365,438 367,444 368,442 370,444 444,442 446,429 384,428 370,429 368,431 359,431 366,429 313,428 312,440 314,440 315,442 312,443 313,444 348,444 346,446 310,446 306,449 299,451 273,452 261,454 256,452 231,454 169,454 169,489 172,489 169,497 170,515 168,532 173,535 178,530 180,531 180,536 169,543 169,555 166,566 166,571 169,573 166,575 165,581 165,573 163,573 162,589 164,589 165,591 168,585 168,589 171,586 168,592 167,591 165,594 165,592 163,592 164,597 172,596 176,588 180,588 181,595 166,598 159,604 182,607 194,606 196,604 221,604 257,607 296,608 304,604 312,603 306,606 309,607 308,608 299,613 299,619 303,622 310,617 322,614 323,617 451,616 457,618 477,618 493,615 500,612 504,608 507,608 504,611 504,613 491,619 480,621 455,622 467,623 459,626 466,633 497,633 503,631 523,631 530,633 538,633 538,631 533,630 548,629 544,625 543,628 537,628 536,627 540,627 542,625 536,622 554,621 536,619 511,620 507,617 506,613 515,605 516,602 513,594 513,591 514,593 515,590 511,583 511,579 508,575 512,573 514,575 527,577 533,580 541,572 538,569 541,566 535,561 532,561 527,565 520,564 514,552 510,556 514,550 515,552 516,551 515,545 523,540 567,540 571,536" stroke="rgb(0,0,0)" /><polygon points="497,516 497,511 490,507 467,507 461,505 445,506 435,504 419,506 418,507 420,508 415,513 415,516 420,522 423,522 425,520 428,522 435,520 442,521 444,519 445,509 457,509 460,511 466,511 468,509 468,511 471,512 469,515 471,518 490,518 497,516" stroke="rgb(0,0,0)" /><polygon points="701,461 699,459 665,460 662,458 660,411 661,395 654,388 652,390 651,428 653,443 651,445 640,445 622,439 621,429 623,424 632,415 645,409 647,407 647,403 645,402 629,404 618,408 614,412 613,411 619,405 618,403 621,401 631,399 636,399 636,401 643,401 647,400 647,395 649,397 650,394 644,390 641,391 625,385 623,386 622,381 635,387 638,387 640,383 634,378 630,371 624,377 629,382 625,381 620,376 619,368 622,362 622,357 617,352 612,354 613,353 611,352 613,348 607,342 601,348 603,351 601,351 600,349 597,352 600,356 602,354 601,369 599,370 593,366 589,368 582,368 572,377 581,386 592,383 601,378 601,382 599,384 601,386 600,399 588,410 589,413 592,415 593,413 599,414 603,412 603,417 594,418 588,414 587,410 581,408 577,409 573,407 570,402 571,394 569,392 572,389 566,383 563,386 563,391 557,400 554,402 555,400 553,398 552,400 550,399 548,401 552,405 557,407 558,415 555,418 556,419 561,417 575,424 595,427 599,426 599,423 604,422 605,427 601,430 600,434 600,438 605,438 606,440 604,445 601,446 599,443 575,445 523,445 517,443 519,439 517,437 515,438 513,434 502,432 500,433 500,441 498,445 499,446 471,442 461,442 461,437 467,440 496,442 499,430 452,428 452,430 459,430 458,431 460,435 459,436 456,433 448,431 447,444 445,445 372,446 355,448 354,447 362,446 364,444 363,441 365,438 367,444 368,442 370,444 444,442 446,429 384,428 370,429 368,431 359,431 366,429 313,428 312,440 314,440 315,442 312,443 313,444 348,444 346,446 310,446 306,449 299,451 273,452 261,454 256,452 231,454 170,453 169,489 172,489 169,497 170,515 168,532 173,535 178,530 180,531 180,536 175,539 182,546 184,544 196,556 197,553 199,553 199,551 204,546 201,545 203,542 198,540 214,538 228,524 209,522 201,523 197,520 206,521 206,519 200,518 204,517 237,517 240,514 236,510 200,513 198,511 203,505 219,502 254,502 260,496 213,495 234,493 213,492 214,491 265,491 267,489 263,485 228,484 207,485 204,488 201,488 199,484 202,474 202,468 204,471 204,475 221,479 232,480 239,477 243,477 245,479 290,482 283,482 283,484 317,484 340,483 344,482 344,480 362,479 363,468 359,466 365,465 356,463 357,462 384,463 405,466 411,469 401,467 382,467 366,465 365,470 368,471 370,469 368,471 372,472 374,476 377,473 384,475 377,474 375,477 376,483 386,483 386,481 415,481 415,470 421,471 417,472 418,483 480,483 489,482 496,479 499,476 501,470 496,467 464,466 434,467 419,466 406,463 493,464 501,467 502,466 503,473 498,481 492,484 479,486 368,485 366,488 365,486 364,488 362,484 339,484 316,485 310,486 307,489 321,503 337,503 323,505 325,507 336,506 326,508 335,517 362,517 363,506 365,503 371,504 375,502 377,507 380,504 390,503 393,506 396,521 392,509 389,506 381,506 376,511 376,513 378,518 381,518 382,516 383,517 382,521 377,526 372,522 368,526 365,526 363,518 362,522 356,522 354,524 357,527 354,530 360,536 361,534 363,537 364,532 366,540 391,540 405,547 410,542 404,536 398,534 394,528 392,522 393,520 396,528 401,533 409,537 410,535 408,533 415,538 446,542 448,544 446,546 446,556 456,558 442,557 445,556 446,545 444,543 429,543 416,540 415,541 418,543 416,544 417,552 408,552 393,545 382,556 383,559 494,559 496,557 497,546 495,540 488,543 469,543 467,545 467,553 465,549 466,542 483,540 488,541 498,537 496,539 498,540 498,561 456,563 384,562 382,564 402,584 409,583 410,585 413,578 437,580 444,581 450,584 458,584 460,577 473,577 484,579 497,584 500,599 498,606 495,608 483,614 469,615 482,613 489,607 480,599 475,599 474,602 473,600 471,603 468,603 466,599 451,599 435,615 451,616 457,618 477,618 493,615 500,612 504,608 507,608 504,611 504,613 491,619 480,621 450,620 448,622 449,623 467,623 452,626 459,633 497,633 503,631 523,631 530,633 538,633 538,631 533,630 553,631 555,629 551,625 543,625 543,628 537,628 536,627 540,627 542,625 536,622 554,621 536,619 511,620 507,617 507,611 511,609 516,602 513,594 513,591 514,593 515,590 511,583 511,579 508,575 512,573 517,576 527,577 539,584 546,575 558,566 566,562 571,554 577,554 578,552 564,552 558,555 532,561 527,565 522,565 519,563 514,552 510,557 512,552 514,550 515,552 516,551 515,545 520,541 530,539 650,540 664,526 651,513 649,517 644,520 635,522 630,521 627,523 622,521 622,518 624,521 628,521 629,514 624,514 620,512 625,512 626,510 633,508 635,510 632,512 636,516 639,513 637,512 637,510 644,508 637,507 640,506 640,504 632,504 632,506 630,506 632,504 631,503 624,503 621,500 620,503 620,499 623,501 633,501 636,498 622,484 619,483 598,484 586,482 572,496 573,498 581,501 595,503 598,503 598,501 600,502 598,503 601,505 602,508 601,516 598,519 589,522 566,525 542,524 536,521 530,521 520,516 518,514 518,506 520,504 532,503 535,501 538,503 550,501 550,505 553,507 551,508 549,515 549,508 547,504 539,507 534,505 530,507 525,506 520,509 520,512 525,516 530,518 534,517 539,520 549,522 560,523 578,521 593,518 598,515 600,511 598,510 598,506 575,504 573,502 568,502 570,500 566,498 565,490 568,484 566,483 570,477 568,471 570,470 560,462 566,464 569,467 575,467 578,465 601,460 604,457 607,457 606,465 603,467 602,471 597,477 608,479 609,480 606,480 606,482 636,482 642,478 639,478 639,473 632,473 633,472 651,469 653,471 653,477 650,480 643,480 640,484 660,502 679,483 672,480 671,462 678,464 692,464 694,468 701,461" stroke="rgb(0,0,0)" /><polygon points="396,395 394,391 389,389 357,390 366,391 366,407 376,407 376,404 379,404 379,406 387,404 388,403 386,402 389,398 390,399 392,397 384,392 393,394 395,396 396,395" stroke="rgb(0,0,0)" /><polygon points="701,577 701,569 700,568 698,571 699,567 701,566 698,559 698,547 700,537 699,508 701,501 699,492 695,488 687,496 688,505 685,505 683,507 689,510 689,515 684,518 685,527 691,531 693,527 693,521 691,517 694,521 694,527 691,531 690,542 688,543 674,540 680,540 680,534 683,540 688,540 689,533 683,527 683,520 679,520 676,518 676,510 675,509 673,512 671,511 672,503 685,504 687,502 685,495 686,493 684,492 688,488 687,480 688,479 688,484 690,485 691,480 692,479 693,482 694,479 695,480 697,478 684,465 675,465 674,477 676,479 678,478 678,481 673,481 671,462 678,463 680,461 678,459 663,459 661,455 660,441 657,444 654,442 651,445 640,445 623,440 621,437 621,429 623,424 629,417 620,408 613,412 615,408 618,406 607,395 591,411 593,413 599,414 603,412 603,417 594,418 588,414 581,421 587,426 595,427 599,426 599,423 604,422 605,427 601,430 600,438 605,438 606,441 605,444 601,446 599,443 575,445 523,445 517,443 519,439 517,437 515,438 513,434 502,432 500,433 500,441 498,445 499,446 471,442 461,442 461,437 467,440 496,442 499,430 452,428 452,430 459,430 458,431 460,435 459,436 456,433 448,431 447,444 445,445 372,446 357,448 349,446 334,461 337,464 341,464 342,465 339,466 353,480 355,480 362,473 363,468 359,466 365,465 356,463 357,462 394,464 405,466 411,469 401,467 382,467 366,465 365,470 368,471 370,469 368,471 372,472 374,476 377,473 384,475 377,474 375,477 376,483 386,483 386,481 415,481 415,470 421,471 417,472 417,480 422,481 422,483 456,483 470,469 469,466 434,467 419,466 406,463 493,464 501,467 502,466 503,473 501,478 492,484 479,486 368,485 366,488 365,486 364,488 362,484 316,485 309,486 295,500 299,504 337,503 302,505 301,506 305,508 304,509 313,518 361,516 362,517 364,504 371,504 373,502 376,503 377,507 380,504 390,503 393,506 393,511 396,518 396,521 392,509 389,506 381,506 376,511 376,513 378,518 381,518 382,516 383,517 382,521 377,526 372,522 368,526 365,526 363,518 362,522 352,523 345,522 293,524 292,525 294,527 291,530 304,543 347,540 359,541 362,539 362,536 363,539 364,538 364,532 366,540 391,540 404,547 414,550 415,544 409,541 404,536 398,534 394,528 392,522 393,520 396,528 401,533 409,537 410,535 408,533 415,538 446,542 448,544 446,546 446,556 456,558 442,557 445,556 446,545 444,543 429,543 416,540 415,541 418,543 416,544 417,552 405,551 388,542 377,542 377,544 381,544 370,546 373,548 371,549 372,554 369,548 367,549 366,546 363,546 363,554 364,555 365,553 364,556 369,559 494,559 496,557 497,546 495,540 488,543 469,543 467,545 467,553 465,549 466,542 483,540 488,541 498,537 496,539 498,540 498,561 456,563 372,562 363,559 360,548 352,551 330,551 327,553 328,557 338,557 342,561 360,569 363,576 367,576 378,581 402,584 409,583 410,585 413,578 444,581 450,584 458,584 460,577 473,577 488,580 498,585 497,588 500,599 498,606 495,608 483,614 469,615 482,613 493,606 498,599 498,596 496,596 496,598 494,594 497,594 495,589 490,584 477,581 468,582 467,595 470,597 478,596 479,594 482,595 484,593 492,598 488,598 483,595 481,597 482,601 480,599 475,599 474,602 473,600 471,603 468,603 466,599 427,599 415,602 413,601 412,593 407,592 402,601 386,599 331,599 301,602 288,599 216,599 212,603 222,605 242,605 277,608 296,608 304,604 312,603 306,606 309,607 308,608 299,613 299,619 303,622 310,617 322,614 323,617 451,616 457,618 477,618 493,615 500,612 504,608 507,608 504,611 504,613 499,616 480,621 456,621 439,619 327,619 321,621 319,619 313,619 306,624 306,630 309,633 324,637 369,637 370,635 328,635 327,634 331,632 360,632 351,630 332,630 320,628 319,625 361,629 363,624 369,624 381,626 384,628 384,632 386,633 386,624 392,622 467,623 461,625 420,625 418,627 412,625 394,625 389,627 389,629 393,631 412,631 416,629 433,630 443,633 437,633 437,635 452,635 458,633 478,632 497,633 503,631 523,631 530,633 538,633 538,631 533,630 555,631 557,629 557,626 551,624 543,625 543,628 537,628 536,627 540,627 542,625 536,622 554,621 536,619 511,620 507,617 507,611 511,609 516,602 513,594 513,591 514,593 515,590 511,583 511,579 508,575 512,573 517,576 527,577 539,584 546,575 558,566 566,562 571,554 577,554 578,552 564,552 558,555 532,561 527,565 522,565 519,563 514,552 510,557 512,552 514,550 515,552 516,551 515,545 520,541 530,539 651,540 628,542 600,541 600,543 615,543 612,545 604,545 604,547 600,548 602,556 598,558 580,561 575,564 586,574 606,570 605,572 591,575 591,577 609,574 617,570 632,571 629,573 622,572 618,575 624,582 627,579 626,578 629,577 649,577 665,561 663,559 625,560 621,557 620,549 623,548 621,552 624,558 650,557 671,559 671,550 676,546 679,547 683,555 687,552 687,548 682,544 685,544 689,549 686,555 690,556 694,562 692,567 694,578 688,584 690,586 688,593 692,597 697,598 700,595 698,590 698,588 699,590 700,589 698,580 700,580 699,578 701,577" stroke="rgb(0,0,0)" /><polygon points="693,461 691,459 665,460 662,458 660,411 661,403 654,396 652,398 651,428 653,443 651,445 640,445 622,439 621,429 623,424 632,415 645,409 647,407 647,403 645,402 629,404 618,408 614,412 613,411 619,405 618,403 621,401 631,399 636,399 636,401 643,401 647,400 647,395 649,397 650,394 644,390 641,391 625,385 623,386 622,381 632,386 635,383 630,378 628,382 620,376 619,368 621,363 612,354 611,356 612,354 607,349 601,357 601,369 599,370 591,366 579,377 586,384 592,383 601,378 601,382 599,384 601,386 600,399 588,410 589,413 592,415 593,413 599,414 603,412 603,417 594,418 588,414 587,410 581,408 577,409 573,407 570,402 571,394 567,390 552,404 555,407 557,407 558,415 555,418 556,419 561,417 575,424 595,427 599,426 599,423 604,422 605,427 601,430 600,438 605,438 606,441 605,444 601,446 599,443 575,445 523,445 517,443 519,439 517,437 515,438 513,434 502,432 500,433 500,441 498,445 499,446 471,442 461,442 461,437 467,440 496,442 499,430 452,428 452,430 459,430 458,431 460,435 459,436 456,433 448,431 447,444 445,445 372,446 355,448 354,447 362,446 364,444 363,441 365,438 367,444 368,442 370,444 444,442 446,429 384,428 370,429 368,431 359,431 366,429 313,428 312,440 314,440 315,442 312,443 313,444 348,444 346,446 310,446 306,449 299,451 273,452 261,454 256,452 231,454 170,453 169,489 172,489 169,497 170,515 168,532 173,535 178,530 180,531 180,536 169,543 169,555 166,566 166,571 169,573 166,575 165,581 165,573 163,573 162,589 164,589 165,591 168,585 168,589 171,586 168,592 167,591 165,594 165,592 163,592 164,597 172,596 176,588 180,588 181,595 166,598 160,604 182,607 194,606 196,604 204,604 208,600 196,598 195,596 198,593 197,592 183,594 183,590 185,588 195,587 198,588 198,590 201,590 202,587 199,586 199,584 201,582 206,581 232,580 223,581 223,583 228,583 220,586 227,593 239,593 248,584 248,582 236,581 253,579 270,562 210,560 201,561 198,558 197,560 197,553 198,556 199,551 204,546 201,545 203,542 198,540 217,538 289,543 307,525 285,523 201,523 197,520 207,520 200,518 316,518 320,514 311,505 284,506 276,504 211,505 209,507 212,510 255,506 240,510 200,513 198,511 203,505 219,502 246,501 272,502 286,505 309,503 333,503 345,492 360,507 361,504 360,507 362,509 365,503 371,504 375,502 377,507 380,504 390,503 393,506 396,521 392,509 390,507 382,515 383,517 381,522 388,529 393,524 389,522 392,522 393,520 396,528 401,533 409,537 410,535 408,533 415,538 424,540 444,541 448,544 446,546 446,556 456,558 443,558 442,557 445,556 445,550 438,543 430,543 417,556 417,558 420,560 494,559 496,557 497,546 495,540 488,543 469,543 467,545 467,553 465,549 466,542 483,540 488,541 498,537 496,539 498,540 498,561 456,563 419,562 417,564 433,580 444,581 450,584 458,584 460,577 473,577 488,580 497,584 500,598 498,606 483,614 469,616 471,618 486,617 496,614 504,608 507,608 501,615 481,621 493,632 497,633 503,631 518,631 528,621 526,619 511,620 506,615 507,611 511,609 516,602 513,594 513,591 514,593 515,590 511,583 511,579 508,575 512,573 517,576 527,577 539,584 546,575 558,566 566,562 571,554 577,553 575,551 564,552 558,555 532,561 527,565 522,565 519,563 514,552 510,557 512,552 514,550 515,552 516,551 515,545 520,541 530,539 617,539 630,526 626,522 622,521 622,518 603,499 599,503 602,508 601,516 598,519 589,522 566,525 552,525 542,524 536,521 530,521 520,516 518,514 518,506 520,504 532,503 535,501 538,503 550,501 550,505 553,507 551,508 549,515 549,508 547,504 539,507 534,505 530,507 525,506 520,509 520,512 530,518 534,517 542,521 558,523 578,521 593,518 598,515 600,511 598,510 598,506 575,504 573,502 568,502 570,500 566,498 565,490 568,484 566,483 570,477 568,471 570,470 560,462 566,464 569,467 575,467 578,465 601,460 604,457 607,457 606,465 603,467 602,471 597,477 608,479 609,480 606,480 606,482 636,482 642,478 639,478 639,473 632,473 633,472 651,469 653,471 653,477 650,480 645,481 660,494 673,481 671,462 678,464 690,464 693,461" stroke="rgb(0,0,0)" /><polygon points="298,397 298,395 292,392 293,391 290,388 231,387 228,389 213,388 213,390 179,390 165,388 165,385 163,383 162,387 160,388 163,392 161,392 158,386 159,382 158,381 157,383 157,380 154,378 148,383 148,386 146,387 146,392 148,393 148,396 151,398 149,400 154,408 156,406 172,406 199,409 296,407 297,406 294,403 283,404 280,403 280,401 268,401 278,399 294,399 298,397" stroke="rgb(0,0,0)" /></svg>