<?xml version="1.0" encoding="utf-8" ?>
<svg baseProfile="full" height="100%" version="1.1" width="100%" xmlns="http://www.w3.org/2000/svg" xmlns:ev="http://www.w3.org/2001/xml-events" xmlns:xlink="http://www.w3.org/1999/xlink"><defs /><polygon points="690,354 688,354 690,354" stroke="rgb(0,0,0)" /><polygon points="672,660 670,660 672,660" stroke="rgb(0,0,0)" /><polygon points="647,590 645,590 647,590" stroke="rgb(0,0,0)" /><polygon points="635,279 633,279 635,279" stroke="rgb(0,0,0)" /><polygon points="631,361 629,361 631,361" stroke="rgb(0,0,0)" /><polygon points="629,429 627,429 629,429" stroke="rgb(0,0,0)" /><polygon points="585,664 583,664 585,664" stroke="rgb(0,0,0)" /><polygon points="578,396 576,396 578,396" stroke="rgb(0,0,0)" /><polygon points="578,125 577,123 576,125 578,125" stroke="rgb(0,0,0)" /><polygon points="577,588 575,588 577,588" stroke="rgb(0,0,0)" /><polygon points="576,238 574,238 576,238" stroke="rgb(0,0,0)" /><polygon points="576,201 574,201 576,201" stroke="rgb(0,0,0)" /><polygon points="567,280 565,280 567,280" stroke="rgb(0,0,0)" /><polygon points="538,666 536,666 538,666" stroke="rgb(0,0,0)" /><polygon points="530,316 528,316 530,316" stroke="rgb(0,0,0)" /><polygon points="524,392 522,392 524,392" stroke="rgb(0,0,0)" /><polygon points="524,201 522,201 524,201" stroke="rgb(0,0,0)" /><polygon points="523,551 521,551 523,551" stroke="rgb(0,0,0)" /><polygon points="518,238 516,238 518,238" stroke="rgb(0,0,0)" /><polygon points="489,202 487,202 489,202" stroke="rgb(0,0,0)" /><polygon points="487,435 485,435 487,435" stroke="rgb(0,0,0)" /><polygon points="482,281 480,281 482,281" stroke="rgb(0,0,0)" /><polygon points="480,548 478,548 480,548" stroke="rgb(0,0,0)" /><polygon points="479,474 477,474 479,474" stroke="rgb(0,0,0)" /><polygon points="478,393 476,393 478,393" stroke="rgb(0,0,0)" /><polygon points="476,241 474,241 476,241" stroke="rgb(0,0,0)" /><polygon points="448,132 446,132 448,132" stroke="rgb(0,0,0)" /><polygon points="437,434 435,434 437,434" stroke="rgb(0,0,0)" /><polygon points="431,398 429,398 431,398" stroke="rgb(0,0,0)" /><polygon points="431,357 429,357 431,357" stroke="rgb(0,0,0)" /><polygon points="429,587 427,587 429,587" stroke="rgb(0,0,0)" /><polygon points="426,512 424,512 426,512" stroke="rgb(0,0,0)" /><polygon points="416,469 414,469 416,469" stroke="rgb(0,0,0)" /><polygon points="372,398 370,398 372,398" stroke="rgb(0,0,0)" /><polygon points="332,626 330,626 332,626" stroke="rgb(0,0,0)" /><polygon points="328,437 326,437 328,437" stroke="rgb(0,0,0)" /><polygon points="275,397 273,397 275,397" stroke="rgb(0,0,0)" /></svg>