<?xml version="1.0" encoding="utf-8" ?>
<svg baseProfile="full" height="100%" version="1.1" width="100%" xmlns="http://www.w3.org/2000/svg" xmlns:ev="http://www.w3.org/2001/xml-events" xmlns:xlink="http://www.w3.org/1999/xlink"><defs /><polygon points="199,163 186,163 199,163" stroke="rgb(0,0,0)" /><polygon points="206,510 204,510 206,510" stroke="rgb(0,0,0)" /><polygon points="274,250 272,246 269,249 266,248 265,250 255,250 254,249 258,247 257,244 247,244 247,242 243,244 243,242 238,241 234,243 235,241 229,238 225,238 225,240 221,238 208,239 208,243 211,246 209,250 213,253 216,252 216,247 218,252 220,250 218,245 221,243 223,245 220,248 222,252 228,251 229,247 229,249 231,250 232,245 232,249 234,251 230,251 230,253 255,252 260,253 274,250" stroke="rgb(0,0,0)" /><polygon points="251,407 251,404 248,402 234,402 231,395 229,397 224,393 220,393 218,391 213,390 180,390 179,393 172,393 173,396 175,396 175,401 173,403 175,405 187,405 189,406 189,408 208,408 210,406 213,408 222,408 223,406 224,408 251,407" stroke="rgb(0,0,0)" /><polygon points="213,546 211,544 210,545 211,548 213,546" stroke="rgb(0,0,0)" /><polygon points="291,172 284,170 276,171 275,169 264,169 262,171 259,166 256,167 253,165 243,169 235,169 230,167 201,168 201,166 188,166 188,168 185,169 188,171 183,171 180,174 184,175 182,177 183,178 180,179 187,181 210,181 210,184 223,183 229,184 229,188 234,188 249,185 267,185 267,183 269,184 271,181 269,179 270,177 275,177 279,175 280,176 285,173 291,172" stroke="rgb(0,0,0)" /><polygon points="263,242 261,242 263,242" stroke="rgb(0,0,0)" /><polygon points="296,397 294,393 290,394 285,392 280,392 280,394 278,395 284,397 276,397 278,395 276,392 248,392 248,389 245,387 243,387 242,389 246,391 240,392 239,389 233,393 235,394 234,397 237,400 240,399 251,401 290,399 296,397" stroke="rgb(0,0,0)" /><polygon points="293,356 291,356 293,356" stroke="rgb(0,0,0)" /><polygon points="319,281 318,277 316,280 318,282 319,281" stroke="rgb(0,0,0)" /><polygon points="361,245 360,243 351,244 350,243 352,243 352,241 340,240 345,240 345,238 324,238 322,240 325,242 321,242 319,244 318,243 316,248 317,249 315,251 317,252 319,248 325,249 325,247 327,248 327,250 333,250 347,249 348,246 356,247 361,245" stroke="rgb(0,0,0)" /><polygon points="363,183 361,180 360,182 358,182 356,178 355,179 357,174 361,170 359,175 361,176 363,174 363,169 361,167 362,164 360,161 352,163 347,162 347,160 337,159 336,160 339,161 338,162 342,166 341,173 338,176 334,178 306,180 306,184 314,185 342,183 349,184 348,189 333,189 328,191 274,190 274,192 268,192 268,190 225,190 218,191 217,193 221,194 243,192 250,194 259,193 262,195 283,194 283,196 289,196 293,198 293,201 290,198 286,202 284,201 284,203 282,202 284,201 283,200 279,199 276,201 272,200 269,202 250,202 235,200 226,203 236,206 259,209 262,208 264,211 266,209 269,212 273,212 274,210 274,213 280,209 282,212 285,213 285,215 279,218 285,219 276,220 273,222 274,223 296,223 296,221 298,221 298,223 357,222 362,220 360,216 355,216 355,218 353,219 354,218 350,216 325,216 325,218 323,219 310,219 310,217 307,217 309,215 308,213 307,214 307,198 311,194 310,193 312,195 337,195 341,198 341,200 337,202 337,200 335,202 332,200 319,200 318,202 321,203 316,204 318,206 315,211 316,213 322,211 323,204 323,212 359,212 359,210 362,209 361,201 357,201 357,199 354,196 354,200 350,201 350,196 353,196 354,193 357,193 357,191 355,191 356,189 360,185 359,184 361,185 363,183" stroke="rgb(0,0,0)" /><polygon points="388,399 388,397 383,395 383,393 378,393 384,392 385,391 383,389 371,389 371,392 368,393 377,396 368,396 366,404 373,405 378,403 384,403 388,399" stroke="rgb(0,0,0)" /><polygon points="443,512 442,508 431,506 423,510 423,515 420,515 419,512 418,519 421,521 421,518 423,517 424,519 426,518 427,521 430,522 434,518 442,517 442,514 440,512 431,514 436,511 436,509 442,513 443,512" stroke="rgb(0,0,0)" /><polygon points="460,594 459,590 452,590 449,587 438,584 417,582 414,586 417,586 416,588 419,596 420,590 423,593 427,593 429,596 442,596 443,594 447,595 448,593 454,595 460,594" stroke="rgb(0,0,0)" /><polygon points="434,695 432,695 434,695" stroke="rgb(0,0,0)" /><polygon points="558,131 558,119 556,112 557,100 555,97 554,99 555,97 553,95 550,96 550,93 527,94 524,97 512,97 496,94 477,94 471,96 456,96 456,94 449,94 448,97 454,104 452,105 453,108 474,107 475,109 476,107 477,109 482,110 485,109 485,107 493,106 493,98 496,99 497,106 523,107 518,107 518,109 522,109 516,109 509,115 502,118 498,118 497,120 488,119 479,121 463,121 450,119 450,115 445,117 444,119 441,119 439,116 437,118 440,125 503,124 494,126 503,128 493,128 486,130 449,130 443,128 441,131 441,135 445,140 444,141 448,141 448,143 454,144 499,144 527,143 527,141 531,140 539,141 542,138 540,135 541,131 539,126 548,124 556,125 556,131 558,131" stroke="rgb(0,0,0)" /><polygon points="493,589 490,585 481,585 476,584 475,582 470,582 468,585 470,586 470,589 472,591 472,595 474,595 474,593 476,594 477,592 478,594 479,591 484,590 485,588 486,590 493,589" stroke="rgb(0,0,0)" /><polygon points="496,243 494,236 486,235 482,238 478,236 474,237 469,242 469,246 472,247 472,244 474,245 472,247 473,251 485,251 485,249 477,248 482,245 496,243" stroke="rgb(0,0,0)" /><polygon points="496,400 496,397 494,397 496,392 493,389 491,389 491,391 488,392 486,396 487,392 484,391 480,393 474,393 468,397 471,400 470,402 472,404 474,402 485,401 491,401 491,403 493,403 496,400" stroke="rgb(0,0,0)" /><polygon points="500,473 499,470 492,469 494,469 494,467 481,468 473,466 464,466 459,467 470,468 470,481 477,481 478,478 479,482 486,482 491,478 494,477 495,479 500,473" stroke="rgb(0,0,0)" /><polygon points="496,557 495,541 490,543 471,543 471,552 470,547 469,552 467,552 470,557 468,558 469,559 484,559 488,556 493,558 494,556 495,558 496,557" stroke="rgb(0,0,0)" /><polygon points="494,281 494,279 490,276 486,279 476,282 474,286 477,288 485,289 485,283 494,281" stroke="rgb(0,0,0)" /><polygon points="485,201 484,198 470,199 472,203 478,201 478,203 482,203 485,201" stroke="rgb(0,0,0)" /><polygon points="551,654 550,651 546,650 527,649 504,649 502,651 441,649 439,651 435,651 426,649 378,648 377,672 379,679 377,682 379,685 380,684 380,686 377,689 380,691 377,692 379,693 378,699 380,700 380,704 382,706 385,700 383,695 383,689 384,695 386,696 390,693 390,689 401,688 387,686 387,668 385,668 385,671 382,671 381,664 382,658 383,660 384,657 386,660 393,659 404,662 442,665 442,690 444,693 445,672 449,672 450,697 452,694 451,685 452,692 454,692 453,686 454,691 456,691 455,676 457,672 445,668 446,660 461,660 495,665 496,659 498,658 512,661 539,662 539,660 531,659 544,660 544,658 549,657 551,654" stroke="rgb(0,0,0)" /><polygon points="496,513 495,510 485,510 485,507 470,508 471,511 483,512 492,516 494,516 494,514 496,513" stroke="rgb(0,0,0)" /><polygon points="498,437 498,432 493,430 484,431 484,429 474,429 474,431 463,430 461,432 471,440 476,440 476,438 483,438 486,441 489,441 496,438 496,433 496,437 498,437" stroke="rgb(0,0,0)" /><polygon points="515,698 510,696 508,698 515,698" stroke="rgb(0,0,0)" /><polygon points="524,278 522,278 524,278" stroke="rgb(0,0,0)" /><polygon points="547,397 546,389 528,389 528,391 523,390 522,394 520,394 522,398 523,397 523,399 531,399 531,401 536,402 541,397 539,395 543,395 542,397 545,400 547,397" stroke="rgb(0,0,0)" /><polygon points="599,550 599,548 596,545 595,546 595,544 583,545 583,543 571,543 571,545 565,545 562,543 558,543 554,545 554,543 542,542 542,544 546,544 530,550 522,550 521,551 523,553 520,553 519,556 521,559 525,561 528,557 532,555 541,552 557,550 563,547 566,547 566,549 587,548 585,550 587,553 599,550" stroke="rgb(0,0,0)" /><polygon points="548,512 548,509 546,507 543,508 543,506 538,507 537,508 540,509 539,510 537,510 536,508 533,510 528,508 523,511 525,515 527,513 526,512 529,512 533,516 540,514 537,516 542,519 548,512" stroke="rgb(0,0,0)" /><polygon points="528,201 526,201 528,201" stroke="rgb(0,0,0)" /><polygon points="558,131 558,119 556,112 557,100 555,97 554,99 555,97 553,95 550,96 550,93 527,94 524,97 512,97 496,94 477,94 471,96 456,96 456,94 449,94 448,97 454,104 452,105 453,108 474,107 475,109 476,107 477,109 482,110 485,109 485,107 493,106 493,98 496,99 497,106 523,107 518,107 518,109 522,109 516,109 509,115 502,118 498,118 497,120 488,119 479,121 463,121 450,119 450,115 445,117 444,119 441,119 439,116 437,118 440,125 503,124 494,126 503,128 493,128 486,130 449,130 443,128 441,131 441,135 445,140 444,141 448,141 448,143 454,144 499,144 527,143 527,141 531,140 539,141 542,138 540,135 541,131 539,126 548,124 556,125 556,131 558,131" stroke="rgb(0,0,0)" /><polygon points="534,716 532,714 526,716 534,716" stroke="rgb(0,0,0)" /><polygon points="551,654 550,651 546,650 527,649 504,649 502,651 441,649 439,651 435,651 426,649 378,648 377,672 379,679 377,682 379,685 380,684 380,686 377,689 380,691 377,692 379,693 378,699 380,700 380,704 382,706 385,700 383,695 383,689 384,695 386,696 390,693 390,689 401,688 387,686 387,668 385,668 385,671 382,671 381,664 382,658 383,660 384,657 386,660 393,659 404,662 442,665 442,690 444,693 445,672 449,672 450,697 452,694 451,685 452,692 454,692 453,686 454,691 456,691 455,676 457,672 445,668 446,660 461,660 495,665 496,659 498,658 512,661 539,662 539,660 531,659 544,660 544,658 549,657 551,654" stroke="rgb(0,0,0)" /><polygon points="625,580 622,578 621,580 619,580 617,577 607,577 604,579 604,581 588,583 581,586 581,588 579,588 578,586 571,589 570,591 574,592 574,595 578,594 576,592 582,595 586,595 586,593 601,592 603,592 605,595 615,595 615,592 620,592 617,588 619,587 617,585 620,588 621,584 625,580" stroke="rgb(0,0,0)" /><polygon points="736,98 734,97 734,95 731,94 710,97 698,95 696,96 690,94 691,90 689,88 683,89 681,87 646,94 617,92 573,92 572,107 573,108 575,105 587,104 622,105 650,111 652,113 662,114 663,107 662,106 660,108 660,104 662,101 665,102 666,104 683,104 698,102 698,104 703,104 704,102 713,104 716,101 723,101 729,99 730,97 731,99 736,98" stroke="rgb(0,0,0)" /><polygon points="578,395 576,395 578,395" stroke="rgb(0,0,0)" /><polygon points="584,629 584,626 580,625 580,621 578,619 572,618 569,621 571,624 574,623 572,626 574,626 576,629 584,629" stroke="rgb(0,0,0)" /><polygon points="655,121 580,119 578,122 577,120 575,123 575,119 573,118 572,126 573,133 575,134 577,131 578,133 580,130 581,133 618,130 626,126 636,125 643,122 655,121" stroke="rgb(0,0,0)" /><polygon points="595,694 589,693 584,689 571,690 573,696 595,694" stroke="rgb(0,0,0)" /><polygon points="668,663 667,660 662,659 629,661 606,658 595,659 572,657 571,673 573,673 574,670 577,670 575,668 575,665 577,664 583,664 584,665 577,665 576,667 579,670 583,668 586,671 594,669 596,671 648,672 658,671 659,670 657,669 660,667 659,666 666,666 668,663" stroke="rgb(0,0,0)" /><polygon points="633,281 631,277 627,279 629,284 631,284 633,281" stroke="rgb(0,0,0)" /><polygon points="650,422 648,421 648,414 644,412 639,416 636,416 634,420 629,422 625,426 625,430 629,435 630,434 629,436 631,436 632,438 635,437 634,433 637,439 635,440 639,441 639,428 645,428 647,432 649,430 650,422" stroke="rgb(0,0,0)" /><polygon points="633,359 631,359 633,359" stroke="rgb(0,0,0)" /><polygon points="668,663 667,660 662,659 629,661 606,658 595,659 572,657 571,673 573,673 574,670 577,670 575,668 575,665 577,664 583,664 584,665 577,665 576,667 579,670 583,668 586,671 594,669 596,671 648,672 658,671 659,670 657,669 660,667 659,666 666,666 668,663" stroke="rgb(0,0,0)" /><polygon points="692,357 690,357 692,357" stroke="rgb(0,0,0)" /><polygon points="753,625 743,625 753,625" stroke="rgb(0,0,0)" /><polygon points="761,538 760,534 759,538 761,538" stroke="rgb(0,0,0)" /></svg>