<?xml version="1.0" encoding="utf-8" ?>
<svg baseProfile="full" height="100%" version="1.1" width="100%" xmlns="http://www.w3.org/2000/svg" xmlns:ev="http://www.w3.org/2001/xml-events" xmlns:xlink="http://www.w3.org/1999/xlink"><defs /><polygon points="196,163 196,163 196,162 196,162 195,162 195,162 195,163 195,163 196,163" stroke="rgb(0,0,0)" /><polygon points="205,510 205,510 205,509 205,509 204,509 204,509 204,510 204,510 205,510" stroke="rgb(0,0,0)" /><polygon points="210,239 210,239 210,238 210,238 209,238 209,238 209,239 209,239 210,239" stroke="rgb(0,0,0)" /><polygon points="211,398 211,398 212,397 212,397 211,396 211,396 210,396 210,396 210,397 210,397 210,398 210,398 211,398" stroke="rgb(0,0,0)" /><polygon points="211,547 211,547 211,546 211,546 210,546 210,546 210,547 210,547 211,547" stroke="rgb(0,0,0)" /><polygon points="254,169 254,169 254,168 254,168 253,168 253,168 253,169 253,169 254,169" stroke="rgb(0,0,0)" /><polygon points="262,242 262,242 262,241 262,241 261,241 261,241 261,242 261,242 262,242" stroke="rgb(0,0,0)" /><polygon points="272,397 272,397 272,396 272,396 271,396 271,396 271,397 271,397 272,397" stroke="rgb(0,0,0)" /><polygon points="292,356 292,356 292,355 292,355 291,355 291,355 291,356 291,356 292,356" stroke="rgb(0,0,0)" /><polygon points="317,280 317,280 317,279 317,279 316,279 316,279 316,280 316,280 317,280" stroke="rgb(0,0,0)" /><polygon points="319,245 319,245 319,244 319,244 318,244 318,244 318,245 318,245 319,245" stroke="rgb(0,0,0)" /><polygon points="320,204 320,204 320,203 320,203 319,203 319,203 319,204 319,204 320,204" stroke="rgb(0,0,0)" /><polygon points="382,398 382,398 382,397 382,397 381,397 381,397 381,398 381,398 382,398" stroke="rgb(0,0,0)" /><polygon points="425,511 425,511 425,510 425,510 424,510 424,510 424,511 424,511 425,511" stroke="rgb(0,0,0)" /><polygon points="430,588 430,588 430,587 430,587 429,587 429,587 429,588 429,588 430,588" stroke="rgb(0,0,0)" /><polygon points="433,695 433,695 433,694 433,694 432,694 432,694 432,695 432,695 433,695" stroke="rgb(0,0,0)" /><polygon points="452,131 452,131 452,130 452,130 451,130 451,130 451,131 451,131 452,131" stroke="rgb(0,0,0)" /><polygon points="471,588 471,588 471,587 471,587 470,587 470,587 470,588 470,588 471,588" stroke="rgb(0,0,0)" /><polygon points="474,241 474,241 474,240 474,240 473,240 473,240 473,241 473,241 474,241" stroke="rgb(0,0,0)" /><polygon points="475,394 475,394 475,393 475,393 474,393 474,393 474,394 474,394 475,394" stroke="rgb(0,0,0)" /><polygon points="477,474 477,474 477,473 477,473 476,473 476,473 476,474 476,474 477,474" stroke="rgb(0,0,0)" /><polygon points="477,548 477,548 477,547 477,547 476,547 476,547 476,548 476,548 477,548" stroke="rgb(0,0,0)" /><polygon points="480,281 480,281 480,280 480,280 479,280 479,280 479,281 479,281 480,281" stroke="rgb(0,0,0)" /><polygon points="482,201 482,201 482,200 482,200 481,200 481,200 481,201 481,201 482,201" stroke="rgb(0,0,0)" /><polygon points="482,656 482,656 482,655 482,655 481,655 481,655 481,656 481,656 482,656" stroke="rgb(0,0,0)" /><polygon points="483,511 483,511 483,510 483,510 482,510 482,510 482,511 482,511 483,511" stroke="rgb(0,0,0)" /><polygon points="487,435 487,435 487,434 487,434 486,434 486,434 486,435 486,435 487,435" stroke="rgb(0,0,0)" /><polygon points="510,697 510,697 510,696 510,696 509,696 509,696 509,697 509,697 510,697" stroke="rgb(0,0,0)" /><polygon points="523,278 523,278 523,277 523,277 522,277 522,277 522,278 522,278 523,278" stroke="rgb(0,0,0)" /><polygon points="523,393 523,393 523,392 523,392 522,392 522,392 522,393 522,393 523,393" stroke="rgb(0,0,0)" /><polygon points="523,551 523,551 523,550 523,550 522,550 522,550 522,551 522,551 523,551" stroke="rgb(0,0,0)" /><polygon points="525,510 525,510 525,509 525,509 524,509 524,509 524,510 524,510 525,510" stroke="rgb(0,0,0)" /><polygon points="527,201 527,201 527,200 527,200 526,200 526,200 526,201 526,201 527,201" stroke="rgb(0,0,0)" /><polygon points="529,134 529,134 529,133 529,133 528,133 528,133 528,134 528,134 529,134" stroke="rgb(0,0,0)" /><polygon points="532,715 532,715 532,714 532,714 531,714 531,714 531,715 531,715 532,715" stroke="rgb(0,0,0)" /><polygon points="540,658 540,658 540,657 540,657 539,657 539,657 539,658 539,658 540,658" stroke="rgb(0,0,0)" /><polygon points="575,588 575,588 575,587 575,587 574,587 574,587 574,588 574,588 575,588" stroke="rgb(0,0,0)" /><polygon points="577,102 577,102 577,101 577,101 576,101 576,101 576,102 576,102 577,102" stroke="rgb(0,0,0)" /><polygon points="577,395 577,395 577,394 577,394 576,394 576,394 576,395 576,395 577,395" stroke="rgb(0,0,0)" /><polygon points="578,622 578,622 578,621 578,621 577,621 577,621 577,622 577,622 578,622" stroke="rgb(0,0,0)" /><polygon points="579,122 579,122 579,121 579,121 578,121 578,121 578,122 578,122 579,122" stroke="rgb(0,0,0)" /><polygon points="580,690 580,690 580,689 580,689 579,689 579,689 579,690 579,690 580,690" stroke="rgb(0,0,0)" /><polygon points="585,663 585,663 585,662 585,662 584,662 584,662 584,663 584,663 585,663" stroke="rgb(0,0,0)" /><polygon points="629,278 629,278 629,277 629,277 628,277 628,277 628,278 628,278 629,278" stroke="rgb(0,0,0)" /><polygon points="630,428 630,428 630,427 630,427 629,427 629,427 629,428 629,428 630,428" stroke="rgb(0,0,0)" /><polygon points="632,359 632,359 632,358 632,358 631,358 631,358 631,359 631,359 632,359" stroke="rgb(0,0,0)" /><polygon points="665,662 665,662 665,661 665,661 664,661 664,661 664,662 664,662 665,662" stroke="rgb(0,0,0)" /><polygon points="691,357 691,357 691,356 691,356 690,356 690,356 690,357 690,357 691,357" stroke="rgb(0,0,0)" /><polygon points="751,625 751,625 751,624 751,624 750,624 750,624 750,625 750,625 751,625" stroke="rgb(0,0,0)" /><polygon points="760,538 760,538 760,537 760,537 759,537 759,537 759,538 759,538 760,538" stroke="rgb(0,0,0)" /></svg>