<?xml version="1.0" encoding="utf-8" ?>
<svg baseProfile="full" height="100%" version="1.1" width="100%" xmlns="http://www.w3.org/2000/svg" xmlns:ev="http://www.w3.org/2001/xml-events" xmlns:xlink="http://www.w3.org/1999/xlink"><defs /><polygon points="446,83 367,83 365,81 345,81 345,83 329,83 329,81 281,82 273,83 272,86 298,86 304,91 304,95 297,98 303,94 299,91 276,87 274,89 274,92 277,93 280,90 282,90 283,94 274,99 270,103 268,114 265,113 267,112 266,111 234,113 243,111 198,110 198,112 218,112 217,114 220,117 211,114 210,115 214,117 210,118 215,120 202,120 202,122 183,123 206,124 205,125 181,126 215,126 237,128 259,127 263,130 261,132 263,134 260,131 255,131 248,134 224,132 224,136 232,139 224,138 219,139 219,141 210,141 201,140 198,138 189,138 189,140 182,140 182,142 197,142 202,144 202,146 253,146 263,147 264,149 263,152 220,151 217,153 204,150 182,150 181,152 183,154 183,158 180,161 181,164 227,166 213,167 183,165 183,170 179,175 180,176 178,177 179,181 175,186 221,187 221,185 181,184 223,184 222,185 226,188 258,187 267,189 286,189 286,187 282,187 286,185 296,185 297,178 286,176 278,181 278,177 283,176 285,174 291,176 296,174 297,168 295,153 291,152 287,155 288,152 295,150 295,148 299,147 297,144 299,142 298,141 300,141 301,144 304,144 304,147 313,148 343,146 364,147 366,145 375,147 394,147 400,145 398,143 405,145 401,145 401,147 430,146 430,135 427,133 430,130 429,129 432,93 429,89 435,86 435,84 446,83" stroke="rgb(0,0,0)" /><polygon points="600,511 598,510 598,506 575,504 573,501 569,502 570,500 565,495 565,490 568,485 567,481 570,478 570,470 560,462 565,463 567,461 558,452 546,464 557,466 561,469 536,466 530,464 528,464 523,469 535,481 547,481 549,483 549,470 552,476 551,486 547,492 538,494 547,490 551,485 550,482 547,486 547,483 534,483 506,487 515,484 512,483 515,481 518,469 516,464 511,459 505,457 503,454 509,456 510,455 507,452 513,454 517,457 519,461 525,460 533,462 547,448 544,445 518,444 518,441 537,442 539,440 528,429 507,430 516,431 516,435 512,433 501,432 500,441 498,445 461,441 463,439 466,439 489,441 496,443 498,441 498,429 452,428 452,430 458,431 454,433 448,431 447,432 447,444 445,445 359,447 364,444 365,439 367,444 444,442 446,429 374,429 313,427 313,444 348,445 311,446 304,452 303,449 295,452 278,452 265,454 257,454 255,452 239,454 170,453 168,485 170,496 169,505 166,508 168,499 168,458 166,453 164,452 162,464 163,507 161,531 163,534 164,541 166,536 167,517 170,507 168,532 173,535 178,530 181,532 181,536 172,540 171,545 169,547 168,562 166,566 166,571 169,571 169,573 165,575 165,581 165,573 163,573 163,587 165,591 166,587 168,586 166,592 163,592 163,596 172,596 176,588 179,588 182,594 185,588 197,587 197,590 201,590 202,587 199,586 201,582 219,580 233,581 223,581 223,583 228,583 220,586 206,587 199,592 236,592 244,594 232,595 280,598 283,597 283,595 296,595 301,597 307,597 308,592 310,592 309,594 311,596 318,595 313,596 313,598 335,596 374,596 402,598 403,593 404,591 406,591 406,589 414,590 414,595 418,598 431,596 466,596 467,591 465,588 462,590 457,589 456,587 453,586 446,586 442,584 420,581 416,581 413,587 410,588 405,586 376,584 367,579 359,577 358,579 361,588 359,590 361,591 356,594 345,594 343,593 344,591 342,589 340,594 340,588 338,586 322,582 315,582 312,580 274,581 272,583 265,585 259,585 271,582 273,580 269,578 282,579 295,577 313,577 317,579 323,579 340,583 348,591 357,591 359,589 356,578 349,574 347,568 330,562 210,560 201,561 198,559 197,560 197,553 198,556 199,551 204,546 201,544 203,543 210,543 208,545 209,546 206,547 201,553 203,559 309,558 309,546 307,544 266,545 245,542 198,541 208,538 296,543 347,540 359,541 362,539 361,534 362,538 364,538 363,518 362,522 353,523 346,522 283,525 282,523 200,523 197,520 248,520 200,518 327,518 347,516 360,517 361,514 362,516 363,515 364,504 371,504 375,502 377,507 378,505 379,506 381,504 385,504 380,506 376,510 377,517 379,519 381,518 381,522 380,525 379,524 377,526 365,526 365,524 363,524 366,540 392,540 402,546 414,550 415,544 409,541 404,536 398,534 394,528 393,521 398,531 409,537 410,534 415,538 424,540 446,542 446,556 455,558 445,558 446,545 444,543 431,543 419,540 415,541 417,552 406,551 389,542 374,543 371,546 371,548 369,548 365,552 364,556 366,558 420,560 495,559 497,548 495,540 487,543 468,543 467,553 466,542 483,540 488,541 498,537 496,539 498,540 497,559 502,560 501,561 456,563 470,577 488,580 496,584 499,593 498,605 503,609 515,598 513,592 514,595 516,597 517,596 511,582 511,578 518,595 530,583 527,580 515,578 510,573 517,576 524,576 533,580 547,566 540,559 535,560 527,565 521,565 515,554 516,545 520,541 530,539 573,540 586,527 582,523 558,526 542,524 536,521 530,521 518,514 518,506 517,505 516,507 517,504 519,502 521,504 531,503 535,501 538,503 548,501 550,505 553,507 550,509 549,514 549,508 547,504 540,507 534,505 530,507 524,506 520,510 520,512 530,518 534,517 542,521 557,523 593,518 597,516 600,511" stroke="rgb(0,0,0)" /><polygon points="662,343 661,338 623,340 638,338 613,336 609,334 613,334 613,332 607,331 587,329 582,329 582,331 572,330 569,324 570,317 567,316 572,313 567,311 525,311 521,315 519,326 520,312 518,310 520,309 512,306 498,304 513,305 525,309 574,309 575,308 572,307 573,306 581,304 574,302 588,300 597,297 604,291 603,289 598,292 595,292 595,290 588,290 583,292 554,295 552,294 553,292 561,291 555,285 550,292 542,292 536,296 538,298 572,298 554,300 569,301 568,302 557,302 540,305 521,305 526,303 541,303 552,301 520,300 519,299 521,297 518,291 481,291 478,294 478,291 472,289 466,296 464,296 468,302 466,303 471,306 473,306 474,304 475,305 473,306 477,308 501,312 503,314 503,324 494,329 464,331 460,333 445,334 447,332 455,330 495,326 501,321 502,317 499,313 476,313 479,311 464,305 464,291 469,286 470,288 472,287 470,283 471,278 474,278 479,274 469,274 461,281 465,274 468,272 478,270 482,272 517,271 517,269 506,269 520,267 497,266 503,266 503,264 430,264 427,266 430,270 442,274 447,278 447,292 446,285 440,291 435,293 429,291 426,292 425,295 423,293 417,294 417,265 419,262 418,261 422,259 422,256 419,254 418,250 417,252 416,241 420,236 419,239 421,241 423,240 426,244 429,241 429,232 431,231 430,232 432,233 434,231 433,228 425,228 425,226 372,227 372,229 367,229 367,231 370,232 381,231 391,234 396,239 396,244 393,249 386,254 377,254 373,256 364,257 362,256 361,252 308,256 311,254 309,251 310,250 307,249 310,247 310,244 306,243 311,240 310,239 299,240 278,238 265,240 275,244 272,244 248,239 256,239 259,237 258,236 228,236 228,238 225,238 223,237 223,235 206,234 203,236 209,237 205,239 205,241 207,241 205,249 207,252 208,250 209,254 233,253 273,254 306,252 302,254 293,255 210,256 206,258 197,258 199,254 199,249 196,248 196,246 169,246 168,247 171,249 169,249 169,251 165,255 166,258 162,266 163,270 162,269 159,272 155,273 147,281 137,299 135,306 132,310 134,312 133,325 131,309 136,296 140,290 138,287 131,296 127,308 125,306 124,307 123,303 122,304 122,311 120,317 121,332 134,350 143,357 143,363 132,374 127,386 128,396 131,403 133,401 131,390 134,384 156,361 153,357 148,357 140,352 137,348 139,348 148,355 155,355 159,359 174,354 301,354 300,351 286,350 221,350 217,352 210,352 204,350 178,351 168,350 166,348 154,352 144,342 153,348 156,348 160,343 149,335 150,333 146,322 148,313 145,310 143,310 148,308 151,302 157,296 156,294 159,293 161,283 163,283 161,288 164,291 165,290 165,284 167,281 166,298 162,302 165,304 165,307 162,310 165,312 165,338 194,335 195,332 210,332 215,331 217,329 339,329 399,331 400,330 397,329 398,328 419,327 416,322 417,315 414,312 415,308 417,307 420,309 425,309 426,311 432,311 435,309 440,310 447,314 449,322 444,327 444,330 436,332 252,331 215,334 226,345 228,345 228,347 285,347 299,345 285,343 305,343 326,346 327,348 348,350 338,351 327,350 324,348 316,348 312,356 313,361 314,358 314,370 332,368 387,367 394,364 399,358 399,355 405,351 399,357 398,365 388,370 335,370 325,372 314,372 312,375 310,375 310,360 308,358 307,360 306,358 304,359 304,373 306,373 306,365 307,376 308,364 308,377 305,378 307,388 356,388 380,386 390,387 397,390 398,395 393,404 385,408 373,410 389,426 409,426 425,410 423,408 418,409 413,405 420,407 429,406 431,404 419,392 413,395 411,403 412,392 424,387 429,388 447,386 451,383 451,381 451,385 448,387 449,392 465,408 469,404 468,401 472,405 476,405 486,395 482,391 472,392 473,391 479,388 490,387 502,382 495,387 499,387 498,397 500,397 500,395 500,401 498,403 504,404 496,406 475,407 472,409 489,426 521,426 540,407 537,405 522,402 518,399 517,393 519,389 522,387 535,386 535,384 532,384 550,377 563,374 576,366 588,366 590,363 586,359 587,355 590,356 589,361 592,364 598,366 598,354 600,356 602,355 600,370 591,366 588,368 577,369 573,371 586,384 592,383 601,378 595,384 595,386 601,386 600,398 603,401 624,380 619,375 619,368 622,362 622,354 625,350 629,348 628,346 631,347 642,344 652,344 654,351 662,343" stroke="rgb(0,0,0)" /><polygon points="300,398 300,395 299,394 298,396 296,393 293,392 295,390 291,388 244,386 240,388 231,387 227,389 213,387 183,387 167,385 165,387 163,383 162,386 159,387 160,384 158,381 157,383 157,378 159,378 158,376 152,379 146,387 146,394 154,408 156,406 172,406 198,409 244,409 253,407 293,408 297,406 295,403 285,404 282,403 282,401 269,401 278,399 300,398" stroke="rgb(0,0,0)" /><polygon points="600,511 598,510 598,506 575,504 573,501 569,502 570,500 565,495 565,490 568,485 567,481 570,478 570,470 560,462 563,463 565,461 558,454 548,464 552,466 557,466 561,469 536,466 530,464 525,469 536,480 537,479 537,481 547,481 549,483 550,472 548,470 551,472 551,486 547,492 538,494 547,490 551,485 550,482 547,486 547,483 534,483 506,487 515,484 512,483 515,481 518,469 516,464 511,459 505,457 503,454 507,456 510,455 506,452 513,454 517,457 519,461 525,460 540,463 555,448 552,445 523,445 517,443 518,441 544,443 544,441 539,441 546,439 535,428 504,429 504,431 516,431 517,434 515,435 512,433 501,432 500,441 498,445 461,441 463,439 466,439 489,441 496,443 498,441 498,429 452,428 452,430 458,431 454,433 448,431 447,432 447,444 445,445 359,447 364,444 365,439 367,444 444,442 446,429 374,429 313,427 313,444 348,445 311,446 304,452 303,449 295,452 278,452 265,454 257,454 255,452 239,454 170,453 168,485 170,496 169,505 166,508 168,499 168,458 166,453 164,452 162,464 163,507 161,531 163,534 164,541 166,536 167,517 170,507 168,532 173,535 178,530 181,532 181,536 172,540 171,545 169,547 168,562 166,566 166,571 169,571 169,573 165,575 165,581 165,573 163,573 163,587 165,591 166,587 168,586 166,592 163,592 163,596 172,596 176,588 179,588 182,594 185,588 197,587 197,590 201,590 202,587 199,586 201,582 219,580 233,581 223,581 223,583 228,583 220,586 206,587 199,592 236,592 244,594 232,595 280,598 283,597 283,595 296,595 301,597 307,597 308,592 310,592 309,594 311,596 318,595 313,596 313,598 335,596 374,596 402,598 403,593 404,591 406,591 406,589 414,590 414,595 418,598 431,596 466,596 467,591 465,588 462,590 457,589 456,587 453,586 446,586 442,584 420,581 416,581 413,587 410,588 405,586 376,584 367,579 359,577 358,579 361,588 359,590 361,591 356,594 345,594 343,593 344,591 342,589 340,594 340,588 338,586 322,582 315,582 312,580 274,581 272,583 265,585 259,585 271,582 273,580 269,578 282,579 295,577 313,577 317,579 323,579 340,583 348,591 357,591 359,589 356,578 349,574 347,568 330,562 210,560 201,561 198,559 197,560 197,553 198,556 199,551 204,546 201,544 203,543 210,543 208,545 209,546 206,547 201,553 203,559 309,558 309,546 307,544 266,545 245,542 198,541 208,538 296,543 347,540 359,541 362,539 361,534 362,538 364,538 363,518 362,522 353,523 346,522 283,525 282,523 200,523 197,520 248,520 200,518 327,518 347,516 360,517 361,514 362,516 363,515 364,504 371,504 375,502 377,507 378,505 379,506 381,504 385,504 380,506 376,510 377,517 379,519 381,518 381,522 380,525 379,524 377,526 365,526 365,524 363,524 366,540 392,540 402,546 414,550 415,544 409,541 404,536 398,534 394,528 393,521 398,531 409,537 410,534 415,538 424,540 446,542 446,556 455,558 445,558 446,545 444,543 431,543 419,540 415,541 417,552 406,551 389,542 377,542 377,544 380,545 375,544 369,550 369,552 368,551 364,555 366,558 420,560 495,559 497,548 495,540 487,543 468,543 467,553 466,542 483,540 488,541 498,537 496,539 498,540 497,559 502,560 501,561 458,563 472,577 488,580 496,584 499,593 499,604 503,608 505,604 506,605 514,597 513,592 514,595 516,595 516,592 511,582 511,578 517,593 529,582 524,579 517,579 510,573 517,576 524,576 532,579 546,566 540,560 535,560 527,565 521,565 515,554 516,545 520,541 530,539 572,540 585,527 581,523 558,526 542,524 536,521 530,521 518,514 518,506 517,505 516,507 517,504 519,502 521,504 531,503 535,501 538,503 548,501 550,505 553,507 550,509 549,514 549,508 547,504 540,507 534,505 530,507 526,506 520,512 530,518 534,517 542,521 557,523 593,518 600,511" stroke="rgb(0,0,0)" /><polygon points="446,83 367,83 365,81 345,81 345,83 329,83 329,81 281,82 273,83 272,86 298,86 304,91 304,95 297,98 303,94 299,91 276,87 274,89 274,92 277,93 280,90 282,90 283,94 274,99 270,103 268,114 265,113 267,112 266,111 234,113 243,111 198,110 198,112 218,112 217,114 220,117 211,114 210,115 214,117 210,118 215,120 202,120 202,122 183,123 206,124 205,125 181,126 215,126 237,128 259,127 263,130 261,132 263,134 260,131 255,131 248,134 224,132 224,136 232,139 224,138 219,139 219,141 210,141 201,140 198,138 189,138 189,140 182,140 182,142 197,142 202,144 202,146 253,146 263,147 264,149 263,152 220,151 217,153 204,150 182,150 181,152 183,154 183,158 180,161 181,164 227,166 213,167 183,165 183,170 179,175 180,176 178,177 179,181 175,186 221,187 221,185 181,184 223,184 222,185 226,188 258,187 267,189 286,189 286,187 282,187 286,185 296,185 297,178 286,176 278,181 278,177 283,176 285,174 291,176 296,174 297,168 295,153 291,152 287,155 288,152 295,150 295,148 299,147 297,144 299,142 298,141 300,141 301,144 304,144 304,147 313,148 343,146 364,147 366,145 375,147 394,147 400,145 398,143 405,145 401,145 401,147 430,146 430,135 427,133 430,130 429,129 432,93 429,89 435,86 435,84 446,83" stroke="rgb(0,0,0)" /><polygon points="662,343 661,338 623,340 638,338 613,336 609,334 613,334 613,332 607,331 587,329 582,329 582,331 572,330 569,324 570,317 567,316 572,313 567,311 525,311 521,315 519,326 520,312 518,310 520,309 512,306 498,304 513,305 525,309 574,309 575,308 572,307 573,306 581,304 574,302 588,300 597,297 604,291 603,289 598,292 595,292 595,290 588,290 583,292 554,295 552,294 553,292 561,291 555,285 550,292 542,292 536,296 538,298 572,298 554,300 569,301 568,302 557,302 540,305 521,305 526,303 541,303 552,301 520,300 519,299 521,297 518,291 481,291 478,294 478,291 472,289 466,296 464,296 468,302 466,303 471,306 473,306 474,304 475,305 473,306 477,308 501,312 503,314 503,324 494,329 464,331 460,333 445,334 447,332 455,330 495,326 501,321 502,317 499,313 476,313 479,311 464,305 464,291 469,286 470,288 472,287 470,283 471,278 474,278 479,274 469,274 461,281 465,274 468,272 478,270 482,272 517,271 517,269 506,269 520,267 497,266 503,266 503,264 430,264 427,266 430,270 442,274 447,278 447,292 446,285 440,291 435,293 429,291 426,292 425,295 423,293 417,294 417,265 419,262 418,261 422,259 422,256 419,254 418,250 417,252 416,241 420,236 419,239 421,241 423,240 426,244 429,241 429,232 431,231 430,232 432,233 434,231 433,228 425,228 425,226 372,227 372,229 367,229 367,231 370,232 381,231 391,234 396,239 396,244 393,249 386,254 377,254 373,256 364,257 362,256 361,252 308,256 311,254 309,251 310,250 307,249 310,247 310,244 306,243 311,240 310,239 299,240 278,238 265,240 275,244 272,244 248,239 256,239 259,237 258,236 228,236 228,238 225,238 223,237 223,235 206,234 203,236 209,237 205,239 205,241 207,241 205,249 207,252 208,250 209,254 233,253 273,254 306,252 302,254 293,255 210,256 206,258 197,258 199,254 199,249 196,248 196,246 169,246 168,247 171,249 169,249 169,251 165,255 166,258 162,266 163,270 162,269 159,272 155,273 147,281 137,299 135,306 132,310 134,312 133,325 131,309 136,296 140,290 138,287 131,296 127,308 125,306 124,307 123,303 122,304 122,311 120,317 121,332 134,350 143,357 143,363 132,374 127,386 128,396 131,403 133,401 131,390 134,384 156,361 153,357 148,357 140,352 137,348 139,348 148,355 155,355 159,359 174,354 301,354 300,351 286,350 221,350 217,352 210,352 204,350 178,351 168,350 166,348 154,352 144,342 153,348 156,348 160,343 149,335 150,333 146,322 148,313 145,310 143,310 148,308 151,302 157,296 156,294 159,293 161,283 163,283 161,288 164,291 165,290 165,284 167,281 166,298 162,302 165,304 165,307 162,310 165,312 165,338 194,335 195,332 210,332 215,331 217,329 339,329 399,331 400,330 397,329 398,328 419,327 416,322 417,315 414,312 415,308 417,307 420,309 425,309 426,311 432,311 435,309 440,310 447,314 449,322 444,327 444,330 436,332 252,331 215,334 226,345 228,345 228,347 285,347 299,345 285,343 305,343 326,346 327,348 348,350 338,351 327,350 324,348 316,348 312,356 313,361 314,358 314,370 332,368 387,367 394,364 399,358 399,355 405,351 399,357 398,365 388,370 335,370 325,372 314,372 312,375 310,375 310,360 308,358 307,360 306,358 304,359 304,373 306,373 306,365 307,376 308,364 308,377 305,378 307,388 356,388 380,386 390,387 397,390 398,395 393,404 385,408 373,410 389,426 409,426 425,410 423,408 418,409 413,405 420,407 429,406 431,404 419,392 413,395 411,403 412,392 424,387 429,388 447,386 451,383 451,381 451,385 448,387 449,392 465,408 469,404 468,401 472,405 476,405 486,395 482,391 472,392 473,391 479,388 490,387 502,382 495,387 499,387 498,397 500,397 500,395 500,401 498,403 504,404 496,406 475,407 472,409 489,426 521,426 540,407 537,405 522,402 518,399 517,393 519,389 522,387 535,386 535,384 532,384 550,377 563,374 576,366 588,366 590,363 586,359 587,355 590,356 589,361 592,364 598,366 598,354 600,356 602,355 600,370 591,366 588,368 577,369 573,371 586,384 592,383 601,378 595,384 595,386 601,386 600,398 603,401 624,380 619,375 619,368 622,362 622,354 625,350 629,348 628,346 631,347 642,344 652,344 654,351 662,343" stroke="rgb(0,0,0)" /><polygon points="300,398 300,395 299,394 298,396 296,393 293,392 295,390 291,388 244,386 240,388 231,387 227,389 213,387 183,387 167,385 165,387 163,383 162,386 159,387 160,384 158,381 157,383 157,378 159,378 158,376 152,379 146,387 146,394 154,408 156,406 172,406 198,409 244,409 253,407 293,408 297,406 295,403 285,404 282,403 282,401 269,401 278,399 300,398" stroke="rgb(0,0,0)" /><polygon points="293,356 291,356 293,356" stroke="rgb(0,0,0)" /><polygon points="662,344 661,338 623,340 638,338 613,336 609,334 613,334 613,332 607,331 587,329 582,329 582,331 572,330 569,324 570,317 567,316 572,313 567,311 525,311 521,315 519,326 520,312 518,310 520,309 512,306 498,304 513,305 525,309 574,309 575,308 572,307 573,306 581,304 574,302 588,300 597,297 604,291 603,288 598,292 595,292 595,290 588,290 583,292 554,295 552,294 553,292 562,291 555,284 551,288 553,289 550,292 538,293 535,296 537,298 572,298 554,300 569,301 568,302 557,302 540,305 521,305 526,303 541,303 552,301 520,300 519,299 521,297 518,291 481,291 478,294 478,291 472,289 466,296 464,296 468,302 466,303 471,306 473,306 474,304 475,305 473,306 477,308 501,312 503,314 503,324 494,329 464,331 460,333 445,334 447,332 455,330 495,326 501,321 502,317 499,313 476,313 479,311 464,305 464,291 469,286 470,288 472,287 470,283 471,278 474,278 479,274 469,274 461,281 465,274 468,272 478,270 482,272 517,271 517,269 506,269 520,267 497,266 503,266 503,264 430,264 427,266 430,270 442,274 447,278 447,292 446,285 440,291 435,293 429,291 426,292 425,295 423,293 417,294 417,265 419,262 418,261 422,259 422,256 419,254 418,250 417,252 416,241 420,236 419,239 421,241 423,240 426,244 429,241 429,232 431,231 430,232 432,233 434,231 433,228 425,228 425,226 372,227 372,229 367,229 367,231 370,232 381,231 391,234 396,239 396,244 393,249 386,254 377,254 373,256 364,257 362,256 361,252 308,256 311,254 309,251 310,250 307,249 310,247 310,244 306,243 311,240 310,239 299,240 278,238 265,240 275,244 272,244 248,239 256,239 259,237 258,236 228,236 228,238 225,238 223,237 223,235 206,234 203,236 209,237 205,239 205,241 207,241 205,249 207,252 208,250 209,254 233,253 273,254 306,252 302,254 293,255 210,256 206,258 197,258 199,254 199,249 196,248 196,246 169,246 168,247 171,249 169,249 169,251 165,255 166,258 162,266 163,270 162,269 159,272 155,273 147,281 137,299 135,306 132,310 134,312 133,325 131,309 136,296 140,290 138,287 131,296 127,308 125,306 124,307 123,303 122,304 122,311 120,317 121,332 134,350 143,357 143,363 132,374 127,386 128,396 131,403 133,401 131,390 134,384 156,361 153,357 148,357 140,352 137,348 139,348 148,355 155,355 159,359 174,354 233,354 235,352 233,350 221,350 217,352 210,352 204,350 178,351 168,350 166,348 154,352 144,343 153,348 156,348 160,344 156,339 149,335 150,333 146,322 148,313 145,310 143,310 148,308 151,302 157,296 156,294 159,293 161,283 163,283 161,288 164,291 165,290 165,284 167,281 166,298 162,302 165,304 165,307 162,310 165,312 165,338 194,335 195,332 210,332 215,331 217,329 339,329 399,331 400,330 397,329 398,328 419,327 416,322 417,315 414,312 415,308 417,307 420,309 425,309 426,311 432,311 435,309 440,310 447,314 449,322 444,327 444,330 436,332 252,331 214,334 222,342 224,342 225,345 227,345 227,347 285,347 299,345 285,343 305,343 326,346 327,348 348,350 338,351 327,350 324,348 316,348 312,356 313,361 314,358 314,370 332,368 387,367 394,364 399,358 399,355 405,351 399,357 398,365 388,370 335,370 325,372 314,372 312,375 310,375 310,360 308,358 307,360 306,358 304,359 304,373 306,373 306,365 307,376 308,364 308,377 305,378 307,388 356,388 380,386 390,387 397,390 398,395 393,404 385,408 373,410 388,426 410,426 426,410 424,408 418,409 413,405 420,407 430,406 432,404 419,391 413,395 411,403 412,392 424,387 429,388 447,386 451,383 451,381 451,385 448,387 449,392 464,408 469,405 468,401 472,405 477,405 487,395 483,391 472,392 473,391 479,388 490,387 502,382 495,387 499,387 498,397 500,397 500,395 500,401 498,403 504,404 496,406 475,407 471,409 488,426 522,426 541,407 520,401 517,397 519,389 527,386 535,386 535,384 532,384 550,377 563,374 576,366 588,366 590,363 586,359 587,355 590,356 589,361 597,366 599,365 599,363 597,362 599,360 597,354 600,356 602,355 601,369 599,370 591,366 588,368 577,369 572,372 585,385 601,378 595,384 595,386 601,386 600,399 603,403 623,383 622,381 624,380 619,375 619,368 622,362 622,354 625,350 629,348 628,346 631,347 642,344 652,344 654,352 662,344" stroke="rgb(0,0,0)" /><polygon points="367,228 211,227 204,229 214,230 216,233 226,234 341,235 316,236 315,237 318,241 322,238 320,242 317,242 315,239 314,240 314,253 319,254 334,253 334,251 331,251 340,249 361,248 362,251 362,243 364,242 359,241 364,239 364,235 360,233 362,232 358,230 343,229 367,228" stroke="rgb(0,0,0)" /><polygon points="440,152 336,151 316,152 314,154 306,154 304,152 300,152 299,172 302,183 301,184 333,185 333,188 311,188 297,190 172,190 169,192 172,194 192,195 196,194 221,196 287,197 209,197 204,206 204,216 205,214 233,214 260,214 267,216 205,217 202,220 183,220 183,222 223,222 233,224 432,222 433,217 430,214 431,201 428,199 426,201 423,201 421,198 419,207 420,200 416,199 416,196 430,194 431,193 429,192 432,190 431,189 437,189 438,177 410,177 416,175 429,175 429,172 433,171 432,161 431,164 430,160 420,159 417,157 370,158 370,160 374,160 366,162 365,166 367,169 366,168 364,171 364,168 362,167 363,162 358,161 358,159 354,159 361,157 385,157 395,155 431,155 432,153 440,152" stroke="rgb(0,0,0)" /><polygon points="397,394 389,389 357,389 339,391 320,390 305,392 313,393 311,395 313,403 314,401 317,403 330,402 344,404 364,404 338,405 338,407 376,407 376,404 382,406 388,403 386,402 389,398 390,399 392,397 390,394 393,394 395,396 397,394" stroke="rgb(0,0,0)" /><polygon points="497,516 497,511 489,507 467,507 462,505 444,506 435,504 422,505 421,508 415,513 415,516 418,520 423,523 424,521 442,521 444,519 445,509 457,509 460,511 466,511 468,509 468,511 471,512 468,515 471,518 475,517 488,519 497,516" stroke="rgb(0,0,0)" /><polygon points="600,511 598,510 598,506 575,504 573,501 569,502 570,500 565,495 565,490 568,485 567,481 570,478 570,470 560,462 563,463 565,461 558,454 548,464 552,466 557,466 561,469 536,466 530,464 525,469 536,480 537,479 537,481 547,481 549,483 550,472 548,470 551,472 551,486 547,492 538,494 547,490 551,485 550,482 547,486 547,483 534,483 506,487 515,484 512,483 515,481 518,469 516,464 511,459 505,457 503,454 507,456 510,455 506,452 513,454 517,457 519,461 525,460 540,463 555,448 552,445 523,445 517,443 518,441 544,443 544,441 539,441 546,439 535,428 504,429 504,431 516,431 517,434 515,435 512,433 501,432 500,441 498,445 461,441 463,439 466,439 489,441 496,443 498,441 498,429 452,428 452,430 458,431 454,433 448,431 447,432 447,444 445,445 359,447 364,444 365,439 367,444 444,442 446,429 374,429 313,427 313,444 348,445 311,446 304,452 303,449 295,452 278,452 265,454 257,454 255,452 239,454 170,453 168,485 170,496 169,505 166,508 168,499 168,458 166,453 164,452 162,464 163,507 161,531 163,534 164,541 166,536 167,517 170,507 168,532 173,535 178,530 181,532 181,536 172,540 171,545 169,547 168,562 166,566 166,571 169,571 169,573 165,575 165,581 165,573 163,573 163,587 165,591 166,587 168,586 166,592 163,592 163,596 172,596 176,588 179,588 182,594 185,588 197,587 197,590 201,590 202,587 199,586 201,582 219,580 233,581 223,581 223,583 228,583 220,586 206,587 199,592 236,592 244,594 232,595 280,598 283,597 283,595 296,595 301,597 307,597 308,592 310,592 309,594 311,596 318,595 313,596 313,598 335,596 374,596 402,598 403,593 404,591 406,591 406,589 414,590 414,595 418,598 431,596 466,596 467,591 465,588 462,590 457,589 456,587 453,586 446,586 442,584 420,581 416,581 413,587 410,588 405,586 376,584 367,579 359,577 358,579 361,588 359,590 361,591 356,594 345,594 343,593 344,591 342,589 340,594 340,588 338,586 322,582 315,582 312,580 274,581 272,583 265,585 259,585 271,582 273,580 269,578 282,579 295,577 313,577 317,579 323,579 340,583 348,591 357,591 359,589 356,578 349,574 347,568 330,562 210,560 201,561 198,559 197,560 197,553 198,556 199,551 204,546 201,544 203,543 210,543 208,545 209,546 206,547 201,553 203,559 309,558 309,546 307,544 266,545 245,542 198,541 208,538 296,543 347,540 359,541 362,539 361,534 362,538 364,538 363,518 362,522 353,523 346,522 283,525 282,523 200,523 197,520 248,520 200,518 327,518 347,516 360,517 361,514 362,516 363,515 364,504 371,504 375,502 377,507 378,505 379,506 381,504 385,504 380,506 376,510 377,517 379,519 381,518 381,522 380,525 379,524 377,526 365,526 365,524 363,524 366,540 392,540 402,546 414,550 415,544 409,541 404,536 398,534 394,528 393,521 398,531 409,537 410,534 415,538 424,540 446,542 446,556 455,558 445,558 446,545 444,543 431,543 419,540 415,541 417,552 406,551 389,542 377,542 377,544 380,545 375,544 369,550 369,552 368,551 364,555 366,558 420,560 495,559 497,548 495,540 487,543 468,543 467,553 466,542 483,540 488,541 498,537 496,539 498,540 497,559 502,560 501,561 458,563 472,577 488,580 496,584 499,593 499,604 503,608 505,604 506,605 514,597 513,592 514,595 516,595 516,592 511,582 511,578 517,593 529,582 524,579 517,579 510,573 517,576 524,576 532,579 546,566 540,560 535,560 527,565 521,565 515,554 516,545 520,541 530,539 572,540 585,527 581,523 558,526 542,524 536,521 530,521 518,514 518,506 517,505 516,507 517,504 519,502 521,504 531,503 535,501 538,503 548,501 550,505 553,507 550,509 549,514 549,508 547,504 540,507 534,505 530,507 526,506 520,512 530,518 534,517 542,521 557,523 593,518 600,511" stroke="rgb(0,0,0)" /><polygon points="559,656 557,651 550,651 546,649 503,648 500,650 493,650 378,648 376,654 376,678 371,680 355,681 351,683 343,683 337,686 320,688 326,685 335,685 343,681 357,678 352,677 350,675 362,675 375,670 374,667 370,665 373,664 373,662 342,661 374,660 375,658 372,657 375,652 373,651 375,649 374,648 350,647 350,649 347,649 346,648 350,647 337,644 334,642 357,645 374,645 375,642 369,639 351,640 313,638 304,633 304,622 299,621 299,637 305,643 350,652 329,651 314,648 308,649 300,645 297,641 297,619 292,614 296,615 298,611 297,610 273,611 265,609 243,609 222,607 197,607 195,609 176,609 172,613 169,613 172,616 205,614 202,617 183,617 172,619 174,648 177,635 175,664 176,665 177,662 179,662 177,665 178,667 201,668 223,666 237,667 248,665 258,666 278,664 291,661 301,661 300,673 298,664 291,664 288,666 281,666 275,668 253,669 218,669 203,671 195,669 175,669 175,671 192,671 182,672 182,674 195,674 182,675 182,677 196,677 205,679 263,678 283,680 289,674 290,678 298,676 302,679 304,677 305,679 304,681 293,679 288,683 282,685 259,681 235,683 174,681 174,698 173,692 171,689 170,690 172,708 171,710 171,698 169,692 168,699 165,703 165,707 169,724 378,724 379,722 376,716 344,716 329,714 376,713 376,711 342,710 375,709 382,706 385,701 388,700 442,700 443,698 444,701 445,699 444,710 449,711 450,699 452,695 451,708 453,710 454,706 456,707 458,704 460,709 499,709 499,707 491,706 503,705 503,703 484,703 494,701 502,702 509,699 555,700 557,658 559,656" stroke="rgb(0,0,0)" /><polygon points="558,134 557,92 525,94 522,97 486,93 440,92 440,99 438,94 439,91 445,90 477,88 540,89 551,88 551,86 459,85 438,87 435,89 433,96 434,106 438,108 439,105 444,103 445,106 450,105 449,106 454,109 451,110 451,114 447,113 444,118 441,118 437,111 434,112 435,119 432,125 434,126 431,132 432,142 434,144 507,144 533,142 539,143 543,137 542,131 543,137 546,137 545,128 544,127 543,129 542,126 545,126 546,133 547,126 548,128 549,127 552,142 557,140 556,137 558,134" stroke="rgb(0,0,0)" /><polygon points="498,599 498,596 497,595 496,597 495,595 497,593 491,585 483,582 469,581 467,592 468,595 470,597 478,596 479,593 481,596 481,601 480,599 474,599 471,602 469,601 468,603 466,599 427,599 415,602 413,601 413,596 411,592 406,592 402,600 316,600 308,602 312,603 307,605 307,607 309,607 299,614 299,618 302,621 305,621 310,617 318,616 321,614 323,614 323,617 452,616 458,618 474,618 474,616 464,616 483,612 495,605 498,599" stroke="rgb(0,0,0)" /><polygon points="511,249 496,248 496,246 484,247 496,243 496,236 493,234 473,234 468,240 468,245 472,251 511,249" stroke="rgb(0,0,0)" /><polygon points="702,464 701,459 695,460 678,458 665,460 662,458 660,429 662,378 661,338 623,340 638,338 613,336 609,334 613,334 613,332 607,331 587,329 582,329 582,331 572,330 569,324 570,317 567,316 572,313 567,311 525,311 521,315 519,326 520,312 518,310 520,309 512,306 498,304 513,305 525,309 574,309 575,308 572,307 573,306 581,304 574,302 588,300 597,297 604,291 603,288 598,292 595,292 595,290 588,290 583,292 554,295 552,294 553,292 571,291 572,278 569,276 550,276 546,274 548,273 547,272 536,272 536,274 534,274 528,280 528,288 530,288 531,291 553,289 550,292 525,293 522,295 522,300 520,300 519,299 521,297 518,291 481,291 478,294 478,291 472,289 466,296 464,296 468,302 466,303 471,306 473,306 474,304 475,305 473,306 477,308 501,312 503,314 503,324 494,329 464,331 460,333 445,334 447,332 455,330 495,326 501,321 502,317 499,313 476,313 479,311 464,305 464,291 469,286 470,288 472,287 470,283 471,278 474,278 479,274 469,274 461,281 465,274 468,272 478,270 482,272 517,271 517,269 506,269 520,267 497,266 503,266 503,264 430,264 427,266 430,270 442,274 447,278 447,292 446,285 440,291 435,293 429,291 426,292 425,295 423,293 417,294 417,265 419,262 418,261 422,259 422,256 419,254 418,250 417,252 416,241 420,236 419,239 421,241 423,240 426,244 429,241 429,232 431,231 430,232 432,233 434,231 433,228 425,228 425,226 385,227 381,231 391,234 396,239 396,244 393,249 383,255 377,254 373,256 364,257 360,252 353,259 355,261 364,260 366,262 365,264 347,265 340,272 343,274 338,274 322,290 325,292 319,293 306,306 310,310 327,310 343,308 344,309 323,311 320,313 322,314 321,315 316,316 329,329 340,330 399,331 400,330 397,329 398,328 404,327 418,328 419,327 416,322 417,315 414,312 415,308 417,307 420,309 425,309 426,311 432,311 437,309 446,313 449,319 449,322 444,327 444,330 436,332 252,331 208,334 204,340 206,342 221,341 224,343 205,344 225,345 225,347 285,347 299,345 285,343 305,343 326,346 327,348 348,350 338,351 327,350 324,348 316,348 312,356 313,361 314,358 314,370 332,368 387,367 394,364 399,358 399,355 405,351 399,357 398,365 388,370 335,370 325,372 314,372 312,375 310,375 310,360 308,358 307,360 305,358 304,373 306,373 306,365 307,376 308,364 308,377 305,378 307,388 356,388 380,386 390,387 397,390 398,392 398,395 393,404 385,408 373,410 329,409 311,407 311,398 309,396 305,396 304,428 306,428 306,424 306,435 304,429 303,435 308,440 309,445 311,443 310,426 476,425 514,427 545,425 555,420 553,419 554,413 547,407 541,407 520,401 517,397 517,393 519,389 527,386 553,385 559,387 564,384 562,388 559,390 556,390 554,388 525,389 520,393 520,397 525,400 539,402 543,404 546,403 547,399 547,401 553,406 557,406 558,412 565,417 566,420 570,420 570,422 575,424 597,427 599,423 604,422 605,427 601,430 600,435 601,439 605,438 606,440 603,446 602,445 601,447 599,443 559,446 523,445 518,444 518,441 530,442 532,440 521,429 515,429 514,430 517,433 516,435 512,433 507,433 500,440 499,444 495,445 492,448 497,453 499,451 498,449 501,449 513,454 517,457 519,461 525,460 537,462 557,466 560,468 561,469 528,464 523,469 535,481 547,481 549,483 550,472 548,470 551,472 551,486 550,489 545,493 562,510 570,501 565,495 565,490 568,485 567,481 570,478 570,470 560,462 571,467 594,462 597,460 601,460 604,457 607,457 606,465 603,467 602,471 597,477 608,479 604,481 605,482 636,482 642,478 639,476 639,473 635,472 644,471 644,477 645,478 647,475 648,478 651,475 651,473 648,470 646,470 652,470 653,477 650,480 643,480 637,484 623,485 640,502 649,504 650,512 654,516 679,492 679,487 680,491 681,488 683,488 687,484 687,481 688,480 689,482 701,470 702,464" stroke="rgb(0,0,0)" /><polygon points="693,461 691,459 678,458 665,460 662,458 660,429 661,403 654,396 652,398 651,427 653,443 651,445 640,445 625,441 621,437 620,439 619,438 619,433 620,437 623,424 631,416 638,414 640,411 646,409 647,403 645,402 629,404 620,407 613,413 615,408 621,405 621,403 619,403 622,401 633,399 635,399 635,401 647,400 648,395 649,397 650,394 646,391 636,390 626,385 623,386 622,381 624,380 619,375 619,368 621,363 607,349 601,356 601,369 599,370 591,366 579,377 586,384 592,383 601,378 595,384 596,387 600,385 601,386 601,402 597,402 592,405 588,410 589,413 592,415 593,413 599,414 603,412 603,418 591,417 588,415 587,410 580,408 579,411 574,408 569,402 569,395 571,394 567,389 552,404 555,407 557,406 558,412 565,417 566,420 570,420 570,422 575,424 597,427 599,423 604,422 605,427 601,430 600,438 605,438 606,442 601,447 599,443 559,446 523,445 517,443 518,441 547,443 547,441 539,441 563,441 593,438 599,436 598,434 595,435 594,432 582,430 590,430 590,428 575,427 565,422 558,421 553,425 545,428 504,429 504,431 516,431 517,434 515,435 512,433 501,432 500,441 498,445 461,441 463,439 466,439 489,441 496,443 498,441 498,429 452,428 452,430 458,431 454,433 448,431 447,432 447,444 445,445 359,447 364,444 365,439 367,444 444,442 446,429 374,429 313,427 313,444 348,445 311,446 304,452 303,449 295,452 278,452 265,454 257,454 255,452 239,454 170,453 168,485 168,490 170,491 169,505 165,508 167,506 168,491 164,487 162,489 163,507 161,528 165,532 166,531 167,517 170,507 168,532 173,535 178,530 181,532 181,536 173,540 181,548 186,548 186,553 193,560 195,555 194,560 196,562 197,553 198,556 199,551 204,546 201,544 210,543 209,545 211,547 217,542 198,540 208,538 220,539 233,526 232,525 235,524 200,523 197,520 239,521 239,519 200,518 243,517 246,514 241,509 208,512 221,509 238,508 239,507 236,504 210,505 206,506 201,510 203,511 206,509 205,512 200,513 198,511 203,505 218,502 263,501 267,497 265,495 214,495 236,493 212,491 275,489 271,485 226,484 207,485 204,488 201,488 201,469 203,469 203,474 206,476 227,480 257,479 290,482 283,482 283,484 317,484 341,482 360,483 360,481 344,480 362,479 363,468 359,466 365,465 355,463 366,462 394,464 409,468 366,465 364,471 365,472 370,469 368,471 373,473 374,481 376,474 374,482 375,483 387,483 387,481 415,481 417,471 416,470 420,471 417,472 416,480 418,483 482,483 496,479 499,476 501,470 496,467 488,466 436,467 420,466 406,463 411,462 431,464 493,464 500,467 502,466 503,473 501,478 495,483 482,486 377,485 375,488 374,486 371,487 370,485 368,485 367,488 365,486 364,488 362,484 340,484 321,485 317,489 331,503 337,503 333,505 337,506 336,508 345,517 360,517 361,514 362,516 363,506 365,503 371,504 375,502 377,507 378,505 379,506 381,504 385,504 380,506 376,510 377,517 379,519 381,518 380,525 379,524 377,526 365,526 365,524 363,524 364,533 366,536 367,534 366,536 370,540 392,540 402,546 407,547 411,542 404,536 398,534 394,528 393,521 398,531 409,537 410,534 415,538 424,540 446,542 446,556 455,558 445,558 446,545 444,543 424,542 417,549 417,552 414,552 408,558 409,559 495,559 497,548 495,540 487,543 468,543 467,553 466,542 483,540 488,541 498,537 496,539 498,540 497,559 502,560 501,561 456,563 414,562 412,564 427,579 431,580 445,581 450,584 458,584 460,577 473,577 493,582 497,585 496,586 499,593 498,606 485,614 474,616 488,616 495,614 501,611 502,609 506,608 504,612 501,615 490,619 472,622 483,633 498,633 503,631 528,632 537,623 536,622 539,621 538,620 518,618 513,619 512,617 507,617 506,615 506,613 515,605 516,602 513,592 516,597 516,601 522,602 517,605 516,608 511,612 512,613 549,617 555,611 554,607 548,603 537,600 529,600 521,596 518,596 511,582 511,578 518,595 520,595 521,592 527,596 543,598 548,600 549,598 546,589 549,579 551,577 549,576 546,578 539,587 527,580 517,579 510,573 517,576 527,577 539,584 544,576 566,562 570,556 574,557 578,554 593,553 595,551 586,542 583,542 576,548 583,550 565,552 558,555 535,560 527,565 521,565 515,554 516,545 520,541 530,539 639,539 651,527 644,520 636,522 629,521 629,514 621,512 626,513 630,512 631,510 629,509 631,507 627,503 625,503 621,499 622,498 608,484 605,483 598,484 582,500 595,503 598,503 599,501 602,503 600,504 602,505 601,517 594,521 560,526 542,524 536,521 530,521 520,516 517,511 517,504 519,502 521,504 531,503 535,501 538,503 548,501 550,505 553,507 550,509 549,514 549,508 547,504 540,507 534,505 530,507 524,506 520,509 520,512 525,516 530,518 534,517 542,521 560,523 593,518 597,516 600,511 598,510 598,506 575,504 573,501 569,502 570,500 566,497 565,490 568,485 567,481 570,478 570,470 560,462 571,467 594,462 597,460 601,460 604,457 607,457 606,465 603,467 602,471 597,477 608,479 604,481 605,482 636,482 642,478 639,476 639,473 635,472 644,471 644,477 645,478 647,475 648,478 651,475 651,473 648,470 646,470 650,469 653,471 653,477 650,480 643,480 638,484 654,500 673,481 671,464 673,462 680,464 679,465 684,470 688,466 686,464 690,464 693,461" stroke="rgb(0,0,0)" /><polygon points="701,577 701,564 698,559 698,547 700,540 700,504 697,501 700,498 700,488 692,480 691,481 692,480 679,467 673,473 674,477 676,479 678,478 678,480 673,480 671,464 673,461 671,459 663,459 660,448 657,451 651,445 650,446 648,444 640,445 625,441 621,437 620,439 619,433 620,437 621,429 625,421 615,411 613,413 614,410 607,403 599,411 602,413 603,412 603,418 593,417 589,421 596,427 601,422 604,422 605,424 604,429 601,430 600,438 605,438 606,442 601,447 599,443 559,446 523,445 517,443 518,441 547,443 547,441 539,441 563,441 593,438 599,436 598,434 595,435 594,432 582,430 590,430 590,428 575,427 565,422 558,421 553,425 545,428 504,429 504,431 516,431 517,434 515,435 512,433 501,432 500,441 498,445 461,441 463,439 466,439 489,441 496,443 498,441 498,429 452,428 452,430 458,431 454,433 448,431 447,432 447,444 445,445 373,446 366,451 471,452 472,453 420,454 475,456 371,456 359,457 356,460 358,462 367,463 394,464 409,468 377,466 374,469 379,474 383,474 381,476 386,481 415,481 417,471 416,470 419,470 420,471 418,471 417,474 420,477 422,475 421,474 432,474 427,476 434,482 448,468 407,464 406,463 408,462 431,464 493,464 500,467 502,466 503,473 501,478 495,483 489,485 377,485 375,488 374,486 371,487 370,485 368,485 367,488 365,486 364,488 362,484 316,486 233,485 229,489 230,490 273,490 283,492 242,492 242,494 277,494 294,496 223,495 218,500 220,502 262,501 283,504 305,504 316,502 337,503 296,506 285,506 276,504 226,504 225,505 229,509 239,509 232,509 228,511 232,516 233,515 233,517 360,517 361,514 362,516 363,515 363,506 365,503 371,504 375,502 377,507 378,505 379,506 381,504 385,504 380,506 376,510 377,517 379,519 381,518 380,525 379,524 377,526 365,526 365,524 363,524 366,540 392,540 402,546 414,550 415,544 409,541 404,536 398,534 394,528 393,521 398,531 409,537 410,534 415,538 424,540 446,542 446,556 455,558 445,558 446,545 444,543 431,543 416,540 415,541 417,552 406,551 389,542 372,542 359,544 326,543 312,545 310,547 311,559 324,558 325,551 323,549 320,550 318,554 315,552 322,547 325,547 327,551 330,549 351,549 361,545 364,545 362,547 363,554 364,555 365,553 364,556 370,559 495,559 497,548 495,540 487,543 468,543 467,553 466,542 483,540 488,541 498,537 496,539 498,540 497,559 502,560 501,561 456,563 378,563 364,560 361,555 360,548 353,551 328,551 326,556 327,557 337,558 333,559 333,561 336,561 343,565 344,564 340,561 340,558 342,561 359,568 363,576 368,576 376,580 402,584 409,583 409,585 412,583 413,578 445,581 450,584 458,584 460,577 473,577 488,580 497,585 496,586 499,593 499,604 496,608 485,614 474,616 488,616 495,614 501,611 502,609 506,608 501,615 486,620 464,621 464,624 458,625 391,625 388,627 388,629 392,631 413,631 415,629 425,631 432,630 437,632 424,633 437,635 453,635 459,633 463,634 479,632 498,633 503,631 522,631 529,633 539,632 534,631 535,630 555,631 557,629 556,625 542,624 536,622 554,622 554,620 518,618 513,619 512,617 507,617 506,615 506,613 515,605 516,602 513,592 516,597 516,601 522,602 517,605 516,608 511,612 512,613 546,616 551,618 564,617 564,615 560,612 555,611 554,607 548,603 537,600 529,600 521,596 518,596 511,582 512,578 518,595 520,595 521,592 527,596 543,598 548,600 549,598 546,589 549,579 551,577 549,576 546,578 539,587 527,580 517,579 510,573 517,576 527,577 539,584 544,576 566,562 570,556 574,557 578,554 598,552 600,548 597,544 599,543 614,543 612,545 600,544 600,557 583,560 580,562 592,574 603,570 606,571 594,574 593,575 595,577 610,573 616,574 619,571 627,571 628,572 621,572 617,575 625,583 629,579 629,577 634,579 645,579 652,577 655,578 656,579 652,580 638,580 636,582 650,596 652,594 652,588 654,596 665,596 652,598 667,613 681,599 678,597 673,598 669,596 688,596 688,594 685,593 689,590 688,592 690,594 699,585 698,580 700,580 701,577" stroke="rgb(0,0,0)" /><polygon points="521,277 508,275 488,276 488,274 485,274 475,278 472,281 472,284 478,289 496,290 496,288 508,288 509,289 501,290 517,292 518,288 519,292 519,284 502,283 513,280 507,280 504,278 521,277" stroke="rgb(0,0,0)" /><polygon points="496,210 496,205 494,204 496,198 495,197 471,197 468,203 474,213 491,212 496,210" stroke="rgb(0,0,0)" /><polygon points="559,656 557,651 550,651 546,649 503,648 500,650 493,650 378,648 376,654 376,678 371,680 355,681 351,683 343,683 337,686 320,688 326,685 335,685 343,681 357,678 352,677 350,675 362,675 375,670 374,667 370,665 373,664 373,662 342,661 374,660 375,658 372,657 375,652 373,651 375,649 374,648 350,647 350,649 347,649 346,648 350,647 337,644 334,642 357,645 374,645 375,642 369,639 351,640 313,638 304,633 304,622 299,621 299,637 305,643 350,652 329,651 314,648 308,649 300,645 297,641 297,619 292,614 296,615 298,611 297,610 273,611 265,609 243,609 222,607 197,607 195,609 176,609 172,613 169,613 172,616 205,614 202,617 183,617 172,619 174,648 177,635 175,664 176,665 177,662 179,662 177,665 178,667 201,668 223,666 237,667 248,665 258,666 278,664 291,661 301,661 300,673 298,664 291,664 288,666 281,666 275,668 253,669 218,669 203,671 195,669 175,669 175,671 192,671 182,672 182,674 195,674 182,675 182,677 196,677 205,679 263,678 283,680 289,674 290,678 298,676 302,679 304,677 305,679 304,681 293,679 288,683 282,685 259,681 235,683 174,681 174,698 173,692 171,689 170,690 172,708 171,710 171,698 169,692 168,699 165,703 165,707 169,724 378,724 379,722 376,716 344,716 329,714 376,713 376,711 342,710 375,709 382,706 385,701 388,700 442,700 443,698 444,701 445,699 444,710 449,711 450,699 452,695 451,708 453,710 454,706 456,707 458,704 460,709 499,709 499,707 491,706 503,705 503,703 484,703 494,701 502,702 509,699 555,700 557,658 559,656" stroke="rgb(0,0,0)" /><polygon points="497,516 497,511 489,507 467,507 462,505 444,506 435,504 422,505 421,508 415,513 415,516 418,520 423,523 424,521 442,521 444,519 445,509 457,509 460,511 466,511 468,509 468,511 471,512 468,515 471,518 475,517 488,519 497,516" stroke="rgb(0,0,0)" /><polygon points="702,464 701,459 695,460 678,458 665,460 662,458 660,429 662,374 654,366 652,368 653,381 651,388 651,432 653,443 651,445 640,445 625,441 621,437 620,439 619,438 619,433 620,437 623,424 631,416 638,414 640,411 646,409 647,403 645,402 629,404 620,407 613,413 615,408 621,405 621,403 619,403 622,401 633,399 635,399 635,401 647,400 648,395 649,397 650,394 646,391 636,390 626,385 623,386 622,381 624,380 619,375 619,368 622,362 622,354 625,350 629,348 628,346 632,344 628,340 623,340 626,338 625,337 601,333 601,331 597,330 581,345 584,347 598,346 603,350 602,351 599,348 593,348 590,350 587,348 585,350 579,347 573,353 585,365 588,362 586,359 587,355 590,356 589,361 597,366 599,365 599,363 597,362 599,360 597,354 600,356 602,355 601,369 599,370 591,366 588,368 574,370 560,377 547,379 543,383 546,386 553,385 559,387 564,385 559,390 556,390 554,388 537,389 529,397 529,399 533,402 539,402 543,404 546,403 547,399 547,401 553,406 557,406 558,412 565,417 566,420 570,420 570,422 575,424 597,427 599,423 604,422 605,427 601,430 600,438 605,438 606,442 601,447 599,443 559,446 523,445 517,443 518,441 547,443 547,441 539,441 563,441 593,438 599,436 598,434 595,435 594,432 582,430 590,430 590,428 575,427 565,422 558,421 553,425 545,428 504,429 504,431 516,431 517,434 515,435 512,433 501,432 500,441 498,445 461,441 463,439 466,439 489,441 496,443 498,441 498,429 452,428 452,430 458,431 454,433 448,431 447,432 447,444 445,445 359,447 364,444 365,439 367,444 444,442 446,429 374,429 313,427 313,444 348,445 311,446 304,452 303,449 295,452 278,452 265,454 257,454 255,452 252,452 239,454 193,453 191,455 199,463 225,465 273,463 305,458 305,460 295,463 272,465 266,467 209,467 207,469 213,475 213,477 220,479 257,479 290,482 283,482 283,484 317,484 341,482 360,483 360,481 344,480 359,480 363,478 363,468 359,466 365,465 355,463 356,462 386,463 400,465 409,468 366,465 364,471 365,472 370,469 368,471 373,473 374,481 376,474 374,482 375,483 387,483 387,481 415,481 417,471 416,470 420,471 417,472 416,480 418,483 482,483 496,479 501,472 501,470 496,467 488,466 436,467 407,464 406,463 408,462 431,464 493,464 500,467 502,466 503,473 501,478 495,483 482,486 377,485 375,488 374,486 371,487 370,485 368,485 367,488 365,486 364,488 362,484 340,484 317,485 313,489 327,503 337,503 329,505 337,506 332,508 341,517 360,517 361,514 362,516 363,506 365,503 371,504 375,502 377,507 378,505 379,506 381,504 385,504 380,506 376,510 377,517 379,519 381,518 380,525 379,524 377,526 365,526 365,524 363,524 366,540 392,540 402,546 410,548 414,544 404,536 398,534 394,528 393,521 398,531 409,537 410,534 415,538 424,540 446,542 446,556 455,558 445,558 446,545 444,543 431,543 422,541 417,546 417,552 412,551 405,558 406,559 495,559 497,548 495,540 487,543 468,543 467,553 466,542 483,540 488,541 498,537 496,539 498,540 497,559 502,560 501,561 456,563 412,562 409,564 412,565 411,566 424,579 445,581 450,584 458,584 460,577 473,577 488,580 496,584 499,593 498,606 485,614 474,616 488,616 495,614 501,611 502,609 506,608 501,615 496,617 486,620 469,622 472,623 471,624 481,633 498,633 503,631 522,631 530,633 539,624 536,622 542,621 535,619 513,619 512,617 507,617 506,613 515,605 516,602 513,592 516,597 516,601 522,602 517,605 516,608 511,612 512,613 546,616 551,618 557,612 554,610 554,607 548,603 537,600 529,600 521,596 518,596 511,582 512,578 518,595 520,595 521,592 527,596 543,598 548,600 549,598 546,589 549,579 551,577 550,576 546,578 539,587 527,580 517,579 510,573 517,576 527,577 539,584 544,576 566,562 570,556 574,557 578,554 593,553 598,551 589,542 583,542 578,543 573,548 583,550 565,552 558,555 535,560 527,565 521,565 515,554 516,545 520,541 530,539 643,539 672,512 672,503 675,503 676,508 679,505 678,503 681,503 686,498 686,494 688,496 701,483 699,475 702,464" stroke="rgb(0,0,0)" /><polygon points="559,656 557,651 550,651 546,649 503,648 500,650 493,650 378,648 376,654 376,678 371,680 355,681 351,683 343,683 337,686 320,688 326,685 335,685 343,681 357,678 352,677 350,675 362,675 375,670 374,667 370,665 373,664 373,662 342,661 374,660 375,658 372,657 375,652 373,651 375,649 374,648 350,647 350,649 347,649 346,648 350,647 337,644 334,642 357,645 374,645 375,642 369,639 351,640 313,638 304,633 304,622 299,621 299,637 305,643 350,652 329,651 314,648 308,649 300,645 297,641 297,619 292,614 296,615 298,611 297,610 273,611 265,609 243,609 222,607 197,607 195,609 176,609 172,613 169,613 172,616 205,614 202,617 183,617 172,619 174,648 177,635 175,664 176,665 177,662 179,662 177,665 178,667 201,668 223,666 237,667 248,665 258,666 278,664 291,661 301,661 300,673 298,664 291,664 288,666 281,666 275,668 253,669 218,669 203,671 195,669 175,669 175,671 192,671 182,672 182,674 195,674 182,675 182,677 196,677 205,679 263,678 283,680 289,674 290,678 298,676 302,679 304,677 305,679 304,681 293,679 288,683 282,685 259,681 235,683 174,681 174,698 173,692 171,689 170,690 172,708 171,710 171,698 169,692 168,699 165,703 165,707 169,724 378,724 379,722 376,716 344,716 329,714 376,713 376,711 342,710 375,709 382,706 385,701 388,700 442,700 443,698 444,701 445,699 444,710 449,711 450,699 452,695 451,708 453,710 454,706 456,707 458,704 460,709 499,709 499,707 491,706 503,705 503,703 484,703 494,701 502,702 509,699 555,700 557,658 559,656" stroke="rgb(0,0,0)" /><polygon points="525,279 524,277 522,278 524,280 525,279" stroke="rgb(0,0,0)" /><polygon points="702,464 701,459 695,460 678,458 665,460 662,458 660,429 662,378 661,338 623,340 638,338 613,336 609,334 613,334 613,332 607,331 587,329 582,329 582,331 572,330 569,324 570,317 567,316 572,313 567,311 525,311 521,315 519,326 520,312 518,310 520,309 512,306 498,304 513,305 525,309 562,309 565,306 561,302 540,305 521,305 526,303 541,303 552,301 520,300 519,299 521,297 518,291 481,291 478,294 478,291 472,289 466,296 464,296 468,302 466,303 471,306 473,306 474,304 475,305 473,306 477,308 501,312 503,314 503,324 494,329 464,331 460,333 445,334 447,332 455,330 481,328 486,326 450,291 432,308 434,310 440,310 447,314 449,322 444,327 444,330 436,332 394,332 390,336 392,338 396,338 387,339 384,342 390,348 394,348 397,351 399,351 406,345 412,344 403,349 401,351 402,352 405,351 399,357 410,368 413,365 411,361 413,354 420,349 429,347 447,347 454,345 480,347 487,348 498,353 501,356 501,362 498,367 476,369 471,372 463,374 460,377 461,379 459,380 457,378 440,378 432,380 404,381 414,391 424,387 429,388 447,386 451,383 451,381 451,385 448,387 450,393 448,403 451,404 452,399 453,401 455,399 456,410 469,407 470,405 468,401 472,405 495,403 496,388 499,387 498,397 500,397 500,395 500,401 498,403 504,404 496,406 475,407 458,412 453,412 453,408 451,406 439,408 434,413 436,415 452,415 451,418 449,418 449,416 443,416 440,419 446,425 514,427 549,424 555,420 553,419 554,413 549,408 522,402 518,399 517,393 519,389 527,386 553,385 559,387 564,384 562,388 559,390 556,390 554,388 525,389 520,393 520,397 525,400 539,402 543,404 546,403 547,399 547,401 553,406 557,406 558,412 565,417 566,420 570,420 570,422 575,424 597,427 599,423 604,422 605,427 601,430 600,438 605,438 606,442 601,447 599,443 559,446 523,445 517,443 518,441 547,443 547,441 539,441 563,441 593,438 599,436 598,434 595,435 594,432 582,430 590,430 590,428 575,427 565,422 558,421 553,425 545,428 504,429 504,431 516,431 517,434 515,435 512,433 501,432 500,441 498,445 461,441 463,439 466,439 489,441 496,443 498,441 498,429 452,428 452,430 458,431 454,433 448,431 447,432 447,444 445,445 380,446 378,448 382,452 471,452 472,453 420,454 475,456 388,458 391,459 390,460 395,465 408,467 410,470 414,466 412,464 406,463 408,462 431,464 493,464 500,467 502,466 503,473 501,478 495,483 489,485 433,485 431,487 436,492 433,495 440,502 482,503 494,505 500,509 500,520 498,519 497,522 495,520 474,520 472,524 468,524 466,522 463,525 479,541 488,541 498,537 496,539 498,540 497,559 502,560 500,562 514,574 522,566 519,563 515,553 516,545 523,540 553,539 558,534 563,539 567,540 650,540 599,541 599,543 614,543 612,545 600,544 599,545 601,550 601,556 598,558 588,559 585,561 596,572 603,570 606,571 599,573 598,574 600,576 610,573 616,574 619,571 627,571 628,572 621,573 626,578 655,578 656,579 652,580 638,580 636,582 650,596 652,594 652,588 654,596 665,596 652,598 667,613 681,599 678,597 673,598 669,596 688,596 688,594 685,593 689,590 688,592 690,594 699,585 698,580 700,580 701,577 701,564 698,559 698,547 700,540 699,508 701,502 699,494 701,480 699,475 702,464" stroke="rgb(0,0,0)" /><polygon points="701,577 701,564 698,559 698,547 700,540 699,508 701,502 699,494 701,483 700,478 694,472 693,473 693,471 684,462 683,464 680,464 683,461 681,459 663,459 661,454 660,438 657,441 654,438 653,443 651,445 640,445 631,443 623,440 621,437 620,439 619,433 620,437 622,426 630,418 620,408 613,413 615,408 618,406 607,395 591,411 593,413 599,414 603,412 603,418 594,418 587,415 581,421 585,425 596,427 599,423 604,422 605,427 601,430 600,438 605,438 606,442 601,447 599,443 559,446 523,445 517,443 518,441 547,443 547,441 539,441 563,441 593,438 599,436 598,434 595,435 594,432 582,430 590,430 590,428 575,427 560,421 545,428 504,429 504,431 516,431 517,434 515,435 512,433 501,432 500,441 498,445 461,441 463,439 466,439 489,441 496,443 498,441 498,429 452,428 452,430 458,431 454,433 448,431 447,432 447,444 445,445 373,446 363,447 359,451 471,452 472,453 420,454 475,456 353,456 349,460 354,465 356,462 386,463 400,465 409,468 383,467 371,465 368,468 370,469 369,471 372,472 374,476 376,474 375,477 381,483 387,483 387,481 415,481 417,471 416,470 420,471 417,472 416,480 419,483 421,483 424,480 428,480 426,482 427,483 439,483 454,468 452,466 420,466 407,464 406,463 408,462 431,464 493,464 500,467 502,466 503,468 502,476 498,481 489,485 482,486 377,485 375,488 374,486 371,487 370,485 368,485 367,488 365,486 364,488 362,484 320,485 311,494 312,495 310,495 305,500 308,503 337,503 310,505 323,518 347,516 360,517 361,514 362,516 363,515 363,506 365,503 371,504 375,502 377,507 378,505 379,506 381,504 385,504 380,506 376,510 377,517 379,519 381,518 380,525 379,524 377,526 365,526 365,524 363,524 366,540 392,540 402,546 414,550 415,544 409,541 404,536 398,534 394,528 393,521 398,531 409,537 410,534 415,538 424,540 446,542 446,556 455,558 445,558 446,545 444,543 431,543 419,540 415,541 417,552 406,551 389,542 372,542 359,544 326,543 312,545 310,547 313,548 312,549 315,552 322,547 325,547 327,551 330,549 351,549 354,547 364,545 362,547 363,554 364,555 365,553 364,556 370,559 495,559 497,548 495,540 487,543 468,543 467,553 466,542 483,540 488,541 498,537 496,539 498,540 497,559 502,560 501,561 456,563 378,563 364,560 361,555 360,548 353,551 328,551 326,556 327,557 337,558 333,559 333,561 336,561 343,565 344,564 340,561 340,558 342,561 359,568 363,576 368,576 376,580 402,584 409,583 409,585 412,583 413,578 445,581 450,584 458,584 460,577 473,577 488,580 497,585 496,586 499,593 499,604 496,608 485,614 474,616 488,616 495,614 501,611 502,609 506,608 501,615 486,620 464,621 464,624 458,625 391,625 388,627 388,629 392,631 413,631 415,629 425,631 432,630 437,632 424,633 437,635 453,635 459,633 463,634 479,632 498,633 503,631 522,631 529,633 539,632 534,631 535,630 555,631 557,629 556,625 542,624 536,622 554,622 554,620 518,618 513,619 512,617 507,617 506,615 506,613 515,605 516,602 513,592 516,597 516,601 522,602 517,605 516,608 511,612 512,613 546,616 551,618 564,617 564,615 560,612 555,611 554,607 548,603 537,600 529,600 521,596 518,596 511,582 512,578 518,595 520,595 521,592 527,596 543,598 548,600 549,598 546,589 549,579 551,577 549,576 546,578 539,587 527,580 517,579 510,573 517,576 527,577 539,584 544,576 566,562 570,556 574,557 578,554 598,552 600,548 597,544 599,543 614,543 612,545 600,544 600,557 579,561 573,563 570,566 581,577 587,574 592,574 603,570 606,571 587,576 595,577 610,573 616,574 619,571 627,571 628,572 621,572 616,576 609,576 606,578 623,595 627,595 631,591 637,597 650,596 652,594 653,588 654,596 665,596 653,597 641,601 656,616 678,616 694,600 691,598 673,598 670,597 670,595 679,595 681,597 691,596 696,599 699,599 700,587 698,580 700,580 701,577" stroke="rgb(0,0,0)" /><polygon points="702,464 701,459 695,460 678,458 665,460 662,458 660,429 662,357 654,349 652,355 653,381 651,388 651,432 653,443 651,445 640,445 625,441 621,437 620,439 619,438 619,433 620,437 623,424 631,416 638,414 640,411 646,409 647,403 645,402 629,404 620,407 613,413 615,408 621,405 621,403 619,403 622,401 633,399 635,399 635,401 643,401 648,399 648,395 649,397 650,396 650,394 646,391 636,390 626,385 623,386 622,381 624,380 619,375 619,368 622,362 622,354 625,350 629,348 628,346 631,347 642,344 646,345 648,343 644,339 623,340 637,339 637,337 619,337 609,334 613,334 613,332 582,329 582,331 578,331 556,353 570,367 572,364 573,354 573,363 571,367 572,369 576,366 588,366 590,363 586,359 587,355 590,356 589,361 592,364 598,366 599,363 597,361 599,360 599,357 597,354 600,356 602,355 601,369 599,370 591,366 588,368 574,370 560,377 538,382 535,384 538,386 553,385 559,387 564,385 559,390 556,390 554,388 525,389 520,393 520,397 525,400 539,402 543,404 546,403 547,399 547,401 553,406 557,406 558,412 565,417 566,420 570,420 570,422 575,424 597,427 599,423 604,422 605,427 601,430 600,435 601,439 605,438 606,440 603,446 602,445 601,447 599,443 559,446 523,445 517,443 518,441 547,443 547,441 539,441 563,441 593,438 599,436 598,434 595,435 594,432 582,430 590,430 590,428 575,427 560,421 545,428 504,429 504,431 516,431 517,434 515,435 512,433 501,432 500,441 498,445 461,441 463,439 466,439 489,441 496,443 498,441 498,429 452,428 452,430 458,431 454,433 448,431 447,432 447,444 445,445 359,447 353,450 343,460 354,471 358,467 357,466 360,465 359,463 355,463 356,462 386,463 400,465 409,468 366,465 364,470 368,471 370,469 368,471 373,473 374,481 376,474 374,482 375,483 387,483 387,481 415,481 417,471 416,470 420,471 417,472 416,480 418,483 445,483 461,468 459,466 420,466 407,464 406,463 408,462 431,464 493,464 500,467 502,466 503,468 502,476 498,481 489,485 482,486 377,485 375,488 374,486 371,487 370,485 368,485 367,488 365,486 364,488 362,484 317,485 310,491 311,492 307,494 308,495 301,500 305,504 316,502 337,503 308,505 307,506 319,518 347,516 360,517 361,514 362,516 363,515 363,506 365,503 371,504 375,502 377,507 378,505 379,506 381,504 385,504 380,506 376,510 377,517 379,519 381,518 380,525 379,524 377,526 365,526 365,524 363,524 366,540 392,540 402,546 414,550 415,544 409,541 404,536 398,534 394,528 393,521 398,531 409,537 410,534 415,538 424,540 446,542 446,556 455,558 445,558 446,545 444,543 431,543 416,540 415,541 417,552 406,551 389,542 377,542 377,544 380,545 375,544 369,550 369,552 368,551 364,555 366,558 370,559 495,559 497,548 495,540 487,543 468,543 467,553 466,542 483,540 488,541 498,537 496,539 498,540 497,559 502,560 501,561 456,563 378,563 368,561 365,564 381,580 389,582 402,584 409,583 408,584 410,585 412,583 413,578 420,578 445,581 450,584 458,584 460,577 473,577 491,581 497,585 496,586 499,593 498,606 485,614 474,616 488,616 495,614 501,611 502,609 506,608 501,615 486,620 464,621 464,624 458,625 430,625 429,626 434,631 442,632 438,633 438,635 453,635 459,633 463,634 479,632 498,633 503,631 522,631 529,633 538,633 538,631 534,631 555,631 557,629 557,626 552,624 549,625 536,622 555,621 518,618 513,619 512,617 507,617 506,613 515,605 516,602 513,592 516,597 516,601 522,602 517,605 516,608 511,612 512,613 546,616 551,618 561,618 565,616 560,612 555,611 554,607 548,603 537,600 529,600 521,596 518,596 511,582 511,578 518,595 520,595 521,592 527,596 543,598 548,600 549,598 546,589 549,579 551,577 549,576 546,578 539,587 527,580 517,579 510,573 517,576 527,577 539,584 544,576 566,562 570,556 574,557 578,554 598,552 600,548 597,544 599,543 534,542 528,548 537,557 565,549 583,550 565,552 558,555 546,557 539,560 535,560 527,565 521,565 519,563 515,554 516,545 520,541 530,539 643,539 650,541 620,540 616,542 632,558 669,559 672,556 671,550 673,555 676,552 675,547 677,551 678,547 680,548 685,543 680,540 689,539 689,533 683,527 682,519 684,519 684,521 690,527 700,517 699,508 701,501 699,489 701,480 699,475 702,464" stroke="rgb(0,0,0)" /><polygon points="528,201 526,201 528,201" stroke="rgb(0,0,0)" /><polygon points="558,134 557,92 525,94 522,97 486,93 440,92 440,99 438,94 439,91 445,90 477,88 540,89 551,88 551,86 459,85 438,87 435,89 433,96 434,106 438,108 439,105 444,103 445,106 450,105 449,106 454,109 451,110 451,114 447,113 444,118 441,118 437,111 434,112 435,119 432,125 434,126 431,132 432,142 434,144 507,144 533,142 539,143 543,137 542,131 543,137 546,137 545,128 544,127 543,129 542,126 545,126 546,133 547,126 548,128 549,127 552,142 557,140 556,137 558,134" stroke="rgb(0,0,0)" /><polygon points="769,718 768,716 762,715 729,715 712,713 585,713 561,711 556,710 553,707 552,715 532,714 467,716 456,718 443,718 442,721 444,723 445,722 456,724 554,723 555,721 550,718 555,718 558,723 767,723 769,718" stroke="rgb(0,0,0)" /><polygon points="559,656 557,651 550,651 546,649 503,648 500,650 493,650 378,648 376,654 376,678 371,680 355,681 351,683 343,683 337,686 320,688 326,685 335,685 343,681 357,678 352,677 350,675 362,675 375,670 374,667 370,665 373,664 373,662 342,661 374,660 375,658 372,657 375,652 373,651 375,649 374,648 350,647 350,649 347,649 346,648 350,647 337,644 334,642 357,645 374,645 375,642 369,639 351,640 313,638 304,633 304,622 299,621 299,637 305,643 350,652 329,651 314,648 308,649 300,645 297,641 297,619 292,614 296,615 298,611 297,610 273,611 265,609 243,609 222,607 197,607 195,609 176,609 172,613 169,613 172,616 205,614 202,617 183,617 172,619 174,648 177,635 175,664 176,665 177,662 179,662 177,665 178,667 201,668 223,666 237,667 248,665 258,666 278,664 291,661 301,661 300,673 298,664 291,664 288,666 281,666 275,668 253,669 218,669 203,671 195,669 175,669 175,671 192,671 182,672 182,674 195,674 182,675 182,677 196,677 205,679 263,678 283,680 289,674 290,678 298,676 302,679 304,677 305,679 304,681 293,679 288,683 282,685 259,681 235,683 174,681 174,698 173,692 171,689 170,690 172,708 171,710 171,698 169,692 168,699 165,703 165,707 169,724 378,724 379,722 376,716 344,716 329,714 376,713 376,711 342,710 375,709 382,706 385,701 388,700 442,700 443,698 444,701 445,699 444,710 449,711 450,699 452,695 451,708 453,710 454,706 456,707 458,704 460,709 499,709 499,707 491,706 503,705 503,703 484,703 494,701 502,702 509,699 555,700 557,658 559,656" stroke="rgb(0,0,0)" /><polygon points="702,464 701,459 695,460 678,458 665,460 662,458 660,429 662,339 652,338 639,340 623,340 638,338 613,336 609,334 613,334 613,332 607,331 587,329 582,329 582,331 576,330 552,353 566,367 570,367 570,370 576,366 588,366 590,363 586,359 587,355 590,356 589,361 592,364 598,366 599,363 597,361 599,360 599,357 597,354 600,356 602,355 601,369 599,370 591,366 588,368 574,370 560,377 538,382 535,384 538,386 553,385 559,387 564,385 559,390 556,390 554,388 525,389 520,393 520,397 525,400 539,402 543,404 546,403 547,399 547,401 553,406 557,406 558,412 565,417 566,420 570,420 570,422 575,424 597,427 599,423 604,422 605,427 601,430 600,438 605,438 605,444 601,447 599,443 559,446 523,445 517,443 518,441 547,443 547,441 539,441 565,440 566,439 552,425 545,428 534,429 504,429 504,431 516,431 517,434 515,435 512,433 501,432 500,441 498,445 461,441 451,451 472,453 448,454 475,456 446,456 439,463 440,464 493,464 500,467 502,466 503,473 501,478 495,483 482,486 415,485 393,509 396,520 392,510 382,520 392,530 394,528 393,521 398,531 409,537 410,534 415,538 424,540 446,542 446,556 455,558 445,558 446,545 444,543 431,543 419,540 415,541 417,552 406,551 399,547 388,558 420,560 495,559 497,548 495,540 487,543 468,543 467,553 466,542 483,540 488,541 498,537 496,539 498,540 497,559 502,560 456,563 390,562 388,564 407,583 409,583 409,585 412,583 413,578 430,579 445,581 450,584 458,584 460,577 479,578 491,581 496,584 499,593 498,606 485,614 474,616 488,616 495,614 501,611 502,609 506,608 504,612 501,615 490,619 479,621 464,621 464,624 453,625 452,626 459,633 498,633 503,631 522,631 529,633 538,633 538,631 534,631 553,631 557,626 552,624 549,625 536,622 555,621 518,618 513,619 512,617 507,617 506,613 515,605 516,602 513,592 516,597 516,601 522,602 517,605 516,608 511,612 512,613 546,616 551,618 561,618 565,616 560,612 555,611 554,607 548,603 537,600 529,600 521,596 518,596 511,582 511,578 518,595 520,595 521,592 527,596 543,598 548,600 549,598 546,589 549,579 551,577 549,576 546,578 539,587 527,580 517,579 510,573 517,576 527,577 539,584 544,576 566,562 570,556 574,557 578,554 598,552 600,548 597,544 599,543 614,543 612,545 600,544 600,557 579,561 560,570 553,577 550,583 548,590 551,592 551,594 550,592 549,595 553,599 568,605 572,611 590,617 591,615 589,613 597,616 616,616 616,614 634,614 634,616 686,615 696,617 698,615 697,604 698,612 700,612 700,587 698,580 700,580 701,577 701,564 698,559 698,547 700,540 699,508 701,502 699,494 701,480 699,475 702,464" stroke="rgb(0,0,0)" /><polygon points="776,342 776,331 775,330 774,332 775,319 773,314 767,263 764,255 761,259 765,251 759,215 757,211 758,207 749,207 740,210 747,206 747,201 745,200 738,203 739,201 737,200 728,202 723,208 724,204 729,199 728,193 733,190 740,190 740,188 744,185 743,173 746,173 747,175 752,174 751,169 747,170 751,168 751,164 740,95 738,92 729,93 717,89 705,88 704,86 733,90 737,89 736,87 729,87 715,82 701,81 701,83 698,83 693,87 686,89 682,87 677,87 652,93 625,93 610,91 570,92 572,109 577,105 620,105 648,111 651,113 670,115 670,118 668,119 650,120 582,119 572,117 572,129 574,134 599,131 614,131 642,123 659,122 655,124 644,124 636,127 627,128 624,131 625,134 631,138 660,144 664,143 666,145 668,143 673,144 676,145 676,147 681,146 681,148 685,149 698,150 702,152 703,151 703,153 714,157 738,160 740,164 738,166 735,164 730,167 727,166 725,171 725,165 721,162 722,161 715,159 714,161 717,174 716,177 714,162 712,159 709,158 704,178 704,172 702,170 695,174 672,176 674,174 699,171 701,169 698,167 703,165 704,162 701,157 700,160 699,157 663,152 653,154 656,156 657,166 656,169 655,166 650,172 672,173 659,174 658,175 661,176 656,178 652,178 652,176 624,175 617,172 614,167 604,157 600,157 599,158 607,165 603,166 597,173 592,175 566,178 532,178 522,179 522,181 519,182 533,183 535,181 568,180 565,182 558,182 558,184 561,184 555,186 559,187 559,189 569,189 571,192 606,193 649,192 659,190 700,192 705,193 707,196 705,201 705,215 702,217 699,214 691,215 667,213 576,213 575,214 578,215 577,216 574,216 575,215 572,213 553,213 535,215 469,215 471,213 470,209 466,204 464,196 457,197 446,195 444,198 446,206 444,213 445,215 443,217 440,215 437,216 437,220 439,222 490,220 529,221 697,219 702,220 708,218 706,220 709,223 707,227 710,228 713,227 715,223 714,186 716,185 716,227 720,231 723,231 723,229 725,229 725,232 716,232 719,240 716,235 713,236 710,234 709,238 708,233 707,236 705,234 698,236 696,236 696,234 693,233 686,234 686,237 679,239 677,242 676,240 673,246 675,248 676,246 677,251 684,255 692,255 697,259 712,261 712,259 705,257 705,255 706,254 706,256 716,259 716,251 717,253 718,252 718,242 718,250 723,262 720,265 723,268 724,274 723,284 728,288 726,291 724,291 724,296 725,297 727,293 730,292 723,302 725,305 727,331 730,332 734,327 734,331 736,329 737,331 769,331 771,329 772,324 773,328 770,340 775,343 776,342" stroke="rgb(0,0,0)" /><polygon points="598,398 598,390 597,389 592,391 592,388 577,394 573,399 573,402 576,406 582,405 586,407 598,398" stroke="rgb(0,0,0)" /><polygon points="702,623 700,617 698,619 683,618 679,620 689,622 686,623 673,623 671,621 669,623 648,622 671,620 674,621 679,620 679,618 609,619 605,620 605,622 600,622 599,621 605,620 597,618 591,620 574,616 570,613 568,614 570,635 571,632 574,631 596,631 589,629 616,629 627,630 631,632 634,629 634,627 661,631 671,631 674,626 680,625 682,627 688,626 688,631 692,629 694,630 695,634 693,635 700,637 701,633 700,632 699,634 699,632 702,623" stroke="rgb(0,0,0)" /><polygon points="776,342 776,331 775,330 774,332 775,319 773,314 767,263 764,255 761,259 765,251 759,215 757,211 758,207 749,207 740,210 747,206 747,201 745,200 738,203 739,201 737,200 728,202 723,208 724,204 729,199 728,193 733,190 740,190 740,188 744,185 743,173 746,173 747,175 752,174 751,169 747,170 751,168 751,164 740,95 738,92 729,93 717,89 705,88 704,86 733,90 737,89 736,87 729,87 715,82 701,81 701,83 698,83 693,87 686,89 682,87 677,87 652,93 625,93 610,91 570,92 572,109 577,105 620,105 648,111 651,113 670,115 670,118 668,119 650,120 582,119 572,117 572,129 574,134 599,131 614,131 642,123 659,122 655,124 644,124 636,127 627,128 624,131 625,134 631,138 660,144 664,143 666,145 668,143 673,144 676,145 676,147 681,146 681,148 685,149 698,150 702,152 703,151 703,153 714,157 738,160 740,164 738,166 735,164 730,167 727,166 725,171 725,165 721,162 722,161 715,159 714,161 717,174 716,177 714,162 712,159 709,158 704,178 704,172 702,170 695,174 672,176 674,174 699,171 701,169 698,167 703,165 704,162 701,157 700,160 699,157 663,152 653,154 656,156 657,166 656,169 655,166 650,172 672,173 659,174 658,175 661,176 656,178 652,178 652,176 624,175 617,172 614,167 604,157 600,157 599,158 607,165 603,166 597,173 592,175 566,178 532,178 522,179 522,181 519,182 533,183 535,181 568,180 565,182 558,182 558,184 561,184 555,186 559,187 559,189 569,189 571,192 606,193 649,192 659,190 700,192 705,193 707,196 705,201 705,215 702,217 699,214 691,215 667,213 576,213 575,214 578,215 577,216 574,216 575,215 572,213 553,213 535,215 469,215 471,213 470,209 466,204 464,196 457,197 446,195 444,198 446,206 444,213 445,215 443,217 440,215 437,216 437,220 439,222 490,220 529,221 697,219 702,220 708,218 706,220 709,223 707,227 710,228 713,227 715,223 714,186 716,185 716,227 720,231 723,231 723,229 725,229 725,232 716,232 719,240 716,235 713,236 710,234 709,238 708,233 707,236 705,234 698,236 696,236 696,234 693,233 686,234 686,237 679,239 677,242 676,240 673,246 675,248 676,246 677,251 684,255 692,255 697,259 712,261 712,259 705,257 705,255 706,254 706,256 716,259 716,251 717,253 718,252 718,242 718,250 723,262 720,265 723,268 724,274 723,284 728,288 726,291 724,291 724,296 725,297 727,293 730,292 723,302 725,305 727,331 730,332 734,327 734,331 736,329 737,331 769,331 771,329 772,324 773,328 770,340 775,343 776,342" stroke="rgb(0,0,0)" /><polygon points="779,696 778,690 771,691 770,692 773,693 772,694 769,694 769,692 724,692 724,694 726,694 722,695 722,693 718,693 716,691 709,689 701,689 698,687 685,688 670,685 595,685 578,686 570,688 571,698 589,698 590,697 587,696 588,695 591,695 591,697 637,697 639,695 642,695 643,696 640,697 641,698 649,698 654,695 651,693 660,696 657,696 657,698 682,699 696,699 696,697 699,699 713,699 713,697 717,697 717,699 725,699 725,697 728,699 762,699 762,697 759,697 764,696 764,698 773,698 779,696" stroke="rgb(0,0,0)" /><polygon points="703,671 703,666 700,664 700,661 698,659 622,660 614,658 597,659 586,657 580,658 573,656 570,657 572,675 573,673 579,671 653,672 669,670 670,668 671,670 673,669 674,671 676,669 676,671 680,671 683,669 688,672 692,669 696,673 703,671" stroke="rgb(0,0,0)" /><polygon points="719,272 718,269 705,269 670,274 676,271 654,270 654,272 657,272 653,274 654,288 652,289 643,291 634,291 631,289 627,289 624,291 626,287 634,285 636,285 633,287 635,289 650,287 653,282 652,279 649,278 652,273 651,271 629,274 627,278 622,280 622,291 619,287 618,283 621,277 626,272 633,270 652,268 686,269 696,268 697,267 694,266 695,265 699,267 714,266 714,264 711,263 694,263 687,261 682,262 686,264 671,262 639,263 653,261 640,260 648,258 657,258 657,262 674,260 663,259 664,258 680,258 680,256 672,250 672,241 675,236 681,233 694,229 706,228 704,226 700,226 700,224 688,226 667,226 657,224 616,224 616,226 629,226 627,228 628,229 649,230 657,233 662,238 662,241 656,235 654,237 654,248 657,250 660,248 664,248 668,252 664,250 659,254 659,251 653,249 646,253 623,254 608,257 617,258 634,256 624,258 624,262 579,264 565,263 558,265 572,269 600,270 608,273 604,273 602,277 602,273 590,273 597,276 603,281 604,279 603,288 605,289 605,293 595,300 584,302 583,303 585,304 580,306 583,307 584,309 622,306 622,304 617,303 619,302 635,306 631,306 631,308 650,309 680,309 705,306 705,304 698,304 712,302 699,300 649,300 714,300 715,298 711,295 715,294 710,292 712,291 712,282 700,287 683,291 676,291 660,295 658,293 659,290 665,289 665,291 669,291 673,289 680,289 680,287 689,287 692,286 693,283 700,284 709,280 712,276 710,275 711,274 716,275 719,272" stroke="rgb(0,0,0)" /><polygon points="651,439 650,413 648,411 642,412 633,417 625,425 623,429 623,434 630,440 640,442 641,432 645,434 646,439 648,434 648,440 649,441 651,439" stroke="rgb(0,0,0)" /><polygon points="651,382 649,349 650,348 648,347 643,349 641,347 627,352 624,355 624,363 621,368 621,374 626,380 630,382 627,383 629,385 636,387 640,386 640,384 633,377 632,373 648,386 649,390 651,382" stroke="rgb(0,0,0)" /><polygon points="703,671 703,666 700,664 700,661 698,659 622,660 614,658 597,659 586,657 580,658 573,656 570,657 572,675 573,673 579,671 653,672 669,670 670,668 671,670 673,669 674,671 676,669 676,671 680,671 683,669 688,672 692,669 696,673 703,671" stroke="rgb(0,0,0)" /><polygon points="772,433 771,425 769,425 769,427 770,423 766,419 764,423 761,425 765,419 764,417 761,420 760,419 762,417 757,415 759,413 758,411 761,408 754,407 757,405 753,404 750,399 751,396 765,396 758,395 759,394 757,393 757,391 751,392 752,387 756,383 752,382 752,379 755,375 751,372 751,370 754,367 755,369 753,371 756,373 758,377 756,377 754,380 757,381 757,383 761,384 764,384 765,383 763,382 765,380 768,384 764,385 764,387 768,388 770,385 771,379 768,375 771,373 772,370 771,362 770,361 769,363 767,363 770,360 768,358 771,355 771,350 769,349 770,344 732,344 731,345 735,348 743,349 732,349 731,353 730,350 722,351 704,357 693,367 691,370 692,375 690,373 691,367 698,358 714,350 707,349 697,352 696,353 699,354 698,355 692,355 686,362 685,365 687,369 685,372 683,384 683,390 685,393 685,397 683,400 685,403 684,409 688,412 691,406 690,410 694,418 703,429 697,424 695,425 695,427 692,424 688,414 685,412 682,415 682,426 679,429 679,437 681,439 678,439 677,428 681,424 679,422 681,417 677,415 677,412 680,409 680,406 685,406 685,404 682,402 683,394 679,390 683,382 683,375 685,369 683,364 687,356 695,348 698,347 697,348 700,349 708,346 703,343 697,343 682,345 675,349 672,357 674,372 673,388 675,445 726,447 728,446 723,441 721,441 725,439 719,436 724,436 727,433 728,429 732,427 729,424 730,422 733,421 733,425 735,425 735,400 737,394 736,362 725,361 717,365 710,366 700,373 694,381 693,386 692,383 699,372 706,367 701,367 704,364 723,356 734,355 736,352 737,362 739,356 747,356 748,379 749,376 747,384 748,408 749,409 750,407 749,425 753,431 754,430 755,432 757,430 757,432 762,435 768,436 770,433 772,433" stroke="rgb(0,0,0)" /><polygon points="777,616 777,612 774,611 766,615 731,615 731,617 735,617 729,617 727,620 726,604 731,599 727,596 728,592 726,589 728,586 732,584 728,582 728,578 730,576 727,574 728,563 730,561 727,556 730,551 728,549 728,539 729,532 733,530 728,528 729,525 727,523 727,511 729,503 729,455 727,457 724,487 723,580 725,601 724,612 716,612 716,642 718,647 718,650 717,648 716,649 716,675 719,677 723,674 722,673 727,673 725,661 722,658 724,659 724,656 726,655 724,653 724,650 727,647 725,643 726,640 733,638 726,636 727,625 759,625 774,628 774,626 763,623 771,623 771,621 776,620 777,616" stroke="rgb(0,0,0)" /><polygon points="773,542 773,538 769,533 763,533 770,531 770,527 764,530 763,529 766,527 765,526 758,527 747,524 739,524 733,526 745,527 746,528 736,529 751,532 748,534 749,535 752,535 754,533 752,536 756,539 771,540 771,542 773,542" stroke="rgb(0,0,0)" /></svg>