<?xml version="1.0" encoding="utf-8" ?>
<svg baseProfile="full" height="100%" version="1.1" width="100%" xmlns="http://www.w3.org/2000/svg" xmlns:ev="http://www.w3.org/2001/xml-events" xmlns:xlink="http://www.w3.org/1999/xlink"><defs /><polygon points="758,534 756,534 758,534" stroke="rgb(0,0,0)" /><polygon points="753,625 743,625 749,627 753,625" stroke="rgb(0,0,0)" /><polygon points="737,367 734,364 728,365 727,363 726,365 725,363 721,363 721,365 724,365 714,370 710,367 709,369 701,373 702,375 699,380 694,382 691,390 694,400 695,397 694,402 696,403 692,408 694,410 693,414 694,415 698,410 696,416 702,417 703,421 701,425 707,430 713,433 715,432 715,434 722,434 724,431 723,430 724,434 727,433 728,428 727,427 726,429 722,427 720,425 721,422 723,423 721,424 726,428 727,426 730,426 728,424 728,421 730,420 727,418 725,419 729,415 732,416 732,414 734,413 733,411 735,410 733,409 735,407 734,405 733,406 733,400 735,399 734,375 736,374 735,369 737,367" stroke="rgb(0,0,0)" /><polygon points="702,367 700,367 702,367" stroke="rgb(0,0,0)" /><polygon points="716,93 713,92 716,90 715,89 710,90 701,88 702,86 700,84 696,85 694,87 695,89 693,87 692,88 693,91 700,91 698,93 699,94 709,95 716,93" stroke="rgb(0,0,0)" /><polygon points="695,260 693,260 695,260" stroke="rgb(0,0,0)" /><polygon points="699,158 687,156 682,158 694,160 699,158" stroke="rgb(0,0,0)" /><polygon points="691,196 689,196 691,196" stroke="rgb(0,0,0)" /><polygon points="692,664 691,661 684,662 682,664 687,664 688,667 692,664" stroke="rgb(0,0,0)" /><polygon points="686,626 684,626 686,626" stroke="rgb(0,0,0)" /><polygon points="674,587 674,583 672,581 665,581 664,584 656,585 653,587 657,595 668,594 674,587" stroke="rgb(0,0,0)" /><polygon points="736,98 734,97 734,95 731,94 710,97 698,95 696,96 690,94 691,90 689,88 683,89 681,87 646,94 617,92 573,92 572,107 573,108 575,105 587,104 622,105 650,111 652,113 662,114 663,107 662,106 660,108 660,104 662,101 665,102 666,104 683,104 698,102 698,104 703,104 704,102 713,104 716,101 723,101 729,99 730,97 731,99 736,98" stroke="rgb(0,0,0)" /><polygon points="668,663 667,660 662,659 629,661 606,658 595,659 572,657 571,673 573,673 574,670 577,670 575,668 575,665 577,664 583,664 584,665 577,665 576,667 579,670 583,668 586,671 594,669 596,671 648,672 658,671 659,670 657,669 660,667 659,666 666,666 668,663" stroke="rgb(0,0,0)" /><polygon points="650,164 650,162 646,161 646,159 635,159 633,162 625,164 624,167 628,171 630,171 630,173 636,172 637,171 635,168 638,172 642,171 643,173 643,169 648,167 648,165 650,164" stroke="rgb(0,0,0)" /><polygon points="644,508 634,508 639,510 644,508" stroke="rgb(0,0,0)" /><polygon points="645,275 644,273 637,273 636,274 638,275 634,278 634,282 636,282 636,279 637,282 639,277 645,275" stroke="rgb(0,0,0)" /><polygon points="643,595 642,592 637,592 643,590 642,588 639,589 639,584 635,584 634,586 632,586 633,594 635,593 640,597 641,595 643,595" stroke="rgb(0,0,0)" /><polygon points="650,422 648,421 648,414 644,412 639,416 636,416 634,420 629,422 625,426 625,430 629,435 630,434 629,436 631,436 632,438 635,437 634,433 637,439 635,440 639,441 639,428 645,428 647,432 649,430 650,422" stroke="rgb(0,0,0)" /><polygon points="633,250 633,236 630,234 629,235 631,244 629,238 627,241 627,250 633,250" stroke="rgb(0,0,0)" /><polygon points="631,360 629,360 631,360" stroke="rgb(0,0,0)" /><polygon points="668,663 667,660 662,659 629,661 606,658 595,659 572,657 571,673 573,673 574,670 577,670 575,668 575,665 577,664 583,664 584,665 577,665 576,667 579,670 583,668 586,671 594,669 596,671 648,672 658,671 659,670 657,669 660,667 659,666 666,666 668,663" stroke="rgb(0,0,0)" /><polygon points="588,112 586,112 588,112" stroke="rgb(0,0,0)" /><polygon points="599,508 597,506 578,504 576,504 575,506 570,503 569,506 565,509 555,510 556,513 563,515 554,514 554,516 547,515 546,517 548,519 554,520 554,522 568,522 568,519 578,518 579,515 577,513 579,513 581,518 586,517 587,519 591,518 592,516 595,516 593,514 590,514 589,512 591,512 593,509 599,508" stroke="rgb(0,0,0)" /><polygon points="594,436 587,435 587,433 577,432 551,432 549,434 549,439 566,440 566,437 571,439 580,439 594,436" stroke="rgb(0,0,0)" /><polygon points="625,580 622,578 621,580 619,580 617,577 607,577 604,579 604,581 588,583 581,586 581,588 579,588 578,586 571,589 570,591 574,592 574,595 578,594 576,592 582,595 586,595 586,593 601,592 603,592 605,595 615,595 615,592 620,592 617,588 619,587 617,585 620,588 621,584 625,580" stroke="rgb(0,0,0)" /><polygon points="593,281 592,279 587,278 585,276 580,275 577,277 581,281 579,283 581,287 588,285 590,286 591,281 593,281" stroke="rgb(0,0,0)" /><polygon points="581,396 580,394 578,395 579,397 581,396" stroke="rgb(0,0,0)" /><polygon points="580,236 578,236 580,236" stroke="rgb(0,0,0)" /><polygon points="550,478 550,475 548,473 547,475 543,474 538,470 532,468 532,465 525,466 530,470 529,471 527,471 524,465 520,466 521,471 519,477 521,479 519,479 519,481 526,482 530,479 536,479 539,477 538,476 540,476 545,481 548,481 550,478" stroke="rgb(0,0,0)" /><polygon points="551,654 550,651 546,650 527,649 504,649 502,651 441,649 439,651 435,651 426,649 378,648 377,672 379,679 377,682 379,685 380,684 380,686 377,689 380,691 377,692 379,693 378,699 380,700 380,704 382,706 385,700 383,695 383,689 384,695 386,696 390,693 390,689 401,688 387,686 387,668 385,668 385,671 382,671 381,664 382,658 383,660 384,657 386,660 393,659 404,662 442,665 442,690 444,693 445,672 449,672 450,697 452,694 451,685 452,692 454,692 453,686 454,691 456,691 455,676 457,672 445,668 446,660 461,660 495,665 496,659 498,658 512,661 539,662 539,660 531,659 544,660 544,658 549,657 551,654" stroke="rgb(0,0,0)" /><polygon points="542,356 540,354 531,352 522,352 521,350 516,352 518,354 520,353 527,355 534,361 539,360 542,356" stroke="rgb(0,0,0)" /><polygon points="548,512 548,509 546,507 543,508 543,506 538,507 537,508 540,509 539,510 537,510 536,508 533,510 528,508 523,511 525,515 527,513 526,512 529,512 533,516 540,514 537,516 542,519 548,512" stroke="rgb(0,0,0)" /><polygon points="547,397 546,389 528,389 528,391 523,390 522,394 520,394 522,398 523,397 523,399 531,399 531,401 536,402 541,397 539,395 543,395 542,397 545,400 547,397" stroke="rgb(0,0,0)" /><polygon points="530,209 529,198 527,200 528,209 530,209" stroke="rgb(0,0,0)" /><polygon points="526,550 524,550 526,550" stroke="rgb(0,0,0)" /><polygon points="524,281 522,281 524,281" stroke="rgb(0,0,0)" /><polygon points="523,240 521,240 523,240" stroke="rgb(0,0,0)" /><polygon points="558,131 558,119 556,112 557,100 555,97 554,99 555,97 553,95 550,96 550,93 527,94 524,97 512,97 496,94 477,94 471,96 456,96 456,94 449,94 448,97 454,104 452,105 453,108 474,107 475,109 476,107 477,109 482,110 485,109 485,107 493,106 493,98 496,99 497,106 523,107 518,107 518,109 522,109 516,109 509,115 502,118 498,118 497,120 488,119 479,121 463,121 450,119 450,115 445,117 444,119 441,119 439,116 437,118 440,125 503,124 494,126 503,128 493,128 486,130 449,130 443,128 441,131 441,135 445,140 444,141 448,141 448,143 454,144 499,144 527,143 527,141 531,140 539,141 542,138 540,135 541,131 539,126 548,124 556,125 556,131 558,131" stroke="rgb(0,0,0)" /><polygon points="498,437 498,432 493,430 484,431 484,429 474,429 474,431 463,430 461,432 471,440 476,440 476,438 483,438 486,441 489,441 496,438 496,433 496,437 498,437" stroke="rgb(0,0,0)" /><polygon points="493,589 490,585 481,585 476,584 475,582 470,582 468,585 470,586 470,589 472,591 472,595 474,595 474,593 476,594 477,592 478,594 479,591 484,590 485,588 486,590 493,589" stroke="rgb(0,0,0)" /><polygon points="496,513 495,510 485,510 485,507 470,508 471,511 477,511 482,513 483,512 492,516 494,516 494,514 496,513" stroke="rgb(0,0,0)" /><polygon points="483,472 481,472 483,472" stroke="rgb(0,0,0)" /><polygon points="485,201 484,198 470,199 472,203 478,201 478,203 482,203 485,201" stroke="rgb(0,0,0)" /><polygon points="496,363 491,360 486,360 486,357 471,357 473,362 471,363 472,367 475,365 483,366 486,365 488,362 494,365 496,363" stroke="rgb(0,0,0)" /><polygon points="494,281 494,279 490,276 486,279 476,282 474,286 477,288 485,289 485,283 494,281" stroke="rgb(0,0,0)" /><polygon points="496,400 496,397 494,397 496,392 493,389 491,389 491,391 488,392 486,396 487,392 484,391 480,393 474,393 468,397 471,400 470,402 472,404 474,402 485,401 491,401 491,403 493,403 496,400" stroke="rgb(0,0,0)" /><polygon points="496,243 494,236 486,235 482,238 478,236 474,237 469,242 469,246 472,247 472,244 474,245 472,247 473,251 485,251 485,249 477,248 482,245 496,243" stroke="rgb(0,0,0)" /><polygon points="478,118 477,116 474,116 466,112 461,112 457,109 453,109 453,111 451,112 456,117 474,119 478,118" stroke="rgb(0,0,0)" /><polygon points="437,399 435,399 437,399" stroke="rgb(0,0,0)" /><polygon points="448,364 448,359 446,358 446,351 434,352 432,356 430,353 424,353 421,358 421,362 419,357 417,360 414,360 418,365 419,364 420,366 422,366 424,364 425,367 427,366 426,364 448,364" stroke="rgb(0,0,0)" /><polygon points="432,692 430,692 432,692" stroke="rgb(0,0,0)" /><polygon points="460,594 459,590 452,590 449,587 438,584 417,582 414,586 417,586 416,588 419,596 420,590 423,593 427,593 429,596 442,596 443,594 447,595 448,593 454,595 460,594" stroke="rgb(0,0,0)" /><polygon points="443,512 442,508 431,506 423,510 423,515 420,515 419,512 418,519 421,521 421,518 423,517 424,519 426,518 427,521 430,522 434,518 442,517 442,514 440,512 431,514 436,511 436,509 442,513 443,512" stroke="rgb(0,0,0)" /><polygon points="361,245 360,243 351,244 350,243 352,243 352,241 340,240 345,240 345,238 324,238 322,240 325,242 321,242 319,244 318,243 316,248 317,249 315,251 317,252 319,248 325,249 325,247 327,248 327,250 333,250 347,249 348,246 356,247 361,245" stroke="rgb(0,0,0)" /><polygon points="364,621 358,619 324,620 320,623 326,626 352,627 353,625 353,628 360,628 362,625 360,624 361,622 364,621" stroke="rgb(0,0,0)" /><polygon points="363,183 361,180 360,182 358,182 356,178 355,179 357,174 361,170 359,175 361,176 363,174 363,169 361,167 362,164 360,161 352,163 347,162 347,160 337,159 336,160 339,161 338,162 342,166 341,173 338,176 334,178 306,180 306,184 314,185 342,183 349,184 348,189 333,189 328,191 274,190 274,192 268,192 268,190 225,190 218,191 217,193 221,194 243,192 250,194 259,193 262,195 283,194 283,196 289,196 293,198 293,201 290,198 286,202 284,201 284,203 282,202 284,201 283,200 279,199 276,201 272,200 269,202 250,202 235,200 226,203 236,206 259,209 262,208 264,211 266,209 269,212 273,212 274,210 274,213 280,209 282,212 285,213 285,215 279,218 285,219 276,220 273,222 274,223 296,223 296,221 298,221 298,223 357,222 362,220 360,216 355,216 355,218 353,219 354,218 350,216 325,216 325,218 323,219 310,219 310,217 307,217 309,215 308,213 307,214 307,198 311,194 310,193 312,195 337,195 341,198 341,200 337,202 337,200 335,202 332,200 319,200 318,202 321,203 316,204 318,206 315,211 316,213 322,211 323,204 323,212 359,212 359,210 362,209 361,201 357,201 357,199 354,196 354,200 350,201 350,196 353,196 354,193 357,193 357,191 355,191 356,189 360,185 359,184 361,185 363,183" stroke="rgb(0,0,0)" /><polygon points="322,280 320,280 322,280" stroke="rgb(0,0,0)" /><polygon points="303,692 301,692 303,692" stroke="rgb(0,0,0)" /><polygon points="289,547 287,546 286,548 287,549 289,547" stroke="rgb(0,0,0)" /><polygon points="284,362 282,362 284,362" stroke="rgb(0,0,0)" /><polygon points="256,242 253,240 252,241 253,243 256,242" stroke="rgb(0,0,0)" /><polygon points="270,98 269,95 245,95 226,97 218,96 211,100 221,101 222,104 226,104 227,101 231,108 241,108 243,106 239,105 240,104 244,106 267,106 269,104 268,100 270,98" stroke="rgb(0,0,0)" /><polygon points="277,700 270,693 274,695 276,694 276,690 274,690 273,687 275,686 273,684 271,684 271,686 265,685 262,684 262,682 258,683 257,684 259,685 254,687 255,689 262,690 254,691 251,688 249,689 236,686 231,687 227,685 221,687 221,689 218,689 218,686 211,685 210,683 207,682 204,683 202,686 199,685 202,685 202,682 194,682 191,684 191,686 197,689 184,689 191,691 191,694 195,694 198,696 227,700 233,703 242,703 249,707 257,707 257,705 261,705 262,707 270,707 274,706 276,703 275,701 277,700" stroke="rgb(0,0,0)" /><polygon points="423,297 422,295 420,297 416,296 413,298 408,297 416,295 413,293 413,291 416,291 415,289 417,287 417,283 415,283 414,278 416,277 412,275 414,269 416,268 415,267 390,267 389,264 366,263 364,266 333,267 332,268 336,270 325,271 345,272 353,274 336,274 336,276 332,279 331,277 325,277 323,279 324,282 321,286 323,291 332,290 333,287 335,289 337,288 338,290 344,288 340,292 319,293 319,295 316,297 310,297 309,294 304,296 303,293 263,295 267,297 252,295 262,295 262,293 248,293 246,295 250,299 244,296 221,297 221,295 208,295 205,292 199,292 199,294 197,294 196,296 200,300 196,298 194,301 192,292 189,292 189,286 191,285 193,287 194,285 195,287 197,287 201,284 200,280 197,281 194,278 192,281 192,277 190,274 192,270 195,270 193,268 192,261 197,257 197,255 179,255 176,257 173,256 169,260 170,266 177,267 177,261 178,263 180,261 178,264 180,267 174,267 174,273 172,275 173,274 171,273 169,275 170,277 168,278 170,283 167,287 169,297 165,303 166,307 164,309 166,311 166,320 168,324 167,326 166,324 165,325 165,329 167,330 165,332 168,333 168,335 170,335 170,337 174,337 176,329 178,330 178,334 180,333 180,330 182,334 183,330 185,330 184,333 186,335 190,335 192,333 190,330 198,330 199,332 201,330 201,332 207,332 208,329 214,330 215,328 227,328 231,326 234,326 235,329 257,329 262,326 262,329 292,329 292,325 293,327 297,327 300,329 305,325 306,327 310,327 312,325 313,319 313,326 323,326 326,323 326,321 325,324 327,326 329,324 339,325 340,323 342,323 341,324 343,325 345,321 346,325 341,328 342,329 347,329 348,327 349,329 353,330 362,330 368,326 364,325 362,322 363,315 359,313 363,313 363,311 365,310 363,309 364,308 366,310 383,311 385,310 383,308 385,308 386,311 395,311 395,314 393,315 395,330 396,328 400,327 411,325 413,325 414,327 417,326 414,315 414,309 417,306 416,305 422,304 420,300 423,297" stroke="rgb(0,0,0)" /><polygon points="270,98 269,95 245,95 226,97 218,96 211,100 221,101 221,104 226,104 227,101 231,108 241,108 243,106 239,105 240,104 244,106 267,106 269,104 268,100 270,98" stroke="rgb(0,0,0)" /><polygon points="287,553 278,545 269,545 269,548 264,545 262,545 262,547 256,547 255,546 258,545 257,544 239,545 239,543 232,542 217,542 217,544 227,544 214,545 213,548 208,547 207,548 209,552 207,554 212,556 205,557 217,558 217,555 279,555 280,557 284,557 287,553" stroke="rgb(0,0,0)" /><polygon points="216,511 214,511 216,511" stroke="rgb(0,0,0)" /><polygon points="251,407 251,404 248,402 234,402 231,395 229,397 224,393 220,393 218,391 213,390 180,390 179,393 172,393 173,396 175,396 175,401 173,403 175,405 187,405 189,406 189,408 208,408 210,406 213,408 222,408 223,406 224,408 251,407" stroke="rgb(0,0,0)" /><polygon points="332,269 319,268 319,266 305,266 298,269 281,267 278,268 278,270 260,271 282,273 284,272 293,275 278,275 275,277 206,276 205,281 207,285 208,283 208,288 216,288 216,286 218,286 223,289 268,289 270,286 270,289 291,289 292,287 293,289 296,288 297,285 298,288 305,289 302,289 302,291 306,291 310,286 311,276 308,276 307,274 310,273 309,272 300,271 317,271 332,269" stroke="rgb(0,0,0)" /><polygon points="274,250 272,246 269,249 266,248 265,250 255,250 254,249 258,247 257,244 247,244 247,242 243,244 243,242 238,241 234,243 235,241 229,238 225,238 225,240 221,238 208,239 208,243 211,246 209,250 213,253 216,252 216,247 218,252 220,250 218,245 221,243 223,245 220,248 222,252 228,251 229,247 229,249 231,250 232,245 232,249 234,251 230,251 230,253 255,252 260,253 274,250" stroke="rgb(0,0,0)" /><polygon points="236,471 229,468 206,468 208,470 207,472 209,473 209,476 211,474 224,475 236,471" stroke="rgb(0,0,0)" /><polygon points="229,159 211,158 201,160 201,157 194,161 212,161 212,163 226,163 226,161 229,159" stroke="rgb(0,0,0)" /><polygon points="277,700 270,693 274,695 276,694 276,690 274,690 273,687 275,686 273,684 271,684 271,686 265,685 262,684 262,682 258,683 257,684 259,685 254,687 255,689 262,690 254,691 251,688 249,689 236,686 231,687 227,685 221,687 221,689 218,689 218,686 211,685 210,683 207,682 204,683 202,686 199,685 202,685 202,682 194,682 191,684 191,686 197,689 184,689 191,691 191,694 195,694 198,696 227,700 233,703 242,703 249,707 257,707 257,705 261,705 262,707 270,707 274,706 276,703 275,701 277,700" stroke="rgb(0,0,0)" /></svg>