<?xml version="1.0" encoding="utf-8" ?>
<svg baseProfile="full" height="100%" version="1.1" width="100%" xmlns="http://www.w3.org/2000/svg" xmlns:ev="http://www.w3.org/2001/xml-events" xmlns:xlink="http://www.w3.org/1999/xlink"><defs /><polygon points="757,534 757,534 757,533 757,533 756,533 756,533 756,534 756,534 757,534" stroke="rgb(0,0,0)" /><polygon points="749,626 749,626 749,625 749,625 748,625 748,625 748,626 748,626 749,626" stroke="rgb(0,0,0)" /><polygon points="706,414 706,414 706,413 706,413 705,413 705,413 705,414 705,414 706,414" stroke="rgb(0,0,0)" /><polygon points="701,367 701,367 701,366 701,366 700,366 700,366 700,367 700,367 701,367" stroke="rgb(0,0,0)" /><polygon points="700,92 700,92 700,91 700,91 699,91 699,91 699,92 699,92 700,92" stroke="rgb(0,0,0)" /><polygon points="694,260 694,260 694,259 694,259 693,259 693,259 693,260 693,260 694,260" stroke="rgb(0,0,0)" /><polygon points="694,159 694,159 694,158 694,158 693,158 693,158 693,159 693,159 694,159" stroke="rgb(0,0,0)" /><polygon points="690,196 690,196 690,195 690,195 689,195 689,195 689,196 689,196 690,196" stroke="rgb(0,0,0)" /><polygon points="685,663 685,663 685,662 685,662 684,662 684,662 684,663 684,663 685,663" stroke="rgb(0,0,0)" /><polygon points="685,626 685,626 685,625 685,625 684,625 684,625 684,626 684,626 685,626" stroke="rgb(0,0,0)" /><polygon points="673,587 673,587 673,586 673,586 672,586 672,586 672,587 672,587 673,587" stroke="rgb(0,0,0)" /><polygon points="659,107 659,107 659,106 659,106 658,106 658,106 658,107 658,107 659,107" stroke="rgb(0,0,0)" /><polygon points="644,664 644,664 644,663 644,663 643,663 643,663 643,664 643,664 644,664" stroke="rgb(0,0,0)" /><polygon points="640,163 640,163 640,162 640,162 639,162 639,162 639,163 639,163 640,163" stroke="rgb(0,0,0)" /><polygon points="639,509 639,509 639,508 639,508 638,508 638,508 638,509 638,509 639,509" stroke="rgb(0,0,0)" /><polygon points="637,279 637,279 637,278 637,278 636,278 636,278 636,279 636,279 637,279" stroke="rgb(0,0,0)" /><polygon points="635,585 635,585 635,584 635,584 634,584 634,584 634,585 634,585 635,585" stroke="rgb(0,0,0)" /><polygon points="632,427 632,427 632,426 632,426 631,426 631,426 631,427 631,427 632,427" stroke="rgb(0,0,0)" /><polygon points="632,236 632,236 632,235 632,235 631,235 631,235 631,236 631,236 632,236" stroke="rgb(0,0,0)" /><polygon points="630,360 630,360 630,359 630,359 629,359 629,359 629,360 629,360 630,360" stroke="rgb(0,0,0)" /><polygon points="593,669 593,669 593,668 593,668 592,668 592,668 592,669 592,669 593,669" stroke="rgb(0,0,0)" /><polygon points="587,112 587,112 587,111 587,111 586,111 586,111 586,112 586,112 587,112" stroke="rgb(0,0,0)" /><polygon points="586,510 586,510 586,509 586,509 585,509 585,509 585,510 585,510 586,510" stroke="rgb(0,0,0)" /><polygon points="585,434 585,434 585,433 585,433 584,433 584,433 584,434 584,434 585,434" stroke="rgb(0,0,0)" /><polygon points="582,587 582,587 582,586 582,586 581,586 581,586 581,587 581,587 582,587" stroke="rgb(0,0,0)" /><polygon points="582,279 582,279 582,278 582,278 581,278 581,278 581,279 581,279 582,279" stroke="rgb(0,0,0)" /><polygon points="580,396 580,396 580,395 580,395 579,395 579,395 579,396 579,396 580,396" stroke="rgb(0,0,0)" /><polygon points="579,236 579,236 579,235 579,235 578,235 578,235 578,236 578,236 579,236" stroke="rgb(0,0,0)" /><polygon points="539,473 539,473 539,472 539,472 538,472 538,472 538,473 538,473 539,473" stroke="rgb(0,0,0)" /><polygon points="538,661 538,661 538,660 538,660 537,660 537,660 537,661 537,661 538,661" stroke="rgb(0,0,0)" /><polygon points="536,356 536,356 536,355 536,355 535,355 535,355 535,356 535,356 536,356" stroke="rgb(0,0,0)" /><polygon points="529,510 529,510 529,509 529,509 528,509 528,509 528,510 528,510 529,510" stroke="rgb(0,0,0)" /><polygon points="528,395 528,395 528,394 528,394 527,394 527,394 527,395 527,395 528,395" stroke="rgb(0,0,0)" /><polygon points="528,200 528,200 528,199 528,199 527,199 527,199 527,200 527,200 528,200" stroke="rgb(0,0,0)" /><polygon points="525,550 525,550 525,549 525,549 524,549 524,549 524,550 524,550 525,550" stroke="rgb(0,0,0)" /><polygon points="523,281 523,281 523,280 523,280 522,280 522,280 522,281 522,281 523,281" stroke="rgb(0,0,0)" /><polygon points="522,240 522,240 522,239 522,239 521,239 521,239 521,240 521,240 522,240" stroke="rgb(0,0,0)" /><polygon points="517,115 517,115 517,114 517,114 516,114 516,114 515,114 515,114 515,115 515,115 516,116 516,116 517,115" stroke="rgb(0,0,0)" /><polygon points="485,434 485,434 485,433 485,433 484,433 484,433 484,434 484,434 485,434" stroke="rgb(0,0,0)" /><polygon points="483,589 483,589 483,588 483,588 482,588 482,588 482,589 482,589 483,589" stroke="rgb(0,0,0)" /><polygon points="482,512 482,512 482,511 482,511 481,511 481,511 481,512 481,512 482,512" stroke="rgb(0,0,0)" /><polygon points="482,472 482,472 482,471 482,471 481,471 481,471 481,472 481,472 482,472" stroke="rgb(0,0,0)" /><polygon points="482,201 482,201 482,200 482,200 481,200 481,200 481,201 481,201 482,201" stroke="rgb(0,0,0)" /><polygon points="481,357 481,357 481,356 481,356 480,356 480,356 480,357 480,357 481,357" stroke="rgb(0,0,0)" /><polygon points="479,283 479,283 479,282 479,282 478,282 478,282 478,283 478,283 479,283" stroke="rgb(0,0,0)" /><polygon points="475,394 475,394 475,393 475,393 474,393 474,393 474,394 474,394 475,394" stroke="rgb(0,0,0)" /><polygon points="475,240 475,240 475,239 475,239 474,239 474,239 474,240 474,240 475,240" stroke="rgb(0,0,0)" /><polygon points="455,114 455,114 455,113 455,113 454,113 454,113 454,114 454,114 455,114" stroke="rgb(0,0,0)" /><polygon points="436,399 436,399 436,398 436,398 435,398 435,398 435,399 435,399 436,399" stroke="rgb(0,0,0)" /><polygon points="434,356 434,356 434,355 434,355 433,355 433,355 433,356 433,356 434,356" stroke="rgb(0,0,0)" /><polygon points="431,692 431,692 431,691 431,691 430,691 430,691 430,692 430,692 431,692" stroke="rgb(0,0,0)" /><polygon points="428,588 428,588 428,587 428,587 427,587 427,587 427,588 427,588 428,588" stroke="rgb(0,0,0)" /><polygon points="428,511 428,511 428,510 428,510 427,510 427,510 427,511 427,511 428,511" stroke="rgb(0,0,0)" /><polygon points="337,245 337,245 337,244 337,244 336,244 336,244 336,245 336,245 337,245" stroke="rgb(0,0,0)" /><polygon points="325,624 325,624 325,623 325,623 324,623 324,623 324,624 324,624 325,624" stroke="rgb(0,0,0)" /><polygon points="322,205 322,205 322,204 322,204 321,204 321,204 321,205 321,205 322,205" stroke="rgb(0,0,0)" /><polygon points="321,280 321,280 321,279 321,279 320,279 320,279 320,280 320,280 321,280" stroke="rgb(0,0,0)" /><polygon points="302,692 302,692 302,691 302,691 301,691 301,691 301,692 301,692 302,692" stroke="rgb(0,0,0)" /><polygon points="287,548 287,548 287,547 287,547 286,547 286,547 286,548 286,548 287,548" stroke="rgb(0,0,0)" /><polygon points="283,362 283,362 283,361 283,361 282,361 282,361 282,362 282,362 283,362" stroke="rgb(0,0,0)" /><polygon points="253,241 253,241 253,240 253,240 252,240 252,240 252,241 252,241 253,241" stroke="rgb(0,0,0)" /><polygon points="248,103 248,103 248,102 248,102 247,102 247,102 247,103 247,103 248,103" stroke="rgb(0,0,0)" /><polygon points="242,692 242,692 243,691 243,691 242,690 242,690 241,690 241,690 241,691 241,691 241,692 241,692 242,692" stroke="rgb(0,0,0)" /><polygon points="230,313 230,313 230,312 230,312 229,312 229,312 229,313 229,313 230,313" stroke="rgb(0,0,0)" /><polygon points="221,103 221,103 221,102 221,102 220,102 220,102 220,103 220,103 221,103" stroke="rgb(0,0,0)" /><polygon points="218,546 218,546 218,545 218,545 217,545 217,545 217,546 217,546 218,546" stroke="rgb(0,0,0)" /><polygon points="215,511 215,511 215,510 215,510 214,510 214,510 214,511 214,511 215,511" stroke="rgb(0,0,0)" /><polygon points="215,396 215,396 215,395 215,395 214,395 214,395 213,395 213,395 213,396 213,396 214,397 214,397 215,396" stroke="rgb(0,0,0)" /><polygon points="215,281 215,281 215,280 215,280 214,280 214,280 214,281 214,281 215,281" stroke="rgb(0,0,0)" /><polygon points="214,239 214,239 214,238 214,238 213,238 213,238 213,239 213,239 214,239" stroke="rgb(0,0,0)" /><polygon points="210,474 210,474 210,473 210,473 209,473 209,473 209,474 209,474 210,474" stroke="rgb(0,0,0)" /><polygon points="201,158 201,158 201,157 201,157 200,157 200,157 200,158 200,158 201,158" stroke="rgb(0,0,0)" /><polygon points="195,690 195,690 195,689 195,689 194,689 194,689 194,690 194,690 195,690" stroke="rgb(0,0,0)" /></svg>