<?xml version="1.0" encoding="utf-8" ?>
<svg baseProfile="full" height="100%" version="1.1" width="100%" xmlns="http://www.w3.org/2000/svg" xmlns:ev="http://www.w3.org/2001/xml-events" xmlns:xlink="http://www.w3.org/1999/xlink"><defs /><polygon points="296,174 296,157 293,152 286,156 284,152 282,160 280,157 280,153 283,151 282,150 270,149 271,147 269,146 268,148 267,146 264,148 263,152 267,153 268,151 275,151 270,152 267,155 267,157 270,160 271,158 274,161 274,163 280,167 275,166 274,169 270,169 266,165 266,163 261,159 252,160 249,158 261,158 263,153 258,151 252,151 249,153 221,151 218,153 212,153 203,150 192,150 182,152 184,154 182,155 184,156 184,158 181,160 185,162 185,164 206,163 206,165 226,166 226,163 241,163 229,165 240,167 234,168 186,166 186,168 180,173 181,176 178,177 180,178 180,180 186,182 180,181 180,184 227,184 226,185 228,186 228,188 237,188 271,184 276,185 278,183 278,179 274,178 275,177 282,176 286,173 290,175 296,174" stroke="rgb(0,0,0)" /><polygon points="206,510 204,510 206,510" stroke="rgb(0,0,0)" /><polygon points="310,244 295,242 295,239 268,239 268,241 274,242 281,246 272,245 270,243 267,247 268,244 264,242 261,242 259,246 259,243 256,241 246,242 238,241 232,238 221,237 211,237 208,239 208,247 210,254 233,253 270,254 270,252 276,250 308,248 308,246 305,246 310,244" stroke="rgb(0,0,0)" /><polygon points="298,397 296,393 291,393 293,391 290,390 290,388 280,388 280,390 268,390 265,387 242,387 239,389 236,387 232,387 228,389 225,388 223,392 209,389 176,390 165,388 164,384 160,388 164,390 163,393 167,398 169,396 167,398 170,401 168,403 166,401 164,403 165,406 185,408 223,409 252,407 296,407 297,406 295,404 279,404 279,401 267,401 275,399 292,399 298,397" stroke="rgb(0,0,0)" /><polygon points="309,558 301,556 309,555 309,546 305,544 300,546 286,544 283,546 288,549 288,552 283,549 282,546 273,544 264,545 255,543 209,541 209,543 213,544 210,544 209,547 205,548 205,551 202,552 205,555 205,558 270,558 270,556 275,556 278,559 309,558" stroke="rgb(0,0,0)" /><polygon points="296,174 296,157 293,152 286,156 284,152 282,160 280,157 280,153 283,151 282,150 270,149 271,147 269,146 268,148 267,146 264,148 263,152 267,153 268,151 275,151 270,152 267,155 267,157 270,160 271,158 274,161 274,163 280,167 275,166 274,169 270,169 266,165 266,163 261,159 252,160 249,158 261,158 263,153 258,151 252,151 249,153 221,151 218,153 212,153 203,150 192,150 182,152 184,154 182,155 184,156 184,158 181,160 185,162 185,164 206,163 206,165 226,166 226,163 241,163 229,165 240,167 234,168 186,166 186,168 180,173 181,176 178,177 180,178 180,180 186,182 180,181 180,184 227,184 226,185 228,186 228,188 237,188 271,184 276,185 278,183 278,179 274,178 275,177 282,176 286,173 290,175 296,174" stroke="rgb(0,0,0)" /><polygon points="310,244 295,242 295,239 268,239 268,241 274,242 281,246 272,245 270,243 267,247 268,244 262,241 259,246 259,243 256,241 246,242 238,241 232,238 221,237 211,237 208,239 208,247 210,254 233,253 270,254 270,252 276,250 308,248 308,246 305,246 310,244" stroke="rgb(0,0,0)" /><polygon points="298,397 296,393 291,393 293,391 290,390 290,388 280,388 280,390 268,390 265,387 242,387 239,389 236,387 232,387 228,389 225,388 223,392 209,389 176,390 165,388 164,384 160,388 164,390 163,393 167,398 169,396 167,398 170,401 168,403 166,401 164,403 165,406 185,408 223,409 252,407 296,407 297,406 295,404 279,404 279,401 267,401 275,399 292,399 298,397" stroke="rgb(0,0,0)" /><polygon points="293,356 291,356 293,356" stroke="rgb(0,0,0)" /><polygon points="323,275 313,275 317,277 315,279 316,289 317,282 319,282 320,284 321,283 320,278 321,280 323,275" stroke="rgb(0,0,0)" /><polygon points="363,247 361,245 361,243 363,242 362,241 345,240 351,240 351,238 324,237 320,243 317,242 315,244 314,253 331,253 331,251 326,250 355,249 363,247" stroke="rgb(0,0,0)" /><polygon points="439,152 349,151 320,152 316,154 303,154 303,152 299,153 301,161 300,166 302,168 299,171 302,185 347,184 348,188 346,189 314,189 326,190 325,191 310,191 310,189 247,189 222,191 172,190 169,192 173,194 225,194 226,196 240,195 288,197 283,198 283,200 278,199 271,200 268,202 246,200 269,200 269,198 209,198 206,202 207,206 205,212 208,214 212,213 212,215 254,213 251,210 242,210 240,208 227,205 233,205 241,208 261,209 261,212 273,212 274,215 283,215 280,217 270,218 266,220 259,220 264,218 262,216 242,216 242,218 245,218 237,219 237,217 207,217 207,219 204,220 185,220 185,222 361,223 370,221 371,223 432,222 433,217 430,215 431,209 428,205 429,201 422,201 420,203 421,206 418,208 418,201 416,199 416,196 420,194 427,194 431,190 431,188 436,189 438,187 438,177 406,177 423,175 423,173 429,171 432,172 433,168 431,168 431,170 431,162 429,160 413,159 412,157 391,157 389,160 385,161 393,163 390,165 390,172 393,172 391,176 395,180 389,178 389,180 383,181 385,179 384,178 376,177 369,178 369,180 364,182 366,183 367,187 365,192 362,190 360,194 369,194 371,198 374,195 377,195 379,197 378,200 375,200 374,204 370,205 366,209 366,211 378,212 372,212 372,214 387,213 393,207 394,203 394,208 390,214 380,216 366,216 366,218 364,218 363,220 363,218 360,216 310,217 308,209 308,198 309,196 314,195 336,195 339,197 338,200 329,199 323,201 319,199 313,207 315,215 339,215 339,213 362,212 363,209 361,205 361,200 357,199 355,196 358,192 358,186 364,183 362,181 364,169 361,166 363,162 350,162 349,161 352,160 346,159 347,158 384,157 393,155 430,155 430,153 439,152" stroke="rgb(0,0,0)" /><polygon points="396,395 394,391 388,389 357,390 366,391 366,395 368,395 366,398 367,405 374,405 379,403 385,405 390,395 384,392 391,393 395,396 396,395" stroke="rgb(0,0,0)" /><polygon points="467,508 465,506 423,505 415,513 415,515 420,521 423,521 425,519 428,522 431,522 433,520 442,521 444,518 444,509 465,510 467,508" stroke="rgb(0,0,0)" /><polygon points="467,595 465,594 465,590 458,590 452,586 448,587 440,584 432,584 418,581 412,588 415,588 414,589 416,592 414,594 417,597 419,597 420,594 420,596 422,597 422,592 424,593 424,597 467,595" stroke="rgb(0,0,0)" /><polygon points="438,695 431,694 425,691 392,692 392,694 395,696 404,697 424,697 438,695" stroke="rgb(0,0,0)" /><polygon points="558,133 557,97 553,93 526,94 523,97 513,97 484,93 448,93 442,95 441,94 440,98 445,105 449,105 449,103 451,102 451,106 457,109 453,109 450,113 453,116 457,118 474,120 458,120 453,118 449,114 446,114 442,119 440,118 439,113 435,111 434,115 437,120 437,123 435,124 439,125 440,131 438,126 435,126 431,132 432,141 434,144 442,144 444,142 446,144 504,144 537,142 542,140 540,127 543,125 549,125 551,137 553,132 556,132 557,134 558,133" stroke="rgb(0,0,0)" /><polygon points="496,603 494,602 496,598 492,593 495,593 496,591 491,585 481,582 470,581 468,583 469,596 478,596 479,592 482,591 490,595 492,598 483,596 482,599 486,602 485,604 478,599 475,599 473,603 473,600 471,603 470,602 468,604 466,599 429,599 414,602 412,599 412,593 407,592 403,600 407,601 408,603 397,600 377,599 318,600 317,603 312,604 312,607 301,612 299,614 299,618 305,621 309,617 317,616 323,613 325,613 323,615 324,617 453,616 460,618 473,618 473,616 461,616 482,612 496,603" stroke="rgb(0,0,0)" /><polygon points="497,249 495,248 495,246 482,247 485,245 495,244 496,237 494,235 475,234 472,235 469,239 468,244 472,251 487,251 488,249 497,249" stroke="rgb(0,0,0)" /><polygon points="496,402 495,387 485,391 474,392 471,395 469,395 470,393 468,390 466,393 468,400 473,405 485,404 489,401 489,403 496,402" stroke="rgb(0,0,0)" /><polygon points="689,538 689,534 682,527 683,521 678,520 673,513 671,515 672,520 670,515 672,502 681,502 685,504 687,502 685,496 684,498 684,495 686,493 683,492 681,497 681,493 678,491 679,483 672,480 670,464 670,462 672,461 664,460 661,458 661,432 659,432 659,436 658,429 660,429 661,423 660,372 661,377 662,371 659,368 662,366 662,339 659,338 658,340 657,338 655,338 654,340 650,339 648,341 647,339 626,340 623,343 619,344 629,346 640,345 640,343 653,345 653,444 651,446 647,444 639,445 623,440 622,443 619,439 619,431 620,436 623,423 633,414 645,409 647,407 647,404 638,403 638,405 641,405 636,406 635,409 634,406 631,406 626,409 621,409 617,413 616,411 611,415 613,405 615,408 619,405 617,404 620,401 631,399 637,399 637,401 642,401 647,400 648,397 646,395 637,393 636,392 639,391 634,389 631,390 633,394 630,394 630,390 632,389 630,387 627,388 628,387 625,385 622,388 623,384 618,379 617,370 619,369 622,362 621,355 628,348 627,347 619,347 619,349 608,358 613,353 611,352 612,349 618,346 618,344 616,344 621,342 622,339 636,338 618,337 604,333 571,330 569,328 569,320 564,315 567,316 567,312 526,311 526,313 522,315 520,327 521,328 537,327 538,325 560,328 549,329 546,331 542,330 542,332 537,332 537,330 519,330 509,334 515,336 534,336 541,338 518,339 535,340 534,341 467,341 439,339 427,340 425,342 430,347 453,345 483,348 490,347 490,350 500,354 502,356 502,360 499,367 477,369 472,372 463,374 460,377 468,385 471,384 470,387 473,390 477,388 489,387 505,380 498,386 502,386 499,389 498,396 500,396 500,394 500,401 508,405 497,405 491,408 510,427 519,426 538,407 536,405 527,403 524,403 524,405 520,404 517,398 517,394 515,392 516,389 517,392 524,386 534,386 534,384 531,384 549,378 550,377 547,376 550,374 554,374 554,376 556,376 564,373 566,371 565,370 571,365 571,353 575,350 576,351 573,354 579,356 577,356 576,359 573,359 573,364 571,367 573,368 575,366 584,366 587,364 587,360 585,360 585,358 587,357 587,353 583,349 573,347 568,343 586,347 601,347 603,351 601,351 598,348 594,348 587,352 587,354 591,358 590,361 593,364 596,362 595,361 598,357 597,355 593,357 595,353 598,353 600,356 601,354 603,354 601,358 601,370 596,370 597,369 595,367 590,367 581,370 578,369 570,372 570,375 568,375 569,374 567,373 563,376 545,380 535,384 554,385 558,387 564,383 568,387 563,387 563,392 565,394 567,390 573,392 577,389 576,388 579,385 584,383 586,385 596,381 603,375 604,379 601,379 602,382 600,384 602,388 600,395 601,403 598,403 593,407 594,406 592,405 588,410 590,414 592,413 592,411 593,413 599,413 601,411 604,414 603,418 605,420 605,428 601,431 600,435 601,438 604,437 606,439 604,446 599,446 599,443 597,444 597,446 596,443 565,446 520,444 515,445 514,444 516,444 517,441 512,434 501,433 499,444 501,447 499,447 488,444 460,442 461,439 458,437 457,434 449,432 447,436 448,445 364,447 359,448 357,451 458,451 476,453 426,454 477,455 485,457 464,456 391,457 391,459 369,459 369,457 356,458 353,457 353,453 355,450 348,446 311,446 305,450 305,452 307,453 306,454 303,452 303,450 297,452 269,453 259,455 255,453 169,454 171,463 169,473 169,485 172,488 174,487 171,491 169,498 170,512 173,515 178,513 179,515 182,515 180,517 182,518 180,520 182,521 175,525 173,522 171,522 169,525 170,531 168,532 175,533 176,531 180,530 182,532 180,534 182,536 180,536 180,538 176,540 186,547 187,550 193,556 196,552 198,555 201,549 199,548 201,545 197,541 198,540 207,538 217,538 229,526 208,525 207,523 199,523 197,522 197,519 200,517 355,517 357,515 360,516 361,512 363,511 363,506 362,505 361,507 358,507 357,502 360,502 363,505 364,503 368,504 370,502 376,502 377,506 378,504 379,505 389,503 390,501 394,507 395,504 394,512 396,521 394,522 396,528 401,533 408,536 408,532 416,538 425,540 445,541 448,544 454,543 458,549 463,550 465,549 466,541 491,540 496,538 498,536 494,536 501,526 501,529 498,533 499,535 500,534 496,539 499,539 497,558 504,559 503,561 462,563 375,563 365,561 362,558 361,551 359,549 351,552 332,551 327,553 328,557 340,557 344,562 349,563 355,567 358,567 364,575 378,580 397,583 407,583 410,582 412,578 418,577 423,579 446,581 448,583 457,583 459,581 459,577 463,576 492,581 500,585 498,585 497,588 499,596 500,597 501,595 502,598 500,599 500,607 499,605 488,613 488,615 495,614 500,611 504,607 504,602 506,602 508,610 512,608 515,604 515,598 513,595 514,588 510,578 508,578 509,572 519,576 528,577 539,583 545,573 551,569 555,569 564,562 566,562 570,554 576,554 578,552 565,552 559,554 558,555 561,556 560,557 551,559 550,557 546,557 540,560 533,561 528,565 523,566 518,563 517,557 514,552 509,559 511,554 509,553 508,555 511,548 522,540 570,540 593,538 653,540 649,542 612,541 612,543 615,543 613,545 604,545 604,547 601,548 603,549 601,553 602,556 574,563 558,572 553,578 562,587 564,583 564,576 566,581 569,580 575,571 572,578 574,580 581,580 582,579 580,578 584,575 604,570 607,567 615,566 616,562 621,562 623,560 620,557 621,548 617,547 618,546 624,548 622,550 622,556 624,558 640,557 640,555 637,555 647,554 648,557 651,558 670,559 672,557 671,549 675,546 679,547 684,555 687,551 687,548 684,545 680,545 687,545 687,542 682,542 678,540 674,541 674,539 678,537 677,534 679,537 680,534 682,539 687,540 689,538" stroke="rgb(0,0,0)" /><polygon points="496,557 495,540 489,543 469,543 467,546 467,554 463,553 462,551 459,551 458,552 460,553 457,556 455,554 457,550 454,544 446,546 446,556 455,557 457,560 494,559 496,557" stroke="rgb(0,0,0)" /><polygon points="507,281 502,278 495,279 494,276 488,276 486,278 481,278 481,276 479,276 476,278 479,280 475,282 473,285 479,289 487,289 487,287 493,287 495,282 496,283 507,281" stroke="rgb(0,0,0)" /><polygon points="495,202 494,198 471,197 469,204 471,205 473,203 495,202" stroke="rgb(0,0,0)" /><polygon points="559,655 556,651 549,651 544,649 433,650 408,648 378,648 376,658 377,688 370,689 376,686 377,680 374,679 373,682 372,680 363,680 348,684 341,684 335,687 331,686 322,689 312,689 300,695 300,702 302,702 302,700 303,704 305,704 308,708 349,710 352,708 348,707 349,706 361,703 352,702 349,704 345,704 344,703 347,699 370,701 375,703 378,707 380,705 382,706 385,701 385,698 387,700 388,697 389,700 412,699 405,697 392,697 393,695 390,694 391,690 428,690 443,692 442,697 444,700 445,698 446,699 444,710 448,711 450,709 450,698 452,692 452,694 454,694 454,690 454,695 456,695 456,674 458,671 449,670 446,668 446,661 459,660 462,662 488,664 495,666 499,666 502,659 519,662 550,663 550,661 545,661 547,659 546,658 549,658 551,654 554,655 553,699 555,700 557,657 559,655" stroke="rgb(0,0,0)" /><polygon points="497,513 497,511 493,508 480,506 468,507 469,512 481,513 472,513 469,515 471,518 484,518 488,516 495,517 497,513" stroke="rgb(0,0,0)" /><polygon points="498,437 497,429 464,428 453,429 461,430 460,432 468,440 478,440 479,438 482,439 482,441 496,442 496,435 497,438 498,437" stroke="rgb(0,0,0)" /><polygon points="544,680 523,677 521,675 524,675 524,673 512,671 523,671 523,669 512,669 503,666 501,667 501,674 500,665 498,675 499,686 501,688 499,690 499,699 501,701 504,701 508,699 525,698 505,696 506,691 509,689 525,690 526,689 524,687 503,686 536,684 506,682 544,680" stroke="rgb(0,0,0)" /><polygon points="524,278 522,278 524,278" stroke="rgb(0,0,0)" /><polygon points="547,398 546,389 526,389 520,393 520,396 523,399 535,402 543,400 541,402 543,404 546,403 545,402 547,398" stroke="rgb(0,0,0)" /><polygon points="599,550 597,542 531,542 521,545 519,547 524,549 519,551 518,554 519,557 525,562 529,559 529,557 545,552 553,553 565,549 585,549 579,552 592,553 599,550" stroke="rgb(0,0,0)" /><polygon points="599,508 593,505 589,506 569,502 568,504 565,504 559,508 552,508 550,511 550,515 547,514 549,509 545,504 540,507 522,507 520,511 524,515 529,517 539,517 539,519 542,521 550,520 551,522 569,522 576,521 577,520 574,519 575,518 584,517 585,519 588,519 595,517 598,515 597,510 599,508" stroke="rgb(0,0,0)" /><polygon points="528,201 526,201 528,201" stroke="rgb(0,0,0)" /><polygon points="558,133 557,97 553,93 526,94 523,97 513,97 484,93 448,93 442,95 441,94 440,98 445,105 449,105 449,103 451,102 451,106 457,109 453,109 450,113 453,116 457,118 474,120 458,120 453,118 449,114 446,114 442,119 440,118 439,113 435,111 434,115 437,120 437,123 435,124 439,125 440,131 438,126 435,126 431,132 432,141 434,144 442,144 444,142 446,144 504,144 537,142 542,140 540,127 543,125 549,125 551,137 553,132 556,132 557,134 558,133" stroke="rgb(0,0,0)" /><polygon points="769,717 761,715 754,716 707,713 596,714 560,711 554,709 553,715 532,714 501,716 502,720 506,723 552,722 550,719 542,718 556,718 559,723 767,723 769,717" stroke="rgb(0,0,0)" /><polygon points="559,655 556,651 549,651 544,649 433,650 408,648 378,648 376,658 377,688 370,689 376,686 377,680 374,679 373,682 372,680 363,680 348,684 341,684 335,687 331,686 322,689 312,689 300,695 300,702 302,702 302,700 303,704 305,704 308,708 349,710 352,708 348,707 349,706 361,703 352,702 349,704 345,704 344,703 347,699 370,701 375,703 378,707 380,705 382,706 385,701 385,698 387,700 388,697 389,700 412,699 405,697 392,697 393,695 390,694 391,690 428,690 443,692 442,697 444,700 445,698 446,699 444,710 448,711 450,709 450,698 452,692 452,694 454,694 454,690 454,695 456,695 456,674 458,671 449,670 446,668 446,661 459,660 462,662 488,664 495,666 499,666 502,659 519,662 550,663 550,661 545,661 547,659 546,658 549,658 551,654 554,655 553,699 555,700 557,657 559,655" stroke="rgb(0,0,0)" /><polygon points="691,564 689,559 686,561 668,559 628,559 622,562 624,564 628,564 627,565 618,564 616,568 608,568 606,572 602,573 611,573 612,570 643,571 620,573 618,576 589,580 586,584 572,588 569,593 580,597 585,597 585,595 599,597 608,595 631,595 632,597 642,597 646,595 645,594 647,594 646,595 648,596 652,593 653,586 647,583 652,583 654,584 654,596 669,595 671,591 676,591 679,585 675,581 670,580 675,580 679,582 683,577 684,570 691,564" stroke="rgb(0,0,0)" /><polygon points="751,168 745,127 743,126 743,114 740,97 738,93 724,93 716,89 707,89 704,88 701,84 697,84 687,89 678,87 653,93 623,93 608,91 571,93 573,109 576,105 621,105 649,111 652,113 666,114 668,111 666,109 663,111 667,104 713,104 717,107 711,105 708,105 706,107 687,105 687,107 684,108 685,109 683,106 679,106 678,111 677,109 675,111 676,109 672,108 670,111 673,117 675,118 674,119 671,118 651,120 608,120 573,118 573,133 576,134 620,130 624,127 633,126 641,123 665,121 656,123 656,126 654,126 654,124 646,124 638,126 638,128 635,130 633,130 632,128 630,131 627,128 624,130 626,135 631,138 639,138 639,140 648,139 650,140 650,142 656,141 656,143 660,144 662,142 670,143 679,145 681,146 681,148 685,148 685,145 687,143 686,144 688,145 685,148 694,150 695,148 693,148 693,143 691,140 693,138 693,135 691,134 685,138 684,136 695,131 697,131 698,133 702,130 700,129 701,128 707,129 723,125 714,129 701,132 696,137 695,141 694,139 692,140 693,143 695,144 694,145 698,150 701,149 710,156 729,159 732,159 733,157 735,160 739,160 741,166 746,164 745,166 747,167 747,169 751,168" stroke="rgb(0,0,0)" /><polygon points="589,403 589,395 587,393 589,392 588,391 580,393 578,395 577,394 573,400 578,404 581,403 586,407 589,403" stroke="rgb(0,0,0)" /><polygon points="682,624 658,624 649,623 645,621 657,621 657,619 610,619 606,620 606,622 599,622 596,618 591,623 584,621 586,619 585,618 577,619 573,618 573,615 569,615 569,624 571,625 570,630 578,632 594,631 585,630 589,628 631,631 632,630 629,628 630,627 669,631 675,625 682,624" stroke="rgb(0,0,0)" /><polygon points="751,168 745,127 743,126 743,114 740,97 738,93 724,93 716,89 707,89 704,88 701,84 697,84 687,89 678,87 653,93 623,93 608,91 571,93 573,109 576,105 621,105 649,111 652,113 666,114 668,111 666,109 663,111 667,104 713,104 717,107 711,105 708,105 706,107 687,105 687,107 684,108 685,109 683,106 679,106 678,111 677,109 675,111 676,109 672,108 670,111 673,117 675,118 674,119 671,118 651,120 608,120 573,118 573,133 576,134 620,130 624,127 633,126 641,123 665,121 656,123 656,126 654,126 654,124 646,124 638,126 638,128 635,130 633,130 632,128 630,131 627,128 624,130 626,135 631,138 639,138 639,140 648,139 650,140 650,142 656,141 656,143 660,144 662,142 670,143 679,145 681,146 681,148 685,148 685,145 687,143 686,144 688,145 685,148 694,150 695,148 693,148 693,143 691,140 693,138 693,135 691,134 685,138 684,136 695,131 697,131 698,133 702,130 700,129 701,128 707,129 723,125 714,129 701,132 696,137 695,141 694,139 692,140 693,143 695,144 694,145 698,150 701,149 710,156 729,159 732,159 733,157 735,160 739,160 741,166 746,164 745,166 747,167 747,169 751,168" stroke="rgb(0,0,0)" /><polygon points="723,696 721,695 721,693 717,693 715,691 708,689 702,689 699,692 692,692 698,691 700,689 699,688 687,689 686,692 684,691 685,690 683,689 683,687 679,686 627,686 627,688 617,688 616,687 618,687 618,685 597,685 571,688 572,698 579,698 580,697 577,696 578,695 594,695 594,697 634,696 609,695 610,694 636,694 650,697 650,693 664,696 664,698 670,696 667,695 668,693 679,696 693,697 723,696" stroke="rgb(0,0,0)" /><polygon points="702,671 702,667 699,663 700,661 697,659 694,659 692,661 669,659 645,659 639,661 632,661 611,658 596,659 577,658 572,656 571,657 572,674 574,671 577,672 581,670 651,672 659,671 661,669 660,668 665,668 665,670 668,670 669,669 667,668 667,666 669,666 669,668 673,668 674,670 678,669 680,665 680,671 682,669 687,669 688,672 690,671 690,669 694,669 696,673 702,671" stroke="rgb(0,0,0)" /><polygon points="651,273 645,272 629,274 628,275 630,276 626,278 624,281 622,281 623,288 624,289 626,286 633,286 639,281 645,279 645,276 651,273" stroke="rgb(0,0,0)" /><polygon points="650,425 650,414 646,411 632,418 625,425 623,433 627,438 630,439 631,437 634,439 634,441 640,442 641,432 642,431 645,434 646,439 650,425" stroke="rgb(0,0,0)" /><polygon points="651,381 649,366 650,351 648,350 644,353 647,350 646,349 640,351 643,349 638,348 626,353 624,356 626,363 631,371 648,386 649,390 651,381" stroke="rgb(0,0,0)" /><polygon points="702,671 702,667 699,663 700,661 697,659 694,659 692,661 669,659 645,659 639,661 632,661 611,658 596,659 577,658 572,656 571,657 572,674 574,671 577,672 581,670 651,672 659,671 661,669 660,668 665,668 665,670 668,670 669,669 667,668 667,666 669,666 669,668 673,668 674,670 678,669 680,665 680,671 682,669 687,669 688,672 690,671 690,669 694,669 696,673 702,671" stroke="rgb(0,0,0)" /><polygon points="692,357 690,357 692,357" stroke="rgb(0,0,0)" /><polygon points="777,615 776,611 767,615 746,615 730,619 729,618 728,620 730,622 735,620 732,623 729,623 725,620 719,624 718,628 718,618 723,615 718,614 717,612 716,613 716,640 718,645 718,656 720,660 717,663 718,677 719,674 721,674 722,672 724,672 725,674 727,673 725,669 725,662 721,658 721,656 724,659 725,658 721,652 723,654 724,653 725,641 728,638 725,634 726,625 753,626 753,623 756,622 768,622 768,619 772,620 774,618 775,620 777,615" stroke="rgb(0,0,0)" /><polygon points="773,541 772,536 769,533 761,533 759,535 760,539 771,540 772,542 773,541" stroke="rgb(0,0,0)" /></svg>