<?xml version="1.0" encoding="utf-8" ?>
<svg baseProfile="full" height="100%" version="1.1" width="100%" xmlns="http://www.w3.org/2000/svg" xmlns:ev="http://www.w3.org/2001/xml-events" xmlns:xlink="http://www.w3.org/1999/xlink"><defs /><polygon points="758,534 756,534 758,534" stroke="rgb(0,0,0)" /><polygon points="750,626 748,626 750,626" stroke="rgb(0,0,0)" /><polygon points="707,414 705,414 707,414" stroke="rgb(0,0,0)" /><polygon points="702,367 700,367 702,367" stroke="rgb(0,0,0)" /><polygon points="701,92 699,92 701,92" stroke="rgb(0,0,0)" /><polygon points="695,260 693,260 695,260" stroke="rgb(0,0,0)" /><polygon points="695,159 693,159 695,159" stroke="rgb(0,0,0)" /><polygon points="691,196 689,196 691,196" stroke="rgb(0,0,0)" /><polygon points="686,663 684,663 686,663" stroke="rgb(0,0,0)" /><polygon points="686,626 684,626 686,626" stroke="rgb(0,0,0)" /><polygon points="674,587 672,587 674,587" stroke="rgb(0,0,0)" /><polygon points="660,107 658,107 660,107" stroke="rgb(0,0,0)" /><polygon points="645,664 643,664 645,664" stroke="rgb(0,0,0)" /><polygon points="641,163 639,163 641,163" stroke="rgb(0,0,0)" /><polygon points="640,509 638,509 640,509" stroke="rgb(0,0,0)" /><polygon points="638,279 636,279 638,279" stroke="rgb(0,0,0)" /><polygon points="636,585 634,585 636,585" stroke="rgb(0,0,0)" /><polygon points="633,427 631,427 633,427" stroke="rgb(0,0,0)" /><polygon points="633,236 631,236 633,236" stroke="rgb(0,0,0)" /><polygon points="631,360 629,360 631,360" stroke="rgb(0,0,0)" /><polygon points="594,669 592,669 594,669" stroke="rgb(0,0,0)" /><polygon points="588,112 586,112 588,112" stroke="rgb(0,0,0)" /><polygon points="587,510 585,510 587,510" stroke="rgb(0,0,0)" /><polygon points="586,434 584,434 586,434" stroke="rgb(0,0,0)" /><polygon points="583,587 581,587 583,587" stroke="rgb(0,0,0)" /><polygon points="583,279 581,279 583,279" stroke="rgb(0,0,0)" /><polygon points="581,396 579,396 581,396" stroke="rgb(0,0,0)" /><polygon points="580,236 578,236 580,236" stroke="rgb(0,0,0)" /><polygon points="540,473 538,473 540,473" stroke="rgb(0,0,0)" /><polygon points="539,661 537,661 539,661" stroke="rgb(0,0,0)" /><polygon points="537,356 535,356 537,356" stroke="rgb(0,0,0)" /><polygon points="530,510 528,510 530,510" stroke="rgb(0,0,0)" /><polygon points="529,395 527,395 529,395" stroke="rgb(0,0,0)" /><polygon points="529,200 527,200 529,200" stroke="rgb(0,0,0)" /><polygon points="526,550 524,550 526,550" stroke="rgb(0,0,0)" /><polygon points="524,281 522,281 524,281" stroke="rgb(0,0,0)" /><polygon points="523,240 521,240 523,240" stroke="rgb(0,0,0)" /><polygon points="518,115 515,115 518,115" stroke="rgb(0,0,0)" /><polygon points="486,434 484,434 486,434" stroke="rgb(0,0,0)" /><polygon points="484,589 482,589 484,589" stroke="rgb(0,0,0)" /><polygon points="483,512 481,512 482,513 483,512" stroke="rgb(0,0,0)" /><polygon points="483,472 481,472 483,472" stroke="rgb(0,0,0)" /><polygon points="483,201 481,201 483,201" stroke="rgb(0,0,0)" /><polygon points="482,357 480,357 482,357" stroke="rgb(0,0,0)" /><polygon points="480,283 478,283 480,283" stroke="rgb(0,0,0)" /><polygon points="476,394 474,394 476,394" stroke="rgb(0,0,0)" /><polygon points="476,240 474,240 476,240" stroke="rgb(0,0,0)" /><polygon points="456,114 454,114 456,114" stroke="rgb(0,0,0)" /><polygon points="437,399 435,399 437,399" stroke="rgb(0,0,0)" /><polygon points="435,356 433,356 435,356" stroke="rgb(0,0,0)" /><polygon points="432,692 430,692 432,692" stroke="rgb(0,0,0)" /><polygon points="429,588 427,588 429,588" stroke="rgb(0,0,0)" /><polygon points="429,511 427,511 429,511" stroke="rgb(0,0,0)" /><polygon points="338,245 336,245 338,245" stroke="rgb(0,0,0)" /><polygon points="326,624 324,624 326,624" stroke="rgb(0,0,0)" /><polygon points="323,205 321,205 323,205" stroke="rgb(0,0,0)" /><polygon points="322,280 320,280 322,280" stroke="rgb(0,0,0)" /><polygon points="303,692 301,692 303,692" stroke="rgb(0,0,0)" /><polygon points="288,548 286,548 288,548" stroke="rgb(0,0,0)" /><polygon points="284,362 282,362 284,362" stroke="rgb(0,0,0)" /><polygon points="254,241 252,241 254,241" stroke="rgb(0,0,0)" /><polygon points="249,103 247,103 249,103" stroke="rgb(0,0,0)" /><polygon points="243,692 242,690 241,692 243,692" stroke="rgb(0,0,0)" /><polygon points="231,313 229,313 231,313" stroke="rgb(0,0,0)" /><polygon points="222,103 220,103 222,103" stroke="rgb(0,0,0)" /><polygon points="219,546 217,546 219,546" stroke="rgb(0,0,0)" /><polygon points="216,511 214,511 216,511" stroke="rgb(0,0,0)" /><polygon points="216,396 213,396 216,396" stroke="rgb(0,0,0)" /><polygon points="216,281 214,281 216,281" stroke="rgb(0,0,0)" /><polygon points="215,239 213,239 215,239" stroke="rgb(0,0,0)" /><polygon points="211,474 209,474 211,474" stroke="rgb(0,0,0)" /><polygon points="202,158 200,158 202,158" stroke="rgb(0,0,0)" /><polygon points="196,690 194,690 196,690" stroke="rgb(0,0,0)" /></svg>