<?xml version="1.0" encoding="utf-8" ?>
<svg baseProfile="full" height="100%" version="1.1" width="100%" xmlns="http://www.w3.org/2000/svg" xmlns:ev="http://www.w3.org/2001/xml-events" xmlns:xlink="http://www.w3.org/1999/xlink"><defs /><polygon points="197,163 195,163 197,163" stroke="rgb(0,0,0)" /><polygon points="206,510 204,510 206,510" stroke="rgb(0,0,0)" /><polygon points="211,239 209,239 211,239" stroke="rgb(0,0,0)" /><polygon points="212,398 211,396 210,398 212,398" stroke="rgb(0,0,0)" /><polygon points="212,547 210,547 212,547" stroke="rgb(0,0,0)" /><polygon points="255,169 253,169 255,169" stroke="rgb(0,0,0)" /><polygon points="263,242 261,242 263,242" stroke="rgb(0,0,0)" /><polygon points="273,397 271,397 273,397" stroke="rgb(0,0,0)" /><polygon points="293,356 291,356 293,356" stroke="rgb(0,0,0)" /><polygon points="318,280 316,280 318,280" stroke="rgb(0,0,0)" /><polygon points="320,245 318,245 320,245" stroke="rgb(0,0,0)" /><polygon points="321,204 319,204 321,204" stroke="rgb(0,0,0)" /><polygon points="383,398 381,398 383,398" stroke="rgb(0,0,0)" /><polygon points="426,511 424,511 426,511" stroke="rgb(0,0,0)" /><polygon points="431,588 429,588 431,588" stroke="rgb(0,0,0)" /><polygon points="434,695 432,695 434,695" stroke="rgb(0,0,0)" /><polygon points="453,131 451,131 453,131" stroke="rgb(0,0,0)" /><polygon points="472,588 470,588 472,588" stroke="rgb(0,0,0)" /><polygon points="475,241 473,241 475,241" stroke="rgb(0,0,0)" /><polygon points="476,394 474,394 476,394" stroke="rgb(0,0,0)" /><polygon points="478,474 476,474 478,474" stroke="rgb(0,0,0)" /><polygon points="478,548 476,548 478,548" stroke="rgb(0,0,0)" /><polygon points="481,281 479,281 481,281" stroke="rgb(0,0,0)" /><polygon points="483,201 481,201 483,201" stroke="rgb(0,0,0)" /><polygon points="483,656 481,656 483,656" stroke="rgb(0,0,0)" /><polygon points="484,511 482,511 484,511" stroke="rgb(0,0,0)" /><polygon points="488,435 486,435 488,435" stroke="rgb(0,0,0)" /><polygon points="511,697 509,697 511,697" stroke="rgb(0,0,0)" /><polygon points="524,278 522,278 524,278" stroke="rgb(0,0,0)" /><polygon points="524,393 522,393 524,393" stroke="rgb(0,0,0)" /><polygon points="524,551 522,551 524,551" stroke="rgb(0,0,0)" /><polygon points="526,510 524,510 526,510" stroke="rgb(0,0,0)" /><polygon points="528,201 526,201 528,201" stroke="rgb(0,0,0)" /><polygon points="530,134 528,134 530,134" stroke="rgb(0,0,0)" /><polygon points="533,715 531,715 533,715" stroke="rgb(0,0,0)" /><polygon points="541,658 539,658 541,658" stroke="rgb(0,0,0)" /><polygon points="576,588 574,588 576,588" stroke="rgb(0,0,0)" /><polygon points="578,102 576,102 578,102" stroke="rgb(0,0,0)" /><polygon points="578,395 576,395 578,395" stroke="rgb(0,0,0)" /><polygon points="579,622 577,622 579,622" stroke="rgb(0,0,0)" /><polygon points="580,122 578,122 580,122" stroke="rgb(0,0,0)" /><polygon points="581,690 579,690 581,690" stroke="rgb(0,0,0)" /><polygon points="586,663 584,663 586,663" stroke="rgb(0,0,0)" /><polygon points="630,278 628,278 630,278" stroke="rgb(0,0,0)" /><polygon points="631,428 629,428 631,428" stroke="rgb(0,0,0)" /><polygon points="633,359 631,359 633,359" stroke="rgb(0,0,0)" /><polygon points="666,662 664,662 666,662" stroke="rgb(0,0,0)" /><polygon points="692,357 690,357 692,357" stroke="rgb(0,0,0)" /><polygon points="752,625 750,625 752,625" stroke="rgb(0,0,0)" /><polygon points="761,538 759,538 761,538" stroke="rgb(0,0,0)" /></svg>